<?xml version="1.0" encoding="UTF-8"?>
<svg id="Capa_1" data-name="Capa 1" xmlns="http://www.w3.org/2000/svg" viewBox="0 0 30.43 30.43">
  <circle cx="15.21" cy="15.21" r="15.21" style="fill: #54c0e8;"/>
  <g>
    <path d="M19.4,10.12c-.51,0-.93.42-.93.93s.42.93.93.93.93-.42.93-.93-.42-.93-.93-.93Z" style="fill: #fff;"/>
    <path d="M15.28,11.31c-2.15,0-3.9,1.75-3.9,3.9s1.75,3.9,3.9,3.9,3.9-1.75,3.9-3.9-1.75-3.9-3.9-3.9ZM15.28,17.71c-1.38,0-2.5-1.12-2.5-2.5s1.12-2.5,2.5-2.5,2.5,1.12,2.5,2.5-1.12,2.5-2.5,2.5Z" style="fill: #fff;"/>
    <path d="M18.37,23.13h-6.32c-2.62,0-4.76-2.13-4.76-4.76v-6.32c0-2.62,2.13-4.76,4.76-4.76h6.32c2.62,0,4.76,2.13,4.76,4.76v6.32c0,2.62-2.13,4.76-4.76,4.76ZM12.05,8.79c-1.8,0-3.27,1.47-3.27,3.27v6.32c0,1.8,1.47,3.27,3.27,3.27h6.32c1.8,0,3.27-1.47,3.27-3.27v-6.32c0-1.8-1.47-3.27-3.27-3.27h-6.32Z" style="fill: #fff;"/>
  </g>
</svg>