<?xml version="1.0" encoding="UTF-8"?>
<svg id="Capa_1" data-name="Capa 1" xmlns="http://www.w3.org/2000/svg" viewBox="0 0 30.43 30.43">
  <circle cx="15.21" cy="15.21" r="15.21" style="fill: #54c0e8;"/>
  <g>
    <path d="M24.64,13.29c.24-.65,1.45-.93,1-1.74-.12-.22-.34-.3-.58-.33-.96-.1-2.06.08-3.03,0-3.82-3.38-9.81-3.39-13.63,0-.97.1-2.12-.1-3.07.01-.36.04-.51.21-.64.53v.25c.21.55.86.73,1.11,1.29-.45.55-.77,1.21-.94,1.9-.07.28-.11.56-.17.84v.86l.14.82c.95,3.99,5.99,5.4,8.88,2.47l1.07,1.36c.94.77,1.4-.8,1.94-1.32.29.17.51.42.79.61,1.67,1.13,3.8,1.22,5.56.23,2.76-1.55,3.54-5.28,1.57-7.78ZM15.65,9.98c1.48.07,2.88.54,4.17,1.24-.05.12-.22.07-.33.1-2.35.54-4.04,2.32-4.25,4.75l-.25-1.11c-.61-1.92-2.1-3.2-4.05-3.64-.11-.03-.28.02-.33-.1,1.54-.85,3.26-1.32,5.04-1.24ZM11.15,20.25c-3.52,1.08-6.53-2.79-4.52-5.88.27-.42.75-.69.58-1.25-.02-.08-.33-.56-.3-.58,2.01.1,4.09-.44,5.72,1.05,2.21,2.03,1.39,5.79-1.47,6.67ZM15.28,19.98l-.72-.89c.23-.54.45-1.04.56-1.62.04-.18.03-.35.05-.52,0-.06.03-.13.08-.06,0,.78.29,1.52.64,2.2l-.62.88ZM19.28,20.25c-2.86-.88-3.69-4.64-1.47-6.67,1.62-1.49,3.71-.95,5.72-1.05.03.02-.28.5-.3.58-.17.57.31.83.58,1.25,2,3.09-1,6.96-4.52,5.88Z" style="fill: #fff;"/>
    <path d="M9.78,13.86c-3.45.21-3.14,5.55.44,5.25,3.31-.28,3.02-5.46-.44-5.25ZM10.17,17.79c-1.84.25-2.08-2.48-.31-2.62,1.67-.13,1.89,2.41.31,2.62Z" style="fill: #fff;"/>
    <path d="M20.3,13.86c-3.45.21-3.14,5.55.44,5.25,3.31-.28,3.02-5.46-.44-5.25ZM20.7,17.79c-1.84.25-2.08-2.48-.31-2.62,1.67-.13,1.89,2.41.31,2.62Z" style="fill: #fff;"/>
    <path d="M9.9,15.83c-.82.08-.77,1.43.19,1.3.81-.1.66-1.39-.19-1.3Z" style="fill: #fff;"/>
    <path d="M20.43,15.83c-.82.08-.77,1.43.19,1.3.81-.1.66-1.39-.19-1.3Z" style="fill: #fff;"/>
  </g>
</svg>