<?xml version="1.0" encoding="UTF-8"?>
<svg id="Capa_1" xmlns="http://www.w3.org/2000/svg" version="1.1" viewBox="0 0 1080 1080">
  <!-- Generator: Adobe Illustrator 30.3.0, SVG Export Plug-In . SVG Version: 2.1.3 Build 182)  -->
  <defs>
    <style>
      .st0 {
        fill-rule: evenodd;
      }

      .st0, .st1 {
        fill: #1c355e;
      }
    </style>
  </defs>
  <g>
    <path class="st1" d="M1054.58,421.57c-7.2-13.5-21.53-20.25-22.67-20.76-16.38-7.21-29.32-1.16-34.55-9.4-3.65-5.74-.59-13.76.33-16.16,3.94-10.35,12.42-11.32,18.3-18.55,11.81-14.54,8.04-41.66-3.81-59.08-2.43-3.58-14.2-20.87-34.66-23.01-7.05-.74-12.96.55-16.79,1.74-8.67,2.49-18.72,3.11-20.61-8.13-2.23-13.32,11.49-20.99,14.07-33.48,3.52-17.13-14.54-41.49-38.24-48.53-16.23-4.83-39.19-2.76-48.42,9.84-4.8,6.55-4.57,14.17-13.24,20.52-2.14,1.56-7.92,5.79-14.4,4.85-8.93-1.31-12.11-11.43-18.93-19.98-11.4-14.24-30.91-21.96-43.58-21.11-36.97,2.44-70.16,50.44-53.89,85.11,5.76,12.29,10.99,11.22,24.76,31.11,28.38,40.99,24.23,79.09,24.23,79.09-2.08,17.32-7.19,34.57-7.19,34.57-2.78,9.39-5.34,15.57-4.02,24.56,1.42,9.74,6.47,16.38,8.18,18.58.66.85,9.29,11.67,22.66,15,16.07,3.99,27.63-6.07,44.83-12.42,17.55-6.49,32.9-6.82,63.61-7.36,83.72-1.51,124.52,44.18,147.81,24.02,12.63-10.93,14.19-36.1,6.25-51.01h0ZM795.48,377.17c-1.63-.15-4.13-2.82-3.47-5.46,3.33-13.06,5.31-26.38,5.07-39.86-.02-15.28-5.7-31.04-10.7-45.27-2.5-7.4-5.16-14.73-8.02-21.99-2.38-6-6.63-11.19-8.96-17.21-2.6-5.47,1.74-11.48,7.45-11.74,3.61.23,6.64,1.96,9.22,4.34,2.76,2.54,4.97,5.12,6.55,8.17,19.41,37.48,19.66,65.66,19.66,65.66.3,31.83-11.05,63.87-16.82,63.35h.01ZM801.56,396.8c4.02-6.82,9.15-13.08,13.53-19.71,13.89-20.26,28.32-40.26,40.63-61.53,6.34-12.1,11.48-24.67,14.92-37.9,2.37-8.43,3.2-17.36,6.97-25.34,2.18-4.63,8.05-9.45,12.42-4.38,3.56,4.02,3.32,10.01,3.12,15.02-1.46,44.65-28.49,79.75-58.01,110.89-9.27,9.68-18.11,20.08-28.92,28.07-4.39,2.13-6.08-1.43-4.65-5.12h-.01ZM823.63,419.55c-1.05.7-2.18.52-3.31-.08-2.83-1.44-1.97-5.27-.58-7.48,18.15-30.06,48.03-51.32,79.82-65.17,18.63-7.72,51.64-14.8,70.95-8.42,6.02,2.1,11.13,9.82,6.16,15.35-5.61,7.02-15.41,5.29-23.34,5.2-13.94-.89-27.82,1.25-41.42,4.3-22.87,5.02-41.63,19.78-59.94,33.56-9.75,7.22-18.2,16.11-28.35,22.75h0ZM987.04,423.74c-.56,4.57-5.86,8.17-10.41,6.68-7.58-1.96-14.7-5.39-22.48-6.43-22.47-3.63-45.38-8.77-68.15-5-11.24,2.63-22.41,6.06-32.94,10.99-2.52.92-5.76,2.27-7.9-.12-2.21-2.47,2.05-5.88,3.9-7.52,11.62-8.28,24.51-14.61,39.02-15.94,14.18-2.25,28.85-3.15,43.3-3.53,13.12-.37,26.31-.16,38.86,4.19,7.24,2.75,17.46,7.59,16.81,16.68h0Z"/>
    <path class="st1" d="M956.08,841.55c-10.66-10.3-26.81-9.26-34.17-8.87-46.18,2.49-92.53-1.62-138.73.34-31.39,1.33-48.97,1.63-51.71,10.05-2.23,6.85,5.87,17.49,14.31,22.79,14.1,8.85,36.68,7.42,38.55,12.15.97,2.43.92,4.73-.86,6.93-5.06,6.83-13.72,6.49-21.27,5.32-6.4-.7-12.56-2.33-18.78-3.82-10.81-1.57-12.13,9.65-9.29,17.51,1.93,7.85,4.71,15.38,8.48,22.54,1.8,4.3,5.43,8.27,5.36,13.1-3.12,12.45-17.21-1.27-20.24-7.33-5.93-9.99-7.59-21.63-10.03-32.8-1.44-5.02-1.22-11.96-6.15-14.99-2.09-1.36-4.6.35-5.76,2.2-7.18,11.15-10.28,24.97-19.68,34.61-2.18,1.81-4.82,4.29-7.81,2.67-6.6-2.82-5.42-10.72-2.07-15.74,17.38-26.14,34.17-47.68,29.24-60.05-3.32-8.32-20.89-11.02-33.06-6.94-3.94,1.32-11.77,4.84-28.49,31.82-8.19,13.2-12.91,23.21-16.78,30.74-10.92,21.19-18.96,43.97-34.19,62.68-10.99,15.35-24.22,31.17-26.12,50.62-1.77,17.3,4.18,35.97,18.67,46.39,17.72,12.81,41.47,8.05,60.44.59,14.26-5.98,27.47-16.49,33.77-30.88,2.13-4.66,3.43-9.59,4.92-14.46,3.26-11.99,14.54-19.93,26.72-20.4,20.03,1.89,23.18,23.02,45.98,24.15,1.31.06,2.44.13,2.75.14,17.64.47,33.62-7.16,41.55-13.89,21.57-18.26,8.98-51.21,31.18-81.64,2.58-3.54,5.75-7.2,10.64-10.07,11.42-6.71,22.73-3.53,36.98-2.76,4.14.22,24.18,1.3,41.58-4.87,21.36-7.56,44.88-28.22,43.05-49.2-.93-10.66-8.09-17.8-8.95-18.63l-.02.02Z"/>
    <path class="st1" d="M508.24,850.18c-18.46-5.75-25.96,6.53-45.78,5.92-17.43-.54-20.58-10.31-47.31-12.11-6.32-.42-11.07-.27-12.21-.15-11.98,1.38-19.38,7.19-37.42,9.17-3.71.41-32.83,3.27-59.43-10.39-4.36-2.24-7.45-4.74-13.76-9.44-17.29-12.85-23.89-21.64-33.56-30.51-18.17-16.67-37.16-24.21-50.44-29.56-26.58-10.73-26.74-3.76-43.12-12.86-24.77-13.75-26.85-31.01-50.54-36.38-5.09-1.15-16.06-3.48-23.76,2.71-6.65,5.34-7.47,14.31-7.75,17.92-1.06,13.69,5.79,21.6,14.24,38.02,4.24,8.23,13.83,26.87,18.53,49.85,3.92,19.19,1.23,27.36,9.32,41.15,19.87,33.83,46.16,29.22,76.71,44.77,13.47,6.37,26.4,14.78,35.5,26.81,5.59,7.73,9.83,16.31,15.91,23.72,10.88,13.02,27.1,19.31,43.81,20.69,21.55,1.84,44.49-5.45,60.32-20.43,16.87-15.97,13.63-19.44,34.11-34.89,17.51-13.21,35.84-20.2,50.85-25.91,21.2-8.08,21.82-5.5,34.77-11.97,21.59-10.79,44.36-30.18,40.65-40.08-1.27-3.39-5.3-4.71-9.64-6.06h.01ZM422.92,891.73c-17.94.63-36.18,3.13-52.1,12.01-18.23,9.95-39.95,12.53-59.76,12.23-63.51-9.5-114.3-54.76-153.12-103.33-2.61-4.16-12.95-14.37-6.71-18.54,3.13-2.34,6.42.3,9.38,1.71,15.69,8.83,25.34,24.41,38.3,36.43,36.47,38.74,88.11,66.39,142.38,61.87,18.27-.27,35.01-7.66,52.63-11.23,8.46-1.65,16.92-.4,25.37.53,1.93.19,3.61.93,5.1,2.13,2.93,2.24,1.26,5.31-1.48,6.2h.01Z"/>
    <path class="st1" d="M517.78,170.86c-13.83-3.95-26.96,3.17-39.94,7.07-6.84,1.52-12.3-6.01-10.55-12.5,5.5-17.46,6.59-31.4-5.75-46.24-8.8-10.68-21.84-17.57-35.53-19.17-11.39-1.6-19.84,7.07-29.33,11.42-5.46,1.24-8.88-5.17-11.03-9.24-7.13-15.4-24.58-21.03-39.87-24.94-11.98-2.57-24.06-5.75-36.39-5.65-16.22-.17-26.84,13.22-34.6,25.82-7.3,13.26-20.72,28.37-19.26,44.18,1.36,8.18,13.73,16.09,5.7,24.4-2.59,3.08-6.47,4.25-9.86,6.14-15.91,8.79-15.53,29.98-15.41,45.93,2.18,12.77,13.34,16.5,24.64,18.07,15.2,4.29,9.15,14.49,1,22.87-7.26,7.59-11.86,18.07-11.34,28.65.42,6.36,6.48,11.7,13.15,10.78,2.56-.36,5.09-.96,7.62-1.48,18.48-4.27,36.05-11.72,54.52-16.12,8.5-2.67,17.47-3.66,25.98-6.09,15-6.84-8.34-21.3-16.18-22.98-5.22-1.35-10.44-2.37-15.83-.86-2.9.68-6.62.47-8.22-2.51-1.49-2.51,1.2-4.92,3.19-6.18,5.65-3.43,12.33-4.4,18.7-2.95,13.76,1.59,23.97,12.13,33.48,21.25,7.72,7.22,12.52-1.22,8.76-8.67-9.93-28.31-20.49-56.56-34.68-83.03-3.6-6.92-7.67-13.57-12.07-20.01-4.91-7.79-11.58-14.65-14.83-23.37-.53-1.57-.19-2.86.73-4.08,4.29-5.55,9.33,2.7,12.42,5.7,18.25,22.37,31.32,48.18,43.24,74.32,3.84,8.24,7.45,16.58,10.56,25.13,1.42,3.85,4.82,11.23,9.24,5.78.83-1.56,1.6-3.27,1.84-4.99,2.38-12.56,5.33-25.09,9.79-37.1,3.12-8.6,8.03-16.5,15.27-22.22,1.78-1.74,5-2.59,7.07-.83,1.35,1.5,2.24,3.17,1.13,5.29-2.92,6.17-6.28,12.12-9.29,18.24-7.84,15.98-12.42,33.76-11.83,51.65.64,5-.87,11.07,1.75,15.85,1.58,1.9,4.25,4.52,8.18,5.76,4.5,1.42,7.9.18,16.18-1.02,4.32-.62,8.69-.78,13.02-1.26,29.47-3.25,43.09-1.4,64.5-8.33,8.41-2.73,13.55-4.45,19.17-9.13,8.54-7.12,15.8-19.09,15.97-33.2.2-17.62-10.89-36.13-24.97-40.15h-.02Z"/>
    <path class="st1" d="M139.16,412.65c8.38,1.02,13.3,3.26,15.64.81,1.64-1.72,2.23-5.98-4.01-17.88-5.59-14.89-11.8-29.54-19.21-43.63-1.57-3.14-3.12-6.29-4.68-9.44-.34-.67-.15-1.32.28-1.86,1.57-2.02,3.07-2.29,5.18-.85,8.5,7.3,15.19,16.5,21.28,25.87,5.65,8.69,6.77,16.54,15.98,35.11,6.63,13.37,9.51,17.26,12.66,17.09,4.19-.21,4.39-7.35,12.72-17.04,7.84-9.11,18.68-15.58,20.23-14.08.42.41.09,1.37-.2,2.18-3.18,8.97-6.57,13.99-8.31,18.78-1.26,3.49-3.23,8.96-.95,13.79,1.83,3.88,4.56,3.41,12.88,10.08,5.81,4.66,6.96,6.87,8.91,6.35,2.27-.6,2.24-3.96,5.75-13.83,2-5.64,3.02-8.44,4.49-10.92,4.31-7.33,8.96-9.38,10.96-19.17,3.58-17.55-9.41-22.54-6.26-42.21,2.56-15.94,11.46-20.29,8.23-28.07-3.88-9.33-21.15-11.88-34.97-11.54-11.24.27-21.15,5.75-31.68,8.91-13.15,2.81-13.76-14.92-17.58-23.28-2.3-6.04-6.15-10.66-11.57-14.04-16.95-9.12-40.87-21.8-59.95-13.5-22.88,12.95-32.35,40.12-39.65,63.94-3.95,15.99-1.24,15.95,9.79,25.78,5.96,6.14,1.89,15.76-4.39,19.85-8.58,5.5-18.42,9.11-24.32,18.02-11.13,16.76-15.44,32.65-15.81,42.32-.32,7.93,1.07,10.28,2.61,11.02,3.08,1.48,7.6-3.04,14.01-7.79,5-3.7,11.21-6.84,23.62-13.12,24.12-12.2,46.84-15.33,53.79-16.23,11.77-1.53,17.65-2.29,24.54-1.44h-.01Z"/>
  </g>
  <g>
    <path class="st1" d="M825.27,119.02c-12.34-6.61-29.84-15.74-54.4-17.48-17.31-1.23-30.86,1.73-42.03,4.17-12.56,2.74-22.81,6.35-30.21,9.35-11.66-2.57-1.46-16.14,2.49-21.55,7.95-10.33,20.39-15.4,32.59-18.69,4.83-1.24,9.75-2.12,14.61-3.19,4.66-1.34,10.47-1.31,13.29-5.89,4.98-7.88-14.66-12.86-20.21-14.3-9.88-2.73-19.9-3.56-30.07-4.22-18.87.07-38.15,3.75-55.2,12.18-10.1,4.9-19.13,11.37-27.36,18.99-2.54,1.95-5.69,5.85-9.16,3.8-2.98-1.41-3.61-4.78-4.36-7.71-1.83-7.04-3.98-13.96-7.19-20.51-12.25-26.15-37.77-44.44-66.79-46.14-6.28-.22-23.84-1.21-22.14,8.76,2.57,6,8.85,8.78,12.89,13.61,10.7,11.13,17.48,26.89,17.26,42.41-.24,3.34-2.34,5.67-4.99,7.36-5.62,2.69-11.92-4.74-16.28-7.59-24.37-20.59-55.05-34.81-87.38-34.48-14.81-.09-29.85,3.63-43.49,9.41-11.57,4.7-23.65,15.26-5.31,21.05,42.04,11.45,73.93,14.6,106.72,47.29,7.27,7.25,26.03,21.94,42.02,44.33,7.08,9.91,15.5,23.55,30.08,26.15,2.25.4,10.23,1.75,15.42-2.81,6.3-5.52,5.05-15.64,4.7-18.36-1.04-8.34-2.98-12.91-8.96-26.97-3.47-8.17,3.35-10.02,8.54-4.37,7.89,7.59,12.96,16.85,16.07,27.24,1.45,4.37,1.45,9.38,3.87,13.37,2.58,3.7,5.67,3.55,8-.23,3.51-5.71,4.6-12.97,5.07-16.1.19-1.32,1.78-11.72,7.07-21.07,1.16-2.05,8.22-14.18,14.12-12.88,2.45.55,3.79,3.21,4.25,4.1,4.28,8.52-6.79,17.12-6.94,34.48-.04,4.79.76,7.48,2.67,9.03,3.73,3.02,10.23.5,11.76-.11,8.98-3.5,10.29-10.39,16.95-16.7,11.85-11.23,31.01-11.48,32.43-8.31,1.4,3.12-16.12,8.08-21.83,24.55-4.38,12.65.74,24.81,2.16,28.18,1.05,2.51,7.03,16.68,13.85,16.25,6.12-.39,7.95-12.2,13.2-22.66,15.79-31.57,60.68-47.42,87.55-47.9,13.68-.24,27.34-2.12,41-1.46,7.29.35,12.38.92,13.23-1.14,1.81-4.35-17.12-16.54-29.55-23.19v-.02Z"/>
    <path class="st1" d="M562.48,844.52c-14.26,6.86-14.83,17.18-30.02,36.31-6.67,8.41-20.75,26.15-43.1,37.46-19.87,10.04-27.71,5.63-49.73,19.27-10.53,6.52-19.01,13.91-22.38,16.86-14.76,12.94-14.15,16.44-23.91,24.93-23,20-43.05,14.94-47.53,29.61-2.14,7.01-.22,15.88,5.09,20.17,6.8,5.49,15.71,6.17,23.79,3.34,14.48-4.12,24.88-15.71,36.63-24.43,9.28-7.32,18.39-14.88,27.23-22.74,2.21-1.97,4.73-3.56,7.5-4.68,5.66-2.73,11.83,2.32,10.29,8.43-1.7,6.9-5.62,12.94-8.83,19.21-6.3,11.17-12.46,22.41-17.97,33.99-4.52,9.27-.53,20.33,8.85,24.49,21.87,11.25,34.77-51.54,40.43-65.71,2.2-5.74,6.93-17.17,14.77-13.81,2.55,1.74,4.41,3.93,4.07,7.35-.2,1.96.16,4.05-.38,5.89-2.11,8.13-2.9,16.04-3.57,24.51,1.09,15.11,4.7,31.25,16.77,41.59,9.68,9.19,24.43,7.68,27.94-6.35,3.08-9.5-2.75-18.53-5.75-27.31-1.68-5.26-2.8-10.89-3.18-16.35,1.3-10.53,2.95-21.12,6.92-31.1,2.71-8.67,8.58-15.85,13.31-23.5,7.18-10.82,14.38-21.61,20.65-33,19.99-36.32,25.18-47.65,26.25-51.91,3.03-12.2,6.25-25.07-.64-32.14-7.53-7.72-23.35-5.19-33.47-.33l-.02-.02Z"/>
    <path class="st1" d="M170.08,512.94c-6.01-3.32-14.55-2.53-18.7,3.41-3.07,3.37-4.91,12.95-10.48,11.83-4.01-.93-7.24-3.6-10.75-5.62-10.45-6.65-24.8-1.39-29.91,9.55-2.86,6.02-2.32,11.98.27,17.86,2.99,6.46,2.8,12.13-5.07,14.21-3.79.58-7.6,1.83-9.68,5.27-10.08,14.85,4.57,30.92,17.25,38.19,12.37,7.69,27.69,10.5,41.86,6.73,2.96-.64,8.17-5.05,5.38-8.04-4.4-4.58-12.01-2.14-16.5-6.54-1.23-1.94.56-4.2,2.77-4.15,2.18-.42,5.11,0,6.48-2.11,2.12-2.56,2.5-5.88.68-8.72-1.69-5.09-3.66-10.05-5.89-14.92-.99-1.94-2.54-4.94.52-5.88,4.07-1.63,12.04,15.68,13.16,19.2.93,2.72,4.47,7.83,7.46,4.59,2.69-3.47,2.74-8.15,4.49-12.05.85-1.77,2.3-2,3.87-.79,2.09,1.72.82,4.75.96,7.08,0,4.75-1.86,9.29-1.89,13.97,3.52,8.33,11.01-3.25,13.08-7.13,3.45-5.67,4.64-12.24,5.2-18.76.78-12.79,1.89-24.19-1.15-37.26-1.52-7.46-5.72-16.63-13.43-19.9l.02-.02Z"/>
    <path class="st1" d="M213.02,206.93c-6.67-44.01,12.86-80.33,6.63-82.68-4-1.51-13.5,11.51-17.65,17.21-1.31,1.79-5.2,7.28-8.04,13.45-11.73,25.53-1.26,54.09-6.64,55.6-1.24.35-1.75-1.02-7.46-6.05-2.14-1.89-10.44-9.08-20.81-14.37-6.91-3.53-10.7-5.47-12.5-3.97-3.98,3.34,5.48,21.02,8.47,26.67,7.94,14.97,15.6,22.97,14.01,24.65-1.9,2.01-12.57-9.66-30.87-11.63-2.9-.32-8.05-.6-14.22.6-12.4,2.41-25.07,10.09-24.12,14.24.66,2.89,7.43,1.85,25.69,5.48,9.21,1.83,17.42,3.5,27.16,7.54,6.08,2.52,13.77,5.7,22.16,12.18,1.23.95,8.04,6.27,17.11,12.69,3.76,2.67,5.94,4.12,9.23,4.5,4.65.55,8.34-1.41,13.73-4.27,3.5-1.85,7.01-4.14,9.11-7.44,4.89-7.67-.98-17.56-5.52-33.01,0,0-1.49-5.06-5.48-31.39h0Z"/>
  </g>
  <g>
    <path class="st1" d="M579.59,765.84c-.27-.82-.45-1.65-.43-2.55.12-3.01.02-6.04.22-9.04.31-2.42-.44-4.85.18-7.25.13-2.71-1.66-5.02-2.67-7.41-.89-1.88-2.61-3.15-4.48-3.9-1.69-.65-3.36-1.32-5.03-2.02-2.49-1.14-5.18-.84-7.81-.6-2.68.28-5.37.47-8.04.92-2.77.54-3.8,2.43-3.66,4.88.9,11.05.11,22.16.32,33.23-.01,10.13.34,20.26.07,30.39-.54,2.08.8,4.18,2.73,4.87.24.08,1.4.24,3.02.12,5.54-.26,8.9.58,14.36-.33,3.8-.74,6.37-3.99,8.64-6.97,4.5-6.05,2.02-14.06,2.55-21.05.4-1.94-.43-3.74-.58-5.65-.32-2.67,2.08-5.04.61-7.65l-.02.02ZM569.5,768.66c.28,6.7.15,13.4.31,20.1.04,2.03-.57,3.81-1.85,5.33-1.92,2.77-7.39,6.38-9.21,1.79-.56-4.5-.11-9.22-.35-13.72-.04-6.21,0-12.41-.66-18.59-.35-4.72-.06-9.44-.17-14.16-.13-3.43,2.78-5.98,6.03-5.07,2.27.39,4.58,1.33,5.19,3.85,1.27,6.72.53,13.67.71,20.47h.01Z"/>
    <path class="st1" d="M988.68,793.26c-2.64-.02-5.3-.07-7.94-.11-3.08-.02-4.29-3.15-4.24-5.88-.04-2.66-.18-5.31.06-7.95.25-2.07-.84-4.05-.39-6.11.27-1.12.25-2.32.95-3.29.72-.9,1.59-1.24,2.67-1.23,3.77-.31,8.68,1.06,11.47-2.32,2.3-2.9.08-8.01-3.48-7.72-1.39.01-2.78.64-4.17.26-1.1-.36-2.23-.13-3.36-.19-6.56-.56-3.7-12.26-3.72-16.94.04-3,3.12-4.18,5.54-3.84,1.36.09,2.74.6,4.1.34,3.72-.68,6.17.55,7.56-4.3-.28-5.73-6.95-4.74-10.84-5.04-4.04-.02-8.07.02-12.1.07-1.97-.08-3.15,1.68-3.48,3.57-1.18,6.48-.36,13.09,0,19.61.38,4.39.12,8.95,1.13,13.23.21.61.24,1.25.09,1.93-.5,2.23-.64,4.53-.77,6.82-.17,7.66-.72,15.32-.47,22.99.07,2.97,1.36,6.41,4.93,6.26,4.48-.23,8.96-.4,13.42-.5,1.65-.03,3.36.12,4.88-.75,3.96-2.25,2.77-8.9-1.85-8.92h0Z"/>
    <path class="st1" d="M912.73,729.04c-2.72.11-6.74.72-6.17,4.55.3,4.8.16,9.65.26,14.47-.24,2.05,1.26,3.94.46,5.94-1.14,3.52-.2,7.38-.28,11.02-.09,2.02.93,4.26-.14,6.12-.36.54-1.29.79-1.76.23-.66-.66-1.07-1.49-1.33-2.41-.89-2.66-1.64-5.37-3.1-7.79-.55-.91-.68-1.98-.97-2.99-1.32-5.27-3.91-9.99-5.82-15-.98-3.12-2.27-6.14-2.82-9.39-.78-2.99-4.4-4.25-7.07-3.13-3.14,1.2-2.33,5.06-2.48,7.83.04,3.2.16,6.41.2,9.62-.06,7.24.05,14.48.09,21.71.01,3.15-.03,6.29-.08,9.44-.04,1.89-.87,3.68-.16,5.54.57,1.9.81,3.84.48,5.83-.08.54-.05,1.11.13,1.65.28.89.27,1.79-.01,2.68-.18.55-.16,1.11-.02,1.65.37,1.39-.3,2.78-.17,4.18.21,5.77,10.92,5.24,9.33-1.03-.18-1.58-1.06-3.13-.63-4.72.13-.45.26-.91.3-1.37.31-4.31.03-8.65.09-12.97,0-.95-.12-1.86-.43-2.76-.46-1.72-.5-3.6-.43-5.38.34-2.08.44-4.18.85-6.25.02-.51.24-.91.54-1.26.55-.66,1.1-.71,1.76-.15,1.54,1.2,1.56,3.2,1.92,5,.98,3.49,1.98,6.97,3.01,10.44,1.55,5.05,4.07,9.68,6.03,14.55,1.42,2.83,1.64,8.4,5.08,9.24,2.59.63,6.48.85,6.72-2.96.28-12.89.27-25.77.14-38.66.06-1.88-.87-3.6-.54-5.49.71-6.12.92-12.31.78-18.47-.12-3.31.94-9.5-3.76-9.52h-.01Z"/>
    <path class="st1" d="M470.56,760.88c-.04-4.2-.08-8.42-.12-12.62-.2-2.98-2.17-5.46-3.34-8.1-.93-1.74-2.22-3-4.21-3.35-.75-.13-1.44-.46-2.1-.9-1.54-1.03-3.26-1.42-5.06-1.42s-3.45.02-5.16.04c-1.31.07-2.64.41-3.94,0-1.37-.5-2.77-.33-4.18-.28-4.09.21-4.15,3.58-4.09,6.95,0,2.3.07,4.59.08,6.89.06,19.04.12,38.07.59,57.1-.06,1.89,1.52,3.5,3.33,3.41,2.54-.02,5.08-.05,8.18-.08,5.29-.24,13.78.9,17.07-5.05,1.59-3.08,3.57-6.36,2.59-10-.08-.37-.17-.77-.11-1.13.41-2.91-.32-5.78-.35-8.69.14-4.13-.6-8.37-2.93-11.78-1.6-3.29,4.12-6.96,3.75-11.02v.03ZM460.81,785.51c-.15,4.38.87,10.19-2.94,13.18-3.23,1.68-9.09,1.62-10.15-2.84-.16-5.19-.11-10.41-.38-15.6-.12-4.67,4.89-5.53,8.29-5.14,5.17.79,5.37,6.17,5.16,10.41h.01ZM461.23,760.33c-.58,4.43-3.41,5.55-7.25,5.24-5.34.46-7.34-1.7-5.98-7.22.09-.74-.09-1.46-.3-2.16-.72-4.14-.51-10.48,4.55-11.09.78-.07,1.61.28,2.41.27,3.42-.09,6.21,3.18,6.18,6.66.02,1.23.09,2.47.17,3.7.26,1.55.61,3.06.19,4.6h.02Z"/>
    <path class="st1" d="M534.32,764.26c.77-1.31,1.16-2.72,1.14-4.27-.06-3.97-.09-7.94-.12-11.92,0-1.18-.3-2.27-.78-3.31-1.06-2.13-1.96-4.39-3.33-6.32-.81-1.05-1.81-1.84-3.13-2.1-.98-.19-1.89-.55-2.72-1.13-1.82-1.3-4.06-1.26-6.15-1.54-2.66-.46-5.32-.39-8-.19-2.8.32-7.6-.62-7.97,3.48-.14,13.51.16,27.06.24,40.59.04,8.85.18,17.8.24,26.67.13,5.47,9.19,4.71,8.98-.82-.14-8.62-.2-17.25-.27-25.88,0-1.63,1.3-3.31,3.04-3.13,1.98.23,4.15-.14,5.91,1.06,3.92,2.15,4.36,6.79,4.65,10.93.09,4.38.13,8.77.16,13.16.17,2.88-1.21,7.9,2.75,8.28,3.08.43,6.83-.6,6.56-4.55.13-6,.41-11.98,0-17.97,0-1.35-.18-2.62-.65-3.88-.54-1.24-.32-2.66-.68-3.96-.46-1.75-.82-3.57-1.89-5.05-.56-.89-1.21-1.85-.86-2.99.6-1.92,1.92-3.43,2.88-5.16h0ZM526.23,759.09c-.57,5.06-3.27,6.22-7.66,5.96-3.27.42-6.37-.81-6.12-4.57.07-.73.22-1.44.36-2.16.33-1.66-.48-3.28-.56-4.93-.07-1.51.18-3.06.43-4.54.79-3.95,5.55-4.46,8.69-3.63,2.77.7,4.35,3.54,4.35,6.37-.25,2.6.79,4.98.51,7.5h0Z"/>
    <path class="st1" d="M811.84,757.16c-.05-4-.09-8.01-.12-12.01,0-.91-.22-1.75-.58-2.54-1.76-3.16-2.86-8.08-6.71-8.97-1.73-.25-3.04-1.58-4.72-2.03-5.32-1.26-10.8-.99-16.2-.6-4.47.06-3.89,4.11-3.96,7.56-.02,4.2-.05,8.41-.03,12.62.22,9.62.28,19.24.37,28.87.05,5.56.11,11.13.16,16.69.24,2.3-.56,4.96.74,6.97,2.49,3.08,8.22,1.63,8.29-2.94.05-9.01-.56-18.11-.09-27.08.53-1.81,2.31-2.24,3.92-1.97,1.88.06,3.82.13,5.39,1.36,3.72,2.39,3.86,7.25,4.17,11.33.08,5.45.12,10.89.17,16.33-.24,1.78.2,3.7,2.04,4.26,2.74.43,6.9.35,7.11-3.52.3-4.21.45-8.46.23-12.67-.26-3.18.41-6.57-.64-9.62-1.06-3.39-.78-7.28-3.18-10.16-1.55-2.73,1.4-5.22,2.51-7.5.77-1.33,1.15-2.79,1.13-4.36v-.02ZM802.68,756.17c-.53,4.88-2.82,6.59-7.42,6.18-3.26.44-7.11-.73-6.38-4.94.74-3.5-.68-7.04,0-10.58.28-3.26,3.38-4.68,6.17-4.77,3.66-.3,7.21,2.82,7.09,6.77.03,1.81-.14,3.67.46,5.41.2.64.17,1.29.07,1.92h0Z"/>
    <path class="st1" d="M690.03,762.77c.58-1.38.95-2.8.93-4.34-.05-3.65-.07-7.3-.12-10.95-.03-3.91-.07-7.83-.12-11.75-.02-1.75-1.24-2.93-2.41-3.22-2.75-.86-7.29-.93-7.21,3.25.12,6.03.03,12.06.36,18.09.16,1.88.35,3.76-.23,5.58-1.9,6.48-10.43,7.39-12.7.64-.33-.91-.31-1.84-.31-2.78-.02-4.74-.04-9.48-.07-14.21-.21-6.4,1.49-10.98-6.82-10.43-1.82.21-3.13,1.55-3.11,3.6.08,7.42.15,14.83.23,22.25.08,3.22,1,6.36,2.86,8.97,1.77,2.16.28,3.6-.48,5.73-1.43,4.38-2.5,8.85-2.2,13.52.21,4.6.31,9.23.44,13.83-.09,4.9,2.1,5.33,6.16,5.1,4.28-.28,3.13-4.68,3.14-7.9.11-5.14.11-10.28.46-15.41-.13-4.14,1.15-8.08,5.49-8.89,3.67-.45,6.65,3.1,6.71,6.74.13,1.35.14,2.7.27,4.05,1.1,5.58.07,11.35.89,16.95.04.46.08.94.02,1.4-.37,2.07,1.55,3.59,3.41,3.41,5.45-.01,5.57-2.52,5.54-7.38.23-5.35.03-10.69-.12-16.05.02-1.33-.6-2.48-.9-3.72-.43-3.06-1.06-6.17-2.79-8.74-.68-1.2,0-2.45.61-3.51.74-1.25,1.52-2.48,2.09-3.82h-.04Z"/>
    <path class="st1" d="M731.77,737.76c-.95-1.84-2.31-3.16-4.36-3.55-.95-.18-1.8-.61-2.64-1.11-3.35-1.95-7.36-1.16-11.02-1-2.44.22-4.84-.82-7.3-.45-1.53.04-3.23.93-3.34,2.78-.03,1.97-.17,3.93-.21,5.9-.25,11.44.12,22.89.16,34.34.01,9.18.19,18.5.24,27.73-.07,2,1.62,3.51,3.45,3.57,2.41.31,5.61-.15,5.52-3.38.14-9.23-.64-18.6-.02-27.77,1.72-4.99,8.48-1.13,12.13-3.03,2.24-1.17,4.92-1.93,6.42-4.19,1.58-2.22,2.88-4.64,3.79-7.24.31-.82.48-1.68.46-2.57-.05-3.89-.09-7.77-.12-11.65-.07-3.07-2.05-5.62-3.15-8.37h0ZM718.45,762.97c-7.78,1.06-6.48-5.98-7.01-11.59-.21-4.13,2.2-8.48,6.62-8.57,2.41-.09,4.97.64,6.34,2.87.47.71.8,1.51.84,2.36.12,2.22.2,4.46.23,6.69.31,5.49-1.18,8.71-7.03,8.24h0Z"/>
    <path class="st1" d="M952.81,778.58c-2.69.34-5.54,1.54-5.47,5.05-.12,2.29.46,4.58.35,6.85-.47,3.01-2.86,5.72-5.79,5.51-3.27-.61-5.9-3.72-5.91-7.41-.04-9.26-.5-18.53-.25-27.79.06-3.02.2-6.04.42-9.05-.06-3.03-.63-6.23.11-9.21,2.23-7.63,13.87-4.01,12.13,3.93-.6,6.87,8.67,5.97,8.53-.35.23-2.79-1.51-5.09-1.58-7.8.03-1-.24-1.95-.59-2.84-2.22-5.19-8.77-7.07-13.65-6.82-1.81.35-3.56,1.11-5.37,1.46-2.91.97-4.48,3.59-5.96,6.27-2.24,3.15-3.17,6.7-3.14,10.67.16,14.71.27,29.42.35,44.13,0,4.56,3.86,7.74,6.93,10.24,2.35,2.08,5.3,2.51,8.19,3.06,5.32,1.45,10.77-1.35,12.19-7.27,1.52-3.76,3.53-7.46,3.01-11.73.27-3.57-.54-7.07-4.48-6.93v.03Z"/>
    <path class="st1" d="M867.35,730.93c-4.02-.06-8.05-.38-12.08-.2-1.94-.05-4.02.03-6.01.03-1.81-.02-3.14,1.69-3.34,3.46-1.53,9.71.33,19.58.58,29.34.06.98.18,1.92.51,2.83.68,2.19-.52,4.44-.52,6.67-.35,8.42-.96,16.85-.46,25.28.15,5.57,3.49,6.14,7.92,5.52,4.11-.13,8.23-.22,12.34-.34,3.17.19,6.03-2.77,5.05-6.34-.57-1.81-1.8-3.06-3.95-3.13-2.73-.11-5.47-.06-8.2-.13-5.49-.51-3.92-7.69-4.08-11.71,0-2.17.15-4.35-.48-6.48-.18-1.21.41-2.42.56-3.61.34-1.41,1.65-2.34,3.02-2.29,3.08-.09,6.26.35,9.24-.6,4.5-1.22,4.51-8.11.03-9.19-1.64-.52-3.21.51-4.84.19-1.22-.3-2.45-.25-3.7-.23-4.59-.17-4.5-5.79-4.29-9.29.51-3.21-.73-10.01,3.14-10.93,2.27-.78,4.5.36,6.76.11,2.37-.65,5.5.44,6.92-2.24,2.27-3.25-.87-6.8-4.13-6.73h0Z"/>
    <path class="st1" d="M643.82,733.2c-.9-.07-1.8-.12-2.7-.14-3.16-.06-6.31-.19-9.47-.13-3.17.42-8.54-1.44-9.44,3.07-1.71,9.3.11,18.82.38,28.18.02,1.69.18,3.34.66,4.95.43,2.3-.75,4.67-.64,7.04-.19,8.12-1.06,16.28-.45,24.39.31,5.03,2.98,6.28,7.48,5.53,3.07-.12,6.14-.2,9.21-.28,2.23-.14,4.69.37,6.7-.92,2.76-1.64,2.98-6.3.15-7.97-.73-.41-1.52-.63-2.34-.65-2.56-.04-5.13-.07-7.69-.09-4.99-.07-4.5-6.32-4.4-10.05,0-1.77,0-3.53-.01-5.3-.13-1.64-.71-3.23-.21-4.87.19-1.98,1.11-4.05,3.54-3.9,2.99.04,6.08.28,8.99-.56,4.24-1,4.74-7.72.4-9.15-1.66-.57-3.35.32-5,.16-1.56-.42-3.14-.14-4.7-.36-4.67-1.3-3.34-8.05-3.3-11.86.43-2.83-.38-7.3,2.96-8.24,2.56-1,5.1.62,7.67-.05,3.14-.43,5.63.36,6.7-3.74.63-2.8-2.07-4.93-4.5-5.07h.02Z"/>
    <path class="st1" d="M755.43,740.87c2.33-.86,4.67.22,7.02.05,1.59-.39,3.27-.17,4.84-.62,2.3-.76,3.72-4.21,1.81-6.48-1.57-1.97-4.09-1.93-6.33-1.99-3.13-.09-6.26-.2-9.39-.12-2.04,0-4.12.04-6.17.05-2.21-.09-3.34,1.96-3.59,3.98-1.25,9.23.26,18.62.6,27.87-.22,2.23,1.27,4.3.66,6.47-1.12,4.72-.66,9.72-.99,14.55-.34,4.73-.23,9.46-.15,14.19-.07,3.07,1.46,6.27,4.66,6.22,3.78-.27,7.6-.34,11.4-.43,2.23-.15,4.56.2,6.7-.59,3.93-1.63,3.86-8.66-1.21-8.99-3.58-.57-11.11,1.6-12.05-3.33-.58-3-.3-6.1-.4-9.15,0-1.44.35-2.89-.13-4.29-.27-1.04-.36-2.07-.12-3.12.16-.65.23-1.33.38-1.98.31-1.39,1.78-2.74,3.36-2.36.24.06.51.03.76.03,3.69-.26,9.15.92,11.11-3.3,1.3-2.89-.68-6.83-4.08-6.62-1.86.32-3.66.48-5.51.05-2.43.22-4.66-.16-5.63-2.74-1.2-3.35-.4-7.08-.28-10.57.25-2.49-.14-5.98,2.74-6.84v.03Z"/>
    <path class="st1" d="M487.13,733.97c-2.83-.71-6.91.54-6.61,4.09.11,2.99.08,5.98.11,8.98.3,3.69-.41,7.64.53,11.26.22.91.76,1.81.47,2.77-.62,2.36-.8,4.78-.8,7.23.06,9.84.26,19.68-.01,29.53,0,2.44,0,4.88.03,7.32.01.8.28,1.51.87,2.09,1.4,1.41,3.39.98,5.15,1.02,2.07,0,4.01-1.49,3.95-3.82-.05-7.5-.16-14.99-.22-22.49,0-.64-.11-1.26-.31-1.86-.35-1.03-.78-2.11-.35-3.19,1.56-7.97.63-16.28.85-24.38.03-5.02.04-10.04-.64-15.02-.26-1.75-1.07-3.07-3.02-3.51h-.01Z"/>
    <path class="st1" d="M831.31,730.47c-2.76-.8-7.49-.78-7.3,3.31.28,14.52-.12,29.33.87,43.66-1.09,4.85-.91,9.43-1.13,14.5.44,3.34,0,7.23.94,10.53,1.18,3.96,8.64,3.47,9.32-.57.26-5.92-.12-11.88-.04-17.82,0-1.49-.11-2.92-.64-4.32-.32-.82-.43-1.7-.14-2.58.35-1.23.66-2.49.66-3.79.07-12.56-.05-25.13.11-37.68.26-2.29-.18-4.71-2.66-5.25h0Z"/>
  </g>
  <path class="st1" d="M637.33,404.66c-2.02-1.15-4.53-2.58-7.35-4.37-4.74-3-9.16-6.02-15.15-12.45-7.31-7.85-10.74-14.04-12.78-17.75-1.35-2.43-2.21-3.91-2.86-3.91-.14,0-.24.06-.4.34-1.9,3.35-1.23,20.25,4.68,35.49,6.93,17.85,20.77,34.2,29.04,34.32.59.02,1.16-.06,1.72-.24,3.61-1.16,6.11-7.47,8.31-13.03l.46-1.16c1.86-4.68,2.53-7.26,2.54-9.84.01-2.61-2.51-4.15-8.2-7.4v.02Z"/>
  <g>
    <path class="st1" d="M698.25,390.04h-.05c-1.19-.01-2.41-.02-3.74-.15-.05,0-5.91-.58-11.42-3.8-3.54-2.07-5.44-4.33-6.96-6.14-1.55-1.84-2.2-2.44-3.1-2.44h-.19c-2.82.27-4.78,4.51-5.85,6.79-1.66,3.58-6.61,15.73-.43,21.85,1.94,1.93,4.59,2.89,8.1,2.93,3.82.06,8.06-.97,11.8-1.88,8.48-2.07,13.06-6.22,15.05-8.5,1.81-2.1,3.13-3.62,3.02-5.37-.02-.3-.07-1.2-.62-1.95-.97-1.32-2.92-1.33-5.62-1.35v.02Z"/>
    <path class="st1" d="M737.45,332.82c-5.14-7.98-10.98-12.54-16.45-12.85-.19-.01-.37-.01-.56-.01-3.43.03-7.07,2.3-13.67,6.42-6.57,4.1-12.66,9.76-17.61,16.36-6.49,8.67-11.18,14.93-9.61,21.48,1.64,6.84,9.19,10.88,12.02,12.4,4.13,2.21,7.53,2.81,10.55,3.34,3.58.63,6.96,1.22,9.97,4.61,3.42,3.88,4.18,8.8,4.51,10.9.91,5.84-.52,11.18-1.13,13.45-.65,2.44-1.37,4.27-1.95,5.73-.77,1.96-1.1,2.91-.78,3.27.07.07.26.28,1.02.3,1.35.08,3.59-.66,5.72-1.31,2.6-.79,5.39-2.32,7.02-3.49,2.74-1.98,5.84-4.22,9.66-9.04,6.82-8.6,10.77-19.73,11.43-32.2.78-14.69-2.55-27.57-10.16-39.38h0Z"/>
  </g>
  <path class="st1" d="M699.63,283.65l.64-.6-.64.6c-7.23-7.71-14.34-11.62-19.06-14.21-1.43-.79-2.84-1.61-4.25-2.43-5.71-3.34-11.01-6.45-16.44-6.4-.79,0-1.58.08-2.34.22-3.14.58-5.78,2.04-9.29,4.38-25.35,16.85-34.92,45.66-35.01,45.96-5.36,13.28-8.44,25.03-9.04,30.37-1.92,17.19,16.49,39.88,30.52,49.65,3.09,2.15,8.9,5.75,13.28,5.82.94.02,1.75-.14,2.43-.48.27-.14.44-.22.75-.47,1.43-1.19,2.71-4.75,7.14-18.25,1.85-5.65,4.18-11.36,7.1-17.46.08-.19,9.31-19.87,20.26-30.21,7.74-7.31,12.5-10.75,15.33-12.8l1.05-.77c3.15-2.32,5.28-3.75,6.83-4.79,2.86-1.92,3.23-2.21,3.67-3.45,2.76-7.9-8.24-19.66-12.94-24.68h0Z"/>
  <path class="st1" d="M527.95,375.41c-.33-.7-1.07-1.39-2.24-1.23-8.05,1.1-16.43,1.7-24.9,1.78h0c-28.78.28-50.08-5.06-55.92-6.7-40.73-11.45-63.63-27.38-68.05-47.36-1.18-5.33-1.02-10.84.48-16.37.41-1.52.02-3.11-1.05-4.25-.85-.91-2.03-1.4-3.26-1.39-.3,0-.59.03-.89.09-8.2,1.71-16.16,3.55-23.66,5.48-7.24,1.86-13.32,6.68-16.66,13.21-3.48,6.8-4.51,13.38-3.07,19.6,4.08,17.56,27.88,33.07,68.83,44.86,18.6,5.35,65.62,13.19,110.45,4.52,7.12-1.38,13.78-4.69,19.25-9.59l.16-.15c.87-.79.84-1.82.53-2.52h-.01Z"/>
  <g>
    <path class="st1" d="M320.79,465.08c6.35-6.96,12.21-13.18,19.64-18.63,4.4-3.22,8.27-5.87,11.67-8.21,7.64-5.23,12.24-8.38,12.26-10.9.04-4.1-8.77-6.07-17.04-6.55-.68-.04-1.36-.05-2.03-.05-4.41.04-8.67,1.1-14.18,3.46-10.42,4.47-20.03,11.14-28.55,19.83l-.58.59c-14.56,14.85-32.68,33.32-31.32,53.33.48,7.11,3.13,18.74,8.2,19.67.24.04.48.06.81.07,3.43-.03,6.36-4.94,11.23-13.09,5.85-9.77,17.35-25.78,29.89-39.53h0Z"/>
    <path class="st1" d="M392.91,455.77h0c3.41-2.44,6.7-4.67,9.6-6.63,9.04-6.1,14.98-10.13,14.08-13.26-.65-2.28-5.55-3.59-13.11-3.52-5.26.05-11.18.79-16.24,2.01-4.55,1.11-8.97,2.72-13.13,4.8-19.49,9.76-36.04,26.31-42.25,32.97-1.21,1.39-30.23,35.15-42.61,67.38-2.88,7.49-2.19,14.24-2.17,14.53.43,4.49,2.09,12.59,5.53,14.57.18.11.36.19.52.25.13.05,1.13.48,2.37.5h.25c1.16,0,2.72-.33,3.59-1.78,19.24-32.12,37.77-56.65,37.95-56.88,23.23-32.93,46.37-48.66,53.98-53.82.7-.47,1.24-.84,1.62-1.12h.01Z"/>
    <path class="st1" d="M643.35,248.52h0l-.34-.34c-.86-.85-1.83-1.81-2.68-3.1-2.33-3.56-1.65-7.46-1.16-10.3.45-2.63.52-3.82-.24-4.36-2.12-1.53-6.87,1.96-10.61,5.74-2.83,2.87-4.55,6.01-5.81,8.3-1.36,2.5-1.74,3.12-2.36,3.49-.47.28-1.06.33-1.58.11-2.41-1.02-3.77-8.23-3.38-13.99.4-5.91,2.3-10.21,3.68-13.35.97-2.2,1.58-3.68,1.18-4.16-.3-.36-1.21-.52-2.37-.42-5.17.43-14.86,5.42-19.6,13.62-2.7,4.68-3.14,9.61-3.43,12.88-.17,1.86-.3,3.04-.62,3.75-.2.42-.57.76-1.01.92-.45.16-.94.13-1.36-.08-2.14-1.06-5.13-7.77-5.93-15.14-1.2-11.05,2.87-19.52,5.56-25.13.82-1.71,2.19-4.56,1.79-4.9-.12-.09-.6-.21-1.64.02-6.05,1.38-17.87,10.34-23.43,22.92-6.65,15.05-2.9,29.95-1.1,37.13,2.28,9.04,5.07,13.09,7.75,16.99,1.4,2.02,2.71,3.93,3.94,6.44.18.39,1.71,3.75,2.91,8.13.92,1.99,8.48,21.49-17.09,63.03l-.19.31c-4.68,7.59-11.74,19.06-27.45,32.43-15.66,13.32-30.35,22.65-46.24,29.4-3.36,1.42-7.09,2.88-11.03,4.41-5.12,1.99-10.41,4.05-15.2,6.18-41.11,18.27-71.76,42.46-74.81,51.08-.24.7-.16.99-.11,1.07.06.13.14.26.74.27,1.61,0,4.63-1.02,8.74-2.49l.36-.13c8.93-3.17,23.9-8.47,44.11-10,2.98-.22,5.78-.35,8.58-.38,11.85-.12,21.11,1.59,32.84,3.75,13.25,2.44,29.74,5.48,57.28,7.47,17.86,1.3,32.71-1.15,42.03-3.42,4.64-1.13,13.98-3.9,24.57-9.83l1.59-.89c7.16-3.98,16.07-8.93,15.67-13.78-.23-2.76-3.48-4.67-6.33-6.36h-.01c-.52-.31-.94-.56-1.35-.81-18.64-11.44-25.74-34.21-28.77-43.94-4.01-12.86-3.54-22.87-2.83-38.04.63-13.52,2.96-26.96,6.93-39.96,2.48-8.11,6.62-21.68,16.81-37.36,9.52-14.67,22.42-26.37,30.58-31.93l.16-.11c2.41-1.64,3.28-2.32,3.4-3.31.07-.55.05-.67-1.12-1.81l-.02-.02Z"/>
    <path class="st1" d="M448.24,358.7c15.13,4.26,49.96,9.7,84.58,3.15,9.06-1.72,16.83-7.11,21.29-14.8,13.17-22.76,19.82-38.97,12.52-49.87-.85-1.27-1.61-1.96-3-3.2-8.09-7.26-18.3-9.24-47.5-9.21-2.14,0-4.35.01-6.68.03-.09,0-.26.01-.59.02-10.23.3-25.03,1.34-41.66,2.93-2.41.23-5.42.52-8.17.92-18.14,1.71-35.58,3.84-51.86,6.33-10.26,1.58-18.13,9.94-18.72,19.88-.12,1.94.04,3.86.45,5.7,3.35,14.95,23.86,28.13,59.33,38.1v.02Z"/>
  </g>
  <g>
    <path class="st1" d="M304.72,405.39c-1.72.02-3.37.16-4.93.41-11.34,1.89-22.06,10.47-27.44,15.42-7.31,6.72-15.56,19.97-17.09,23.76-1.93,4.78-4.33,10.74-3.28,18.22.59,4.2,3.02,10.57,6.04,11.58.32.11.61.15.97.16,2.64-.02,5.47-4.05,9.74-10.13,4.51-6.42,18.39-23.82,30.3-33.77,5.76-4.8,10.83-7.98,14.91-10.53,5.84-3.65,8.62-5.52,8.12-8.11-.86-4.5-9.49-7.11-17.33-7.04v.02Z"/>
    <path class="st1" d="M482.71,404.84c-.17-.7-.77-1.51-1.92-1.42-4.3.25-8.71.41-13.13.45-30.48.3-58.64-4.59-73.5-8.87-46.22-13.31-72.28-31.48-77.46-54.02-1.34-5.83-1.25-11.84.26-17.88.44-1.78-.12-3.58-1.51-4.82-.97-.86-2.15-1.31-3.36-1.29-.58,0-1.16.12-1.73.33-13.58,5.13-22.52,9.76-27.62,12.73-2.9,1.6-5.19,3.1-7.05,4.59-.41.32-.6.48-.61.5-3.23,2.77-4.83,5.52-5.03,8.64-.34,5.32,3,10.46,8.47,18.42,2.84,4.13,6.31,7.88,8.72,10.3,10.47,10.53,21.08,16.35,30.45,21.5,9.32,5.12,16.54,8.14,16.6,8.18,16.98,7.07,30.6,9.85,41.53,12.08,17.85,3.65,28.74,5.32,35.35,5.42,24.82.82,48.5-3.45,70.39-12.66,1.09-.46,1.29-1.46,1.12-2.18Z"/>
  </g>
  <g>
    <path class="st0" d="M723.39,679.77c-8.26-15.8-16.52-31.6-24.78-47.4-6.61-12.64-13.22-25.29-19.83-37.93-1.01-1.95-2.03-3.89-3.04-5.84,14.86-3.88,31.65-9.86,40.56-23.25,4.29-6.44,5.07-14.46,5.16-22,.08-6.65-.79-13.43-3.42-19.59-2.18-5.11-5.54-9.87-10.2-13-4.64-3.11-10.06-5.03-15.41-6.49-8.93-2.44-18.2-3.26-27.45-3.29-13.98-.04-27.97.26-41.95.4-3.1.03-6.2.06-9.29.09-2.43.02-4.77-.03-7.01,1.2-4.35,2.39-4.92,6.62-4.88,10.97.09,9.91.19,19.82.3,29.73.17,16.73.33,33.46.5,50.2.18,18.14.36,36.29.54,54.43.14,14.41.27,27.88.41,42.29.04,4.1.08,8.2.12,12.3.03,3.01-.18,5.98,1.56,8.66,2.97,4.56,7.83,4.31,12.59,4.27,4.85-.04,9.75-.17,12.32-5.11,1.66-3.2,1.03-7.59.99-11.08-.19-15.57-.37-30.2-.56-45.77-.19-15.53-.38-31.06-.56-46.58-.04-3.56-.62-7.94.75-11.31,4.2-10.3,14.98-1.98,18.32,4.35,5.44,10.29,10.82,20.61,16.24,30.91,8.37,15.94,16.74,31.87,25.11,47.81,4.96,9.45,9.76,17.61,14.9,26.98,1.82,3.32,4.71,5.83,8.19,7.33,3.91,1.7,8.06,1.27,12.2,1.23,3.2-.03,8.51.78,11.19-1.37,2.48-1.98,1.78-5.08.55-7.55-4.52-9.08-9.4-16.59-14.1-25.59v-.02ZM639.01,563.73c-11.76.12-9.58-14.59-9.66-22.26-.04-4.52-.08-9.04-.14-13.56,0-.38-.3-2.19-.02-2.5.65-.77,5.96-.42,7.07-.48,2.4-.15,4.82-.26,7.23-.37,9.5-.39,19.09-.47,28.57.22,3.93.28,8.14.58,11.63,2.57,3.79,2.16,6.94,5.3,8.34,9.52,2.62,7.94-2.05,16.74-8.3,21.55-1.9,1.45-4.24,3.16-6.62,3.74-3.12.76-6.65.75-9.84.97-9.4.66-18.86.51-28.28.6h.01Z"/>
    <path class="st0" d="M773.73,584.93c-.18-18.06-.36-36.11-.53-54.17-.05-5.43-.11-10.86-.16-16.29-.03-3.02.35-6.59-1.05-9.35-2.92-5.75-8.93-5.18-14.38-5.13-5.92.06-11.12,2.96-11.29,9.5-.06,2.27.04,4.55.06,6.82.14,14.34.28,28.67.42,43.01.2,20.64.4,41.28.61,61.92.19,18.84.37,37.68.56,56.52.08,8.91-.12,17.89.26,26.8.22,5.14,4.17,9.48,9.52,9.43,4.1-.04,9.24.73,12.84-1.6,2.97-1.92,4.3-5.08,4.31-8.49,0-3.25-.06-6.5-.09-9.76-.15-15.55-.31-31.1-.45-46.66-.2-20.86-.41-41.71-.61-62.57l-.02.02Z"/>
    <path class="st0" d="M910.84,499.26c-3.31-1.16-7.78-.6-11.22-.45-5.32.24-9.25,4.27-9.4,9.58-.06,2.58.05,5.18.07,7.77.14,14.37.28,28.73.42,43.1.18,18.27.31,31.46.48,49.74.12,12.16.24,24.31.36,36.47.06,6.94-.48,13.89-2.8,20.5-2.53,7.21-7.04,13.36-13.48,17.53-6.64,4.3-14.52,5.11-22.25,4.63-15.64-.99-27.88-10.59-30.97-26.23-1.49-7.52-1.35-15.27-1.42-22.92-.11-10.48-.2-20.97-.31-31.45-.18-18.16-.31-31.25-.48-49.41-.14-14.23-.27-28.48-.42-42.71-.02-2.62.27-5.56-.26-8.17-1.18-5.72-6.24-7.56-11.43-7.51-3.85.04-8.72-.65-12.17,1.41-4.49,2.7-4.61,7.14-4.56,11.64.04,4.76.09,9.52.14,14.29.16,16.28.32,32.56.47,48.85.18,17.91.31,30.73.47,48.65.11,10.64.21,21.28.32,31.92.23,24.04,18.94,45.68,41.24,53.09,29.35,9.75,66.22-.15,79.74-29.65,1.95-4.26,3.79-9.13,4.43-13.81.83-6.15.8-12.64.74-18.84-.07-8.05-.16-16.1-.23-24.15-.17-17.41-.3-29.72-.46-47.12-.16-16.64-.33-33.28-.48-49.92-.05-4.89-.09-9.78-.15-14.67s-.75-10.16-6.38-12.13v-.02Z"/>
    <path class="st0" d="M1032.05,645.12c-.57-6.64-2.01-13.2-4.41-19.42-9.45-24.37-29.55-39.85-47.34-58.19-4.76-4.91-9.55-9.82-14.33-14.71-4.1-4.19-7.44-9.49-8.2-15.48-1.74-13.63,10.83-19.58,22.38-17.87,4.37.65,12.63,2.76,16.9,3.82,6.66,1.66,6.95-3.15,8.62-11.66,1.31-6.71,1.81-8.62-5.85-11.92-5.75-2.48-15.75-4.71-22.03-4.97-15.8-.67-27.62,3.52-37.54,12.02-9.27,7.94-12.95,18.65-12.07,30.62,1,13.7,8.97,25.74,17.26,36.19,8.14,10.27,17.67,16.81,27.27,25.66,8.44,7.8,16.74,14.77,22.92,24.56,3.15,4.98,5.15,9.47,6.93,15.15.75,2.38,1.42,5.72,1.6,8.89.16,2.87.06,6.51-.15,9.41-.91,12.41-9.54,22.32-20.05,28.25-11.77,6.64-24.11,5.23-36.6,1.63-3.26-.94-6.51-1.86-9.7-2.99-1.4-.5-3.19-1.24-4.72-1.57-4.08-.89-6.32,5.33-7.73,8.11-1.38,2.71-1.71,3.74-3.16,6.41-2.55,4.66-1.37,8.05,3.01,10.14,10.28,4.89,22.26,7.03,33.57,7.64,6.42.34,13.08.73,19.49.09,6.52-.64,12.75-2.89,18.37-6.23,21.95-13.02,37.8-37.58,35.59-63.6h-.02Z"/>
    <path class="st0" d="M300.66,611.54c6.64,25.44,16,59.59,22.65,85.04,2.25,8.62,3.45,21.15,15.1,21.45,6.24.16,13.99.97,18.87-3.61,2.29-2.15,3.23-4.72,3.95-7.6,4.49-18.06,8.97-36.12,13.45-54.18,7.01-28.21,14-56.4,21.01-84.6,4.51-18.17,8.76-35.25,13.26-53.43.59-2.39,1.62-5.92.45-8.33-1.89-3.89-5.05-3.62-8.77-3.58-3.67.03-8.5,1.73-11.81,3.65-5.27,3.06-6.22,7.27-7.71,12.58-1.91,6.81-3.55,12.52-5.46,19.33-4.6,16.39-8.58,32.94-12.67,49.47-6.08,24.52-12.08,49.06-18.35,73.52-.43,1.71-.83,4.87-2.3,5.97.68-3.38-1.16-8.15-2.03-11.35-5.98-21.46-13.87-48.68-19.86-70.14-.82-2.95-2.02-5.2-4.57-6.29-2.86-1.21-6.54-.4-11.32,4.49-4.37,4.47-6.17,9.18-6.79,12.19-.63,3.14.42,6.1,1.24,9.08.75,2.7.93,3.63,1.64,6.34h0Z"/>
    <path class="st0" d="M412.7,734.57c-3.71-.05-6.76-.03-11,.01-5.77.05-7.58.99-8.98,3.69-2.1,4.04-2.51,9.21-3.49,13.61-1.04,4.64-2.4,9.23-4.77,13.37-11.25,19.6-43.66,23.69-53.94,1.07-5.79-12.74-13.2-32.27-17.03-45.71-4.37-15.36-8.73-30.73-13.09-46.1-8.13-28.76-16.4-57.47-23.54-86.5-4.59-18.7-9.03-37.47-14.33-55.98-5.59-19.51-16.83-37.85-31.37-51.99-17.13-16.65-40.07-27.98-63.66-31.81-12.49-2.02-25.31-2.14-37.91-1.34-4.2.26-8.43.6-12.59,1.26-5.19.83-10.3,2.71-15.21,4.55-21.7,8.14-39.92,22.46-53.22,41.39-6.85,9.75-12.78,20.25-16.43,31.63-4.64,14.46-6.68,29.69-5.64,44.86,1.41,20.33,8.13,40.2,18.68,57.59,2.98,4.92,5.96,9.94,9.41,14.54,6.61,8.85,14.66,16.62,23.6,23.07,10.41,7.53,22.1,13.28,34.44,16.85,12.31,3.56,25.81,5.66,38.56,3.59,2.66-.43,5.33-.91,7.93-1.61,1.9-.52,4.2-.9,4.76-3,.9-3.39-.36-8.42-.7-11.9-.35-3.67-.26-7.95-4.14-9.76-3.33-1.55-7.82-.61-11.38-.58-13.37.11-26.8-2.38-38.98-8-11.28-5.2-21.34-12.94-30.03-21.75-8.8-8.92-15.17-18.36-19.21-30.24-3.97-11.65-6.08-24.48-6.35-36.77-.28-12.8,3.71-25.41,9.56-36.69,9.44-18.21,24.3-34.32,43.11-42.91,32.55-14.88,75.02-6.95,101.03,17.25,7.25,6.74,13.31,14.73,17.87,23.51,3.84,7.39,6.63,15.35,9.78,23.02,3.73,9.07,6.45,18.5,9.17,27.92,4,13.81,7.79,27.68,11.55,41.55,2.23,8.21,4.45,16.43,6.67,24.63,1.1,4.06,2.19,8.12,3.29,12.18.9,3.33,1.97,6.63-.94,9.31-2,1.84-4.56,1.83-7.08,1.85-3.08.03-6.15.06-9.24.09-8.08.08-16.17.16-24.25.24-5.29.05-14.08,1.36-14.62-6.22-.23-3.18,1.36-6.94,2.14-9.96,1.73-6.71,3.46-13.42,5.19-20.12,4.01-15.54,6.85-25.9,10.86-41.44,1.01-3.92,1.93-7.88,3.03-11.77.89-3.12,1.83-6.77,1.1-10.04-.61-2.68-1.98-5.37-2.93-7.94-1.52-4.15-3.03-8.29-4.5-12.46-.94-2.68-1.59-6.9-4.91-7.62-3.3-.72-3.86,3.51-4.46,5.82-6.59,25.32-12,45.44-18.59,70.75-7.05,27.09-17.12,64-24.17,91.1-.5,1.92-1.07,3.84-1.51,5.77-.89,3.97.73,7.89,4.95,8.89,3.04.72,6.97.4,10.07.12,5.86-.53,9.94-5.07,11.29-10.5,1.21-4.88,3.94-19.44,8.02-21.27,4.49-2.02,13.19-1.53,17.96-1.58,13.62-.14,27.3-.64,40.92-.4,11.86.21,13.96,12.4,16.5,21.41,3.93,13.95,10.86,34.21,15.35,47.99,1.79,5.5,3.52,11.16,5.95,16.4,3.02,6.5,7.24,12.57,11.77,18.11,7.6,9.29,16.99,15.71,28.76,18.3,25.7,5.68,53.8-6.76,67.78-28.88,2.33-3.69,4.55-7.47,5.47-11.76.87-4.07,1.46-8.21,2.01-12.33.56-4.18,1.1-8.4,1.26-12.61.16-3.98-.85-7.91-5.68-7.8h.02Z"/>
    <path class="st0" d="M588.96,694.25c-5.57-19.77-11.2-46.1-16.77-65.86-6.95-24.68-14.34-45.49-21.29-70.17-4.37-15.51-8.86-26.78-13.23-42.28-.21-.76-.42-1.52-.64-2.28-2.09-7.35-10.39-9.97-18.69-8.24-6.08,1.26-7.83,5.34-8.85,9.18-1.27,4.8-2.49,9.62-3.74,14.42-5.47,21.12-10.96,41.36-16.43,62.49-6.34,24.48-12.03,48.34-18.37,72.81-3.56,13.73-7.21,29.01-10.65,42.77-.97,3.86-.07,8,4.15,9.38,2.59.85,5.85.37,8.52.34,3.92-.04,7.42-1.15,10.19-4.07,2.49-2.6,3.08-5.75,3.93-9.09,1-3.93,3.19-8.7,6.9-10.58,3.39-1.72,7.34-1.33,11.03-1.36,11.99-.12,23.98-.23,35.98-.35,3.13-.03,6.28-.16,9.42-.09,4,.08,7.81,2.02,10.38,5.08,2.08,2.48,2.76,7.16,3.85,10.13,1.45,3.95,4.44,7.04,8.42,8.52,2.87,1.07,5.92.78,8.91.75,2.88-.03,5.95.21,8.25-1.89,2.12-1.94,2.4-4.72,1.75-7.38-.87-3.58-2.02-8.68-3.02-12.23h.02ZM546.09,669.8c-8.76.08-17.51.17-26.27.25-4.61.04-9.22.09-13.83.14-1.26.01-2.55.09-3.79-.2-4.07-.97-5.71-4.82-4.86-8.69,3.57-16.33,9.44-37.96,13.6-54.15,2.75-10.67,4.96-21.23,7.7-31.9.8-3.13,1.55-5.77,2.35-8.9.47-1.85.9-3.48,2.61-3.65,2.31-.23,2.71,2.25,3.2,3.94.97,3.35,1.95,6.7,2.92,10.04,3.14,10.79,6.28,21.58,9.42,32.36,3.15,10.81,6.57,25.3,9.72,36.11,1.02,3.52,1.69,6.75,2.74,10.82.47,1.84,1.44,5.27,1.44,7.19,0,3.97-3.16,6.61-6.97,6.65h.01Z"/>
    <path class="st0" d="M440.28,495.46c-6.53.03-10.33,1.44-13.89,4.12-3.2,2.41-3.51,6.3-3.51,10.18s.05,7.49.08,11.23c.13,16.83,0,8.91.13,25.74.17,22.24.33,44.49.5,66.74.14,19.26.32,41.93.46,61.19.04,5.87.19,21.94.23,27.8.02,2.81-.42,6.31.63,8.99,2.55,6.49,9.65,5.85,15.61,5.75,5.74-.09,10.33-3.38,10.47-9.1.07-2.75-.04-5.51-.06-8.26-.12-15.59-.33-41.41-.44-57-.16-22.04-.36-47.5-.52-69.54-.15-20.01,0-9.58-.15-29.59-.07-9.72.08-25.2-.27-34.93-.18-4.91,1.12-13.4-9.27-13.35v.02Z"/>
  </g>
  <path class="st1" d="M265.99,474.74c.06,0,.14-.02.2-.02-.2,0-.41.01-.61-.03.14.03.27.04.41.05h0Z"/>
  <path class="st1" d="M674.16,306.95c-1.91,3.79-6.06,6.26-10.72,5.67-4.49-.58-8.2-4.15-8.91-8.62-.72-4.46,1.39-8.5,4.83-10.62,1-.62.72-2.17-.45-2.3-2.08-.24-4.25-.16-6.48.32-8.33,1.79-14.83,8.78-15.87,17.24-1.65,13.6,10.16,24.89,23.79,22.45,8.48-1.52,15.18-8.54,16.34-17.09.32-2.34.23-4.61-.2-6.77-.23-1.15-1.8-1.33-2.33-.28h0Z"/>
</svg>