<?xml version="1.0" encoding="UTF-8"?>
<svg id="Layer_1" xmlns="http://www.w3.org/2000/svg" version="1.1" viewBox="0 0 879.11 879.11">
  <!-- Generator: Adobe Illustrator 30.2.1, SVG Export Plug-In . SVG Version: 2.1.1 Build 1)  -->
  <defs>
    <style>
      .st0 {
        fill: #42741b;
      }

      .st1 {
        fill: #77bf6d;
      }
    </style>
  </defs>
  <circle class="st0" cx="439.56" cy="439.56" r="439.56"/>
  <circle class="st1" cx="439.56" cy="439.56" r="399.65"/>
  <g>
    <path class="st0" d="M636.28,361.36l-7.26.02-19.21-19.13c-17.82-17.74-46.3-17.65-64.13.14l-42.77,42.67-254.91-127.5c-4.31-2.16-8.54-1.92-12.39.39-3.14,1.88-5.82,5.82-5.81,10.28l.05,54.61c.08,89.91,66.66,165.81,155.7,179.63l-126.09,126.18c-3.85,3.86-4.1,9.36-2.04,13.77,1.77,3.79,5.86,6.92,10.91,6.92l78.63.02c3.53,0,6.94-1.39,9.37-3.81l48.79-48.78,42.3-.14c90.18-.3,162.1-74.7,162.44-164.83l.1-26.69,18.82-18.93,7.46-.13c7.51-.14,13.2-5.53,13.09-12.53-.11-7.01-5.8-12.17-13.03-12.16Z"/>
    <path class="st0" d="M411.64,235.68c-2.66-4.03-6.56-6.03-10.98-5.92-4.07.1-8.08,2.34-10.4,6.37l-29.06,50.58,125.2,62.45-74.77-113.48Z"/>
  </g>
</svg>