<?xml version="1.0" encoding="UTF-8"?>
<svg id="Capa_1" xmlns="http://www.w3.org/2000/svg" version="1.1" viewBox="0 0 637.94 949.83">
  <!-- Generator: Adobe Illustrator 30.3.0, SVG Export Plug-In . SVG Version: 2.1.3 Build 182)  -->
  <defs>
    <style>
      .st0 {
        fill: #1c355e;
      }
    </style>
  </defs>
  <path class="st0" d="M420.1,174.85c7.94,2.37,15.3,5.34,22.01,8.88,10.04-17,13.49-34.9,9.61-51.87-1.83-7.91-5.22-15.24-9.9-21.94h.03l-.72-1.04s-3.07-4.46-8.27-10.82c2.09,4.26,3.7,8.73,4.77,13.39,4.81,20.84-1.53,43.17-17.54,63.39Z"/>
  <path class="st0" d="M410.82,65.05c9.81-3.32,15.13-13.95,11.87-23.8-3.92-11.84-13.28-26.99-34.07-39.55l-2-1.19h-.03l-.08-.04h-.07s1.74,1.02,1.74,1.02c.23.13.45.26.68.4,17.12,10.21,24.53,22.4,20.34,33.47-1.22,3.27-4.04,7.72-10.54,10.54l-.1.04c-6.48,2.74-11.82,6.74-15.59,11.61,7.62,2.73,14.58,6.05,20.82,9.87l7.04-2.38Z"/>
  <path class="st0" d="M165.11,184.92c1.68,4.1,3.79,8.02,6.32,11.69l.55.8c3.46,5.05,9.8,7.25,15.64,5.46,0,0,60.47-18.62,60.66-18.53l37.39-77.33c-21.9,7.47-37.02,20.29-41.29,30.5-2.04,4.87-.94,7.62.05,9.26l8.2,13.44-87.6,24.52c.02.07.05.13.08.2Z"/>
  <path class="st0" d="M469.52,351.84c26.58-32.45,36.37-67.98,27.07-102.45-12.6-46.64-50.08-63.75-54.14-65.49,9.61,5.11,17.88,11.39,24.58,18.74,8.22,8.97,13.14,17.34,15.46,26.31,4.9,19.05,4.37,38.26-1.59,57.09-4.89,15.44-13.45,30.7-25.44,45.34-26.17,31.94-63.38,53.59-104.53,61.37,24.03,5.02,50.02,12.82,77.78,23.35l18.95,7.18-15.52,13.06c-39.53,33.26-89.59,52.14-140.95,53.18l-6.64.13-3.59-5.6c-6.21-9.71-15.71-16.7-26.74-19.69l-.12-.03c-1.72-.49-3.42-.85-5.18-1.11-2.39-.37-4.78-.55-7.14-.55-7.36,0-14.7,1.79-21.23,5.2-5.34,2.77-11.23,4.23-17.08,4.23-4.46,0-8.81-.83-12.92-2.46-12.86-5.1-25.76-12.72-38.33-22.65-13.16-10.42-17.26-28.24-9.98-43.33l.25-.52s-.01,0-.02-.01l-.24.5c-7.32,15.15-8.82,38.86,24.02,63.8,12.78,9.71,25.5,17.6,38.33,22.67,2.46.97,5.01,1.67,7.61,2.07,7.61,1.16,15.35-.19,22.41-3.83,8.73-4.57,18.52-6.18,28.32-4.68,1.77.27,3.53.65,5.32,1.15,11.04,3.02,20.52,9.99,26.72,19.68l3.6,5.6c57.19-1.24,144.01-41.75,167.55-70.03-2.53-18.9-57.61-39.48-62.07-38.92,25.37-11.08,47.91-27.88,65.49-49.31Z"/>
  <path class="st0" d="M471.02,231.94h-.01c-2.1-8.11-7.06-15.07-12.74-21.27-13.69-15.02-35.31-24.87-61.23-28.76,22.76-20.23,34.35-44.73,29.03-67.77-5.6-24.18-28.61-41.61-60.13-49.27l1.09-2.7.73-1.79c4.73-11.82,14.5-20.46,26.17-25.4,2.07-.9,3.53-2.16,4.15-3.82,1.96-5.13-4.54-12.68-15.54-19.19-.03,0-.03-.03-.09-.06-3.72-1.99-7.56-3.9-11.47-5.61-.73-.33-1.49-.61-2.24-.9-18.87-7.15-36.34-7.21-39.02-.13-.59,1.54-.4,3.31.41,5.19,4.93,11.22,3.7,24.24-1.65,35.27l-2.15,4.52-5.04,10.38c-1.48.06-2.99.12-4.51.22-11.28.62-22.98,2.28-34.79,5.03-68.31,15.83-116.24,62.04-108.82,104.22l61.14-17.12c-12.93-21.19,18.28-51.1,59.66-60.69,4.45-1.04,8.85-1.8,13.16-2.36,1.79-.25,3.55-.45,5.35-.61,15.48-1.35,29.98.19,42.02,4.2,16.85,5.59,28.86,15.97,32.08,29.78,4.85,21.04-12.23,43.97-40.51,58.22-8.76,4.41-30.45,10.72-31.12,10.86l23.04-57.61c7.45-18.57-6.08-39.11-26.04-39.06h-.53c-4.43.06-8.4,2.72-10.33,6.71l-148.15,306.42c-4.81,9.98-2.04,21.94,6.64,28.82,8.84,6.98,21.19,15.31,35.35,20.93,6.58,2.6,13.89,1.99,20.16-1.27,10.55-5.5,22.9-7.8,35.58-5.86,2.27.33,4.48.81,6.67,1.43,14.24,3.87,26.03,12.91,33.62,24.75,49.99-1.01,96.83-19.5,133.56-50.4-135.88-51.52-186.16-20.12-189.58-17.82-.14.09-.2.14-.2.14-1.2.87-2.88.84-4.06-.14h-.05c-1.12-.92-1.51-2.5-.98-3.84l11.2-28.03c8.48,2.3,17.63,3.39,27.2,4.66,19.68,2.6,40.29,2.6,58.35,1.6,46.5-2.61,90.33-23.88,119.9-59.97,19.82-24.18,34.07-55.53,24.72-91.9ZM201.04,144.92l-14.43,4.44c9.03-35.1,54.06-69.84,110.45-76.15-43.52,8.95-85.39,39.29-96.02,71.71ZM391.83,430.57c-3.89,2.5-23.03,11.23-32.5,13.06-47.07-31.75-111.32-30.22-119.5-27.19,52.08-25.11,145.22,10.46,152,14.13ZM221.94,296.43c-1.19,2.03-3.49,3.12-5.81,2.77l89.57-185.27h.01c2.22-4.6,8.66-4.84,11.23-.42,3.75,6.47,3.73,14.46-.05,20.9l-94.95,162.02ZM302.02,318.73c-.28-.03-.56-.03-.86-.06-6.84-.11-13.7-.73-20.63-1.77-.84-.13-1.72-.28-2.52-.42-3.98-.67-7.92-1.45-11.76-2.41l20.54-51.38c16.18-40.4,63.08-60.18,102.3-41.41,11.64,5.56,20.66,13.75,23.46,25.75,2.6,11.03-1.66,22.54-9.55,32.81h.01c-7.14,9.29-17.67,17.68-30.66,24.33l-.03-.03c-11,5.67-23.79,10.02-37.68,12.51-11.31,2.02-22.28,2.67-32.62,2.08ZM421.97,322.46c-32.05,24.42-63.07,28.86-63.07,28.86,17.02-6.79,32.03-15.6,44.5-25.65,32.1-25.88,47.29-59.9,35.58-88.35-6.25-15.27-19.38-26.76-36.67-33.93-15.59-6.46-34.51-9.41-54.98-8.46l-.03.02c-3.97.18-8,.53-12.05,1.04,10.41-2.39,20.68-3.81,30.62-4.25l.03-.02c20.47-.95,39.39,1.99,54.98,8.46,17.29,7.17,30.42,18.66,36.67,33.92,11.71,28.46-2.79,63.37-35.58,88.36Z"/>
  <path class="st0" d="M207.39,533.57v34.85h21.31v151.5h35.83v-151.5h37.78v151.5h35.84v-151.5h21.31v-34.85h-152.07Z"/>
  <path class="st0" d="M101.51,544.14c-5.52-6.71-13.72-10.58-22.37-10.58H6.8c9.52,22.9,13.24,47.76,10.83,72.45L0,785.9l78.24-52.86c8.51-5.72,14.03-14.96,15.06-25.17l3.02-29.99c1.35-13.36-1.62-26.8-8.43-38.36l-.48-.76c9.49-10.05,15.4-22.95,16.8-36.7l3.75-36.45c.11-1.01.17-2.02.17-3,0-6.71-2.35-13.24-6.63-18.47h.01ZM60.91,695.55c-.62,6.51-4.06,12.43-9.43,16.16l-11.81,8.22,5.38-54.38h8.45c5.48,0,9.8,4.74,9.27,10.24l-1.85,19.75ZM69.04,611.26c-.53,5.22-3,9.82-6.61,13.11-3.64,3.31-8.45,5.31-13.69,5.31l5.99-61.25h8.4c5.48,0,9.77,4.77,9.24,10.24l-3.33,32.6h0Z"/>
  <path class="st0" d="M583.43,629.65l1.86,35.91h9.55l2.89,54.36-11.27-7.13c-6.88-4.34-11.18-11.81-11.5-19.96-1.03-26.67-3.33-87.3-4.1-114.3-.16-5.54,4.28-10.11,9.8-10.11,5.22,0,9.53,4.1,9.8,9.32l1.18,22.79h33.22c-.96-21.16,2.78-42.27,10.93-61.81l2.15-5.16h-31.63l-39.11-.04c-5.51,0-11.01,1.26-15.78,4.03-10.02,5.83-15.61,16.44-15.28,27.42l4.26,141.29c.34,11.12,5.99,21.4,15.2,27.62l77,52.03-6.29-156.27h-42.89Z"/>
  <path class="st0" d="M526.63,719.93h-.91c-1.12,0-2.05-.89-2.11-2.01-.3-6.59-2.94-12.78-7.6-17.74-5.99-6.43-14.98-10.24-24.02-10.24-4.47,0-8.76.89-12.67,2.64-1.11.5-2.42-.04-2.84-1.19l-22.93-61.73,1.79,90.27h-32.08l-4.73-186.37h37.29l34.35,96.1-2.85-96.1h33.9l5.4,186.37h0Z"/>
  <path class="st0" d="M184.96,533.56h-46.39l-34.66,186.37h27.9c.62,0,1.21-.28,1.61-.75,2.08-2.46,4.38-4.77,6.93-6.86.41-.33.67-.8.75-1.32l6.79-45.46h25.11l5.65,37.99c.11.73.59,1.36,1.28,1.64,6.48,2.7,11.86,7.38,15.36,13.6h0c.36.69,1.08,1.12,1.85,1.12h19.92l-32.11-186.35h0ZM153.3,629.67l7.14-47.56,7.11,47.56h-14.25Z"/>
  <path class="st0" d="M405.62,533.57l1.81,186.35h-35.04l-1.81-186.35h35.04Z"/>
  <path class="st0" d="M550.46,812.67c.92,0-.61-8.42-.84-9.2-.87-2.88-2.25-5.57-3.73-8.17-2.7-4.74-5.85-9.01-6.97-14.46-.87-4.24-.72-8.7.51-12.85.6-2.03,1.11-3.28.71-5.43-.35-1.92-1.21-3.78-2.68-5.1-1.72-1.52-4.09-2.15-6.39-2.19-2.75-.04-5.66.56-8.23,1.52-3.38,1.28-6.47,3.23-9.36,5.4-19.09,14.39-25.62,37.91-33.98,59.13-.97,2.47-4.65,1.68-4.52-.98,1.23-24.25,9.13-64.2,11.62-72.49,12.76,0,26.29-14.34,27.13-27.38,1.05-16.58-20-26.18-33.4-17.15-11.47,7.73-10.12,23.58-10.81,26.83h-223.58c-13.84,0-32.26,3.5-44.35,10.19-3.59,1.99-2.11,7.5,2,7.51,52.15.04,217.68.16,261.77,0-.83,4.36-3.79,13.65-4.56,18.03-42.07-4.75-54.68,40.97-56.05,51.78-.51,4-.81,7.42-.35,10.07.31,1.79-9.01,2.33-4.86-19.8,2.04-10.84,5.08-18.22,4.16-30.35-.6-8.9-7.78-16.36-16.53-16.67-8.02-.35-13.92.68-21.04,6.13h-14.22c-.2.06,1.44,46.23-17.58,61.94-.27.21-.55.45-.83.65-.02.01-.05.04-.08.05-8.51,6.12-15.59,3.78-16.68,1.47,16.49-11.06,27.44-26.27,27.89-46.5.46-20.73-22.69-26.92-36.06-17.49-13.13,9.27-19.92,22.08-22.65,38-1.2,7.01-.33,14.88,2.27,22.23-4.44,2.65-13.13,7.64-15.86,9.94,1.96-7.54,8.45-27.04,10.42-47.19,1.45-14.85-6.01-33.53-30.98-27.6-17.02,4.09-27.42,21.31-31.16,36.82-.87,3.58-1.66,7.15-2.08,10.77,0,0,0,0-.01,0,0,0-4.08,9.37-7.74,13.8-11,12.98-21.46,10.09-22.81,7.24,16.49-11.06,27.44-26.27,27.89-46.5.46-20.74-22.69-26.92-36.06-17.5-13.14,9.27-19.92,22.09-22.65,38-3.14,18.28,7.76,42.65,26.95,47.42,23.09,5.74,35.23-7.81,35.23-7.81,1.68-1.63,3.22-3.03,4.53-4.14,1.27-.85,2.53-1.72,3.74-2.6,3.72,3.35,8.41,5.6,13.85,5.76,3.55.16,7.75-1.6,10.81-2.5-.67,4.75-.8,6.62-1.39,9.38-3.85,2.98-9.63,6.79-13.38,9.87-20.41,16.9-38.7,28.51-43.48,56.5-2.29,13.37,6.37,30.12,21.04,32.44,18.25,2.88,32.63-14.79,38.26-29.54,6.68-17.5,13.92-59.62,13.87-59.55-.02.03,25.19-15.87,27.88-17.37,0-.02.75-.5,1.5-.98,4.36,5.06,9.85,8.92,16.3,10.53,3.46.86,6.65,1.25,9.62,1.35.16.01.28.06.44.06.41,0,.85,0,1.29-.01.66,0,1.3-.04,1.94-.08.25-.01.5-.03.75-.05.57-.04,1.14-.08,1.68-.14,9.07-.95,20.85-4.71,28.39-17.74,6.4-11.06,9.03-23,11.81-35.35.97-4.29,1.93-10.53,5.98-13.08,5.75-3.61,6.76,4.59,6.47,9.04-.66,10.18-1.72,20.58-2.66,30.84-.34,3.62-.83,7.31-.6,10.96.21,3.22,1.04,6.47,2.9,9.1,5.51,7.81,18.55,7.53,26.19,3.39,3.49-1.89,5.38-5.22,5.38-5.22,13.71,7.57,22.73,8.58,39.91-2.93,2-1.33,6.93-5.55,6.93-5.55.85,3.75,1.25,8.15,3.52,11.4,2.21,3.16,8.08,4.16,11.64,3.99,5.17-.26,10.1-3.08,13.61-6.79,4.57-4.83,5.9-12.1,8.36-18.12,3.13-7.68,6.62-15.29,10.98-22.35,3.79-6.13,8.38-12.66,14.72-16.36,0,0,0,15.2,4.98,23.74-.43-.74-5.76.95-6.51,1.2-6.35,2.09-12.29,5.9-16.49,11.16-3.95,4.94-7.19,12.51-5.11,18.83.38,1.17.94,2.29,1.7,3.25,4.63,5.89,13.19,6.88,20.15,6.77,7.6-.12,15.14-3.08,20.77-8.2,2.86-2.61,5.32-5.81,7.21-9.19.28-.5,2.71-4.6,1.96-5.19,11.56,9.18,4.98,21.39-3.12,28.75-13.75,12.52-43.36,10.19-58.59,10.19h-179.7c-6.8,0-13.49,1.61-19.52,4.75-6.91,3.59-15.31,9.29-19.92,17.32-2.38,4.15.83,9.34,5.6,9.34h256.28c19.83,0,43.2-2.39,55.38-19.7,4.42-6.28,6.32-12.54,6.32-22.4,0-27.39-33.96-46.91-43.08-46.91h.02ZM495.54,718.83c.64-.12,1.85.28,1.43,2.39-1.05,5.26-6.56,8.84-6.56,8.95,0-.1,1.85-10.72,5.13-11.34h0ZM183.66,813.93c-1,1.03-2.04,2.03-3.13,2.95-.29.25-2.91,1.98-2.89,2.19-.9-8.08-.86-17.31,2.07-25.02,2.05-5.38,9.47-13.84,14.84-6.59,4.46,6.02-1.58,14.34-4.95,19.22-1.78,2.57-3.77,5.01-5.95,7.25h0ZM242.54,881.82c-.41,1.47-.79,2.95-1.17,4.43-.78,3.04-1.54,6.08-2.4,9.1-1.65,5.78-3.83,14.97-9.54,18.3-1.64.95-3.57,1.22-5.81.23-4.21-1.86-3.61-6.66-2.31-10.29,1.25-3.49,3.45-6.55,5.56-9.56,3.67-5.23,15.99-15.57,16.89-16.33-.68.57-.97,3.27-1.21,4.14ZM245.09,818.92c-14.13-3-1.9-39.14,12.51-35.3,10.86,2.9.33,38.02-12.51,35.3ZM312.42,813.93c-1,1.03-2.04,2.03-3.13,2.95-.29.25-2.91,1.98-2.89,2.19-.9-8.08-.86-17.31,2.07-25.02,2.04-5.38,9.47-13.84,14.84-6.59,4.46,6.02-1.58,14.34-4.95,19.22-1.78,2.57-3.77,5.01-5.95,7.25h0ZM433.7,823.62c-16.06-3.4.62-41.73,15.41-38.95,10.07,1.9-.81,42.05-15.41,38.95ZM527.05,831.85c-.48,1.72-1.17,3.38-2.08,4.92-.16.27-.33.52-.51.79-1.64,2.3-4.52,4.08-7.36,4.31-1.72.14-3.64-.61-4.32-2.21-1.43-3.34,2.63-7.37,5.11-8.99,3.03-1.98,6.51-2.89,10.01-3.6-.05.01-.73,4.36-.85,4.78Z"/>
  <path class="st0" d="M201.34,880.93l.17-.21c3.88-4.58.62-10.25-5.38-9.99-25.93,1.13-57.51,4.48-81.93-13.66,12.51-21.58,19.18-30.7,27.66-70.32,6.07-2.7,29.2-15.83,43.22-38.88,12.64-20.78-5.2-41.18-28.01-33.87-20.18,7.41-28.3,31.45-33.63,49.68-.77,2.64-3.34,8.84-4.63,12.18,0,0-26.69,13.44-39.76,20.85-3.73,2.13-3.12,7.64,3.7,7.18,7.45-.5,22.54-2.62,28.66-3.13-6.78,19.07-11.5,30.01-23.01,46.17-9.83-2.23-20.2-2.49-31.93,1.48-7.71,2.53-16.53,9.17-21.56,16.52-6.28,8.49-5.44,23.04,5.17,28.49,6.2,3.32,18.14,1.9,24.75.98,11.6-1.72,22.14-8,30.7-16.01,58.18,41.11,93.91,16.55,105.78,2.53h.02ZM152.78,744.93c.28-.66.59-1.36.92-2.05.65-1.32,3.7-7.57,6.51-5.09,1.31,1.15,2,2.78-4.23,9.07-.9.91-5.5,4.64-5.59,4.95.69-2.33,1.43-4.65,2.39-6.88Z"/>
</svg>