<?xml version="1.0" encoding="UTF-8"?>
<svg id="Layer_1" data-name="Layer 1" xmlns="http://www.w3.org/2000/svg" viewBox="0 0 879.11 879.11">
  <defs>
    <style>
      .cls-1 {
        fill: #fff;
      }

      .cls-2 {
        fill: #81d0d3;
      }

      .cls-3 {
        fill: #ebeced;
      }
    </style>
  </defs>
  <circle class="cls-3" cx="439.56" cy="439.56" r="439.56"/>
  <circle class="cls-2" cx="439.56" cy="439.56" r="399.65"/>
  <g>
    <polygon class="cls-1" points="365.39 343.84 351.9 351.62 338.41 359.41 338.41 343.84 338.41 328.26 351.9 336.05 365.39 343.84"/>
    <path class="cls-1" d="M275.47,397.43c-29.8,0-53.95-24.15-53.95-53.95s24.15-53.96,53.95-53.96,53.95,24.15,53.95,53.96-24.15,53.95-53.95,53.95Z"/>
    <polygon class="cls-1" points="291.04 406.78 283.25 420.26 275.47 433.76 267.68 420.26 259.9 406.78 275.47 406.78 291.04 406.78"/>
    <polygon class="cls-1" points="242.1 399.3 227.06 403.33 212.02 407.37 216.04 392.32 220.08 377.28 231.09 388.29 242.1 399.3"/>
    <polygon class="cls-1" points="320.1 388.29 331.12 377.28 335.14 392.32 339.18 407.37 324.13 403.33 309.09 399.3 320.1 388.29"/>
    <polygon class="cls-1" points="324.13 284.23 339.18 280.21 335.14 295.24 331.12 310.29 320.1 299.28 309.09 288.26 324.13 284.23"/>
    <polygon class="cls-1" points="267.68 267.05 275.47 253.56 283.25 267.05 291.04 280.53 275.47 280.53 259.9 280.53 267.68 267.05"/>
    <polygon class="cls-1" points="226.8 283.98 241.85 288.01 230.84 299.03 219.82 310.03 215.79 294.99 211.76 279.95 226.8 283.98"/>
    <polygon class="cls-1" points="199.04 336.05 212.53 328.26 212.53 343.84 212.53 359.41 199.04 351.62 185.55 343.84 199.04 336.05"/>
    <path class="cls-1" d="M468.73,597.25c6.61,4.17,14.09,6.39,21.82,6.39s15.19-2.21,21.8-6.38c7.23-4.56,15.65-6.87,24.2-6.86h2.53c8.51.01,16.91,2.31,24.11,6.86,6.59,4.15,14.06,6.38,21.78,6.38s15.2-2.21,21.8-6.38c7.23-4.56,15.65-6.87,24.2-6.86h2.54c8.58.01,16.98,2.4,24.25,6.94,6.44,4.03,13.71,6.22,21.22,6.3,7.13.08,13.45,5.06,14.42,12.13,1.2,8.69-5.52,23.41-13.98,23.41-4.97,0-9.88-.53-14.67-1.59-21.43-4.71-43.71-4.71-65.15,0-4.77,1.05-9.68,1.59-14.64,1.59s-9.86-.53-14.64-1.59c-21.45-4.71-43.73-4.7-65.17,0-4.78,1.05-9.67,1.59-14.61,1.59s-9.87-.53-14.65-1.59c-21.45-4.71-43.74-4.7-65.18,0-4.76,1.05-9.65,1.59-14.61,1.59s-9.88-.53-14.67-1.59c-21.43-4.71-43.71-4.71-65.15,0-4.77,1.05-9.68,1.59-14.64,1.59-7.16,0-14.22-1.13-20.95-3.31-17.39-5.61-36.06-5.01-53.53.32-6.26,1.92-12.8,2.94-19.45,2.99-7.71.06-14.36-13.21-14.61-20.93-.27-8.01,6.16-14.62,14.11-14.62s15.17-2.22,21.75-6.4c7.24-4.59,15.68-6.94,24.26-6.96h2.29c8.59-.01,17.05,2.33,24.31,6.92,6.63,4.2,14.11,6.44,21.81,6.44s15.2-2.21,21.8-6.38c7.23-4.56,15.65-6.87,24.2-6.86h2.54c8.51.01,16.9,2.3,24.1,6.85,6.6,4.17,14.09,6.39,21.81,6.39s15.18-2.21,21.79-6.38c4.11-2.59,8.63-4.25,13.33-5.38l85.98-214.29c-3.96-8.83-11.13-15.99-20.24-19.65-12.41-4.98-26.74-2.91-37.39,5.43-2.5,1.94-5.83,2.42-8.77,1.24s-5.03-3.83-5.48-6.97c-1.95-13.37-10.85-24.78-23.26-29.76-11.53-4.62-24.3-3.31-35.09,3.58-3.25,2.07-7.48,1.82-10.45-.65s-4.01-6.56-2.58-10.14c.09-.23.93-2.05,1.04-2.27,30.17-63.46,110.3-88.2,190.74-61.73l3.13-7.81c2.92-7.28,11.19-10.82,18.48-7.89,7.28,2.92,10.81,11.19,7.89,18.47l-3.13,7.81c76.46,36.46,117.32,109.67,95.68,175.19-.68,2.04-.93,2.82-1.26,3.65-1.43,3.56-4.99,5.81-8.84,5.56-3.81-.24-7.07-2.95-8.02-6.69-3.17-12.53-11.52-22.34-22.89-26.9-12.38-4.98-26.7-2.95-37.35,5.29-2.51,1.93-5.66,2.86-8.75,1.22-2.89-1.16-4.97-3.75-5.46-6.83-2.19-13.63-10.91-24.74-23.36-29.73-9.14-3.67-19.31-3.45-28.3.22l-82.5,205.63c2.61,1.01,5.28,1.9,7.67,3.4Z"/>
  </g>
</svg>