<?xml version="1.0" encoding="UTF-8"?>
<svg id="Layer_1" data-name="Layer 1" xmlns="http://www.w3.org/2000/svg" viewBox="0 0 900 707.32">
  <defs>
    <style>
      .cls-1 {
        fill: #1c355e;
      }
    </style>
  </defs>
  <polygon class="cls-1" points="318.6 184.09 294.7 197.87 270.8 211.66 270.8 184.09 270.8 156.49 294.7 170.29 318.6 184.09"/>
  <path class="cls-1" d="M159.3,279.02c-52.79,0-95.58-42.79-95.58-95.57s42.79-95.59,95.58-95.59,95.58,42.79,95.58,95.59-42.79,95.57-95.58,95.57Z"/>
  <polygon class="cls-1" points="186.89 295.59 173.09 319.48 159.3 343.39 145.5 319.48 131.71 295.59 159.3 295.59 186.89 295.59"/>
  <polygon class="cls-1" points="100.19 282.34 73.53 289.48 46.88 296.64 54.02 269.98 61.17 243.32 80.68 262.84 100.19 282.34"/>
  <polygon class="cls-1" points="238.38 262.84 257.89 243.32 265.02 269.98 272.17 296.64 245.51 289.48 218.87 282.34 238.38 262.84"/>
  <polygon class="cls-1" points="245.51 78.49 272.17 71.35 265.02 97.99 257.89 124.64 238.38 105.14 218.87 85.62 245.51 78.49"/>
  <polygon class="cls-1" points="145.5 48.04 159.3 24.15 173.09 48.04 186.89 71.93 159.3 71.93 131.71 71.93 145.5 48.04"/>
  <polygon class="cls-1" points="73.08 78.04 99.73 85.17 80.22 104.69 60.71 124.19 53.57 97.54 46.43 70.9 73.08 78.04"/>
  <polygon class="cls-1" points="23.89 170.29 47.79 156.49 47.79 184.09 47.79 211.66 23.89 197.87 0 184.09 23.89 170.29"/>
  <path class="cls-1" d="M501.69,633.03c11.72,7.38,24.96,11.32,38.66,11.32s26.91-3.92,38.62-11.3c12.81-8.08,27.73-12.18,42.87-12.16h4.48c15.08.02,29.96,4.1,42.72,12.16,11.67,7.36,24.91,11.3,38.59,11.3s26.93-3.92,38.62-11.3c12.81-8.08,27.73-12.18,42.87-12.16h4.5c15.19.02,30.09,4.24,42.97,12.3,11.4,7.14,24.3,11.01,37.6,11.15,12.63.14,23.83,8.96,25.55,21.49,2.13,15.4-9.78,41.48-24.77,41.48-8.8,0-17.51-.94-25.99-2.81-37.97-8.35-77.45-8.35-115.42,0-8.46,1.87-17.15,2.81-25.93,2.81s-17.46-.94-25.94-2.81c-38.01-8.35-77.47-8.32-115.46,0-8.47,1.87-17.13,2.81-25.89,2.81s-17.48-.94-25.95-2.81c-37.99-8.35-77.49-8.32-115.48,0-8.44,1.87-17.1,2.81-25.88,2.81s-17.51-.94-25.99-2.81c-37.97-8.35-77.45-8.35-115.42,0-8.46,1.87-17.15,2.81-25.93,2.81-12.69,0-25.19-2.01-37.12-5.86-30.81-9.94-63.88-8.88-94.83.57-11.09,3.4-22.68,5.21-34.46,5.29-13.66.1-25.44-23.4-25.88-37.07-.47-14.19,10.91-25.9,25.01-25.9s26.88-3.94,38.54-11.34c12.83-8.14,27.77-12.3,42.98-12.32h4.06c15.21-.02,30.2,4.12,43.07,12.26,11.74,7.44,25,11.4,38.64,11.4s26.93-3.92,38.62-11.3c12.82-8.08,27.73-12.18,42.87-12.16h4.5c15.08.02,29.94,4.08,42.7,12.14,11.69,7.38,24.96,11.32,38.64,11.32s26.9-3.92,38.6-11.3c7.28-4.59,15.3-7.53,23.61-9.53l152.32-379.64c-7.02-15.64-19.72-28.34-35.86-34.82-21.98-8.82-47.38-5.15-66.24,9.62-4.43,3.44-10.33,4.29-15.54,2.19-5.21-2.09-8.91-6.79-9.71-12.34-3.46-23.68-19.22-43.9-41.2-52.72-20.42-8.18-43.06-5.86-62.17,6.34-5.76,3.67-13.25,3.22-18.51-1.15s-7.1-11.63-4.56-17.96c.15-.41,1.65-3.63,1.85-4.02C389.08,26.59,531.05-17.25,673.54,29.65l5.55-13.84c5.17-12.9,19.83-19.17,32.75-13.98,12.9,5.17,19.15,19.83,13.98,32.73l-5.55,13.84c135.46,64.59,207.84,194.3,169.51,310.38-1.2,3.61-1.64,5-2.22,6.46-2.53,6.32-8.84,10.29-15.66,9.84-6.75-.43-12.52-5.23-14.21-11.85-5.62-22.21-20.4-39.57-40.56-47.65-21.94-8.82-47.3-5.23-66.17,9.37-4.44,3.42-10.03,5.06-15.5,2.15-5.13-2.05-8.8-6.64-9.67-12.1-3.88-24.15-19.34-43.84-41.39-52.68-16.19-6.5-34.2-6.11-50.13.39l-146.17,364.3c4.62,1.78,9.35,3.36,13.58,6.03Z"/>
</svg>