<?xml version="1.0" encoding="UTF-8"?>
<svg id="Layer_1" data-name="Layer 1" xmlns="http://www.w3.org/2000/svg" viewBox="0 0 482.44 482.44">
  <defs>
    <style>
      .cls-1 {
        fill: #1c355e;
        stroke-width: 0px;
      }
    </style>
  </defs>
  <g>
    <path class="cls-1" d="M379.8,241.02c22.87-10.51,25.33-34.2,7.71-71.76-2.12-3.99-6.15-12.61-11.07-19.82-4.28-6.26-9.24-11.45-14.22-11.59-1.6-.04-3.2.43-4.78,1.56-2.48,2.89-1.9,7.04-2.52,10.58-1.15,6.71-1.41,13.45-2.35,20.14-2.03,19.48-6.18,39.27-11.31,58.22-3.22,14.29-15.75,56.32-7.29,68.05,1.78,2.29,5.61,3.29,7.69.61,2.82-3.63,1.91-12.6,2.38-19.05.73-10.05,3.18-21.7,5.93-33.12,1.27-4.54,7.06-4.17,9.31-.6,5.96,8.72,9.82,16.84,11.81,24.82,6.38,21.72,7.19,30.39-2.36,52.57-1.78,4.14-1.08,7.36,2.28,9.2,3.89,2.13,8.19-3.55,10.14-7.62,3.19-6.35,5.37-12.33,6.32-19.82,4.72-37.06-16.71-56.7-7.67-62.36ZM361.37,219.51c-2.57-5.35-2.56-12.53-.74-19.14,1.74-9.54,3.45-18.95,5.3-28.51.24-2.12,1.03-4.52,2.86-5.01,1.19-.32,2.5-.08,3.82,1.88,6.39,9.53,18.12,35.51,12.73,49.67-4.13,10.86-18.93,11.58-23.96,1.1Z"/>
    <path class="cls-1" d="M125.45,229.36c-2.33-3.34,1.73-10.25,2.85-14.29,3.13-10.43,5.97-25.38,2.15-35.82-.88-2.41-2.3-4.61-4.32-6.19-8.22-6.44-18.72,1.49-24.82,8.01-7.46,7.97-11.4,15.76-13.62,25.25-8.72,37.32-5.02,79.09,17.88,112.97,8.85,12.08,18.59.18,25.72-6.6,7.21-7.17,14.81-14.72,19.62-23.77,6.56-16.09,6.7-41.86-5.75-53.71-8.39-7.8-16.03-1.62-19.71-5.85ZM94.28,232.46c.15-7,1.55-13.53,2.59-19.76,1.52-9.15,4.46-14.32,9.98-21.23,2.36-2.95,5.39-6.05,9.55-5.82,6.29,1.64,3.77,9.6,3.45,14.4-2.08,12.82-5.61,22.17-11.94,30.39-2.53,3.23-8.19,11.39-12.78,9.08-1.55-1.41-.76-4.98-.85-7.06ZM123.04,303.08c-4.08,3.82-9.7,5.88-12.99-.58-6.17-12.09-9.31-22.1-12.96-38.01-2.45-10.66,15.07-16.48,24-18.87,14.83-3.97,19.2,4.47,20.46,17.95,1.64,17.46-7.08,28.95-18.51,39.5Z"/>
    <path class="cls-1" d="M303.09,134.93c11.03-15.48,8.13-35.76-12.9-47.25-15-8.19-30.56-10.98-29.96,9.24-.46,8.22-1.4,16.09-1.52,24.32-.11,16.73,1.08,32.99,1.74,49.56.18,20.46,1.27,26.25,20.65,35.04,8.13,3.86,20.42,9.7,28.84,5.85,16.09-9.28,10.23-45.72-4.65-60.19-8.7-9.05-11.71-5.43-2.21-16.57ZM269.74,124.59c.08-7.91.19-15.92.51-23.54,0-.96.13-4.28,2.07-5.91,4.01-2.69,11.01.94,15.78,4.91,6.02,5.01,10.52,12.51,9.94,19.59-.3,3.71-2.02,8.78-8.48,11.83-6.43,3.01-21.48,3.8-19.83-6.88ZM306.09,197.08c-5.14,5.73-14.48-.29-19.6-2.29-4.73-2.54-10.46-6.21-13.04-12.14-3.15-8.34-3.26-17.37-3.22-26.04-.13-4.22.27-9.9,5.59-9.17,6.3,1.64,12.34,4.61,17.54,8.6,11.5,9.06,20.35,27.79,12.73,41.04Z"/>
    <path class="cls-1" d="M333.45,226.82c10.37-38.65,14.24-69.5,12.98-103.74-.14-3.75-.18-7.45-2.24-9.38-4.99-4.68-11.37.45-15.49,4.38-9.15,8.73-27.95,22.21-20.83,29.77,2.97,3.15,5.44-1.05,8.6-1.46,3.3.33,5.57,3.05,7.53,5.36,7.43,7.75,10.05,18.53,7.24,31.14-1.63,10.33-3.7,20.5-6.16,30.22-.76,5.4-5.45,13.1-1.1,17.47,3.35,3.32,8.64.51,9.45-3.75ZM331.29,148.39c-1.55-2.16-3.54-3.97-5.41-5.81-.83-.95-2.4-1.37-2.07-3.07,1.37-4.82,5.94-7.43,10.08-11.03.3-.16.54-.14.74-.02.73-.37.75,5.66.68,8.05-.17,4.61.93,16.57-4.03,11.88Z"/>
    <path class="cls-1" d="M226.32,81.76c-5.88-.55-56.05,6.69-46.59,19.34,4.62,4.74,16.48-5.7,21.99-2.32,3.43,1.48,4.19,9.68,5.52,14.55,7.07,27.44,10.1,52.73,12.9,81.48-.39,4.8,4.63,9.19,8.43,5.34,2.26-2.65,1.57-8.49,1.01-13.18-2.23-29.55-6.54-59.75-14.17-86.43-3-12.19,13.6-4.93,17.63-11.53,2.28-4.45-2.35-7.59-6.71-7.26Z"/>
    <path class="cls-1" d="M210.8,179.67c-4.33-18.26-22.14-75.75-31.27-27.97-1.95,11.49-11.02,73.81,1.57,68.32,6.42-2.8,3.06-14.63,3.25-22.37.17-6.72,1.36-9.45,5.62-11.89,2.54-1.46,3.67-2.12,7.23-3.23,3.92-1.22,5.61,5.89,6.32,9.82,1.05,5.84,2.24,14.66,8.79,12.01,3.07-1.25,2.58-5.22,1.94-8.68-1.08-5.73-2.09-10.89-3.45-16.02ZM196.38,173.94c-4.7,2.01-12.85,6.92-11.2-2.66,1.11-6.47,2.31-12.95,3.64-19.3.94-4.02,3.17-1.77,4.25,1.73,2.02,5.39,3.97,10.99,5.54,16.57.47,1.67-.45,2.82-2.22,3.65Z"/>
    <path class="cls-1" d="M158.12,150.62c-5.25-.7-10.37,2.24-14.25,7.43-7.35,11.49-7.37,28.28-7.4,42.18.39,9.4.78,19.12,5.99,26.92,6.16,10.02,19.08,5.89,22.46-4.45,2.43-5.49,2.94-11.58,3.5-17.48,1.13-9.4,1.23-15.96,1-24.16-.42-9.96.51-27.76-11.3-30.45ZM154.49,221.1c-13.5,3.78-11.79-59.97-.22-60.02,9.73,1.95,7.88,53.98.22,60.02Z"/>
    <path class="cls-1" d="M136.26,135.85c1.25,4.48,2.67,8.94,3.34,13.56.14,1.14.63,2.15,1.53,2.9,1.81,1.72,4.57.33,5-2.03.29-1.17.08-2.32-.06-3.44-.14-1.34-.45-2.67-.72-4-.49-2.41.16-4.95,1.87-6.72.79-.82,1.68-1.55,2.52-2.28,1.85-1.46,3.99-2.98,5.03,0,.78,2.42,1.78,5.24,2.53,7.67.92,2.76,5.12,3.05,6.09.03.32-.85.29-1.76.07-2.63-.99-3.8-2.28-7.98-3.57-11.69-1.66-4.78-3.62-9.43-5.75-14-.95-2.31-2.05-5.77-5.84-3.16-4.5,3.3,2.51,8.69,1.94,13.16-.15,2.57-3.71,4.87-5.45,6.09-2.57,1.79-3.51-.28-4.41-2.24-.82-1.46-1.33-2.89-2.45-4.59-.55-.84-1.68-1.13-2.53-.61-1.74,1.07-3.24,3.15-2.6,4.8,1.03,3.1,2.68,5.98,3.46,9.18Z"/>
    <path class="cls-1" d="M108.87,162.86c3.08-2.11,4.55-6.35,6.87-9.26,1.64-2.82,3.81-3.89,5.57-.46,2.6,4.94,4.54,10.2,6.96,15.21,1.39,2.36,4.83,2.64,6.27-.02.91-1.79.46-3.89-.22-5.68-1.76-6.4-5.42-11.98-7.71-18.17-1.55-3.71,1.52-6.51,3.63-9.19.67-.8,1.25-1.75,1.36-2.78,0-.07,0-.13,0-.2.01-.27,0-.54-.05-.82-.32-1.86-2.79-3.12-4.76-1.96-.32.28-.63.58-.94.86-5.44,4.98-10.17,10.81-14.64,16.67,0,0,0,0,0,0-2.53,3.41-4.46,7.16-6.27,10.98-.29.62-.53,1.25-.47,1.9-.22,2.75,2.46,3.85,4.4,2.93Z"/>
    <path class="cls-1" d="M184.65,130.08c2.25-1.3,2.25-5.11-.31-6.05-4.3-1.55-9.8,7.51-13.05,1.66-1.1-2.99-4.16-7.27-.2-9.41,2.3-1.65,8.18-2.74,6.73-6.54-.91-2.27-3.76-1.78-5.51-.84-1.64.76-3.27,1.56-4.9,2.34-.97.46-1.67.27-2.2-.63-.55-1.06-1.44-2.28-.6-3.45,2.08-2.86,8.58-3.29,9.44-6.83.13-.99.04-1.7-.26-2.31-.5-1.03-1.74-1.49-2.81-1.09-.95.35-1.95.81-2.47,1.05-2.78,1.27-5.48,2.7-8.1,4.27-1.9,1.23-5.18,3-3.97,5.73,2.01,4.18,3.88,8.41,5.35,12.82,7.53,17.37,5.66,19.35,17.79,12.3,1.69-.98,3.38-1.98,5.04-3.02Z"/>
  </g>
  <g>
    <path class="cls-1" d="M283.89,306.45c1.93,1.53,3.73,2.99,5.8,4.62,3.07,2.47,6.3,4.74,9.18,7.43,1.45,1.25,2.56,2.96,4.27,3.87,1.07.52,2.8-.28,2.74-1.89-.73-3.02-3.73-4.7-5.95-6.6-3.39-2.56-7.18-5.75-10.74-8.07-1.57-1.03-2.11-1.48-3.44-2.3-1.65-1.28-3.7-.4-3.14,1.4.16.51.83,1.21,1.27,1.55Z"/>
    <path class="cls-1" d="M197.36,303.07c-.69.02-2.02.71-2.57,1.06-2.23,1.46-3.56,2.35-5.56,4.04-3.34,2.37-6.51,4.97-9.72,7.51-1.5,1.3-3.6,2.64-3.7,4.81.01,2.58,2.3,2.38,4.3.68,4.16-3.75,8.86-7.49,13.19-11.39,1.65-1.52,3.42-2.63,5.19-4.08,1.12-.98.51-2.8-1.13-2.64Z"/>
    <path class="cls-1" d="M410.96,241.22c0,35.65-11.06,68.76-29.91,96.11h0s3.24,18.76,3.24,18.76l-8.16-9.7-.92-1.09h0s0-.11,0-.11c-1.67-2.18-3.72-4.79-5.86-7.32-3.2-3.84-6.59-7.66-10.33-11.63l-15.56-49.25c-.03.38-.07.77-.1,1.15-.12,1.68-.15,3.54-.17,5.51-.02,1.56-.04,3.14-.12,4.68l10.06,31.84c-3.46-3.48-7.21-7.12-11.36-11.01-.2-.2-.41-.4-.7-.67-.68-.62-1.36-1.24-2.1-1.9l-1.38-1.19c-.8-.69-1.61-1.39-2.42-2.13l-.13-.11c-1.97-1.68-3.96-3.32-5.95-4.92-5.05-4.05-8-10.17-7.88-16.64.22-11.93.25-23.87-.32-35.8-1.34-9.44-20.8-21.88-30.36-27.21l-.99-5.32c-1.4-.46-2.78-.98-4.13-1.52l.88,4.72c-9.89-4.56-20.46-7.4-31.31-8.56-6.14-.47-6.81-7.01-7.07-12.76-1.57-35.29-1.28-70.63-1.81-105.97-.18-6.44-.35-12.12-.51-17.63,4.69.12,9.34.44,13.93.93l1.59,8.53c1.1-.68,2.31-1.12,3.58-1.42l-1.23-6.64c4.11.54,8.18,1.24,12.19,2.07l1.84,5.81c1.52.5,3.03,1.08,4.51,1.71l-2.08-6.58c34.29,8.04,64.6,26.49,87.42,51.84l14.93-4.98-5.48,16.44c16.77,22.25,28.2,48.75,32.37,77.56l18.75,6.25c-8.12-84.12-72.02-152.15-154.15-166.6l-3.94-12.47h9.38c2.09,0,3.78-1.69,3.78-3.78s-1.69-3.78-3.78-3.78h-34.5c-.14-6.32-.29-13.43-.45-21.72,2.71-1.18,4.61-3.88,4.61-7.03,0-4.24-3.43-7.67-7.67-7.67s-7.67,3.43-7.67,7.67c0,2.97,1.69,5.53,4.15,6.81-.11,6.15-.31,14.43-.49,21.94h-34.01c-2.09,0-3.78,1.69-3.78,3.78s1.69,3.78,3.78,3.78h9.38l-3.94,12.47c-80.73,14.2-143.84,80.18-153.68,162.31L0,241.22h71.48c0-38.24,12.71-73.56,34.13-101.97l-5.48-16.44,14.93,4.98c22.81-25.34,53.13-43.79,87.41-51.83l-2.07,6.55c1.43-.31,2.85-.6,4.24-.86l2.09-6.63c4.02-.83,8.08-1.53,12.19-2.07l-1.26,6.78c1.55-.16,2.87-.26,3.9-.31l1.29-6.94c4.47-.48,8.99-.79,13.55-.92-.58,27.83-1.1,55.69-1.78,83.52-.25,9.54-.71,19.08-.88,28.63-.23,5.24-.6,9.76-1.27,16.04-.22,2.01-.72,3.56-1.63,5.33-2.19,3.51-5.89,2.68-9.41,3.54-8.68,1.38-17.24,3.78-25.25,7.39l3.21-17.25c-.44-1.69-.75-3.44-1.04-5.06l-.16-.91c-.27-1.51-.56-2.72-.85-3.72l-5.39,28.98c-2.45,1.27-4.85,2.66-7.17,4.19-8.26,5.41-16.75,11.13-22.6,19.22-1.82,2.6-1.46,5.75-1.69,8.74-.21,1.91-.26,3.84-.25,5.76.07,8.5-.27,17,.15,25.5,0,.03,0,.07,0,.1.01,6.41-2.77,12.51-7.76,16.52-1.73,1.39-3.32,2.7-4.78,3.92l-.3.27c-1.15,1.13-2.48,2.23-3.9,3.39-.42.35-.84.69-1.27,1.05l-.13.11c-1.38,1.23-2.52,2.27-3.46,3.14l-.29.29c-.12.12-.25.25-.37.38-2.95,2.8-5.76,5.55-8.47,8.28l1.96-6.2c-.53.53-1.06,1.05-1.58,1.58l-.09.09c-.74.7-1.47,1.42-2.21,2.16-.6.6-1.23,1.21-1.87,1.83l-2.09,6.62c-4.4,4.67-8.5,9.29-12.36,13.93-1.49,1.8-2.93,3.63-4.32,5.4l-.32.41s0,0,0,0l-8.72,10.46,2.67-18.8c-14.11-20.77-23.73-44.82-27.48-70.74l-18.75-6.25c8.28,85.76,74.52,154.81,158.97,167.4l27.76,55.66v-53.6c9.12,0,18.08-.67,26.85-1.93,83.46-12.01,149.34-79.16,159.42-163.23l54.95-22.46h-71.48ZM265.89,43.99l3.72,11.79c-3.15-.48-6.33-.88-9.53-1.2l-1.97-10.58h7.77ZM254.28,43.99l1.9,10.23c-3.65-.29-7.32-.49-11.03-.56-.08-3.07-.16-6.26-.24-9.67h9.37ZM222.35,54.56c-3.2.32-6.38.72-9.53,1.2l3.72-11.78h7.77l-1.97,10.58ZM226.26,54.21l1.9-10.23h8.86c-.09,3.59-.16,6.65-.21,8.68,0,.33-.01.66-.02,1-3.54.08-7.05.27-10.54.55ZM170.75,243.93c5.08-4.93,10.73-9.27,16.7-13.07,12.21-7.93,26.43-12.65,40.85-14.37,23.74-3,48.62,2.49,68.45,16.03,2.9,1.86,5.54,4.03,8.21,6.17,3.53,3.04,7.83,5.9,9.08,10.65.52,1.41-.22,2.7-1.87,2.41-1.14-.15-1.95-.83-2.71-1.53-1.92-1.93-4.28-3.37-6.09-5.41-2.21-2.53-5.45-3.71-8.22-5.5-14.85-10.28-33.31-15.94-51.09-17-20.16-.4-40.68,5.57-57.45,16.86-2.52,1.64-5.24,2.97-7.63,4.83-3.82,3.25-5.21,4.82-7.9,7.08-.89.62-1.85.99-2.95.49-2.13-1.16,1.14-6.36,2.62-7.66ZM313.93,282.5s0,.02,0,.03c-.3,1.81-2.35,2.74-3.88,1.72-7.06-4.72-14.01-8.92-20.59-12.62-2.83-1.59-4.57-4.59-4.58-7.83,0-2.14,0-4.27.03-6.36,0-4.08,0-8.16,0-12.24-.2-3.05,3.62-3.57,5.61-2.08,8.95,6.08,19.2,12.2,23,22.95,1.35,5.35.35,10.98.41,16.43ZM278.65,257.7c-.12.89,0,2.34.11,3.94.12,1.94-1.91,3.27-3.64,2.41-10.78-5.37-19.72-9.08-25.3-11.25-3.52-1.36-5.81-4.78-5.75-8.55.01-.84.03-1.68.05-2.52.25-3.67-.28-7.58,1.53-10.95,1.99-3.48,6.4-2.1,9.58-1.57,5.73,1.2,11.27,3.15,16.91,4.74,4.29,1.33,7.41,3.91,6.52,8.78-.13,4.96-.11,9.98,0,14.95ZM203.96,241.09c.24-3.22,2.43-6.34,5.64-7.15,6.91-2.41,13.96-4.52,21.25-5.41,2.81-.71,6.72.15,6.68,3.68l-.15,12.17c-.05,3.79-2.42,7.18-5.98,8.45-8.42,3.01-16.49,6.49-24.11,10.23-1.67.82-3.62-.41-3.61-2.26,0-.97.02-1.92.06-2.84-.03-5.62,0-11.25.22-16.87ZM168.33,265.47c4.57-11.03,15.24-17.96,25.17-23.78,1.52-.92,3.99-.04,3.92,1.94-.06,3.94.06,8.05-.06,11.9l-.02,7.38c0,3.25-1.77,6.23-4.59,7.83-7.68,4.37-14.75,8.86-21.1,13.21-1.64,1.12-3.87,0-3.94-1.99-.03-1.07-.04-1.99-.08-2.59.14-4.62-.93-9.45.68-13.9ZM238.28,311.25c-.55,31.21-1.86,62.43-4.26,93.56-.14,1.69-.32,3.38-.48,5.07-.07.76-.18.9-.95.85-1.74-.09-3.47-.2-5.21-.33-30.12-2.44-58.05-12.78-81.7-28.95,4.65-7.72,9.8-15.03,15.97-21.61,17.16-19.1,36.42-36.56,58.2-50.17,4.58-2.74,9.29-5.39,14.29-7.3,5.42-1.41,4.13,5.73,4.14,8.89ZM277.69,407c-5.45,1.2-11,2.13-16.63,2.79-3.8.38-7.61.67-11.41.93-.38.04-.71-.01-.74-.52-.16-1.71-.29-3.42-.44-5.13-2.05-24.18-2.63-48.49-3.53-72.75-.23-5.97-.44-11.93-.69-17.89-.09-2.53-.14-5.06-.27-7.59-.27-1.98.4-4.48,2.85-4.24,2.38-.05,4.35,1.19,6.34,2.32,3.91,1.97,7.71,4.12,11.38,6.52,4.62,2.93,9.22,5.89,13.43,9.42,15.8,12.19,30.65,25.6,43.63,40.83,5.69,6.1,10.3,13.01,14.58,20.16-17.46,11.83-37.24,20.48-58.49,25.16ZM371.21,351.13c-2.7,2.93-5.35,5.92-8.13,8.76-.09-.12-.19-.23-.28-.35-4.36-5.48-8.85-10.75-14.02-15.49-11.88-13.62-24.19-26.95-38.24-38.34-8.82-6.93-18.64-12.5-27.82-18.89-1.91-.74-8.48-4.81-9.95-2.82-.37.63-.21,1.35.46,2.03,2.99,2.15,5.92,4.43,9.13,6.29,13.44,7.42,24.52,18.26,36.44,27.84,15.63,12.22,27.14,28.65,38.69,44.6,0,0,0,0,0,0,.13.2.3.37.04.6-1.41,1.26-2.83,2.51-4.24,3.78-.27.24-.46.26-.67.03-.03-.03-.06-.05-.08-.09-3.64-5.31-7.55-10.41-11.97-15.08-4.78-5.57-10.63-10.12-15.28-15.83-3.57-4.02-7.14-8.06-11.34-11.39-.82-.67-2.04-.86-2.76.02-1.38,1.49.58,3.32,1.68,4.33,3.65,3.6,7.15,7.32,10.83,10.89,8.01,9.02,14.28,19.43,22.12,28.61.73.8,1.24,1.73,1.71,2.69.02.03.02.06.04.09.07.2.06.38-.14.54-1.65,1.27-3.3,2.56-4.97,3.81-.36.27-.51.31-.7.14-.07-.07-.15-.16-.25-.3-1.85-2.6-3.68-5.22-5.56-7.81-5.13-6.84-10.52-13.5-16.08-19.99-7-7.82-15.03-14.47-23.07-21.17-7.31-6.38-14.41-13.16-22.64-18.36-8.76-5.72-18.1-10.58-26.98-16.07-3.9-2.91-4.12-7.47-4.12-11.92,0-4.73-.12-10.35-.12-13.84s-.62-6.78-1.7-6.78c-1.69,0-1.85,5.35-1.91,6.95-.13,3.19-.09,10.12-.09,13.03,0,5.82-.78,11.24-5.87,13.65-8.13,3.9-15.79,8.73-23.46,13.47-10.82,6.41-19.75,15.37-29.37,23.36-7.24,6.4-14.74,12.51-20.81,20.11-7.04,8.02-13.38,16.6-19.55,25.3-.03.05-.07.1-.11.15-.23.32-.46.4-.78.16-.63-.47-1.26-.94-1.89-1.42-1.03-.79-2.05-1.61-3.09-2.38-.32-.24-.39-.47-.19-.8.06-.1.13-.19.19-.29,2.77-4.42,6.45-8.27,9.5-12.53,4.34-5.91,8.47-11.98,13.3-17.5,3.52-3.8,7.26-7.36,10.84-11.08,1.21-1.15,4.15-3.34,2.4-5.14-.78-.86-1.96-.53-2.77.11-3.98,3.3-7.6,7.01-10.92,10.98-5.42,6.51-12.17,11.7-17.42,18.35-3.78,3.82-6.82,8.21-9.95,12.54-.13.17-.25.35-.38.52-.09.07-.29.1-.39.05-1.58-1.1-2.87-2.59-4.35-3.83-.25-.23-.27-.39-.06-.69.11-.16.22-.31.34-.47,8.46-11.74,16.96-23.53,26.93-34.02,4.39-4.07,8.93-7.99,13.47-11.9,8.4-6.64,16.37-13.83,24.95-20.23,3.93-2.85,8.32-4.91,12.35-7.63,1.66-1.12,3.23-2.37,4.87-3.53.78-.43,1.53-1.03,1.91-1.85.69-4.01-6.62.2-8.23.79-3.64,1.59-6.66,4.17-9.88,6.43-5.73,3.6-11.52,7.11-16.95,11.17-14.36,11.1-26.86,24.44-38.81,38.05-5.44,5.73-11.17,11.13-15.81,17.57-.12.16-.24.31-.35.48-.24.31-.39.33-.64.06-2.59-2.87-5.23-5.7-7.85-8.55-.46-.51-.44-.57-.02-1.11.1-.13.21-.26.31-.39,1.8-2.28,3.59-4.58,5.44-6.81,8.18-9.84,17.06-19.07,26.33-27.86.17-.18.35-.36.53-.54.87-.8,1.97-1.82,3.31-3,1.87-1.56,3.81-3.08,5.52-4.76,16.18-13.56,48.71-37.69,88.27-50.3.51-.16,1.05-.16,1.57,0,.51.16,48.14,16.21,89.41,51.45,1.27,1.16,2.6,2.28,3.88,3.39.66.59,1.33,1.19,1.99,1.8.19.18.38.36.56.54,9.52,8.94,18.76,18.19,27.13,28.24,2.27,2.68,4.42,5.44,6.55,8.23.04.05.06.08.09.13.31.42.3.52-.09.98Z"/>
    <path class="cls-1" d="M152.26,234.85l-2.31,7.3c.86,1.75,1.6,3.61,2.22,5.54l4.67-14.79c-1.43.9-2.97,1.56-4.58,1.95Z"/>
    <path class="cls-1" d="M188.84,131.64l9.53-30.15c-.19-.26-.39-.45-.6-.54-.1-.04-.2-.1-.3-.16-.65-.4-1.63-.42-2.78-.22l-9.56,30.27c.18-.02.36-.05.54-.05.04,0,.08,0,.12,0,1.03,0,2.05.3,3.06.85Z"/>
    <path class="cls-1" d="M207.04,136.88l-3.64,19.55c.9,2.53,1.73,5.03,2.47,7.41l3.04-16.37c-.58-3.51-1.2-7.04-1.88-10.6Z"/>
    <path class="cls-1" d="M218.67,95.06c-1.77.23-3.35.61-3.92,1.4-.57.8-.35,2.35-.06,3.51.63,2.19,1.23,4.43,1.82,6.7l2.16-11.61Z"/>
    <path class="cls-1" d="M299.84,138.87c-1.26,1.5-2.28,2.77-2.82,3.61l.5,1.58c.32.27.68.57,1.03.85.92.75,2.08,1.7,3.42,2.95-.74-1.29-1.09-2.72-1.02-4.28.01-.29.06-.58.11-.88l-1.21-3.84Z"/>
    <path class="cls-1" d="M326,234.2l4.76,15.06c.55-2.39,1.11-4.79,1.69-7.19l-3-9.49c-.82.63-1.73,1.14-2.74,1.45-.24.07-.48.12-.72.17Z"/>
    <path class="cls-1" d="M319.56,213.81c.08-.36.15-.71.19-1.04.01-.08.03-.17.05-.25.5-1.97.97-3.96,1.43-5.96l-2.96-9.38c-.42,2.41-1.05,4.63-1.87,6.62l3.16,10.01Z"/>
  </g>
</svg>