<?xml version="1.0" encoding="UTF-8"?>
<svg id="Logo" xmlns="http://www.w3.org/2000/svg" viewBox="0 0 619.17 289.74">
  <defs>
    <style>
      .cls-1 {
        fill: #1c355e;
      }
    </style>
  </defs>
  <path class="cls-1" d="M349.92,228.64c-.28-.02-.57,0-.85-.04-2.77-.4-4.01.62-4.02,3.42-.02,8.98,0,17.97,0,26.95s0,18.25,0,27.38c0,.97-.23,2.3.9,2.58,2.48.62,5.04,1.06,7.57.14.57-.21.91-.61.88-1.29-.11-2.52.84-4.99.38-7.54-.16-.89-.42-1.81-.36-2.7.27-3.54.04-7.09.31-10.64.34-4.41-.22-8.87-.2-13.29.02-4.31.13-8.65.2-12.98.03-2-.21-3.96.1-6.02.69-4.46-.54-5.69-4.91-5.97Z"/>
  <path class="cls-1" d="M442.73,279.8c-.06-.31-.13-.62-.19-.93,0,0-.02,0-.03,0-.12-.48-.24-.97-.35-1.45-.76-3.32-1.2-6.75-2.36-9.92-.91-2.5-.88-5.13-1.89-7.62-1.04-2.59-.97-5.61-1.92-8.25-.99-2.77-.98-5.69-1.94-8.45-.1-.28-.36-1.26-.41-1.46-.81-3.75-1.89-7.46-2.86-11.18-.23-.86-.53-2.11-1.8-1.95-1.16.14-2.27-.25-3.35-.13-1.49.16-3.51-.47-4.34,1.04-.98,1.77-1.58,3.87-1.84,5.89-.34,2.69-1.01,5.29-1.87,7.79-.96,2.76-.95,5.69-1.94,8.45-.95,2.64-.87,5.67-1.92,8.25-1.01,2.49-.97,5.12-1.89,7.62-1.16,3.17-1.6,6.61-2.36,9.92-.73,3.19-1.72,6.33-2.02,9.61-.12,1.28.12,1.92,1.64,2.33,1.45.38,2.6-.32,3.92-.27,3.02.11,3.16-.11,3.83-3.18.55-2.52,1.25-3.01,3.89-3.14,3.3-.17,6.6.34,9.92-.21,1.5-.25,3.12.31,3.57,2.22.95,4.11,2.68,5.44,6.72,4.75,1.32-.22,3.31-.23,3.26-2.45,0-.1-.16-1.13-.19-1.32-.29-2.02-.78-3.99-1.28-5.96ZM427.96,273.01c-1.67-.11-3.37.1-5.06.24-1.62.13-2.42-.51-2.28-2.18.19-2.87,1.49-5.47,2.02-8.26.65-3.39,1.56-6.74,2.28-10.12.14-.65.16-1.48.83-1.51.93-.04.55.93.68,1.47,1.4,5.67,2.72,11.36,4.21,17.01.86,3.25.63,3.58-2.68,3.36Z"/>
  <path class="cls-1" d="M304.35,279.8c-.06-.31-.13-.62-.19-.93,0,0-.02,0-.03,0-.12-.48-.24-.97-.35-1.45-.76-3.32-1.2-6.75-2.36-9.92-.91-2.5-.88-5.13-1.89-7.62-1.04-2.59-.97-5.61-1.92-8.25-.99-2.77-.98-5.69-1.94-8.45-.1-.28-.36-1.26-.41-1.46-.81-3.75-1.89-7.46-2.86-11.18-.23-.86-.53-2.11-1.8-1.95-1.16.14-2.27-.25-3.35-.13-1.49.16-3.51-.47-4.34,1.04-.98,1.77-1.58,3.87-1.84,5.89-.34,2.69-1.01,5.29-1.87,7.79-.96,2.76-.95,5.69-1.94,8.45-.95,2.64-.87,5.67-1.92,8.25-1.01,2.49-.97,5.12-1.89,7.62-1.16,3.17-1.6,6.61-2.36,9.92-.73,3.19-1.72,6.33-2.02,9.61-.12,1.28.12,1.92,1.64,2.33,1.45.38,2.6-.32,3.91-.27,3.02.11,3.16-.11,3.83-3.18.55-2.52,1.25-3.01,3.89-3.14,3.3-.17,6.6.34,9.92-.21,1.5-.25,3.12.31,3.57,2.22.95,4.11,2.68,5.44,6.72,4.75,1.32-.22,3.31-.23,3.26-2.45,0-.1-.16-1.13-.19-1.32-.29-2.02-.78-3.99-1.28-5.96ZM289.58,273.01c-1.67-.11-3.37.1-5.06.24-1.62.13-2.42-.51-2.28-2.18.19-2.87,1.49-5.47,2.02-8.26.65-3.39,1.56-6.74,2.28-10.12.14-.65.16-1.48.83-1.51.93-.04.55.93.68,1.47,1.4,5.67,2.72,11.36,4.21,17.01.86,3.25.63,3.58-2.68,3.36Z"/>
  <path class="cls-1" d="M397.66,259.86c0-2.99,0-5.99,0-8.98-.07-5.91.1-11.82-.08-17.72,0-.61,0-1.23-.01-1.84,0-.87.22-2.08-.92-2.36-2.51-.61-5.07-.71-7.64-.25-.64.11-.73.39-.84.95-.38,1.81-.2,3.59-.15,5.41.18,7.1.17,14.21-.02,21.3-.03,1.08.2,2.5-.66,3.66-1.37-1.42-1.36-3.24-2-4.79-1.27-3.08-2.63-6.1-3.72-9.26-.49-1.41-.82-2.94-1.65-4.26-1.61-2.55-2.08-5.56-3.26-8.29-.68-1.56-.79-3.79-2.49-4.38-2.3-.8-4.86-.79-7.33-.46-1.15.15-1.66.87-1.63,2.07.03.95,0,1.9-.01,2.84-.02.61-.29,6.78-.18,7.77-.11.99-.14,10.54,0,14.12,0,3.95,0,7.9,0,11.85.08,6.49-.16,12.97.12,19.46-.15,1.67.58,2.65,2.26,2.83,2.02.21,4.04.45,6.02-.29.61-.23,1.25-.42,1.17-1.24-.19-2.12.39-4.2.4-6.29,0-3.89-.23-7.78-.01-11.67.08-1.53.59-3.23.1-4.55-.96-2.61.07-4.88.3-7.54.82.63,1.03,1.3,1.26,1.93.69,1.86,1.27,3.77,2.01,5.61,1.84,4.57,3.85,9.09,5.57,13.71.41,1.12,1.16,2.06,1.39,3.25,1.16,6.03,2.07,6.78,8.04,6.81.57,0,1.14-.07,1.7.02,1.28.19,1.81-.54,2.02-1.61.13-.69.16-4.05.16-5.02.06-1.61.13-3.79.13-5,0-.36.02-1.55.03-2.35.04-2.07.05-5.71.02-8.74-.01-1.5-.08-5.71-.08-6.67Z"/>
  <path class="cls-1" d="M331.74,228.55c-4.36.87-8.77.14-13.16.44-3.4.23-6.9.03-10.36.13-2.01.06-2.56,1.4-2.65,2.81-.38,6.04.33,6.71,6.28,6.63,3.11-.04,3.63.46,3.63,3.6,0,7.21,0,14.42,0,21.63,0,7.34,0,14.68,0,22.01,0,1.54.18,3.23,1.96,3.48,1.98.28,4.06.68,6.01-.04,1.63-.33,1.81-1.95,1.81-3.44,0-7.34.07-39.42-.23-44.21-.11-1.69,1.37-3.2,3.06-3.14,1.62.06,3.25.12,4.87.05,1.22-.05,2.03-.48,2.12-2.03.11-1.75.35-3.45,0-5.23-.39-1.94-1.42-3.06-3.32-2.68Z"/>
  <path class="cls-1" d="M256.46,279.64c-1.56.01-2.22.04-3.62.05-.14,0-.64,0-.74-.01-.96-.03-1.93,0-2.89.16-1.68.29-3.25-1.11-2.99-2.73,0-.06.01-.11.02-.17.13-.58.35-3.15.35-3.56,0-4.94,0-9.89,0-14.83,0-9.05-.04-18.09.03-27.14.02-1.82-.57-2.89-2.41-2.88-.07,0-.67.01-.74.01-1.42.05-2.85.23-4.29.23-1.84,0-2.43,1.06-2.41,2.88.07,9.05.03,18.09.03,27.14,0,8.98-.01,17.95,0,26.93,0,2.97.67,3.61,3.59,3.62,2.6,0,5.23-.22,7.81-.08.79.04,2.88.32,3.15.33,2.17.15,4.19-.46,6.29-.31.49.03.99-.36,1.13-.83.37-1.25.47-2.51.44-3.77.04-.5.1-1.38.12-1.88,0-.07.01-.67.01-.74,0-1.84-1.06-2.43-2.88-2.41Z"/>
  <path class="cls-1" d="M365.03,118.98c1.2.51,2.45.76,3.68.78,3.82.05,7.48-2.17,9.07-5.91,2.11-4.94-.19-10.65-5.13-12.76-4.94-2.1-10.65.19-12.75,5.13-.61,1.43-.85,2.92-.76,4.38.21,3.57,2.39,6.88,5.9,8.38Z"/>
  <path class="cls-1" d="M619.08,106.1c-.75-15.39-5.66-30.45-13.47-43.8-.71-1.22-1.45-2.42-2.2-3.6-7.78-12.22-17.7-22.65-29.06-31.18-.44-.33-6.25-4.55-10.23-6.86-3.52-2.05-9.4-5.31-10.62-5.91-13.83-6.81-28.88-11.31-44.27-13.35-16.83-2.22-33.94-1.71-50.71.76-17.1,2.53-33.88,7.06-50.11,12.99-18.5,6.77-36.26,15.39-53.72,24.49-11.86,6.18-23.6,12.59-35.44,18.8.04.02.07.03.09.04-.04,0-.08-.02-.12-.03-.33.17-.66.35-1,.52-45.58,24.88-80.14,31.46-93.35,35.37-1.3.39-4.89,1.33-6.79,2.75-.58.44-.91,1.08-.77,1.77.1.49.45.89.82,1.23,2.11,1.96,5.03,2.26,7.79,2.28.54,0,1.08,0,1.62-.02,5.34-.2,10.57-1.57,15.78-2.65,9.21-1.91,18.31-3.86,27.32-6.61,29.48-8.98,56.48-23.74,85.01-35.53,29.56-12.21,60.13-22.42,91.79-27.51,27.9-4.48,57.01-4.87,83.89,3.88,1.78.58,3.54,1.2,5.29,1.87.44.17,4.1,1.64,4.53,1.83,22.88,9.8,42.86,27.04,52.64,49.8,13.24,30.83,2.99,63.99-20,86.88-1.19,1.19-2.4,2.35-3.64,3.5-5.05,4.68-10.5,8.95-16.41,12.48-7.33,4.38-15.54,7.67-24.13,8.18-7.37.44-15.98-.99-21.45-6.39-1.81-1.79-3.01-4.05-2.98-6.47-.02-1.05.35-2.3,1.13-3.76.37-.81,1.27-2.59,2.72-5.33,1.45-2.75,3.15-6,5.12-9.75,1.96-3.75,4.05-7.74,6.27-11.95,2.21-4.22,4.34-8.24,6.38-12.06,2.04-3.81,3.82-7.19,5.36-10.14,1.54-2.94,2.58-5.03,3.12-6.25l-20.05-2.87c-.28.25-.57.75-.87,1.5-.29.75-.69,1.59-1.2,2.53-1.86-4.3-5.17-6.79-9.91-7.47-8.21-1.17-16.6.94-25.15,6.34-.18.12-1.57,1.04-1.84,1.23-.21.15-1.68,1.21-1.95,1.42-7.27,5.65-14.01,14.16-20.22,25.55-.2.37-.96,1.77-1.13,2.1-.26.5-1.16,2.28-1.34,2.65-1.15,2.38-2.13,4.73-2.92,7.04-.18.51-.77,2.58-.91,3.1-.4.71-.82,1.39-1.25,2.03-.55.81-1.76,2.31-2.41,3.03-1.48,1.67-2.93,3.12-7.49,4.87-.54.21-1.09.3-1.61.37-2.17.3-3.84-.15-4.99-1.36-1.17-1.21-1.18-3.14-.04-5.79.57-1.25,1.46-3.34,2.68-6.27,1.21-2.93,2.54-6.06,3.96-9.41,1.43-3.34,2.78-6.59,4.07-9.73,1.29-3.14,2.3-5.62,3.02-7.43,3.71-8.78,4.53-15.52,2.47-20.21-2.07-4.69-6.1-7.21-12.1-7.56-3.56-.21-7.16.47-10.82,2.05-3.66,1.57-7.05,3.84-10.17,6.8-.47-6.74-4.87-10.36-13.2-10.84-1.23-.07-2.43-.07-3.6,0-1.17.08-2.26.22-3.25.45-1.12.22-2.18.45-3.18.67l-1.06,4.06-1.31,5.01c.15,0,.3.02.44.03,2.56.24,4.13,1.22,4.73,2.95.63,1.82.32,4.13-.96,6.91l-15.21,36.19c-.37.88-.69,1.71-1.01,2.55-1.08,1.66-2.27,3.08-3.6,4.24-1.81,1.58-3.54,2.71-5.19,3.4-.58.24-1.16.43-1.72.56-2.15.5-3.84.18-5.06-.96-1.23-1.14-1.35-3.14-.37-6,1.6-4.56,3.13-8.98,4.61-13.26,1.35-3.71,2.67-7.42,3.96-11.13,1.29-3.7,2.31-6.63,3.04-8.77,1.54-3.75,3.83-8.23,1.67-10.24-.71-.66-2.83-1.25-5.43-1.51-4.81-.48-11.25.15-13.38,3.49-.24.37-.42.77-.54,1.2-.5,1.27-1.18,3.16-2.04,5.65-.2.58-.41,1.19-.63,1.84-1.17,3.42-2.43,7.06-3.78,10.91-1.36,3.85-2.67,7.52-3.96,11.02-1.29,3.5-2.24,6.1-2.86,7.81-.07.19-.12.36-.18.54-1.17,2.26-2.54,4.16-4.13,5.67-1.16,1.09-3.22,2.62-5.45,3.87-2.37,1.34-4.93,2.38-6.81,2.28-6.21-.33-6.35-5.65-5.42-8.54l17.39-55.85,3.12-10.02,4.81-.19,5.54-.22,4.73-11.1-11.82.46,3.61-11.48-21.9,5.77-1.96,6.5-19.94.7-4.3,10.09-.43,1.01,21.23-.75-19.25,61.37c-1.15,3.02-2.47,6.09-4.06,8.23-1.61,2.16-3.2,3.33-5.33,3.29-.29,0-.59-.05-.87-.14-.59-.18-1.12-.54-1.42-1.06-.63-1.09-.67-2.7-.12-4.81.37-1.33.93-3.53,1.69-6.61.75-3.08,1.58-6.38,2.48-9.91.9-3.52,1.75-6.93,2.55-10.23.79-3.3,1.41-5.9,1.85-7.8,2.33-9.24,2.12-16.03-.63-20.35-.27-.42-.56-.82-.86-1.2-1.44-1.8-3.23-3.06-5.37-3.79-1.99-.68-4.29-.89-6.88-.65-3.55.34-7.01,1.56-10.38,3.68-3.38,2.11-6.38,4.87-9.02,8.27-1.49-6.59-6.39-9.49-14.7-8.7-1.22.11-2.41.3-3.55.55-1.15.25-2.2.57-3.15.94-1.07.39-2.09.77-3.04,1.15l-2.34,7.94-.46,1.56,1.83-.17c2.81-.27,4.67.45,5.57,2.16.9,1.71.94,4.03.11,6.97l-9.53,38.08c-.13.52-.23,1.01-.35,1.52-.83,2.03-1.84,3.83-3.08,5.33-2.11,2.54-4.16,4.2-6.14,4.99-.25.1-.49.19-.73.26-1.67.5-3.12.35-4.35-.45-1.41-.91-1.86-2.78-1.36-5.62.1-.89.4-2.86.93-5.92.52-3.06,1.13-6.68,1.84-10.86.7-4.17,1.45-8.62,2.24-13.31.8-4.7,1.57-9.18,2.32-13.44.75-4.26,1.4-8.03,1.94-11.31.54-3.27.89-5.58,1.03-6.91l-19.96,3.5c-.2.32-.31.89-.36,1.69-.05.8-.17,1.73-.35,2.78-3.11-3.5-7.03-4.85-11.74-4.02-8.34,1.47-15.8,6.25-22.36,14.35-.6.75-1.19,1.53-1.77,2.34-5.63,7.95-9.66,18.84-12.1,32.68-1.17,6.14-1.51,11.81-1.04,17.01.48,5.2,1.59,9.6,3.35,13.2,1.75,3.6,4.12,6.26,7.1,7.98,2.99,1.72,6.53,2.22,10.64,1.5,3.02-.53,6.01-1.92,8.99-4.17.04-.04.09-.07.14-.1.2-.15.4-.31.6-.47,3.22-2.6,6.29-5.88,9.21-9.87,1.24,3.55,3.21,6.03,5.89,7.44,2.68,1.41,5.89,1.79,9.65,1.13,2.9-.51,5.72-1.66,8.46-3.44,2.74-1.78,5.23-3.96,7.46-6.52.9-1.04,1.74-2.15,2.54-3.3.25,1.07.57,2.06,1.01,2.91,2.19,4.23,6.77,6.01,13.74,5.36.81-.08,1.59-.17,2.32-.28,1.68-.25,3.15-.59,4.4-1,1.07-.39,2.08-.77,3.04-1.14l.2-.68,2.6-8.83-1.83.18c-.41.04-.8.06-1.18.05-2.16,0-3.62-.71-4.38-2.1-.89-1.63-1-3.99-.3-7.07.26-1.17.82-3.37,1.69-6.6.86-3.23,1.76-6.79,2.69-10.68.93-3.88,1.89-7.74,2.88-11.55.99-3.82,1.75-6.9,2.27-9.24.06-.27.13-.54.18-.81.1-.46.18-.92.26-1.38.12-.72.26-1.45.44-2.19,1.63-2.31,3.41-4.01,5.34-5.13,1.93-1.11,3.63-1.7,5.1-1.77,1.47-.06,2.6.47,3.39,1.61.79,1.14.92,2.81.38,5.01l-8.77,34.35c-1.18,4.56-1.66,8.54-1.46,11.96.2,3.42.96,6.22,2.27,8.38,1.32,2.17,3.09,3.72,5.34,4.65,2.25.93,4.83,1.26,7.77.98,2.94-.28,5.84-1.2,8.71-2.76,2.87-1.56,5.52-3.54,7.95-5.91,1.4-1.38,2.7-2.89,3.92-4.52.29,1.71.76,3.24,1.45,4.54,1.2,2.24,2.88,3.89,5.07,4.94,2.19,1.06,4.76,1.53,7.71,1.42,2.94-.11,5.89-.87,8.85-2.26,2.95-1.4,5.71-3.22,8.27-5.46,1.51-1.32,2.91-2.8,4.24-4.38.22,1.58.63,3.01,1.27,4.26,2.33,4.57,6.5,6.85,12.52,6.85,2.95,0,5.92-.64,8.93-1.92,3.01-1.28,5.83-2.99,8.48-5.13,1.25-1.01,2.44-2.12,3.58-3.31.09,1.08.26,2.09.55,2.98,1.52,4.52,5.77,6.99,12.76,7.39.24.01.47.03.7.04,2.39.1,4.44.01,6.14-.28,1.12-.22,2.18-.44,3.18-.67l1.97-4.19,2.25-4.78-1.16-.06-.69-.04c-2.82-.17-4.54-1.12-5.18-2.87-.63-1.75-.37-4.09.78-7.03.43-1.11,1.32-3.2,2.67-6.27,1.35-3.07,2.77-6.45,4.28-10.14,1.51-3.7,3.04-7.36,4.61-10.98,1.28-2.98,2.34-5.49,3.15-7.53.18-.44.34-.86.5-1.26.29-.7.54-1.39.77-2.1.23-.7.48-1.4.77-2.1,1.97-2.03,3.98-3.44,6.06-4.25,2.07-.81,3.85-1.13,5.31-.98,1.47.16,2.5.86,3.1,2.11.6,1.25.48,2.92-.38,5.01l-13.9,32.62c-1.85,4.32-2.94,8.18-3.26,11.59-.32,3.41,0,6.29.97,8.62.97,2.34,2.5,4.15,4.58,5.41,2.08,1.27,4.59,1.99,7.53,2.16,2.94.17,5.95-.3,9.03-1.4,3.08-1.11,6-2.65,8.76-4.63,2.76-1.98,5.3-4.37,7.61-7.16.07-.08.14-.18.21-.27.04.79.09,1.58.19,2.33.55,3.97,1.97,7.24,4.27,9.8,2.3,2.56,5.52,4.14,9.65,4.73,3.28.47,6.85-.03,10.72-1.49,3.85-1.46,7.77-3.62,11.76-6.48.12,4.95,2.01,9.9,6.08,12.9,3.76,2.77,8.44,3.96,13.01,4.51,10.28,1.23,21.12.44,31.23-1.69,14.7-3.09,28.56-9.39,40.82-18.01.72-.5,2.8-1.92,3.97-2.71,8.2-5.49,41.01-30.28,41.35-75.68,0-.78-.06-4.08-.1-4.95ZM197.85,181.02c-.41,1.95-.63,3.87-.67,5.77-1.98,2.95-4.05,5.34-6.22,7.17-1.21,1.02-2.41,1.81-3.59,2.38-.93.44-1.85.75-2.76.91-2.06.37-3.67-.15-4.85-1.54-1.18-1.39-1.94-3.43-2.29-6.12-.35-2.69-.32-5.92.08-9.68.4-3.77,1.15-7.84,2.25-12.23,1.33-5.88,2.7-10.9,4.09-15.05,1.04-3.09,2.13-5.77,3.27-8.04.39-.78.79-1.51,1.2-2.19,1.59-2.67,3.29-4.7,5.1-6.11.53-.41,1.08-.78,1.65-1.1.79-.45,1.61-.81,2.47-1.1.66-.22,1.33-.39,2.04-.51,2.42-.42,4.35.25,5.78,2.03l-7.56,45.41ZM487.6,176.17c-.99,1.74-1.8,3.49-2.43,5.27-2.43,1.91-4.8,3.38-7.1,4.44-.35.16-.69.31-1.04.45-2.63,1.06-4.99,1.44-7.05,1.15-2.07-.3-3.45-1.28-4.14-2.97-.69-1.68-.78-3.86-.27-6.52.5-2.66,1.53-5.72,3.08-9.18,1.55-3.45,3.53-7.09,5.94-10.93,3.06-5.12,5.89-9.43,8.49-12.93.03-.04.05-.07.08-.11,2.61-3.52,5.09-6.3,7.43-8.34,2.33-2.04,4.59-3.45,6.74-4.22.33-.12.66-.22,1-.31,1.85-.51,3.75-.63,5.7-.35,1.96.28,3.4,1.14,4.3,2.59.22.34.4.72.56,1.13l-21.29,40.82Z"/>
  <path class="cls-1" d="M169.07,227.86c-6-.8-12.33,1.65-16.22,6.3-1.27,1.51-2.21,3.3-2.8,5.21-1.15,3.72-.98,7.88.7,11.17.84,1.66,2.06,3.09,3.68,4.15,1.84,1.2,4.74,1.59,5.88-.29.87-1.46.12-3.29-.39-4.9-.29-.93-.49-1.89-.58-2.87-.21-2.27.17-4.59,1.33-6.54.3-.51.66-.98,1.07-1.41,1.83-1.94,4.58-3.03,7.15-2.41,4.28,1.03,6.43,6.3,5.39,10.57-.19.79-.46,1.54-.79,2.26-1.49,3.21-4.25,5.81-7.13,7.94-.76.56-1.55,1.08-2.37,1.57-3.91,2.3-8.47,3.71-13.12,4.21-2.94.31-5.91.26-8.77-.16-1.22-.18-2.42-.43-3.59-.74-7.77-2.08-12.77-6.29-17.19-13.02-1.23-1.87-3.85-6.9-4.59-9.04-3.96-11.34-15.54-51.19-4.16-102.83.31-1.41,1.36-5.7,1.59-6.57.24-.89,1.01-3.69,1.18-4.27,1.67-5.79,3.58-11.52,5.72-17.18,1.15-3.05,2.37-6.07,3.66-9.07.42-.98.85-1.96,1.28-2.94,8.63,3.1,17.56,6.06,26.58,7.73,8.54,1.58,17.17,2.01,25.69.3,8.03-1.61,15.85-5.24,22.4-10.39,4.68-3.68,8.72-8.14,11.73-13.2,7.03-11.83,8.01-28.42-2.5-38.62-3.8-3.69-8.97-6.32-15.5-7.32-13.21-2.02-26.35,3.13-37.95,8.95-1.86.93-3.69,1.91-5.5,2.93-.9.51-3.75,2.13-4.64,2.71-6.22,4.04-23.46,17.34-36.53,33.52-21.9-5.59-40.52-4.75-41.5-4.75-6.52.01-13.65.95-20.08,2.04-7.15,1.21-14.22,3.2-20.77,6.33-6.24,2.99-11.99,7.06-16.53,12.31-1.06,1.22-2.04,2.5-2.94,3.83-3.22,4.72-5.47,10.05-6.77,15.64-.29,1.23-.42,2.51-.73,3.73-2.1,13.08,3.5,26.74,9.38,38.25,1.52,2.97,3.18,5.91,4.97,8.79,10.63,17.09,25.92,32.08,44.49,39.78,1,.42,2.08.81,3.14.58,4.03-.89,1.77-4.15-1.81-7.44-3.8-3.49-13.7-10.57-17.58-15.02-5.99-6.86-9.51-12.21-17.25-25.67-4.11-7.15-6.39-15.34-7.29-23.54-1.08-9.8,1.4-18.57,6.28-25.8,6.14-9.09,16.07-15.74,27.5-18.91,6.46-1.79,13.83-2.91,21.33-3.23,8.82-.38,17.82.35,25.72,2.4,1.06.27,2.1.57,3.11.89-20.97,36.15-31.37,76.58-25.75,118.49,2.42,18.07,8.2,36.7,21.65,49.02,14.6,13.38,36.73,18.17,56.14,14.25,6.11-1.24,12.02-3.81,17.13-7.45,2.21-1.57,4.26-3.35,6.12-5.29,6.16-6.47,9.11-16.53,5.37-24.64-2.53-5.49-8-9.53-13.99-10.33ZM169.62,51.48c6.49-3.43,13.84-4.89,21.14-4.12.63.07,1.26.15,1.89.26,2.01.33,3.71,1.11,5.31,2.37.97.77,1.78,2.01,2.38,3.4.77,1.76,1.21,3.76,1.25,5.32.17,6.03-1.71,11.55-4.19,16.93-2.45,5.3-6.46,9.99-11.42,13.27-1.21.8-2.47,1.52-3.78,2.14-3.5,1.66-7.48,2.55-11.59,2.96-8.21.83-17.65.6-26.1-1.21h0c-1.66-.41-9.5-2.57-11.05-3.02-1.18-.34-2.38-.68-3.6-1.03,17.78-22.98,31.02-32.64,39.76-37.27Z"/>
</svg>