<?xml version="1.0" encoding="UTF-8"?>
<svg id="Layer_1" xmlns="http://www.w3.org/2000/svg" version="1.1" viewBox="0 0 879.11 879.11">
  <!-- Generator: Adobe Illustrator 30.2.1, SVG Export Plug-In . SVG Version: 2.1.1 Build 1)  -->
  <defs>
    <style>
      .st0 {
        fill: #dea570;
      }

      .st1 {
        fill: #c36228;
      }

      .st2 {
        fill: #75341c;
      }
    </style>
  </defs>
  <circle class="st1" cx="439.56" cy="439.56" r="439.56"/>
  <circle class="st0" cx="439.56" cy="439.56" r="399.65"/>
  <g>
    <path class="st2" d="M579.07,567.94c-.08,1.18-.16,2.3-.32,3.48-.87,10.45-2.45,20.9-3.32,31.26-.48,6.65-1.66,13.14-3.08,19.54-.16.56-.24,1.11-.4,1.66-1.5,6.33-3.32,12.58-5.07,18.83-.87,3.09-1.74,6.1-2.77,9.03-5.78,17.17-14.25,33-25.01,47.8-2.06,2.77-4.12,5.54-6.33,8.15-3.49,3.88-7.13,7.29-11.79,9.89-1.03.56-1.98,1.11-3.01,1.66.32-.87.55-1.82.95-2.69,1.19-2.61,2.21-5.22,3.16-7.91,4.43-11.79,7.2-23.97,9.81-36.24.58-2.71,3.05-11.49,2.22-24.61-.79-12.52-2.53-25.09-6.57-36.96-.56-1.75-1.27-3.41-1.98-5.07-5.3-11.79-12.98-21.68-24.13-28.65-2.38-1.42-4.35-3.32-6.57-4.9-4.2-3.09-4.91-7.29-4.27-12.03.87-6.96,3.64-9.65,10.84-9.41,10.2.31,19.78-1.58,28.8-6.49,9.02-4.91,14.48-13.06,15.91-22.71,1.19-8.23-2.77-16.22-8.15-22.64-11.71-14.08-26.91-23.66-43.84-29.91-.71-.24-1.42-.56-2.14-.72-10.13-3.72-20.49-6.65-30.86-9.41-2.37-.71-4.77-1.64-7.2-1.98-6.98-.97-12.63-2.62-19.12-3.5-9.1-1.34-18.39-2.36-27.49-3.07-8.63-.71-17.33-.63-26.04-.32-3.32.15-6.65.32-9.89.56-30.07,2.06-59.12,8.62-86.18,22.55-18.52,9.5-35.61,21.52-48.51,37.91-9.34,11.95-19.31,24.06-22.32,39.96-1.58,8.55.16,20.02,4.43,27.38,8.47,14.33,20.66,23.83,35.22,31.74,20.18,11.07,41.63,17.17,63.7,21.76,10.68,2.21,21.37,4.9,32.21,6.01,10.44,1.11,21.05,1.66,31.65,2.13,5.22.32,15.75.16,15.75.16,5.22,0,10.45.08,15.67,0,19.87-.32,39.41-3.56,58.96-7.36,6.41-1.26,12.74-2.77,18.67-5.38,1.9-.71,3.72-1.66,5.54-2.69,2.37-1.34,4.59-2.93,6.8-4.59,4.19-3.25,4.35-3.4,5.94,2.3,4.04,14.41,4.59,28.8,2.14,43.76-.24,1.42-.48,2.93-.79,4.35-1.9,11.07-4.51,21.84-8.15,32.44-.71,2.06-1.5,4.04-2.38,6.02-5.54,12.74-13.85,23.26-26.11,30.7-4.27,2.53-9.26,4.59-14.17,5.62-7.04,1.34-44.08,4.35-55.39,4.27-24.06-.24-47.72-3.25-70.99-9.66-21.36-5.85-41.23-14.48-59.67-26.82-18.52-12.43-33.63-28.41-47.08-45.97-13.22-17.33-22.24-36.96-29.04-57.46-4.2-12.58-7.12-25.56-8.95-38.86-2.77-19.94,3.64-36.79,13.3-53.25,9.73-16.62,22.95-30.31,37.04-42.89,14.72-13.06,31.97-22.64,50.17-29.99,10.77-4.27,22-7.6,33.16-10.77,11.79-3.32,23.98-4.82,36.17-6.48,7.28-1.04,14.48-1.51,21.68-1.66,6.89-.16,13.77,0,20.66.23,15.66.48,31.34,2.46,46.85,5.22,7.6,1.42,15.11,2.93,22.79,4.67,7.36,1.82,14.72,3.88,21.92,6.33,18.28,6.25,35.85,14.33,51.04,26.04,2.77,2.14,5.38,4.36,7.91,6.81,9.97,9.26,17.57,20.66,20.58,34.98,2.3,11.08,4.83,21.92,5.94,33.24.71,8.23,2.06,16.46,1.5,24.61Z"/>
    <path class="st2" d="M388.88,496.95c-20.56-2.13-41.27-.81-60.51,8.13-9.05,4.2-17.73,9.61-23.46,17.98-5.1,7.44-7.67,15.59-4.13,25.19,4.34,11.79,13.74,17.82,24,22.22,17.4,7.45,35.74,11.62,55,11.39,9.9-.96,19.89-1.41,29.69-3.03,11.53-1.91,22.53-5.81,31.94-13.05,6.89-5.3,10.45-12.28,10.94-21.23.71-12.97-6.34-21.59-15.52-28.65-14.07-10.82-30.56-17.15-47.96-18.95Z"/>
    <g>
      <path class="st2" d="M564.02,264.85c-16.55,4.61-33.6,9.33-46.15,21.33-12.49,11.94-9.18,27.03.11,39.99,9.81,1.86,19.02,4.8,28.38,8.78-.67,1.73-.93,3.52-1.61,4.96-13,27.84-29.16,53.53-48.03,78.24-28.33-15.97-54.06-34.36-78.04-56.08,7.55-8.29,15.36-14.99,24.48-20.95,2.47-10.14-1.52-20.28-9.84-26.85-12.61-9.95-36.89-13.7-52.95-9.05,8.54-23.49,31.11-30.48,55.03-27.11-21.29-33.4-68.53-32.32-103.85-24.3,8.22-11.68,24.9-21.87,37.72-27.31,22.53-9.56,46.02-13.51,71.33-8.66-12.52-33.98-36.35-62.53-61.86-88.18,32.21-2.39,60.43,20.63,77.25,45.72,1.3,1.94,2.18,3.98,4.3,5.12,24-28.71,68.8-37.35,104.08-31.18,8.64,1.51,16.56,3.95,24.19,8.45-35.3,6.32-80.03,24.01-86.13,63.24,18.97-8.61,39.56-11.57,59.82-5.85l-15.58,13.88c-9.42,8.39-18.44,16.72-27.12,26.17,17.75-4.25,34.96-6.05,52.63-3.38l3.64.54,10.65,2.68c-1.7,2.12-2.65,3.83-3.65,6.18l-14.85,2.8-3.95.83Z"/>
      <path class="st2" d="M629.48,497.43c-9.89,18.59-21.13,36.24-33.71,52.94-.16-1.11-.24-2.13-.4-3.16l-.55-5.46c-.95-10.6-3.01-20.49-5.07-30.07l-1.11-5.06c-1.58-7.6-4.11-14.8-7.76-21.53,15.83,4.83,31.97,8.94,48.59,12.35Z"/>
      <path class="st2" d="M670.08,636.71c-27.22-.87-53.89-3.64-80.64-8.94.16-.71.4-1.66.4-1.66,1.98-8.62,3.01-15.43,3.48-21.92.16-2.06.39-4.2.63-6.34,9.97-11.24,19.55-22.79,28.89-35.13,6.17-8.23,38.78-57.22,36.48-60.06l23.27,2.84c12.9,43.13,13.85,92.67-12.5,131.21Z"/>
      <path class="st2" d="M642.81,470.48c-34.33-6.38-67.3-16.03-99.1-29.49l-7.34-3.11c-4.55-1.92-8.89-3.88-13.62-6.27,19.52-25.85,35.74-52.88,49.55-82.41,14.71,9.85,27.39,20.91,39.44,33.41,16.55,17.43,30.45,36.22,42.76,57.36l-11.68,30.51Z"/>
      <path class="st2" d="M401.1,408.64c-4.35-.15-8.86-.23-13.45-.23,3.88-7.99,8.23-15.83,13.22-23.51,10.61,9.42,21.45,18.28,32.69,26.59-11.4-1.58-22.16-2.53-32.45-2.85Z"/>
      <path class="st2" d="M644.76,664.4c-15.12,12.82-31.97,21.52-50.41,28.57-11.55,4.35-23.66,7.91-36.09,10.44,9.81-14.64,17.49-29.98,22.79-45.73.24-.63.48-1.34.71-2.06,20.58,4.19,41.39,6.96,62.99,8.78Z"/>
    </g>
  </g>
</svg>