<?xml version="1.0" encoding="UTF-8"?>
<svg id="Layer_1" xmlns="http://www.w3.org/2000/svg" version="1.1" viewBox="0 0 456.17 595.46">
  <!-- Generator: Adobe Illustrator 30.2.1, SVG Export Plug-In . SVG Version: 2.1.1 Build 1)  -->
  <defs>
    <style>
      .st0 {
        fill: #1c355e;
      }
    </style>
  </defs>
  <path class="st0" d="M347.09,407.24c-.07,1.01-.14,1.96-.27,2.97-.74,8.91-2.09,17.82-2.83,26.66-.41,5.67-1.42,11.21-2.63,16.67-.14.47-.2.95-.34,1.42-1.28,5.4-2.83,10.73-4.32,16.06-.74,2.64-1.48,5.2-2.36,7.7-4.93,14.65-12.15,28.15-21.33,40.77-1.75,2.36-3.51,4.73-5.4,6.95-2.97,3.31-6.08,6.22-10.06,8.44-.88.47-1.69.95-2.56,1.42.27-.74.47-1.55.81-2.29,1.01-2.23,1.89-4.46,2.7-6.75,3.78-10.05,6.14-20.45,8.37-30.92.49-2.31,2.6-9.8,1.89-20.99-.68-10.68-2.16-21.4-5.6-31.52-.47-1.49-1.08-2.91-1.69-4.32-4.52-10.05-11.07-18.49-20.59-24.44-2.03-1.21-3.71-2.83-5.6-4.18-3.58-2.64-4.19-6.22-3.65-10.26.74-5.94,3.1-8.23,9.25-8.03,8.7.26,16.88-1.35,24.57-5.54,7.7-4.19,12.35-11.14,13.57-19.37,1.01-7.02-2.36-13.84-6.95-19.31-9.99-12.01-22.95-20.18-37.4-25.51-.61-.2-1.21-.47-1.82-.61-8.64-3.17-17.48-5.67-26.33-8.03-2.02-.61-4.07-1.4-6.14-1.69-5.95-.82-10.77-2.24-16.31-2.98-7.76-1.15-15.69-2.01-23.45-2.62-7.36-.61-14.78-.54-22.21-.27-2.83.13-5.67.27-8.44.47-25.65,1.75-50.43,7.36-73.51,19.24-15.79,8.1-30.38,18.36-41.38,32.33-7.97,10.19-16.47,20.52-19.04,34.09-1.35,7.29.14,17.08,3.78,23.36,7.22,12.22,17.62,20.32,30.04,27.07,17.21,9.45,35.51,14.65,54.34,18.56,9.11,1.89,18.23,4.18,27.48,5.13,8.91.94,17.95,1.42,27,1.82,4.45.27,13.43.14,13.43.14,4.46,0,8.91.07,13.37,0,16.94-.27,33.62-3.04,50.29-6.28,5.47-1.07,10.87-2.36,15.93-4.59,1.62-.61,3.17-1.42,4.73-2.29,2.02-1.15,3.92-2.5,5.8-3.92,3.58-2.77,3.71-2.9,5.06,1.96,3.44,12.29,3.92,24.57,1.82,37.33-.2,1.21-.41,2.5-.68,3.71-1.62,9.45-3.85,18.63-6.95,27.67-.61,1.76-1.28,3.45-2.03,5.14-4.72,10.86-11.81,19.84-22.27,26.19-3.65,2.16-7.9,3.92-12.08,4.79-6.01,1.15-37.6,3.71-47.25,3.65-20.52-.2-40.7-2.77-60.55-8.24-18.22-4.99-35.17-12.35-50.9-22.88-15.79-10.6-28.69-24.23-40.16-39.22-11.27-14.79-18.97-31.53-24.77-49.01-3.58-10.73-6.07-21.8-7.63-33.14-2.36-17.01,3.11-31.38,11.34-45.43,8.3-14.17,19.58-25.85,31.59-36.59,12.55-11.14,27.27-19.31,42.8-25.58,9.18-3.65,18.77-6.48,28.28-9.18,10.06-2.83,20.46-4.11,30.85-5.53,6.21-.88,12.35-1.29,18.49-1.42,5.87-.14,11.75,0,17.62.2,13.36.41,26.73,2.1,39.96,4.46,6.48,1.21,12.89,2.5,19.44,3.98,6.28,1.56,12.55,3.31,18.7,5.4,15.59,5.33,30.58,12.22,43.54,22.21,2.36,1.83,4.59,3.72,6.75,5.81,8.51,7.9,14.99,17.62,17.55,29.84,1.96,9.45,4.12,18.7,5.06,28.35.61,7.02,1.76,14.04,1.28,21Z"/>
  <path class="st0" d="M184.86,346.69c-17.54-1.81-35.2-.69-51.62,6.94-7.72,3.59-15.12,8.2-20.01,15.34-4.35,6.35-6.54,13.3-3.52,21.49,3.71,10.06,11.72,15.2,20.47,18.95,14.85,6.36,30.48,9.91,46.92,9.71,8.45-.82,16.97-1.2,25.32-2.58,9.83-1.63,19.22-4.96,27.25-11.14,5.88-4.52,8.92-10.47,9.34-18.11.61-11.06-5.41-18.42-13.24-24.43-12.01-9.23-26.07-14.63-40.91-16.16Z"/>
  <g>
    <path class="st0" d="M334.25,148.7c-14.12,3.93-28.66,7.96-39.36,18.19-10.65,10.19-7.83,23.05.09,34.11,8.37,1.58,16.22,4.1,24.21,7.49-.57,1.47-.8,3-1.37,4.23-11.09,23.74-24.88,45.66-40.97,66.74-24.17-13.62-46.12-29.31-66.57-47.84,6.44-7.07,13.1-12.79,20.88-17.87,2.11-8.65-1.3-17.3-8.39-22.9-10.76-8.49-31.47-11.68-45.17-7.72,7.28-20.04,26.53-26,46.94-23.13-18.16-28.49-58.46-27.57-88.59-20.72,7.01-9.97,21.24-18.66,32.18-23.3,19.22-8.15,39.25-11.53,60.85-7.38-10.68-28.99-31-53.34-52.77-75.22,27.48-2.03,51.55,17.6,65.89,38.99,1.11,1.66,1.86,3.4,3.67,4.36,20.47-24.49,58.69-31.86,88.78-26.59,7.37,1.29,14.13,3.37,20.64,7.21-30.12,5.39-68.26,20.48-73.47,53.94,16.18-7.34,33.74-9.87,51.02-4.99l-13.29,11.84c-8.04,7.16-15.73,14.26-23.13,22.32,15.14-3.63,29.82-5.16,44.89-2.88l3.11.46,9.09,2.29c-1.45,1.81-2.26,3.26-3.12,5.28l-12.66,2.38-3.37.7Z"/>
    <path class="st0" d="M390.09,347.1c-8.44,15.86-18.02,30.92-28.75,45.16-.14-.94-.2-1.82-.34-2.7l-.47-4.66c-.81-9.04-2.56-17.48-4.32-25.65l-.95-4.32c-1.35-6.48-3.51-12.62-6.62-18.37,13.5,4.12,27.27,7.63,41.45,10.53Z"/>
    <path class="st0" d="M424.72,465.9c-23.22-.74-45.97-3.1-68.78-7.63.14-.61.34-1.42.34-1.42,1.69-7.36,2.56-13.16,2.97-18.7.14-1.76.34-3.58.54-5.41,8.51-9.58,16.67-19.44,24.64-29.97,5.26-7.02,33.08-48.81,31.12-51.23l19.85,2.43c11,36.79,11.81,79.05-10.67,111.92Z"/>
    <path class="st0" d="M401.46,324.11c-29.29-5.44-57.4-13.68-84.53-25.16l-6.26-2.65c-3.88-1.64-7.58-3.31-11.62-5.35,16.65-22.05,30.49-45.1,42.26-70.29,12.55,8.4,23.37,17.84,33.64,28.5,14.11,14.87,25.97,30.89,36.47,48.93l-9.96,26.03Z"/>
    <path class="st0" d="M195.28,271.36c-3.71-.13-7.56-.2-11.48-.2,3.31-6.82,7.02-13.5,11.27-20.05,9.05,8.04,18.3,15.6,27.88,22.68-9.72-1.35-18.9-2.16-27.68-2.43Z"/>
    <path class="st0" d="M403.12,489.53c-12.89,10.94-27.27,18.36-43,24.37-9.86,3.71-20.18,6.75-30.78,8.91,8.37-12.49,14.92-25.58,19.44-39.01.2-.54.41-1.15.61-1.75,17.55,3.57,35.3,5.94,53.73,7.49Z"/>
  </g>
</svg>