<?xml version="1.0" encoding="UTF-8"?>
<svg id="Layer_1" data-name="Layer 1" xmlns="http://www.w3.org/2000/svg" viewBox="0 0 492.87 210.21">
  <defs>
    <style>
      .cls-1 {
        fill: #1c355e;
        stroke-width: 0px;
      }
    </style>
  </defs>
  <path class="cls-1" d="M304.76,28.62c-3.27-3.86-7.52-6.43-11.92-8.54-3.88-1.82-8.16-2.62-12.39-2.7-20.66-.27-37.83,17.72-40.15,39.32-.3,2.15.07,4.45-.69,6.5-.25.62-.84.84-1.42.62-.82-.3-1.56-.76-2.07-1.53-1.55-2.29-2.79-4.75-3.42-7.52-.18-.8-.28-1.63-.36-2.46-.17-2.14-.54-4.29-.21-6.43.17-5.24-.54-10.54-2.02-15.54C224.79,12.73,208.36-.25,191,0c-22.59-.3-39.45,21.12-35.17,44.9,2.45,14.58,12.42,27.21,25.18,32.78,5.8,2.44,12.1,3.74,18.34,3.14,3.24-.01,6.31-1.37,9.56-1.19.64.03,1.28.03,1.92.02,7.37.14,18.47,12.71,23.57,18.29,2.55,2.73,1.2,6.27-.73,8.93-1.21,1.87-2.5,3.67-3.81,5.46-3.93,5.31-7.84,10.64-11.73,15.99-5.11,7.18-11.3,15.01-11.12,24.53.15,6.94,5.22,14.06,12.15,13.54,11.5-.5,15.87-15.16,20.88-24.16,1.16-2.26,2.36-4.49,3.65-6.67,2.75-4.44,5.11-9.84,9.77-12.32,1.48-.71,2.89-.6,4.2.48,3.4,2.67,7.15,5.39,11.44,5.87,6.27.91,13.8-3.15,14.59-10.39.8-5.51-1.56-9.18-4.3-13.49-1.25-1.5-1.61-3.77.55-4.65,2.46-1.06,5.05-1.76,7.55-2.67,16.35-6.46,27.04-22.63,27.54-41.24-.05-10.71-3.25-20.73-10.26-28.52ZM253.16,40.42c.55-.93,1.14-1.83,1.83-2.65,1.39-1.62,2.56-2.93,4.06-4.47.54-.55,1.21-1.17,1.72-1.61,1.13-.95,2.33-1.71,3.62-2.31,1.4-.65,2.71.15,3.26,1.5,1.17,2.7,2.79,5.09,4.45,7.46.17.24.34.48.5.74.48.8.09,1.69-.82,1.8-1.3.08-2.64,0-3.94.03-3.05-.04-6.09.07-9.14.23-.78-.09-6.75,1.25-5.55-.71ZM253.45,47.16c2.5-.93,5.24-.47,7.8-.6,2.91.1,5.8-.06,8.69-.4,2.96-.25,3.59.26,2.87,3.43-1.17,5.31-2.62,10.53-4.25,15.7-.17.49-.4.98-.71,1.38-.95,1.4-2.14.28-3.04-.56-4.92-4.59-9.18-9.97-12.22-16.19-.51-1-.33-2.47.86-2.76ZM196.81,16.82c.96-1.94,1.93-3.88,2.65-5.95.13-.39.33-.68.65-.84.9-.45,1.8-.8,2.84-.49,3.57,1.03,6.69,3.31,9.6,5.69.73.65,1.47,1.31,2.14,2.04.72,1.02-.43,1.35-1.21,1.26-1.66,0-3.35,0-5,0-1.6,0-3.2-.05-4.79.02-2.05.08-4.09.49-6.14.44-.3-.01-.62-.15-.87-.34-.63-.44-.16-1.28.13-1.83ZM214.93,25.36c-.3,1.09-.62,2.17-1.04,3.21-1.81,4.58-4.15,8.88-6.6,13.09-.28.67-1.08,1.26-1.56.49-.65-1.07-1.46-2-1.84-3.28-1.04-3.47-2.47-6.77-3.98-10.03-.79-1.73-2.23-4.64.56-5.09.7-.09,1.4-.18,2.11-.22,2.19-.01,4.79-.45,6.79-.22,1.38,0,2.77.05,4.15-.02,1.04-.05,1.82.63,1.42,2.08ZM192.74,26.23c.5.32.87.76,1.13,1.32,1.57,3.36,3.22,6.67,4.42,10.21.43,1.28.93,2.54,1.4,3.8.39,1.06.07,1.59-1.17,1.6-3.15-.78-6.43-2.07-9.57-3.06-1.55-.51-3.12-.99-4.69-1.44-.45-.13-.76-.36-.96-.8-.31-.68-.28-1.06.2-1.66,2.34-2.79,4.52-5.73,6.69-8.67.55-.69,1.63-1.93,2.53-1.31ZM177.03,65.15c-.25.75-.9,1.02-1.53.59-.53-.36-1.04-.79-1.51-1.24-1.96-1.76-3.69-3.74-5.26-5.9-1.24-1.59-1.94-3.51-2.84-5.31-.46-.92-.05-2.08.83-2.63,1.16-.73,2.36-1.39,3.47-2.2,1.38-.99,2.68-2.1,4.01-3.16.71-.79,1.88-.72,2.11.48.18,5.06.04,10.16.61,15.2.08,1.05.14,2.11.22,3.17.02,0,.05,0,.07,0-.06.33-.08.68-.18.99ZM179.83,27.87c-.56.69-1.1,1.4-1.71,2.02-2.95,2.95-5.81,6.03-8.88,8.83-1.43,1.19-3,2.14-4.69,2.88-2.53,1.02-2.6-2.49-2.52-4.25-.17-12.29,7.33-24.02,18.15-28.19,2.93-1.07,7.44-2.8,10.39-1.33,1.18.54.66,2.15.24,3.09-2.92,6.16-6.68,11.84-10.99,16.95ZM181.84,61.29c-.07-3.27-.12-6.53-.23-9.79-.09-1.96-.53-3.91-.39-5.88.05-.81.61-1.3,1.42-1.33,4.18.92,8.4,1.96,12.48,3.34,1.22.4,2.44.8,3.65,1.2,1.34.26,2.38,1.43,1.49,2.81-4.16,5.89-9.55,10.83-15.62,14.35-2.43,1.13-2.79-2.96-2.79-4.69ZM211.74,69.26c-4.65,3.09-9.97,4.13-15.36,4.53-1.6-.17-3.29-.33-4.97-.53-.79-.1-1.02-.44-1.05-1.28-.03-.92.34-1.58,1.04-2.1,1.28-.96,2.55-1.92,3.78-2.94,3.69-2.97,6.95-6.49,10.15-10.05,6.53-7.14,11.86-15.48,15.61-24.65.24-.65.77-.98,1.27-1.33.76-.4,1.47.79,1.64,1.51.72,3.01,1.51,6.01,1.57,9.13.46,5.3-.55,10.74-2.85,15.48-2.57,4.96-6.22,9.37-10.83,12.22ZM234.24,87.05c-4.95-4.69-9.8-9.77-15.92-12.67-.54-.23-.56-.55-.08-.97,3.31-2.93,6.63-6.05,8.6-10.22.19-.39.3-1.01.77-.95.26.03.51.57.69.93,2.02,3.96,4.73,7.43,7.33,10.96,2.64,4.02,7.91,6.98,7.65,12.45.05,1.44-.18,2.68-.64,3.89-.74,1.91-3.13,1.49-4.42.53-1.5-1.09-2.62-2.67-3.97-3.94ZM238.97,129.44c-2.21,3.62-4.26,7.34-6.17,11.15-2.95,5.36-5.04,11.43-9.21,15.88-2.11,2.3-6.04,3.76-8.09.46-.96-1.46-1.51-3.08-1.48-4.89.31-4.98,2.96-9.34,5.63-13.25,2.4-3.61,4.91-7.13,7.53-10.56,4.05-5.45,8.1-10.9,11.96-16.51,4.38-6.65,8.9-13.49,10.94-21.43.15-.63.41-.7.88-.18,3.12,3.15,6.61,6.12,10.74,7.53.4.14.84.19,1.07.64-1.07,1.31-2.42,2.32-3.62,3.48-8.11,7.93-14.23,17.88-20.18,27.69ZM276.69,118.22c-.41,2.89-3.51,3.96-6.01,3.91-3.18.17-7.72-3.35-10.01-5.64-1.32-1.36-1.19-3.24-.73-4.76,1.46-2.09,3.33-3.84,5.15-5.57.63-.59,1.35-.83,2.26-.62,2.98.69,6.53,5.05,8.25,7.7.95,1.53,1.28,3.19,1.08,4.98ZM284.01,92.09c-2.01.68-4.1,1.18-6.22,1.3-.88.02-1.76.17-2.63.26-2.42-.12-4.81-.36-7.13-1.04-3.53-1.27-7.02-3.03-9.96-5.51-1.34-1.18-2.7-2.33-3.73-3.86-.89-1.32-1.92-2.54-2.73-3.91-2.63-4.35-4.03-9.49-4.53-14.62-.15-1.77-.59-5.14.74-6.42,1.12-1.07,2.19,1.04,2.88,1.87.95,1.28,1.88,2.56,2.83,3.83,2.52,3.28,5.43,6.21,8.19,9.26,6.28,6.8,13.79,12.18,21.83,16.31.91.39,1.67,2.02.46,2.52ZM273.89,65.04c.79-3.5,2.16-7.09,3.15-10.56.48-1.58.91-3.18,1.34-4.78.13-.47.33-.81.75-1.03.72-.38,1.12-.35,1.75.23,2.1,2.21,4.3,4.3,6.62,6.22,1.61,1.42,4.51,3.48,1.46,5.18-4.18,2.39-8.62,4.23-13.07,5.99-1.21.53-1.99.76-2-1.24ZM292.48,82.03c-.05,1.17-.8,1.75-1.89,1.39-3.91-1.36-7.53-3.5-11.04-5.76-1.62-1.08-3.26-2.14-4.86-3.25-.45-.43-.51-.99-.04-1.36.85-.67,1.62-1.47,2.66-1.81,3.29-1.08,6.45-2.51,9.55-4.09,2.38-1.17,5.45-3.01,5.49,1.17.46,4.56.4,9.15.13,13.72ZM305.69,70.64c-.17.49-.33.89-.54,1.36-.19.43-.36.86-.67,1.47-.78,1.55-1.62,3.09-2.58,4.51-.83,1.15-3.34,5.01-4.49,5.27-.66-.18-.41-1.31-.45-1.98.44-5.28.26-10.94-.18-16.31-.03-1.12.55-2.27,1.79-1.5,1.97,1.12,3.89,2.35,5.96,3.23,1.28.63,1.64,2.63,1.16,3.94ZM305.56,57.74c-6.95-3.53-13.06-8.71-18.56-14.42-2.05-2.35-15.47-16.17-9.79-18.27,1.41-.25,2.89-.28,4.32-.33,5.58.49,11.15,2.47,15.55,6.23,5.36,4.51,9.14,11.17,10.51,18.31.32,1.77.48,3.58.7,5.38.11,1.62-.92,4.14-2.74,3.1Z"/>
  <path class="cls-1" d="M260.86,15.01c-1.73-1.22-3.53.14-5.05,1.08-2.19,1.49-4.39,2.96-6.66,4.34-2.94,1.81-5.53,4.12-7.96,6.63-.79.6-2.04.44-2.7-.35-.23-.28-.41-.61-.59-.93-3.24-5.51-5.84-11.63-10.44-16.04-.51-.51-1.06-.99-1.62-1.43-1.37-1.13-3.88-.85-3.83,1.45-.02.71.25,1.4.68,2.01.6.83,1.26,1.62,1.9,2.42,1.28,1.6,2.59,3.17,3.83,4.8,1.44,1.89,2.45,4.02,3.09,6.37,1.01,3.6,2,7.21,2.82,10.87.4,1.67.78,3.35,1.19,5.03.11.43.24.87.45,1.26,1.25,2.22,3.48,1.37,4.59-.48,3.18-5.61,5.71-11.94,10.74-16,3.05-2.54,6.07-5.12,9.09-7.7.38-.32.73-.71.99-1.14.46-.75.21-1.66-.51-2.15Z"/>
  <path class="cls-1" d="M303.2,14.01c-2.04-1.46-4.37-2.46-6.79-2.93-1.41-.28-2.8.05-4.12.63-1.79.68-1.98,3.38-.2,4.22.56.3,1.16.55,1.75.77,6.09,1.87,10.62,4.91,14.12,10.68,1.11,1.83,2.17,3.7,3.3,5.51,2.87,4.61,4.94,9.61,6.61,14.83.2.64.42,1.29.72,1.87,1.29,2.84,5.24,2.5,6.01-.57.23-.78.29-1.61.43-2.42-1.04-10.83-4.91-12.75-10-21.22-2.81-4.97-7.48-8.12-11.83-11.38Z"/>
  <path class="cls-1" d="M145.7,48.17c1.12,2.37,5.48,6.36,6.14,1.59.12-2.32-.32-4.65-.38-6.96-.21-9.08,1.9-18.18,5.14-26.51,1.65-3.6,4.77-5.84,7.3-8.66,1.7-2.03.31-4.42-2.16-3.72-6.64,2.17-9.9,11.28-13.19,17.17-3.09,5.4-4.73,10.81-4.91,17.77.12,1.16.27,3.03.54,4.89.23,1.57.77,3.05,1.52,4.43Z"/>
  <path class="cls-1" d="M170.64,76.53c-1.96-.93-3.61-2.29-5.06-3.98-.57-.66-1.17-1.33-1.86-1.82-1.51-1.04-3.53-1.76-4.5.41-.31.69-.44,1.43-.38,2.19.24,2.75,2.05,5.24,3.97,6.95,1.05.88,2.15,1.69,3.3,2.41,1.65,1.04,2.54,2.54,2.74,4.54.22,2.19.17,4.36-.57,6.45-.52,1.48-1.03,2.96-1.53,4.45-.24.71-.51,1.41-.63,2.15-.27,1.67.94,3,2.51,2.72,1.72-.38,3.11-1.84,3.97-3.43,1.97-3.32,2.99-7.13,5.02-10.41.72-1.15,1.06-2.45,1.05-3.75.1-4.9-4.49-7.15-8.04-8.88Z"/>
  <path class="cls-1" d="M470.57,173.6c-.07-1.09-.55-2.01-1.02-2.94-2.94-5.52-3.5-10.01-3.71-16.23.12-2.19.18-4.38-.38-6.51-1.04-4.59-2.97-9-3.05-13.78-.05-1.86-.18-3.79-.97-5.48-.72-1.79-3.19-1.66-3.81.14-.25.61-.45,1.29-.46,1.94-.02,1.2.05,2.41.21,3.59.32,2.38.69,4.76.68,7.18-.01,3.26.45,6.44,1.1,9.61.3,1.46.48,2.96.59,4.46.57,6.49,2.58,13.52,6.85,18.3.61.63,1.27,1.2,2.12,1.41,1.17.3,1.94-.41,1.85-1.69Z"/>
  <path class="cls-1" d="M368.54,79.93c.86.06,1.69-.07,2.46-.49,2.41-1.37,1.66-4.69-.69-5.57-.99-.43-2.03-.55-3.1-.55-5.9.24-12.19.69-17.13,4.5-2.71,2.01-5.51,3.92-8.08,6.13-2.14,1.94-4.96,5.38-5.43,8.38-.26,1.87,1.26,3.2,2.94,2.62,1.37-.44,2.31-1.67,3.27-2.74,1.43-1.66,2.82-3.36,4.27-5,1.32-1.49,2.86-2.65,4.69-3.36,2.31-.9,4.59-1.9,6.89-2.83,3.19-1.39,6.52-1.74,9.93-1.09Z"/>
  <path class="cls-1" d="M245.07,142.68c-1.14.44-2.16,1.13-2.91,2.15-1.59,1.96-2.32,4.42-3.16,6.81-.4,1.12-.7,2.3-1.23,3.34-1.8,3.37-3.95,6.64-6.78,9.11-1.47,1.29-2.98,2.5-4.66,3.46-.75.43-1.45.92-1.95,1.68-1.46,2.36.27,4.38,2.52,4.39,6.5.09,12.99-6.7,15.02-12.93.91-2.68,1.92-5.32,3.3-7.79.99-1.88,1.92-3.88,2.33-6,.32-1.97.17-5.14-2.48-4.21Z"/>
  <path class="cls-1" d="M91.68,74.92c-.92-.82-2.39-.92-3.41-1.19-3.5.47-6.66,1.62-9.75,3.35-1.74.98-3.51,1.88-5.37,2.61-4.99,1.87-7.82,6.02-10.3,10.79-.69,1.38-1.53,2.74-1.85,4.29-.49,2.25,2.11,3.92,3.7,2.28.58-.64,1.06-1.4,1.47-2.18.84-1.62,1.99-2.9,3.4-3.94,2.89-2.14,5.74-4.35,8.66-6.45,2.6-1.73,5.37-3.47,8.5-3.71,1.59-.15,3.26-.35,4.68-1.16,1.75-1.07,1.85-3.38.25-4.69Z"/>
  <path class="cls-1" d="M227.12,98.4c.01-2.19-1.6-3.83-3.05-5.15-1.29-1.16-2.58-2.32-3.84-3.52-3.09-3.02-6.79-4.83-10.98-5.02-3.32.31-6.56.91-9.75,1.83-1.37.44-2.57,1.57-2.41,3.24.1,2.09,2.19,2.97,3.89,2.88,1.98.02,3.92-.32,5.84-.78,1.77-.43,3.48-.24,5.15.52,1.25.57,2.31,1.41,3.23,2.47,2.07,2.44,4.23,4.93,7.23,6.01,2.05.87,4.68.33,4.7-2.49Z"/>
  <path class="cls-1" d="M378.48,164.1c-.39.53-.76,1.09-1.08,1.67-1.43,2.61-3.71,4.52-5.2,7.08-3.56,6.14-9.63,10.43-9.27,18.53.02.21.05.96.17,1.7.14.9.45,1.74,1.02,2.44,1.19,1.44,2.85,1.16,3.5-.63.2-.55.3-1.16.37-1.75.48-4.14,2.63-7.81,5-11.03,2.23-3.06,5.16-5.73,6.24-9.55.44-1.53,1.07-2.93,2.01-4.18.91-1.29,1.92-3.44,1.1-5-.9-1.73-3.01-.42-3.85.73Z"/>
  <path class="cls-1" d="M65.5,164.8c-.85-.63-1.77-.44-2.58.11-2.54,1.73-4.68,4.08-7.17,5.88-2.11,1.5-4.11,3.13-6.04,4.88-2.58,2.35-5.35,4.37-8.57,5.6-.59.23-1.17.51-1.71.86-.41.27-.81.62-1.09,1.03-.87,1.27-.27,3.01,1.15,3.39.34.09.69.09,1.13.15,3.67-.41,7.25-1.79,10.27-4.05,3.23-2.38,6.4-4.87,9.58-7.33,1.31-1.35,2.66-2.67,3.92-4.08.93-1.05,1.56-2.32,1.79-3.76.16-.98.19-2-.69-2.66Z"/>
  <path class="cls-1" d="M158.33,159.56c-.58-.38-1.28-.58-1.95-.76-.54-.14-1.12-.07-1.67-.17-1.54-.3-2.77-1.07-3.38-2.71-1.49-3.49-3.01-6.96-4.55-10.42-.27-.6-.62-1.2-1.04-1.68-.42-.48-.95-.91-1.51-1.17-1.13-.54-2.37.16-2.59,1.46-.11.65-.11,1.37.05,2,.75,2.98,1.52,5.95,2.39,8.88,1.42,4.74,6.52,9.07,11.04,9.89,1.94.01,3.29-.73,3.94-1.96.65-1.22.4-2.63-.71-3.36Z"/>
  <path class="cls-1" d="M211.23,177.31c-6.72-.09-14.74-2.78-17-10.32-.91-2.86-1.62-5.77-1.99-8.76-.55-4.41-1.33-8.76-2.18-13.11-1.65-9.08-3.01-18.23-4.61-27.32-.23-1.09-.45-2.22-.97-3.2-.69-1.27-1.88-1.33-2.72-.12-.29.42-.52.89-.74,1.36-1.34,2.9-2.65,5.82-3.99,8.72-2.89,6.28-5.92,12.49-8.7,18.82-1.27,2.95-2.76,5.76-4.52,8.4-.29.43-.6.84-.91,1.25-2.25,3.16-7.54,3.68-9.68.18-.39-.62-.73-1.29-1.01-1.98-1.27-2.94-2.35-5.96-3.16-9.08-1.94-7.55-4.25-14.98-6.45-22.44-.26-.86-.57-1.7-.92-2.52-.33-.76-.84-1.39-1.52-1.83-1.21-.78-2.25-.69-3.22.45-1.74,1.92-2.49,4.53-3.1,7.07-4.12,16.2-9.16,32.09-13.95,48.07-2.72,8.97-6.37,18.45-14.35,23.42-3.45,2.13-8.44,4.73-12.43,4.44-1.45-.12-2.15-1.2-1.69-2.67.22-.7.57-1.4,1.02-1.95,1.06-1.3,2.15-2.59,3.34-3.76,5.67-5.52,9.13-12.98,12.25-20.35.42-1.03.78-2.1,1.14-3.16.28-.8.29-1.62.1-2.45-.18-.78-.59-1.36-1.27-1.7-.92-.46-1.86-.67-2.86-.32-8.36,3.44-16.25,4.14-24.54-.06-2.89-1.44-5.53-3.28-7.98-5.46-2.61-2.52-5.93-4.08-8.19-.22-3.38,5.93-8.34,10.36-13.53,14.38-12.26,9.72-36.42,19.72-49.73,8.07-1.37-1.16-1.71-3.31.11-4.23.49-.25,1.06-.36,1.61-.48,2.48-.34,4.68-.84,6.46-2.89,2.24-2.58,1.79-6.86,2.06-10.15.11-5.34.38-10.68.44-16.02-.03-15.89.18-31.78.09-47.66.02-2.48-2.09-3.34-3.96-3.34-1.81-.11-3.72.26-5.4-.63-3.14-1.6-2.25-5.17.46-6.88.82-.56,1.72-1.06,2.64-1.39,8.55-3.25,17.83-3.24,26.6-1.17,10.8,2.18,21.1,8.2,28.22,17.23,2.81,4,5.74.86,7.52-2.13,12.84-20.6,39.72-21.45,55.36-4.06.53.6,1.08,1.19,1.65,1.74,1.17,1.2,3.09.11,3.58-1.33,1.57-5.15,2.75-10.43,4.2-15.62.23-.87.55-1.71.88-2.54,1.36-3.87,6.52-4.99,8.33-.71,1.72,4.04,2.88,8.32,4.23,12.51,2.22,6.59,4.04,13.31,5.7,20.08,1.33,5.87,3.62,11.39,5.51,17.06.25.7.51,1.4.8,2.09.34.82.98,1.25,1.78,1.45,1.51.41,2.08-1.17,2.69-2.32,6-12.52,12.11-24.99,18.12-37.51.94-1.97,2.16-3.7,3.7-5.16,2.15-2.04,5.8-3.53,7.7-.36.56.89.92,1.86,1.09,2.91.26,1.56.54,3.11.76,4.67,1.29,9.76,2.79,19.48,4.19,29.22,2.04,12.26,3.21,24.82,6.88,36.68,1.37,4.41,3.88,8.71,8.14,10.33,1.12.45,2.24.9,3.35,1.36.91.38,1.88.71,2.61,1.42,1.3,1.29,1.26,2.84-.09,4.07-.37.33-.82.61-1.28.76-1.07.35-2.15.71-3.25.89-1.11.18-2.24.15-3.37.21ZM22.05,161.99s-.04,0-.06,0c0,1.35-.08,2.72.02,4.06.26,3.82,4.22,5.3,7.23,4.07,6.91-2.8,13.39-6.76,19.03-11.87,4.77-4,7.36-8.63,9.57-14.58,1.46-3.6,1.82-7.4,1.66-11.27-.48-8.61-1.53-13.08-6.08-20.29-5.11-8.41-13.68-14.05-22.68-16.43-2.66-.75-5.45-.48-6.51,2.67-.79,2.19-1.33,4.43-1.34,6.8-.04,6.47-.1,12.94-.15,19.41.03,3.76-.21,7.53-.18,11.28.37,8.72-.42,17.43-.49,26.15ZM120.05,119.91c.16-4.61-1.56-9.63-3.71-13.68-.96-1.77-2.15-3.35-3.64-4.65-9.82-8.93-26.06-9.33-34.1,2.36-4.27,5.95-7.51,14.1-7.22,21.7.36,11.22,5.9,21.56,15.91,25.76,16.27,6.41,32.95-15.14,32.76-31.49Z"/>
  <path class="cls-1" d="M293.15,82.44c14.89-.25,31.39,6.07,41.93,17.5,3.87,4.7,6.91-1.24,9.29-4.34,7.3-9.32,19.18-13.25,30.27-11.62,8.53,1.14,16.76,4.8,23.13,11.03.42.4.85.79,1.3,1.15,1.41,1.09,3.1,0,3.52-1.16.22-.63.38-1.29.52-1.95.85-3.88,1.69-7.77,2.55-11.65.18-.8.37-1.62.67-2.37,1.27-3.8,6.49-4.24,8.3-.75,1.12,2,2.26,3.99,3.07,6.17.36.98.74,1.96,1.19,2.89,5.17,10.22,8.18,21.48,13.4,31.66,1.03,2.06,1.98,4.16,3.05,6.19.38.68.97,1.07,1.67,1.29,1.8.64,2.48-1.12,3.12-2.57,4.33-10.05,8.79-20.04,13.04-30.12,1.85-4.41,4.14-8.55,6.28-12.79.38-.72.76-1.45,1.21-2.12,2.18-3.65,7.07-2.83,8.18,1.39.85,2.88,1.55,5.79,2.05,8.76,2.71,15.99,5.36,31.99,7.33,48.12,1.87,11.92,1.3,25.66,10.47,34.38.88.87,1.76,1.74,2.59,2.66.48.54.96,1.13,1.27,1.78.86,1.81-.03,3.57-1.89,3.83-.98.14-1.96.1-2.93-.2-3.47-1.05-6.43-3.36-9.59-5.14-1.99-1.11-3.32-2.97-4.65-4.84-3.91-4.91-3.71-11.49-4.72-17.52-1.67-11.37-3.33-22.74-4.87-34.13-.41-2.83-.84-5.65-1.31-8.46-.11-.65-.39-1.28-.64-1.89-.17-.4-.73-.46-1.11-.23-.59.35-.91.93-1.16,1.56-1.54,3.8-2.94,7.66-4.42,11.48-2.88,6.62-6.04,13.09-8.49,19.92-.96,2.6-2.29,5-3.78,7.29-2.3,3.95-7.97,4.31-10.7.69-1.85-2.93-3.64-5.95-4.79-9.26-2.59-7.25-5.69-14.25-8.56-21.37-.46-1.1-.97-2.17-1.51-3.23-.45-.88-1.15-1.51-2.01-1.92-1.11-.52-2.02-.38-2.9.54-.92.97-1.55,2.14-1.92,3.46-.3,1.08-.58,2.17-.78,3.28-2.89,13.72-6.22,27.35-9.79,40.89-2.36,8.64-5.34,17.25-10.4,24.54-3.03,4.46-7.61,7.18-12.48,8.76-.93.27-1.94.37-2.91.35-1.33-.03-2.04-.93-1.96-2.38.09-1.67.93-3.15,1.72-4.54,2.7-4.31,5.46-8.59,8.06-12.97,2.27-3.84,3.69-8.11,5.11-12.36.23-.69.35-1.47.34-2.21-.07-3.23-2.68-3.32-5.03-2.98-4.38,1.61-8.97,2.76-13.63,2.46-7.54-.4-14.31-3.91-20.23-8.73-.82-.58-1.65-1.16-2.55-1.57-3.29-1.51-4.71.74-6.34,3.44-9.27,12.64-24.61,20.85-39.22,23.69-1.94.35-3.86.82-5.81,1.09-5.53.81-11.24,1.78-16.74.22-1.49-.42-2.95-1.07-3.96-2.38-.52-.61-.52-1.38-.21-2.12.32-.78.85-1.39,1.57-1.77.76-.4,1.51-.82,2.31-1.11,5.07-1.91,8.63-7.1,9.04-12.78.23-2.39.41-4.79.61-7.19.25-4.66.11-9.34.18-14,.07-11.44-.14-22.89.32-34.33,0-3.26-.8-7.51-3.08-9.8-1.87-1.98-5.2-4.31-2.66-7.31.64-.72,1.39-1.3,2.31-1.5,1.44-.31,2.89-.64,4.35-.77,1.47-.13,2.95-.03,4.43-.03ZM297.89,152.7c.02,1.73-.05,4.29.02,6.19.04,3.9,4.2,5.5,7.25,4.39,6.6-2.41,12.8-5.93,18.35-10.44,4.98-3.78,8.26-8.61,10.31-14.75,1.73-4.27,1.46-9.05.84-13.55-.59-6.05-3.34-11.54-6.94-16.17-5.38-7.14-13.32-11.53-21.54-13.73-2.12-.48-5.1-.82-6.3,1.58-.82,1.67-1.48,3.43-1.53,5.35-.12,4.36-.26,8.72-.28,13.08.21,12.8.54,25.17-.2,38.04ZM395.69,119.43c.34-5.18-1.56-10.16-4.19-14.39-3.86-6.17-10.72-9.25-17.31-10.51-9.22-1.93-19.02,2.32-23.48,11.38-3.44,7.04-5.05,11.65-3.36,19.65,1.52,8.93,7.6,16.38,15.35,19.89,15.59,7.14,32.07-9.54,32.99-26.03Z"/>
  <path class="cls-1" d="M25.35,153.67c.41-6.38.5-12.78.39-19.18-.05-2.79-.05-5.57.26-8.33.25-2.26.24-4.5.27-6.76,0-5.95-.19-11.9.87-17.78.18-1.27,1.48-2.25,2.67-2.01,1.24.25,2.52.49,3.65,1.05,11.49,4.83,20.64,15.09,22.46,28.48.09.69.1,1.34-.22,1.97-.32.63-.89.83-1.4.43-.77-.65-1.52-1.35-2.31-1.97-1.9-1.5-3.97-1.8-6.19-1.01-4.06,1.33-6.59,5.08-8.67,8.8-2.32,4.16-4.08,8.58-5.18,13.29-.53,2.26-1.03,4.53-1.58,6.78-.46,1.79-.86,3.7-2.06,5.11-.6.74-1.43.66-2-.07-.47-.59-.79-1.26-.83-2.03-.06-1.05-.08-2.1-.09-3.16-.06-1.17.08-2.52-.05-3.62Z"/>
  <path class="cls-1" d="M95.29,98.21c4.7.14,8.87,1.27,12.48,4.19,3.64,3,7.43,5.74,7.89,11.09.06.66-.29,1.2-.89,1.37-.74.2-1.51.33-2.27.38-4.97.32-9.93,1.68-14.19,4.52-4.1,2.88-7.36,7.35-8.29,12.56-.23,1.33-.35,2.68-.47,4.03-.17,1.89.02,3.74.52,5.57.49,1.8.79,3.66,1.66,5.33.13.25.16.57.19.86.04.41-.31.96-.69,1.01-.41.06-.86.14-1.24.01-3.04-.82-5.54-2.89-7.87-5.04-1.82-1.6-2.98-3.77-4.19-5.89-1.05-1.8-1.89-3.69-2.31-5.78-.17-.81-.35-1.61-.57-2.4-1.23-4.34-.94-8.62.49-12.84,2.07-6.61,5.52-12.69,11.16-16.45,1.8-1.25,3.73-2.06,5.9-2.22.98-.07,1.95-.22,2.69-.3Z"/>
  <path class="cls-1" d="M301.36,136.95c-.03-5.49-.08-10.98.36-16.46.14-4.81.05-9.63.05-14.44,0-1.89.28-3.74.53-5.6.21-1.53,1.21-2.48,2.63-2.28,1.24.17,2.51.44,3.68.92,3.15,1.29,6.22,2.83,9.05,4.8,6.55,4.52,11.61,11.57,13.47,19.75.13.74.2,1.49.24,2.23.02.28-.11.58-.2.86-.15.42-.72.68-1.05.47-.54-.35-1.04-.76-1.56-1.15-1.09-.83-2.17-1.65-3.52-1.98-4.08-.88-7.93,1.94-10.3,5.23-4.24,5.85-6.69,12.94-8.04,20.16-.29,1.61-.84,3.18-1.36,4.74-.21.62-.58,1.2-.98,1.71-.47.6-1.39.61-1.9.07-.34-.37-.71-.8-.84-1.27-.24-.86-.49-1.79-.4-2.65.34-5.02.03-10.13.16-15.12Z"/>
  <path class="cls-1" d="M369.72,97.23c4.64-.2,8.89,1.13,12.77,3.83,3.59,2.56,7.05,4.7,8.27,9.48.15.76-.14,1.41-.82,1.59-.74.2-1.51.33-2.28.35-7.48.36-15.79,3.01-19.91,10.21-2.3,3.91-2.84,9.81-1.42,14.15.59,1.69.97,3.46,1.87,5.02.3.52.48,1.13.1,1.7-.46.69-1.11.54-1.72.3-3.08-1.06-5.99-2.72-8.38-5.06-3.19-3.05-5.66-6.67-6.98-11.09-.51-1.72-1.22-3.38-1.39-5.2-.09-.97-.27-1.95-.2-2.91.14-1.95.36-3.89,1.07-5.73.32-.83.63-1.68.9-2.53,1.77-5.14,5.33-9.6,9.77-12.29,2.56-1.62,5.42-1.98,8.34-1.84Z"/>
  <path class="cls-1" d="M158.48,185.37h-11.15v24.26h4.45v-7.11c0-.44.34-.8.75-.8h5.7c2.54,0,4.66-.78,6.15-2.26,1.46-1.45,2.23-3.52,2.23-5.97,0-4.93-3.19-8.11-8.12-8.11ZM157.8,197.99h-5.26c-.41,0-.75-.36-.75-.8v-7.18c0-.44.34-.8.75-.8h5.26c2.67,0,4.47,1.75,4.47,4.36s-1.75,4.43-4.47,4.43Z"/>
  <path class="cls-1" d="M183.78,184.79c-6.8,0-12.12,5.6-12.12,12.75s5.32,12.67,12.12,12.67,12.12-5.57,12.12-12.67-5.32-12.75-12.12-12.75ZM183.78,205.99c-4.38,0-7.67-3.63-7.67-8.45s3.3-8.53,7.67-8.53,7.67,3.67,7.67,8.53-3.3,8.45-7.67,8.45Z"/>
  <path class="cls-1" d="M213.27,184.79c-6.8,0-12.12,5.6-12.12,12.75s5.32,12.67,12.12,12.67,12.12-5.57,12.12-12.67-5.32-12.75-12.12-12.75ZM213.27,205.99c-4.38,0-7.67-3.63-7.67-8.45s3.3-8.53,7.67-8.53,7.67,3.67,7.67,8.53-3.3,8.45-7.67,8.45Z"/>
  <path class="cls-1" d="M236.35,204.87v-19.5h-4.45v24.26h16.35v-3.95h-11.15c-.41,0-.75-.36-.75-.8Z"/>
  <path class="cls-1" d="M280.09,197.5c-.39-.03-.69.03-.69-.39s.29-.39.67-.44c1.28-.15,3.3-1.95,3.3-5.04,0-3.8-2.58-6.26-6.57-6.26h-11.76v24.26h11.8c4.59,0,7.22-2.35,7.22-6.45,0-2.39-1.22-5.44-3.96-5.68ZM269.48,189.7c0-.44.34-.8.75-.8h5.41c2,0,3.46,1.46,3.46,3.47,0,2.18-1.51,3.7-3.67,3.7h-5.19c-.41,0-.75-.36-.75-.8v-5.56ZM275.79,206.1h-5.55c-.41,0-.75-.36-.75-.8v-5.68c0-.44.34-.8.75-.8h5.66c2.12,0,3.6,1.47,3.6,3.58,0,2.28-1.42,3.7-3.71,3.7Z"/>
  <path class="cls-1" d="M297.53,185.37l-9.47,24.26h4.74l1.51-4.2c.11-.31.39-.52.7-.52h10.17c.31,0,.59.2.7.52l1.51,4.2h4.7l-9.47-24.26h-5.09ZM303.81,200.69c-.14.22-.37.35-.62.35h-6.17c-.25,0-.48-.13-.62-.35-.14-.22-.17-.5-.08-.74l3.06-8.49c.11-.31.39-.51.7-.51h0c.31,0,.59.2.7.51l3.1,8.49c.09.25.06.53-.08.75Z"/>
  <path class="cls-1" d="M330.78,201.78c-.18-.21-.23-.51-.15-.78.08-.27.29-.47.55-.54,3.61-.86,5.76-3.64,5.76-7.44,0-4.65-3.12-7.65-7.94-7.65h-11.47v24.26h4.45v-8.08c0-.44.34-.8.75-.8h1.73c.22,0,.42.1.56.27l7.06,8.61h5.17l-6.47-7.85ZM322.72,197.03c-.41,0-.75-.36-.75-.8v-6.22c0-.44.34-.8.75-.8h5.63c2.54,0,4.25,1.56,4.25,3.89s-1.71,3.93-4.25,3.93h-5.63Z"/>
  <path class="cls-1" d="M265.84,54.17c.15-3.52-4.7-3.72-4.86-.22-.17,3.31,4.77,3.7,4.86.22Z"/>
  <path class="cls-1" d="M188.51,51.8c-3.03-.05-3.33,5.02.06,5.19,1.22.09,2.49-1.32,2.41-2.67-.07-1.28-.86-2.64-2.47-2.52Z"/>
  <path class="cls-1" d="M283.97,74.66c.18,3.36,4.89,3.27,4.88-.19-.14-3.54-5-3.26-4.88.19Z"/>
  <path class="cls-1" d="M204.51,29.75c-.1,3.58,4.96,3.44,4.85.08.11-3.5-4.87-3.4-4.85-.08Z"/>
  <path class="cls-1" d="M284.37,57.18c.05-3.48-4.82-3.5-4.88-.09.15,3.48,4.67,3.51,4.88.09Z"/>
  <path class="cls-1" d="M188.57,34.87c.21,3.56,4.91,3.28,4.83-.07-.12-3.64-4.9-3.21-4.83.07Z"/>
  <path class="cls-1" d="M266.43,35.5c-.04-3.69-5.07-3.73-5.08-.16-.05,3.7,4.93,3.58,5.08.16Z"/>
  <path class="cls-1" d="M169.24,53.84c.22,3.67,4.91,3.53,5.06,0-.08-3.73-5.1-3.49-5.06,0Z"/>
  <path class="cls-1" d="M301.31,68.17c-3.25.09-3.12,4.87-.13,5.21,1.52.01,2.61-1.45,2.6-2.58-.02-1.59-1.27-2.82-2.47-2.63Z"/>
  <path class="cls-1" d="M203.25,16.93c1.23.07,2.49-1.36,2.39-2.69-.1-1.43-.99-2.58-2.39-2.5-3.23-.08-3.35,5.11,0,5.19Z"/>
</svg>