<?xml version="1.0" encoding="UTF-8"?>
<svg id="Layer_1" data-name="Layer 1" xmlns="http://www.w3.org/2000/svg" viewBox="0 0 652.72 941.53">
  <defs>
    <style>
      .cls-1 {
        fill: #1c355e;
      }
    </style>
  </defs>
  <polygon class="cls-1" points="260.58 21.92 230.6 130.68 155.3 101.31 180.33 10.52 106.21 0 40.72 237.56 112.29 257.3 133.59 180.04 213.3 193.4 189.8 278.66 261.38 298.4 334.7 32.44 260.58 21.92"/>
  <path class="cls-1" d="M484.22,314.23l-8.81,15.15s-12.62,23.19-40.7,34.71l44.04,48.18-42.8,25.53-25.82-67.75c-20.45,1.85-46.06-2.87-77.38-20.48-2.76-1.55-5.39-3.14-7.91-4.74,2.5,5.78,4.49,12.32,5.76,19.7l55.81,186.2,86.35-16.37-10.39-27.26,60.82-46.22,48.53,53.09,70.17-65.39-157.67-134.34Z"/>
  <path class="cls-1" d="M293.72,553.19l-38.89,15.92-46.2,171.6,52.46,97.07,10.08-44.32,93.72-5.14,14.46,49.46,4.92-200.27-21.11-84.31h-69.43ZM287.74,720.61l25.1-110.35,33.25,113.76-58.35-3.42Z"/>
  <g>
    <polygon class="cls-1" points="572.59 534.8 578.28 703.64 472.75 534.34 386.4 550.72 379.34 837.78 456.9 837.78 456.9 659.42 564.93 837.78 652.72 837.78 652.72 556.58 572.59 534.8"/>
    <path class="cls-1" d="M475.41,329.38l95.55-164.32-68.42-38.48-81.7,140.03s-17.41,32.27-45.51,16.92c-27.44-14.99-11.49-44.61-11.49-44.61l81.4-144.57-72.27-40.38-86.4,153.7s-29.05,49.9-1.32,97.83c-4.66-2-7.72-2.72-7.72-2.72l-179.4-49.29L3.65,516.48l69.34,31.61C1.58,589.03,0,675.61,0,675.61c0,72.43,32.64,112.97,65.27,135.41,25.53,17.55,55.94,26.76,86.99,26.76h108.83l-52.58-97.3s-65.01,25.91-97.32-14.69c-21.48-27-17.66-56.87-11.98-75.13,4.73-15.19,14.64-28.33,28.26-36.68,37.41-22.94,78.25,3.19,78.25,3.19l18.1-35.36,69.91-28.62s-32.67-24.96-52.32-68.73c39.05-1.89,74.91-17.53,86.03-64.43,7.96-33.57,4.93-57.81-2.61-75.21,2.53,1.6,5.15,3.19,7.91,4.74,100.83,56.72,142.66-20.17,142.66-20.17ZM130.54,529.17c-14.94,2.08-28.14,5.67-39.86,10.38l26.08-80.5s23.5,10.08,54.93,17.59c.77,13.96,2.91,32.89,8.37,53.64-16.5-2.78-33.11-3.4-49.52-1.11ZM266.86,402.58c-10.4,34.5-88.69,16.08-132.69-.69l23.06-71.16c47.39,7.63,122.46,29.28,109.63,71.85Z"/>
  </g>
  <g>
    <path class="cls-1" d="M0,939.92v-74.33h14.99v61.2h30.63v13.13H0Z"/>
    <path class="cls-1" d="M42.94,902.75c0-21.43,14.99-38.78,39.27-38.78s39.4,17.34,39.4,38.78-14.99,38.78-39.4,38.78-39.27-17.34-39.27-38.78ZM106.25,902.75c0-14.12-10.04-24.41-24.04-24.41s-23.79,10.28-23.79,24.41,9.91,24.41,23.79,24.41,24.04-10.28,24.04-24.41Z"/>
    <path class="cls-1" d="M125.36,908.2v-42.62h14.99v42.62c0,10.28,6.07,18.95,18.33,18.95s18.09-8.55,18.09-18.95v-42.62h14.99v42.62c0,19.2-12.27,33.33-33.08,33.33s-33.33-14.12-33.33-33.33Z"/>
    <path class="cls-1" d="M266.35,939.92h-3.59l-49.8-45.34v45.34h-14.99v-74.33h3.72l49.8,44.35v-44.23h14.87v74.21Z"/>
    <path class="cls-1" d="M306.53,896.8h37.17v7.31c0,22.05-12.14,37.41-35.31,37.41-24.4,0-39.27-17.34-39.27-38.78s14.99-38.78,39.52-38.78c19.45,0,27.75,9.42,27.75,9.42l-8.8,11.4s-7.43-6.44-19.2-6.44c-14.12,0-23.79,10.28-23.79,24.41s9.54,24.53,23.66,24.53c12.02,0,19.2-7.56,19.57-17.22v-.99h-21.31v-12.26Z"/>
    <path class="cls-1" d="M397.38,909.07h-35.18v17.72h42.74v13.13h-57.73v-74.33h57.73v13.13h-42.74v18.09h35.18v12.26Z"/>
    <path class="cls-1" d="M478.86,939.92h-36.67v-74.33h35.68c17.59,0,27.01,7.43,27.01,20.19,0,6.81-3.47,12.27-9.42,14.87v1.61c7.19,2.35,11.65,8.3,11.65,15.98,0,14-10.78,21.68-28.25,21.68ZM477.62,878.72h-20.44v18.09h20.32c7.43,0,11.52-3.84,11.52-9.04,0-5.7-3.96-9.04-11.4-9.04ZM457.18,907.83v18.95h22.17c7.06,0,11.77-3.96,11.77-9.54s-4.83-9.41-12.02-9.41h-21.93Z"/>
    <path class="cls-1" d="M540.79,865.58h2.6l38.28,74.33h-16.97l-4.83-10.16h-35.55l-4.71,10.16h-16.97l38.16-74.33ZM542.53,892.71h-.99l-11.27,24.28-.87,1.61h25.27l-.87-1.61-11.28-24.28Z"/>
    <path class="cls-1" d="M584.95,865.58h33.57c18.83,0,30.48,9.29,30.48,25.52,0,11.03-5.45,18.58-14,22.67v1.11l17.72,23.54v1.49h-16.97l-16.48-22.67h-19.32v22.67h-14.99v-74.33ZM618.03,878.72h-18.09v25.89h18.46c9.42,0,15.11-4.21,15.11-12.88s-5.82-13.01-15.49-13.01Z"/>
  </g>
</svg>