<?xml version="1.0" encoding="UTF-8"?>
<svg id="Layer_1" data-name="Layer 1" xmlns="http://www.w3.org/2000/svg" viewBox="0 0 486.79 435.67">
  <defs>
    <style>
      .cls-1 {
        fill: #1c355e;
        stroke-width: 0px;
      }
    </style>
  </defs>
  <g>
    <polygon class="cls-1" points="124.3 236.94 80.63 236.94 33.59 280.96 33.59 156.31 0 156.31 0 357.88 33.59 357.88 33.59 311 37.37 307.47 80.63 357.88 124.3 357.88 66.87 290.69 124.3 236.94"/>
    <path class="cls-1" d="M482.78,290.23s-.1-.05-.15-.08c-3.77-1.93-8.4-.28-10.24,3.53-10.51,21.83-19.59,40.57-41.91,54.68l34.67-114.27h-35.32l-24.16,79.4c-6.69,8.66-14.13,16.34-23.45,16.34-12.9,0-13.22-11.29-9.4-23.56l21.77-72.19h-35.27l-16.31,54.03c-12.78,26.7-26.23,45.07-36.68,45.07-7,0-6.77-7.75-4.2-15.92l7.47-25.49c1.58-5.32,2.69-10.04,2.69-14.13,0-17.96-13.02-26.04-33.51-34.44l-6.3-2.39,6.2-16.29c-3.27-6.01-9.57-10.58-17.98-10.58-11.44,0-20.55,7.89-20.55,20.16,0,7.7,4.08,12.96,8.98,17.77-4.2,12.5-9.2,24.92-14.1,35.98-14.25,29.81-36.3,45.35-58.72,45.35-16.35,0-27.27-7.41-30.3-21.84,51.84,1.44,72.23-25.33,72.23-46.25,0-18.51-16.47-34.38-42.39-34.38-40.17,0-66.79,37.99-66.79,74.29,0,33.18,21.95,53.37,56.51,53.37,40.17,0,66.79-27.53,82.9-63.83,5.14-11.3,9.54-23.22,13.27-34.76l10.27,4.57c9.34,3.85,8.64,10.1,4.9,22.85l-6.77,22.37c-1.88,6.35-3.2,13.39-3.2,20.08,0,14.83,6.31,28.73,25.15,28.73,15.96,0,30.16-9.95,42.44-25.74,1.99,14.93,11.71,25.75,31.69,25.75,12.18,0,21.54-5.46,30.37-14.36l-6.46,21.16c-20.78,5.77-64.4,10.58-64.4,42.08,0,16.59,12.77,28.38,33.8,28.38s48.02-12.02,62.83-60.84l1.43-4.81c32.31-15.24,47.22-37.73,62.28-69.83,1.72-3.66.3-8.09-3.29-9.96ZM175.37,260.98c8.41,0,12.62,4.63,12.62,10.15,0,10.58-13.27,22.96-41.99,23.44,2.57-18.99,14.66-33.59,29.37-33.59ZM356.42,415.51c-7.64,0-12.21-4.55-12.21-10.08,0-12.99,21.92-17.27,40.31-21.84-6.45,20.68-16.63,31.91-28.1,31.91Z"/>
  </g>
  <g>
    <path class="cls-1" d="M384.28,146.06c3.63,1.86,5.08,6.35,3.29,10.02-16.32,33.46-42.22,58.16-80.26,58.16-34.56,0-56.51-20.19-56.51-53.37,0-36.3,26.62-74.29,66.79-74.29,25.92,0,42.39,15.87,42.39,34.38,0,20.92-20.38,47.69-72.23,46.25,3.04,14.42,13.96,21.84,30.3,21.84,21.01,0,41.71-13.66,55.96-39.92,1.94-3.58,6.4-5.01,10.04-3.18.08.04.16.08.24.12ZM287.75,150.42c28.72-.48,41.99-12.86,41.99-23.44,0-5.53-4.22-10.15-12.62-10.15-14.71,0-26.8,14.6-29.37,33.59Z"/>
    <rect class="cls-1" x="102.98" y="89.95" width="33.59" height="120.94"/>
    <path class="cls-1" d="M181.92,150.42c0-20.13,15.12-33.59,33.6-33.59,11.76,0,19.72,3.43,26.88,10.08v-33.11c-9.63-4.71-19.81-7.2-32.19-7.2-11.56,0-28.34,2.49-42.92,15.51-12.03,10.73-20.51,27.47-20.63,48.32.11,20.85,8.6,37.59,20.63,48.32,14.58,13.02,31.37,15.51,42.92,15.51,12.38,0,22.56-2.49,32.19-7.2v-33.11c-7.15,6.65-15.12,10.08-26.88,10.08-18.48,0-33.6-13.46-33.6-33.59h0Z"/>
    <path class="cls-1" d="M122.48,35.26c0-.12.01-.23.01-.35,0-1.32-.1-2.61-.28-3.88,16.94-.13,28.93-13.32,27.28-30.88-15.57-1.46-27.7,7.81-30.34,21.74-3.94-7.17-11.02-12.39-19.37-13.77-2.34-.39-4.44,1.48-4.44,3.85,0,1.89,1.37,3.5,3.23,3.82,9.16,1.54,16.16,9.53,16.16,19.13,0,.12-.01.24-.01.36-10.93,1.88-19.38,11.49-19.38,22.92,0,12.75,10.52,23.27,23.27,23.27s23.27-10.52,23.27-23.27c0-11.44-8.47-21.05-19.41-22.92Z"/>
  </g>
</svg>