<?xml version="1.0" encoding="UTF-8"?>
<svg id="Layer_1" data-name="Layer 1" xmlns="http://www.w3.org/2000/svg" viewBox="0 0 862.31 325.78">
  <defs>
    <style>
      .cls-1 {
        fill: #1c355e;
      }
    </style>
  </defs>
  <g>
    <path class="cls-1" d="M244.53,268.3h-11.43c-2.5,0-4.64.93-6.55,2.84-1.91,1.91-2.84,4.04-2.84,6.51v13.74c0,2.49.93,4.63,2.83,6.53,1.91,1.9,4.05,2.82,6.55,2.82h13.43v17.71h-15.48v-4.16c0-.54-.12-.69-.12-.7s-.16-.12-.7-.12h-5.75c-.43,0-.62.08-.66.11,0,0-.12.16-.12.7v2.15c0,2.52.92,4.66,2.83,6.54,1.91,1.89,4.05,2.81,6.56,2.81h11.43c2.48,0,4.61-.91,6.52-2.79,1.9-1.87,2.82-4,2.82-6.52v-13.82c0-2.47-.93-4.59-2.83-6.49-1.91-1.9-4.04-2.82-6.51-2.82h-13.47v-17.71h15.48v3.84c0,.43.08.62.11.66,0,0,.16.12.7.12h5.75c.43,0,.63-.08.67-.11.02-.03.11-.23.11-.67v-1.88c0-2.47-.93-4.59-2.83-6.49-1.91-1.9-4.04-2.82-6.51-2.82Z"/>
    <path class="cls-1" d="M291.91,268.3h-20c-.54,0-.69.12-.7.12s-.12.16-.12.7v55.86c0,.54.12.69.12.7s.16.12.7.12h5.75c.43,0,.62-.08.66-.11,0,0,.12-.16.12-.7v-20.05h13.43c2.48,0,4.63-.93,6.58-2.83,1.94-1.89,2.88-4.04,2.88-6.55v-17.85c0-2.49-.94-4.63-2.88-6.54-1.95-1.92-4.09-2.85-6.54-2.85ZM294,297.58h-15.56v-21.94h15.56v21.94Z"/>
    <path class="cls-1" d="M340.82,268.3h-12.92c-2.47,0-4.6.92-6.51,2.82-1.91,1.9-2.83,4.02-2.83,6.49v38.91c0,2.49.92,4.61,2.81,6.48,1.9,1.88,4.04,2.79,6.54,2.79h12.96c2.45,0,4.59-.92,6.53-2.82,1.92-1.88,2.86-4.01,2.86-6.49v-38.83c0-2.49-.94-4.62-2.86-6.52-1.94-1.91-4.08-2.83-6.56-2.83ZM342.87,318.44h-16.97v-42.8h16.97v42.8Z"/>
    <path class="cls-1" d="M389.5,300.83l1.9-.71c1.82-.68,3.32-1.82,4.59-3.49,1.23-1.61,1.82-3.36,1.82-5.32v-13.62c0-2.49-.94-4.63-2.88-6.54-1.95-1.92-4.1-2.85-6.58-2.85h-20c-.54,0-.7.12-.7.12,0,0-.12.16-.12.7v55.86c0,.54.12.69.12.7,0,0,.16.12.7.12h5.75c.54,0,.69-.12.7-.12s.12-.16.12-.7v-24.24h6.74l9.5,24.53c.19.47.34.52.71.52h6.15c.34,0,.52-.09.71-.37.11-.16.19-.33.03-.75l-9.26-23.84ZM374.91,293.35v-17.71h15.52v17.71h-15.52Z"/>
    <path class="cls-1" d="M444.81,268.3h-28.3c-.54,0-.69.12-.7.12s-.12.16-.12.7v5.75c0,.43.08.62.11.66,0,0,.16.12.7.12h10.46v49.33c0,.54.12.69.12.7s.16.12.7.12h5.75c.54,0,.69-.12.7-.12s.12-.16.12-.7v-49.33h10.46c.54,0,.71-.12.71-.12.03-.03.11-.23.11-.66v-5.75c0-.54-.12-.69-.12-.7s-.16-.12-.7-.12Z"/>
    <path class="cls-1" d="M528.5,268.3h-20.24c-.43,0-.62.08-.66.11,0,0-.12.16-.12.7v55.86c0,.54.12.71.12.71.03.03.23.11.66.11h20.24c2.48,0,4.62-.92,6.54-2.81,1.91-1.88,2.84-4.01,2.84-6.5v-10.26c0-2.08-.64-3.89-1.95-5.52l-3.02-3.73,2.95-3.61c1.36-1.64,2.01-3.46,2.01-5.58v-10.18c0-2.46-.94-4.58-2.86-6.48-1.94-1.91-4.07-2.83-6.52-2.83ZM530.5,318.44h-15.67v-17.71h15.67v17.71ZM530.5,293.35h-15.67v-17.71h15.67v17.71Z"/>
    <path class="cls-1" d="M577.97,268.3h-11.35c-.58,0-.66.07-.77.64l-11.2,55.88c-.07.37,0,.5.13.63.2.24.34.34.69.34h5.83c.59,0,.7-.09.82-.67l2.59-13.03h15.19l2.59,13.06c.1.53.18.64.81.64h5.87c.23,0,.4-.05.62-.31.11-.13.21-.3.14-.71l-11.15-55.81c-.12-.57-.23-.66-.81-.66ZM566.17,304.74l6.12-30.62,6.12,30.62h-12.25Z"/>
    <path class="cls-1" d="M638.5,324.66l-9.26-23.84,1.9-.71c1.82-.68,3.32-1.82,4.59-3.49,1.23-1.61,1.82-3.36,1.82-5.32v-13.62c0-2.49-.94-4.63-2.88-6.54-1.95-1.92-4.1-2.85-6.58-2.85h-20c-.54,0-.7.12-.7.12,0,0-.12.16-.12.7v55.86c0,.54.12.69.12.7,0,0,.16.12.7.12h5.75c.54,0,.69-.12.7-.12s.12-.16.12-.7v-24.24h6.74l9.5,24.53c.19.47.34.52.71.52h6.15c.34,0,.52-.09.71-.37.11-.16.19-.33.03-.75ZM614.65,293.35v-17.71h15.52v17.71h-15.52Z"/>
  </g>
  <g>
    <polygon class="cls-1" points="79.6 137.7 16.32 166.87 16.32 58.83 0 49.44 0 215.08 16.32 222.74 16.32 185.9 45.24 172.8 74.66 223.23 89.49 216.56 59.09 164.89 95.92 148.33 95.92 49.44 79.6 58.83 79.6 137.7"/>
    <path class="cls-1" d="M152.78,61.8v136.71l48.7,24.97,47.71-25.21v-44.5h-16.32v35.35l-31.89,16.56-4.7-2.47v-66.5h37.08v-15.57h-37.08V57.1l4.7-2.47,31.89,16.56v35.35h16.32v-44.5l-47.71-25.22-48.7,24.97ZM180.22,195.05l-10.63-5.69v-118.42l10.63-5.69v129.79Z"/>
    <path class="cls-1" d="M386.16,189.12l-31.89,16.56-4.69-2.47-.25-82.08V39.8l-43.26,22.01v136.71l48.7,24.97,47.72-25.21v-44.5h-16.32v35.35ZM333.5,195.05l-10.63-5.69v-118.42l10.63-5.69v129.79Z"/>
    <path class="cls-1" d="M459.34,61.8v136.71l48.7,24.97,47.71-25.21V62.05l-47.71-25.22-48.7,24.97ZM539.44,189.12l-31.89,16.56-31.4-16.32v-118.42l31.4-16.32,31.89,16.56v117.92Z"/>
    <polygon class="cls-1" points="692.71 137.7 629.42 166.87 629.42 58.83 613.11 49.44 613.11 215.08 629.42 222.74 629.42 185.9 658.35 172.8 687.77 223.23 702.6 216.56 672.19 164.89 709.03 148.33 709.03 49.44 692.71 58.83 692.71 137.7"/>
    <path class="cls-1" d="M862.31,106.55v-44.5l-47.71-25.22-48.7,24.97v136.71l48.7,24.97,47.71-25.21v-44.5h-16.32v35.35l-31.89,16.56-4.7-2.47v-66.5h37.08v-15.57h-37.08V57.1l4.7-2.47,31.89,16.56v35.35h16.32ZM793.33,195.05l-10.63-5.69v-118.42l10.63-5.69v129.79Z"/>
    <polygon class="cls-1" points="814.1 18 843.13 33.37 856.98 22.74 814.21 0 814.1 .06 813.99 0 771.22 22.74 785.06 33.37 814.1 18"/>
  </g>
  <polygon class="cls-1" points="391.1 101.83 376.76 87.49 362.42 101.83 376.76 115.68 391.1 101.83"/>
  <polygon class="cls-1" points="673.06 101.83 658.72 87.49 644.38 101.83 658.72 115.68 673.06 101.83"/>
  <polygon class="cls-1" points="33.62 101.83 47.96 115.68 62.3 101.83 47.96 87.49 33.62 101.83"/>
</svg>