<?xml version="1.0" encoding="UTF-8"?>
<svg id="Layer_1" data-name="Layer 1" xmlns="http://www.w3.org/2000/svg" viewBox="0 0 900 688.07">
  <defs>
    <style>
      .cls-1 {
        fill: #1c355e;
      }
    </style>
  </defs>
  <path class="cls-1" d="M818.22,629.3c-6.39,12.42-18.26,21.56-31.38,29.67-60.62,37.49-160.09,38.36-222.19,2.12-3.08-1.79-5.16-3.62-9.84-.93-63.97,36.85-157.71,36.81-221.5.04-3.05-1.77-4.85-1.92-8.1-.17-59.27,32.31-122.89,35.81-189,15.09-28.67-9-52.56-23.37-66.24-45.81v-9c.86-1.54,1.66-3.07,2.57-4.59,8.97-15.2,36.65-19.02,48.59-5.23,29.14,33.62,108.29,42.31,157.77,19.4,2.69-1.24,5.29-2.66,7.82-4.16,6.27-3.75,12.03-8.19,17.05-12.79,15.26-13.98,36.09-14.39,50.36.12,11.45,11.57,26.54,19.17,44.14,23.8,30.98,8.11,62.1,8.01,93.01-.41,17.86-4.86,32.59-12.97,44.15-24.71,12.24-12.42,34.3-13.01,46.34-.74,7.28,7.39,15.69,13.18,24.95,17.77,12.66,6.28,26.99,10.23,42.75,12.27,31.68,4.12,62.29,1.46,90.1-11.53,8.95-4.18,16.95-10.07,23.77-16.24,8.03-7.27,16.89-12.02,29.44-10.71,12.8,1.34,20.88,7.39,24.71,16.8.14.35.5.66.75.95v9Z"/>
  <path class="cls-1" d="M818.22,528.22c-13.65,22.48-37.57,36.81-66.25,45.81-15.95,4.98-31.74,8.54-47.38,10.65-49.16,6.67-96.63-1.19-141.6-25.76-3.25-1.77-5.11-1.5-8.11.23-64.07,36.79-157.79,36.79-221.51-.08-4.19-2.41-6.21-1.15-9.26.6-33.71,19.52-77.72,28.45-120.71,26.73-34.76-1.38-68.85-9.68-96.24-25.08-15.62-8.79-29.57-18.92-37.18-33.11v-8.98c.86-1.54,1.66-3.07,2.57-4.59,6.08-10.3,20.66-15.19,33.19-13.1,5.99.97,11.55,3.42,15.4,7.87,29.19,33.68,108.4,42.27,157.77,19.4,9.36-4.34,17.82-10.48,24.88-16.95,15.24-13.98,36.08-14.37,50.36.1,11.44,11.61,26.53,19.19,44.13,23.82,31.49,8.21,63.06,8.03,94.37-.82,17.05-4.8,31.25-12.6,42.31-23.88,12.54-12.79,34.61-13.59,46.82-1.19,17.24,17.5,40.39,26.5,67.68,30.06,31.68,4.12,62.3,1.44,90.11-11.53,8.95-4.18,16.95-10.07,23.77-16.24,8.03-7.27,16.89-12.02,29.43-10.71,1.84.19,3.36.7,5,1.07,9.83,2.27,16.44,7.64,19.73,15.73.14.35.5.62.75.95v8.98Z"/>
  <path class="cls-1" d="M843.99,228.75c-1.6-.91-3.33-1.32-5.06-1.46-5.86-18.08-13.93-35.85-24.45-53-34.48-56.13-83.76-96.19-142.52-124.07C545.92-9.61,416.09-15.01,284.38,28.83c-71.85,23.92-134.26,63.39-179.88,125.16-17.63,23.86-30.65,48.49-39.05,73.79-3.05-.95-6.46-.74-9.43.97-6.21,3.62-60.56,36.36-55.71,74.22,2.8,21.83,23.19,38.05,61.85,49.64,2.8,10.54,6.32,21.15,10.66,31.87,8.6,21.25,19.73,40.46,32.91,57.96,5.99.99,11.55,3.44,15.4,7.89,29.19,33.66,108.4,42.27,157.77,19.4,9.36-4.34,17.82-10.48,24.88-16.95,15.24-13.98,36.08-14.37,50.36.1,11.44,11.61,26.53,19.19,44.13,23.82,31.49,8.21,63.06,8.03,94.37-.82,17.05-4.8,31.25-12.6,42.31-23.9,12.54-12.77,34.61-13.57,46.82-1.17,17.24,17.5,40.39,26.5,67.68,30.06,31.68,4.12,62.3,1.44,90.11-11.55,8.95-4.16,16.95-10.05,23.77-16.22,8.03-7.27,16.89-12.02,29.43-10.71,1.84.19,3.36.7,5,1.07.72-.91,1.51-1.71,2.22-2.64,21.42-27.92,35.89-58.45,43.62-90,34.94-11.45,53.47-27.12,56.11-47.85,4.84-37.86-49.49-70.6-55.71-74.22ZM56.71,325.91c-20.1-7.54-31.74-16.53-32.95-25.92-1.86-14.41,18.54-33.21,34.45-44.51-4.38,22.96-4.99,46.43-1.51,70.42ZM432.66,386.22c-3.44-.16-6.9-.04-10.52-.06-62.16-3.25-121.72-16.14-174.87-50.75-26.75-17.42-49.34-39.06-60.55-69.8-3.96-10.85-4.88-22.88-6.57-34.45-.79-5.42,2.72-8.79,8.16-8.98,5.34-.19,9.02,2.72,9.21,8.17,1.51,44.16,28.61,71.24,62.74,93.04,38.25,24.46,81.03,36.36,125.69,41.84,15.67,1.91,31.51,2.51,47.31,3.32,6.31.33,11.06,2.02,10.83,9.14-.22,7.1-5.18,8.85-11.42,8.54ZM610.03,267.31c-21.95,19.13-48.05,30.29-75.96,37.06-64.71,15.73-128.77,14.14-191.58-9.26-20.39-7.58-39-18.41-54.24-34.26-12.55-13.03-20.78-28.15-21.22-46.76-.14-5.35,2.06-9.1,7.62-9.62,5.79-.56,9.7,2.43,9.92,8.26.79,20.78,13.08,34.38,28.4,45.96,6.11,4.63,12.9,8.34,19.56,12.58,18.02-25.47,44.34-34.67,72.4-40.4,37.55-7.64,74.92-6.65,111.78,4.01,21.83,6.34,41.99,15.81,56.58,37.91,11.84-9.8,23.76-18.59,34.35-28.8,7.95-7.68,12.33-17.93,12.66-29.44.18-6.44,3.09-10.67,9.99-10.09,6.65.56,8.03,5.37,7.7,11.24-1.23,21.6-12.29,37.93-27.95,51.6ZM700.45,238.96c-5.34.21-9.03-2.7-9.25-8.15-1.66-44.14-28.86-71.12-63.07-92.8-38.35-24.32-81.17-36.07-125.85-41.38-15.67-1.85-31.52-2.41-47.31-3.15-6.32-.33-11.08-2-10.87-9.12.19-7.1,5.15-8.85,11.38-8.57,3.45.16,6.9.04,10.53.04,62.16,3.01,121.78,15.69,175.06,50.11,26.81,17.32,49.47,38.89,60.79,69.57,4,10.85,4.97,22.87,6.7,34.45.82,5.41-2.68,8.77-8.12,9ZM848.55,323.87c2.56-21.45,2.05-43.11-1.64-64.57,14.83,11.39,31,27.8,29.34,40.69-1.11,8.54-10.81,16.76-27.7,23.88Z"/>
</svg>