<?xml version="1.0" encoding="UTF-8"?>
<svg id="Layer_1" data-name="Layer 1" xmlns="http://www.w3.org/2000/svg" viewBox="0 0 879.11 879.11">
  <defs>
    <style>
      .cls-1 {
        fill: #fff;
      }

      .cls-2 {
        fill: #4ec3c7;
      }

      .cls-3 {
        fill: #ebeced;
      }
    </style>
  </defs>
  <circle class="cls-3" cx="439.56" cy="439.56" r="439.56"/>
  <circle class="cls-2" cx="439.56" cy="439.56" r="399.65"/>
  <g>
    <path class="cls-1" d="M654.07,605.74c-3.72,7.24-10.64,12.56-18.28,17.29-35.32,21.84-93.26,22.35-129.44,1.23-1.8-1.04-3.01-2.11-5.73-.54-37.27,21.46-91.88,21.44-129.04.02-1.78-1.03-2.83-1.12-4.72-.1-34.53,18.83-71.59,20.86-110.11,8.79-16.7-5.24-30.62-13.62-38.59-26.69v-5.24c.5-.89.97-1.79,1.5-2.67,5.23-8.86,21.35-11.08,28.31-3.05,16.97,19.58,63.09,24.65,91.91,11.3,1.57-.72,3.08-1.55,4.55-2.42,3.65-2.19,7.01-4.77,9.93-7.45,8.89-8.14,21.02-8.38,29.34.07,6.67,6.74,15.46,11.17,25.71,13.86,18.05,4.72,36.18,4.67,54.18-.24,10.4-2.83,18.98-7.56,25.72-14.4,7.13-7.24,19.98-7.58,27-.43,4.24,4.3,9.14,7.68,14.53,10.35,7.37,3.66,15.72,5.96,24.9,7.15,18.46,2.4,36.29.85,52.49-6.72,5.22-2.44,9.88-5.87,13.85-9.46,4.68-4.24,9.84-7,17.15-6.24,7.46.78,12.17,4.3,14.4,9.79.08.2.29.39.44.56v5.24Z"/>
    <path class="cls-1" d="M654.07,546.85c-7.95,13.09-21.89,21.44-38.6,26.69-9.29,2.9-18.49,4.97-27.6,6.21-28.64,3.89-56.3-.69-82.49-15.01-1.89-1.03-2.98-.87-4.72.14-37.32,21.43-91.93,21.43-129.04-.05-2.44-1.4-3.62-.67-5.4.35-19.64,11.37-45.28,16.57-70.32,15.57-20.25-.8-40.11-5.64-56.07-14.61-9.1-5.12-17.23-11.02-21.66-19.29v-5.23c.5-.89.97-1.79,1.5-2.67,3.54-6,12.04-8.85,19.34-7.63,3.49.57,6.73,1.99,8.97,4.59,17.01,19.62,63.15,24.63,91.91,11.3,5.45-2.53,10.38-6.11,14.49-9.88,8.88-8.14,21.02-8.37,29.34.06,6.67,6.76,15.46,11.18,25.71,13.88,18.34,4.78,36.74,4.68,54.98-.48,9.93-2.8,18.2-7.34,24.65-13.91,7.31-7.45,20.16-7.92,27.28-.69,10.04,10.19,23.53,15.44,39.43,17.51,18.46,2.4,36.29.84,52.5-6.72,5.22-2.44,9.88-5.87,13.85-9.46,4.68-4.24,9.84-7,17.14-6.24,1.07.11,1.96.41,2.91.62,5.73,1.33,9.58,4.45,11.49,9.16.08.2.29.36.44.56v5.23Z"/>
    <path class="cls-1" d="M669.08,372.39c-.93-.53-1.94-.77-2.95-.85-3.42-10.53-8.12-20.89-14.24-30.88-20.09-32.7-48.8-56.04-83.03-72.28-73.42-34.85-149.06-38-225.79-12.46-41.86,13.93-78.21,36.93-104.79,72.91-10.27,13.9-17.86,28.25-22.75,42.99-1.78-.56-3.76-.43-5.49.57-3.62,2.11-35.28,21.18-32.46,43.24,1.63,12.72,13.51,22.17,36.03,28.92,1.63,6.14,3.68,12.32,6.21,18.57,5.01,12.38,11.5,23.57,19.17,33.77,3.49.58,6.73,2,8.97,4.6,17.01,19.61,63.15,24.63,91.91,11.3,5.45-2.53,10.38-6.11,14.49-9.88,8.88-8.14,21.02-8.37,29.34.06,6.67,6.76,15.46,11.18,25.71,13.88,18.34,4.78,36.74,4.68,54.98-.48,9.93-2.8,18.2-7.34,24.65-13.92,7.31-7.44,20.16-7.91,27.28-.68,10.04,10.19,23.53,15.44,39.43,17.51,18.46,2.4,36.29.84,52.5-6.73,5.22-2.42,9.88-5.86,13.85-9.45,4.68-4.24,9.84-7,17.14-6.24,1.07.11,1.96.41,2.91.62.42-.53.88-1,1.29-1.54,12.48-16.27,20.91-34.05,25.41-52.43,20.35-6.67,31.15-15.8,32.69-27.88,2.82-22.05-28.83-41.13-32.45-43.24ZM210.44,429c-11.71-4.39-18.49-9.63-19.19-15.1-1.08-8.39,10.8-19.35,20.07-25.93-2.55,13.38-2.91,27.05-.88,41.03ZM429.45,464.13c-2-.09-4.02-.02-6.13-.03-36.21-1.89-70.91-9.4-101.88-29.56-15.59-10.15-28.74-22.76-35.27-40.66-2.31-6.32-2.84-13.33-3.83-20.07-.46-3.16,1.59-5.12,4.75-5.23,3.11-.11,5.26,1.59,5.36,4.76.88,25.72,16.67,41.5,36.55,54.2,22.29,14.25,47.21,21.18,73.22,24.38,9.13,1.11,18.36,1.46,27.56,1.94,3.68.19,6.45,1.18,6.31,5.32-.13,4.13-3.02,5.15-6.65,4.97ZM532.78,394.86c-12.79,11.15-28,17.65-44.25,21.59-37.7,9.16-75.02,8.23-111.61-5.39-11.88-4.42-22.72-10.73-31.6-19.96-7.31-7.59-12.1-16.4-12.36-27.24-.08-3.11,1.2-5.3,4.44-5.61,3.38-.33,5.65,1.42,5.78,4.81.46,12.11,7.62,20.03,16.54,26.78,3.56,2.7,7.52,4.86,11.4,7.33,10.5-14.84,25.83-20.2,42.18-23.54,21.87-4.45,43.65-3.87,65.12,2.33,12.72,3.69,24.46,9.21,32.96,22.09,6.9-5.71,13.84-10.83,20.01-16.78,4.63-4.47,7.18-10.44,7.37-17.15.11-3.75,1.8-6.22,5.82-5.88,3.87.33,4.68,3.13,4.49,6.55-.72,12.58-7.16,22.1-16.28,30.06ZM585.46,378.34c-3.11.12-5.26-1.57-5.39-4.75-.97-25.71-16.82-41.43-36.75-54.06-22.34-14.17-47.29-21.01-73.31-24.1-9.13-1.08-18.36-1.4-27.56-1.83-3.68-.19-6.46-1.17-6.33-5.31.11-4.13,3-5.15,6.63-5,2.01.09,4.02.02,6.13.02,36.21,1.76,70.95,9.14,101.98,29.19,15.62,10.09,28.82,22.65,35.41,40.53,2.33,6.32,2.89,13.32,3.9,20.07.48,3.15-1.56,5.11-4.73,5.24ZM671.74,427.81c1.49-12.49,1.2-25.11-.96-37.62,8.64,6.64,18.06,16.2,17.09,23.71-.65,4.97-6.3,9.76-16.14,13.91Z"/>
  </g>
</svg>