<?xml version="1.0" encoding="UTF-8"?>
<svg id="Layer_1" data-name="Layer 1" xmlns="http://www.w3.org/2000/svg" viewBox="0 0 504.42 396.96">
  <defs>
    <style>
      .cls-1 {
        fill: #1c355e;
        stroke-width: 0px;
      }
    </style>
  </defs>
  <path class="cls-1" d="M206.82,189.45c-3.9,2.34-6.75,4.04-9.8,5.86-5.1-4.57-8.15-10.35-9.43-16.73-1.84-9.21-6.54-16.03-14.46-20.84-1.15-.69-2.25-1.49-3.25-2.39-6.55-5.86-14.11-8.39-22.93-9.66-32.2-4.64-58.4-34.16-60.21-66.67-.07-1.34-.15-2.69-.1-4.03.19-4.97,1.54-6.42,6.37-6.72,2.01-.13,4.03-.04,6.05-.04,55.16,0,110.32,0,165.48,0h8.94c.55-2.51,1.09-4.42,1.39-6.38,4.94-32.83,32.37-57.18,62.87-61.23,39.64-5.26,77.25,23.38,82.5,63.43,5.19,39.58-23.32,77.7-63.58,82.2-5.77.65-10.83,2.27-15.2,6.18-2.16,1.93-4.61,3.57-7.04,5.18-7.64,5.07-12.77,11.83-14.42,20.99-.04.22-.14.42-.21.64-3.27,10.71-5.54,11.96-17.5,9.26.72-1.43,1.4-2.75,2.05-4.08,1.36-2.81,3.22-5.5,3.97-8.47,2.71-10.82,8.03-19.86,17.87-27.1-6.67-1.62-12.56-.71-18.36-.87-5.83-.16-11.66-.03-17.49-.03h-89.46c-6.04,0-12.08,0-19.36,0,1.68,1.84,2.49,3.01,3.55,3.84,5.45,4.26,9.64,9.57,11.6,16.15,2.24,7.53,4.28,15.05,10.17,21.5ZM99.18,80.83c.09,2.08.03,2.97.19,3.82,5.52,29.33,30.57,50.45,60.34,50.54,46.42.13,92.84.04,139.26.02,1.45,0,2.91-.18,4.36-.28.23-.42.46-.85.69-1.27-.94-.58-1.95-1.06-2.81-1.75-14.65-11.65-23.64-26.67-27.06-45.09-1.19-6.42-1.63-6.71-8.53-6.71-53.15-.03-106.3-.02-159.44.01-2.16,0-4.32.42-6.98.7ZM352.23,12.42c-.44,15.97-.13,31.49-.23,47.47,6.5-3.71,31.66-29.3,33.68-33.9-7.27-7.41-19.5-12.55-33.44-13.57ZM354.11,87.56c-.7.28-1.4.56-2.11.84,0,5.06,0,10.12,0,15.19,0,5.36-.2,10.74.06,16.09.24,4.97-1.22,10.15,1.35,15.27,12.46-1.43,23.39-5.53,33.44-14.55-11.08-11.38-21.91-22.1-32.74-32.83ZM308.67,121.36c8.96,7.81,19.84,12.26,32.25,13.36,2-8.07,1.63-41.93-.27-46.07-10.51,10.74-21.04,21.51-31.99,32.71ZM340.83,12.86c-11.02-.37-26.62,6.43-31.75,13.85,3.41,5.41,27.42,29.22,31.93,31.66,1.72-5.83,1.58-40.25-.18-45.51ZM287.02,65.98c4.69,1.78,9.65.74,14.5.9,5.15.17,10.32.21,15.47,0,4.69-.2,9.58,1.09,14.3-1.14-5.57-7.68-26.87-28.36-31.29-30.49-7.46,6.71-13.23,20.28-12.98,30.75ZM299.92,112.56c7.47-5.31,28.78-27.14,30.92-31.38-6.62-1.83-39.34-1.48-44.45.68,1.49,11.38,5.59,21.6,13.54,30.7ZM408.25,66.46c-1.3-12.71-5.46-23.04-13.66-31.7-7.59,5.31-28.67,27.03-30.73,31.7h44.4ZM408.17,81.32c-7.19-1.83-39.42-1.62-44.28.1,3.58,6.09,26.64,28.59,31.51,30.5,7.29-8.93,11.85-18.97,12.77-30.6Z"/>
  <path class="cls-1" d="M50.87,286.2c-5.02,32.55-10.04,65.1-15.06,97.65-.45,0-.9-.02-1.36-.03-4.92-32.15-9.85-64.3-14.77-96.45-.45-.03-.91-.05-1.36-.08-.14,1.33-.41,2.66-.41,3.98-.01,29.15-.14,58.3.14,87.44.06,5.7,1.73,11.39,2.74,17.59H.07c6.14-13.27,4.21-26.85,4.25-40.2.16-44.62.05-89.24.12-133.86.01-7.64.27-15.26-4.44-23.02,8.88-.69,16.78-.14,25.5-.37-5.85,13.08-.81,25.48.52,37.88,2.07,19.37,5.12,38.64,7.79,57.94.16,1.19.65,2.33,2,3.52.29-.94.73-1.85.86-2.81,3.57-26.19,7.06-52.39,10.69-78.57.82-5.93.11-11.55-2.72-17.5h24.98c-5.85,16.31-3.2,33.16-3.34,49.78-.34,38.34-.14,76.68-.03,115.02.03,10.68-1.46,21.55,4,32.3h-21.54c6.12-13.45,3.54-27.25,3.77-40.78.36-20.85.11-41.7.12-62.56,0-2.23,0-4.45,0-6.68-.57-.07-1.14-.14-1.71-.21Z"/>
  <path class="cls-1" d="M253.24,396.88c-31.17,0-62.34.01-93.5,0-10.49,0-11.86-1.61-10.28-11.83,2.63-17.03,14.03-29.3,31.03-32.99,8.53-1.85,17.12-3.42,25.73-4.87,7.94-1.34,15.04-4.41,21.1-9.66,2.19-1.9,4.41-2.69,7.27-2.66,12.78.1,25.56.12,38.34,0,2.91-.03,5.05.92,7.22,2.77,6.09,5.22,13.21,8.24,21.14,9.59,9.05,1.53,18.11,3.09,27.05,5.15,17.05,3.93,29.46,19.16,29.89,36.16.17,6.92-1,8.23-8.13,8.33-8.52.12-17.04.04-25.56.04-23.77,0-47.54,0-71.3,0ZM189,389.1c.96.73,1.47,1.45,1.99,1.46,9.18.09,18.42.7,27.54-.06,8.03-.67,11.21-8.44,6.99-15.58-1.21-2.05-1.68-3.72-1.24-6.18,1.29-7.32-2.32-11.8-9.65-12.07-7.17-.26-14.35-.13-21.52,0-1.32.02-2.63.88-4.18,1.43,5.94,7.23,5.89,24.66.08,31ZM292.91,390.03c.13-1.02.27-1.31.17-1.46-.56-.88-1.16-1.74-1.77-2.58-2.03-2.79-1.48-4.61,1.84-5.11,4.12-.63,8.06-.59,10.34,4.03.76,1.55,2.1,2.93,3.45,4.04,3.02,2.48,8.71,2.79,11.28.61.65-.55.96-1.89.86-2.8-.05-.48-1.31-1.11-2.06-1.16-1.08-.07-2.19.49-3.29.5-3.15.03-4.98-1.44-5.13-5.02,1.11-.77,2.18-1.54,3.27-2.29,4.75-3.26,6.79-7.66,5.39-13.34-1.19-4.83-6.29-8.58-12.25-8.78-6.71-.22-13.43-.08-20.15-.05-1.77,0-3.73-.09-4.08,2.93,5.43,3.4,3.61,9.1,3.68,14.23.08,5.36,1.37,11.1-4.89,15.65,5.15,1.89,9.07,1.88,13.34.59ZM273.89,389.03c-2-4.13-3.95-7.52-5.32-11.13-2.06-5.44-3.56-11.1-5.6-16.55-.64-1.71-2.15-4.22-3.45-4.34-5.86-.57-11.85-1.06-18.63.49,3.67,5.12,2.26,9.58.35,13.79-2.49,5.47-1.74,12.68-8.35,16.08-.17.09.51,2.99,1.01,3.05,3.63.5,7.44,1.51,10.83-1-.09-.91.02-1.64-.24-2.21-2.15-4.82-1.67-6.15,3.04-6.45,4.46-.28,8.98-.31,13.42.11,3.87.36,4.27,2.24,1.84,5.75-.55.79-.63,1.91-.92,2.87,6.35,2.18,8.7,2.02,12.03-.44Z"/>
  <path class="cls-1" d="M89.03,199.16h31.5c.22.66.59,1.17.47,1.46-3.12,7.25-2.97,14.81-2.4,22.47,3.22,43.59,6.35,87.19,9.55,130.79.69,9.39,1.33,18.79,2.4,28.14.53,4.62,2,9.12,3.24,14.55-6.87.59-13.57.32-20.93.08,6.57-15.75,1.53-30.66.85-45.87h-18.01c.05,15.23-5.25,30,1.29,45.33-7.18,1.41-13.87.66-20.85.58,5.4-17.81,4.62-35.66,6.12-53.21,3.05-35.73,5.43-71.53,8.07-107.3.5-6.71,1.47-13.43,1.31-20.12-.13-5.48-1.63-10.92-2.61-16.9ZM105.85,234.62c-.61-.03-1.22-.05-1.83-.08-2.22,33.15-4.44,66.29-6.69,99.91h15.25c-2.27-33.62-4.5-66.72-6.74-99.83Z"/>
  <path class="cls-1" d="M504.42,396.51h-20.88c6.73-15.39,1.19-30.31,1.05-45.74h-18.03c-.47,15.24-5.32,30.18,1.03,45.66h-20.5c5.17-21.35,4.77-42.94,6.65-64.29,2.58-29.24,4.43-58.54,6.59-87.82.51-6.93,1.05-13.86,1.54-20.79.57-8.04,1.25-16.1-3.63-24.2h33.69c-.51,1.75-1.15,3.38-1.46,5.07-.68,3.71-1.92,7.51-1.67,11.18,1.79,26.61,3.91,53.19,5.88,79.78,1.12,15.2,2.13,30.4,3.22,45.61.96,13.41,1.77,26.84,3.07,40.22.49,5.03,2.19,9.94,3.43,15.31ZM483.22,334.45c-2.28-33.92-4.53-67.33-6.77-100.75-3.35,10.28-8.63,95.45-7.09,100.75h13.86Z"/>
  <path class="cls-1" d="M157.51,351.75c-5.2,7.09-10.31,14.07-15.71,21.43-1.88-3.03-1.38-6.78-1.37-10.35.05-26.47.17-52.94.22-79.41.04-21.76.02-43.52.01-65.28,0-6.23.7-12.56-3.5-19.01,11.17,0,21.38-.38,31.54.22,3.25.19,6.7,2.54,9.44,4.68,5.59,4.37,8.39,10.62,8.57,17.6.31,11.88.22,23.78.03,35.66-.11,6.79-3.26,12.47-7.51,17.12,2.13,4.77,4.82,9.06,5.91,13.72,1.05,4.49.52,9.36.56,14.06.06,7.18.11,14.36,0,21.53-.09,5.87-.11,11.67,3.7,17.16-3.97.8-7.48,1.41-10.94,2.23-3.19.76-6.34,1.73-9.43,2.59-.25-.53-.46-.76-.41-.91,5.51-16.87,2.42-34.25,2.96-51.41.2-6.35-2.77-8.83-9.08-9.04-2.22-.07-4.45-.01-7.31-.01-.2,2.32-.51,4.25-.52,6.17-.04,16.15-.21,32.31.12,48.45.09,4.29,1.78,8.55,2.72,12.77ZM155.04,265.12c3.26,0,5.9.11,8.54-.02,5.71-.28,8.81-2.97,8.94-8.68.25-11.17.26-22.36-.03-33.53-.14-5.38-3.28-8.06-8.57-8.33-2.83-.14-5.67-.03-8.87-.03v50.59Z"/>
  <path class="cls-1" d="M328.15,285.11c1.25,19.32-2.45,38.72,2.91,58.34-6.73-1.24-13.24-2.43-20.56-3.77,5.67-9.66,3.6-19.82,3.67-29.69.21-29.14.12-58.29.07-87.43-.01-7.75,1.15-15.66-3.27-23.48,10.85,0,20.98-.89,30.87.25,9.55,1.1,16.52,7.99,17.29,17.29,1.25,15.08.84,30.36.1,45.51-.22,4.47-3.9,8.77-6.41,14.02,6.57,6.45,6.76,15.58,6.55,24.92-.22,9.86.02,19.73-.06,29.59-.09,9.65.07,19.27,2.24,28.75.37,1.63.05,3.41.05,6.38-3.64-4.07-6.34-7.52-9.49-10.48-3.08-2.88-6.63-5.26-10.59-8.34,4.78-6.25,3.63-13.73,3.67-21.03.05-9.64-.25-19.29.09-28.92.43-12.12-4.27-13.23-13.68-12.59-.85.06-1.69.33-3.43.69ZM328.67,214.83v49.86c2.14.17,3.87.41,5.6.44,9.23.12,11.88-2.49,11.93-11.89.06-9.38.11-18.77-.03-28.15-.12-7.77-2.94-10.5-10.51-10.56-2.18-.02-4.36.18-7,.3Z"/>
  <path class="cls-1" d="M245.51,237.73h-17.74c.53-5.51,1.47-10.74,1.43-15.97-.04-5.91-3.41-8.61-9.57-8.75-6.78-.15-10.06,2.37-10.76,8.32-.13,1.11-.08,2.24-.08,3.36,0,29.15,0,58.3.03,87.44,0,1.96.23,3.93.4,6.67,1.92-.69,3.44-.9,4.56-1.68,16.48-11.46,15.53-9.05,15.45-27.93-.02-5.11,0-10.23,0-16.2-3.56.83-6.26,1.45-9.41,2.18,0-4.01-.03-7.8.01-11.58.02-1.54.18-3.07.31-5.08h22.7c.19,1.55.56,3.24.57,4.93.05,13.23,0,26.46.04,39.69.02,7.7-2.88,14.03-9.02,18.62-5.56,4.16-11.24,8.19-17.12,11.87-2.77,1.73-6.06,3.08-9.27,3.58-6.94,1.06-12.26-3.21-13.4-10.12-.22-1.32-.17-2.68-.17-4.03,0-33.41-.05-66.82.09-100.22.01-3.51.64-7.21,1.84-10.5,4.19-11.49,14.54-16.69,28.39-14.7,9.65,1.39,17.69,10.96,18.63,21.92.51,5.93,1.34,11.83,2.07,18.18Z"/>
  <path class="cls-1" d="M304.77,338.37c-8.73-.63-15.59-4.08-21.67-10.33,6.69-8.1,3.16-16.65,2.28-25.5h-19.16c-1.4,7.48-3.67,14.93,1.2,22.84-6.91,1.34-13.24.5-19.66.66,5.09-20.04,5.52-40.19,8.19-60.02,2.36-17.53,3.75-35.19,6.19-52.7.7-5.02-.45-9.18-2.71-13.98h32.19c-5.2,9.81-1.21,19.72-.4,29.52,1.72,20.75,4.08,41.45,6.16,62.17.98,9.81,1.61,19.66,2.99,29.41.83,5.89,2.8,11.61,4.4,17.93ZM276.52,221.16c-.56.07-1.12.14-1.68.21-2.24,21.5-4.49,42.99-6.76,64.81h15.35c-2.34-22.06-4.62-43.54-6.9-65.02Z"/>
  <path class="cls-1" d="M432.75,396.5h-19.8c4.12-5.9,3.3-12.02,3.31-18,.03-52.02.04-104.04.05-156.06,0-2.64,0-5.28,0-8.09-8.2-2.18-14.71-.86-20.59,6.68.13-8.38,1.87-15.03,3.15-21.92h49.99c1.17,6.75,2.31,13.28,3.44,19.82-6.41-4.82-12.97-7.17-21.28-4.55-.12,1.97-.38,4.14-.38,6.3,0,54.71-.03,109.42.11,164.13,0,3.65,1.22,7.3,2,11.67Z"/>
  <path class="cls-1" d="M199.86,156.09c7.78-1.38,102.74-1.11,108.22.32-2.95,7.69-5.37,15.6-8.97,22.93-3.12,6.37-8.82,10.03-16.3,10.04-19.27.02-38.54.01-57.81.03-8.98,0-14.81-4.97-18.15-12.64-2.83-6.49-4.6-13.45-6.99-20.68Z"/>
  <path class="cls-1" d="M388.16,396.48h-20.53c3.94-6.92,2.97-13.92,2.98-20.79.04-52.46.05-104.92.05-157.39,0-6.43.87-12.99-3.36-19.23h19.22c-.53,6.08-1.47,11.98-1.48,17.89-.1,53.58-.04,107.17-.03,160.75,0,6.23-.59,12.54,3.15,18.77Z"/>
  <path class="cls-1" d="M110.45,89.69c1.56.7,3.24,1.21,4.65,2.14,27.48,18.07,56.39,17.77,86.26,7.03,10.1-3.63,20.2-7.66,30.65-9.76,9.78-1.96,20.03-1.63,30.08-2.26,2.74-.17,4.86.8,5.52,3.75,2.99,13.32,9.01,25.22,18.35,36.87-3.03.49-4.85,1.04-6.68,1.04-38.8.05-77.6.12-116.4-.01-16.87-.06-31.84-5.27-43.23-18.25-3.51-4-6.19-8.75-8.95-13.34-1.05-1.74-1.24-3.99-1.82-6.01.53-.4,1.05-.79,1.58-1.19Z"/>
  <path class="cls-1" d="M207.76,386.16c-1.79,0-3.59.07-5.38-.01-4.71-.22-5.61-1.12-5.67-5.46-.06-4.31.99-5.53,5.47-5.74,3.58-.17,7.18-.09,10.76,0,1.32.04,2.97.03,3.87.77,1.61,1.31,3.55,3.01,3.92,4.84.55,2.73-1.73,4.65-4.28,5.16-2.82.57-5.79.44-8.69.61,0-.06,0-.11,0-.17Z"/>
  <path class="cls-1" d="M206.8,361.32c2.22,0,4.46-.15,6.67.04,2.42.2,4.35,1.45,4.57,4.05.22,2.64-1.5,4.33-3.93,4.54-4.63.39-9.3.56-13.94.43-2.86-.07-3.39-2.41-3.34-4.85.06-2.61,1.14-4.26,3.97-4.28,2-.02,4.01,0,6.01,0,0,.02,0,.05,0,.07Z"/>
  <path class="cls-1" d="M288.58,361.3c5.82,0,10.49-.26,15.12.08,4.3.31,7.43,3.65,7.52,7.22.09,3.4-2.4,6.64-6.63,7.27-4.15.62-8.44.44-12.67.38-2.4-.03-3.6-1.69-3.62-3.99-.02-3.28.15-6.57.27-10.95Z"/>
  <path class="cls-1" d="M260.63,375.85h-15.55c-.7-4.93,1.38-8.75,3.14-12.46,1.59-3.36,6.85-2.94,8.72.44.64,1.15,1.01,2.48,1.39,3.75.69,2.3,1.29,4.62,2.3,8.27Z"/>
</svg>