<?xml version="1.0" encoding="UTF-8"?>
<svg id="Layer_1" data-name="Layer 1" xmlns="http://www.w3.org/2000/svg" viewBox="0 0 600 429.55">
  <defs>
    <style>
      .cls-1 {
        fill: #1c355e;
        stroke-width: 0px;
      }
    </style>
  </defs>
  <path class="cls-1" d="M583.39,213.05l-134.44,40.36c2.92,7.45,4.93,15.36,5.75,23.64l128.69-36.46c8.91-2.2,16.61-10.92,16.61-18.62s-7.7-11.93-16.61-8.93Z"/>
  <path class="cls-1" d="M131.64,342.45c-3.64,1.06-7.29.51-8.91-1.86-9.32-11.46-32.4-14.44-59.14-6.64C28.36,344.23,0,369.51,0,390.98h0c0,21.06,28.35,30.21,63.59,19.93,26.73-7.8,49.42-24.14,59.14-41.15,2.03-3.43,5.27-5.99,8.91-7.06l29.83-8.45c-3.1-5.87-5.82-11.98-8.09-18.33l-21.74,6.52Z"/>
  <path class="cls-1" d="M453.37,203.78c-2.23,3.49-4.1,7.22-5.57,11.15l19.75-5.93c4.46-1.3,8.51-.86,10.13,1.91,6.89,9.33,21.47,12.77,38.08,7.93l78.17-22.81c3.24-1.35,6.08-4.2,6.08-7.04h0c0-2.43-2.84-3.63-6.07-2.68l-66.83,19.5c-3.24.95-6.07-.25-6.07-2.68s2.84-5.69,6.07-6.63l66.83-19.5c3.24-.94,6.07-3.8,6.07-6.23s-2.84-4.03-6.07-3.09l-67.24,19.62c-3.24.94-6.07-.66-6.07-3.09s2.84-5.69,6.07-6.63l67.24-19.62c3.24-.95,6.07-3.8,6.07-6.23s-2.84-4.03-6.07-3.09l-67.24,19.62c-3.24.95-6.07-.25-6.07-2.68s2.84-5.69,6.07-6.63l67.24-19.62c3.24-.95,6.07-3.8,6.07-6.23s-2.84-4.03-6.07-3.09l-77.77,22.69c-17.01,4.96-31.59,17.32-38.48,30.67-1.62,3.71-6.07,7.04-10.13,7.81l-8.88,2.52c-.91,2.94-2.25,5.69-3.97,8.16-.45.64-.91,1.27-1.33,1.93Z"/>
  <path class="cls-1" d="M145.36,276.58l-129.15,36.59C7.29,315.77,0,323.16,0,330.45c0,6.89,7.29,10.43,16.2,7.83l129.24-38.8c-.4-4.47-.63-8.99-.63-13.58,0-3.15.22-6.25.54-9.32Z"/>
  <g>
    <polygon class="cls-1" points="316.71 181.46 314.17 193.86 319.07 192.43 316.71 181.46"/>
    <path class="cls-1" d="M276.69,249.12c-1.48-.23-2.99-.12-4.54.33v28.76l1.83-.87c4.38-2.46,7.18-6.23,8.4-11.3.58-2.38.87-4.53.87-6.45,0-2.95-.6-5.34-1.79-7.17-1.19-1.82-2.78-2.93-4.78-3.31Z"/>
    <path class="cls-1" d="M443.01,203.78c.42-.66.88-1.29,1.33-1.93,1.72-2.47,3.06-5.22,3.97-8.16.86-2.78,1.34-5.73,1.34-8.8,0-22.97-13.01-42.86-32.07-52.75,2,5.96,3.1,12.33,3.1,18.96,0,16.53-13.46,29.88-30.04,29.7h-.1c-5.28-5.42-8.48-12.69-8.48-20.79,0-4.19.87-8.17,2.43-11.79.74-1.7,1.76-3.26,2.93-4.69,4.19-5.12,6.7-11.66,6.7-18.8,0-25.23-15.69-46.74-37.84-55.36,2.6,6.69,4.05,13.96,4.05,21.57,0,15.97-12.56,28.97-28.35,29.67,5.73-9.13,9.04-19.94,9.04-31.53C341.03,40.42,302.12.93,253.67,0c10.91,14.79,17.37,33.08,17.37,52.89,0,11.58-3.3,22.37-9.02,31.5-2.15,3.43-6.76,7.85-10.18,10.9-2.02,1.8-4.14,3.5-6.36,5.05-23.16,16.08-38.3,42.87-38.3,73.24,0,2.24.14,4.45.38,6.63-8.58-10.3-13.75-23.54-13.75-38.01,0-12.2,2.45-23.82,6.88-34.4-29.79,14.41-50.32,44.92-50.32,80.26,0,7.47,1.38,14.61,3.89,21.19.9,2.36,5.1,10.35,7.18,16.71,1.75,5.36,2.94,11.14,2.49,17.05-.48,6.25-3.47,12.58-4.14,14.6-2.02,6.06-3.36,12.42-4.04,18.98-.32,3.07-.54,6.16-.54,9.32,0,4.59.23,9.12.63,13.58,1.13,12.75,3.82,24.96,7.94,36.44,2.28,6.35,4.99,12.46,8.09,18.33,23.91,45.26,71.41,75.31,128.16,75.31,82.06,0,144.82-62.8,144.82-143.65,0-2.99-.2-5.93-.48-8.85-.82-8.28-2.83-16.18-5.75-23.64-.64-1.65-1.23-3.32-1.96-4.92-.97-2.1-1.81-4.26-2.29-6.51-.43-2-.65-4.08-.65-6.21,0-7.34,1.33-14.36,3.76-20.84,1.47-3.93,3.34-7.66,5.57-11.15ZM365.58,211.52l-1.74,4.6c-.9,3.07-1.35,5.52-1.35,7.36v55.97c3.93-1.15,7.55-2.59,10.86-4.34,3.31-1.74,6.58-4.01,9.8-6.79l-4.83,19.11-36.39,10.64,1.25-2.25c.71-1.39,1.21-2.86,1.5-4.42.29-1.56.43-3.56.43-5.99v-56.86c0-4.65-1.06-8.02-3.19-10.13l23.65-6.91ZM312.62,227l24.03-7.03c-.32.68-.68,1.45-1.06,2.3-.39.85-.71,1.68-.97,2.5-.84,2.6-1.25,5.05-1.25,7.33v56.97c0,4.42,1.06,7.95,3.19,10.57l-23.84,6.97c2.19-3.96,3.28-8.11,3.28-12.46v-57.08c0-4.35-1.13-7.71-3.38-10.08ZM324.02,320.21l29.16-8.52c1.48-.44,2.97.68,2.97,2.22,0,1.03-.68,1.94-1.67,2.22l-29.16,8.52c-1.48.43-2.97-.68-2.97-2.22,0-1.03.68-1.93,1.67-2.22ZM338.18,166.43l.15.81c.25,1.13.6,2.07,1.05,2.81l10.46,17.31v-19.31c0-1.68-.25-3-.75-3.96l-.45-.72,8.67-2.53-.37.96c-.52,1.53-.78,3-.78,4.4v25.64c0,1.88.17,3.37.52,4.47l.3.82-7.13,2.08-10.38-17.53v15.34c0,1.94.4,3.57,1.19,4.88l-8.67,2.53c.42-.86.72-1.7.88-2.52.16-.82.24-1.83.24-3.04v-26.2l-1.91-4.22,6.99-2.04ZM306.25,204.87l6.65-25.07c.32-1.2.58-2.3.76-3.29.19-.99.34-2.01.47-3.05l6.28-1.83.15.81.11.87c.3,1.66.59,2.98.86,3.97l5.49,20.62c.65,2.36,1.53,4.48,2.65,6.37l.45.72-9.19,2.68.11-.89c0-.24.01-.5.04-.79.02-.29.04-.52.04-.69,0-.94-.11-1.83-.34-2.67l-1.16-4.69-6.13,1.79-1.08,4.34c-.3,1.29-.45,2.59-.45,3.9,0,.27.01.54.04.82.02.28.04.5.04.67l.11.77-9.23,2.7c1.42-2.33,2.53-5.01,3.32-8.06ZM284.22,187.03c2.74-4.32,6.24-7.1,10.5-8.35.95-.28,1.94-.47,2.97-.57,1.03-.1,2.1-.06,3.19.12l.71.14.22,8.38c-.32-.58-.64-1.04-.93-1.39-.17-.18-.47-.48-.9-.9-1.62-1.57-3.36-2.09-5.23-1.54-1.39.41-2.66,1.37-3.81,2.87-1.15,1.51-2.04,3.48-2.69,5.91-.32,1.24-.58,2.49-.77,3.77-.19,1.28-.28,2.57-.28,3.88,0,2.28.31,4.4.93,6.36.62,1.96,1.57,3.38,2.84,4.25,1.27.87,2.66,1.08,4.18.64,1.79-.52,3.49-1.91,5.08-4.15.77-1.13,1.38-2.23,1.83-3.3l-.82,8.28c-1.44,1.39-3,2.52-4.67,3.38-1.02.5-2,.89-2.95,1.16-3.98,1.16-7.23.4-9.75-2.28-2.52-2.69-3.77-6.76-3.77-12.22s1.37-10.16,4.11-14.47ZM277.3,184.22c-.12.31-.26.65-.41,1.03-.15.38-.27.75-.37,1.12-.32,1.17-.49,2.27-.49,3.31v25.9c0,2.01.41,3.63,1.23,4.87l-9.23,2.7c.85-1.76,1.27-3.62,1.27-5.6v-25.94c0-1.98-.44-3.53-1.31-4.65l9.3-2.72ZM249.99,192.21c0,.8.03,1.35.09,1.63.06.28.3.95.73,2l2.95,7.18,3.06-8.99c.32-.93.54-1.67.63-2.22.1-.55.15-1.16.15-1.83l8.25-2.41-.49.9-.63,1.24c-1.05,2.08-1.88,3.9-2.5,5.46l-5.08,12.8,5.15,9.96c1.3,2.44,2.57,4.36,3.81,5.78l-9.19,2.68c0-.74-.04-1.28-.11-1.63s-.34-1.06-.78-2.13l-2.73-6.44-2.65,8.02c-.42,1.23-.69,2.09-.78,2.57-.1.48-.15,1.06-.15,1.73l-8.37,2.44.41-.77.75-1.37c.45-.87,1-2,1.64-3.4.52-1.13.91-1.99,1.16-2.6l4.67-11.72-5.57-10.69c-.4-.72-.77-1.36-1.1-1.92-.34-.55-.81-1.24-1.44-2.07l-1.2-1.46,9.3-2.72ZM222.98,200.1l15.65-4.57-2.35,7.73c-1.32-.29-2.63-.34-3.92-.16l-1.46.33v9.5l6.87-2.01-2.84,7.37c-.55-.14-1.2-.24-1.94-.29-.75-.05-1.44-.03-2.09.06v10.31c2.52-.74,4.89-1.77,7.13-3.09l2.24-1.46-2.5,8.17-14.87,4.35c.85-1.59,1.27-3.47,1.27-5.65v-25.85c0-1.91-.4-3.49-1.19-4.73ZM197.21,207.64c-.08.79.12,1.52.6,2.19l7.36,10.52,7.47-15.05.34-.65c.22-.57.34-1.14.34-1.71l7.13-2.09-2.09,4.33v27.25c0,2.15.42,3.76,1.27,4.86l-8.78,2.56c.42-.76.73-1.56.91-2.4.19-.84.28-1.9.28-3.17v-17.05l-6.84,13.61-6.87-9.76v17.15c0,1.98.4,3.62,1.2,4.93l-8.82,2.57c.5-.85.84-1.66,1.03-2.44.19-.77.28-1.87.28-3.27v-27.15l-2.13-3.1,7.32-2.14ZM184.44,304.95c0-11.87,3.59-22.82,10.76-32.85,7.18-10.02,16.23-16.64,27.17-19.83,5.92-1.73,11.97-2.25,18.15-1.54l2.41.4v17.81c-1.42-2.02-3.44-3.86-6.08-5.52-2.25-1.33-4.55-2.15-6.9-2.46-2.35-.31-4.68-.12-7,.55-4.05,1.18-7.71,3.65-10.95,7.41-3.25,3.75-5.65,8.44-7.19,14.05-.19.65-.47,1.85-.82,3.61-.35,1.76-.59,3.18-.72,4.25-.39,2.92-.58,5.59-.58,8.02,0,9,2.09,15.69,6.27,20.07,3.99,4.22,8.98,5.45,14.96,3.7,1.35-.39,2.83-1.01,4.44-1.85l.77-.45.58-.39v-18.36c0-1.62-.35-3.51-1.06-5.66-.26-.74-.53-1.39-.82-1.97s-.72-1.34-1.3-2.27l22.97-6.72-1.16,2.77c-1.22,3.38-1.83,6.4-1.83,9.06v11.61c0,4.13.52,7.7,1.54,10.72l-3.57,2.7c-4.25,3.01-8.43,5.56-12.55,7.65-4.12,2.09-7.95,3.65-11.49,4.68-11,3.22-19.75,2.16-26.25-3.16-6.5-5.33-9.75-14-9.75-26.02ZM277.24,338.71l-67.77,19.81c-1.48.44-2.97-.68-2.97-2.22,0-1.03.68-1.94,1.67-2.22l67.77-19.81c1.48-.43,2.97.68,2.97,2.22,0,1.03-.68,1.93-1.67,2.22ZM389.43,326.5c3.55,17.69-.94,55.1-38.73,64.4-31.89,7.85-62.14-16.03-62.14-82.78,0-24.13-15.93-25.72-15.93-25.72v24.45c0,4.65,1.03,8.18,3.09,10.6l-23.74,6.94c1.22-1.91,2.08-3.78,2.56-5.62.48-1.84.72-4.12.72-6.85v-57.19c0-4.5-1.09-7.83-3.28-9.99l23.94-7c1.7-.43,4.34-.9,4.73-.94,3.22-.42,6.03-.4,8.45.08,2.41.47,4.55,1.4,6.42,2.77,3.92,3.06,5.89,7.57,5.89,13.55,0,3.54-.72,7.07-2.17,10.59-1.45,3.52-3.59,6.73-6.42,9.62l-2.51,2.42s15.16.92,17.57,29.89c2.01,24.17,12.54,50.69,28.96,50.69,21.02,0,24.32-22.42,28.96-38.62,4.21-14.67,17.76-19.31,29.71-19.31,3.84,0,7.96,1.09,11.33,2.41-9.2,2.77-21.05,7.45-17.4,25.63ZM420.01,275.25l-36.39,10.64,1.25-2.25c.71-1.39,1.21-2.86,1.5-4.42.29-1.56.43-3.56.43-5.99v-56.86c0-4.65-1.06-8.02-3.19-10.13l23.65-6.91-1.74,4.6c-.9,3.06-1.35,5.52-1.35,7.36v55.97c3.93-1.15,7.54-2.59,10.86-4.34,3.31-1.74,6.58-4.01,9.8-6.79l-4.83,19.11Z"/>
  </g>
</svg>