<?xml version="1.0" encoding="UTF-8"?>
<svg id="Layer_1" data-name="Layer 1" xmlns="http://www.w3.org/2000/svg" viewBox="0 0 486 276.12">
  <defs>
    <style>
      .cls-1 {
        fill: #1c355e;
        stroke-width: 0px;
      }
    </style>
  </defs>
  <path class="cls-1" d="M266.88,207.68c-1.95-1.63-2.88-2.1-.77-3.29,7.92-4.48,8.28-15,.42-19.61-6.91-4.05-15.73-4.32-22.95-3.78-.8-.01-1.78.05-2.69.26-1.73.39-2.8,2.18-2.25,3.83,0,0,0,.02,0,.03,1.62,4.77.44,9.23-.18,14.44-1.31,10.88-2.22,17.37-2.75,25.4-.26,3.94,12.06,4.35,16.15,4.77,14.18,1.45,26.56-11.54,15.02-22.05ZM261.49,217.79c-1.58,4.46-6.14,4.92-11.02,4.6-6.41-.15-4.98-6.01-4.56-10.88.65-7.43,19.21-2.06,15.57,6.28ZM263.19,196.44c-.49,4.38-7.98,4.58-13.54,4.09-2.47-.22-2.65-3.52-2.33-7.21.28-3.33,1.63-5.02,5.13-5.2,5.64-.29,11.62,1.31,10.75,8.33Z"/>
  <path class="cls-1" d="M313.99,188.25c-1.72.26-2.5,1.84-1.37,3.22,2.73,3.32,1.84,6.69,1.1,10.75-1.74,9.5-2.93,16.82-4.98,27.05-.55,2.72-.72,5.27,3.53,5.42,4.48.16,4.99-.67,6.66-10.14.38-2.13.57-4.59,2.48-4.36,1.68.21,2.44,3.66,3.38,6.04,1.54,3.68,1.86,4.68,3.17,8.31.64,1.77,5.73,2.37,8.41,2.2,4.06-.26-6.74-15.2-4.48-17.22,1.54-1.38,1.46-.71,6.62-3.82,6.29-4.11,9.62-13.11,6.22-17.56-6.03-7.94-21.68-11.26-30.74-9.87ZM324.6,212.98c-5.77-.14-4.4-3.89-3.16-9.55.87-3.99.98-7.35,5.31-6.8,16.7,2.13,10.38,16.37-2.14,16.35Z"/>
  <path class="cls-1" d="M291.5,184.92c-4.01-.39-8.12,10.83-12.21,20.54-2.07,5.4-4.1,11.28-6.08,16.66-3.12,8.5.44,9.25,5.97,8.93,2.49-.14,1.96-10.41,4.86-10.36,3.47.06,5.83.33,9.75,1,3.56.61.71,10.18,3.56,10.64,2.84.45,7.28,1.01,7.22-.52-1.5-13.7-2.17-28.64-3.95-42.44-.55-4.28-4.85-4.04-9.13-4.45ZM292.74,215.73c-6.64-.33-8.82-.86-7.73-4.9.52-1.94,7.14-21.73,9.14-9.65,1.46,8.81,1.69,14.52-1.4,14.55Z"/>
  <path class="cls-1" d="M241.07,175.42c5.36.19,10.86.2,16.18.21,9.34.01,18.99.03,28.47,1.05,14.68,1.38,29.14,3.91,42.69,6.39,4.58.87,9.33,1.51,14.13,1.89-8.53-5-24.17-9.43-44.41-12.53-18.11-2.78-37.43-4.08-49.28-3.31-1.08.23-2.22.32-3.32.42-2.36.2-4.6.39-6.25,1.77-.64.6-.85,1.45-.54,2.31.36.99,1.29,1.71,2.33,1.8Z"/>
  <path class="cls-1" d="M218.71,68.53c-3.58-11.49-20.98-7.84-20.72,3.33,1.21,14.73,24.31,10.18,20.72-3.33Z"/>
  <path class="cls-1" d="M264.4,67.87c-1.67-11.78-20.69-9.91-19.96,1.91,1.56,12.31,20.94,11.16,19.96-1.91Z"/>
  <path class="cls-1" d="M483.03,103.31c-2.71-9.1-7.14-17.49-13.17-24.92l-52.91-65.2c-3.32-4.09-7.61-7.45-12.42-9.72-4.81-2.27-10.18-3.47-15.52-3.47H96.99c-5.34,0-10.71,1.2-15.52,3.47-4.81,2.27-9.11,5.63-12.42,9.72L16.14,78.39c-6.03,7.43-10.46,15.81-13.17,24.92-2.71,9.1-3.57,18.5-2.56,27.93l3.77,35.11c1.35,12.55,6.3,24.41,14.33,34.31l50.54,62.28c3.32,4.09,7.61,7.45,12.42,9.72,4.81,2.27,10.18,3.47,15.52,3.47h292.03c5.34,0,10.71-1.2,15.52-3.47,4.81-2.27,9.11-5.63,12.42-9.72l50.54-62.28c8.03-9.89,12.98-21.75,14.33-34.31l3.77-35.11c1.01-9.43.15-18.82-2.56-27.93ZM463.67,107.08c.07.12.55.52,3.83.55.74.05.98.45,1.05.63.09.21.17.65-.28,1.14-4.59,5.17-10.45,9.04-16.05,12.57-.16.11-.4.26-.69.43-.84.51-2.79,1.69-2.91,2.42,0,.03-.01.08.04.16,2.05,1.49,4.48,2.24,6.6,2.78.34.06.62.32.7.67.16.74-.51,1.29-2.66,2.8-.42.3-1,.71-1.12.82-.03.03-.08.08-.11.11-3.61,2.73-7.88,5.2-13.44,7.75l-.09.04c-.7.34-1.05.56-1.22.71,1.12.7,2.38,1.19,3.92,1.7.22.08.79.3.86.88.04.36-.13.68-.51.95-3.16,2.62-7.15,3.13-10.64,3.28-1.92.03-3.7-.51-5.43-1.03-1.32-.4-2.57-.77-3.87-.91-.04,0-.09-.01-.13-.03-5.21-1.46-8.67-1.52-10.54-1.55-1.35-.02-2.03-.03-2.32-.7-.3-.69.18-1.19,1.61-2.64.91-.93,2.28-2.33,4.05-4.37.13-.35.09-.62-.13-.89-2.46-2.96-19.69-2.35-22.38-1.81-.11.02-.23.02-.35,0-1.23-.31-1.45-1.06-1.46-1.49-.11-2.6,7.94-7.21,9.25-7.7.72-.33,1.39-.17,1.9.01,3.57,1.26,7.4,2.38,11.71,3.44,4.54,1.1,9.64,1.74,16.05,2.03h1.03c3.3.02,6.69.03,9.98-.46-1.22-.13-2.46-.2-3.69-.28-1.76-.11-3.57-.22-5.32-.48-8.04-1.07-15.83-3.07-23.14-5.94-.04-.02-.08-.03-.11-.06-1.03-.61-1.22-1.34-1.19-1.85.1-1.96,3.58-3.73,8.12-5.85,1.3-.6,2.64-1.23,3.02-1.54.04-.03.07-.05.11-.08,2.32-1.3,4.83-.75,7.05-.25.28.06.56.12.84.18,7.31,1.43,14.64,1.86,21.78,1.28.05,0,.11,0,.16,0,.47,0,3.02-.33,5.24-.75-.24,0-.47.01-.7.02-3.21.08-6.54.16-9.82-.25-1.02-.16-2.02-.28-3.09-.41-3.46-.42-7.03-.85-10.04-2.52-.05-.03-.1-.07-.15-.11-.46-.42-.5-.86-.46-1.14.11-.79.98-1.23,1.61-1.55.14-.07.26-.13.35-.19.03-.02.07-.04.11-.06,6.41-2.73,14.92-6.19,23.94-8.79,4.5-1.4,6.71-2.24,7.79-2.74-1.23-.06-3.73,0-8.78.41-.86.16-1.85.34-2.92.53-3.94.71-8.84,1.59-12.42,2.41-.03,0-.06.01-.1.02-1.09.11-1.59-.31-1.82-.68-.55-.88-.12-2.24,1.45-4.55,1.48-2.12,3.46-3.73,5.39-5.27-4.21,1.75-7.84,4.94-11.37,8.04l-.35.31c-4.88,5.87-8.06,7.1-13.83,9.32-.83.32-1.71.66-2.67,1.04-1.21.51-2.15.73-2.75.16-.65-.63-.3-1.65.24-2.93,2.19-5.33,5.63-9.97,9.4-14.53-6.43,4.3-9.95,11.13-13.38,17.75-.33.65-.67,1.3-1.01,1.94-.04.08-.1.15-.17.21-2.61,2.34-5.81,3.91-8.9,5.43-1.53.75-3.12,1.53-4.58,2.38-.09.05-.2.09-.3.1-1.05.13-1.65-.34-1.96-.76-1.63-2.18.53-9.68,6.41-22.29-5.6,6.27-9.54,15.17-10.8,24.52-.15,1.48-.9,2.76-2.23,3.75-3,2.25-6.27,4.65-10.01,7.35-1.93,1.59-3.37,1.39-4.23.93-2.51-1.34-2.95-6.32-2.63-8.69,1.08-9.09,3.79-16.84,8.06-23.03.28-.34.74-.99,1.27-1.74,4.1-5.82,6.34-8.42,7.97-7.46.2.12.34.32.37.55.65,4.87,1.17,6.13,1.49,6.33.3-.07,1.28-1.26,2.08-2.21,1.62-1.94,3.85-4.61,7.13-6.63,3.33-2.4,6.21-4.14,9.02-5.44.69-.25,1.1-.03,1.28.13.68.57.43,1.71.15,3.03-.09.41-.22,1.04-.2,1.22,0,.04,0,.06.01.09.03.4-.02.89-.08,1.41-.07.65-.2,1.99.09,2.22.05.04.25.07.66-.05,1.7-.98,23.38-13.34,26.37-11.15.22.17.72.65.41,1.61-.02.05-.04.1-.07.15-1.13,1.95-.81,2.39-.81,2.4.39.5,3.25-.23,4.63-.58,1.48-.38,2.89-.74,3.9-.72.62-.05,1.24-.11,1.85-.17,3.47-.33,7.05-.67,10.6.28.42.07.63.33.73.53.1.2.17.54-.07.96-.06.13-.21.39-.39.7-.26.44-.93,1.58-.9,2,.01,0,.03,0,.05.01,2.15.27,4.28.61,6.45,1,2.7.49,5.04,2.12,6.41,4.45.02.03.03.05.05.08,1.67,2.85,1.64,6.36-.08,9.17-.43.7-.84,1.34-1.2,1.91-.79,1.23-1.78,2.77-1.59,3.11ZM449.99,186.37c.57,1.08,1.19,2.14,1.78,3.17.78,1.35,1.59,2.75,2.3,4.18,0,.01.01.03.02.04,1.1,2.3.75,5.02-.87,7.01l-6.34,7.81c-1.32,1.62-3.87,1.5-5.02-.23-3.52-5.32-7.46-10.9-12.12-15.71-.71-.54-1.83-2.26-1.31-3.25.15-.29.63-.9,1.9-.44,5.45,1.55,10.09,4.75,14.58,7.85.97.67,1.96,1.36,2.96,2.02-3.13-3.86-7.77-6.96-11.96-9.76l-1.25-.83c-3.17-1.89-6.71-3.23-10.49-3.96-.21-.03-.46-.06-.71-.09-1.22-.14-2.61-.29-3.66-1.38-.52-.45-1.09-.95-1.67-1.45-1-.88-2.01-1.76-3.03-2.61-.96-.69-.92-1.45-.8-1.84.32-1.09,1.78-1.6,2.69-1.67,8.05-1.39,16.03.43,22.69,2.69-4.98-2.64-11.02-4.34-18.31-5.18-2.92-.47-5.14-.17-7.1.1-3.58.49-6.66.91-11.49-3.36-.31-.32-1.15-.82-1.96-1.29-2.38-1.4-4.08-2.49-4.25-3.8-.05-.35,0-.88.5-1.37,3.16-3.09,7.59-4.16,11.87-5.19,1.46-.35,2.84-.68,4.17-1.09.29-.07.55-.14.78-.2-.11-.01-.22-.02-.33-.04l-1.02-.11c-5.2-.11-10.07.79-14.38,2.68-3,1.41-6.28,2.59-9.78,1.63-.03,0-.06-.02-.09-.03-1.11-.45-2.21-.93-3.31-1.4-3.42-1.47-6.95-2.99-10.62-3.86-.95-.25-1.89-.45-2.78-.62-1.68-.32-2.15-1.37-2.28-1.97-.36-1.62.89-3.74,2.28-4.73,5.99-5.36,14.21-8.69,22.57-9.14.61-.04,1.22-.13,1.87-.22,1.34-.2,2.72-.4,4.13-.12.04,0,.08.02.11.03.58.21.76.61.82.83.19.76-.48,1.46-1.12,2.14-.22.24-.57.6-.61.72-.02.04-.05.1-.08.14l-.28.39c-3.28,4.57-3.57,6.22-3.25,6.8.18.32.83.33,1.2.32,14.64-1.71,26.24.11,34.44,5.4.68.52,1.29,1.05,1.31,1.78.02.73-.56,1.29-1.15,1.8-.51.48-1.07.95-1.62,1.41-1.3,1.1-2.54,2.13-3.37,3.48-.09.19-.06.32-.02.43.42.95,3.29,1.8,5.4,2.43,2.04.61,3.81,1.14,4.67,1.9,7.38,4.08,13.43,8.82,17.99,14.09.43.41.57.83.42,1.24-.24.67-1.03.74-1.61.79-.1,0-.2.02-.27.03-.23.03-.47.05-.72.07-.84.08-2.4.23-2.65.69-.08.15,0,.47.22.86ZM430.35,228.96c-2.85,3.52-7.8,4.7-11.98,2.84-2.88-1.28-5.67-2.74-8.4-4.18-.05-.02-.09-.05-.13-.09-1.09-.9-1.74-1.07-1.97-.95-.34.19-1.03,1.24-.09,6.97.04.15.02.32,0,.44,0,.24-.13.49-.33.63-.2.14-.45.21-.68.14-.19-.04-.4-.09-.6-.24-.66-.5-1.33-.98-2-1.47-1.59-1.16-3.24-2.36-4.78-3.65-4.94-4.17-8.9-9.31-12.72-14.28l-.95-1.24c-.15-.16-.42-.4-.66-.35-1.01.2-2.16,3.38-2.59,4.58-.15.43-.29.79-.39,1.03-.18.36-.46.55-.79.57-.01,0-.03,0-.04,0-.57.02-.92-.45-1.16-.77l-.06-.09c-.53-.68-1.04-1.33-1.56-1.98-2.4-3.05-4.89-6.21-6.97-9.59-1.05-1.46-1.95-3.14-2.83-4.77-1.4-2.6-2.84-5.28-4.97-7.17-.56-.11-1.41,1.04-2.03,1.9-.45.61-.87,1.19-1.32,1.55-.06.05-.13.09-.2.11-.31.12-.66.1-.97-.08-1.95-1.09-3.63-11.76-3.65-11.86-1.31-6.38-1.13-13.11.55-19.4.72-2.24,2.02-3.81,3.89-4.68,4.67-2.2,11.65.41,16.28,2.13l.26.1c1.71.7,1.14,2.33.86,3.11-.04.12-.09.24-.12.36-1.36,3.93-2.1,7.16-2.33,10.21-.38,7.97-.48,17.08,2.84,25.23-.7-7.93-2.16-32.53,6.33-34.6.07-.02.13-.02.2-.02,1.55.02,9.56,3.46,10.94,5.84.38.66.25,1.16.11,1.44-4.4,12.26-2.13,25.24.54,33.97l.46,1.36c1.14,3.41,2.39,7.17,4.43,10.19-.66-1.96-1.22-3.95-1.76-5.89l-.33-1.17c-3.32-11.52-3.59-23.07-.79-33.4.27-1.11,1.24-2.14,2.41-2.55.98-.35,1.96-.22,2.74.35,2.33,1.72,4.65,3.44,6.96,5.18,1.07.81,1.55,1.95,1.42,3.41-.31,4.41-.04,8.55.78,12.3,1.68,8.33,4.6,14.42,10.98,21.96,1.32,1.59,2.72,2.89,4.26,3.95-.75-1.24-1.61-2.46-2.46-3.66-.96-1.37-1.95-2.78-2.79-4.22-4.61-7.04-6.08-12.82-6.74-21,0-.05,0-.1,0-.15.03-.26-.03-.82-.09-1.36-.17-1.49-.36-3.18.54-4.02.27-.25.76-.53,1.54-.41.08.01.16.04.24.08,2.11,1.08,3.85,2.76,5.54,4.38.81.78,1.64,1.58,2.49,2.29.9.87,1.76,1.7,2.61,2.53,3.2,3.1,6.47,6.28,9.62,9.58,2.34,2.45,2.49,6.2.36,8.83l-7.91,9.74ZM354.15,121.48c-1.81,11.42-4.62,20.89-8.6,28.95,0,.01-.01.03-.02.04-3.32,5.78-6.99,9.04-10.26,9.17-.37.01-.73-.01-1.08-.08-2.21-.41-5.08-2.61-6.22-10.75-1.38-9.33-1.17-17.28.62-24.33,2.73-8.67,6.1-19.42,14.21-26.13.03-.03.07-.05.11-.07,2.75-1.58,4.9-1.07,6.21-.36,3.43,1.86,5.41,7.21,5.53,11.32.29,4.84.11,8.37-.51,12.24ZM471.49,103.6c-.07-.11-.14-.26-.16-.46.05.15.11.31.16.46ZM77.75,19.92c2.28-2.81,5.24-5.13,8.55-6.69,3.31-1.56,7.01-2.39,10.68-2.39h292.03c3.68,0,7.37.83,10.68,2.39,3.31,1.56,6.27,3.88,8.55,6.69l44.04,54.27c1.44,1.77.02,4.37-2.28,4.19-2.51-.2-4.96-.29-7.36-.29-.05,0-.09,0-.14-.01-.39-.07-.68-.3-.8-.62-.25-.68.33-1.34,1.19-2.33.42-.48,1.28-1.46,1.35-1.85-.02-.02-.03-.05-.04-.08-.08-.18-.18-.24-.9-.23-2.3.03-4.55.49-6.73.92-7.17,1.57-13.25,3.47-18.58,5.82-.49.19-.94.42-1.42.65-.68.34-1.39.68-2.16.92-.38.12-.83-.07-.97-.51-.02-.07-.03-.14-.03-.21,0-.04,0-.07,0-.11-.01-.16-.03-.37.04-.6.09-.43.3-.93.51-1.46.28-.67.79-1.93.56-2.26-.04-.05-.22-.15-.64-.15-7.44.85-14.31,4.71-19.49,8.01-.28.27-.94.85-1.66.57-.89-.35-.91-1.53-.93-3.18-.02-1.2-.05-3.2-.64-3.57-.23-.14-.67.02-.92.13-2.04,1.07-3.96,2.6-5.81,4.08-.4.32-.8.64-1.21.96-8.21,6.97-11.81,11.18-13.54,13.21-1.16,1.36-1.6,1.86-2.31,1.76-.66-.09-.91-.67-1.26-1.47-.66-1.51-2.03-4.64-6.95-8.84-3.65-2.64-7.59-3.52-11.67-2.56-8.52,2-15.99,11.45-19.79,18.94-8.81,14.97-17.02,26.5-25.85,36.32-.02.02-.04.05-.07.07-1.91,1.65-3.65,2.2-5.18,1.63-3.66-1.36-4.56-8.66-5.04-12.58l-.02-.2c-.14-1.54-.33-3.09-.52-4.59-.48-3.87-.97-7.88-.68-11.86.8-6.16,2.8-12.14,4.75-17.92,1.67-4.98,3.4-10.14,4.34-15.33,1.39-6.37,2.47-12.78,3.23-19.07.19-1.58.57-1.89,2.16-1.74l3.23.3c2.96.28,6.01.56,9.02.88,9.65,1.09,19.47,2.13,28.96,3.13,12.85,1.36,26.14,2.76,39.2,4.31,3.01.35,6.06.76,9.01,1.15,1.3.17,2.6.35,3.9.52-11.28-4.16-22.73-7.72-34.09-10.58-19-4.8-38.81-7.34-57.96-9.8l-1.02-.13c-1.17-.15-1.56-.41-1.59-1.65-.02-.97-.03-1.93-.04-2.9,0-.78-.01-1.56-.03-2.33.1-7.33-1.16-15.87-4.96-17.95-1.59-.87-3.64-.56-6.09.93-4.58,4.38-6.3,10.64-7.97,16.7-.33,1.19-.65,2.36-.99,3.52-.37,1.31-.69,1.54-2.04,1.45-36.68-2.62-69.68-2.02-100.91,1.84-47.87,5.58-85.92,13.66-119.74,25.43-.97.37-2.39.88-4.1,1.49-5.13,1.84-18.52,6.86-30.2,12.08-1.27.57-2.47-.91-1.6-1.98.01-.01.02-.03.03-.04L77.75,19.92ZM317.46,158.71c.1.3.33,1.02-.12,1.52-.12.14-.37.33-.78.35-.1,0-.22,0-.34-.03-2.98-.46-6.06-.83-9.03-1.19-3.54-.43-7.2-.88-10.78-1.47-.34-.06-.6-.33-.64-.66s.15-.65.47-.78c5.04-2.04,8.58-6.28,12-10.39l.18-.22c1.87-2.42,3.62-5.04,5.31-7.57l1.05-1.57s.04-.06.06-.08c.26-.29.62-.42.96-.34.33.07.58.32.68.66.03.1.04.21.02.32-1.17,7.64-.85,14.86.95,21.46ZM294.18,57.89c.47.09.86.33,1.12.69.6.86.33,2.19.12,3.26-.06.28-.11.54-.13.76-1.05,6.52-2.43,13.15-4.1,19.75l-.04.13c-.18.63-.37,1.33-1.04,1.36-.03,0-.07,0-.1,0-.47-.03-.75-.36-.84-.99,0-.04,0-.09,0-.13.33-9.25.83-16.42,1.63-23.22.02-.69.35-1.09.62-1.31.81-.65,2.09-.42,2.78-.29ZM292.77,46.02s0,0,0-.01c.41-2.16.94-4.34,1.45-6.44.31-1.3.63-2.59.92-3.89.26-.85.54-1.75,1.35-1.64.49.06.75.44.78,1.12,0,4.05-.02,7.42-.11,11.09-.01.32-.15.61-.4.81-.31.26-.73.36-1.24.38-.44.02-.94-.03-1.47-.09l-.3-.03c-.33-.04-.6-.19-.78-.42-.18-.24-.25-.55-.2-.88ZM288.77,156.56c-.1.3-.38.51-.7.52,0,0-.02,0-.02,0-3.13.02-6.34-.22-9.45-.45-2.06-.16-4.19-.32-6.26-.4-.31,0-1.14,0-1.44-.64-.2-.42-.07-.88.37-1.36,3.02-3.82,4.94-8.43,6.8-12.89.52-1.26,1.04-2.51,1.59-3.74.14-.31.47-.49.81-.45.34.04.61.3.66.64l.21,1.41c.93,6.27,1.9,12.75,7.16,16.54.27.19.38.53.28.84ZM15.22,165.21l-3.77-35.11c-.86-8.03-.13-16.02,2.18-23.77,0-.02.01-.05.02-.07,1.32-4.42,4.68-7.99,9.06-9.7,7.89-3.09,16.73-6.62,20.54-8.07,13.89-5.28,28.26-10.75,43.06-14.31,21.56-5.84,44.46-10.18,69.98-13.29,42.3-5.42,81.15-6.82,118.76-4.31,1.45.08,2.9.17,4.36.27.57,0,.92.26,1.09.48.43.53.28,1.21.15,1.76-.04.18-.09.38-.09.5,0,.03,0,.06,0,.09-1.25,8.95-1.62,17.66-1.99,28.12-.29,6.62,0,13.37.26,19.9.18,4.38.37,8.91.38,13.35,0,.08-.01.16-.04.24-3.18,9.2-7.46,19.65-15.11,27.47-.05.05-.1.09-.17.13-1.77,1.02-3.04.5-3.81-.12-6.98-5.67-2.44-48.3-1.22-51.57,1.22-4.02.62-8.46-1.49-10.99-1.48-1.77-3.6-2.57-6.28-2.33-11.73,1.69-10.65,26.8-10.18,37.53.03.79.07,1.52.09,2.17.36,2.65.53,5.51.7,8.27.46,7.64.93,15.53,5.54,21.82.5.56.64,1.08.42,1.53-.14.3-.49.64-1.31.61-4.7.09-9.36.27-14.12.46h-.09s-.03,0-.05,0c-1.6.06-1.97-.29-2.06-1.92l-.13-2.65c-.3-6.07-.61-12.34-1.22-18.48-.99-8.4-2.32-18.34-4.72-28.28-.29-1.21-.55-2.58-.82-4.04-1.18-6.35-2.65-14.25-8.75-15.66-5.35-.27-7.7,3.99-9.98,8.11-1.81,3.27-3.52,6.37-6.67,6.59-4.01.3-9.55-4.54-17.94-15.61-1.34-1.16-2.05-1.33-2.42-1.26-.62.11-1.13,1.08-1.66,2.11-.84,1.61-1.89,3.62-4.24,4.02-1,.11-1.95.17-2.87.24-3.11.22-6.05.42-8.77,1.86-10.64,4.97-19,18.31-21.87,34.84-2.94,16.93.55,32.59,9.09,40.87.17.15.6.54.47,1.09-.13.55-.7.71-.94.78-.71.2-1.42.4-2.13.6-1.23.34-2.46.69-3.68,1.04-1.26.47-2.74.89-4.31,1.33-4.18,1.17-8.9,2.5-10.99,5.65-.08.92.09,1.56.51,1.9,1.38,1.1,5.41-.18,8.35-1.12,1.51-.48,2.82-.9,3.79-1.03,4.08-1.06,8.71-2.27,13.22-3.36,11.88-2.77,27.61-6.2,43.93-8.26,1.51-.17,3-.35,4.5-.53,4.81-.58,9.78-1.17,14.69-1.53.51-.05.84.15,1.02.32.48.44.46,1.11.45,1.65,0,.14-.01.36,0,.43.01.05.02.13.02.18-.08,23.09-3.09,40.89-9.46,56.03-1.57,3.63-3.89,8.19-7.96,11.4-.78.61-1.64.87-2.55.76-2.26-.27-4.22-2.77-5.39-4.27-10.19-14.38-7.09-33.3-2.7-46.64l.03-.07c.69-1.53,2.11-4.16,3.8-4.47.43-.08,1.09-.05,1.71.56.03.03.05.06.08.09,3,3.99,3.69,9.07,3.98,13.98.13.27.23.41.29.47.59-.39,1.61-2.91,1.89-4.48.64-4.39,1-10.01-1.93-14.27-1.52-2.22-3.7-3.44-6.32-3.54-3.5-.14-7.33,1.73-9.77,4.75-3.72,4.06-5.17,9.37-6.57,14.51-.23.84-.46,1.67-.69,2.49-.03.16-.16.81-.76,1.02-.59.21-1.08-.18-1.44-.47l-.19-.15c-3.86-2.99-11.61-7.77-20.26-6.21-3.25.42-5.97,1.91-7.49,4.07-1.26,1.8-1.62,3.96-1.05,6.24.19.83.64,1.36,1.14,1.37.44,0,.98-.42,1.22-1.37.24-1.85,1.1-3.19,2.53-3.96,2.71-1.46,6.85-.52,9.82.84,6.3,3.43,13.23,10.09,13.93,18.58.85,4.68-.23,9.43-2.82,12.31-2,2.23-4.83,3.32-8.17,3.19-8.85-.19-17-5.66-24.9-16.74-11.87-17.12-18.53-38.83-19.27-62.78-.08-26.92,5.02-47.89,15.6-64.12,2.68-3.55,1.69-7.23-.48-9.32-1.97-1.91-5.63-3.14-9.45-.33-2.07,1.59-3.42,3.78-4.86,6.09-.67,1.07-1.36,2.18-2.12,3.22-14.93,20.75-25.74,45.7-31.25,72.13l-.02.08-.07.2c-.17.52-.33,1.06-.98,1.03-.65-.03-.78-.57-.94-1.27,0-.03-.01-.06-.02-.09-.72-7.39-1.17-14.91-1.54-21.38-.53-9.66-.65-18.48-.38-26.97,0-1.63.09-3.31.18-4.93.17-3.18.34-6.47-.12-9.64-.24-1.97-1.39-3.84-3.01-4.9-.92-.6-2.4-1.22-4.26-.72-3.43.69-4.26,3.59-5.13,6.67-.31,1.09-.63,2.22-1.07,3.24-5.84,11.09-13.14,25.79-18.04,41.55-.41,1.61-.73,2.61-1.62,2.5-.96-.11-1.04-.93-1.06-5.49,0-1.1,0-2.24-.07-2.63,0-.03,0-.06,0-.09-.19-7.67.41-15.44,1-22.95.16-2.11.33-4.21.48-6.32,0-.04,0-.07.01-.1,1.04-4.79-1.09-8.23-3.73-9.15-2.7-.94-5.57.71-7.48,4.31-1.24,2.53-2,5.44-2.3,8.88-.1,1.28-.21,2.57-.32,3.86-.62,7.41-1.25,15.07-.8,22.61.67,18.85,2.76,35.61,6.4,51.24.4,1.42.78,2.89,1.16,4.35.98,3.78,1.99,7.68,3.48,11.34.46,1.09.34,1.5-.63,2.16,0,0-.02,0-.02.01-2.88,1.7-6.59,1.06-8.68-1.51l-7.34-9.05c-6.72-8.28-10.86-18.2-11.99-28.71ZM189.72,109.98c-.01-.08,0-.15,0-.23.03-.26-.23-1.3-.41-1.99-.59-2.33-.88-3.67-.03-4.24.45-.3,1.02-.22,1.67.23,4.76,2.76,11.27,1.69,15.41-2.58.04-.04.09-.08.14-.11.29-.19.64-.22.95-.09.67.28.87,1.12,1.14,2.48.06.33.16.83.22.96.02.04.05.11.06.15,2.35,8.75,3.98,17.43,4.85,25.8,1.19,8.85,1.6,17.88,1.88,25.64h0c.03.93-.35,1.37-1.27,1.48-9.11.79-18.5,1.96-28.73,3.56l-1.55.29c-2.35.44-3.74.7-4.6.74-.8.03-1.15-.13-1.4-.53-.46-.73.1-1.44,1.33-2.98,2.62-3.27,8.06-10.08,10.19-23.32,1.32-7.93,1.37-16.42.13-25.25ZM162.46,157.55s0,0-.01,0c-1.57,1.08-3.05,1.65-4.42,1.7-.95.04-1.85-.18-2.69-.64-6.32-3.46-6.63-19.71-6.37-23.55.25-8.4,2.42-16.64,6.46-24.49,3.31-6.33,7.12-9.88,11.66-10.88.06-.01.13-.02.19-.02,5.75.15,8.46,9.12,9.72,16.63,0,.03,0,.05,0,.08.83,13.4-1.02,31.42-14.55,41.15ZM408.25,256.2c-2.28,2.81-5.24,5.13-8.55,6.69-3.31,1.56-7.01,2.39-10.68,2.39H96.99c-3.68,0-7.37-.83-10.68-2.39-3.31-1.56-6.27-3.88-8.55-6.69l-31.7-39.07c-1.89-2.33-.88-5.79,1.99-6.78.02,0,.04-.01.06-.02q8.47-3.3,7.02-9.13c-.5-1.99-1.18-4.72-1.7-8.37-.22-1.13-.45-2.31-.69-3.48-1.14-5.73-2.32-11.66-2.81-17.59.18-15.95,4.95-32.86,14.18-50.34.39-1.09,1-1.15,1.34-1.09.28.05.93.31.85,1.59.01,1,.01,2.04.02,3.09,0,1.69.01,3.38.04,5.08.24,12.43.91,23.57,2.05,34.05.36,1.8.68,4.65,1.05,7.94,1.05,9.33,2.64,23.43,6.79,25.93,2.41,1.75,5.76,1.67,8.04-.16,2.44-1.82,2.63-4.67,2.83-7.67.04-.54.07-1.08.12-1.6,1.33-11.52,2.65-21.87,5.41-32.13,2.59-9.25,5.24-18.21,9.18-26.25.16-.32.53-.5.89-.41.36.09.6.41.58.77-.4,7.41-.73,15.29-.11,23.09,2.19,23.4,9.79,55.6,33.53,76.03,13.95,11.91,30.61,11.33,39.2,4.74.37-.3.72-.59,1.23-.51.49.07.73.43,1.01.85l.54.81c.61.92,1.24,1.88,1.93,2.75,3.65,5.03,9.17,8.31,14.81,8.79,4.97.43,9.56-1.24,13.29-4.83,17.97-17.23,21.71-52.06,21.68-78.26.01-1.11.44-1.51,1.54-1.55,1.21-.02,2.42-.05,3.63-.09,2.16-.06,4.4-.12,6.6-.11,17.64.12,32.95.98,46.83,2.62,11.44,1.36,22.63,2.78,33.69,5.24,1.63.43,3.09.95,4.49,1.46,3.82,1.37,7.12,2.54,11.72,1.29,2.21-.47,4.38-1.44,6.88-3.06.51-.29.88-.17,1.06-.07.18.1.49.34.52.89-.2,14.42,3.54,27.83,10.51,37.82.26.25.49.39.62.36.46-.07,1.1-1.34,1.52-2.18.46-.92.89-1.79,1.47-2.29l.12-.15c.36-.48.68-.89,1.24-.84.59.06.82.52,1.2,1.3,4.51,8.73,9.63,15.64,15.64,21.11.33.22.77.63,1.48,1.3.8.76,3.21,3.02,3.97,2.99.01,0,.03,0,.04,0,0,0,.02-.05.05-.12.14-.46.28-.93.42-1.4.27-.93.55-1.85.85-2.77.06-.19.25-.76.83-.86.59-.11.96.38,1.1.55,3.11,3.67,7.07,7.34,12.44,11.53,3.29,2.46,6.92,4.84,11.13,5.48.25.03.38-.02.41-.04.03-.02.08-.14.08-.39-.02-.93-.06-1.93-.15-3.15l-.08-.77c-.26-2.37-.34-3.08.32-3.52.6-.39,1.21-.08,2.21.44.62.32,1.47.76,2.59,1.21.02,0,.03.01.05.02,2.63,1.13,3.46,4.38,1.67,6.58l-10.83,13.35ZM474.55,130.11l-3.77,35.11c-.67,6.2-2.39,12.2-5.06,17.78-.64,1.34-2.5,1.58-3.48.45l-.02-.03c-5.26-6.27-11.2-13.37-19.26-17.52-.67-.37-1.33-.7-1.99-1.03l-.91-.46c-.56-.28-.63-.72-.64-.89-.02-.36.18-.7.54-.92l.3-.19c.47-.3.96-.61,1.5-.84,1.06-.45,2.13-.89,3.19-1.32.74-.3,1.47-.6,2.21-.9.26-.11.37-.22.39-.28.01-.05,0-.2-.16-.44-1.52-1.75-2.92-3-4.39-3.94l-.4-.27c-.41-.27-.83-.55-1.21-.87-.06-.05-.11-.11-.15-.17-.19-.3-.14-.64-.1-.77.08-.31.26-.48.4-.56,5.16-2.74,9.78-6.67,13.77-11.69.03-.03.06-.08.1-.12-.49-.11-1.02-.15-1.58-.2-.75-.06-1.52-.12-2.28-.36-.63-.19-.71-.68-.72-.83-.01-.26.08-.74.86-1.08.62-.22,4.81-2.93,9.31-6.47,7.61-5.97,7.44-7.51,7.43-7.57h0s-.21-.13-.89-.12c-.12.03-.31.08-.55.14-4.73,1.23-5.62,1.2-6.04.47-.14-.24-.28-.72.33-1.3,3.57-2.84,6.65-5.78,9.23-8.82,1.19-1.4,3.54-.76,3.79,1.05.7,4.93.78,9.93.25,14.94Z"/>
</svg>