<?xml version="1.0" encoding="UTF-8"?>
<svg id="Layer_1" data-name="Layer 1" xmlns="http://www.w3.org/2000/svg" viewBox="0 0 456.17 595.46">
  <defs>
    <style>
      .cls-1 {
        fill: #1c355e;
        fill-rule: evenodd;
      }
    </style>
  </defs>
  <path class="cls-1" d="M448.73,451.05c-10.12-24.72-31.34-44.71-53.45-56.56-5.84-3.13-22.42-8.98-25.79-11.38,10.69.19,29.28,7.71,34.49,7.4-9.1-26.63-33.27-31.65-57.84-31.2-34.24.62-6.83-19-6.16-63.66l3.06,11.26c58.71-109.43-98.63-67.49-125.59,17.55.24-14.7,12.26-36.88,20.38-42.75-1.35-15.14-6.03-29.58.57-45.7,1.21,4.39,4.28,11.69,7.8,13.18-1.56-24.15,5.34-36.95-2.1-57.01,9.46,8.33,11.3,27.76,18.04,41.72,3.91,8.09,13.52,11.63,21.74,8.03,30.38-13.31,89.96-29.96,95.94-30.66,11.54,10.72,12.51,38.63,19.45,35.31,5.26-4.1-.55-11.61,2.67-19.45,19.07,1.63,6.78,18.65,5.53,26.87l4.15,3.92c24.18-18.56,15.5-46.97-10.84-65.3-15.65-10.89-22.61-8.26-42.84-4.25-56.12,11.15-57.49,11.14-73.97-20.34-39.58-75.58,12.58-47.53,28.59-62.16,17.26-15.77.52-42.31-5.69-58.45-6.46,3.71-6.24,14.77-1.22,19.74-12.61-4.27-13.08-26.05,4.02-27.01-8.16-53.53-106.74-50.51-115.84-8.86h0c2.39-3.35,6.75-6.97,11.22-8.96l-3.32,5.38c-12.89,17.41-9.74,28.02-9.53,48.54l2.7-3.89c1.08-2,.77-2,1.95-3.87,5.94,22.68,7.32,28.77-23.69,47.29-3.09,1.85-5.1,2.69-7.19,4.99l12.84.89c-13.02,8.67-35.24,17.74-43.47,41.45,4.47-4.5,9.51-7.67,13.83-11.84-64.04,94.94,5.03,210.37,5.03,210.37-31.34-8.41-93.52.47-129.66,44.69-77.69,95.05,50.51,169.68,90.37,85.54-61.39,64.08-114.37-24.41-70.59-69.44,69.22-71.18,143.36-40.19,173.66,51.03,16.33,49.13,35.32,104.74,100.28,119.37,81.35,18.32,163.38-61.43,130.49-141.76ZM267.3,52.96c-22.63-22.62-26.04,24.06-5.23,42.1-53.19-30.56-11.88-87.15,5.23-42.1ZM343.89,562.16c-59.98.16-84.86-55.4-100.75-105.26-22.2-69.68-14.73-63.78,15.52-88.35,13.28-10.78,15.45-13.01,26.76-24.86,4.4-4.61,7.51-9.79,11.42-13.5-9.56,21.53-30.12,37.45-33.95,64.49,31.25-2.43,64.86,1.49,91.9,11.15,114.88,41.05,74.5,156.1-10.9,156.33Z"/>
</svg>