<?xml version="1.0" encoding="UTF-8"?>
<svg id="Layer_1" data-name="Layer 1" xmlns="http://www.w3.org/2000/svg" viewBox="0 0 879.11 879.11">
  <defs>
    <style>
      .cls-1 {
        fill: #fff;
        fill-rule: evenodd;
      }

      .cls-2 {
        fill: #c6a53e;
      }

      .cls-3 {
        fill: #ebeced;
      }
    </style>
  </defs>
  <circle class="cls-3" cx="439.56" cy="439.56" r="439.56"/>
  <circle class="cls-2" cx="439.56" cy="439.56" r="399.65"/>
  <path class="cls-1" d="M630.65,572.34c-8.77-21.41-27.14-38.72-46.29-48.98-5.06-2.71-19.42-7.77-22.34-9.85,9.25.16,25.36,6.68,29.87,6.41-7.88-23.06-28.82-27.41-50.1-27.02-29.65.54-5.91-16.45-5.33-55.13l2.65,9.75c50.85-94.77-85.42-58.45-108.77,15.2.21-12.73,10.62-31.94,17.65-37.02-1.17-13.11-5.22-25.62.5-39.58,1.05,3.81,3.7,10.13,6.75,11.41-1.35-20.92,4.62-32-1.82-49.38,8.19,7.22,9.78,24.04,15.62,36.13,3.38,7,11.71,10.08,18.83,6.96,26.31-11.53,77.91-25.95,83.09-26.55,10,9.28,10.83,33.45,16.85,30.58,4.56-3.55-.47-10.05,2.31-16.84,16.52,1.41,5.87,16.15,4.79,23.27l3.59,3.4c20.95-16.08,13.42-40.68-9.39-56.55-13.56-9.43-19.59-7.16-37.1-3.68-48.6,9.66-49.79,9.65-64.06-17.61-34.28-65.46,10.9-41.16,24.76-53.84,14.95-13.66.45-36.65-4.93-50.62-5.59,3.22-5.41,12.79-1.05,17.09-10.92-3.7-11.33-22.56,3.48-23.39-7.06-46.36-92.44-43.74-100.33-7.68h0c2.07-2.9,5.85-6.04,9.72-7.76l-2.88,4.66c-11.16,15.08-8.43,24.27-8.25,42.03l2.34-3.37c.94-1.73.66-1.73,1.69-3.35,5.15,19.64,6.33,24.92-20.52,40.95-2.68,1.6-4.42,2.33-6.23,4.32l11.12.77c-11.27,7.51-30.52,15.36-37.65,35.89,3.87-3.9,8.24-6.64,11.98-10.25-55.47,82.22,4.35,182.19,4.35,182.19-27.14-7.28-80.99.4-112.29,38.7-67.28,82.32,43.74,146.95,78.27,74.08-53.17,55.5-99.05-21.14-61.13-60.14,59.95-61.65,124.15-34.8,150.4,44.19,14.14,42.55,30.59,90.71,86.85,103.38,70.45,15.87,141.5-53.2,113.01-122.77ZM473.52,227.57c-19.6-19.59-22.55,20.84-4.53,36.46-46.07-26.46-10.29-75.48,4.53-36.46ZM539.85,668.57c-51.95.14-73.49-47.98-87.25-91.16-19.23-60.35-12.76-55.24,13.44-76.52,11.5-9.34,13.38-11.27,23.18-21.53,3.81-3.99,6.5-8.48,9.89-11.7-8.28,18.65-26.09,32.43-29.4,55.85,27.07-2.11,56.17,1.29,79.59,9.66,99.49,35.55,64.52,135.19-9.44,135.39Z"/>
</svg>