<?xml version="1.0" encoding="UTF-8"?>
<svg id="Layer_1" data-name="Layer 1" xmlns="http://www.w3.org/2000/svg" viewBox="0 0 879.11 879.11">
  <defs>
    <style>
      .cls-1 {
        fill: #fff;
      }

      .cls-2 {
        fill: #4589fe;
      }

      .cls-3 {
        fill: #ebeced;
      }
    </style>
  </defs>
  <circle class="cls-3" cx="439.56" cy="439.56" r="439.56"/>
  <circle class="cls-2" cx="439.56" cy="439.56" r="399.65"/>
  <g>
    <path class="cls-1" d="M319.98,525.83c12.83,4.48,26.11-4.72,26.4-18.51.2-9.86.04-19.7.04-29.53h178.79c0,10.26-.17,20.17.05,30.06.22,9.5,7.23,17.24,16.63,18.9,8.89,1.54,18.37-3.66,21.47-12.32,1.13-3.17,1.48-6.76,1.48-10.16.08-70.05.06-140.08.08-210.12,0-2.64-.02-5.32.46-7.89,2.75-14.37,15.42-24.03,29.74-22.82,14.01,1.18,24.71,12.61,25.38,27.11.56,12.19,9.05,20.64,20.42,20.35,11.3-.28,19.56-9.32,19.23-21.44-.11-4.26-.63-8.57-1.58-12.73-7.62-33.53-38.84-56.34-72.06-52.8-35.28,3.74-61.17,32.22-61.31,67.52-.07,17.18-.01,34.35-.01,51.53v5.4h-178.75c0-19.02-.04-37.51.01-56,.04-16.27,11.63-28.67,27.01-29.02,15.75-.36,27.77,11.4,28.59,27.96.57,11.36,9.2,19.74,20.18,19.57,11.15-.16,19.53-9.05,19.53-20.71,0-35.07-29.47-65.38-64.56-66.45-39.14-1.18-70.39,28.86-70.45,67.98-.09,53.85-.03,107.69-.03,161.54,0,17.85-.05,35.68.03,53.52.04,8.92,5.26,16.26,13.24,19.06ZM346.65,388.49h178.12v48.93h-178.12v-48.93Z"/>
    <path class="cls-1" d="M660.74,601.3c-7.97-.83-13.58,2.18-18.67,6.8-4.33,3.91-9.4,7.65-15.09,10.3-17.64,8.24-37.05,9.93-57.16,7.31-9.99-1.3-19.08-3.8-27.11-7.78-5.87-2.91-11.21-6.59-15.83-11.27-7.65-7.78-21.63-7.41-29.41.47-7.33,7.45-16.68,12.59-28,15.68-19.61,5.34-39.35,5.4-59.01.26-11.16-2.94-20.73-7.76-28-15.1-9.05-9.2-22.26-8.94-31.95-.07-3.18,2.92-6.83,5.74-10.82,8.12-1.6.95-3.24,1.85-4.96,2.64-31.39,14.53-81.6,9.02-100.08-12.31-7.57-8.75-25.14-6.33-30.82,3.32-.58.96-1.09,1.94-1.63,2.91v5.71c8.68,14.23,23.83,23.35,42.02,29.06,41.94,13.15,82.3,10.93,119.89-9.57,2.06-1.11,3.21-1.01,5.14.11,40.46,23.32,99.93,23.35,140.51-.02,2.96-1.7,4.28-.54,6.24.59,39.4,22.99,102.49,22.44,140.95-1.34,8.33-5.14,15.86-10.94,19.91-18.82v-5.71c-.16-.19-.38-.38-.47-.6-2.43-5.97-7.56-9.81-15.68-10.66Z"/>
    <path class="cls-1" d="M676.42,547.84c-2.08-5.13-6.28-8.54-12.52-9.98-1.04-.23-2-.56-3.17-.68-7.96-.83-13.57,2.18-18.66,6.8-4.33,3.91-9.4,7.65-15.09,10.3-17.64,8.23-37.07,9.93-57.16,7.31-17.32-2.26-32.01-7.97-42.94-19.07-7.75-7.87-21.75-7.36-29.7.75-7.02,7.15-16.02,12.1-26.84,15.15-19.86,5.61-39.89,5.72-59.87.52-11.16-2.94-20.73-7.75-27.99-15.11-9.07-9.18-22.28-8.93-31.95-.06-4.48,4.11-9.84,8.01-15.79,10.76-31.32,14.51-81.57,9.05-100.08-12.31-2.44-2.82-5.97-4.38-9.77-5-7.96-1.32-17.21,1.78-21.05,8.31-.58.96-1.09,1.94-1.63,2.91v5.7c4.82,9,13.67,15.43,23.58,21.01,17.38,9.77,39,15.04,61.06,15.91,27.27,1.09,55.2-4.58,76.57-16.96,1.94-1.11,3.22-1.91,5.88-.38,40.42,23.39,99.87,23.39,140.51.05,1.9-1.1,3.08-1.27,5.14-.15,28.53,15.59,58.64,20.57,89.83,16.34,9.92-1.34,19.93-3.6,30.06-6.76,18.19-5.71,33.36-14.8,42.02-29.06v-5.7c-.16-.21-.38-.38-.47-.6Z"/>
  </g>
</svg>