<?xml version="1.0" encoding="UTF-8"?>
<svg id="Layer_1" data-name="Layer 1" xmlns="http://www.w3.org/2000/svg" viewBox="0 0 900 819.08">
  <defs>
    <style>
      .cls-1 {
        fill: #fff;
      }

      .cls-2 {
        fill: #1c355e;
      }
    </style>
  </defs>
  <g>
    <path class="cls-1" d="M417.88,382.71c1.02.35,2.07-.37,2.09-1.47.02-.78,0-1.56,0-2.34h14.16c0,.81-.01,1.6,0,2.38.02.75.57,1.37,1.32,1.5.7.12,1.45-.29,1.7-.98.09-.25.12-.54.12-.8,0-5.55,0-11.09,0-16.64,0-.21,0-.42.04-.62.22-1.14,1.22-1.9,2.35-1.81,1.11.09,1.96,1,2.01,2.15.04.96.72,1.63,1.62,1.61.9-.02,1.55-.74,1.52-1.7,0-.34-.05-.68-.12-1.01-.6-2.65-3.07-4.46-5.71-4.18-2.79.3-4.84,2.55-4.85,5.35,0,1.36,0,2.72,0,4.08v.43h-14.15c0-1.51,0-2.97,0-4.43,0-1.29.92-2.27,2.14-2.3,1.25-.03,2.2.9,2.26,2.21.04.9.73,1.56,1.6,1.55.88-.01,1.55-.72,1.55-1.64,0-2.78-2.33-5.18-5.11-5.26-3.1-.09-5.57,2.29-5.58,5.38,0,4.26,0,8.53,0,12.79,0,1.41,0,2.83,0,4.24,0,.71.42,1.29,1.05,1.51ZM419.99,371.84h14.1v3.87h-14.1v-3.87Z"/>
    <path class="cls-1" d="M444.86,388.69c-.63-.07-1.08.17-1.48.54-.34.31-.74.61-1.19.82-1.4.65-2.93.79-4.53.58-.79-.1-1.51-.3-2.15-.62-.46-.23-.89-.52-1.25-.89-.61-.62-1.71-.59-2.33.04-.58.59-1.32,1-2.22,1.24-1.55.42-3.12.43-4.67.02-.88-.23-1.64-.61-2.22-1.2-.72-.73-1.76-.71-2.53,0-.25.23-.54.45-.86.64-.13.08-.26.15-.39.21-2.49,1.15-6.46.71-7.92-.97-.6-.69-1.99-.5-2.44.26-.05.08-.09.15-.13.23v.45c.69,1.13,1.89,1.85,3.33,2.3,3.32,1.04,6.52.87,9.49-.76.16-.09.25-.08.41,0,3.2,1.85,7.91,1.85,11.12,0,.23-.13.34-.04.49.05,3.12,1.82,8.11,1.78,11.16-.11.66-.41,1.26-.87,1.58-1.49v-.45s-.03-.03-.04-.05c-.19-.47-.6-.78-1.24-.84Z"/>
    <path class="cls-1" d="M446.1,384.46c-.17-.41-.5-.68-.99-.79-.08-.02-.16-.04-.25-.05-.63-.07-1.07.17-1.48.54-.34.31-.74.61-1.19.82-1.4.65-2.93.79-4.53.58-1.37-.18-2.53-.63-3.4-1.51-.61-.62-1.72-.58-2.35.06-.56.57-1.27.96-2.12,1.2-1.57.44-3.16.45-4.74.04-.88-.23-1.64-.61-2.22-1.2-.72-.73-1.76-.71-2.53,0-.35.33-.78.63-1.25.85-2.48,1.15-6.46.72-7.92-.97-.19-.22-.47-.35-.77-.4-.63-.1-1.36.14-1.67.66-.05.08-.09.15-.13.23v.45c.38.71,1.08,1.22,1.87,1.66,1.38.77,3.09,1.19,4.83,1.26,2.16.09,4.37-.36,6.06-1.34.15-.09.25-.15.47-.03,3.2,1.85,7.91,1.85,11.12,0,.15-.09.24-.1.41-.01,2.26,1.23,4.64,1.63,7.11,1.29.79-.11,1.58-.29,2.38-.54,1.44-.45,2.64-1.17,3.33-2.3v-.45s-.03-.03-.04-.05Z"/>
  </g>
  <g>
    <path class="cls-2" d="M223.28,573.13c24.32,8.49,49.5-8.96,50.06-35.1.39-18.69.07-37.35.07-55.99h338.99c0,19.46-.33,38.24.09,56.99.41,18.01,13.7,32.69,31.54,35.83,16.85,2.92,34.82-6.95,40.72-23.36,2.15-6.01,2.81-12.82,2.81-19.27.15-132.81.12-265.61.15-398.4,0-5-.05-10.08.88-14.97,5.22-27.25,29.25-45.56,56.39-43.27,26.57,2.25,46.86,23.9,48.12,51.4,1.06,23.11,17.15,39.13,38.72,38.59,21.43-.54,37.09-17.68,36.46-40.65-.21-8.07-1.19-16.25-2.99-24.14-14.45-63.57-73.63-106.83-136.63-100.12-66.89,7.09-115.98,61.09-116.26,128.02-.14,32.58-.02,65.13-.02,97.71v10.24h-338.92c0-36.06-.08-71.12.02-106.18.08-30.85,22.05-54.35,51.22-55.03,29.87-.68,52.66,21.61,54.2,53.02,1.08,21.54,17.45,37.42,38.26,37.12,21.14-.3,37.03-17.17,37.02-39.27-.01-66.49-55.88-123.97-122.42-125.99-74.22-2.25-133.47,54.73-133.57,128.89-.18,102.11-.06,204.19-.06,306.3,0,33.84-.09,67.66.06,101.48.07,16.91,9.97,30.82,25.11,36.13ZM273.84,312.71h337.73v92.78h-337.73v-92.78Z"/>
    <path class="cls-2" d="M869.39,716.21c-15.11-1.57-25.75,4.14-35.41,12.89-8.21,7.41-17.82,14.5-28.6,19.53-33.44,15.62-70.25,18.83-108.38,13.87-18.94-2.46-36.18-7.2-51.4-14.76-11.13-5.52-21.26-12.49-30.01-21.38-14.5-14.76-41.02-14.06-55.75.89-13.89,14.13-31.62,23.88-53.09,29.72-37.19,10.13-74.6,10.24-111.88.49-21.17-5.57-39.31-14.71-53.09-28.63-17.17-17.45-42.21-16.96-60.57-.14-6.03,5.54-12.96,10.87-20.51,15.39-3.04,1.8-6.15,3.51-9.4,5-59.52,27.55-154.73,17.1-189.76-23.34-14.36-16.58-47.66-12-58.44,6.29-1.1,1.82-2.06,3.67-3.09,5.52v10.83c16.46,26.99,45.18,44.27,79.68,55.1,79.52,24.93,156.04,20.72,227.32-18.15,3.91-2.1,6.08-1.92,9.75.21,76.71,44.22,189.48,44.27,266.42-.05,5.61-3.23,8.12-1.03,11.83,1.12,74.7,43.59,194.32,42.54,267.24-2.55,15.79-9.75,30.08-20.74,37.75-35.69v-10.83c-.3-.35-.72-.72-.89-1.15-4.61-11.32-14.34-18.59-29.72-20.21Z"/>
    <path class="cls-2" d="M899.11,614.85c-3.95-9.73-11.9-16.18-23.74-18.92-1.96-.44-3.79-1.05-6.01-1.29-15.08-1.57-25.73,4.14-35.38,12.89-8.21,7.41-17.82,14.5-28.6,19.53-33.44,15.6-70.28,18.83-108.38,13.87-32.84-4.28-60.69-15.11-81.41-36.16-14.69-14.92-41.23-13.96-56.32,1.43-13.31,13.56-30.38,22.94-50.89,28.72-37.65,10.64-75.63,10.85-113.52.98-21.17-5.57-39.31-14.69-53.06-28.65-17.19-17.4-42.24-16.93-60.57-.12-8.49,7.79-18.66,15.18-29.94,20.39-59.38,27.5-154.66,17.17-189.76-23.34-4.63-5.36-11.32-8.3-18.52-9.47-15.08-2.5-32.62,3.37-39.92,15.76-1.1,1.82-2.06,3.67-3.09,5.52v10.8c9.14,17.07,25.91,29.26,44.72,39.83,32.95,18.52,73.95,28.51,115.77,30.17,51.71,2.06,104.66-8.68,145.19-32.16,3.67-2.1,6.1-3.62,11.16-.72,76.64,44.34,189.36,44.34,266.42.09,3.6-2.08,5.85-2.41,9.75-.28,54.09,29.56,111.18,39.01,170.33,30.99,18.8-2.55,37.79-6.83,56.99-12.82,34.5-10.83,63.26-28.06,79.68-55.1v-10.8c-.3-.4-.72-.72-.89-1.15Z"/>
  </g>
</svg>