<?xml version="1.0" encoding="UTF-8"?>
<svg id="Layer_1" data-name="Layer 1" xmlns="http://www.w3.org/2000/svg" viewBox="0 0 479.68 175.88">
  <defs>
    <style>
      .cls-1 {
        fill: #1c355e;
        stroke-width: 0px;
      }
    </style>
  </defs>
  <path class="cls-1" d="M479.09,130.1c-.43-1.56-.81-3.19-1.41-4.7-1.27-3.19-3.24-6.03-5.23-8.81-2.08-2.89-4.36-5.66-7.15-7.92-5.86-4.77-12.4-8.22-19.45-10.97-3.64-1.42-7.38-2.72-11.19-3.63-3.75-.9-7.44-.81-11.24-1.23-1.13-.12-4.07-.19-3.43-2.05.43-1.23,2.65-1.95,3.72-2.51,3.46-1.82,6.99-3.37,10.64-4.78,6.76-2.62,14.13-4.82,21.45-4.89,7.14-.06,14.8-.71,20.95,3.54.7.48,1.93,1.68,2.58.66.68-1.06.13-3.7-.22-4.74-1.14-3.32-3.2-5.91-5.55-8.48-2.48-2.71-5.59-4.65-8.81-6.4-3.2-1.73-6.67-3.16-10.26-3.89-3.57-.73-7.26-1.05-10.89-.83-3.79.22-7.44,1.72-11.21,1.94-1.91.11-2.57-.88-1.6-2.56.77-1.33,1.87-2.47,2.69-3.78,1.9-3.06,3.24-6.67,4.47-10.04,1.24-3.38,1.6-7.37.22-10.76-.63-1.55-1.45-3.08-2.58-4.34-1.06-1.18-1.87-1.91-1.78-3.61.1-1.86.75-3.69,1.03-5.52.28-1.79.44-3.71.19-5.51-.46-3.42-2.7-6.25-6.23-6.84-7.2-1.19-14,4.06-18.18,9.3-1.25,1.57-2.23,3.37-3.26,5.08-.78,1.3-1.47,3.33-2.67,4.28-1.41,1.11-2.34.22-3.2-.9-1.1-1.45-2.24-2.87-3.42-4.26-2.3-2.73-4.61-5.73-7.78-7.53-3.1-1.77-6.07-3.74-9.13-5.59-3.3-2-6.6-3.81-10.28-5.09-3.45-1.2-7.52-2.75-11.36-2.73-1.3-.01-4.04-.21-2.97,1.49.53.84,2.38,2.65,3.33,3.6,2.39,2.4,4.58,4.81,6.25,7.76,1.86,3.29,3.8,6.6,5.53,9.96,1.68,3.26,3.02,6.77,4.36,10.18,1.39,3.53,2.31,7.21,3.34,10.86.54,1.93,1.08,3.89,1.32,5.88.14,1.1-.18,3.25-1.24,1.41-3.54-6.17-7.27-12.51-12.19-17.75-1.14-1.21-2.43-2.13-3.74-3.13-1.37-1.05-2.57-2.34-3.89-3.46-2.7-2.26-5.61-4.67-8.75-6.28-3.16-1.61-6.58-3.33-10.26-3.07-4.68.33,1.61,5.21,2.71,6.31,2.54,2.55,4.18,5.62,5.97,8.69,1.7,2.92,2.44,6.44,3.31,9.67.99,3.68,1.46,7.47,1.88,11.24.21,1.93.63,3.93.63,5.88,0,1.77-.14,3.58-.33,5.34-.39,3.68-1.17,7.3-1.75,10.95-.6,3.78-1.67,7.37-1.9,11.22-.22,3.72.3,7.57,1.13,11.2.41,1.8.9,3.6,1.61,5.31.55,1.32,2,2.86,1.98,4.34-.03,1.69-1.92,2.81-2.89,3.99-1,1.22-1.88,2.61-2.12,4.18-.26,1.66.2,3.35.07,5.01-.14,1.76-.26,3.5-.69,5.22-.88,3.55-2.08,6.72-4.29,9.68-.44.59-1.16,1.25-1.11,2.05.05.78.75,1.24,1.51,1.16,1.68-.17,2.7-2.58,3.47-3.79.99-1.54,2.18-3.07,2.85-4.78.63-1.61,1.06-3.35,1.35-5.05.32-1.89.07-3.99.77-5.8.2-.51.47-1.14,1.12-1.22.85-.1,1.16.8,1.59,1.34,1.1,1.39,2.4,2.05,2.2,4.03-.15,1.55-.59,3.12-1.08,4.6-.58,1.75-1.34,3.48-2.23,5.1-.56,1.01-2.38,2.73-2.01,4.04.5,1.79,2.57-1.83,2.79-2.32.67-1.58,1.46-3.11,2.27-4.63.8-1.51,1.38-3.08,2.1-4.61.55-1.17,1.14-1.64,2.36-1.1.57.25,1.1.56,1.7.75.26.09,1.03.13,1.22.33.43.47-.16.82-.5,1.21-1.06,1.25-2.02,2.61-2.58,4.15-1.14,3.17-.89,6.69-2.38,9.79-.7,1.46-1.97,2.58-2.65,4.02-.27.57-.52,1.42.26,1.68.67.22,1.41-.54,1.8-.94,1.29-1.34,2.43-2.95,3.38-4.54.82-1.35,1.4-2.93,2.37-4.19,1.19-1.54,2.57.08,3.76.82,1.24.76,2.56,1.41,3.97,1.81,1.81.51,3.8.8,5.69.85.58.01,1.8-.17,1.8.68,0,.54-1.05,1.41-1.38,1.81-1.23,1.52-2.36,3.12-3.46,4.75-.94,1.39-1.92,2.74-2.44,4.35-.23.7-.92,4.39.7,3.63.64-.3,1.08-1.62,1.4-2.07.3-.42.59-.86.81-1.33,1.64-3.45,4.55-6.47,7.01-9.42,1.11-1.33,2.23-2.66,2.82-4.31.49-1.34.21-2.65.48-3.98.16-.83.8-1.1,1.43-1.58.61-.47,1.17-1.02,1.77-1.5,1.37-1.1,2.8-2.14,4.19-3.21,2.93-2.26,6.19-3.76,9.69-4.96,7.33-2.5,14.51-5.03,22.36-5.23,7.51-.2,15.34.81,22.57,2.78,3.76,1.02,7.43,2.33,10.98,3.91,3.46,1.54,6.68,3.43,10.03,5.17,1.69.88,3.19,1.95,4.7,3.1.76.58,2.57,2.25,3.72,1.51,1.19-.77.29-3.46,0-4.48ZM441.83,62.36c3.59-.46,7.41-.72,10.97.05,3.5.75,7.05,1.96,10.22,3.6,3.63,1.86,6.78,4.51,9.68,7.3.33.32.63.67.93,1.02.36.42,1.26,1.22,1.34,1.76.12.84-.64.53-1.19.38-.83-.23-1.66-.43-2.51-.59-7.23-1.39-14.88-1.14-22.14-.17-7.3.98-14.62,2.98-21.17,6.34-3.17,1.63-6.6,2.73-9.69,4.5-.68.39-3.68,2.32-2.74.3.71-1.52,1.61-2.68,2.1-4.31,2.05-6.88,10.73-8.16,16.39-10.88,3.15-1.52,7.05-1.66,10.48-2.23,3.7-.62,7.43-.65,11.13.04,1,.19,1.97.46,2.96.69.53.12,1.6.51,2.1.08,1.35-1.17-2.26-2.27-2.8-2.45-3.42-1.18-6.95-1.4-10.55-1.4-2.25.04-4.35.13-6.55.63-1.82.42-3.56,1.08-5.35,1.6-1.78.52-3.59.87-5.34,1.49-1.04.37-2.02.82-3.01,1.29-.63.3-1.59.9-2.3.81-2.13-.26,0-3.17.71-3.87,1.23-1.21,2.69-2.18,4.24-2.93,3.69-1.79,8.05-2.54,12.1-3.06ZM408.23,59.89c1.38-1.65,2.64-3.39,3.81-5.2.27-.42.95-1.95,1.69-1.7.73.24.78,1.95.67,2.5-.37,1.8-1.92,3.89-3.05,5.32-.41.51-1.47,1.81-.88,2.52.63.75,1.31-.28,1.62-.79.87-1.44,1.7-3.7,3.23-4.6.7-.41,1.57-.37,1.79.49.21.79-.28,1.65-.6,2.34-.9,1.94-1.51,3.98-2.71,5.77-1.17,1.74-2.36,3.79-2.5,5.92-.05.79.02,2.07,1.15,1.96.85-.08,1.06-1.01,1.28-1.67.68-2.05,1.24-4.14,2.19-6.09.8-1.63,1.76-3.22,2.84-4.7,1.08-1.5,2.68-2.59,4.5-3,3.62-.81.69,3.01.11,4.05-1.13,2.01-2.32,3.99-3.05,6.18-1.25,3.77-2.83,8.51-7.73,8.24-4.14.13-8.61-3.26-9.72-7.17-1.3-4.59,2.74-7.23,5.36-10.36ZM401.6,60.14c-2.61-.32-5.07-2.31-6.65-4.27-.66-.83-1.38-2.08-.79-3.14.53-.95,1.48-.78,2.14-.13,1.82,1.81,3.56,3.5,5.94,4.62.75.35,2.03.82,1.54,1.88-.31.68-1.47,1.04-2.18,1.02ZM433.45,32.3c1.24,2.02,1.59,4.08,1.59,6.4.31,5.25-2.58,10.38-6.21,14.03-1.67,1.69-3.53,3.09-5.94,3.5-1.92.32-4.33.1-5.51-1.65-1.11-1.66-.55-4.29-.17-6.11.47-2.3,1.4-4.48,2.3-6.65.86-2.08,1.81-4.07,3.38-5.74,1.6-1.7,3.62-2.93,5.6-4.16,1.67-1.04,3.81-1.53,4.97.37ZM408.93,29.6c.33-2.43,1.19-4.45,2.44-6.56,2.53-4.27,6.16-8.23,10.79-10.3,1.87-.84,4.27-1.57,6.21-.54,1.9,1.01,2.93,3.36,2.81,5.42-.15,2.89-.88,5.63-2.07,8.28-1.09,2.43-3.45,3.79-5.48,5.38-2.97,2.33-9.08,7.34-13.08,4.46-1.91-1.37-1.9-4.08-1.61-6.14ZM403.24,37.83c.55-.76,1.6-3.47,2.84-3.24,1.85.34.88,3.23.37,4.14-.48.86-.98,1.7-1.46,2.56-.27.48-1.22,1.65-1.02,2.25.59,1.8,2.83-1.85,3.21-2.34.47-.61,2.61-3.7,3.46-1.97.58,1.17-1.44,3.17-2.06,4.08-.61.87-6.49,8.74-4.15,9.05,1.25.17,2.69-2.92,3.17-3.77.83-1.47,1.73-2.88,2.78-4.21,1.08-1.37,2.05-2.93,3.31-4.15.45-.43,3.59-3.12,3.32-1.06-.12.94-1.24,2.2-1.52,2.93-.13.34-.31.66-.5.97-1.12,1.88-1.95,3.87-3.11,5.71-.99,1.58-2.08,3.1-3.13,4.64-.74,1.09-1.94,2.72-3.49,2.43-1.91-.01-3.59-.74-4.89-2.11-1.2-1.27-2.73-3.21-2.99-4.98-.29-1.97,1.16-4.2,2.16-5.81,1.12-1.78,2.49-3.4,3.73-5.1ZM380.54,35.57c-1.55-3.93-3.03-7.9-4.81-11.74-1.66-3.57-3.56-7.04-5.53-10.45-1.04-1.81-2.14-3.6-3.35-5.31-.46-.66-3.02-3.23-1.22-3.4.93-.09,2.4.76,3.26,1.09,1.12.43,2.22.9,3.32,1.37,1.57.68,3.09,1.45,4.59,2.25,1.69.9,3.49,1.61,5.14,2.6,1.68,1,3.25,2.2,4.84,3.34,3.09,2.21,5.82,5.49,8.22,8.39,1.79,2.16,3.79,4.96,4.7,7.82.51,1.61.39,3.38-.53,4.8-.55.85-1.26,1.38-1.97.57-.6-.7-.78-2.38-1.08-3.25-.39-1.12-.83-2.2-1.37-3.25-.6-1.18-1.86-4.11-3.49-4.32-1.91-.25.34,3.99.67,4.72.88,1.97,1.71,4.08,2.28,6.15.49,1.79,1.34,4.09.78,5.91-.31.99-.92,1.88-1.25,2.88-.15.46-.36,2.32-.84,2.55-1.2.58-1.24-3.72-1.36-4.5-1.23-8.12-3.68-16.59-8.34-23.44-1.13-1.67-2.45-3.21-3.85-4.67-.88-.92-2.04-1.94-3.09-1.9-2.25.08,1.16,3.71,1.61,4.28,1.19,1.53,2.37,3.08,3.49,4.67,2.25,3.17,3.64,6.59,4.83,10.26,1.26,3.89,1.8,7.68,2.23,11.71.23,2.15.22,4.22-.19,6.35-.19.98-.44,1.95-.67,2.92-.15.61-.19,1.84-.71,2.29-1.53,1.34-1.66-2.79-1.76-3.44-.32-2.01-.57-4.02-1.01-6-.86-3.85-2.12-7.56-3.57-11.23ZM381.79,73.87c1.43-1.72,2.63-3.6,3.66-5.57.96-1.82,1.87-3.66,2.8-5.49.91-1.79,2.04-3.45,2.94-5.25.22-.45.59-1.97,1.15-2.17.72-.26,1.1.94,1.35,1.38,1.21,2.13-.15,3.72-1.25,5.56-1.08,1.81-2.28,3.81-2.96,5.81-.34.99-.47,1.99-.9,2.95-.48,1.07-1.11,2.06-1.69,3.07-2.15,3.79-4.36,7.54-6.76,11.17-2.62,3.97-4.88,8.14-7.81,11.91-.82,1.05-8.06,9.57-5.7,10.43,1.14.41,3.43-3.84,3.98-4.62,1.34-1.89,2.68-3.78,3.96-5.72,1.3-1.97,2.43-4.01,3.62-6.04,1.12-1.91,2.45-3.7,3.62-5.58,2.35-3.77,4.48-7.67,6.86-11.43,2.35-3.7,4.28-7.63,6.56-11.38.96-1.57,2.35-2.88,4.2-1.73,1.07.67,1.2,1.15.74,2.27-.36.86-.53,1.61-.57,2.54-.03.77.21,1.86-.29,2.5-.45.57-1.32.96-1.87,1.45-1.43,1.23-2.65,2.96-3.14,4.77-.57,2.1-.77,4.17-1.65,6.19-.92,2.09-1.98,4.13-3.23,6.05-4.98,7.71-9.6,15.75-13.78,23.91-1.47,2.87-4.02,8.38-8.1,6.47-3.39-1.59-5.84-5.44-6.07-9.05.32-2.04,1.02-4.07,1.97-5.92,1-1.93,2.55-3.62,3.93-5.29,1.43-1.74,2.62-3.53,3.8-5.44,2.4-3.91,4.56-7.93,6.86-11.9,1.15-1.99,2.3-4.08,3.77-5.85ZM356.33,98.22c-.27-1-.45-2.02-.62-3.04-.36-2.21-.36-4.29-.36-6.52.03-2.39.16-4.82.62-7.17.87-4.5,2.13-8.86,2.65-13.42.52-4.64.23-9.55-.1-14.2-.32-4.62-.91-9.07-2.16-13.54-1.18-4.21-2.26-8.44-4.56-12.23-.3-.5-1.61-1.99-1.04-2.53.56-.52,1.89.6,2.33.88,1.98,1.26,3.8,2.75,5.74,4.08,3.61,2.47,6.59,6.16,9.38,9.49,2.8,3.33,5.13,7.02,6.97,10.94,1.89,4.04,4.19,8.34,4.69,12.8.48,4.3-2.11,8.86-4.06,12.55-1.05,1.99-2.19,3.95-3.31,5.91-.27.47-.87,1.99-1.64,1.49-.62-.4-.17-2.33-.12-2.87.18-2.29.4-4.57.29-6.87-.11-2.39-.37-4.76-.45-7.15-.15-4.6-.99-9.14-2.02-13.62-.97-4.27-1.9-8.84-4.16-12.67-.58-.99-1.25-1.91-1.95-2.82-.43-.55-1.18-1.88-1.99-1.87-1.85.03.86,4.01,1.18,4.67,3.95,8.04,5.81,16.95,6.19,25.84.19,4.51-.33,9.03-.76,13.51-.43,4.42-.69,9.3-2.42,13.46-.77,1.86-2.05,2.78-3.41,4.16-.7.71-1.23,1.47-1.76,2.3-.45.71-1.09,1.56-2,.97-.77-.49-.94-1.75-1.16-2.56ZM366.78,123.06c-.39.13-.81.12-1.21.03-2.99-.72-5.12-2.3-6.98-4.8-.74-1-1.81-2.57-1.59-3.88.19-1.17,1.48-1.89,2.59-1.56,1.28.38,1.99,1.81,2.85,2.72.99,1.03,2.09,1.91,3.32,2.64,1.17.68,2.86,1.14,2.59,2.77-.17.97-.71,1.79-1.58,2.09ZM383.63,137.15c-.49,1.84-3.2,1.89-4.75,1.85-3.67.08-8.1-1.51-10.15-4.64-.9-1.37-1.21-3.31.38-4.34.52-.34,1.15-.47,1.65-.06.19.16.31.28.37.39.4.5.42.52.86.98.32.31.47.43.49.44.73.53,1.46.98,2.27,1.38,1.83.9,3.71,1.91,5.77,2.15,1.25.15,3.66-.2,3.11,1.85ZM389.52,123.46c-.81,2.27-1.46,4.54-2.86,6.55-1.4,2.01-3.32,2.79-5.75,2.65-.96.1-3.33-.06-4.28-.75l-1.82-1.33c-.97-.7-2.07-1.77-2.62-2.84-1.4-2.73.26-5.54,1.83-7.71,1.78-2.44,3.55-4.83,4.9-7.53.89-1.78,1.83-3.54,2.84-5.26,3.07-5.24,5.8-10.67,8.93-15.87,2.65-4.4,5.46-8.42,6.63-13.49.47-2.03.79-3.83,2.84-4.9,1.2-.62,1.38.22,1.91,1.14.53.92,1.25,1.72,2.04,2.43,1.88,1.71,3.99,2.51,6.45,3.14.93.24,2.27.22,2.79,1.15.48.86.25,1.87-.17,2.7-1.07,2.12-2.94,3.79-4.31,5.72-1.51,2.13-2.75,4.43-4.13,6.64-2.72,4.34-5.48,8.74-7.94,13.23-1.31,2.39-2.55,4.83-3.82,7.24-1.22,2.31-2.57,4.63-3.46,7.09ZM474.87,129.16c-1.28-.58-2.52-1.73-3.68-2.52-1.09-.74-2.16-1.49-3.28-2.18-2.43-1.5-4.96-2.56-7.62-3.58-5.52-2.11-11.08-3.94-16.93-4.92-5.97-1-11.91-1.49-17.95-1.19-2.96.15-5.9.74-8.83,1.18-3,.45-5.98,1.14-8.9,1.96-2.78.78-5.48,1.83-8.03,3.16-1.32.69-2.62,1.42-3.91,2.17-.44.25-2.16,1.64-2.28.8-.03-.22.1-.57.28-.92.54-1.07,1.17-2.1,1.99-2.99.64-.7,1.35-1.33,2.11-1.9,2.11-1.58,4.68-2.45,7.15-3.35,2.67-.97,5.49-1.45,8.19-2.32,1.44-.47,2.85-.74,4.35-.99.73-.12,2.63-.29,2.78-1.25.28-1.8-6.2-.31-7.15-.11-3.81.81-7.41,2.17-11.05,3.63-.25.1-1.19.35-1.45.43-.59.17-2.6,1.19-2.52-.23.06-1.05,1.52-2.32,2.27-2.92.94-.76,1.97-1.41,3.07-1.93,2.55-1.22,5.48-2,8.27-2.48,2.75-.47,5.57-1.04,8.36-1.16,5.72-.25,11.91.58,17.45,1.95,2.84.7,5.55,1.72,8.22,2.88,1.39.6,2.75,1.26,4.15,1.83.93.38,2.39,1.21,3.33.44,2.03-1.66-2.9-4.06-3.99-4.52-2.65-1.12-5.55-1.9-8.31-2.71-5.63-1.66-11.43-2.71-17.31-2.71-2.87-.1-5.76.26-8.61.53-1.5.15-3.01.3-4.5.51-1.3.18-2.62.6-3.93.68-3.27.21-.86-3.4.3-4.53,2.37-2.33,7.05-2.86,9.26-3.15,1.32-.17,2.65-.29,3.99-.3,11.27-.06,21.96,2.87,31.87,7.79,6.75,3.35,12.67,8.13,17.13,14.13,1.33,1.79,2.57,3.62,3.82,5.48.82,1.22,1.7,2.42,2.34,3.75.39.8.98,2.19-.43,1.55Z"/>
  <path class="cls-1" d="M422.98,122.62c-.74-.57-1.88-.5-2.76-.52-5.12-.05-10.22,2.38-14.82,4.39-2.3,1.01-4.47,2.27-6.75,3.3-1.79.81-4.39,1.81-5.3,3.69-.36.74-.32,1.63.51,2.02.97.47,2.11-.24,2.93-.69,2.13-1.16,4.17-2.51,6.32-3.63,2.16-1.12,4.48-1.95,6.79-2.69,2.29-.73,4.53-.94,6.87-1.39,2.04-.39,4.54-.9,6.13-2.35.65-.6.87-1.52.08-2.14Z"/>
  <path class="cls-1" d="M441.19,42.62c-.31,1.2-.81,2.3-1.3,3.43-.4.94-1.08,2.26-1.07,3.3.01.73.51,1.26,1.28,1.18,1.03-.11,1.84-1.37,2.33-2.15,1.31-2.09,1.22-4.91,1.59-7.28.4-2.56,1.06-5.07,1.44-7.63,0-2.2-1.63-4.51-3.24-5.96-.66-.59-1.9-1.64-2.87-1.35-1.39.42-.89,1.82-.38,2.67,2.54,4.17,3.44,9.03,2.21,13.78Z"/>
  <path class="cls-1" d="M458.07,80.94c-2.2-.22-4.43-.07-6.59.4-.86.19-1.71.39-2.54.55-1.2.24-2.38.54-3.56.85-1.06.27-2.35.47-3.15,1.26-.58.57-.75,1.34.17,1.64.91.29,2.36-.3,3.26-.49,2.53-.53,4.88-.7,7.44-.86,2.81-.17,5.41-.69,8.29-.31.86.11,1.73.14,2.6.17.84.03,2.75.38,3.59-.2,2.12-1.47-3.25-2.57-3.98-2.64-1.81-.17-3.7-.18-5.53-.36Z"/>
  <path class="cls-1" d="M466.39,129.69c-1.53-.93-3.27-1.6-4.91-2.32-1.82-.8-3.83-1.72-5.86-1.76-.69-.01-1.59.11-1.74.94-.14.75.72,1.5,1.21,1.96,1.32,1.23,2.93,1.61,4.67,1.95,2.14.42,3.52.92,5.03,2.5,1.13,1.18,2.51,2.14,4.16,2.45,1.5.29,3.51-.51,2.31-2.23-1.01-1.45-3.38-2.58-4.88-3.49Z"/>
  <path class="cls-1" d="M346.55,40.78c.46,2.02.15,4.75,1.39,6.52.51.73,1.39.99,2.1.33.68-.63.64-1.63.68-2.47-.39-4.39-2.34-8.63-4.33-12.53-.93-1.82-1.83-3.92-3.47-5.24-1.68-1.36-2.81-.16-1.83,1.63,1,1.81,2.46,3.36,3.38,5.22.99,2,1.59,4.38,2.08,6.54Z"/>
  <path class="cls-1" d="M406.35,17.9c.94-.59,1.57-2.1,2.36-2.91,1.02-1.05,2.03-2.1,3.04-3.17,1.26-1.34,4.58-3.57,2.55-4.77-.6-.36-1.36-.35-2-.08-2.18.92-4.24,3.18-5.3,5.1-.73,1.33-1.54,2.92-2,4.36-.32.98.1,2.26,1.36,1.47Z"/>
  <path class="cls-1" d="M361.42,15.53c.78.74,1.33,1.55,2,2.36.9,1.09,2.2.82,2.22-.74-.13-2.51-1.58-4.56-3.21-6.4-1.02-1.15-3.65-2.95-4.33-.38-.55,2.08,2,3.91,3.32,5.16Z"/>
  <path class="cls-1" d="M399.8,96.53c.51-.61,1.77-1.95,1.35-2.81-.99-2.02-4.2,3.16-4.69,3.81-1.52,2.03-2.6,4.29-3.97,6.4-1.48,2.28-3.05,4.41-4.29,6.84-1.23,2.43-2.24,4.95-3.12,7.52-.85,2.46-1.74,4.9-2.25,7.45-.06.32-.05.66.08.96.35.78,1.12.57,1.57-.46.61-1.4.98-2.96,1.46-4.41.51-1.54.99-3.03,1.83-4.43.82-1.37,1.62-2.75,2.38-4.15,1.34-2.5,2.48-5.08,3.73-7.62,1.09-2.2,2.79-4.03,3.9-6.2.56-1.08,1.25-1.96,2.03-2.9Z"/>
  <path class="cls-1" d="M417.64,32.7c2.09-1.18,3.89-2.79,5.47-4.57,1.59-1.78,3.53-3.73,3.62-6.24-.1-1.15-.25-2.29-1.49-2.74-1.25-.46-2.6.07-3.67.69-1.16.68-2.13,1.59-3.15,2.44-.21.18-.91.92-1.29.79-.62-.21-.08-.85.13-1.14,1.52-2.12,3.74-3.61,5.84-5.12.38-.28,2.65-1.53,2.14-2.1-.48-.53-2.23.64-2.64.87-4.16,2.31-8,6.24-9.85,10.58-.81,1.89-2.07,5.15-.59,7,1.46,1.82,3.9.44,5.48-.46Z"/>
  <path class="cls-1" d="M426.43,36.23c-1.64,1.42-2.85,3.25-3.88,5.12-1.15,2.08-2.25,4.12-2.86,6.43-.32,1.23-.44,2.45-.28,3.72.1.81.21,2.37.97,2.9,1.11.78,1.44-.56,1.12-1.35-.39-.97-.75-1.78-.67-2.87-.08-1.25.19-2.43.62-3.6.12-.33.88-2.34,1.5-1.85.23.18-.18,1.31-.22,1.58-.1.71-.13,1.48-.02,2.18.15.94.62,2.15,1.61,2.49,2.21.78,3.65-1.82,4.6-3.32,1.23-1.92,2.12-3.97,2.79-6.14.56-1.8,1.83-4.67.12-6.22-1.57-1.42-4.06-.25-5.41.92Z"/>
  <path class="cls-1" d="M139.74,161.49c-.93.37-2.22.66-3.04,1.24-.76.54-.67,1.28.33,1.34,2.18-.29,4.34-.7,6.41-1.43,2.04-.71,4.11-1.36,6.11-2.17,2.03-.82,3.89-2.02,5.85-2.97,3.87-1.88,7.59-4.21,11-6.84,6.86-5.28,12.28-12.35,16.46-19.84,1.04-1.86,2.18-3.7,3.02-5.66.87-2.03,1.66-4.11,2.45-6.17,1.59-4.13,3.05-8.27,4.38-12.49,1.37-4.35,2.35-8.76,3.45-13.18,1.11-4.44,2.46-8.85,3.83-13.23,1.32-4.21,2.85-8.51,4.94-12.41.52-.97,1.1-1.9,1.83-2.73.55-.63,1.16-1.2,1.47-1.99.32-.83.16-1.76-.93-1.46-.8.23-1.6,1.16-2.1,1.78-2.7,3.34-4.79,7.33-6.55,11.23-1.87,4.13-3.35,8.39-4.36,12.8-.97,4.24-1.86,8.5-3.04,12.68-1.21,4.28-2.58,8.46-4.02,12.67-1.5,4.37-3.13,8.63-4.88,12.91-.79,1.93-1.87,3.6-2.91,5.41-1.1,1.9-2.06,3.86-3.07,5.81-1.98,3.83-5.2,6.61-8.32,9.49-3.13,2.88-6.68,5.29-10.37,7.41-3.88,2.23-7.85,4.04-12.01,5.69-1.96.78-3.98,1.35-5.94,2.12Z"/>
  <path class="cls-1" d="M172.74,75.47c1.71,1.03,3.37-.63,3.95-2.11.93-2.37,1.48-4.7,2.78-6.94,1.21-2.08,2.67-4.04,4.21-5.89,1.52-1.83,3.29-3.37,5.07-4.94,1.8-1.58,3.64-3.14,5.72-4.37,8.35-4.97,18.27-8.27,28.09-7.89,1.09,0,6.14.62,5.52-1.55-.63-2.19-5.12-1.76-6.76-1.62-5.42.47-11.05.97-16.34,2.32-4.92,1.25-9.21,3.71-13.36,6.53-2.02,1.38-4.06,2.69-5.89,4.32-1.69,1.5-3.25,3.21-4.84,4.81-3.33,3.37-6.31,7.42-8.26,11.74-.72,1.6-1.91,4.37.11,5.58Z"/>
  <path class="cls-1" d="M21.65,126.55c.6-2.67,1.19-5.34,1.79-8,1.16-5.07,2.15-10.06,4.13-14.89.92-2.25,2.14-4.31,3.54-6.29.77-1.09,1.51-2.19,2.37-3.21.69-.83,1.65-1.52,2.23-2.43.77-1.21-.36-1.51-1.34-.98-.96.52-1.83,1.31-2.61,2.06-1.78,1.69-3.31,3.63-4.57,5.72-1.26,2.1-2.4,4.33-3.42,6.56-1.03,2.28-1.48,4.61-1.89,7.06-.45,2.74-1.25,5.44-1.78,8.18-.49,2.52-.95,5.05-1.64,7.52-.72,2.56-1.7,5.05-2.61,7.55-.9,2.47-1.75,4.96-2.81,7.36-1.04,2.36-2.24,4.64-3.57,6.85-1.23,2.03-2.55,4.25-2.51,6.7.05,1.24.26,2.79,1.67,3.25,1.1.36,1.86-.43,2.17-1.4.4-1.26.32-2.64.7-3.92.41-1.37,1.1-2.61,1.71-3.9,2.49-5.24,4.52-10.71,6.23-16.25.77-2.5,1.65-4.98,2.22-7.54Z"/>
  <path class="cls-1" d="M79.71,172c-2.28-.99-4.39-2.21-6.5-3.52-1.99-1.24-4.01-2.37-5.87-3.81-1.81-1.4-3.5-2.93-5.18-4.47-3.16-2.89-5.94-6.13-8.19-9.77-2.34-3.79-3.84-7.81-5.39-11.96-.69-1.85-.86-4.01-1.89-5.72-.67-1.11-2.55-3.09-4.04-2.29-1.83.98-.07,3.46.51,4.64.95,1.91,1.68,3.88,2.41,5.87,1.41,3.86,3.4,7.61,5.84,10.93,2.5,3.39,5.32,6.85,8.38,9.74,3.06,2.89,6.71,5.18,9.63,8.2,2.74,2.84,7.24,4.11,11.06,4.54.67,0,2.21.03,1.85-1.07-.22-.69-2.04-1.08-2.64-1.34Z"/>
  <path class="cls-1" d="M3.45,114.71c-.39-1.15-.65-2.32-.77-3.54-.25-2.53.06-5.06.63-7.52,2.28-9.85,10.65-16.81,18.75-22.12,2.05-1.34,4.48-2.21,6.78-3.05,2.45-.89,4.92-1.79,7.46-2.43,2.52-.64,5.08-.83,7.64-1.22.56-.09,3.07-.21,3.17-.87.1-.68-2.99-.48-3.29-.48-3.04-.1-6.04.66-9.01,1.26-2.8.56-5.55,1.35-8.18,2.49-2.65,1.15-5.33,2.37-7.89,3.72-2.51,1.33-4.57,2.96-6.64,4.87-1.75,1.62-3.6,3.16-5.12,5-1.52,1.84-2.92,3.92-4.2,5.93C.03,101.07-.11,106.01.04,110.95c.07,2.25.55,4.96,1.49,7.01.39.84,1.12,2.26,2.22,2.29,1.06.03,1.21-1.04,1.05-1.83-.26-1.29-.93-2.48-1.35-3.71Z"/>
  <path class="cls-1" d="M160.44,101.79c-.6,1.89-1.16,3.76-1.66,5.68-.49,1.87-.75,3.77-1.37,5.62-.64,1.91-1.45,3.74-2.02,5.67-.58,1.96-.82,3.91-.99,5.95-.19,2.18-.21,4.25.11,6.43.29,1.99.49,4.12,1.26,5.99,1.22,2.98,3.54,5.98,7.11,5.96.74-.02,1.68-.27,1.29-1.19-.31-.73-1.4-1.13-2-1.57-1.59-1.16-2.71-2.77-3.5-4.55-.9-2.03-1.57-4.27-1.98-6.45-.43-2.32.09-4.64.5-6.93.72-4.02,1.29-8.4,3-12.14,1.65-3.61,1.94-7.97,2.63-11.85.35-1.95.73-4,.89-5.97.07-.79.08-1.86-.52-2.47-.51-.51-1.12-.44-1.34.27-.26.81.03,2.05.01,2.91-.02.96-.09,1.91-.2,2.86-.23,1.95-.62,3.92-1.21,5.79Z"/>
  <path class="cls-1" d="M82.95,131.53c1.13-1.48,2.1-3.06,2.96-4.71,1.67-3.16,3.16-6.48,4.25-9.89.98-3.09,1.89-6.21,2.6-9.37.74-3.33,1.49-6.6,2.79-9.77.64-1.57,1.25-3.21,2.01-4.73.47-.94,1.17-2.17-.13-2.84-2.44-1.26-4.12,4.5-4.66,5.94-1.14,3.04-1.74,6.02-2.41,9.18-.72,3.37-1.6,6.7-2.53,10.02-.9,3.23-2.2,6.18-3.7,9.17-.8,1.59-1.52,3.22-2.3,4.82-.6,1.22-1.4,2.33-1.82,3.63-.21,1.73,2.63-1.03,2.94-1.44Z"/>
  <path class="cls-1" d="M240.13,134.53c-1.94-.25-3.66-.87-5.32-1.9-2.93-1.82-5.72-4.87-7.12-8.02-1.54-3.46-2.41-7.02-2.82-10.78-.39-3.6-1.02-7.33-2.1-10.8-.5-1.6-1.17-3.14-2.22-4.47-.75-.94-2.08-2.63-3.39-2.8-1.03-.13-1.24.64-.7,1.35.5.68,1.16,1.21,1.65,1.91.89,1.3,1.57,2.72,2.09,4.2,1.26,3.54,1.35,7.26,1.82,10.95.45,3.56,1.19,7.08,2.72,10.35,1.48,3.17,3.67,5.95,6.49,8.04,2.5,1.86,6.21,3.93,9.41,3.88.64,0,1.9,0,1.9-.93,0-.97-1.76-.91-2.4-1Z"/>
  <path class="cls-1" d="M103.87,129.63c-.12.2-.82,1.03-.6,1.22.27.24,1.04-.52,1.21-.66,2.28-1.93,3.6-4.87,4.9-7.48,1.45-2.9,2.33-6.06,3.18-9.18.93-3.44,1.79-6.89,2.5-10.38.65-3.19,1.1-6.49,2.43-9.49.45-1.01,4.74-7.24,1.48-7.15-1.56,0-2.54,2.2-3.01,3.38-.68,1.68-1.35,3.38-1.87,5.12-1.07,3.56-1.68,7.26-2.3,10.91-1.12,6.57-3.34,12.94-5.83,19.1-.63,1.57-1.21,3.16-2.09,4.61Z"/>
  <path class="cls-1" d="M240.3,88.79c-.8,3.18-1.78,6.3-2.61,9.47-.42,1.6-.6,3.04-.65,4.69-.05,1.61-.61,3.2-.4,4.81-.05.98.05,1.97.15,2.94.05.53.05,1.45.4,1.9,1.29,1.65,1.25-2.41,1.25-2.84.02-3.71.9-7.22,1.68-10.82.67-3.07,1.23-6.2,2.26-9.17,1-2.88,2.09-5.76,2.87-8.71.79-2.99,2.09-5.91,3.18-8.81.27-.72,1.67-3.23.69-3.8-1.12-.66-2.27,1.53-2.6,2.19-1.42,2.81-2.52,5.89-3.44,8.89-.94,3.07-1.98,6.15-2.77,9.26Z"/>
  <path class="cls-1" d="M135.17,116.32c.35-1.57.43-3.17.82-4.74.36-1.46.9-2.87,1.37-4.31.97-2.97,1.88-6.03,2.54-9.08.27-1.22.77-3.13-.25-4.16-1.38-1.4-1.61,1.05-1.74,1.85-.27,1.58-.78,3.06-1.22,4.59-.44,1.53-.75,3.08-1.19,4.6-.88,3.02-1.57,6.09-2.51,9.1-.96,3.08-1.73,6.26-2.24,9.44-.24,1.47-.34,2.93-.51,4.41-.18,1.52-.82,3.04-.72,4.58-.13,1.53.19,3.65,1.06,4.96.26.39.7.89,1.23.63.62-.31.35-1.37.27-1.87-.58-3.66-.17-7.15.67-10.75.73-3.11,1.75-6.15,2.43-9.26Z"/>
  <path class="cls-1" d="M253.34,110.65c.87.99,3.35-1.25,3.98-1.85,1.22-1.18,2.25-2.53,3.14-3.97,3.65-5.88,5.4-12.85,7.85-19.26.63-1.64,1.32-3.28,1.79-4.97.47-1.69.64-3.43,1.08-5.13.42-1.65.98-3.27,1.64-4.84.55-1.31,1.68-2.98,1.68-4.43-.03-.89-.72-1.31-1.5-.85-.72.42-1.17,1.35-1.46,2.08-.7,1.77-1.02,3.69-1.56,5.51-1.13,3.85-2.69,7.53-3.68,11.42-.43,1.69-.76,3.39-1.36,5.04-.61,1.68-1.41,3.29-2.03,4.97-1.2,3.24-2.55,6.5-4.24,9.53-.8,1.43-1.75,2.85-2.88,4.05-.45.48-3.15,1.9-2.44,2.7Z"/>
  <path class="cls-1" d="M279.72,106.56c.88.45,2.83-2.25,3.22-2.71,1.09-1.29,1.89-2.73,2.74-4.18,3.46-5.96,4.27-12.79,6.23-19.27.99-3.26,1.34-6.62,2.05-9.94.36-1.69.83-3.36,1.47-4.98.58-1.45,1.44-2.79,1.94-4.26.08-1.06-1.34-.13-1.65.12-.61.48-1.09,1.15-1.51,1.79-1,1.52-1.68,3.24-2.11,5-.91,3.75-1.35,7.64-2.03,11.43-.61,3.38-1.7,6.67-2.7,9.95-1.02,3.34-1.94,6.81-3.54,9.94-.45.89-4.88,6.73-4.11,7.13Z"/>
  <path class="cls-1" d="M335.32,81.67c-1.51,6.48-4.17,12.59-4.74,19.27.02,2.84.87,7.32,3.85,8.69.8.37,1.31-.04,1.03-.87-.21-.63-.91-1.13-1.24-1.71-.84-1.49-1.38-3.66-1.45-5.37-.07-1.78.33-3.63.58-5.39.22-1.6.82-3.03,1.18-4.59.71-3.13,1.57-6.22,2.39-9.33.85-3.24,1.91-6.48,2.35-9.81.23-1.73.64-3.5.68-5.24.02-.98-.19-3.17-1.43-3.47-1.68-.41-.72,2.54-.69,3.25.06,1.56-.32,3.23-.59,4.76-.59,3.26-1.15,6.57-1.9,9.8Z"/>
  <path class="cls-1" d="M311.51,93.01c1.02-3.17,1.45-6.43,2.26-9.64.41-1.65,1.06-3.23,1.46-4.89.37-1.5.52-3.02.76-4.54.25-1.62.84-3.28.47-4.92-.27-1.22-1.55-1.87-1.66-.24-.44,6.4-1.91,13.01-3.97,19.1-1.1,3.25-1.96,6.59-2.78,9.92-.76,3.08-1.93,6.53-1.89,9.73-.1,1.74.52,3.63,1.56,5.02.41.55,1.23,1.28,2,1.14.83-.15.77-.87.34-1.43-.87-1.14-1.47-2.28-1.39-3.8.09-1.81.35-3.68.57-5.48.43-3.42,1.21-6.72,2.26-9.99Z"/>
  <path class="cls-1" d="M221.66,96.12c.82.96,1.48,2.02,1.98,3.18.89,2.04,1.49,4.17,1.96,6.34.57,2.69.88,5.43,1.29,8.15.37,2.44.84,4.86,1.7,7.18,1.42,3.86,3.77,7.05,6.98,9.61.82.65,1.72,1.18,2.71,1.54,1.25.46,2.52.77,3.9.5,1.72-.34,2.71-1.35,3.22-2.95.33-1.03.16-1.96-.43-2.86-.54-.83-1.27-1.46-2.06-2.03-.64-.46-1.3-.9-1.98-1.31-2.74-1.66-4.46-4.1-5.48-7.07-.55-1.59-.83-3.25-1.11-4.91-.32-1.87-.58-3.74-.98-5.59-.67-3.09-1.74-6.04-2.92-8.96-1.12-2.79-2.69-5.29-4.94-7.34-.11-.1-.2-.2-.29-.32-.16-.21-.1-.52.14-.64.35-.18.72-.33,1.09-.47,2.49-.97,4.87-2.14,7.05-3.69,5.19-3.68,8.8-8.48,10.49-14.63.56-2.04.95-4.11,1-6.23.02-.93.02-1.86-.16-2.78-.22-1.09-.54-2.15-.93-3.19-1.44-3.79-3.89-6.73-7.44-8.74-3.25-1.85-6.78-2.7-10.5-2.92-.5-.03-1.01-.03-1.51-.1-.58-.08-1.14-.1-1.72,0-.28.05-.57.07-.86.07-.97.02-1.93.09-2.9.2-2.29.26-4.54.71-6.77,1.29-4.19,1.09-8.2,2.67-12.03,4.69-4.64,2.45-8.88,5.44-12.51,9.23-2.4,2.5-4.43,5.27-5.88,8.42-1.76,3.83-2.47,7.82-1.77,12.01.35,2.07.99,4.02,2.1,5.81.84,1.36,1.89,2.52,3.29,3.34.83.49,1.71.71,2.68.65.69-.05,1.27-.32,1.68-.85.71-.91,1.07-1.93.85-3.1-.16-.88-.46-1.73-.78-2.56-.34-.87-.69-1.73-.99-2.61-.52-1.5-.74-3.06-.63-4.65.17-2.59.85-5.07,1.99-7.41,1.49-3.07,3.59-5.66,6.12-7.96,3.31-3,7.09-5.24,11.24-6.88,2.78-1.1,5.66-1.86,8.64-2.25,1.22-.16,2.44-.16,3.65-.31.86-.1,1.72.09,2.58.13,2.36.12,4.63.63,6.79,1.59,2.05.91,3.73,2.28,5,4.13,1.39,2.03,1.86,4.32,1.85,6.72,0,1.14-.17,2.28-.44,3.39-.83,3.51-2.5,6.6-4.81,9.37-1.95,2.34-4.23,4.28-6.99,5.63-1.26.62-2.54,1.19-3.83,1.73-2.1.87-4.26,1.52-6.53,1.78-1.02.11-2.01-.09-3-.18-.07,0-.14-.04-.2-.07-.87-.31-1.26-.91-1.14-1.82.05-.42.17-.84.28-1.25.4-1.45.79-2.9,1.21-4.34,1.59-5.42,3.87-10.53,7.04-15.23.4-.59.78-1.2,1.16-1.81.19-.3.37-.62.5-.95.48-1.25.14-1.81-1.24-1.89-1.56-.09-2.99.3-4.29,1.16-1.27.84-2.34,1.9-3.3,3.06-2.03,2.44-3.66,5.12-4.97,8.01-1.36,3.01-2.38,6.13-3.23,9.31-1.32,4.94-2.6,9.88-3.89,14.83-1.14,4.36-2.27,8.71-3.4,13.07-1.19,4.58-2.77,9.02-4.69,13.34-2.87,6.44-6.45,12.45-10.85,17.97-3.7,4.64-7.88,8.82-12.6,12.45-7.93,6.11-16.82,10.27-26.54,12.71-2.79.7-5.62,1.24-8.46,1.66-1.46.22-2.93.33-4.39.51-.93.11-1.87.14-2.79.25-1.68.2-3.37.19-5.06.32-1.18.09-2.37.02-3.56.02-2.88.05-5.75-.1-8.62-.36-2.26-.2-4.5-.49-6.73-.86-3.98-.67-7.87-1.67-11.68-3-8.57-3-16-7.77-22.34-14.22-3.48-3.54-5.98-7.67-7.33-12.46-.41-1.44-.82-2.89-1.23-4.33-.55-1.96-1.14-3.91-1.92-5.8-1.16-2.81-2.7-5.36-5-7.42-.08-.07-.15-.15-.22-.23-.25-.3-.19-.59.18-.79.16-.08.33-.14.5-.21.67-.27,1.33-.53,1.99-.82,4.05-1.75,7.6-4.19,10.52-7.5,1.92-2.17,3.43-4.58,4.52-7.26.92-2.26,1.5-4.62,1.82-7.04.35-2.63.18-5.19-.75-7.7-1.68-4.56-4.69-7.88-9.14-9.92-3.19-1.46-6.57-2.06-10.04-2.22-1.47-.07-2.94,0-4.42.13-2.23.19-4.42.53-6.59,1.03-5.44,1.24-10.57,3.27-15.4,6.04-4.23,2.43-8.1,5.32-11.4,8.92-2.59,2.83-4.71,5.96-6.02,9.57-1.44,3.97-1.72,8.01-.6,12.11.57,2.1,1.49,4.02,2.97,5.65.93,1.03,2.03,1.82,3.39,2.19,1.08.29,2.12.18,2.88-.69.76-.86,1.14-1.9.95-3.07-.14-.85-.4-1.67-.72-2.47-.35-.9-.72-1.79-1.04-2.7-.54-1.53-.77-3.13-.67-4.75.16-2.6.85-5.06,1.97-7.41,1.53-3.22,3.78-5.9,6.44-8.25,3.2-2.83,6.84-4.97,10.82-6.55,3.53-1.41,7.2-2.27,10.99-2.53,2.41-.17,4.81-.02,7.19.5,1.56.34,3.05.82,4.45,1.58,4.1,2.22,5.97,5.75,6.01,10.29,0,1.21-.18,2.42-.46,3.61-.7,2.89-1.97,5.52-3.71,7.92-1.99,2.72-4.38,5.03-7.38,6.64-2.34,1.27-4.79,2.3-7.34,3.1-1.84.57-3.71.85-5.64.73-.51-.03-1.01-.1-1.47-.3-.67-.29-1-.81-.96-1.52.02-.39.1-.78.21-1.16.61-2.17,1.17-4.35,1.87-6.49,1.46-4.52,3.46-8.78,6.05-12.77.49-.75,1-1.49,1.46-2.26.28-.46.54-.94.71-1.44.32-.94-.04-1.42-1.04-1.53-.04,0-.07,0-.11,0-1.68-.15-3.21.22-4.6,1.19-1.28.89-2.36,1.99-3.35,3.18-2.05,2.47-3.67,5.21-4.96,8.14-1.28,2.92-2.27,5.94-3.09,9.02-1.68,6.32-3.32,12.65-4.99,18.97-.99,3.77-1.99,7.53-3.02,11.29-.88,3.21-2.03,6.33-3.56,9.3-.34.67-.66,1.35-.95,2.04-.29.69-.56,1.39-.77,2.11-.32,1.14-.28,2.26.33,3.32.51.88,1.24,1.35,2.3,1.29.86-.05,1.61-.36,2.32-.79,1.78-1.08,3.23-2.5,4.3-4.29.76-1.27,1.29-2.63,1.73-4.03.58-1.84.96-3.74,1.35-5.63.73-3.57,1.32-7.17,2.14-10.72.5-2.16,1.03-4.31,1.78-6.4.73-2.05,2.19-3.32,4.34-3.77,1.02-.22,2.04-.45,3.07-.57,1.49-.18,2.98-.4,4.51-.11,1.5.28,2.81.83,3.91,1.89.89.86,1.59,1.85,2.16,2.93.54,1.01.98,2.07,1.3,3.17.46,1.58.9,3.16,1.31,4.75.48,1.87,1.02,3.72,1.86,5.47.26.55.53,1.1.79,1.65,1.2,2.53,2.63,4.92,4.3,7.17,2.4,3.24,5.21,6.1,8.3,8.69,4.85,4.06,10.21,7.31,16.05,9.76,6.74,2.82,13.76,4.56,21.02,5.41.79.09,1.57.16,2.36.24,1.25.12,2.5.26,3.75.33,1,.06,1.78.15,2.83.19,2.03.08,4.1.07,6.12.03,1.78-.03,3.33-.21,4.95-.35,1.68-.15,3.36-.28,5.04-.44,1.68-.16,3.35-.4,5.02-.65,3.17-.48,6.29-1.16,9.38-1.98,5.02-1.34,9.86-3.15,14.52-5.42,3.95-1.92,7.71-4.17,11.27-6.73,5.04-3.62,9.6-7.75,13.67-12.43,4.63-5.33,8.53-11.15,11.85-17.36,2.83-5.29,5.08-10.81,6.63-16.6.78-2.9,1.48-5.82,2.21-8.73.58-2.32,1.16-4.64,1.74-6.97.3-1.2.96-2.13,1.94-2.88.7-.53,1.49-.87,2.34-1.05,2.18-.47,4.37-.84,6.62-.78,2.26.07,4.11.91,5.57,2.62Z"/>
  <path class="cls-1" d="M346.24,100.07c-.36-1.05-.65-2.12-.76-3.23-.1-.92-.23-1.85-.19-2.77.04-.99.15-1.99.27-2.99.24-1.92.59-3.81,1.04-5.69.89-3.72,1.98-7.39,2.75-11.13.34-1.68.69-3.36.99-5.05.22-1.27.36-2.55.56-3.82.3-1.91.46-3.83.3-5.76-.1-1.18-.36-2.33-.89-3.4-.83-1.67-2.22-2.63-4.04-2.88-2.17-.3-4.3-.05-6.34.84-1.97.86-3.69,2.07-5.25,3.53-2.05,1.93-3.73,4.16-5.21,6.54-.78,1.25-1.49,2.53-2.13,3.85-.12.26-.24.52-.46.72-.16.14-.46.07-.54-.13-.08-.21-.05-.42-.04-.63.06-.68.1-1.35.14-2.03,0-1.32-.03-2.64-.31-3.95-.2-.95-.49-1.87-.95-2.73-.69-1.3-1.72-2.2-3.18-2.52-.85-.19-1.72-.16-2.57.04-3.22.75-5.9,2.4-8.14,4.79-1.28,1.37-2.37,2.88-3.32,4.48-1.17,1.97-2.28,3.97-3.42,5.96-.16.28-.33.56-.5.82-.08.12-.22.2-.37.16-.2-.05-.32-.2-.3-.39.05-.39.12-.78.22-1.15.92-3.24,1.65-6.51,2.15-9.83.08-.53.11-1.07.09-1.6-.04-.96-.47-1.44-1.42-1.59-.28-.04-.58-.03-.86,0-.39.05-.78.14-1.16.23-1.73.41-2.18.72-3,2.32-1.18,2.3-2.06,4.72-2.73,7.21-.22.83-.37,1.68-.57,2.51-1.13,4.65-2.25,9.31-3.41,13.95-1.16,4.65-2.62,9.21-4.43,13.65-1.43,3.51-3.7,6.44-6.5,8.97-.77.7-1.65,1.27-2.68,1.56-1.57.45-2.88-.12-3.6-1.57-.13-.25-.23-.53-.3-.8-.26-1.01-.39-2.05-.34-3.08.07-1.46.2-2.92.44-4.37.49-2.86,1.15-5.67,1.95-8.45,1.69-5.87,3.29-11.77,5.17-17.59.49-1.5.9-3.01,1.12-4.58.13-.93.14-1.85-.19-2.75-.26-.72-.76-1.19-1.49-1.45-2.01-.72-3.99.32-4.72,1.61-.53.94-1.03,1.88-1.44,2.87-.77,1.85-1.41,3.75-1.93,5.68-1.24,4.59-2.45,9.18-3.68,13.77-.79,2.97-1.64,5.92-2.73,8.8-.63,1.67-1.35,3.31-2.18,4.9-1.27,2.43-2.89,4.61-4.72,6.64-1.13,1.25-2.35,2.42-3.78,3.35-.73.47-1.49.85-2.34,1.07-1.51.37-2.77-.01-3.81-1.15-.77-.84-1.26-1.83-1.44-2.95-.11-.67-.19-1.34-.19-2.02,0-1.69.2-3.35.51-5,.44-2.36,1.04-4.67,1.74-6.96,1.4-4.54,2.84-9.07,4.25-13.61.88-2.83,1.71-5.68,2.2-8.61.16-.95.23-1.91.13-2.88-.04-.36-.12-.7-.28-1.03-.34-.72-.89-1.09-1.7-1.1-.67,0-1.27.22-1.84.54-1.16.65-2.03,1.59-2.63,2.76-.31.6-.58,1.23-.84,1.86-1.41,3.41-2.49,6.93-3.46,10.48-1.24,4.51-2.42,9.04-3.66,13.56-.74,2.69-1.51,5.37-2.05,8.1-.51,2.61-.77,5.23-.53,7.89.13,1.51.51,2.96,1.27,4.28.91,1.59,2.24,2.67,4.01,3.22,1.77.54,3.54.47,5.32.06,2.17-.51,4.12-1.49,5.93-2.75,2.05-1.43,3.76-3.21,5.29-5.17,1.73-2.21,3.18-4.59,4.49-7.06.17-.31.35-.62.54-.92.08-.12.23-.18.38-.15.19.04.32.19.33.37.02.25.02.5-.02.75-.23,1.78-.18,3.56.08,5.34.19,1.25.53,2.45,1.18,3.54.97,1.62,2.4,2.5,4.33,2.57,1.11.04,2.14-.18,3.13-.67.64-.33,1.25-.7,1.83-1.13,1.51-1.13,2.74-2.52,3.87-4.01,1.61-2.12,2.94-4.41,4.13-6.78.14-.29.3-.57.46-.84.08-.13.23-.17.38-.15.2.04.31.18.32.38,0,.18,0,.36-.04.53-.23,1.45-.49,2.89-.7,4.34-.2,1.35-.21,2.71-.1,4.06.05.65.24,1.26.57,1.83.33.56.81.9,1.48.93.68.03,1.37.05,2.04-.13,1.74-.47,3.26-1.32,4.55-2.56.36-.35.69-.73.93-1.18.45-.81.63-1.66.36-2.58-.14-.48-.27-.96-.38-1.45-.54-2.51-.74-5,0-7.52.59-2.02,1.05-4.08,1.6-6.12,1.64-5.95,3.91-11.65,6.94-17.05,1.53-2.72,3.21-5.34,5.2-7.75.78-.94,1.62-1.82,2.55-2.61.69-.58,1.43-1.08,2.31-1.35,1.48-.44,2.76.22,3.26,1.67.07.2.11.41.16.62.21,1.03.17,2.06.06,3.09-.23,2.17-.71,4.3-1.26,6.41-.69,2.66-1.48,5.3-2.07,7.99-.84,3.84-1.71,7.67-2.58,11.5-.52,2.3-1.1,4.59-1.62,6.89-.37,1.68-.63,3.37-.55,5.1.02.47.09.92.22,1.37.4,1.31,1.34,1.82,2.66,1.45.82-.23,1.49-.69,2.06-1.32.58-.65,1.04-1.37,1.44-2.13.61-1.14,1.09-2.33,1.52-3.55,1.22-3.52,2.01-7.15,2.8-10.78.59-2.72,1.09-5.47,1.85-8.15,1.47-5.18,3.57-10.11,6.28-14.77,1.1-1.89,2.35-3.68,3.82-5.31.84-.94,1.78-1.77,2.84-2.46.58-.37,1.19-.67,1.86-.84,1.47-.39,2.65.19,3.22,1.59.15.36.24.75.32,1.13.18.88.22,1.77.18,2.67-.1,2.36-.45,4.69-.92,7-.82,4.07-1.93,8.06-3,12.06-.92,3.45-1.87,6.9-2.41,10.44-.29,1.88-.45,3.76-.3,5.66.09,1.18.33,2.33.98,3.36.49.77,1.17,1.25,2.06,1.43,1.77.35,3.42-.04,4.97-.92.12-.07.24-.16.35-.25,1.14-1.02,2.03-2.22,2.65-3.61.35-.78.4-1.57.11-2.4Z"/>
  <path class="cls-1" d="M66.6,123.53c-.75,2.72-1.53,5.44-2.02,8.22-.46,2.61-.78,5.23-.37,7.88.17,1.1.45,2.17.92,3.18.77,1.66,1.99,2.87,3.72,3.55.81.32,1.64.51,2.51.57,1.72.11,3.37-.2,4.97-.77,3.12-1.12,5.69-3.03,7.92-5.42,1.96-2.11,3.59-4.47,5.02-6.96.48-.84.93-1.69,1.4-2.54.12-.22.22-.46.44-.6.13-.08.27-.12.4-.03.08.06.16.15.18.24.03.13.01.28,0,.42-.04.75-.08,1.5-.12,2.25,0,1.36.02,2.71.29,4.06.25,1.24.66,2.41,1.38,3.46,1.05,1.52,2.61,2.12,4.36,2.18,1.03.03,2.05-.32,2.99-.83,1.44-.77,2.69-1.79,3.79-2.98,1.02-1.11,1.95-2.29,2.79-3.55,1.15-1.73,2.18-3.53,3.1-5.4.14-.29.24-.6.48-.83.11-.1.25-.13.4-.09.16.04.24.17.25.32,0,.18-.02.35-.05.53-.2,1.2-.42,2.39-.59,3.6-.14.99-.24,1.99-.31,2.98-.06,1.04.05,2.08.41,3.06.36.98.95,1.25,1.94.98.89-.24,1.64-.71,2.29-1.36.7-.69,1.23-1.49,1.68-2.35,1.06-2.01,1.68-4.18,2.19-6.37.93-4,1.88-8,3.03-11.95,1.61-5.51,3.77-10.79,6.58-15.81,1.05-1.88,2.18-3.7,3.41-5.46,1.15-1.65,2.42-3.2,3.9-4.57.47-.44.97-.85,1.52-1.2.43-.27.88-.49,1.37-.63,1.37-.38,2.63.24,3.14,1.56.13.33.23.69.25,1.04.08,1.25.09,2.5-.09,3.74-.29,2.02-.75,4-1.29,5.97-.73,2.69-1.48,5.37-2.08,8.1-.84,3.8-1.71,7.6-2.57,11.4-.53,2.33-1.17,4.64-1.63,6.99-.3,1.55-.44,3.11-.37,4.69.02.61.12,1.21.41,1.76.3.59.79.91,1.46.95.44.02.86-.03,1.27-.18.73-.27,1.33-.71,1.82-1.29.58-.69,1.06-1.44,1.47-2.24.71-1.37,1.26-2.81,1.73-4.27.99-3.07,1.69-6.2,2.38-9.34.6-2.72,1.12-5.46,1.83-8.16,1.34-5.11,3.41-9.93,6.01-14.54,1.14-2.03,2.43-3.97,3.95-5.74.84-.98,1.77-1.87,2.84-2.62.68-.48,1.42-.83,2.24-1.03,1.46-.37,2.49.28,3.07,1.52.26.55.41,1.15.44,1.76.08,1.39.1,2.79-.05,4.18-.2,1.88-.52,3.75-.91,5.6-.91,4.27-2.09,8.46-3.21,12.68-1.12,4.21-2.24,8.43-2.42,12.82-.05,1.11.04,2.21.23,3.3.36,2.02,1.03,3.94,2.01,5.74,1.26,2.31,3.06,4.04,5.56,5,1.56.6,3.1.51,4.59-.24.75-.38,1.23-1,1.42-1.8.2-.85.16-1.71-.22-2.52-.26-.55-.58-1.07-.95-1.56-.46-.6-.91-1.2-1.37-1.8-.71-.95-1.36-1.94-1.87-3-.88-1.83-1.47-3.72-1.4-5.78.04-1.11.07-2.2.21-3.31.32-2.45.83-4.86,1.56-7.22,1.19-3.82,2.34-7.65,3.47-11.49.95-3.22,1.91-6.44,2.45-9.77.38-2.29.71-4.59.34-6.92-.13-.85-.33-1.68-.65-2.48-.79-1.95-2.3-3.01-4.33-3.27-1.76-.23-3.51-.1-5.22.49-1.72.59-3.27,1.48-4.7,2.59-1.81,1.39-3.32,3.05-4.7,4.86-1.57,2.06-2.89,4.27-4.04,6.58-.16.32-.28.66-.54.92-.11.1-.24.15-.39.11-.15-.05-.25-.16-.25-.31,0-.32-.03-.65.02-.96.24-1.61.16-3.21-.07-4.8-.22-1.5-.63-2.93-1.54-4.19-.88-1.21-2.1-1.81-3.59-1.88-1.29-.07-2.49.28-3.67.74-2.67,1.04-4.9,2.68-6.74,4.86-1.37,1.62-2.53,3.39-3.58,5.22-.89,1.55-1.75,3.12-2.63,4.68-.16.28-.28.58-.54.79-.17.14-.48.06-.53-.15-.03-.14-.06-.29-.03-.42.08-.38.19-.76.28-1.14.52-2.04,1.12-4.07,1.5-6.14.19-1.02.41-2.04.3-3.08-.16-1.63-.74-1.69-1.89-1.46-2.48.51-4.45,1.78-5.64,4.08-.53,1.02-.92,2.1-1.19,3.21-.29,1.18-.53,2.37-.82,3.55-1.04,4.27-2.09,8.54-3.14,12.8-1.17,4.72-2.64,9.35-4.45,13.88-1.34,3.35-3.45,6.17-5.99,8.7-.76.76-1.63,1.4-2.63,1.85-2.08.93-3.93.16-4.54-2.06-.24-.87-.34-1.75-.35-2.65-.02-1.36.13-2.71.32-4.06.45-3.16,1.2-6.24,2.08-9.3,1.75-6.08,3.44-12.17,5.37-18.2.48-1.5.84-3.03.99-4.6.08-.8-.07-1.56-.37-2.3-.15-.37-.41-.68-.75-.89-.66-.41-1.41-.61-2.16-.55-1.35.11-2.48.67-3.21,1.89-.5.83-.94,1.69-1.32,2.58-.88,2.08-1.58,4.22-2.17,6.39-1.37,5.07-2.7,10.15-4.08,15.22-.85,3.14-1.87,6.23-3.15,9.23-1.64,3.83-3.96,7.2-6.88,10.18-.8.82-1.67,1.58-2.62,2.23-.78.53-1.6.97-2.52,1.2-1.4.35-2.63.08-3.67-.95-.82-.81-1.33-1.76-1.58-2.87-.34-1.52-.27-3.06-.13-4.59.16-1.74.5-3.46.91-5.17,1.01-4.17,2.36-8.24,3.64-12.34.86-2.73,1.74-5.45,2.56-8.18.66-2.19,1.21-4.41,1.56-6.68.16-1.07.26-2.13-.13-3.18-.41-1.12-1.32-1.59-2.49-1.28-.63.16-1.21.45-1.74.84-.91.68-1.63,1.51-2.11,2.54-.4.84-.77,1.69-1.11,2.56-1.39,3.53-2.46,7.17-3.46,10.82-1.17,4.27-2.29,8.56-3.46,12.83Z"/>
  <path class="cls-1" d="M275.66,139.94c.37-1.35.4-2.62.07-3.82-.32-1.2-1-2.07-2.03-2.63.72-.74,1.35-1.55,1.9-2.43.55-.88.95-1.77,1.2-2.69.3-1.07.36-2.05.2-2.94-.17-.89-.52-1.64-1.08-2.24-.55-.6-1.27-1.03-2.16-1.29-.89-.26-1.9-.3-3.02-.14l-19.99,2.98-1.27,4.58,3.13-.47-5.29,19.18-3.13.47-1.27,4.58,21.27-3.17c1.23-.18,2.46-.58,3.68-1.19,1.22-.61,2.35-1.37,3.4-2.28,1.05-.91,1.96-1.93,2.73-3.04.77-1.12,1.32-2.27,1.65-3.47ZM270.85,140.66c-.15.56-.41,1.11-.78,1.64-.36.53-.79,1-1.28,1.42-.49.42-1.01.77-1.58,1.06-.57.29-1.15.48-1.74.57l-13.32,1.99,2.23-8.06,13.44-2.01c.55-.06,1.05-.02,1.49.13.43.14.8.36,1.09.66.29.3.47.67.56,1.13.08.45.05.95-.1,1.48ZM272,129.1c-.13.46-.33.9-.61,1.32-.28.42-.62.8-1.01,1.14-.39.34-.82.63-1.28.87-.46.24-.94.4-1.42.47l-12.04,1.8,1.8-6.53,12.04-1.8c.94-.14,1.65.06,2.14.6.49.54.62,1.25.37,2.14Z"/>
  <path class="cls-1" d="M304.25,116.78l-16.33,2.44-1.27,4.58,2.53-.38-11.27,20.07-3.17.47-1.27,4.58,11.12-1.66,1.27-4.58-2.93.44,2.04-3.64,14.97-2.23.08,3.32-2.93.44-1.27,4.58,11.16-1.66,1.27-4.58-3.17.47-.82-22.66ZM287.67,134.31l6.56-11.64,5.14-.77.38,10.6-12.08,1.8Z"/>
  <path class="cls-1" d="M341.86,114.02c-.73-.79-1.64-1.36-2.74-1.7-1.1-.34-2.33-.4-3.7-.2l-18.98,2.83-1.27,4.58,3.13-.47-5.29,19.18-3.13.47-1.27,4.58,11.12-1.66,1.27-4.58-3.17.47.96-3.48,8.11-1.21.52,2.45c.34,1.63,1.02,2.84,2.04,3.61,1.02.78,2.5,1.02,4.46.73,1.42-.21,2.69-.64,3.82-1.28,1.13-.64,2.32-1.51,3.57-2.6l-2.09-2.87c-.68.59-1.33,1.07-1.96,1.45-.63.38-1.32.62-2.07.73-1.39.21-2.24-.43-2.55-1.93l-.27-1.39c1.95-.73,3.8-1.86,5.55-3.39,1.28-1.12,2.36-2.33,3.24-3.63.87-1.3,1.5-2.64,1.88-4.02.38-1.38.47-2.63.27-3.76-.2-1.13-.68-2.1-1.43-2.92ZM338.2,121.42c-.21.76-.56,1.51-1.04,2.22-.48.72-1.05,1.37-1.69,1.96-.65.59-1.36,1.08-2.12,1.47-.76.4-1.53.65-2.31.77l-11,1.64,3.07-11.12,10.76-1.6c.8-.12,1.52-.09,2.17.1.64.19,1.15.49,1.54.91.38.42.64.94.76,1.57.12.63.08,1.33-.13,2.09Z"/>
</svg>