<?xml version="1.0" encoding="UTF-8"?>
<svg id="Layer_1" data-name="Layer 1" xmlns="http://www.w3.org/2000/svg" viewBox="0 0 800 853.11">
  <defs>
    <style>
      .cls-1 {
        fill: #1c355e;
      }
    </style>
  </defs>
  <g id="_4" data-name="4">
    <g>
      <g>
        <path class="cls-1" d="M524.87,647.51c-6.16,6.16-18.43,18.34-42.89,18.34h-29.42v-58.3h9.21c24.55,0,36.82,12.27,42.96,18.41v-64.44c-6.14,6.14-18.41,18.41-42.96,18.41h-9.21v-55.23h27.89c24.54,0,36.81,12.27,42.95,18.4,1.1-13.94,5.78-27.42,14.34-38.59,4.23-5.11,8.9-9.64,13.91-13.57h-209.56c6.14,6.14,18.41,18.41,18.41,42.96v98.19c0,18.64-15.11,33.75-33.75,33.75s-33.75-15.11-33.75-33.75v-98.19c0-24.55,12.27-36.82,18.41-42.96h-82.85c6.14,6.14,18.41,18.41,18.41,42.96v98.19c0,38.98,31.6,70.57,70.57,70.57h0c38.98,0,70.57-31.6,70.57-70.57v-98.19c0-14.65,4.38-24.9,9.21-32.12,4.83,7.21,9.21,17.46,9.21,32.12v122.74c0,24.55-12.27,36.82-18.41,42.96h169.58c-16.34-12.5-28.24-30.64-32.83-52.09Z"/>
        <path class="cls-1" d="M756.34,524.7c24.55,0,36.82,12.27,42.96,18.41v-52.16l-193.34.12c-19.86-.16-39.98,7.87-54.57,25.86-16.92,24.03-10.9,60.7,10.5,80.34,10.01,10,23.23,16.01,40.67,24.38,14.26,6.84,31.05,12.54,31.05,27.81,0,11-10.3,16.39-21.48,16.39-14.5,0-32.4-3.73-41.74-30.59h-28.83c10.79,88.99,141.15,84.41,141.15-5.89,0-21.84-14.91-35.18-27.62-42.71-11.41-7.49-34.71-12.25-52.45-20.38-10.04-4.6-18.12-10.99-18.12-21.7,0-13.31,12.05-19.5,26.2-19.88h90.4v131.94c0,24.55-12.27,36.82-18.41,42.96h82.85c-6.14-6.14-18.41-18.41-18.41-42.96v-131.94h9.21Z"/>
        <path class="cls-1" d="M62.87,447.99h82.85c-6.14-6.14-18.41-18.41-18.41-42.96v-58.3h24.48l16.49,42.96c5.92,15.44,14.83,32.19,26.94,44.86,22.46,23.86,51.75,37.99,85.51,37.99,46.03,0,65.93-17.75,79.78-40.24-26.45,15.06-59.52,16.47-87.75,5.58-28.38-10.71-46.94-26.72-61.08-63.54l-13.77-35.87c18.32-10.62,30.65-30.42,30.65-53.12v-21.48c0-33.89-27.48-61.37-61.37-61.37H62.87c6.14,6.14,18.41,18.41,18.41,42.96v159.56c0,24.55-12.27,36.82-18.41,42.96ZM127.31,236.27h24.55c16.95,0,30.68,13.74,30.68,30.68v15.34c0,16.95-13.74,30.68-30.68,30.68h-24.55v-76.71Z"/>
        <path class="cls-1" d="M655.08,377.42c-14.5,0-32.4-3.73-41.74-30.59h-28.83c10.79,88.99,141.15,84.41,141.15-5.89,0-21.84-14.91-35.18-27.62-42.71-11.41-7.49-34.71-12.25-52.45-20.38-10.04-4.6-18.12-10.99-18.12-21.7,0-13.76,12.86-19.91,27.62-19.91,12.6,0,27.55,7.59,35.6,30.75l28.83-.04v-64.44c-4.06,4.07-10.83,10.81-22.06,14.91-2.05.75-4.37.47-6.13-.81-28.36-20.65-71.26-19.84-96.99,11.89-16.92,24.03-10.9,60.7,10.5,80.34,10.01,10,23.23,16.01,40.67,24.38,14.26,6.84,31.05,12.54,31.05,27.81,0,11-10.3,16.39-21.48,16.39Z"/>
        <path class="cls-1" d="M246.98,342.27c0,39.57,32.39,72.71,71.95,71.96,38.34-.73,69.2-32.04,69.2-70.56v-60.71l49.8,129.72c.6,1.58,2.83,1.58,3.44,0l51.09-133.1v61.02c0,43.22,18.39,91.81,56.32,115.56,41.4,27.71,125.63,21.2,149.26-26.69-15.79,10.3-34.67,15.57-53.49,15.45-18.72-.07-37.97-2.13-55.04-10.31-34.93-17.38-52.08-56.23-51.03-94.02v-95.12c0-24.55,12.27-36.82,18.41-42.96h-64.44l-42.95,111.89-42.95-111.89h-64.45c6.14,6.14,18.41,18.41,18.41,42.96v97.24c0,18.17-13.97,33.81-32.12,34.67-19.38.91-35.38-14.53-35.38-33.71v-98.19c0-24.55,12.27-36.82,18.41-42.96h-82.85c6.14,6.14,18.41,18.41,18.41,42.96v96.8Z"/>
        <path class="cls-1" d="M172.12,729.09c-8.07-4.59-16.86-7.82-25.97-9.62-8.24,4.9-17.82,7.75-28.05,7.75h-6.14c-30.5,0-55.23-24.73-55.23-55.23v-98.19c0-30.38,24.85-55.23,55.23-55.23h6.14c30.5,0,55.23,24.73,55.23,55.23v98.19c0,1.32-.09,2.61-.18,3.9-1.84-.2-3.68-.36-5.52-.46-38.47-2.97-58.53,11.96-74.07,30.6,28.35-11.13,61.35-7.9,87.66,7.05,13.47,7.66,24.79,20.4,30.71,24.84,19.47,14.74,43.55,23.11,68.79,23.05,46.04,0,65.95-17.77,79.8-40.28-26.46,15.08-59.53,16.48-87.76,5.59-10.74-4.06-20.07-8.89-28.29-15.32-2.26-1.77-11.5-9.83-14.08-11.77-3.42-2.65-7.05-5.12-10.84-7.41,5.8-13.62,9.03-28.6,9.03-44.34v-49.1c0-62.7-50.83-113.53-113.53-113.53S1.5,535.64,1.5,598.35v49.1c0,62.7,50.83,113.53,113.53,113.53,25.92,0,49.77-8.72,68.88-23.34-3.73-3.17-7.72-6.23-11.8-8.55Z"/>
        <path class="cls-1" d="M246.98,165.7h52.16c-4.78-4.3-15.33-12.89-15.33-30.07v-64.85s36.08,94.02,36.08,94.02c.6,1.58,2.83,1.58,3.44,0l40.25-104.86v75.69c0,17.18-10.57,25.77-15.34,30.07h128.87c-4.78-4.3-15.34-12.89-15.34-30.07v-31.3h21.48l13.09,34.09c2.65,6.91,1.55,14.8-3.19,20.48-2.51,3.01-5.06,5.21-6.83,6.8h67.51c-.59-.53-1.28-1.12-2.05-1.78-6.1-5.28-10.82-12-13.71-19.53l-19.63-51.13c12.2-9.55,20.04-24.4,20.04-41.09h0c0-28.81-23.35-52.16-52.16-52.16h-122.74l-33.75,87.93L296.07,0h-49.09c4.78,4.3,15.33,12.89,15.33,30.07v105.55c0,17.18-10.55,25.77-15.33,30.07ZM461.77,24.55h12.27c15.25,0,27.62,12.36,27.62,27.62h0c0,15.25-12.36,27.62-27.62,27.62h-12.27V24.55ZM400.4,30.07c0-14.07,7.08-22.38,12.27-27.29,5.19,4.91,12.27,13.21,12.27,27.29v105.55c0,14.07-7.08,22.38-12.27,27.29-5.19-4.91-12.27-13.21-12.27-27.29V30.07Z"/>
      </g>
      <g>
        <path class="cls-1" d="M32.69,829.29v-23.46c0-2.1-.77-3.95-2.31-5.55-1.54-1.6-3.32-2.4-5.35-2.4H0l1.5,8.68v46.47h10.54v-17.04h6.31l4.42,17.04h11.42l-5.58-19.34,4.08-4.4ZM22.23,825.49c0,.51-.21.96-.62,1.33-.41.38-.87.57-1.38.57h-8.19v-20.83h8.77c.36,0,.69.15.98.44.3.3.44.65.44,1.05v17.44Z"/>
        <path class="cls-1" d="M60.03,844.51h-8.69c-.38,0-.71-.15-.96-.46-.26-.31-.38-.65-.38-1.03v-45.14h-11.88l1.35,8.6v38.6c0,2.1.75,3.95,2.27,5.55,1.51,1.6,3.28,2.4,5.31,2.4h23.54v-55.15h-10.54v46.63Z"/>
        <path class="cls-1" d="M97.41,819.36l-9.11-21.48h-12.38l1.35,8.68v46.47h10.54v-26.36c0-3.31-.15-6.68-.46-10.09l10.08,24.79,10.19-24.79-.12,1.41c-.1.94-.21,2.25-.31,3.94-.1,1.68-.15,3.26-.15,4.74v26.36h10.5v-55.15h-11.11l-9,21.48Z"/>
        <path class="cls-1" d="M150.56,819.46c-.28-.39-.42-.8-.42-1.23v-10.34c0-.38.14-.71.42-.99s.59-.42.92-.42h7.34c.38,0,.7.14.96.42.26.28.38.61.38.99v5.61h10.54v-6.3c0-2.48-.87-4.65-2.62-6.52-1.74-1.87-3.78-2.81-6.11-2.81h-13.57c-2.36,0-4.42.94-6.17,2.81-1.76,1.87-2.63,4.04-2.63,6.52v13.48l3.62,3.63-3.62,3.76v15.7c0,2.48.88,4.64,2.63,6.48s3.81,2.76,6.17,2.76h22.3v-24.47l1.5-8.52h-20.73c-.33,0-.64-.2-.92-.59ZM160.17,844.51h-8.69c-.33,0-.64-.15-.92-.46-.28-.31-.42-.65-.42-1.03v-12.96c0-.41.14-.75.4-1.05.27-.3.58-.45.94-.45h8.69v15.95Z"/>
        <polygon class="cls-1" points="192.9 806.48 203.43 806.48 203.43 853.03 213.55 853.03 213.55 806.48 223.78 806.48 223.78 797.88 191.47 797.88 192.9 806.48"/>
        <path class="cls-1" d="M251.77,797.88h-15.88c-2.03,0-3.81.8-5.34,2.4-1.54,1.6-2.31,3.45-2.31,5.55v39.24c0,2.1.77,3.95,2.31,5.55,1.54,1.6,3.32,2.4,5.34,2.4h15.88c2.03,0,3.79-.8,5.31-2.4,1.51-1.6,2.27-3.45,2.27-5.55v-39.24c0-2.1-.76-3.95-2.27-5.55-1.51-1.6-3.28-2.4-5.31-2.4ZM248.81,843.01c0,.38-.13.72-.38,1.03-.26.31-.55.46-.89.46h-7.42c-.33,0-.64-.15-.92-.46-.28-.31-.42-.65-.42-1.03v-35.13c0-.38.14-.71.42-.99s.59-.42.92-.42h7.42c.33,0,.63.14.89.42.26.28.38.61.38.99v35.13Z"/>
        <path class="cls-1" d="M289.58,797.88h-24.8l1.35,8.6v46.63h23.88c2.03,0,3.74-.73,5.13-2.18,1.4-1.45,2.1-3.26,2.1-5.41v-17.88l-3.46-3.63,3.46-3.55v-14.62c0-2.1-.77-3.95-2.31-5.55-1.54-1.6-3.32-2.4-5.34-2.4ZM286.69,843.09c0,.38-.14.72-.42,1.03-.28.31-.59.46-.92.46h-8.69v-16.35h8.69c.33,0,.64.15.92.45.28.3.42.63.42,1.01v13.4ZM286.69,818.22c0,.4-.14.75-.4,1.05-.27.3-.58.45-.94.45h-8.69v-13.24h8.69c.36,0,.67.14.94.42s.4.61.4.99v10.34Z"/>
        <path class="cls-1" d="M308.96,797.88l1.23,7.95-8.88,47.2h10.61l1.65-10.82h10.34l1.65,10.82h10.54l-10.38-55.15h-16.77ZM314.84,833.53l3.81-24.31h.15l3.77,24.31h-7.73Z"/>
        <path class="cls-1" d="M363.72,797.88h-15.88c-2.03,0-3.81.8-5.34,2.4-1.54,1.6-2.31,3.45-2.31,5.55v39.24c0,2.1.77,3.95,2.31,5.55,1.54,1.6,3.32,2.4,5.34,2.4h15.88c2.03,0,3.79-.8,5.31-2.4,1.51-1.6,2.27-3.45,2.27-5.55v-11.14h-10.54v9.08c0,.38-.13.72-.38,1.03-.26.31-.55.46-.89.46h-7.42c-.33,0-.64-.15-.92-.46-.28-.31-.42-.65-.42-1.03v-35.13c0-.38.14-.71.42-.99s.59-.42.92-.42h7.42c.33,0,.63.14.89.42.26.28.38.61.38.99v7.75h10.54v-9.81c0-2.1-.76-3.95-2.27-5.55-1.51-1.6-3.28-2.4-5.31-2.4Z"/>
        <path class="cls-1" d="M401.52,797.88h-15.88c-2.03,0-3.81.8-5.34,2.4-1.54,1.6-2.31,3.45-2.31,5.55v39.24c0,2.1.77,3.95,2.31,5.55,1.54,1.6,3.32,2.4,5.34,2.4h15.88c2.03,0,3.79-.8,5.31-2.4,1.51-1.6,2.27-3.45,2.27-5.55v-11.14h-10.54v9.08c0,.38-.13.72-.38,1.03-.26.31-.55.46-.89.46h-7.42c-.33,0-.64-.15-.92-.46-.28-.31-.42-.65-.42-1.03v-35.13c0-.38.14-.71.42-.99s.59-.42.92-.42h7.42c.33,0,.63.14.89.42.26.28.38.61.38.99v7.75h10.54v-9.81c0-2.1-.76-3.95-2.27-5.55-1.51-1.6-3.28-2.4-5.31-2.4Z"/>
        <path class="cls-1" d="M439.32,797.88h-15.88c-2.03,0-3.81.8-5.34,2.4-1.54,1.6-2.31,3.45-2.31,5.55v39.24c0,2.1.77,3.95,2.31,5.55,1.54,1.6,3.32,2.4,5.34,2.4h15.88c2.03,0,3.79-.8,5.31-2.4,1.51-1.6,2.27-3.45,2.27-5.55v-39.24c0-2.1-.76-3.95-2.27-5.55-1.51-1.6-3.28-2.4-5.31-2.4ZM436.36,843.01c0,.38-.13.72-.38,1.03-.26.31-.55.46-.89.46h-7.42c-.33,0-.64-.15-.92-.46-.28-.31-.42-.65-.42-1.03v-35.13c0-.38.14-.71.42-.99s.59-.42.92-.42h7.42c.33,0,.63.14.89.42.26.28.38.61.38.99v35.13Z"/>
        <polygon class="cls-1" points="479.7 828.32 492.01 828.32 493.51 819.72 479.7 819.72 479.7 806.48 495.01 806.48 495.01 797.88 467.82 797.88 469.17 806.48 469.17 853.03 494.2 853.03 495.62 844.51 479.7 844.51 479.7 828.32"/>
        <polygon class="cls-1" points="532.5 797.88 521.93 797.88 515.62 815.96 509.5 797.88 498.85 797.88 509.43 825.25 498.62 853.03 509.35 853.03 515.62 834.49 522 853.03 532.73 853.03 521.85 825.25 532.5 797.88"/>
        <path class="cls-1" d="M561.27,797.88h-24.8l1.35,8.6v46.55h10.54v-17.2h12.92c2.05,0,3.84-.79,5.36-2.38,1.53-1.59,2.29-3.44,2.29-5.57v-22.04c0-2.1-.77-3.95-2.31-5.55-1.54-1.6-3.32-2.4-5.34-2.4ZM558.38,825.81c0,.38-.14.72-.42,1.03-.28.31-.59.46-.92.46h-8.69v-20.83h8.69c.36,0,.67.14.94.42s.4.61.4.99v17.93Z"/>
        <polygon class="cls-1" points="586.15 828.32 598.45 828.32 599.95 819.72 586.15 819.72 586.15 806.48 601.45 806.48 601.45 797.88 574.27 797.88 575.61 806.48 575.61 853.03 600.65 853.03 602.07 844.51 586.15 844.51 586.15 828.32"/>
        <path class="cls-1" d="M640.02,829.29v-23.46c0-2.1-.77-3.95-2.31-5.55-1.54-1.6-3.32-2.4-5.35-2.4h-25.03l1.5,8.68v46.47h10.54v-17.04h6.31l4.42,17.04h11.42l-5.58-19.34,4.08-4.4ZM629.56,825.49c0,.51-.21.96-.62,1.33-.41.38-.87.57-1.38.57h-8.19v-20.83h8.77c.36,0,.69.15.98.44.3.3.44.65.44,1.05v17.44Z"/>
        <polygon class="cls-1" points="646.79 806.56 646.79 853.11 657.33 853.11 657.33 797.88 645.45 797.88 646.79 806.56"/>
        <polygon class="cls-1" points="674.48 828.32 686.79 828.32 688.28 819.72 674.48 819.72 674.48 806.48 689.79 806.48 689.79 797.88 662.6 797.88 663.94 806.48 663.94 853.03 688.98 853.03 690.4 844.51 674.48 844.51 674.48 828.32"/>
        <path class="cls-1" d="M720.09,821.62c0,2.42.15,5.79.46,10.09l-12.65-33.83h-12.07l1.35,8.68v46.47h9.15v-23.74c0-2.42-.17-5.79-.5-10.09l12.69,33.83h10.73v-55.15h-9.15v23.74Z"/>
        <path class="cls-1" d="M759.2,797.88h-15.88c-2.03,0-3.81.8-5.34,2.4-1.54,1.6-2.31,3.45-2.31,5.55v39.24c0,2.1.77,3.95,2.31,5.55,1.54,1.6,3.32,2.4,5.34,2.4h15.88c2.03,0,3.79-.8,5.31-2.4,1.51-1.6,2.27-3.45,2.27-5.55v-11.14h-10.54v9.08c0,.38-.13.72-.38,1.03-.26.31-.55.46-.89.46h-7.42c-.33,0-.64-.15-.92-.46-.28-.31-.42-.65-.42-1.03v-35.13c0-.38.14-.71.42-.99s.59-.42.92-.42h7.42c.33,0,.63.14.89.42.26.28.38.61.38.99v7.75h10.54v-9.81c0-2.1-.76-3.95-2.27-5.55-1.51-1.6-3.28-2.4-5.31-2.4Z"/>
        <polygon class="cls-1" points="784.08 844.51 784.08 828.32 796.38 828.32 797.88 819.72 784.08 819.72 784.08 806.48 799.38 806.48 799.38 797.88 772.2 797.88 773.54 806.48 773.54 853.03 798.58 853.03 800 844.51 784.08 844.51"/>
        <path class="cls-1" d="M579.55,294.57c-8.46-15.25-11.46-33.44-8.12-50.58,3.72-18.3,14.85-32.42,29.23-41.47h-32.39c-5.3,6.17-9.73,13.14-12.43,20.7-7.35,20.83-2.19,45.08,12.05,61.62,3.36,3.85,7.26,7.2,11.66,9.73Z"/>
        <path class="cls-1" d="M765.54,736.43h-400.86c-3.95,5.29-8.63,10.54-14.37,15.34h415.23v-15.34Z"/>
      </g>
    </g>
  </g>
</svg>