<?xml version="1.0" encoding="UTF-8"?>
<svg id="Layer_1" data-name="Layer 1" xmlns="http://www.w3.org/2000/svg" viewBox="0 0 900 900">
  <ellipse cx="457.5" cy="438" rx="365.5" ry="384" fill="rgb(255, 255, 255)">
        </ellipse>
  <defs>
        <style>
            .cls-1 {
        fill: #824737;
        fill-rule: evenodd;
      }
        </style>
    </defs>
  <path class="cls-1" d="M 662.3 457.9 c -1 1.1 -1 2.7 0.1 3.7 c 1.1 1 2.7 1 3.8 -0.1 c 1 -1.1 1 -2.7 -0.1 -3.8 c -1.1 -1 -2.7 -1 -3.8 0.1 Z"/>
  <path class="cls-1" d="M 450 0 C 201.5 0 0 201.5 0 450 s 201.5 450 450 450 s 450 -201.5 450 -450 S 698.5 0 450 0 Z M 593.2 547.1 c 0 0.2 -0.1 0.4 -0.1 0.6 c 0 0.7 -0.1 1.5 -0.1 2.2 c 0 24.1 -0.1 48.2 -0.1 72.3 c 0 6.5 0.1 13 -0.2 19.5 c -0.1 3.1 -1.7 5.8 -3.4 8.3 c -3.3 5.1 -7.8 8.8 -12.8 12.1 c -11.4 7.4 -24 11.9 -36.9 15.6 c -19.4 5.5 -39.2 8.5 -59.2 10.3 c -15.8 1.4 -31.6 2 -47.5 1.6 c -31.1 -0.8 -61.9 -3.9 -91.8 -13 c -10.8 -3.3 -21.2 -7.3 -30.8 -13.4 c -5.1 -3.2 -9.8 -6.8 -13.4 -11.8 c -2.9 -4 -4.5 -8.3 -4.5 -13.5 c -0.1 -22.6 -0.5 -45.2 -0.9 -67.8 c -0.3 -17.1 -0.6 -34.1 -0.8 -51.2 c -0.4 -3.6 -0.1 -7.3 -0.2 -10.9 c 0 -0.3 -0.1 -0.8 0.3 -0.9 c 0.5 -0.2 0.8 0.1 1.1 0.5 c 0.2 0.3 0.4 0.6 0.6 0.9 c 3.1 7.7 9.2 12.7 15.9 16.9 c 11.6 7.3 24.5 11.7 37.6 15.3 c 16.9 4.7 34.2 7.5 51.6 9.2 c 8.3 0.8 16.6 1.3 24.9 1.8 c 11.6 0.6 23.2 0.5 34.8 0.2 c 13.3 -0.3 26.5 -1.5 39.6 -3.3 c 14.9 -2 29.7 -4.7 44.1 -9 c 12.2 -3.6 24.2 -7.8 34.9 -14.8 c 6.6 -4.3 12.4 -9.3 15.3 -16.9 c 0.2 -0.6 0.5 -1.4 1.3 -1.3 c 0.9 0.1 0.5 0.9 0.5 1.4 c 0 13.1 0 26.1 0 39.2 Z M 302.3 484 c 1.2 -1.1 2.4 -2.3 3.8 -3.3 c 13.1 -10.4 28.6 -15.5 44.5 -19.6 c 18.8 -4.9 38 -7.5 57.4 -8.9 c 14.2 -1.1 28.4 -1.5 42.6 -1.1 c 30.6 0.8 61 3.8 90.5 12.6 c 11.4 3.4 22.3 7.9 32.2 14.5 c 3.1 2.1 6.1 4.2 8.5 7.1 c 5.3 6.5 4.8 16.2 -1.5 23.2 c -6.2 6.8 -14 11 -22.1 14.5 c -15.9 7 -32.7 10.8 -49.7 13.6 c -11.7 1.9 -23.5 3.2 -35.4 4 c -6.6 0.5 -13.2 0.8 -19.9 0.9 c -3.3 0 -6.5 0.4 -9.8 0.4 c -13.2 -0.2 -26.4 -0.6 -39.5 -1.7 c -17.9 -1.5 -35.6 -4.1 -53.1 -8.4 c -11 -2.8 -21.7 -6.3 -31.9 -11.4 c -4.8 -2.4 -9.2 -5.3 -13.3 -8.8 c -3.2 -2.7 -5.7 -6.1 -7.2 -10 c -2.5 -6.1 -0.9 -12.8 4.1 -17.5 Z M 591.9 457.6 c 2.4 -3.5 4.6 -7.2 6.7 -10.9 c -0.2 5.1 -0.4 10.2 -0.6 15.3 c -2 -1.5 -4 -2.8 -6 -4.3 Z M 598.6 446.5 c 12 -21.7 18.3 -46.2 17.8 -71.6 c -0.3 -15.9 -3.1 -31.3 -8.4 -45.8 c 25.9 27.4 47 52.4 63.5 74.4 c 2.8 3.8 2.7 8.8 -0.3 11.9 l -14.2 14.8 l -3.6 3.8 l -33.3 34.5 c -3 3.1 -8 3.4 -11.9 0.7 c -3.3 -2.3 -6.8 -4.8 -10.2 -7.3 c 0.2 -5.1 0.5 -10.2 0.6 -15.3 Z M 560.8 281.5 c 14.2 13.7 27.5 27 39.7 39.8 c 1 2.3 1.8 4.6 2.7 7 c 5.6 14.8 8.8 30.5 9.1 46.8 c 0.4 21.8 -4.3 43 -13.4 62.1 c -3 6.2 -6.4 12.2 -10.3 17.9 c -2.4 -1.8 -5 -3.8 -7.4 -5.7 c -17.9 -13.8 -37.2 -29.8 -58 -48.3 c 10.7 -12.5 19.1 -26.8 24.9 -42.3 c 0.2 -0.5 0.3 -0.9 0.5 -1.4 c 2.9 -8.1 5.2 -16.5 6.7 -25.1 c 2.3 -13.4 2.5 -26.8 1 -39.9 c -0.7 -6 -1.6 -12.1 -3.1 -17.9 c 2.5 2.4 5 4.8 7.5 7.2 Z M 547.7 269 c 0.1 0.4 0.2 0.7 0.3 1.1 c 1.9 6.7 3.3 13.5 4.2 20.4 c 1.8 13.5 1.5 27.3 -0.8 41.1 c -1.6 9.4 -4.1 18.4 -7.4 27.1 c -0.2 0.6 -0.5 1.1 -0.7 1.7 c -5.6 13.9 -13.3 26.7 -23 38.1 c -9.4 -8.4 -19.1 -17.5 -29 -26.9 c -1.3 -1.2 -2.5 -2.3 -3.7 -3.5 c -1.8 -1.7 -3.5 -3.3 -5.3 -5 c -7.6 -7.4 -15 -14.6 -22.2 -21.8 l 18.9 -19.6 c 15.3 7.9 31.3 7.8 40.3 -1.5 c 9 -9.3 8.4 -25.2 0.1 -40.2 c 0 0 0 -0.1 -0.1 -0.1 l 13.9 -14.4 l 5 -5.2 c 3.1 2.9 6.3 5.9 9.5 8.9 Z M 454.7 299.9 c 2.5 3.6 5.4 7 8.7 10.2 c 3.4 3.2 6.9 6 10.5 8.3 l -17.3 17.9 l -17.7 -17.1 l -1.5 -1.5 l 0.1 -0.1 l 17.2 -17.9 Z M 452.9 268.7 c 0.7 -3.3 2.2 -6.2 4.5 -8.6 c 6.6 -6.8 18.2 -7.2 29.8 -2 c 1.8 0.8 3.5 1.7 5.3 2.7 c 3.7 2.2 7.3 4.9 10.7 8.2 c 2.8 2.7 5.2 5.6 7.3 8.6 c 0.4 0.6 0.9 1.2 1.3 1.8 c 1.1 1.7 2.1 3.5 2.9 5.2 c 5.6 11.4 5.6 23 -1 29.8 c -6.6 6.8 -18.2 7.2 -29.8 2 c -1.8 -0.8 -3.5 -1.7 -5.3 -2.7 c -3.7 -2.2 -7.3 -4.9 -10.7 -8.2 c -3.4 -3.3 -6.3 -6.8 -8.6 -10.4 c -1.1 -1.7 -2.1 -3.5 -2.9 -5.2 c -3.6 -7.5 -4.9 -15 -3.5 -21.3 Z M 514.6 237.9 l 10.4 10.1 l 8.8 8.5 l -6.9 7.2 l -10.7 11.1 c -2.5 -3.6 -5.4 -7 -8.7 -10.2 c -2.8 -2.7 -5.8 -5 -8.8 -7.1 c -0.6 -0.4 -1.2 -0.9 -1.8 -1.3 l 17.2 -17.9 l 0.4 -0.4 Z M 509.9 234.5 l -18 18.7 c -13.6 -7 -27.7 -7.7 -37 -1.3 c -1.2 0.8 -2.3 1.7 -3.3 2.7 c -3.5 3.6 -5.5 8.3 -6.2 13.5 c -1.1 8.2 1.1 17.6 6.2 26.8 l -18.1 18.7 c -7.2 -7.6 -14 -15.1 -20.6 -22.3 c 6.3 -7.4 12 -15.5 16.7 -24.2 c 1.5 -2.7 2.9 -5.3 4.2 -8.1 c 1.2 -2.6 2.3 -5.2 3.4 -7.9 c 8.8 -21.8 12 -45.1 9.5 -68 c 19.4 14.4 40.6 31.6 63.1 51.4 Z M 442.4 179.8 c 3.3 24 0.1 48.4 -9.4 71.2 c -0.9 2.1 -1.7 4.3 -2.7 6.4 c -1.6 3.3 -3.3 6.5 -5.1 9.7 c -4.3 7.6 -9.3 14.7 -14.9 21.3 c -6.5 -7.3 -12.7 -14.5 -18.6 -21.5 c -4.9 -5.8 -9.5 -11.5 -13.9 -17 c -2 -2.6 -4.1 -5.2 -6.1 -7.7 c 1.5 -2.7 2.9 -5.5 4.3 -8.3 c 13.4 -28.4 17 -59.6 10.7 -89.8 c 16.1 8.6 34.9 20.6 55.6 35.9 Z M 325.3 132.8 c 8.6 -8.9 28.4 -5.7 56.8 8.7 c 7.1 30.3 3.8 62 -9.7 90.5 c -1.1 2.2 -2.1 4.4 -3.3 6.5 c -40.9 -53.8 -56.8 -92.3 -43.8 -105.8 Z M 622.3 501.7 c -0.3 12.5 0.2 25.1 -0.3 37.6 c -0.5 13.3 0.1 26.6 -0.5 39.8 c -0.5 12.8 0.1 25.5 -0.4 38.3 c -0.6 13.2 0.1 26.4 -0.5 39.6 c -0.3 7.5 -0.1 14.9 -0.4 22.3 c -0.4 8 -4 14.7 -9.4 20.5 c -7.8 8.4 -17.5 14 -27.9 18.6 c -18.5 8.3 -38 13.1 -57.9 16.7 c -11.7 2.1 -23.4 3.6 -35.1 4.7 c -6.1 0.6 -12.3 0.6 -18.5 0.8 c -4 0.1 -8 0.4 -12 0.3 h -0.1 c 0 0.1 0 0.1 0 0.2 h -18.4 h 0 h -2.2 h 0 h -18 c 0 -0.1 0 -0.1 0 -0.2 h 0 c -30.3 0.1 -60.1 -3.4 -89.5 -10.9 c -12.4 -3.2 -24.5 -7.2 -36 -12.8 c -7.6 -3.7 -14.9 -8.1 -21.2 -13.8 c -6.1 -5.6 -10.7 -12.2 -12.2 -20.5 c -0.7 -3.8 -0.7 -7.7 -0.7 -11.6 c 0.1 -15.3 -0.5 -30.6 -0.7 -46 c -0.1 -9.1 0.1 -18.3 -0.4 -27.4 c -0.5 -8.3 0.1 -16.5 -0.4 -24.7 c -0.5 -9.3 0 -18.5 -0.5 -27.8 c -0.4 -8.3 0.1 -16.5 -0.4 -24.7 c -0.5 -9.1 0 -18.3 -0.5 -27.4 c -0.5 -8.6 -0.1 -17.2 -0.4 -25.8 c -0.3 -8.9 0.1 -17.8 -0.2 -26.7 c -0.3 -9 0 -18 -0.3 -26.9 c -0.3 -8.3 0 -16.7 -0.2 -25 c -0.1 -5.4 -0.2 -10.8 -0.2 -16.1 h 0 l -0.2 0 v -19.7 h 0 v -7.9 c 1.2 -12 9.3 -19.1 18.2 -25.5 c 9 -6.5 19.1 -10.9 29.5 -14.7 c 20.5 -7.4 41.7 -11.7 63.1 -14.8 c 8.6 -1.2 17.2 -2.2 25.9 -2.8 c 0.4 0 0.8 0 1.3 -0.1 c 4.6 5.4 9.4 10.9 14.5 16.5 c -4.8 0.3 -9.7 0.5 -14.6 0.9 c -20.6 1.8 -41 4.7 -61.1 9.7 c -13.8 3.4 -27.4 7.6 -39.6 15.3 c -5 3.1 -9.7 6.5 -13.4 11.1 c -5.3 6.6 -5.3 13.1 0.1 19.6 c 2.5 3.1 5.5 5.7 8.7 8 c 9.6 6.8 20.2 11.4 31.2 15.2 c 32.8 11.4 66.7 16.7 101.2 19.3 c 19.4 1.5 38.8 1.8 58.2 1 c 9.6 -0.4 19.2 -1.2 28.7 -2.3 c 1.3 1.1 2.6 2.3 3.9 3.4 c -25.4 4.5 -51.2 6.8 -77.1 7.5 c -21.8 0.6 -43.5 -0.3 -65.1 -2.9 c -20.2 -2.4 -40.1 -6.2 -59.3 -12.9 c -13.1 -4.5 -25.6 -10.2 -36.4 -19.1 c -0.1 -0.1 -0.4 -0.1 -0.6 -0.1 c -0.1 0.4 -0.1 0.6 -0.1 0.9 c 0.2 9.7 0.4 19.4 0.6 29.1 c 0.3 17 0.6 34 0.9 51 c 0.5 27.2 0.9 54.4 1.3 81.6 c 0.3 18.1 0.6 36.2 0.9 54.3 c 0.5 27.1 1 54.3 1.3 81.4 c 0.1 4.5 1.5 8.2 4.3 11.6 c 3.7 4.3 8.3 7.6 13.1 10.4 c 13.5 7.8 28.2 12.5 43.3 16.1 c 33.7 8.1 67.9 10.8 102.5 10.6 c 15.8 -0.1 31.5 -0.7 47.2 -2.2 c 19.9 -1.9 39.6 -5 59 -10.2 c 13.7 -3.7 27.1 -8.3 39.3 -15.8 c 4.5 -2.8 8.7 -5.9 12 -10.1 c 2.3 -3 3.5 -6.3 3.5 -10.1 c 0 -9.4 0.2 -18.8 0.3 -28.2 c 0.2 -16.1 0.4 -32.2 0.6 -48.4 c 0.3 -23.1 0.5 -46.1 0.8 -69.2 c 0.2 -16 0.4 -32 0.6 -47.9 c 0 -0.9 0 -1.7 0 -2.6 c 2.5 1.8 5.2 3.7 7.6 5.5 l 3.3 2.3 c 2.1 1.4 4.1 2.7 6.2 4.1 c 0 3.4 0 6.8 -0.1 10.2 Z M 681.8 450.8 l -25.9 26.9 c -6.6 6.8 -16.2 8.8 -24.6 6 c 1.2 -1.4 1.1 -3.5 -0.2 -4.8 c -1.4 -1.4 -3.6 -1.3 -5 0.1 c -0.5 0.5 -0.7 1 -0.9 1.6 c -0.9 -0.7 -1.8 -1.4 -2.7 -2.2 c -0.6 -0.6 -0.6 -1.5 0 -2.1 l 26.8 -27.7 s 0.1 0.1 0.1 0.1 c 1.1 1 2.7 1 3.8 -0.1 s 1 -2.7 -0.1 -3.8 c 0 0 -0.1 -0.1 -0.1 -0.1 l 17 -17.6 c 0.5 0.2 1 0.4 1.6 0.3 c 2 0 3.6 -1.7 3.6 -3.7 c 0 -0.6 -0.2 -1.1 -0.4 -1.6 l 4.5 -4.7 c 0.6 -0.6 1.5 -0.6 2.1 0 c 1.8 1.7 3.3 3.7 4.4 5.8 c -0.4 0.6 -0.6 1.3 -0.6 2 c 0 1.7 1.2 3 2.7 3.4 c 1.9 7.7 0 16.1 -5.9 22.3 Z M 745.8 220.7 c -2.9 27 -36.4 24.9 -40.3 52 c -2.7 15.8 23.6 26.7 20.8 50.4 c -1.7 14.1 -10.2 17.7 -16.2 26.5 c -23.6 34.8 -0.2 28.4 -7.4 73.6 c -1.3 -25.1 -24.1 -37.7 -22.2 -62.1 c 1.2 -15.7 20.2 -25 17.4 -41.4 c -3.1 -19.1 -26.3 -16.1 -28.3 -36.8 c -2.9 -30.9 26.9 -41.2 40.3 -54.1 c 29.9 -28.7 -31.1 -29.2 -16.1 -83.1 c 1.8 34.4 55.5 41.2 51.9 75 Z"/>
  <path class="cls-1" d="M 638.7 475.9 c -0.7 0.7 -0.7 1.9 0.1 2.6 c 0.7 0.7 1.9 0.7 2.6 -0.1 c 0.7 -0.7 0.7 -1.9 -0.1 -2.6 c -0.7 -0.7 -1.9 -0.7 -2.6 0.1 Z"/>
  <path class="cls-1" d="M 670.8 440.9 c -0.8 0.9 -0.8 2.3 0.1 3.1 c 0.9 0.8 2.3 0.8 3.1 -0.1 c 0.8 -0.9 0.8 -2.3 -0.1 -3.1 c -0.9 -0.8 -2.3 -0.8 -3.1 0.1 Z"/>
  <path class="cls-1" d="M 647 471.9 c -1 1.1 -1 2.7 0.1 3.8 s 2.7 1 3.8 -0.1 c 1 -1.1 1 -2.7 -0.1 -3.8 c -1.1 -1 -2.7 -1 -3.8 0.1 Z"/>
  <path class="cls-1" d="M 677.8 434.3 c -1.4 1.4 -1.3 3.6 0.1 5 c 1.4 1.4 3.6 1.3 5 -0.1 c 1.4 -1.4 1.3 -3.6 -0.1 -5 c -1.4 -1.4 -3.6 -1.3 -5 0.1 Z"/>
  <path class="cls-1" d="M 257.2 366.2 v -0.2 h 0 c -0.1 0 -0.1 0 -0.2 0 c 0.1 0.1 0.1 0.2 0.1 0.3 c 0 0 0.1 -0.1 0.1 -0.1 Z"/>
  <path class="cls-1" d="M 424.3 740.5 c -1.2 0 -2.3 0 -3.5 0.1 c 0 0.1 0 0.1 0 0.1 h 3.6 c 4.8 0.1 9.6 -0.3 14.3 0.2 c -0.6 -0.1 -1.1 -0.4 -1.6 -0.4 c -4.3 0 -8.6 0 -12.8 0 Z"/>
  <path class="cls-1" d="M 257.2 359.5 v 6.5 s 0.1 0 0.1 0 c 0 -2.2 0 -4.4 0 -6.6 c -0.1 -2.2 0.5 -4.5 -0.4 -6.6 c 0.5 2.2 0.1 4.5 0.2 6.7 Z"/>
  <path class="cls-1" d="M 257.3 366 c -0.1 0.1 -0.1 0.1 -0.1 0.2 v 6.4 h 0.1 c 0 -2.2 0 -4.4 0 -6.6 Z"/>
    <path class="cls-1" d="M 455.9 740.5 c -1.6 0 -3.2 0 -4.8 0 c -3.4 0.1 -6.8 -0.5 -10.1 0.4 c 3.3 -0.5 6.7 -0.1 10 -0.2 h 8.3 c 0 -0.1 0 -0.1 0 -0.2 h -3.5 Z"/>
</svg>