<?xml version="1.0" encoding="UTF-8"?>
<svg id="Layer_1" data-name="Layer 1" xmlns="http://www.w3.org/2000/svg" viewBox="0 0 900 900">
  <ellipse cx="443.5" cy="453.5" rx="390.5" ry="366.5" fill="rgb(255, 255, 255)">
        </ellipse>
  <defs>
        <style>
            .cls-1 {
        fill: #b2d235;
      }
        </style>
    </defs>
    <path class="cls-1" d="M 450 0 C 201.5 0 0 201.5 0 450 s 201.5 450 450 450 s 450 -201.5 450 -450 S 698.5 0 450 0 Z M 473.9 219.9 c 26.6 -4.8 52 12.8 56.8 39.4 c 4.8 26.6 -12.8 52 -39.4 56.8 c -26.6 4.8 -52 -12.8 -56.8 -39.4 c -4.8 -26.6 12.8 -52 39.3 -56.8 Z M 618 614.7 c -33.6 17.4 -127.7 61.9 -131.7 63.8 c -3.6 1.7 -7.3 2.5 -11.1 2.5 c -9.7 0 -19.1 -5.5 -23.5 -14.9 c -6.1 -12.9 -0.6 -28.4 12.4 -34.5 c 0.7 -0.3 44.3 -20.9 82.8 -39.6 c -9.6 -4.6 -18.7 -8.8 -27 -12.7 c -6.8 1.8 -14.3 3.3 -22.2 4.3 c 1.6 -4.1 2.8 -8.5 3.5 -13 c 0.6 -3.4 0.9 -6.8 0.9 -10.4 c 0 -22.3 -11.4 -41.9 -28.6 -53.3 c -10 -6.7 -21.9 -10.6 -34.8 -10.7 c -0.2 0 -0.5 0 -0.7 0 s -0.5 0 -0.7 0 c -12.8 0.1 -24.8 4 -34.8 10.7 c -17.2 11.5 -28.6 31.1 -28.6 53.3 c 0 3.5 0.4 7 0.9 10.4 c 0.7 4.5 1.9 8.8 3.5 13 c -8 -1.1 -15.4 -2.5 -22.2 -4.3 c -8.3 3.9 -17.4 8.1 -27 12.7 c 38.5 18.6 82.2 39.3 82.8 39.6 c 13 6.1 18.5 21.6 12.4 34.5 c -4.4 9.4 -13.8 14.9 -23.5 14.9 c -3.7 0 -7.5 -0.8 -11.1 -2.5 c -4 -1.9 -98.1 -46.4 -131.7 -63.8 c -8.7 -4.5 -14.1 -13.5 -14 -23.3 c 0.1 -9.8 5.7 -18.7 14.5 -23 c 27.4 -13.4 53.3 -25.8 74.6 -35.7 c 35 -35.4 71.8 -46.3 104.1 -46.2 c 0.2 0 0.5 0 0.7 0 s 0.5 0 0.7 0 c 32.3 0 69.1 10.9 104.1 46.2 c 21.3 9.9 47.2 22.2 74.6 35.7 c 8.8 4.3 14.4 13.2 14.5 23 c 0.1 9.8 -5.3 18.8 -14 23.3 Z M 438.1 611.6 c -19.4 0 -36.3 -10.8 -45.1 -26.7 c -3.3 -6 -5.4 -12.7 -6.1 -19.9 c -0.1 -1.6 -0.2 -3.2 -0.2 -4.9 c 0 -20.3 11.7 -37.7 28.8 -46.1 c 6.7 -3.3 14.1 -5.2 22 -5.3 c 0.2 0 0.5 0 0.7 0 c 0.2 0 0.5 0 0.7 0 c 7.9 0.1 15.3 2 22 5.3 c 17 8.4 28.8 25.9 28.8 46.1 c 0 1.6 -0.1 3.3 -0.2 4.9 c -0.7 7.2 -2.8 13.9 -6.1 19.9 c -8.8 15.9 -25.7 26.7 -45.1 26.7 Z M 643.7 557.7 c -1.1 2.8 -12.2 -5.7 -34.8 -15.9 c -36.2 -15.3 -44.6 -14.2 -57.9 -27.4 c 3.9 -21.1 14.8 -70.6 9.3 -80 c -8.9 -15.2 -18.2 -27.8 -25.5 -37 c -7.9 11.2 -15 21.1 -18.8 26.1 c -4 5.4 -14.7 19.6 -84.7 22.7 c -0.3 0 -0.7 0 -1 0 c -12.3 0 -22.5 -9.7 -23 -22.1 c -0.6 -12.7 9.3 -23.5 22 -24.1 c 20.9 -0.9 43.9 -4.1 51.9 -7 c 8 -10.9 24.7 -34.6 37.3 -52.6 c 4.1 -15.7 13.3 -28.9 24.4 -33.6 c 23.4 -9.9 60.9 21.4 75.8 45.1 c 23.1 36.5 54.8 131.7 25 205.7 Z"/>
</svg>