<?xml version="1.0" encoding="UTF-8"?>
<svg id="Layer_1" xmlns="http://www.w3.org/2000/svg" version="1.1" viewBox="0 0 879.11 879.11">
  <!-- Generator: Adobe Illustrator 30.2.1, SVG Export Plug-In . SVG Version: 2.1.1 Build 1)  -->
  <defs>
    <style>
      .st0 {
        fill: #c6edd7;
      }

      .st1 {
        fill: #5ba19d;
      }

      .st2 {
        fill: #69b5a6;
      }
    </style>
  </defs>
  <circle class="st2" cx="439.56" cy="439.56" r="439.56"/>
  <circle class="st0" cx="439.56" cy="439.56" r="399.65"/>
  <g>
    <path class="st1" d="M497.61,337.42c-12.94-34.85-32.68-66.77-58.06-93.93-25.38,27.16-45.11,59.08-58.06,93.93-11.7,31.28-17.81,64.38-18.04,97.78,37.73,39.28,64.04,88.1,76.1,141.21,12.06-53.11,38.37-101.93,76.1-141.21-.23-33.4-6.34-66.5-18.04-97.78Z"/>
    <path class="st1" d="M616.29,366.81c-.54-29.98-5.74-59.7-15.41-88.08-32.64,13.55-62.36,33.29-87.51,58.13,9.65,27.1,15.34,55.44,16.9,84.16,25.31-22.92,54.41-41.26,86.01-54.2Z"/>
    <path class="st1" d="M365.74,336.85c-25.15-24.84-54.86-44.58-87.51-58.13-9.67,28.38-14.87,58.1-15.4,88.08,31.6,12.94,60.71,31.28,86.01,54.2,1.56-28.72,7.26-57.06,16.9-84.16Z"/>
    <path class="st1" d="M447.18,635.61c147.42-3.78,266.6-125.03,270.52-274.8-147.42,3.71-266.59,124.88-270.52,274.8Z"/>
    <path class="st1" d="M161.41,360.53c3.92,150.06,123.1,271.3,270.52,275.08-3.92-149.77-123.1-271.02-270.52-275.08Z"/>
  </g>
</svg>