<?xml version="1.0" encoding="UTF-8"?>
<svg id="Layer_1" xmlns="http://www.w3.org/2000/svg" viewBox="0 0 455.19 301.53">
  <defs>
    <style>
      .cls-1 {
        fill: #1c355e;
      }
    </style>
  </defs>
  <g id="Horizontal">
    <g>
      <g>
        <path class="cls-1" d="M 238.9 203.3 c 0 -1.5 1.2 -2.8 3.1 -3.7 c 2.3 -1 6 -1.4 8.9 -0.8 l 2.7 -7.4 c -2.9 -0.8 -7 -0.3 -11 1.6 c -6.7 3 -11.1 8.7 -11.1 14.4 c 0 11 14.8 1 14.8 6.5 c 0 1.8 -1.4 3.3 -3.6 4.4 c -2.9 1.3 -7.2 1.4 -10.1 -0.1 l -2.8 7.3 c 3.3 1.5 8.1 1.3 12.8 -0.8 c 6.2 -2.8 11.2 -8.4 11.2 -14.6 c 0 -11.2 -14.8 -1.4 -14.8 -6.8 Z"/>
        <path class="cls-1" d="M 275.6 196.3 c 0 4.2 -2.3 7.8 -5.6 9.3 c -3.4 1.5 -5.8 0.1 -5.8 -4.1 v -18 l -7.1 3.2 v 18 c 0 8.2 5 11.1 12.9 7.5 c 7.8 -3.6 12.7 -11 12.7 -19.2 v -18 l -7.1 3.2 v 18 Z"/>
        <path class="cls-1" d="M 311.9 172.6 c 0 -6.9 -4.2 -8.9 -11.6 -5.5 l -12.5 5.7 v 31.1 l 7.1 -3.2 v -8.8 l 5.4 -2.5 l 0.2 -0.1 l 4.2 6.9 l 8.1 -3.7 l -5.9 -7.6 c 3.3 -3.3 5.1 -7.5 5.1 -12.3 Z M 300.3 183.2 l -5.4 2.5 v -9.9 l 5.4 -2.5 c 3.1 -1.4 4.9 -0.6 4.9 2.7 s -1.8 5.8 -4.9 7.2 Z"/>
        <polygon class="cls-1" points="316.7,190.7 323.8,187.5 323.8,176 336.4,170.3 336.4,164.1 323.8,169.8 323.8,162.6 337.4,156.4 337.4,150.2 316.7,159.6 316.7,190.7"/>
        <polygon class="cls-1" points="340.8,179.7 347.9,176.5 347.9,145.4 340.8,148.6 340.8,179.7"/>
        <polygon class="cls-1" points="372.7,153.3 359.8,140 353.5,142.9 353.5,173.9 360.2,170.9 360.2,151.8 373.1,165.1 379.3,162.2 379.3,131.1 372.7,134.2 372.7,153.3"/>
        <path class="cls-1" d="M 403.5 143.5 c -1.7 1.7 -3.5 3.1 -5 3.8 c -4.6 2.1 -8.2 -0.3 -8.2 -5.5 s 3.5 -10.8 8.1 -12.9 c 2.6 -1.2 5.4 -1.2 7.5 0 l 4 -7.2 c -2.9 -1.5 -7.3 -1.3 -11.4 0.6 c -8.8 4 -15.4 13.8 -15.4 22.8 s 6.4 13 14.9 9.1 c 3.9 -1.8 8.6 -5.6 11.6 -9.3 v -12.1 l -6.2 2.8 v 8 Z"/>
      </g>
      <g>
        <path class="cls-1" d="M 259.1 54.2 l -27.6 7.6 v 120.1 l 24.9 -11.3 v -55.7 l 8.7 -3.2 c 12.2 -4.5 20.3 -16.1 20.3 -29.2 v -8.4 c 0 -13.7 -13 -23.6 -26.2 -20 Z"/>
        <polygon class="cls-1" points="314.3,38.9 289.4,45.8 289.4,155.5 341.3,132 341.3,107.2 314.3,118.3 314.3,38.9"/>
        <polygon class="cls-1" points="436.6,5.2 436.6,26.1 432.4,27.4 432.4,6.3 413.8,11.4 413.8,99 432.4,90.5 432.4,49.9 436.6,48.4 436.6,88.6 455.2,80.1 455.2,0 436.6,5.2"/>
        <path class="cls-1" d="M 209 99.2 l 18.3 -5.9 v -30.4 l -33.3 9.2 c -5.8 1.6 -11.1 4.5 -15.4 8.3 c 5.5 1.7 9.4 6.8 9.4 12.6 h 0 c 0 7 -5.5 12.8 -12.5 13.2 c -3.4 0.2 -6.8 0.5 -10.2 0.9 c -0.1 1 -0.1 1.9 -0.1 2.9 c 0 28 26.9 30.1 26.9 46 c 0 4.4 -2.6 8.8 -6.7 11 c 9.8 1.2 16.7 5.3 20.7 12.1 c 2.2 3.8 3.2 7.9 3 12.4 c 10.9 -7 18.2 -19.2 18.2 -33.2 c 0 -34.8 -26.9 -32.8 -26.9 -47.4 c 0 -6 3.5 -10.2 8.6 -11.8 Z"/>
        <path class="cls-1" d="M 364 47.1 c 0 20.5 19.8 22 19.8 33.6 c 0 3.5 -2.3 7 -5.7 8.4 l -6.8 2.8 l -19.7 -63.3 l -22.8 6.3 l -9.9 74.9 l 23.2 -9.3 l 2.2 -16.3 l 12.6 40.6 l 35.7 -16.3 c 10 -4.5 17 -14.5 17 -26.2 c 0 -25.5 -19.8 -23.9 -19.8 -34.7 c 0 -4.4 2.6 -7.5 6.3 -8.7 l 13.4 -4.3 V 12.6 l -24.4 6.8 c -12.2 3.4 -21.2 14.5 -21.2 27.7 Z"/>
      </g>
    </g>
    <g>
      <path class="cls-1" d="M 177.2 80.2 c -14.1 -2.7 -28.7 -4.2 -43.6 -4.2 c -60.3 0 -111.8 37.4 -132.6 90.3 c -2.8 7.2 0.9 15 8.4 17 c 4.7 1.2 9.6 -0.3 12.6 -3.8 c 2 -2.3 4.2 -4.6 6.4 -6.8 c 4.7 -4.7 9.6 -9.1 14.5 -13.3 c -0.7 1.9 -1.3 3.8 -1.9 5.7 c -2.7 8.8 -4.6 17.9 -5.5 27 c -1.1 10.8 6.4 20.6 17 22.4 l 17.4 3.1 c 10.5 -7.5 22.7 -15.4 36.9 -23.7 c 5.6 -3.2 14.7 -7.8 25.2 -11.9 c 0 0 -45.7 -16.9 -45.7 -16.9 c 4.4 -11 9.6 -21.6 15.5 -31.6 c 5.3 -8.9 13.8 -15.5 23.8 -18.4 c 16.3 -4.8 33 -7.7 49.9 -8.7 c 7 -0.4 12.5 -6.2 12.5 -13.2 h 0 c 0 -6.3 -4.5 -11.8 -10.7 -13 Z M 168.9 96.4 c -21.4 1.8 -44.2 6.5 -64.2 13.9 h 0 c -2 0.7 -3.7 2.1 -4.9 3.8 c -10.9 15.9 -17.8 33 -24.6 50.9 h -23.4 c 0.3 -0.8 9.7 -27.4 9.7 -27.4 c 1.1 -3 -2.5 -5.5 -4.9 -3.4 c 0 0 -11.7 9.6 -22.6 19.4 c -7 6.3 -13.7 12.8 -16.8 15.8 c -1 1 -2.6 1.2 -3.8 0.4 c -1.3 -0.8 -1.8 -2.4 -1.2 -3.8 c 9.8 -22.4 25.5 -41.9 45.9 -56 c 22.2 -15.4 48.2 -23.6 75.4 -23.6 c 11.9 0 23.8 1.5 35.5 3 c 1.8 0.2 3.2 1.8 3.1 3.7 c -0.1 1.8 -1.5 3.2 -3.3 3.4 Z"/>
      <g>
        <path class="cls-1" d="M 202.5 181.4 c -10.4 -17.8 -44.6 -9.6 -70.5 0.6 l 16.1 19.2 c 4.1 4.9 10.8 7 17 5.4 l 6.6 -1.8 c 3.6 -1 6.2 3.6 3.4 6.2 l -19.9 18.6 c -3 2.8 -7.6 1.2 -8.5 -2.4 c -0.3 -1.1 -2.3 -10.3 -18.4 -19.6 l -22.5 -13 c -4.8 2.8 -9.3 5.5 -13.6 8.2 l -4.2 23.8 c -0.5 2.5 1.5 4.9 4.1 4.9 h 10.6 c 4.4 0 5.8 6 1.8 7.9 l -26.3 12.3 c -2.6 1.2 -5.7 -0.6 -5.9 -3.4 l -2.4 -30.5 c -25.2 18 -40.8 33.7 -52.4 46.9 c -4.6 5.2 -6.3 12.3 -2.8 18.3 l 6.8 11.8 c 3.5 6 10.5 8 17.3 6.6 c 24.3 -5.1 57.2 -14.6 105.5 -42.7 c 19.3 -11.2 72.8 -52 58.3 -77 Z"/>
        <path class="cls-1" d="M 68 91.9 c 16.6 -8.6 35.1 -14.1 54.8 -15.5 c 1.6 -3.3 2.7 -7 2.9 -10.9 c 1.1 -16.9 -12.3 -31 -28.9 -31 c -3.3 0 -6.4 0.6 -9.3 1.5 c -5.9 1.8 -12.2 2.6 -18.6 2.6 c -8.1 0 -15.9 -1.4 -23.1 -4 c -2 -0.7 -3.6 1.6 -2.3 3.3 c 4 4.9 9.5 8.5 15.8 10.1 c -2.9 0.6 -5.9 1 -9.1 1 c -4.5 0 -8.8 -0.7 -12.8 -2 c -1.7 -0.5 -3.3 1.1 -2.6 2.7 c 4.1 9.9 13.6 17.1 24.9 17.8 c -3.2 1.4 -6.8 2.1 -10.5 2.1 c -5 0 -9.7 -1.4 -13.8 -3.8 c -1.9 -1.1 -4 1.1 -2.8 2.9 c 7.8 12.1 20.6 20.7 35.4 23 Z"/>
      </g>
    </g>
  </g>
</svg>