<?xml version="1.0" encoding="UTF-8"?>
<svg id="Layer_1" data-name="Layer 1" xmlns="http://www.w3.org/2000/svg" viewBox="0 0 900 900">
  <ellipse cx="436.5" cy="442.5" rx="367.5" ry="383.5" fill="rgb(255, 255, 255)">
        </ellipse>
  <defs>
        <style>
            .cls-1 {
        fill: #2b6091;
      }
        </style>
    </defs>
  <path class="cls-1" d="M 425.4 429.9 l 14.6 49.3 l -18.7 17.6 c 6.8 -0.9 13.7 -1.8 20.7 -2.6 c 22.1 -2.5 43.6 -4.2 64 -5 c -2.2 -11.9 -3.8 -20.7 -3.8 -20.7 l -76.8 -38.7 Z"/>
    <path class="cls-1" d="M 450 0 C 201.5 0 0 201.5 0 450 s 201.5 450 450 450 s 450 -201.5 450 -450 S 698.5 0 450 0 Z M 489.3 201.6 c 19.8 -6.3 40.9 4.7 47.2 24.5 c 6.3 19.8 -4.7 40.9 -24.5 47.2 c -19.8 6.3 -40.9 -4.7 -47.2 -24.5 c -6.3 -19.8 4.7 -40.9 24.5 -47.2 Z M 678 700.1 c -39.8 0 -74 -32.1 -107.2 -32.1 s -67.5 32.1 -107.2 32.1 s -74 -32.1 -107.2 -32.1 s -67.5 32.1 -107.2 32.1 v -29.9 c 33.5 0 67.4 -32.1 107.2 -32.1 s 73.9 32.1 107.2 32.1 s 67.4 -32.1 107.2 -32.1 s 73.9 32.1 107.2 32.1 v 29.9 Z M 455.9 615.8 c -128.7 14.7 -236.1 -0.6 -239.9 -34.2 c -2.7 -23.6 46.5 -49.9 120.7 -68.5 l 49.4 -46.8 l -22.4 -70.7 l 68.4 -83 l -57.8 -8.7 l -55.4 -46.3 c -15.8 -19.8 9.4 -39.2 28.4 -25.6 c 11.4 8.1 52.5 43.8 52.5 43.8 l 73.6 6.3 l 48.2 9.6 l 114.6 51.4 c 30.9 17.4 0.1 45.5 -14.4 34.9 c -4.7 -3.4 -94.5 -41.9 -94.5 -41.9 l -64.3 62.4 l 76.3 36 l 11.5 54.4 c 75.4 1.7 128.4 16.2 131.1 39.6 c 3.8 33.5 -97.4 72.6 -226.1 87.3 Z"/>
</svg>