<?xml version="1.0" encoding="UTF-8"?>
<svg id="Layer_1" data-name="Layer 1" xmlns="http://www.w3.org/2000/svg" viewBox="0 0 408.26 242.24">
  <defs>
    <style>
      .cls-1 {
        fill: #008f39;
        stroke: #ffffff; /* Borde blanco */
        stroke-width: 15px; /* Grosor del borde */
        stroke-linejoin: round; /* Suaviza las esquinas del borde */
      }
    </style>
  </defs>
  <path class="cls-1" d="M 246.9 63.5 l 16.4 16.2 c 2.1 2.1 0.6 5.6 -2.3 5.6 H 34.4 c -13.5 0 -24.4 10.8 -24.4 24.1 v 20.7 c 0 13.3 10.9 24.1 24.4 24.1 h 228.4 c 2.3 0 3.4 2.8 1.8 4.3 l -17.7 17.5 c -9.5 9.4 -9.5 24.6 0 34 l 14.9 14.6 c 9.5 9.4 25 9.4 34.5 0 l 89.1 -87.8 c 9.5 -9.4 9.5 -24.6 0 -34 L 296.2 14.8 c -9.5 -9.4 -25 -9.4 -34.5 0 l -14.9 14.6 c -9.5 9.4 -9.5 24.6 0 34 Z"/>
</svg>
