<?xml version="1.0" encoding="UTF-8"?>
<svg id="Layer_1" data-name="Layer 1" xmlns="http://www.w3.org/2000/svg" viewBox="0 0 900 900">
  <ellipse cx="442" cy="444" rx="380" ry="367" fill="rgb(255, 255, 255)">
        </ellipse>
  <defs>
        <style>
            .cls-1 {
        fill: #a13a96;
      }
        </style>
    </defs>
  <path class="cls-1" d="M 475.2 383.7 c 5 1.7 10.1 3.4 15 5.1 c 10.4 3.6 21.1 7.3 31.7 10.2 l 45.2 -81.5 h -91.9 v 66.2 Z"/>
  <path class="cls-1" d="M 366.1 377.4 c 21.9 -6.1 45.6 -7.6 68.4 -4.2 c 7.8 1.2 15.3 2.9 22.8 5 v -60.6 h -124.4 l 33.2 59.8 Z"/>
    <path class="cls-1" d="M 450 0 C 201.5 0 0 201.5 0 450 s 201.5 450 450 450 s 450 -201.5 450 -450 S 698.5 0 450 0 Z M 590.3 312.9 l -56.2 101.3 s 0 0.1 0 0.1 l -75.1 135.4 v 110.2 h 120.8 c 5 0 9 4 9 9 s -4 9 -9 9 h -259.5 c -5 0 -9 -4 -9 -9 s 4 -9 9 -9 h 120.8 v -110.2 l -87.4 -157.7 l -43.9 -79.2 c -1.6 -2.8 -1.5 -6.2 0.1 -8.9 c 1.6 -2.7 4.6 -4.4 7.8 -4.4 h 139.7 v -10 c 0 -16.7 6.2 -32.8 17.3 -45.2 c 12.8 -14.2 31.1 -22.4 50.2 -22.4 h 56.9 c 5 0 9 4 9 9 s -4 9 -9 9 h -56.9 c -14 0 -27.4 6 -36.8 16.4 c -8.2 9.1 -12.7 20.9 -12.7 33.1 v 10 h 107.2 c 3.2 0 6.1 1.7 7.8 4.4 c 1.6 2.7 1.7 6.2 0.1 8.9 Z"/>
</svg>