<?xml version="1.0" encoding="UTF-8"?>
<svg id="Layer_1" xmlns="http://www.w3.org/2000/svg" version="1.1" viewBox="0 0 456.17 595.46">
  <!-- Generator: Adobe Illustrator 30.2.1, SVG Export Plug-In . SVG Version: 2.1.1 Build 1)  -->
  <defs>
    <style>
      .st0 {
        fill: #1c355e;
      }
    </style>
  </defs>
  <path class="st0" d="M207.47,290.26c-10.04-30.24-26.39-103.1,16.66-173.98,8.14-13.28,17.82-25.51,28.84-36.46-8.17-.93-16.43-1.41-24.64-1.42-39.38.04-78.03,10.73-111.82,30.95-17.34,22.48-28.65,49.19-32.72,77.29-6.85,56.29,7.29,112.73,39.86,159.16,32.23-11,61.12-30.13,83.83-55.53Z"/>
  <path class="st0" d="M230.11,158.64c5.83-.39,11.66-.59,17.47-.59,56.03,0,110.58,18.12,155.73,52.1,15.15,11.72,28.23,25.42,39.07,40.92-17.54-80.1-79.57-145.26-159.82-165.86-15.06,12.29-27.83,26.92-37.99,43.51-5.79,9.45-10.65,19.48-14.47,29.91Z"/>
  <path class="st0" d="M389,229.1c-47.7-35.75-106.38-52.03-165.61-45.93-6.23,32.99-3.95,67.09,6.63,98.96,25.79,5.27,101.45,26.73,142.34,101.4,10.03,18.43,17.01,38.14,20.81,58.71,31.66-35.98,50.73-81.66,53.97-129.59-10.71-33.11-30.79-61.99-58.13-83.55Z"/>
  <path class="st0" d="M335.54,371.89c-26.53,55.69-72.12,99.52-128.99,123.85-13.99,5.57-28.45,9.35-43.21,11.32,72.24,22.55,150.49,6.54,208.41-43.55-2.12-24.03-9.04-46.97-20.58-68.19-4.52-8.2-9.77-16.07-15.63-23.43Z"/>
  <path class="st0" d="M98.96,351.95c-32.29-49.7-46.08-109.16-38.86-168.13,1.65-12.56,4.6-24.84,8.8-36.71C19.36,199.55-1.46,273.38,14.11,344.55c17.1,6.07,34.97,9.39,53.16,9.87,10.57.21,21.23-.65,31.69-2.46Z"/>
  <path class="st0" d="M318.13,352.68c-26.04-23.65-57.78-39.81-92.31-46.94-20.75,23.21-74.4,72.68-154.59,72.68h-4.31c-15.19-.29-30.24-2.34-44.89-6.09,16.65,45.79,48.19,84.97,89.52,110.98,29.08,4.23,58.84.68,86.1-10.32,54.34-23.28,97.1-65.97,120.47-120.3Z"/>
</svg>