<?xml version="1.0" encoding="UTF-8"?>
<svg id="Layer_1" xmlns="http://www.w3.org/2000/svg" version="1.1" viewBox="0 0 879.11 879.11">
  <!-- Generator: Adobe Illustrator 30.2.1, SVG Export Plug-In . SVG Version: 2.1.1 Build 1)  -->
  <defs>
    <style>
      .st0 {
        fill: #4c86c7;
      }

      .st1 {
        fill: #b3dcfa;
      }

      .st2 {
        fill: #3864a3;
      }
    </style>
  </defs>
  <circle class="st0" cx="439.56" cy="439.56" r="439.56"/>
  <circle class="st1" cx="439.56" cy="439.56" r="399.65"/>
  <g>
    <path class="st2" d="M412.21,429.65c-13.31-40.12-35.01-136.78,22.1-230.82,10.8-17.62,23.65-33.85,38.26-48.38-10.84-1.23-21.8-1.87-32.69-1.89-52.24.05-103.52,14.24-148.35,41.06-23.01,29.83-38.01,65.26-43.41,102.54-9.09,74.69,9.67,149.56,52.88,211.16,42.76-14.59,81.09-39.98,111.21-73.67Z"/>
    <path class="st2" d="M442.25,255.02c7.74-.52,15.47-.78,23.18-.78,74.33,0,146.71,24.04,206.61,69.13,20.1,15.55,37.46,33.73,51.83,54.29-23.26-106.27-105.56-192.72-212.04-220.04-19.98,16.31-36.92,35.72-50.4,57.72-7.69,12.53-14.13,25.85-19.19,39.68Z"/>
    <path class="st2" d="M653.05,348.5c-63.29-47.43-141.14-69.03-219.72-60.93-8.27,43.77-5.24,89.01,8.8,131.29,34.22,7,134.6,35.47,188.84,134.52,13.3,24.46,22.57,50.6,27.6,77.89,42-47.74,67.3-108.34,71.6-171.93-14.2-43.93-40.85-82.24-77.12-110.84Z"/>
    <path class="st2" d="M582.11,537.94c-35.2,73.88-95.69,132.04-171.14,164.31-18.56,7.39-37.74,12.41-57.33,15.02,95.84,29.92,199.65,8.68,276.5-57.78-2.82-31.89-12-62.31-27.3-90.47-6-10.89-12.96-21.32-20.73-31.08Z"/>
    <path class="st2" d="M268.24,511.49c-42.83-65.94-61.13-144.83-51.56-223.06,2.19-16.67,6.1-32.96,11.68-48.7-65.71,69.56-93.34,167.51-72.68,261.94,22.69,8.06,46.4,12.46,70.52,13.09,14.03.27,28.16-.86,42.04-3.27Z"/>
    <path class="st2" d="M559.01,512.45c-34.54-31.38-76.65-52.82-122.46-62.27-27.53,30.8-98.71,96.43-205.1,96.43h-5.71c-20.15-.39-40.12-3.11-59.55-8.09,22.09,60.75,63.94,112.73,118.77,147.23,38.58,5.62,78.06.9,114.23-13.7,72.09-30.88,128.82-87.53,159.82-159.61Z"/>
  </g>
</svg>