<?xml version="1.0" encoding="UTF-8"?>
<svg id="Layer_1" data-name="Layer 1" xmlns="http://www.w3.org/2000/svg" viewBox="0 0 900 900">
  <ellipse cx="446" cy="437.5" rx="380" ry="337.5" fill="rgb(255, 255, 255)">
        </ellipse>
  <defs>
        <style>
            .cls-1 {
        fill: #1c355e;
      }
        </style>
    </defs>
  <path class="cls-1" d="M 441 434.8 c -32.1 0 -58.3 26.1 -58.3 58.3 s 26.1 58.3 58.3 58.3 s 58.3 -26.1 58.3 -58.3 s -26.1 -58.3 -58.3 -58.3 Z"/>
  <path class="cls-1" d="M 450 0 C 201.5 0 0 201.5 0 450 s 201.5 450 450 450 s 450 -201.5 450 -450 S 698.5 0 450 0 Z M 680.3 594.2 c 0 10.3 -8.3 18.7 -18.7 18.7 H 238.4 c -10.3 0 -18.7 -8.4 -18.7 -18.7 v -237.2 c 0 -10.3 8.4 -18.7 18.7 -18.7 h 45.6 v -32.6 c 0 -10.3 8.4 -18.7 18.7 -18.7 h 81 c 10.3 0 18.6 8.4 18.6 18.7 v 32.6 h 259.4 c 10.3 0 18.7 8.4 18.7 18.7 v 237.2 Z"/>
  <path class="cls-1" d="M 441.1 384.2 c -59.6 0 -107.9 48.3 -107.9 107.9 s 48.3 107.9 107.9 107.9 s 107.9 -48.3 107.9 -107.9 s -48.3 -107.9 -107.9 -107.9 Z M 441 574 c -44.7 0 -80.9 -36.2 -80.9 -80.9 s 36.2 -80.9 80.9 -80.9 s 80.9 36.2 80.9 80.9 s -36.2 80.9 -80.9 80.9 Z"/>
  <rect class="cls-1" x="246.4" y="365.9" width="93.4" height="46.3"/>
    <rect class="cls-1" x="561.5" y="365.9" width="93.4" height="46.3"/>
</svg>