<svg xmlns="http://www.w3.org/2000/svg" width="128" height="128" viewBox="0 0 24 24"><ellipse cx="12" cy="11.8" rx="11.9" ry="12" fill="#1c355e"/>
    <path d="M 12 3 a 9 9 0 1 0 0 18 a 9 9 0 0 0 0 -18 M 1 12 C 1 5.9 5.9 1 12 1 s 11 4.9 11 11 s -4.9 11 -11 11 S 1 18.1 1 12 m 7 -3.5 v 1 a 0.5 0.5 0 0 0 1 0 v -1 h 2 v 1 a 2.5 2.5 0 0 1 -5 0 v -1 z m 7 0 v 1 a 0.5 0.5 0 0 0 1 0 v -1 h 2 v 1 a 2.5 2.5 0 0 1 -5 0 v -1 z m -6.1 5.1 l 0.5 0.9 C 9.9 15.4 10.9 16 12 16 s 2.1 -0.6 2.6 -1.5 l 0.5 -0.9 l 1.7 1 l -0.5 0.9 A 5 5 0 0 1 12 18 a 5 5 0 0 1 -4.3 -2.5 l -0.5 -0.9 z" fill="#ffffff"/></svg>