<?xml version="1.0" encoding="UTF-8"?>
<svg id="Layer_1" data-name="Layer 1" xmlns="http://www.w3.org/2000/svg" viewBox="0 0 900 900">
  <ellipse cx="454.5" cy="452" rx="378.5" ry="393" fill="rgb(255, 255, 255)">
        </ellipse>
  <defs>
        <style>
            .cls-1 {
        fill: #f2623b;
      }
        </style>
    </defs>
    <path class="cls-1" d="M 450 0 C 201.5 0 0 201.5 0 450 s 201.5 450 450 450 s 450 -201.5 450 -450 S 698.5 0 450 0 Z M 421 474.5 l 0.3 5 h -40.1 l 0.3 -5 c 0.1 -2.9 2.5 -5.2 5.5 -5.2 h 28.6 c 2.9 0 5.3 2.3 5.5 5.2 Z M 360.5 261.7 c 11.2 -37.3 29.8 -64.5 51.6 -76.1 v 165.8 c 0 25 0.5 78.8 1.4 106.5 h -25.6 c -0.1 -2.9 -0.1 -4.1 -0.2 -13.9 c -0.1 -11.2 -3.9 -21.5 -11 -30 c -26.8 -32 -33.4 -94.6 -16.1 -152.3 Z M 424.5 704.4 c -6.1 6.4 -14.4 10 -23.2 10 s -17.1 -3.5 -23.2 -10 c -6.1 -6.4 -9.2 -14.8 -8.8 -23.7 l 11.5 -189.9 h 41 l 11.5 189.9 c 0.5 8.8 -2.7 17.3 -8.8 23.7 Z M 518.2 704.4 c -6.1 6.4 -14.4 10 -23.2 10 c -17.1 0 -31.2 -13.4 -32 -30.5 c 0 0 0 0 0 0 h 0 c -0.1 -1.1 -0.1 -2.1 0 -3.1 l 11.6 -189.9 h 40.8 l 10.8 174.9 h 0 l 0.8 15 c 0.5 8.8 -2.7 17.3 -8.8 23.7 Z M 474.9 479.4 l 0.3 -5 c 0.1 -2.9 2.5 -5.2 5.5 -5.2 h 28.6 c 2.9 0 5.3 2.3 5.5 5.2 l 0.3 5 h -40 Z M 523.6 356.9 c -13.6 10.4 -21 26.9 -20 43.8 l 1.7 57.3 h -20.8 l 1.7 -57.1 c 1.1 -17.1 -6.4 -33.5 -19.9 -43.9 c -17.3 -13.3 -26.7 -34.2 -25.3 -56 l 6.3 -108.3 c 0.2 -3.9 3.4 -6.9 7.3 -6.9 h 0.1 c 4 0.1 7.2 3.4 7.2 7.4 l -1.1 108.7 c 0 3.4 1.2 6.6 3.6 9 c 2.3 2.3 5.4 3.6 8.6 3.6 c 6.6 0 12.1 -5.5 12.2 -12.2 l 2.2 -109.3 c 0.1 -3.9 3.4 -7.2 7.3 -7.2 h 0.2 c 4 0 7.2 3.2 7.3 7.2 l 2.2 109.4 c 0.2 6.8 5.5 12.2 12.3 12.2 c 3.3 0 6.3 -1.3 8.6 -3.6 c 2.4 -2.4 3.6 -5.6 3.6 -9 l -1.1 -108.7 c 0 -4 3.2 -7.3 7.2 -7.4 h 0.1 c 3.9 0 7.1 3 7.3 6.9 l 6.3 108.4 s 0 0 0 0 c 1.5 21.7 -8 42.6 -25.3 55.9 Z"/>
</svg>