<?xml version="1.0" encoding="UTF-8"?>
<svg id="Layer_1" data-name="Layer 1" xmlns="http://www.w3.org/2000/svg" viewBox="0 0 900 900">
  <ellipse cx="432.5" cy="448.5" rx="387.5" ry="375.5" fill="rgb(255, 255, 255)">
        </ellipse>
  <defs>
        <style>
            .cls-1 {
        fill: #46be78;
      }
        </style>
    </defs>
  <path class="cls-1" d="M 450 0 C 201.5 0 0 201.5 0 450 s 201.5 450 450 450 s 450 -201.5 450 -450 S 698.5 0 450 0 Z M 638.7 498.6 c -5.2 42.7 -24.2 81.2 -53.7 108.4 c -25.9 23.9 -57.2 36.6 -89.4 36.6 c -4.9 0 -9.8 -0.3 -14.7 -0.9 c -10.6 -1.3 -21 -4 -30.9 -8 c -9.9 4 -20.3 6.7 -31 8 c -4.9 0.6 -9.8 0.9 -14.7 0.9 c -32.1 0 -63.4 -12.7 -89.4 -36.6 c -29.5 -27.2 -48.6 -65.7 -53.7 -108.4 c -10.7 -88.7 42.7 -168.3 119 -177.5 c 19.9 -2.4 40.1 0.2 59.1 7.5 c -0.5 -15.2 -3.1 -41 -13.9 -59.4 c -2.4 -4.1 -1 -9.3 3.1 -11.7 c 4.1 -2.4 9.3 -1 11.7 3.1 c 13.2 22.6 15.9 53 16.3 69.6 c 20.1 -8.5 41.6 -11.7 63.1 -9.1 c 76.3 9.2 129.7 88.8 119 177.5 Z"/>
    <path class="cls-1" d="M 348.5 366.2 c -25.1 15.3 -43.8 41.1 -52.5 72.6 c -1.3 4.5 1.4 9.3 6 10.5 c 0.8 0.2 1.5 0.3 2.3 0.3 c 3.8 0 7.2 -2.5 8.2 -6.3 c 7.5 -27.3 23.5 -49.5 44.9 -62.5 c 4 -2.5 5.3 -7.7 2.9 -11.8 c -2.5 -4 -7.7 -5.3 -11.8 -2.9 Z"/>
</svg>