<?xml version="1.0" encoding="UTF-8"?>
<svg id="Layer_1" data-name="Layer 1" xmlns="http://www.w3.org/2000/svg" viewBox="0 0 900 900">
  <ellipse cx="441" cy="442.5" rx="385" ry="386.5" fill="rgb(255, 255, 255)">
        </ellipse>
  <defs>
        <style>
            .cls-1 {
        fill: #5b57a6;
        fill-rule: evenodd;
      }
        </style>
    </defs>
    <path class="cls-1" d="M 450 0 C 201.5 0 0 201.5 0 450 s 201.5 450 450 450 s 450 -201.5 450 -450 S 698.5 0 450 0 Z M 565.2 233.9 c 19 0 34.5 15.5 34.5 34.5 s -15.5 34.5 -34.5 34.5 s -34.5 -15.5 -34.5 -34.5 s 15.5 -34.5 34.5 -34.5 Z M 327.4 233.9 c 19 0 34.5 15.5 34.5 34.5 s -15.5 34.5 -34.5 34.5 s -34.5 -15.5 -34.5 -34.5 s 15.5 -34.5 34.5 -34.5 Z M 405.6 466.1 c 0 8.2 -6.7 14.8 -14.8 14.8 s -14.8 -6.7 -14.8 -14.8 v -101.3 h -8.3 v 278.3 c 0 12.7 -8.3 23 -18.6 23 s -18.6 -10.3 -18.6 -23 v -164.9 h -9.3 v 164.9 c 0 12.7 -8.3 23 -18.6 23 s -18.6 -10.3 -18.6 -23 v -278.3 h -8.3 v 101.3 c 0 8.2 -6.7 14.8 -14.8 14.8 s -14.8 -6.7 -14.8 -14.8 v -126 c 0 -1.1 0.1 -2.2 0.4 -3.2 c 1.8 -12.9 12.5 -22.9 25.6 -22.9 h 108 c 13 0 23.8 10 25.6 22.9 c 0.2 1 0.4 2.1 0.4 3.2 v 126 Z M 456.5 666.1 h -13 V 233.9 h 13 v 432.3 Z M 641.8 480.9 c -8.1 1.4 -15.7 -4.1 -17.1 -12.2 l -17.2 -103.9 h -8.2 l 22.9 145.9 h -15 v 132.5 c 0 12.7 -8.3 23 -18.6 23 s -18.6 -10.3 -18.6 -23 v -132.5 h -9.3 v 132.5 c 0 12.7 -8.3 23 -18.6 23 s -18.6 -10.3 -18.6 -23 v -132.5 h -15 l 22.9 -145.9 h -8.2 l -17.2 103.9 c -1.3 8.1 -9 13.6 -17.1 12.2 c -8.1 -1.3 -13.6 -9 -12.2 -17.1 l 20.6 -124.4 c 0.1 -0.3 0.2 -0.6 0.3 -0.9 c 1 -13.7 12.1 -24.6 25.7 -24.6 h 84.4 c 13.6 0 24.7 10.9 25.7 24.7 c 0.1 0.3 0.2 0.6 0.3 0.9 l 20.6 124.4 c 1.3 8.1 -4.1 15.7 -12.2 17.1 Z"/>
</svg>