<?xml version="1.0" encoding="UTF-8"?>
<svg id="Layer_1" data-name="Layer 1" xmlns="http://www.w3.org/2000/svg" viewBox="0 0 900 900">
  <ellipse fill="rgb(255, 255, 255)" cx="446.5" cy="453.5" rx="315.5" ry="318.5">
        </ellipse>
  <defs>
        <style>
            .cls-1 {
        fill: #1c355e;
        fill-rule: evenodd;
      }
        </style>
    </defs>
  <path class="cls-1" d="M 450.2 238.2 c -50.2 0 -90.8 61.3 -90.8 136.1 h 181.3 c 0 -74.8 -40.6 -136.1 -90.5 -136.1 Z"/>
  <path class="cls-1" d="M 344 404.6 c -8 0 -14.9 6.9 -14.9 15.3 s 6.9 15 14.9 15 c 8.4 0 15.3 -6.5 15.3 -15 s -6.9 -15.3 -15.3 -15.3 Z"/>
  <path class="cls-1" d="M 556 404.6 c -8.4 0 -15.3 6.9 -15.3 15.3 s 6.9 15 15.3 15 s 15 -6.5 15 -15 s -6.5 -15.3 -15 -15.3 Z"/>
    <path class="cls-1" d="M 450 0 C 201.5 0 0 201.5 0 450 s 201.5 450 450 450 s 450 -201.5 450 -450 S 698.5 0 450 0 Z M 631.5 692.1 h -363 v -317.8 h 60.6 c 0 -91.6 54.4 -166.4 121.1 -166.4 s 120.8 74.7 120.8 166.4 h 60.6 v 317.8 Z"/>
</svg>