<?xml version="1.0" encoding="UTF-8"?>
<svg id="Layer_1" data-name="Layer 1" xmlns="http://www.w3.org/2000/svg" viewBox="0 0 900 900">
  <ellipse cx="441" cy="437.5" rx="389" ry="364.5" fill="rgb(255, 255, 255)">
        </ellipse>
  <defs>
        <style>
            .cls-1 {
        fill-rule: evenodd;
      }

      .cls-1, .cls-2 {
        fill: #f7931e;
      }
        </style>
    </defs>
  <polygon class="cls-1" points="306.7,507.9 313.8,507.9 313.8,500.8 313.8,497.3 313.8,490.2 306.7,490.2 303.1,490.2 296.1,490.2 296.1,497.3 296.1,500.8 296.1,507.9 303.1,507.9 306.7,507.9"/>
  <polygon class="cls-1" points="306.7,529.2 313.8,529.2 313.8,522.1 313.8,518.6 313.8,511.5 306.7,511.5 303.1,511.5 296.1,511.5 296.1,518.6 296.1,522.1 296.1,529.2 303.1,529.2 306.7,529.2"/>
  <polygon class="cls-1" points="306.7,486.6 313.8,486.6 313.8,479.6 313.8,476 313.8,468.9 306.7,468.9 303.1,468.9 296.1,468.9 296.1,476 296.1,479.6 296.1,486.6 303.1,486.6 306.7,486.6"/>
  <polygon class="cls-1" points="306.7,443.5 313.8,443.5 313.8,436.4 313.8,432.9 313.8,425.8 306.7,425.8 303.1,425.8 296.1,425.8 296.1,432.9 296.1,436.4 296.1,443.5 303.1,443.5 306.7,443.5"/>
  <polygon class="cls-1" points="306.7,465.4 313.8,465.4 313.8,458.3 313.8,454.8 313.8,447 306.7,447 303.1,447 296.1,447 296.1,454.8 296.1,458.3 296.1,465.4 303.1,465.4 306.7,465.4"/>
  <polygon class="cls-1" points="306.7,422.2 313.8,422.2 313.8,415.1 313.8,411.6 313.8,404.5 306.7,404.5 303.1,404.5 296.1,404.5 296.1,411.6 296.1,415.1 296.1,422.2 303.1,422.2 306.7,422.2"/>
  <polygon class="cls-1" points="326.2,337.1 319.1,337.1 319.1,344.2 319.1,347.8 319.1,354.9 326.2,354.9 329.7,354.9 336.8,354.9 336.8,347.8 336.8,344.2 336.8,337.1 329.7,337.1 326.2,337.1"/>
  <polygon class="cls-1" points="346.3,553.4 339.2,553.4 339.2,560.5 339.2,564.1 339.2,571.2 346.3,571.2 349.8,571.2 356.9,571.2 356.9,564.1 356.9,560.5 356.9,553.4 349.8,553.4 346.3,553.4"/>
  <polygon class="cls-1" points="325,553.4 317.9,553.4 317.9,560.5 317.9,564.1 317.9,571.2 325,571.2 328.6,571.2 335.6,571.2 335.6,564.1 335.6,560.5 335.6,553.4 328.6,553.4 325,553.4"/>
  <polygon class="cls-1" points="304.9,337.1 297.8,337.1 297.8,340.7 296.1,340.7 296.1,347.8 296.1,351.3 296.1,358.4 303.1,358.4 306.7,358.4 313.8,358.4 313.8,354.9 315.6,354.9 315.6,347.8 315.6,344.2 315.6,337.1 308.5,337.1 304.9,337.1"/>
  <polygon class="cls-1" points="304.9,553.4 302,553.4 300.8,554 296.1,554 296.1,561.1 296.1,562.3 296.1,564.1 296.1,571.2 303.1,571.2 304.9,571.2 307.3,571.2 314.4,571.2 314.4,564.1 314.4,560.5 314.4,553.4 307.3,553.4 304.9,553.4"/>
  <polygon class="cls-1" points="306.7,550.5 313.8,550.5 313.8,543.4 313.8,539.9 313.8,532.7 306.7,532.7 303.1,532.7 296.1,532.7 296.1,539.9 296.1,543.4 296.1,550.5 303.1,550.5 306.7,550.5"/>
  <polygon class="cls-1" points="478.7,354.9 485.8,354.9 485.8,347.8 485.8,344.2 485.8,337.1 478.7,337.1 475.1,337.1 468,337.1 468,344.2 468,347.8 468,354.9 475.1,354.9 478.7,354.9"/>
  <polygon class="cls-1" points="367.6,553.4 360.5,553.4 360.5,560.5 360.5,564.1 360.5,571.2 367.6,571.2 371.1,571.2 378.2,571.2 378.2,564.1 378.2,560.5 378.2,553.4 371.1,553.4 367.6,553.4"/>
  <polygon class="cls-1" points="500,354.9 507.1,354.9 507.1,347.8 507.1,344.2 507.1,337.1 500,337.1 496.4,337.1 489.3,337.1 489.3,344.2 489.3,347.8 489.3,354.9 496.4,354.9 500,354.9"/>
  <polygon class="cls-1" points="457.4,354.9 464.5,354.9 464.5,347.8 464.5,344.2 464.5,337.1 457.4,337.1 453.9,337.1 446.8,337.1 446.8,344.2 446.8,347.8 446.8,354.9 453.9,354.9 457.4,354.9"/>
  <polygon class="cls-1" points="521.8,354.9 528.9,354.9 528.9,347.8 528.9,344.2 528.9,337.1 521.8,337.1 518.3,337.1 510.6,337.1 510.6,344.2 510.6,347.8 510.6,354.9 518.3,354.9 521.8,354.9"/>
  <polygon class="cls-1" points="543.1,354.9 550.2,354.9 550.2,347.8 550.2,344.2 550.2,337.1 543.1,337.1 539.5,337.1 532.5,337.1 532.5,344.2 532.5,347.8 532.5,354.9 539.5,354.9 543.1,354.9"/>
  <polygon class="cls-1" points="436.1,354.9 443.2,354.9 443.2,347.8 443.2,344.2 443.2,337.1 436.1,337.1 432.6,337.1 425.5,337.1 425.5,344.2 425.5,347.8 425.5,354.9 432.6,354.9 436.1,354.9"/>
  <polygon class="cls-1" points="351,354.9 358.1,354.9 358.1,347.8 358.1,344.2 358.1,337.1 351,337.1 347.5,337.1 340.4,337.1 340.4,344.2 340.4,347.8 340.4,354.9 347.5,354.9 351,354.9"/>
  <polygon class="cls-1" points="414.9,354.9 421.9,354.9 421.9,347.8 421.9,344.2 421.9,337.1 414.9,337.1 411.3,337.1 404.2,337.1 404.2,344.2 404.2,347.8 404.2,354.9 411.3,354.9 414.9,354.9"/>
  <polygon class="cls-1" points="306.7,400.9 313.8,400.9 313.8,393.9 313.8,390.3 313.8,383.2 306.7,383.2 303.1,383.2 296.1,383.2 296.1,390.3 296.1,393.9 296.1,400.9 303.1,400.9 306.7,400.9"/>
  <polygon class="cls-1" points="306.7,379.7 313.8,379.7 313.8,372.6 313.8,369 313.8,361.9 306.7,361.9 303.1,361.9 296.1,361.9 296.1,369 296.1,372.6 296.1,379.7 303.1,379.7 306.7,379.7"/>
  <polygon class="cls-1" points="372.3,354.9 379.4,354.9 379.4,347.8 379.4,344.2 379.4,337.1 372.3,337.1 368.8,337.1 361.7,337.1 361.7,344.2 361.7,347.8 361.7,354.9 368.8,354.9 372.3,354.9"/>
  <polygon class="cls-1" points="393.6,354.9 400.7,354.9 400.7,347.8 400.7,344.2 400.7,337.1 393.6,337.1 390,337.1 382.9,337.1 382.9,344.2 382.9,347.8 382.9,354.9 390,354.9 393.6,354.9"/>
  <polygon class="cls-1" points="601.6,531 594.5,531 594.5,538 594.5,541.6 594.5,548.7 601.6,548.7 605.1,548.7 612.2,548.7 612.2,541.6 612.2,538 612.2,531 605.1,531 601.6,531"/>
  <polygon class="cls-1" points="601.6,467.1 594.5,467.1 594.5,474.3 594.5,477.8 594.5,484.9 601.6,484.9 605.1,484.9 612.2,484.9 612.2,477.8 612.2,474.3 612.2,467.1 605.1,467.1 601.6,467.1"/>
  <polygon class="cls-1" points="582.1,337.1 575,337.1 575,344.2 575,347.8 575,354.9 582.1,354.9 585.6,354.9 592.8,354.9 592.8,347.8 592.8,344.2 592.8,337.1 585.6,337.1 582.1,337.1"/>
  <polygon class="cls-1" points="601.6,445.9 594.5,445.9 594.5,453 594.5,456.5 594.5,463.6 601.6,463.6 605.1,463.6 612.2,463.6 612.2,456.5 612.2,453 612.2,445.9 605.1,445.9 601.6,445.9"/>
  <polygon class="cls-1" points="601.6,488.4 594.5,488.4 594.5,495.5 594.5,499.1 594.5,506.1 601.6,506.1 605.1,506.1 612.2,506.1 612.2,499.1 612.2,495.5 612.2,488.4 605.1,488.4 601.6,488.4"/>
  <polygon class="cls-1" points="601.6,552.3 594.5,552.3 594.5,559.4 594.5,562.3 594.5,565.3 595.1,565.9 595.1,571.2 602.2,571.2 603.4,571.2 605.1,571.2 612.2,571.2 612.2,564.1 612.2,562.3 612.2,559.4 612.2,552.3 605.1,552.3 601.6,552.3"/>
  <polygon class="cls-1" points="601.6,509.7 594.5,509.7 594.5,516.8 594.5,520.3 594.5,527.4 601.6,527.4 605.1,527.4 612.2,527.4 612.2,520.3 612.2,516.8 612.2,509.7 605.1,509.7 601.6,509.7"/>
  <polygon class="cls-1" points="601.6,424.6 594.5,424.6 594.5,431.7 594.5,435.2 594.5,442.3 601.6,442.3 605.1,442.3 612.2,442.3 612.2,435.2 612.2,431.7 612.2,424.6 605.1,424.6 601.6,424.6"/>
  <path class="cls-1" d="M 450 0 C 201.5 0 0 201.5 0 450 s 201.5 450 450 450 s 450 -201.5 450 -450 S 698.5 0 450 0 Z M 729.9 536.3 c -55.6 -19.5 -124.7 39.6 -119.4 86.3 h -166.7 v -0.6 c -56.7 0 -114.1 0 -174.3 0.6 c 11.2 -46.7 -44.3 -102.2 -99.3 -88.1 v -178.5 c 65.6 -4.7 101.1 -21.3 107.6 -78.6 l 166.1 0.6 h 166.7 c 6.5 59.1 49 75.7 119.4 79.2 v 179.1 Z"/>
  <polygon class="cls-1" points="601.6,338.9 594.5,338.9 594.5,346 594.5,349.5 594.5,356.6 601.6,356.6 605.1,356.6 612.2,356.6 612.2,349.5 612.2,346 612.2,338.9 605.1,338.9 601.6,338.9"/>
  <polygon class="cls-1" points="601.6,381.4 594.5,381.4 594.5,388.6 594.5,392.1 594.5,399.2 601.6,399.2 605.1,399.2 612.2,399.2 612.2,392.1 612.2,388.6 612.2,381.4 605.1,381.4 601.6,381.4"/>
  <polygon class="cls-1" points="601.6,360.2 594.5,360.2 594.5,367.3 594.5,370.8 594.5,377.9 601.6,377.9 605.1,377.9 612.2,377.9 612.2,370.8 612.2,367.3 612.2,360.2 605.1,360.2 601.6,360.2"/>
  <polygon class="cls-1" points="601.6,402.7 594.5,402.7 594.5,409.8 594.5,413.4 594.5,421.1 601.6,421.1 605.1,421.1 612.2,421.1 612.2,413.4 612.2,409.8 612.2,402.7 605.1,402.7 601.6,402.7"/>
  <polygon class="cls-1" points="538.4,553.4 531.3,553.4 531.3,560.5 531.3,564.1 531.3,571.2 538.4,571.2 541.9,571.2 549,571.2 549,564.1 549,560.5 549,553.4 541.9,553.4 538.4,553.4"/>
  <polygon class="cls-1" points="474.6,553.4 467.4,553.4 467.4,560.5 467.4,564.1 467.4,571.2 474.6,571.2 478.1,571.2 485.2,571.2 485.2,564.1 485.2,560.5 485.2,553.4 478.1,553.4 474.6,553.4"/>
  <polygon class="cls-1" points="580.9,553.4 573.8,553.4 573.8,560.5 573.8,564.1 573.8,571.2 580.9,571.2 584.5,571.2 591.6,571.2 591.6,564.1 591.6,560.5 591.6,553.4 584.5,553.4 580.9,553.4"/>
  <polygon class="cls-1" points="453.3,553.4 446.2,553.4 446.2,560.5 446.2,564.1 446.2,571.2 453.3,571.2 456.8,571.2 463.9,571.2 463.9,564.1 463.9,560.5 463.9,553.4 456.8,553.4 453.3,553.4"/>
  <polygon class="cls-1" points="410.1,553.4 403,553.4 403,560.5 403,564.1 403,571.2 410.1,571.2 414.3,571.2 421.4,571.2 421.4,564.1 421.4,560.5 421.4,553.4 414.3,553.4 410.1,553.4"/>
  <polygon class="cls-1" points="432,553.4 424.9,553.4 424.9,560.5 424.9,564.1 424.9,571.2 432,571.2 435.5,571.2 442.6,571.2 442.6,564.1 442.6,560.5 442.6,553.4 435.5,553.4 432,553.4"/>
  <rect class="cls-2" x="339.2" y="377.9" width="229.9" height="152.5"/>
  <polygon class="cls-1" points="560.8,337.1 553.7,337.1 553.7,344.2 553.7,347.8 553.7,354.9 560.8,354.9 564.4,354.9 571.5,354.9 571.5,347.8 571.5,344.2 571.5,337.1 564.4,337.1 560.8,337.1"/>
  <polygon class="cls-1" points="559.7,553.4 552.5,553.4 552.5,560.5 552.5,564.1 552.5,571.2 559.7,571.2 563.2,571.2 570.3,571.2 570.3,564.1 570.3,560.5 570.3,553.4 563.2,553.4 559.7,553.4"/>
  <polygon class="cls-1" points="388.8,553.4 381.7,553.4 381.7,560.5 381.7,564.1 381.7,571.2 388.8,571.2 392.4,571.2 399.5,571.2 399.5,564.1 399.5,560.5 399.5,553.4 392.4,553.4 388.8,553.4"/>
  <polygon class="cls-1" points="517.1,553.4 510,553.4 510,560.5 510,564.1 510,571.2 517.1,571.2 520.7,571.2 527.7,571.2 527.7,564.1 527.7,560.5 527.7,553.4 520.7,553.4 517.1,553.4"/>
    <polygon class="cls-1" points="495.8,553.4 488.7,553.4 488.7,560.5 488.7,564.1 488.7,571.2 495.8,571.2 499.4,571.2 506.4,571.2 506.4,564.1 506.4,560.5 506.4,553.4 499.4,553.4 495.8,553.4"/>
</svg>