<?xml version="1.0" encoding="UTF-8"?>
<svg id="Layer_1" data-name="Layer 1" xmlns="http://www.w3.org/2000/svg" viewBox="0 0 900 900">
  <ellipse cx="435" cy="430.5" rx="389" ry="348.5" fill="rgb(255, 255, 255)">
        </ellipse>
  <defs>
        <style>
            .cls-1 {
        fill: #1c355e;
      }
        </style>
    </defs>
  <path class="cls-1" d="M 531.6 432.7 c -10.1 -3.7 -29.9 -1.2 -42.9 1.2 c -7.4 1.3 -12.7 2.5 -12.7 2.5 c 0 0 5.3 1.1 12.9 2.8 c 17.4 4 46.8 11.5 52.4 18.3 c 0 0 6.1 -19 -9.7 -24.8 Z"/>
  <path class="cls-1" d="M 405.7 494.2 c -10.1 -4.3 -26.7 -8.4 -47.6 -2.8 c -20.9 5.6 -33.3 17.4 -39.9 26.1 c -4.3 5.8 -5.8 13.2 -4 20.1 l 1.7 6.3 s 2.5 -22 46.5 -33.7 c 44 -11.7 58.4 5.7 58.4 5.7 l -1.7 -6.3 c -1.9 -7 -6.8 -12.7 -13.5 -15.5 Z"/>
  <path class="cls-1" d="M 352.9 474.3 s 33.6 -6.5 21.2 -28.4 c -11.3 -20.1 -28.5 -46.7 -21.5 -69.9 c 8.8 -29.6 60.1 -31.1 85.2 -23.9 c -23.3 -6.7 -63.1 -17.5 -85.3 -0.2 c -13.7 10.7 -11.8 34.1 -9.3 48 c 3.2 17.8 11.4 34.3 19.3 50.5 c 7.3 15 -9.6 23.4 -9.6 23.4 c 0 0 -18.8 1.1 -20 -15.5 c -1.3 -18 -2.3 -36.3 -8.5 -53.3 c -4.8 -13.4 -14.9 -34.6 -32 -37 c -27.8 -3.9 -57 25.3 -73.9 42.7 c 18.2 -18.8 63.3 -43 85.7 -21.8 c 17.6 16.7 16 48.3 16.2 71.3 c 0.2 25.1 32.6 14.1 32.6 14.1 Z"/>
  <path class="cls-1" d="M 367 374.8 s 5.2 19.3 21.6 15.6 c 16.4 -3.8 44.7 -33.3 44.7 -33.3 c 0 0 -54.3 21.6 -66.3 17.7 Z"/>
  <path class="cls-1" d="M 226 412.4 s 39.2 11.5 55.3 6.5 c 16.1 -5 11 -24.2 11 -24.2 c -8.5 9.4 -66.3 17.7 -66.3 17.7 Z"/>
  <path class="cls-1" d="M 544.8 574.6 c -43.3 -14 -45.9 -36.4 -45.9 -36.4 l -2 6.2 c -2.2 6.9 -1.1 14.3 2.9 20.3 c 6.2 9.1 17.9 21.5 38.5 28.1 c 20.6 6.7 37.4 3.4 47.7 -0.4 c 6.8 -2.5 12 -7.9 14.2 -14.8 l 2 -6.2 s -14 17.1 -57.4 3.1 Z"/>
  <path class="cls-1" d="M 621.4 434.5 c -17.3 1.5 -28.4 22.2 -33.9 35.3 c -7 16.7 -9 35 -11.2 52.8 c -2 16.5 -20.8 14.5 -20.8 14.5 c 0 0 -16.4 -9.2 -8.4 -23.9 c 8.7 -15.8 17.7 -31.8 21.8 -49.4 c 3.2 -13.8 6.3 -37.1 -6.9 -48.5 c -19 -16.4 -53.3 -11.2 -77.2 -6 c -2.8 0.6 -5.5 1.2 -8 1.8 c 2.5 -0.6 5.2 -1 8.1 -1.4 c 26.9 -3.5 69.1 2.4 75.7 29.6 c 5.7 23.5 -12.8 49.2 -25.1 68.7 c -13.4 21.2 19.8 29.5 19.8 29.5 c 0 0 31.8 12.7 33.3 -12.4 c 1.4 -23 1.4 -54.6 19.8 -70.4 c 23.5 -20.1 67.3 6.4 84.5 26.1 c -15.9 -18.2 -43.6 -48.9 -71.6 -46.4 Z"/>
  <path class="cls-1" d="M 450 0 C 201.5 0 0 201.5 0 450 s 201.5 450 450 450 s 450 -201.5 450 -450 S 698.5 0 450 0 Z M 411.2 581.4 c -8.8 11.5 -22 18 -35.8 18.4 c -6.6 0.2 -13.3 -0.9 -19.7 -3.6 l -58.5 -24.7 c -41.1 -17.4 -72 -52.8 -83.5 -95.9 l -31.4 -117.5 c -8.1 -30.4 15.6 -60.1 47 -58.9 l 63.1 2.4 c 9.4 0.4 18.6 -2.1 26.6 -7.1 l 53.6 -33.5 c 0.9 -0.6 1.9 -1.1 2.9 -1.6 c 26.3 -14.1 59.3 -0.1 67.2 29.2 l 18.8 70.3 l -33.7 104.6 c -9.9 30.9 -9.1 63.8 1.8 93.7 l -18.4 24.2 Z M 731.6 430.2 l -37.3 115.8 c -13.7 42.5 -46.3 76.2 -88.2 91.5 l -59.7 21.7 c -13.5 4.8 -28.1 3.2 -39.8 -3.8 c -0.1 0 -0.2 -0.1 -0.2 -0.1 c -5.7 -3.4 -10.7 -8 -14.6 -13.7 l -35.8 -52.5 c -6.9 -10.1 -12.3 -20.9 -16.4 -32.1 c -10.8 -29.9 -11.7 -62.8 -1.8 -93.7 l 33.7 -104.6 l 3.6 -11.2 c 7 -21.8 27.9 -34.1 48.8 -32.3 c 7.8 0.7 15.7 3.4 22.7 8.3 l 51.7 36.2 c 7.7 5.4 16.8 8.3 26.3 8.5 l 63.2 0.9 c 1.1 0 2.2 0.1 3.3 0.2 c 29.7 2.4 50 32.1 40.6 61 Z"/>
    <path class="cls-1" d="M 637.3 466.7 c -16.2 -4.6 -22.4 14.4 -22.4 14.4 c 12.2 -3.3 65.3 21.1 65.3 21.1 c 0 0 -26.7 -30.9 -43 -35.5 Z"/>
</svg>