<?xml version="1.0" encoding="UTF-8"?>
<svg id="Layer_1" data-name="Layer 1" xmlns="http://www.w3.org/2000/svg" viewBox="0 0 900 900">
  <ellipse cx="444" cy="440" rx="398" ry="371" fill="rgb(255, 255, 255)">
        </ellipse>
  <defs>
        <style>
            .cls-1 {
        fill: #1c355e;
      }
        </style>
    </defs>
    <path class="cls-1" d="M 450 0 C 201.5 0 0 201.5 0 450 s 201.5 450 450 450 s 450 -201.5 450 -450 S 698.5 0 450 0 Z M 651.6 230.2 l -79 145.6 l -51.4 -15.3 l -15.3 -51.4 l 145.6 -78.9 Z M 388.1 309.1 l -15.3 51.4 l -51.4 15.3 l -79 -145.6 l 145.6 79 Z M 242.5 633.4 l 78.9 -145.6 l 51.4 15.3 l 15.3 51.4 l -145.6 78.9 Z M 506 558.9 l 15.3 -51.4 l 51.4 -15.3 l 79 145.6 l -145.6 -79 Z M 563.8 480.4 l -51.4 15.3 l -15.3 51.4 l -47.1 158.8 l -47.1 -158.8 l -15.3 -51.4 l -51.4 -15.3 l -158.8 -47.1 l 158.8 -47.1 l 51.4 -15.3 l 15.3 -51.4 l 47.1 -158.8 l 47.1 158.8 l 15.3 51.4 l 51.4 15.3 l 158.8 47.1 l -158.8 47.1 Z"/>
</svg>