<?xml version="1.0" encoding="UTF-8"?>
<svg id="Layer_1" data-name="Layer 1" xmlns="http://www.w3.org/2000/svg" viewBox="0 0 900 900">
  <ellipse cx="445.5" cy="441" rx="397.5" ry="356" fill="rgb(255, 255, 255)">
        </ellipse>
  <defs>
        <style>
            .cls-1 {
        fill: #549ccd;
      }
        </style>
    </defs>
  <path class="cls-1" d="M 498.3 505.2 h -96.5 c -3.8 0 -6.9 3.1 -6.9 6.9 v 13.8 c 0 3.8 3.1 6.9 6.9 6.9 h 96.5 c 3.8 0 6.9 -3.1 6.9 -6.9 v -13.8 c 0 -3.8 -3.1 -6.9 -6.9 -6.9 Z"/>
  <path class="cls-1" d="M 568 313.5 c -4.7 -9.3 -14.2 -15.3 -24.7 -15.3 h -186.6 c -10.4 0 -20 5.9 -24.7 15.3 l -47.5 95.1 h 331 l -47.5 -95.1 Z"/>
  <path class="cls-1" d="M 348.4 476.2 l -82.8 -23.7 c -4.4 -1.3 -8.8 2 -8.8 6.6 v 26.3 c 0 3.4 2.5 6.3 5.9 6.8 l 82.8 11.8 c 4.2 0.6 7.9 -2.6 7.9 -6.8 v -14.4 c 0 -3.1 -2 -5.8 -5 -6.6 Z"/>
  <path class="cls-1" d="M 551.5 476.2 c -3 0.8 -5 3.5 -5 6.6 v 14.4 c 0 4.2 3.7 7.4 7.9 6.8 l 82.8 -11.8 c 3.4 -0.5 5.9 -3.4 5.9 -6.8 v -26.3 c 0 -4.6 -4.4 -7.9 -8.8 -6.6 l -82.8 23.7 Z"/>
    <path class="cls-1" d="M 450 0 C 201.5 0 0 201.5 0 450 s 201.5 450 450 450 s 450 -201.5 450 -450 S 698.5 0 450 0 Z M 325.9 601.7 c 0 7.6 -6.2 13.8 -13.8 13.8 h -55.2 c -7.6 0 -13.8 -6.2 -13.8 -13.8 v -27.6 h 82.8 v 27.6 Z M 656.9 601.7 c 0 7.6 -6.2 13.8 -13.8 13.8 h -55.2 c -7.6 0 -13.8 -6.2 -13.8 -13.8 v -27.6 h 82.8 v 27.6 Z M 643.1 408.6 h -6.9 l 16.3 32.6 c 2.9 5.7 4.4 12.1 4.4 18.5 v 86.8 c 0 7.6 -6.2 13.8 -13.8 13.8 h -386.2 c -7.6 0 -13.8 -6.2 -13.8 -13.8 v -86.8 c 0 -6.4 1.5 -12.8 4.4 -18.5 l 16.3 -32.6 h -6.9 c -15.2 0 -27.6 -12.3 -27.6 -27.6 c 0 -7.6 6.2 -13.8 13.8 -13.8 h 41.4 l 29.9 -59.9 c 7 -14 21.3 -22.9 37 -22.9 h 197.1 c 15.7 0 30 8.8 37 22.9 l 29.9 59.9 h 41.4 c 7.6 0 13.8 6.2 13.8 13.8 c 0 15.2 -12.3 27.6 -27.6 27.6 Z"/>
</svg>