<?xml version="1.0" encoding="UTF-8"?>
<svg id="Layer_1" xmlns="http://www.w3.org/2000/svg" version="1.1" viewBox="0 0 879.11 879.11">
  <!-- Generator: Adobe Illustrator 30.2.1, SVG Export Plug-In . SVG Version: 2.1.1 Build 1)  -->
  <defs>
    <style>
      .st0 {
        fill: #bd5d5d;
      }

      .st1 {
        fill: maroon;
      }

      .st2 {
        fill: #67170e;
      }
    </style>
  </defs>
  <circle class="st1" cx="439.56" cy="439.56" r="439.56"/>
  <circle class="st0" cx="439.56" cy="439.56" r="399.65"/>
  <g id="_x33_mrUPp">
    <g>
      <path class="st2" d="M612.56,586.9c0,18.22-13.59,31.05-30.23,31.27-16.45.22-30.84-12.92-30.83-30.68v-295.97c0-17.83,14.59-30.76,30.81-30.58,17.58.19,30.28,13.89,30.28,31.85l-.03,294.11Z"/>
      <path class="st2" d="M327.8,586.92c0,18.17-13.81,30.85-29.85,31.24-16.97.41-31.29-12.84-31.29-30.7v-295.94c0-17.46,13.81-30.31,30.16-30.58,16.35-.28,30.95,12.79,30.95,30.6l.03,295.38Z"/>
      <polygon class="st2" points="537.28 488.8 341.85 488.84 341.87 390.49 537.23 390.49 537.28 488.8"/>
      <path class="st2" d="M687.95,555.28c0,18.88-13.68,29.19-30.98,29.13-16.88-.07-30.28-10.65-30.28-28.53v-232.74c0-17.91,13.3-28.47,30.41-28.54,16.13-.06,30.78,9.58,30.78,27.36l.08,233.33Z"/>
      <path class="st2" d="M252.43,555.32c0,18.57-13.16,29-30.5,29.07-15.06.06-30.48-8.88-30.48-26.06l.03-237.62c0-17.06,15.59-26.07,30.45-26.09,17.25-.03,30.49,10.69,30.49,28.53l.02,232.18Z"/>
      <path class="st2" d="M736.71,478.61c0,5.59-4.95,10.09-9.88,10.08l-24.81-.07v-98.22s24.76-.05,24.76-.05c5.55-.01,9.96,5.16,9.95,10.54l-.03,77.73Z"/>
      <path class="st2" d="M152.85,488.83c-5.81.05-10.48-4.66-10.48-10.53v-77.44c0-4.85,4.04-10.15,9.17-10.15h25.54s0,97.93,0,97.93l-24.24.19Z"/>
    </g>
  </g>
</svg>