<?xml version="1.0" encoding="UTF-8"?>
<svg id="Layer_1" xmlns="http://www.w3.org/2000/svg" version="1.1" viewBox="0 0 456.17 306.46">
  <!-- Generator: Adobe Illustrator 30.2.1, SVG Export Plug-In . SVG Version: 2.1.1 Build 1)  -->
  <defs>
    <style>
      .st0 {
        fill: #1c355e;
      }
    </style>
  </defs>
  <g id="_x33_mrUPp">
    <g>
      <path class="st0" d="M357.28,264.94c0,13.46-10.03,22.93-22.33,23.1-12.15.16-22.78-9.54-22.77-22.66V46.78c0-13.17,10.78-22.72,22.76-22.59,12.98.14,22.37,10.26,22.37,23.53l-.02,217.23Z"/>
      <path class="st0" d="M146.95,264.96c0,13.42-10.2,22.79-22.04,23.07-12.53.3-23.11-9.48-23.11-22.67V46.78c0-12.89,10.2-22.38,22.28-22.59,12.08-.21,22.86,9.45,22.86,22.6l.02,218.17Z"/>
      <polygon class="st0" points="301.68 192.49 157.33 192.52 157.35 119.88 301.64 119.88 301.68 192.49"/>
      <path class="st0" d="M412.96,241.59c0,13.94-10.11,21.56-22.88,21.51-12.47-.05-22.37-7.87-22.37-21.07V70.13c0-13.23,9.82-21.03,22.46-21.08,11.91-.05,22.73,7.08,22.74,20.21l.06,172.34Z"/>
      <path class="st0" d="M91.29,241.62c0,13.72-9.72,21.42-22.53,21.47-11.12.05-22.51-6.56-22.51-19.25l.02-175.51c0-12.6,11.51-19.25,22.49-19.27,12.74-.02,22.52,7.89,22.52,21.07l.02,171.49Z"/>
      <path class="st0" d="M448.98,184.96c0,4.13-3.66,7.45-7.3,7.44l-18.32-.05v-72.55s18.29-.04,18.29-.04c4.1,0,7.35,3.81,7.35,7.78l-.02,57.41Z"/>
      <path class="st0" d="M17.74,192.51c-4.29.03-7.74-3.45-7.74-7.78v-57.19c0-3.58,2.98-7.5,6.77-7.5h18.86s0,72.33,0,72.33l-17.9.14Z"/>
    </g>
  </g>
</svg>