<?xml version="1.0" encoding="UTF-8"?>
<svg id="Capa_1" data-name="Capa 1" xmlns="http://www.w3.org/2000/svg" viewBox="0 0 80.49 80.49">
  <circle cx="40.24" cy="40.24" r="39.24" style="fill: none; stroke: #fff; stroke-miterlimit: 10; stroke-width: 2px;"/>
  <g>
    <path d="M55.85,25.71c-.33-.02-.64-.02-.88.24l-18.42,18.43,4.65,4.47.24-.05c3.72-3.72,7.47-7.14,10.27-11.65,2.12-3.42,3.93-7.35,4.13-11.43Z" style="fill: #fff;"/>
    <path d="M40.24,7.04C21.91,7.04,7.04,21.91,7.04,40.24s14.87,33.2,33.2,33.2,33.2-14.87,33.2-33.2S58.58,7.04,40.24,7.04ZM58.46,57.06c-.4.53-1.06,1.11-2.14,1.45-.46.11-.97.16-1.52.12-.33-.05-.62-.15-.88-.28-.46-.26-.94-.67-1.41-1.13l-.5-.52c-.64-.7-1.25-1.43-1.76-1.93-1.84-1.81-3.48-3.79-5.39-5.5-1.08.65-2.9,3.86-4.41,2.85-.38-.25-2.78-2.91-3.04-2.91l-7.51,7.77c-3.04,2.35-6.29-.16-6.14-2.72.11-1.87,1.58-2.83,2.76-4.02,3.51-3.54,7.08-7.02,10.51-10.63l-1.88-1.97c-1.06.93-1.88,2.33-3.4,2.51-1.24.14-2.26-.28-3.19-1.05-2.32-1.93-4.39-4.69-6.69-6.69-1.22-1.38.57-3.21,1.99-2.09l6.85,6.82c.23.1.43.24.68.14.19-.08,1.68-1.6,1.68-1.72l-7.32-7.43c-.59-1.33.39-2.45,1.78-2.07l7.62,7.42c.12,0,1.6-1.43,1.7-1.6.21-.36-.03-.64-.25-.93l-6.78-6.79c-.42-.55-.32-1.43.17-1.9.58-.54,1.35-.53,1.95-.03,2.05,2.4,4.83,4.55,6.84,6.93.91,1.08,1.24,2.32.78,3.69-.41,1.2-1.54,1.89-2.32,2.82l1.9,1.87.18-.08c3.8-3.83,7.61-7.65,11.49-11.4,1.75-1.68,3.44-4.3,6.3-2.92,2.61,1.26,1.46,5.33.82,7.52-1.48,5.06-4.63,9.73-7.98,13.72,2.51,2.55,5.07,5.07,7.59,7.61,0,0,.87.81,1.34,1.88.3,1.25.12,2.36-.43,3.19Z" style="fill: #fff;"/>
  </g>
</svg>