<?xml version="1.0" encoding="UTF-8"?>
<svg id="Capa_1" data-name="Capa 1" xmlns="http://www.w3.org/2000/svg" viewBox="0 0 80.49 80.49">
  <circle cx="40.24" cy="40.24" r="39.24" style="fill: none; stroke: #fff; stroke-miterlimit: 10; stroke-width: 2px;"/>
  <path d="M40.24,7C21.88,7,7,21.88,7,40.24s14.89,33.25,33.25,33.25,33.25-14.89,33.25-33.25S58.61,7,40.24,7ZM48.04,22.05c.11-.09.14-.22.33-.17l2.12,9.68-8.9-2.56.11-.28c1.84-1.83,3.54-3.8,5.34-5.68.28-.3.7-.77,1-1ZM48.57,33.66l-7.07-2.37.43-1.39,7.34,2.28c.21.16-.18,1.75-.7,1.48ZM32.9,25.27c1.12-.98,2.74-1.64,4.15-2.09,3.39-1.07,6.93-1.31,10.44-1.75l-6.87,7.21-8.49-2.43c-.11-.13.64-.83.78-.95ZM31.57,26.89l7.34,2.23-.5,1.67-7.24-2.34.4-1.56ZM33.57,58.89l-.17.17h-2.39v-4.9h2.39l.17.17v4.56ZM47.93,58.89l-.17.17h-2.12l-.17-.17v-4.62c.79.12,1.74-.39,2.45.06v4.56ZM57.76,43.34c-.24.97-1.88,3.77-2.46,4.77-.83,1.43-3.02,5.06-4.75,5.27h-11.52c-.02.07-.04.14-.06.21.04.19.05.34,0,.57-.24,1.36-1.09,2.92-1.37,4.31-.07.14-.18.2-.3.22-.49.41-1.44.02-1.21-.75.31-1.03.62-2.06.93-3.09.15-.49.29-.98.44-1.47h-6.85c-2.22,0-4.88,2.86-6.74,3.94-2.77,1.61-4.53-.84-2.05-3.05.97-.87,5.71-4.42,6.73-4.63l10.05-.05c1.6-5.33,3.19-10.66,4.79-15.98.17-.57.79-.64,1.17-.38.2,0,.38.11.46.3l-4.66,16.06h7.85c2.95,0,4.66-5.84,6.31-7.83,1.27-1.54,3.75-.41,3.25,1.58ZM59.35,37l-7.41-2.32.5-1.56,7.35,2.33c.15.2-.32,1.54-.45,1.55ZM51.33,31.78l-2.17-9.68c.19-.04.29.09.43.18,1.3.81,3.2,2.37,4.41,3.39,2.76,2.34,4.99,4.95,5.85,8.57l-8.51-2.45Z" style="fill: #fff;"/>
</svg>