<?xml version="1.0" encoding="UTF-8"?>
<svg id="Capa_1" data-name="Capa 1" xmlns="http://www.w3.org/2000/svg" viewBox="0 0 80.49 80.49">
  <circle cx="40.24" cy="40.24" r="39.24" style="fill: none; stroke: #fff; stroke-miterlimit: 10; stroke-width: 2px;"/>
  <g>
    <rect x="28.38" y="40.26" width="13.16" height="3.94" style="fill: #fff;"/>
    <path d="M40.24,7C21.88,7,7,21.88,7,40.24s14.89,33.25,33.25,33.25,33.25-14.89,33.25-33.25S58.61,7,40.24,7ZM60,32.34c0,.72-.58,1.3-1.3,1.3h-13.08v-2.6h13.08c.72,0,1.3.58,1.3,1.3ZM37.34,22.76c.79.93,1.61,2.71,1.61,3.94v1.66h-2.69v-1.92c0-1.75-2.32-3.38-3.98-3.36-1.66.02-3.89,1.71-3.89,3.45v11.05h13.16v-11.32c0-.46.55-1.89.79-2.34,2.4-4.5,8.94-4.61,11.49-.18.31.55.88,1.83.88,2.43v2.19h-2.6v-1.75c0-.73-.82-2.08-1.39-2.55-2.47-2.08-6.11-.58-6.49,2.55v22.18s-2.68.95-2.68.95v-2.86h-13.16v2.95c-.76-.48-1.62-.79-2.51-.94l-.09-.18v-22.47c.69-5.63,7.81-7.86,11.55-3.49ZM40.2,31.04v2.6h-10.46v-2.6h10.46ZM21.79,31.04h2.62v2.6h-2.62c-.72,0-1.3-.58-1.3-1.3s.58-1.3,1.3-1.3ZM60.34,59.73c0,.17-.14.31-.31.31H20.46c-.17,0-.31-.14-.31-.31v-5.85c0-.3.14-.56.36-.74v-.04c.54-.52,1.22-1.03,1.91-1.31,1.24-.52,2.83-.53,4.06,0,1.49.65,2.45,2.42,4.39,1.38,1.52-.82,2.01-1.81,4.1-1.81,2.11,0,2.52.92,4.04,1.77,2.14,1.2,3.26-1.13,5.11-1.57,1.14-.27,2.52-.21,3.6.29.81.38,1.71,1.44,2.56,1.56,1.82.25,2.3-1,3.74-1.62,2.05-.89,4.44-.26,5.97,1.31v.04c.21.18.36.44.36.74v5.85Z" style="fill: #fff;"/>
  </g>
</svg>