<?xml version="1.0" encoding="UTF-8"?>
<svg id="Capa_1" data-name="Capa 1" xmlns="http://www.w3.org/2000/svg" viewBox="0 0 108.62 18">
  <rect x=".5" y=".5" width="107.62" height="17.01" rx="8.5" ry="8.5" style="fill: #fff; opacity: .23;"/>
  <path d="M99.62,18H9C4.04,18,0,13.97,0,9S4.04,0,9,0h90.62c4.96,0,9,4.04,9,9s-4.04,9-9,9ZM9,1C4.59,1,1,4.59,1,9s3.59,8,8,8h90.62c4.41,0,8-3.59,8-8s-3.59-8-8-8H9Z" style="fill: #fff;"/>
  <g id="UPYIgv">
    <path d="M95.63,4.07c2.47-.2,4.42,2.01,3.92,4.44-.12.57-.38,1.05-.69,1.53l3.29,3.3-.62.62-3.28-3.28s-.03,0-.05,0c-.06.02-.35.24-.45.3-1.87,1.05-4.29.26-5.16-1.69-1.04-2.32.52-5,3.05-5.2ZM95.63,4.95c-1.74.15-2.86,1.93-2.39,3.58.54,1.92,2.96,2.67,4.5,1.38,2.12-1.78.7-5.21-2.11-4.96Z" style="fill: #fff;"/>
  </g>
</svg>