<?xml version="1.0" encoding="UTF-8"?>
<svg id="Capa_1" data-name="Capa 1" xmlns="http://www.w3.org/2000/svg" viewBox="0 0 119.1 102.97">
  <g id="_4" data-name="4">
    <path d="M54.39,14.86c.54-1.22.89-2.42,1.05-3.61.16-1.18.19-2.29.1-3.32-.1-1.03-.28-1.93-.55-2.72-.27-.79-.58-1.4-.93-1.83-.35-.44-.77-.83-1.26-1.18-.49-.35-1-.66-1.53-.92-.52-.27-1.02-.48-1.48-.65-.46-.17-.85-.3-1.17-.4-.54-.15-.99-.22-1.33-.22-1.56-.05-3.05.17-4.48.65-1.43.48-2.79,1.15-4.08,2-1.29.85-2.47,1.83-3.55,2.96-1.08,1.12-2.05,2.29-2.91,3.48-.86,1.2-1.59,2.39-2.19,3.59-.6,1.2-1.07,2.29-1.38,3.28-.51,1.67-.71,3.06-.6,4.17.11,1.11.38,2,.81,2.67.43.66.95,1.14,1.57,1.43.41.19.79.32,1.13.4h.02s.34.09.69.11c.86.02,1.59-.12,2.19-.44.6-.31,1.1-.68,1.48-1.09.44-.46.81-.99,1.1-1.6-.48.6-.95,1.05-1.43,1.32-.48.28-.91.47-1.31.56-.4.1-.73.13-1,.09-.27-.04-.44-.07-.5-.09-.64-.19-1.11-.52-1.43-.98-.32-.46-.52-1-.6-1.61-.08-.62-.06-1.28.05-1.98.11-.7.26-1.4.45-2.1.54-1.67,1.18-3.09,1.91-4.26.73-1.17,1.33-2.07,1.81-2.7,1.97-2.37,3.81-4.15,5.53-5.33,1.72-1.18,3.22-2,4.5-2.45,1.29-.45,2.34-.66,3.17-.65.83.01,1.33.03,1.53.05.22.02.57.24,1.05.63.48.4.91,1.02,1.29,1.87.38.85.64,1.94.76,3.26.13,1.33-.05,2.94-.52,4.83-.38,1.5-.87,2.78-1.48,3.83-.6,1.05-1.25,1.94-1.93,2.65-.68.71-1.35,1.29-2,1.72-.65.44-1.22.79-1.69,1.05-.41.24-.87.45-1.38.62l.14-1.52c.16-1.31.35-2.6.57-3.88.22-1.28.51-2.56.86-3.85.25-.85.51-1.72.76-2.61.25-.89.65-1.73,1.19-2.5.1-.12.18-.24.26-.36.08-.12.12-.24.12-.36-.03-.12-.11-.19-.24-.22-.13-.02-.24-.04-.33-.04-.64.07-1.18.25-1.62.54-.45.29-.83.63-1.14,1.03-.32.4-.57.82-.76,1.27-.19.45-.35.86-.48,1.25-.64,1.89-1.12,3.81-1.45,5.77-.33,1.96-.56,3.92-.69,5.88-.51-.12-.91-.34-1.19-.65-.06.24-.05.48.05.73.06.19.17.41.33.63.16.23.41.42.76.56v1.34c0,1.18.06,2.38.19,3.59.13,1.21.41,2.39.86,3.56.1.27.22.56.38.87.16.31.36.61.62.89.25.28.56.5.91.65.35.16.75.21,1.19.16.13-.02.25-.06.38-.11.11-.05.17-.08.29-.14.11-.06.24-.17.29-.29.02-.08.02-.15-.02-.2-.06-.06-.13-.05-.21-.05-.6-.05-1.06-.26-1.36-.63-.3-.38-.53-.76-.69-1.14-.22-.6-.33-1.26-.31-1.98.02-.71.02-1.4.02-2.05,0-1.38.05-2.78.14-4.21.54-.07,1.05-.19,1.53-.34.48-.16.89-.32,1.24-.49.06-.05.11-.07.14-.07,0-.02.02-.04.05-.04.44-.22.83-.44,1.17-.65.33-.22.58-.39.74-.51,1.49-1.02,2.71-2.12,3.65-3.3.94-1.18,1.68-2.39,2.22-3.61" style="fill: #fff;"/>
    <path d="M83.06,12.28c.69.11,1.19.23,1.49.37.3.13.46.26.49.37.03.11.04.18.04.2.1-.29.05-.59-.18-.89-.22-.3-.7-.56-1.43-.77-.73-.21-1.74-.37-3.03-.47-1.29-.1-2.95-.12-4.99-.05-.55.02-1.07.04-1.56.05-.5.01-.96.04-1.41.08-.05-.56-.19-.99-.41-1.29-.17-.23-.37-.35-.62-.39h0s0,0,0,0c0,0,0,0,0,0-.06,0-.11-.01-.16-.01-.14,0-.28.01-.41.06-.35.13-.64.35-.88.67-.27.37-.5.78-.68,1.22-1.41.18-2.58.36-3.52.54-.94.18-1.49.29-1.64.34-.05.02-.08.05-.1.07-.01.02-.03.05-.06.07-.13.22-.14.45-.04.67.05.11.12.19.21.23.09.04.18.08.25.1,0,.02.07.03.2.03,1.2-.27,2.59-.5,4.18-.7-.18.89-.35,1.9-.51,3.02-.05.32-.08.62-.12.92-.11.94-.29,1.86-.55,2.77-.39,1.14-.74,2.13-1.06,2.98-.13.38-.27.74-.41,1.07-.14.34-.27.63-.39.87-.12.25-.23.43-.33.55-.1.12-.32.16-.39.08-.23-.27-.38-.6-.45-.99-.07-.39-.09-.83-.06-1.31.03-.48.09-.98.2-1.51.1-.52.23-1.04.39-1.56.34-1.18.81-2.45,1.41-3.79.05-.11.05-.19.02-.25-.03-.06-.06-.1-.1-.15-.05-.07-.15-.14-.29-.22-.14-.08-.35-.13-.61-.15-.37-.02-.68,0-.94.07-.13.07-.23.15-.29.23-.07.09-.11.16-.14.2-.02.04-.02.03-.04.06-.01.02,0,.02-.02.04,0,.02-.02.04-.02.07-.13.25-.29.42-.47.54-.18.11-.35.19-.51.23-.21.07-.4.09-.59.07-.16,0-.26-.01-.31-.03.05-.27.1-.56.14-.89.04-.32.05-.64.02-.94-.03-.3-.09-.56-.18-.79-.09-.22-.23-.38-.41-.47-.26-.09-.51-.1-.74-.03-.21.05-.4.17-.57.39-.17.21-.29.58-.37,1.09-.08.56,0,1.04.23,1.44.23.4.6.72,1.1.94-.08.49-.17.96-.27,1.39-.05.19-.1.38-.15.56-.12.01-.26.04-.41.09-.05.04-.1.08-.16.12-.05.03-.09.06-.12.08-.13.18-.37.47-.72.87-.35.4-.79.75-1.31,1.04.1-.38.21-.87.31-1.47.1-.6.14-1.21.12-1.83-.03-.61-.14-1.19-.35-1.73-.21-.54-.59-.92-1.13-1.14-.34-.16-.69-.19-1.06-.1-.31.07-.66.24-1.04.52-.38.28-.75.77-1.11,1.46-.08.18-.16.38-.23.6-.05.18-.11.39-.18.62-.07.23-.1.49-.1.75-.23,0-.42.03-.57.08-.14.06-.24.11-.29.15-.08.09-.12.17-.12.23-.44,1.23-.61,2.37-.51,3.42.1,1.05.38,1.84.82,2.38.1.16.25.29.43.4.16.11.34.21.57.28.22.08.49.09.8.05.21-.02.45-.09.72-.2.27-.11.56-.31.86-.59.3-.28.61-.66.92-1.16.31-.49.61-1.13.9-1.91.47-.11.91-.28,1.31-.52.4-.23.77-.48,1.1-.74.33-.26.6-.51.82-.75.22-.25.38-.44.49-.57.05-.09.05-.16,0-.2-.04-.05-.1-.09-.17-.13.03-.16.07-.32.1-.49.08-.39.17-.84.27-1.36,0-.02.01-.04.04-.07.39.11.87.15,1.45.1-.26.85-.48,1.87-.65,3.07-.17,1.2-.14,2.43.1,3.7.08.45.23.78.45,1.01.22.22.46.39.72.5.29.11.61.17.98.17.26,0,.67-.17.92-.5.25-.34.48-.74.7-1.22.22-.48.42-1.01.59-1.58.03-.1.05-.18.08-.28h0c.18-.61.39-1.39.51-1.87-.01.51-.02,1.01-.02,1.51s.02.98.06,1.44c.04.46.08.85.14,1.19.08.38.21.69.39.92.18.23.37.41.57.52.2.11.39.18.59.22.2.03.36.05.49.05h.12s.04-.01.04-.03c.13,0,.29-.06.47-.17.18-.13.36-.35.53-.64.17-.29.33-.61.49-.97.16-.36.3-.74.43-1.16.13-.41.25-.82.35-1.22.23-.76.42-1.42.57-1.99.14-.57.21-.88.21-.92,0-.07-.05-.08-.16-.03-.11.04-.16.06-.25.1-.08.03-.13.05-.18.07l-.27.94c-.08.29-.18.6-.29.94-.12.33-.24.69-.37,1.07-.16.38-.31.75-.47,1.11-.16.36-.31.68-.45.96-.14.28-.28.5-.41.65-.13.16-.23.23-.31.23h-.04c-.16-.11-.26-.48-.31-1.11-.03-.36-.03-.73,0-1.12.03-.39.05-.77.08-1.12.39-.78.75-1.6,1.08-2.46.33-.86.61-1.72.84-2.58.23-.86.42-1.69.55-2.48.13-.79.21-1.51.23-2.16,1.22-.11,2.46-.2,3.71-.25,1.25-.06,2.5-.07,3.75-.05,1.33.04,2.34.12,3.03.23M55.14,24.73c-.31.53-.68.69-1.1.49-.37-.18-.53-.64-.49-1.39.04-.75.25-1.6.65-2.56.31.38.78.69,1.41.94.16.04.3.09.43.13-.29,1.07-.59,1.87-.9,2.4M56.82,18.08c-.05.56-.16,1.27-.31,2.14-.13.54-.25,1.04-.35,1.51-.44-.2-.74-.55-.9-1.06-.16-.5-.2-1.06-.12-1.66.08-.6.26-1.2.55-1.78.29-.58.64-1.04,1.06-1.37.05.2.09.49.12.87.03.34.01.78-.04,1.34M61.66,15.73c-.01.22-.03.42-.06.6-.21-.16-.35-.36-.43-.6-.08-.25-.12-.47-.12-.69s.04-.39.12-.54c.08-.15.16-.21.23-.18.08,0,.14.07.18.22.04.15.06.32.08.54.01.21.01.43,0,.65M71.52,13.94c-.09.61-.2,1.27-.33,1.96-.13.69-.29,1.41-.49,2.14-.2.74-.42,1.44-.68,2.11v-.17c0-.13,0-.26.02-.39.01-.12.03-.25.06-.39.1-.89.23-1.8.37-2.71.1-.67.21-1.32.3-1.95.08-.49.18-.98.32-1.46,0,0,0,0,0,0,.06-.22.12-.42.18-.6l.43-.07c-.03.4-.09.91-.18,1.52" style="fill: #fff;"/>
    <polygon points="114.33 28.59 114.33 45.08 102.78 28.59 102.78 28.59 98 28.59 98 65.56 102.78 65.56 102.78 36.92 114.33 53.41 114.33 65.56 119.1 65.56 119.1 28.59 114.33 28.59" style="fill: #fff;"/>
    <polygon points="65.14 65.56 69.91 65.56 69.91 33.37 78.95 33.37 78.95 28.59 69.91 28.59 69.91 28.59 65.14 28.59 65.14 28.59 56 28.59 56 33.37 65.14 33.37 65.14 65.56" style="fill: #fff;"/>
    <path d="M4.69,44.16h2.06l11.17,21.4h4.94l-11.2-21.46,1.48.06c1.29,0,2.55-.38,3.63-1.1,2.22-1.48,3.55-3.98,3.55-6.68,0-2.71-1.33-5.21-3.55-6.69-1.08-.72-2.33-1.1-3.62-1.1H4.69s-4.69,0-4.69,0v36.97h4.69v-21.4ZM4.69,33.36h8.47c.37,0,.74.11,1.05.32.91.6,1.43,1.58,1.43,2.69,0,1.1-.52,2.08-1.43,2.69-.32.21-.69.32-1.07.32H4.69v-6.02Z" style="fill: #fff;"/>
    <path d="M32.33,49.9c5.87,0,10.65-4.78,10.65-10.65s-4.78-10.65-10.65-10.65-10.65,4.78-10.65,10.65,4.78,10.65,10.65,10.65M32.33,32.99c3.45,0,6.26,2.81,6.26,6.26s-2.81,6.26-6.26,6.26-6.26-2.81-6.26-6.26,2.81-6.26,6.26-6.26" style="fill: #fff;"/>
    <path d="M76.45,65.56l.91-3.39h13.09l.91,3.39h4.95l-9.91-36.97h-4.99l-9.91,36.97h4.95ZM83.91,37.73l5.27,19.66h-10.53l5.27-19.66Z" style="fill: #fff;"/>
    <path d="M19.18,56.71l2.31,4.35c.62-.52,1.7-1.37,2.96-2.03,5.2-2.62,8.17-1.45,12.86.42.83.33,1.74.69,2.69,1.04l-1.36,5.07h4.95l.99-3.68c2.02.44,3.94.6,5.7.6,3,0,5.51-.48,7.16-.92l1.07,3.99h4.95l-9.91-36.97h-4.99l-7.32,27.33c-.75-.28-1.47-.57-2.18-.85-4.41-1.75-8.34-3.3-13.85-1.45h0s-.02,0-.06.02c-.06.02-.12.05-.18.07-.08.03-.17.06-.27.1-.87.32-1.79.73-2.75,1.23-.29.15-.58.3-.88.47-.03.02-.05.03-.08.04h0c-.6.34-1.21.73-1.8,1.15M51.05,37.73l5.17,19.29c-2.05.54-5.95,1.22-10.41.29l5.25-19.58Z" style="fill: #fff;"/>
    <path d="M102.02,71.82c-2.16-.54-4.05-1.13-5.88-1.7-1.51-.47-2.97-.92-4.43-1.3h0c-2.23-.61-4.23-.89-6.1-.95-.03,0-.06,0-.1,0-.21,0-.42,0-.63,0-.21,0-.42,0-.63,0-.03,0-.06,0-.1,0-1.87.05-3.87.34-6.1.94h0c-1.46.38-2.92.83-4.43,1.3-1.83.57-3.73,1.16-5.89,1.7-.26.07-.53.13-.79.18-1.66.35-4.21.75-7.27.77-3.17,0-5.82-.42-7.51-.78-.25-.06-.51-.11-.76-.18-2.16-.54-4.05-1.13-5.89-1.7-1.51-.47-2.97-.92-4.43-1.3h0c-2.24-.61-4.26-.89-6.14-.95-.02,0-.04,0-.05,0-.23,0-.45,0-.68,0-.19,0-.39,0-.59,0-.05,0-.1,0-.16,0-1.86.06-3.84.34-6.06.94h0c-1.46.38-2.92.83-4.43,1.3-1.83.57-3.73,1.16-5.89,1.7-7.98,1.99-15.17.34-17.08-.18v4.14l1.01.27c1.11.3,4.12,1.01,8.04,1.01,2.47,0,4.85-.28,7.1-.84,2.05-.51,3.89-1.08,5.68-1.64.55-.17,1.13-.35,1.72-.53v-.03s1.74-.48,1.74-.48c.29-.08.59-.16.89-.24l.22-.06c2.39-.65,4.66-1,6.93-1.07.06,0,.11,0,.19,0,.15,0,.3,0,.45,0h.13s.12,0,.12,0h.25c.17,0,.34,0,.53,0h.07c2.3.07,4.6.42,7.02,1.08l.22.06c.34.09.68.18,1.01.28l1.64.45v.03c.58.18,1.15.36,1.7.53,1.78.55,3.62,1.13,5.67,1.64.22.05.43.1.65.15,1.49.31,3.86.69,6.67.69,2.74-.02,5.03-.38,6.48-.68.22-.05.45-.1.67-.16,2.05-.51,3.89-1.08,5.68-1.64.54-.17,1.11-.35,1.7-.52v-.03s1.75-.48,1.75-.48c.3-.08.6-.17.9-.24l.22-.06c2.4-.65,4.68-1,6.97-1.07.04,0,.09,0,.14,0,.16,0,.32,0,.48,0h.18s.06,0,.06,0h.08s.18,0,.18,0c.16,0,.32,0,.5,0,.04,0,.08,0,.13,0,2.29.07,4.57.42,6.97,1.07l.21.06c.34.09.68.18,1.02.28l1.63.45v.03c.58.18,1.15.36,1.7.53,1.78.55,3.62,1.13,5.67,1.64,2.24.56,4.63.84,7.1.84,3.92,0,6.93-.7,8.04-1l1.01-.27v-4.13c-1.91.52-9.1,2.17-17.08.18" style="fill: #fff;"/>
    <path d="M102.02,78.74c-2.16-.54-4.05-1.13-5.88-1.7-1.51-.47-2.97-.92-4.43-1.3h0c-2.23-.61-4.23-.89-6.1-.95-.03,0-.06,0-.1,0-.13,0-.26,0-.38,0-.08,0-.17,0-.25,0-.08,0-.17,0-.25,0-.13,0-.25,0-.38,0-.03,0-.06,0-.1,0-1.87.06-3.87.34-6.1.94h0c-1.46.38-2.92.83-4.43,1.3-1.83.57-3.73,1.16-5.89,1.7-.26.07-.53.13-.79.18-1.66.35-4.21.75-7.27.77-3.17,0-5.82-.42-7.51-.78-.25-.06-.51-.11-.76-.18-2.16-.54-4.05-1.13-5.89-1.7-1.51-.47-2.97-.92-4.43-1.3h0c-2.24-.61-4.26-.89-6.14-.95-.02,0-.04,0-.05,0-.14,0-.28,0-.41,0-.09,0-.18,0-.27,0-.08,0-.15,0-.23,0-.12,0-.24,0-.35,0-.05,0-.1,0-.16,0-1.86.06-3.84.34-6.06.94h0c-1.46.38-2.92.83-4.43,1.3-1.83.57-3.73,1.16-5.89,1.7-2.84.71-5.59.96-8.03.96-4.41,0-7.82-.8-9.05-1.14v4.14c2.01.45,5.18.97,9.02.97,2.87,0,6.1-.29,9.48-1.14,2.32-.58,4.38-1.22,6.2-1.79,1.62-.5,3.07-.95,4.47-1.3.09-.02.19-.05.28-.07,1.43-.34,2.81-.57,4.25-.62.01,0,.03,0,.04,0,.08,0,.16,0,.24,0,.06,0,.12,0,.18,0,.02,0,.04,0,.05,0,1.65,0,3.2.24,4.82.62.08.02.17.04.25.06,1.4.35,2.86.8,4.49,1.31,1.42.44,3,.93,4.72,1.4.44.14,1.71.5,3.58.84,2.62.49,5.11.68,7.38.68.03,0,.07,0,.1,0s.07,0,.1,0c2.26,0,4.76-.19,7.37-.68,1.88-.34,3.15-.71,3.59-.84,1.72-.47,3.3-.96,4.72-1.4,1.61-.5,3.06-.95,4.46-1.3.1-.03.19-.05.29-.07,1.43-.34,2.81-.57,4.24-.62.02,0,.03,0,.05,0,.07,0,.15,0,.22,0,.06,0,.12,0,.18,0,.02,0,.04,0,.06,0,1.66,0,3.22.24,4.84.63.07.02.14.03.21.05,1.41.35,2.88.8,4.52,1.32,1.82.57,3.88,1.21,6.2,1.79,3.38.84,6.61,1.14,9.48,1.14,3.83,0,7.01-.52,9.02-.97v-4.14c-1.23.33-4.65,1.14-9.05,1.14-2.44,0-5.18-.25-8.03-.96" style="fill: #fff;"/>
    <path d="M99.67,85.11c-2.41-.6-4.53-1.26-6.4-1.84-1.53-.48-2.97-.93-4.31-1.26h-.02s-.02-.01-.02-.01l-.08-.02-.07-.02c-1.47-.35-2.72-.52-3.91-.52h-.08s-.1,0-.1,0h-.08s-.01,0-.01,0c-.02,0-.04,0-.06,0h-.02s-.04,0-.04,0c-1.06.04-2.16.2-3.47.51l-.09.02-.13.03h-.02s-.02.01-.02.01c-1.33.33-2.81.79-4.25,1.24-1.32.41-2.97.93-4.79,1.42-.56.17-1.95.57-3.94.93-2.63.5-5.35.75-8.09.75h-.09s-.1,0-.1,0c-2.74,0-5.46-.25-8.08-.74-2-.36-3.39-.76-3.95-.93-1.83-.5-3.54-1.03-4.79-1.42-1.52-.47-2.95-.92-4.28-1.25h-.02s-.02-.01-.02-.01l-.11-.03-.08-.02c-1.47-.35-2.71-.51-3.89-.52h-.07s-.1,0-.1,0h-.08s-.01,0-.01,0c-.02,0-.05,0-.08,0h-.02s-.04,0-.04,0c-1.06.04-2.16.2-3.48.51l-.09.02-.12.03h-.02s-.02.01-.02.01c-1.32.33-2.75.77-4.26,1.24-1.87.58-3.98,1.24-6.4,1.84-3.33.83-6.83,1.25-10.42,1.25S2.19,85.91,0,85.47v4.09c2.01.45,5.18.97,9.02.97,2.87,0,6.1-.29,9.48-1.14,2.32-.58,4.38-1.22,6.2-1.79,1.62-.5,3.07-.95,4.47-1.3.09-.02.19-.05.28-.07,1.43-.34,2.81-.57,4.25-.62.01,0,.03,0,.04,0,.16,0,.31,0,.47,0,1.65,0,3.2.24,4.82.62.08.02.17.04.25.06,1.4.35,2.86.8,4.49,1.31,1.42.44,3,.93,4.72,1.4.44.14,1.71.5,3.58.84,2.62.49,5.11.68,7.38.68.03,0,.07,0,.1,0,.03,0,.07,0,.1,0,2.26,0,4.76-.19,7.37-.68,1.88-.34,3.15-.71,3.59-.84,1.72-.47,3.3-.96,4.72-1.4,1.61-.5,3.06-.95,4.46-1.3.1-.03.19-.05.29-.07,1.43-.34,2.81-.57,4.24-.62.02,0,.03,0,.05,0,.15,0,.31,0,.46,0,1.66,0,3.22.24,4.84.63.07.02.14.03.21.05,1.41.35,2.88.8,4.52,1.32,1.82.57,3.88,1.21,6.2,1.79,3.38.84,6.61,1.14,9.48,1.14,3.83,0,7.01-.53,9.01-.97v-4.09c-2.19.44-5.33.89-9.01.89s-7.09-.42-10.42-1.25" style="fill: #fff;"/>
    <path d="M26.4,95.43c.33.61.41.95.41,1.75v1.62h-3.65v-1.62c0-.81.08-1.14.41-1.75v-.02h-1.89v.02c.33.61.41.94.41,1.75v3.87c0,.8-.08,1.14-.41,1.75v.02h1.89v-.02c-.33-.61-.41-.94-.41-1.75v-1.84h3.65v1.84c0,.8-.08,1.14-.41,1.75v.02h1.89v-.02c-.33-.61-.41-.94-.41-1.75v-3.87c0-.81.08-1.14.41-1.75v-.02h-1.89v.02Z" style="fill: #fff;"/>
    <path d="M35.82,95.26c-1.93,0-3.79,1.71-3.79,3.87s1.85,3.85,3.79,3.85,3.81-1.69,3.81-3.85-1.87-3.87-3.81-3.87M35.82,102.57c-1.61,0-2.58-1.5-2.58-3.44s.97-3.46,2.58-3.46,2.59,1.51,2.59,3.46-.98,3.44-2.59,3.44" style="fill: #fff;"/>
    <path d="M48.19,95.42c.5.69.62,1.05.63,1.94l.03,3.67-4.27-5.64h-1.6v.02c.51.39.72.7.8,1.28v4.15c0,.89-.11,1.25-.61,1.94v.02h1.74v-.02c-.58-.69-.7-1.05-.7-1.94l-.05-4.24,4.65,6.23.43-.03v-5.45c0-.89.12-1.25.61-1.94v-.02h-1.65v.02Z" style="fill: #fff;"/>
    <path d="M56.4,95.39c-1.35,0-1.52.04-2.79.04v.02c.33.55.41.84.41,1.56v4.25c0,.72-.08,1.01-.41,1.56v.02h2.76c2.55,0,3.99-1.37,3.99-3.75s-1.5-3.69-3.96-3.69M56.29,102.45l-1.2.02v-6.68h1.22c1.89,0,2.83.98,2.83,3.3,0,2.12-.78,3.31-2.85,3.36" style="fill: #fff;"/>
    <path d="M68.67,95.34v.02c.6.69.73,1.05.73,1.94v2.91c0,1.17-.49,2.25-1.96,2.25-1.06,0-1.86-.57-1.86-2.16v-3.2c0-.81.12-1.23.4-1.75v-.02h-1.89v.02c.34.61.41.94.41,1.75v3.23c0,1.82,1.27,2.56,2.76,2.56,1.93,0,2.56-1.24,2.56-2.69v-2.9c0-.89.13-1.25.7-1.94l-.05-.02h-1.8Z" style="fill: #fff;"/>
    <path d="M78.96,101.4l-1.15-2.24c.97-.34,1.42-1.06,1.42-1.92,0-1.1-.72-1.83-2.5-1.83h-2.58v.02c.33.61.41.94.41,1.76v3.85c0,.81-.08,1.15-.41,1.76v.02h1.89v-.02c-.33-.61-.41-.94-.41-1.76v-1.68h1.07l1.78,3.46h1.67v-.06c-.53-.26-.75-.51-1.18-1.36M76.53,98.97h-.91v-3.15c.45-.01.75-.01.9-.01,1.22,0,1.58.57,1.58,1.48,0,.86-.32,1.68-1.57,1.68" style="fill: #fff;"/>
    <path d="M86.55,95.37h-.41l-2.12,5.73c-.31.83-.49,1.24-.95,1.74v.02h1.56v-.02c-.22-.32-.48-.97-.04-2.15l.19-.53h2.44l.35.97c.29.81.26,1.42.07,1.7v.02h1.98v-.02c-.36-.37-.59-.73-.93-1.65l-2.15-5.82ZM84.92,99.77l1.07-2.91,1.07,2.91h-2.15Z" style="fill: #fff;"/>
    <path d="M95.38,98.45c-.92-.45-1.79-.83-1.79-1.76,0-.63.4-1.02,1.18-1.02.73,0,1.39.36,1.99,1.61l.17-.05-.2-1.68c-.46-.16-1.04-.28-1.63-.28-1.23,0-2.33.55-2.33,1.91,0,1.29,1.06,1.77,2.05,2.27.87.44,1.69.84,1.69,1.83,0,.71-.44,1.31-1.42,1.31s-1.73-.6-2.41-1.97l-.17.07.2,1.92c.65.23,1.38.37,2.06.37,1.42,0,2.63-.63,2.63-2.14,0-1.38-1.04-1.91-2.04-2.39" style="fill: #fff;"/>
  </g>
</svg>