<?xml version="1.0" encoding="UTF-8"?>
<svg id="Capa_1" data-name="Capa 1" xmlns="http://www.w3.org/2000/svg" viewBox="0 0 94.4 71.75">
  <g>
    <path d="M43.1,11.78c.43-.97.7-1.92.83-2.86.13-.94.15-1.82.08-2.63-.08-.81-.22-1.53-.43-2.16-.21-.62-.46-1.11-.74-1.45-.28-.35-.61-.66-1-.93-.39-.28-.79-.52-1.21-.73-.42-.21-.81-.38-1.17-.52-.37-.13-.67-.24-.93-.32-.43-.11-.78-.17-1.06-.17-1.23-.04-2.42.13-3.55.52-1.13.38-2.21.91-3.23,1.58-1.02.67-1.96,1.45-2.81,2.34-.86.89-1.62,1.81-2.3,2.76-.68.95-1.26,1.9-1.74,2.85-.48.95-.84,1.82-1.1,2.6-.4,1.32-.56,2.42-.47,3.31.09.88.3,1.59.64,2.11.34.53.76.91,1.25,1.14.33.15.62.25.9.31h.01s.27.07.54.09c.68.02,1.26-.1,1.74-.34.48-.25.87-.54,1.17-.86.35-.36.64-.79.87-1.27-.38.48-.76.83-1.13,1.05-.38.22-.72.37-1.04.45-.31.08-.58.1-.79.07-.21-.03-.35-.05-.4-.07-.5-.15-.88-.41-1.13-.78-.25-.36-.41-.79-.47-1.28-.06-.49-.05-1.01.04-1.57.09-.56.21-1.11.36-1.67.43-1.32.93-2.45,1.51-3.38.58-.93,1.06-1.64,1.44-2.14,1.56-1.88,3.02-3.29,4.38-4.23,1.36-.94,2.55-1.59,3.57-1.94,1.02-.35,1.86-.53,2.51-.52.65,0,1.06.02,1.21.04.18.02.45.19.83.5.38.32.72.81,1.02,1.48.3.67.5,1.53.6,2.59.1,1.05-.04,2.33-.42,3.82-.3,1.19-.69,2.2-1.17,3.03-.48.83-.99,1.53-1.53,2.1-.54.57-1.07,1.02-1.59,1.37-.52.34-.96.62-1.34.83-.33.19-.69.35-1.1.49l.11-1.21c.13-1.04.28-2.06.45-3.08.18-1.02.4-2.03.68-3.05.2-.67.4-1.36.6-2.07.2-.71.52-1.37.94-1.98.08-.1.14-.19.21-.29.06-.1.09-.19.09-.29-.03-.1-.09-.15-.19-.17-.1-.02-.19-.03-.26-.03-.5.06-.93.2-1.28.43-.35.23-.66.5-.91.82-.25.32-.45.65-.6,1.01-.15.35-.28.69-.38.99-.5,1.5-.89,3.02-1.15,4.57-.26,1.55-.45,3.11-.55,4.66-.4-.1-.72-.27-.94-.52-.05.19-.04.38.04.57.05.15.14.32.26.5.13.18.33.33.6.45v1.06c0,.94.05,1.89.15,2.85.1.96.33,1.9.68,2.82.08.21.18.44.3.69.13.25.29.48.49.7.2.22.44.39.72.52.28.12.59.17.94.13.1-.02.2-.05.3-.09.08-.04.14-.07.23-.11.09-.05.19-.14.23-.23.02-.07.02-.12-.02-.16-.05-.05-.1-.04-.17-.04-.48-.04-.84-.21-1.08-.5-.24-.3-.42-.6-.55-.91-.18-.48-.26-1-.25-1.57.01-.57.02-1.11.02-1.62,0-1.09.04-2.2.11-3.34.43-.06.83-.15,1.21-.27.38-.12.7-.25.98-.39.05-.04.09-.06.11-.06,0-.02.01-.03.04-.03.35-.17.66-.35.93-.52.26-.17.46-.31.59-.4,1.18-.81,2.15-1.68,2.89-2.62.74-.94,1.33-1.89,1.76-2.86Z" style="fill: #fff;"/>
    <path d="M65.83,9.73c.55.09.94.19,1.18.29.24.11.37.2.39.29.02.09.03.14.03.16.08-.23.04-.46-.14-.7-.18-.24-.55-.44-1.13-.61-.58-.17-1.38-.29-2.4-.37-1.02-.08-2.34-.09-3.95-.04-.43.02-.85.03-1.24.04-.39,0-.76.03-1.12.07-.04-.44-.15-.78-.33-1.02-.13-.18-.29-.28-.49-.31h0s0,0,0,0c0,0,0,0,0,0-.04,0-.09,0-.13-.01-.11,0-.22.01-.32.05-.28.1-.51.28-.7.53-.22.29-.4.62-.54.97-1.12.14-2.05.28-2.79.42-.74.14-1.18.23-1.3.27-.04.02-.07.04-.08.05-.01.02-.03.04-.05.05-.1.18-.11.35-.03.53.04.09.1.15.17.19.07.04.14.06.2.08,0,.02.05.03.15.03.95-.21,2.06-.4,3.32-.56-.14.71-.28,1.51-.4,2.39-.04.26-.07.49-.09.73-.09.74-.23,1.47-.44,2.19-.31.9-.59,1.69-.84,2.36-.1.3-.21.58-.33.85-.11.27-.22.5-.31.69-.09.2-.18.34-.26.44-.08.1-.25.12-.31.07-.19-.21-.31-.47-.36-.78-.05-.31-.07-.65-.05-1.04.02-.38.07-.78.16-1.2.08-.42.19-.83.31-1.24.27-.94.64-1.94,1.12-3,.04-.09.04-.15.02-.2-.03-.05-.05-.08-.08-.12-.04-.05-.12-.11-.23-.17-.11-.06-.27-.1-.48-.12-.29-.02-.54,0-.74.05-.1.05-.18.12-.23.19-.05.07-.09.12-.11.16-.02.03-.02.03-.03.05,0,.02,0,.01-.01.03,0,.02-.01.03-.02.06-.1.2-.23.34-.37.42-.14.09-.28.15-.4.19-.17.05-.32.07-.47.05-.12,0-.21,0-.25-.03.04-.21.08-.45.11-.7.03-.26.04-.5.02-.74-.02-.24-.07-.45-.14-.62-.07-.18-.18-.3-.33-.37-.21-.07-.4-.08-.59-.03-.17.04-.31.14-.45.31-.13.17-.23.46-.29.86-.06.44,0,.82.19,1.14.19.32.48.57.87.74-.06.39-.13.76-.22,1.1-.04.15-.08.3-.12.44-.1.01-.2.03-.32.07-.04.04-.08.07-.12.09-.04.03-.07.05-.09.07-.1.14-.29.37-.57.69-.28.32-.62.59-1.04.82.08-.3.17-.69.25-1.17.08-.48.11-.96.09-1.45-.02-.49-.11-.94-.28-1.37-.17-.43-.46-.73-.9-.9-.27-.12-.55-.15-.84-.08-.25.05-.52.19-.82.41-.3.22-.59.61-.88,1.16-.06.14-.12.3-.19.48-.04.14-.09.31-.14.49-.05.19-.08.39-.08.6-.19,0-.34.02-.45.07-.11.04-.19.08-.23.12-.06.07-.09.13-.09.19-.35.97-.49,1.88-.4,2.71.08.83.3,1.46.65,1.89.08.12.2.23.34.32.12.09.27.16.45.23.18.06.39.08.64.04.16-.02.36-.07.57-.16.22-.09.44-.24.68-.46.24-.22.48-.53.73-.92.25-.39.48-.89.71-1.51.37-.09.72-.23,1.04-.41.32-.19.61-.38.87-.58.26-.2.47-.4.65-.6.18-.19.3-.35.39-.45.04-.07.04-.12,0-.16-.03-.04-.08-.07-.14-.11.03-.12.05-.25.08-.39.06-.31.13-.67.22-1.08,0-.02.01-.04.03-.05.31.09.69.12,1.15.08-.21.67-.38,1.48-.51,2.43-.13.95-.11,1.93.08,2.94.06.35.18.62.36.8.17.18.37.31.57.4.23.09.48.13.77.13.21,0,.53-.13.73-.4.2-.27.38-.59.56-.97.18-.38.33-.8.46-1.25.02-.08.04-.15.06-.22h0c.14-.48.31-1.1.41-1.48,0,.4-.02.8-.02,1.2s.02.78.05,1.14c.03.36.07.68.11.94.06.3.16.54.31.73.14.19.29.32.45.41.15.09.31.15.46.17.16.03.28.04.39.04h.09s.03,0,.03-.03c.1,0,.23-.04.37-.13.14-.11.28-.27.42-.5.13-.23.26-.49.39-.77.12-.28.24-.59.34-.92.1-.33.2-.65.28-.97.19-.6.34-1.13.45-1.58.11-.45.17-.69.17-.73,0-.05-.04-.06-.12-.03-.09.03-.13.05-.2.08-.07.02-.1.04-.14.06l-.22.74c-.06.23-.14.48-.23.74-.09.27-.19.55-.29.85-.12.3-.25.59-.37.88-.12.28-.24.54-.36.76-.11.22-.22.39-.33.52-.1.12-.19.19-.25.19h-.03c-.12-.09-.21-.38-.25-.88-.02-.28-.02-.58,0-.89.02-.31.04-.61.06-.89.31-.62.59-1.27.85-1.95.26-.68.48-1.36.67-2.05.19-.68.33-1.34.43-1.97.1-.63.17-1.2.19-1.71.97-.09,1.95-.15,2.94-.2.99-.04,1.98-.06,2.97-.04,1.05.04,1.85.1,2.4.19ZM43.71,19.6c-.25.42-.54.54-.87.39-.29-.14-.42-.51-.39-1.1.03-.59.2-1.27.51-2.03.25.3.62.55,1.12.74.12.04.24.07.34.11-.23.85-.46,1.48-.71,1.9ZM45.04,14.33c-.04.44-.12,1.01-.25,1.7-.1.42-.2.82-.28,1.2-.35-.16-.59-.44-.71-.84-.12-.4-.16-.84-.09-1.31.06-.48.21-.95.43-1.41.23-.46.51-.82.84-1.09.04.16.07.39.09.69.02.27.01.62-.03,1.06ZM48.87,12.47c-.01.18-.03.34-.05.48-.17-.12-.28-.28-.34-.48-.06-.19-.09-.38-.09-.54s.03-.31.09-.42c.06-.11.12-.16.19-.15.06,0,.11.06.14.17.03.12.05.26.06.42.01.17.01.34,0,.52ZM56.69,11.05c-.07.49-.16,1.01-.26,1.55-.1.55-.23,1.12-.39,1.7-.16.58-.34,1.14-.54,1.67v-.13c0-.11,0-.21.02-.31.01-.1.03-.2.05-.31.08-.71.18-1.43.29-2.15.08-.53.16-1.05.24-1.55.06-.39.14-.78.25-1.16,0,0,0,0,0,0,.05-.18.1-.34.14-.48l.34-.05c-.02.32-.07.72-.14,1.21Z" style="fill: #fff;"/>
  </g>
  <g>
    <polygon points="90.61 22.66 90.61 35.73 81.46 22.66 81.46 22.66 77.67 22.66 77.67 51.96 81.46 51.96 81.46 29.26 90.61 42.33 90.61 51.96 94.4 51.96 94.4 22.66 90.61 22.66" style="fill: #fff;"/>
    <polygon points="51.63 51.96 55.41 51.96 55.41 26.45 62.57 26.45 62.57 22.66 55.41 22.66 55.41 22.66 51.63 22.66 51.63 22.66 44.39 22.66 44.39 26.45 51.63 26.45 51.63 51.96" style="fill: #fff;"/>
    <path d="M3.72,35h1.63l8.85,16.96h3.92l-8.88-17.01,1.17.05c1.03,0,2.02-.3,2.88-.87,1.76-1.17,2.82-3.15,2.82-5.3,0-2.14-1.05-4.13-2.81-5.3-.85-.57-1.85-.87-2.87-.87H3.72s-3.72,0-3.72,0v29.3h3.72v-16.96ZM3.72,26.44h6.71c.3,0,.58.09.83.25.72.48,1.13,1.26,1.13,2.13,0,.87-.41,1.65-1.13,2.13-.25.17-.54.26-.84.26H3.72v-4.77Z" style="fill: #fff;"/>
    <path d="M25.63,39.55c4.66,0,8.44-3.79,8.44-8.44s-3.79-8.44-8.44-8.44-8.44,3.79-8.44,8.44,3.79,8.44,8.44,8.44ZM25.63,26.14c2.74,0,4.96,2.23,4.96,4.96s-2.23,4.96-4.96,4.96-4.96-2.23-4.96-4.96,2.23-4.96,4.96-4.96Z" style="fill: #fff;"/>
    <path d="M60.59,51.96l.72-2.69h10.38l.72,2.69h3.92l-7.85-29.3h-3.96l-7.85,29.3h3.92ZM66.5,29.91l4.17,15.58h-8.35l4.17-15.58Z" style="fill: #fff;"/>
    <path d="M15.2,44.95l1.83,3.45c.49-.42,1.35-1.09,2.35-1.61,4.12-2.08,6.48-1.15,10.19.33.66.26,1.38.54,2.13.82l-1.08,4.02h3.92l.78-2.92c1.6.35,3.12.48,4.51.48,2.38,0,4.37-.38,5.67-.73l.85,3.17h3.92l-7.85-29.3h-3.96l-5.8,21.66c-.59-.22-1.16-.45-1.73-.67-3.49-1.39-6.61-2.62-10.98-1.15h0s-.02,0-.05.01c-.05.02-.1.04-.14.05-.06.02-.13.05-.22.08-.69.25-1.42.58-2.18.98-.23.12-.46.24-.7.37-.02.01-.04.02-.06.03h0c-.48.27-.96.58-1.42.91ZM40.46,29.91l4.1,15.29c-1.63.43-4.72.96-8.25.23l4.16-15.52Z" style="fill: #fff;"/>
    <path d="M80.86,56.92c-1.71-.43-3.21-.89-4.66-1.35-1.2-.37-2.35-.73-3.51-1.03h0c-1.77-.48-3.36-.71-4.84-.75-.03,0-.05,0-.08,0-.17,0-.34,0-.5,0-.17,0-.33,0-.5,0-.03,0-.05,0-.08,0-1.48.04-3.07.27-4.84.75h0c-1.16.3-2.32.66-3.51,1.03-1.45.45-2.95.92-4.66,1.35-.21.05-.42.1-.63.15-1.31.28-3.34.59-5.76.61-2.51,0-4.61-.33-5.95-.62-.2-.04-.4-.09-.6-.14-1.71-.43-3.21-.89-4.66-1.35-1.2-.37-2.35-.73-3.51-1.03h0c-1.78-.49-3.37-.71-4.86-.75-.01,0-.03,0-.04,0-.18,0-.36,0-.54,0-.15,0-.31,0-.46,0-.04,0-.08,0-.12,0-1.47.05-3.05.27-4.8.75h0c-1.16.3-2.32.66-3.51,1.03-1.45.45-2.96.92-4.66,1.35-6.33,1.58-12.02.27-13.54-.14v3.28l.8.22c.88.24,3.27.8,6.38.8,1.96,0,3.85-.22,5.62-.67,1.62-.4,3.08-.86,4.5-1.3.43-.14.89-.28,1.36-.42v-.03s1.38-.38,1.38-.38c.23-.07.47-.13.7-.19l.17-.05c1.89-.51,3.69-.79,5.5-.85.05,0,.09,0,.15,0,.12,0,.24,0,.36,0h.1s.09,0,.09,0h.2c.13,0,.27,0,.42,0h.05c1.83.05,3.65.33,5.56.85l.18.05c.27.07.54.14.8.22l1.3.36v.02c.46.14.91.28,1.35.42,1.41.44,2.87.89,4.49,1.3.17.04.34.08.51.12,1.18.25,3.06.54,5.28.55,2.17-.01,3.99-.3,5.14-.54.18-.04.36-.08.53-.13,1.62-.4,3.08-.86,4.5-1.3.43-.13.88-.27,1.34-.42v-.03s1.39-.38,1.39-.38c.24-.07.47-.13.71-.19l.17-.05c1.9-.52,3.71-.8,5.52-.85.03,0,.07,0,.11,0,.13,0,.26,0,.38,0h.14s.05,0,.05,0h.06s.14,0,.14,0c.13,0,.25,0,.39,0,.03,0,.07,0,.1,0,1.81.06,3.62.33,5.52.85l.17.05c.27.07.54.15.81.22l1.3.35v.02c.46.14.92.28,1.35.42,1.41.44,2.87.89,4.49,1.3,1.78.44,3.67.67,5.62.67,3.11,0,5.49-.56,6.37-.8l.8-.22v-3.28c-1.51.41-7.21,1.72-13.54.14Z" style="fill: #fff;"/>
    <path d="M80.86,62.4c-1.71-.43-3.21-.89-4.66-1.35-1.2-.37-2.35-.73-3.51-1.03h0c-1.77-.48-3.36-.71-4.84-.75-.03,0-.05,0-.08,0-.1,0-.2,0-.3,0-.07,0-.13,0-.2,0-.07,0-.13,0-.2,0-.1,0-.2,0-.3,0-.03,0-.05,0-.08,0-1.48.04-3.07.27-4.84.75h0c-1.16.3-2.32.66-3.51,1.03-1.45.45-2.95.92-4.66,1.35-.21.05-.42.1-.63.15-1.31.28-3.34.59-5.76.61-2.51,0-4.61-.33-5.95-.62-.2-.04-.4-.09-.6-.14-1.71-.43-3.21-.89-4.66-1.35-1.2-.37-2.35-.73-3.51-1.03h0c-1.78-.49-3.37-.71-4.86-.75-.01,0-.03,0-.04,0-.11,0-.22,0-.33,0-.07,0-.14,0-.21,0-.06,0-.12,0-.18,0-.09,0-.19,0-.28,0-.04,0-.08,0-.12,0-1.47.05-3.05.27-4.8.75h0c-1.16.3-2.32.66-3.51,1.03-1.45.45-2.96.92-4.66,1.35-2.25.56-4.43.76-6.36.76-3.49,0-6.2-.64-7.18-.9v3.28c1.59.35,4.11.77,7.15.77,2.27,0,4.84-.23,7.52-.9,1.83-.46,3.47-.97,4.91-1.42,1.28-.4,2.43-.76,3.54-1.03.07-.02.15-.04.22-.06,1.13-.27,2.23-.45,3.37-.49.01,0,.02,0,.04,0,.06,0,.12,0,.19,0,.05,0,.1,0,.14,0,.01,0,.03,0,.04,0,1.31,0,2.54.19,3.82.49.07.02.13.03.2.05,1.11.28,2.27.63,3.56,1.04,1.13.35,2.38.74,3.74,1.11.35.11,1.35.4,2.84.67,2.07.39,4.05.54,5.85.54.03,0,.05,0,.08,0,.03,0,.05,0,.08,0,1.8,0,3.77-.15,5.84-.54,1.49-.27,2.5-.56,2.85-.67,1.37-.37,2.61-.76,3.74-1.11,1.28-.4,2.43-.75,3.53-1.03.08-.02.15-.04.23-.06,1.13-.27,2.22-.45,3.36-.49.01,0,.03,0,.04,0,.06,0,.12,0,.18,0,.05,0,.09,0,.14,0,.02,0,.03,0,.05,0,1.31,0,2.55.19,3.84.5.06.01.11.03.17.04,1.12.28,2.28.64,3.58,1.04,1.44.45,3.08.96,4.91,1.42,2.68.67,5.24.9,7.52.9,3.04,0,5.55-.42,7.15-.77v-3.28c-.97.27-3.68.9-7.17.9-1.93,0-4.11-.2-6.36-.76Z" style="fill: #fff;"/>
    <path d="M79,67.45c-1.91-.48-3.59-1-5.08-1.46-1.21-.38-2.36-.73-3.41-1h-.02s-.02,0-.02,0l-.06-.02h-.06c-1.17-.29-2.16-.42-3.1-.42h-.06s-.08,0-.08,0h-.06s0,0-.01,0c-.02,0-.03,0-.05,0h-.01s-.04,0-.04,0c-.84.03-1.71.16-2.75.41l-.07.02-.1.03h-.02s-.02,0-.02,0c-1.05.26-2.23.63-3.37.98-1.05.33-2.35.73-3.8,1.13-.45.14-1.55.45-3.12.73-2.09.39-4.24.59-6.41.59h-.07s-.08,0-.08,0c-2.17,0-4.33-.2-6.4-.59-1.59-.29-2.69-.6-3.13-.74-1.45-.4-2.81-.82-3.8-1.13-1.2-.37-2.34-.73-3.39-.99h-.02s-.02,0-.02,0l-.09-.02-.06-.02c-1.16-.28-2.15-.41-3.09-.41h-.06s-.08,0-.08,0h-.06s0,0-.01,0c-.02,0-.04,0-.06,0h-.01s-.03,0-.03,0c-.84.03-1.71.16-2.76.41l-.07.02-.1.02h-.02s-.02,0-.02,0c-1.05.26-2.18.61-3.38.99-1.48.46-3.16.98-5.08,1.46-2.64.66-5.42.99-8.25.99s-5.41-.35-7.15-.7v3.24c1.59.35,4.11.77,7.15.77,2.27,0,4.84-.23,7.52-.9,1.83-.46,3.47-.97,4.91-1.42,1.28-.4,2.43-.76,3.54-1.03.07-.02.15-.04.22-.06,1.13-.27,2.23-.45,3.37-.49.01,0,.02,0,.04,0,.12,0,.25,0,.37,0,1.31,0,2.54.19,3.82.49.07.02.13.03.2.05,1.11.28,2.27.63,3.56,1.04,1.13.35,2.38.74,3.74,1.11.35.11,1.35.4,2.84.67,2.07.39,4.05.54,5.85.54.03,0,.05,0,.08,0,.03,0,.05,0,.08,0,1.8,0,3.77-.15,5.84-.54,1.49-.27,2.5-.56,2.85-.67,1.37-.37,2.61-.76,3.74-1.11,1.28-.4,2.43-.75,3.53-1.03.08-.02.15-.04.23-.06,1.13-.27,2.22-.45,3.36-.49.01,0,.03,0,.04,0,.12,0,.24,0,.36,0,1.31,0,2.55.19,3.84.5.06.01.11.03.17.04,1.12.28,2.28.64,3.58,1.04,1.44.45,3.08.96,4.91,1.42,2.68.67,5.24.9,7.52.9,3.04,0,5.55-.42,7.15-.77v-3.24c-1.73.35-4.22.7-7.15.7s-5.62-.33-8.26-.99Z" style="fill: #fff;"/>
  </g>
</svg>