<?xml version="1.0" encoding="UTF-8"?>
<svg xmlns="http://www.w3.org/2000/svg" width="16" height="16" fill="#ffffff" stroke="#ffffff" stroke-width="1.5" class="bi bi-search" viewBox="0 0 16 16">
  <path d="M 11.1 9.9 C 12.8 7.6 12.4 4.4 10.2 2.5 C 8 0.6 4.7 0.8 2.7 2.8 C 0.6 4.8 0.5 8.1 2.4 10.2 C 4.3 12.4 7.5 12.8 9.9 11.1 h 0 q 0 0.1 0.1 0.1 l 3.3 3.2 C 13.6 14.7 14.1 14.7 14.5 14.4 C 14.8 14.1 14.8 13.5 14.5 13.2 l -3.3 -3.2 C 11.2 9.9 11.1 9.9 11.1 9.9 z M 11.3 6.7 C 11.3 9.2 9.2 11.3 6.6 11.3 C 4 11.3 1.9 9.2 1.9 6.7 C 1.9 4.1 4 2 6.6 2 C 9.2 2 11.3 4.1 11.3 6.7" />
</svg>
