<?xml version="1.0" encoding="UTF-8"?>
<svg id="Capa_1" data-name="Capa 1" xmlns="http://www.w3.org/2000/svg" viewBox="0 0 43.62 27.09">
  <g id="T6n1hy">
    <g>
      <path d="M0,17.03v-1.79c.13-.58.2-1.16.35-1.74.36-1.43,1.02-2.79,1.95-3.94-.51-1.16-1.86-1.52-2.29-2.67v-.51c.26-.67.59-1.01,1.33-1.1,1.97-.24,4.35.17,6.36-.03,7.9-7.01,20.33-7,28.24,0,2.02.18,4.3-.18,6.29.02.5.05.95.22,1.2.68.92,1.68-1.59,2.27-2.08,3.61,4.09,5.19,2.48,12.91-3.25,16.12-3.65,2.05-8.07,1.86-11.53-.49-.57-.39-1.03-.91-1.63-1.26-1.11,1.08-2.07,4.32-4.01,2.73l-2.21-2.81C12.71,29.92,2.26,26.99.3,18.73l-.3-1.7ZM31.35,5.27c-2.67-1.44-5.59-2.42-8.64-2.56-3.68-.17-7.25.81-10.44,2.56.1.25.45.15.69.21,4.04.92,7.13,3.56,8.39,7.55l.51,2.3c.45-5.05,3.94-8.74,8.81-9.85.24-.05.58.04.69-.21ZM4.6,8c-.05.05.57,1.03.62,1.21.34,1.18-.64,1.72-1.2,2.6-4.15,6.4,2.08,14.42,9.37,12.19,5.93-1.82,7.64-9.62,3.05-13.82-3.36-3.08-7.68-1.97-11.84-2.17ZM39.02,8c-4.16.2-8.48-.91-11.84,2.17-4.59,4.2-2.88,12.01,3.05,13.82,7.29,2.23,13.52-5.79,9.37-12.19-.57-.88-1.55-1.42-1.2-2.6.05-.17.68-1.16.62-1.21ZM21.9,17.03c-.1-.14-.16,0-.17.13-.04.36-.04.7-.11,1.08-.23,1.2-.68,2.24-1.17,3.35l1.49,1.84,1.29-1.83c-.73-1.4-1.32-2.95-1.33-4.56Z" fill="#000"/>
      <path d="M10.55,10.75c7.18-.44,7.77,10.3.91,10.88-7.42.62-8.06-10.44-.91-10.88ZM10.72,13.47c-3.66.29-3.17,5.93.65,5.42,3.26-.43,2.82-5.7-.65-5.42Z" fill="#000"/>
      <path d="M32.36,10.75c7.18-.44,7.77,10.3.91,10.88-7.42.62-8.06-10.44-.91-10.88ZM32.53,13.47c-3.66.29-3.17,5.93.65,5.42,3.26-.43,2.82-5.7-.65-5.42Z" fill="#000"/>
      <path d="M10.8,14.83c1.77-.17,2.07,2.49.39,2.7-1.99.25-2.09-2.53-.39-2.7Z" fill="#000"/>
      <path d="M32.61,14.83c1.77-.17,2.07,2.49.39,2.7-1.99.25-2.09-2.53-.39-2.7Z" fill="#000"/>
    </g>
  </g>
</svg>