<?xml version="1.0" encoding="UTF-8"?>
<svg id="Capa_1" data-name="Capa 1" xmlns="http://www.w3.org/2000/svg" viewBox="0 0 27.33 27.34">
  <g id="Em1V6e">
    <g>
      <path d="M8.3.16c3.12-.2,7.24-.2,10.37-.04,3.28.17,6.09,1.23,7.66,4.27,1.41,2.74.94,8.53.87,11.68-.06,2.97.4,5.39-1.56,7.93-1.45,1.89-3.56,2.98-5.95,3.16-3.26.24-8.68.25-11.94,0-3.83-.29-7.21-3.17-7.52-7.11-.29-3.72-.32-9.13,0-12.82C.63,2.86,4.18.43,8.3.16ZM13.05,2.59c-4.44.03-9.93-.54-10.38,5.4-.23,3.08-.23,8.2,0,11.29.16,2.15,1.26,4.06,3.3,4.91,1.41.59,2.39.33,3.84.4,3.26.14,6.89.29,10.14,0,3.07-.27,4.64-2.84,4.82-5.7.19-3.01.18-7.38,0-10.39s-1.85-5.57-5.2-5.83c-1.95-.15-4.52-.1-6.52-.09Z" style="fill: #fff;"/>
      <path d="M13.31,6.69c9.01-.56,10.01,13.21.99,13.93-9.24.74-10.27-13.35-.99-13.93ZM13.04,9.25c-5.63.76-4.76,9.62,1.5,8.8,5.3-.7,4.59-9.62-1.5-8.8Z" style="fill: #fff;"/>
      <path d="M20.49,5.02c2.01-.27,2.44,2.66.71,3.02-2.38.49-2.65-2.75-.71-3.02Z" style="fill: #fff;"/>
    </g>
  </g>
</svg>