<?xml version="1.0" encoding="UTF-8"?>
<svg id="uuid-7d612cf6-40b7-44d3-8136-3bdd96d4ac44" data-name="Capa 1" xmlns="http://www.w3.org/2000/svg" viewBox="0 0 34.09 34.09">
  <defs>
    <style>
      .uuid-6189175e-ba70-40b4-9555-11704172893a {
        fill: #fff;
      }

      .uuid-885d3500-bc3b-48b6-8b2a-58d10dc92dd5 {
        fill: #006ab7;
      }
    </style>
  </defs>
  <circle class="uuid-885d3500-bc3b-48b6-8b2a-58d10dc92dd5" cx="17.05" cy="17.05" r="17.05"/>
  <g>
    <path class="uuid-6189175e-ba70-40b4-9555-11704172893a" d="M21.43,11.72c-.54,0-.97.43-.97.97s.43.97.97.97.97-.43.97-.97-.43-.97-.97-.97Z"/>
    <path class="uuid-6189175e-ba70-40b4-9555-11704172893a" d="M17.11,12.97c-2.25,0-4.08,1.83-4.08,4.08s1.83,4.08,4.08,4.08,4.08-1.83,4.08-4.08-1.83-4.08-4.08-4.08ZM17.11,19.66c-1.44,0-2.61-1.17-2.61-2.61s1.17-2.61,2.61-2.61,2.61,1.17,2.61,2.61-1.17,2.61-2.61,2.61Z"/>
    <path class="uuid-6189175e-ba70-40b4-9555-11704172893a" d="M20.35,25.33h-6.61c-2.74,0-4.98-2.23-4.98-4.98v-6.61c0-2.74,2.23-4.98,4.98-4.98h6.61c2.74,0,4.98,2.23,4.98,4.98v6.61c0,2.74-2.23,4.98-4.98,4.98ZM13.74,10.32c-1.88,0-3.42,1.53-3.42,3.42v6.61c0,1.88,1.53,3.42,3.42,3.42h6.61c1.88,0,3.42-1.53,3.42-3.42v-6.61c0-1.88-1.53-3.42-3.42-3.42h-6.61Z"/>
  </g>
</svg>