<?xml version="1.0" encoding="UTF-8"?>
<svg id="uuid-0e0b8f86-cdaa-4eee-a423-d7f9938df50d" data-name="Capa 1" xmlns="http://www.w3.org/2000/svg" viewBox="0 0 34.09 34.09">
  <defs>
    <style>
      .uuid-2d517cbf-11a4-475c-9639-21d76e8a5663 {
        fill: #fff;
      }

      .uuid-af284e8e-910b-45e2-b339-89fdd3001a85 {
        fill: #006ab7;
      }
    </style>
  </defs>
  <circle class="uuid-af284e8e-910b-45e2-b339-89fdd3001a85" cx="17.05" cy="17.05" r="17.05"/>
  <g>
    <path class="uuid-2d517cbf-11a4-475c-9639-21d76e8a5663" d="M9.49,14.42h3.24v10.42h-3.24v-10.42ZM11.11,9.25c1.04,0,1.88.84,1.88,1.88s-.84,1.88-1.88,1.88-1.88-.84-1.88-1.88.84-1.88,1.88-1.88"/>
    <path class="uuid-2d517cbf-11a4-475c-9639-21d76e8a5663" d="M14.76,14.42h3.11v1.43h.04c.43-.82,1.49-1.68,3.07-1.68,3.28,0,3.88,2.16,3.88,4.96v5.72h-3.24v-5.07c0-1.21-.02-2.76-1.68-2.76s-1.94,1.32-1.94,2.68v5.15h-3.24v-10.42Z"/>
  </g>
</svg>