<?xml version="1.0" encoding="UTF-8"?>
<svg id="Capa_1" data-name="Capa 1" xmlns="http://www.w3.org/2000/svg" viewBox="0 0 34.09 34.09">
  <circle cx="17.05" cy="17.05" r="17.05" style="fill: #006ab7;"/>
  <g id="_0zr8bR" data-name="0zr8bR">
    <g>
      <path d="M8.25,25.89l1.21-4.46c-.18-.54-.48-1.03-.67-1.57-2.23-6.56,3.58-12.98,10.34-11.42,3.64.84,6.49,4.18,6.71,7.93.4,6.97-6.85,11.57-13,8.32l-4.59,1.2ZM10.36,23.82l2.72-.71c4.11,2.61,9.66.59,11-4.1,1.53-5.35-3.18-10.35-8.61-9.15-5.02,1.11-7.31,7.03-4.4,11.28l-.7,2.67Z" style="fill: #fff;"/>
      <path d="M13.96,12.92c.11-.01.55.01.64.04.06.02.13.11.17.16.14.19.74,1.61.81,1.88.16.58-.73,1.02-.71,1.37,0,.13.29.53.38.66.56.8,1.28,1.43,2.15,1.87.25.12.7.41.95.21.27-.22.51-.72.75-.95.22-.21.5-.04.73.06.56.23,1.1.58,1.65.84.23,1.35-1.01,2.2-2.24,2.16-.84-.03-2.29-.68-3-1.15-1.38-.89-3.61-3.26-3.65-4.97-.02-.75.51-2.09,1.36-2.17Z" style="fill: #fff;"/>
    </g>
  </g>
</svg>