<?xml version="1.0" encoding="UTF-8"?>
<svg id="Capa_1" data-name="Capa 1" xmlns="http://www.w3.org/2000/svg" viewBox="0 0 29.12 31.62">
  <path d="M27.67,22.57c3.06,3.25.9,8.76-3.58,9.04-3.14.19-5.84-2.52-5.66-5.66.02-.34.29-1.1.11-1.33l-9.28-5.19c-2.69,2.92-7.67,1.97-8.96-1.84-1.84-5.43,5.02-9.54,8.96-5.39l9.28-5.19.08-.2c-1.4-5.3,5.13-9.15,9.02-5.14,3.75,3.87-.22,10.33-5.44,8.8-.98-.29-1.67-.92-2.45-1.54l-9.16,5.21c-.23.28.11,1.39.11,1.83,0,.37-.24,1.01-.22,1.33.04.54,8.3,4.65,9.27,5.41.57-.41,1.07-.94,1.71-1.25,2.06-.98,4.64-.53,6.2,1.13ZM26.14,7.32c1.71-2.12.09-5.28-2.65-5.04-2.49.22-3.56,2.97-2.14,4.97,1.13,1.6,3.58,1.56,4.79.07ZM3.19,18.01c2.99,2.73,7.04-1.41,4.38-4.33S.15,15.23,3.19,18.01ZM25.94,28.51c1.54-1.45,1.02-4.36-.99-5.11-3.19-1.19-5.64,2.61-3.4,5.03,1.11,1.21,3.21,1.18,4.39.08Z"/>
</svg>