<svg xmlns="http://www.w3.org/2000/svg" viewBox="0 0 189 188">
  <style>
    .wave {
      fill: #54c0e8;
    }
    @media (prefers-color-scheme: dark) {
      .wave {
        fill: #54c0e8; /* We can adjust this if needed, but #54c0e8 is bright and has great contrast */
      }
    }
  </style>
  <path class="wave" d="M 29 126 L 28 127 L 24 127 L 23 128 L 21 128 L 20 129 L 17 129 L 16 130 L 14 130 L 13 131 L 11 131 L 10 132 L 8 132 L 7 133 L 4 133 L 3 134 L 0 134 L 0 161 L 2 161 L 3 160 L 6 160 L 7 159 L 10 159 L 11 158 L 13 158 L 14 157 L 16 157 L 17 156 L 19 156 L 20 155 L 23 155 L 24 154 L 26 154 L 27 153 L 32 153 L 33 152 L 39 152 L 40 153 L 44 153 L 45 154 L 48 154 L 49 155 L 51 155 L 52 156 L 54 156 L 55 157 L 58 157 L 59 158 L 61 158 L 62 159 L 64 159 L 65 160 L 68 160 L 69 161 L 72 161 L 73 162 L 78 162 L 79 163 L 89 163 L 90 164 L 98 164 L 99 163 L 109 163 L 110 162 L 115 162 L 116 161 L 119 161 L 120 160 L 123 160 L 124 159 L 126 159 L 127 158 L 130 158 L 131 157 L 133 157 L 134 156 L 136 156 L 137 155 L 139 155 L 140 154 L 143 154 L 144 153 L 148 153 L 149 152 L 155 152 L 156 153 L 161 153 L 162 154 L 164 154 L 165 155 L 168 155 L 169 156 L 171 156 L 172 157 L 174 157 L 175 158 L 178 158 L 179 159 L 181 159 L 182 160 L 185 160 L 186 161 L 188 161 L 188 134 L 185 134 L 184 133 L 182 133 L 181 132 L 178 132 L 177 131 L 175 131 L 174 130 L 172 130 L 171 129 L 168 129 L 167 128 L 165 128 L 164 127 L 160 127 L 159 126 L 146 126 L 145 127 L 141 127 L 140 128 L 137 128 L 136 129 L 134 129 L 133 130 L 131 130 L 130 131 L 127 131 L 126 132 L 124 132 L 123 133 L 121 133 L 120 134 L 117 134 L 116 135 L 113 135 L 112 136 L 106 136 L 105 137 L 83 137 L 82 136 L 77 136 L 76 135 L 72 135 L 71 134 L 68 134 L 67 133 L 65 133 L 64 132 L 62 132 L 61 131 L 58 131 L 57 130 L 55 130 L 54 129 L 52 129 L 51 128 L 48 128 L 47 127 L 43 127 L 42 126 Z" />
  <path class="wave" d="M 30 75 L 29 76 L 23 76 L 22 77 L 19 77 L 18 78 L 15 78 L 14 79 L 11 79 L 10 80 L 8 80 L 7 81 L 5 81 L 4 82 L 2 82 L 1 83 L 0 83 L 0 110 L 1 110 L 2 109 L 5 109 L 6 108 L 9 108 L 10 107 L 12 107 L 13 106 L 15 106 L 16 105 L 19 105 L 20 104 L 22 104 L 23 103 L 26 103 L 27 102 L 30 102 L 31 101 L 40 101 L 41 102 L 45 102 L 46 103 L 49 103 L 50 104 L 52 104 L 53 105 L 55 105 L 56 106 L 58 106 L 59 107 L 62 107 L 63 108 L 65 108 L 66 109 L 69 109 L 70 110 L 74 110 L 75 111 L 80 111 L 81 112 L 107 112 L 108 111 L 113 111 L 114 110 L 118 110 L 119 109 L 122 109 L 123 108 L 125 108 L 126 107 L 129 107 L 130 106 L 132 106 L 133 105 L 135 105 L 136 104 L 138 104 L 139 103 L 142 103 L 143 102 L 147 102 L 148 101 L 157 101 L 158 102 L 162 102 L 163 103 L 165 103 L 166 104 L 169 104 L 170 105 L 172 105 L 173 106 L 175 106 L 176 107 L 178 107 L 179 108 L 182 108 L 183 109 L 186 109 L 187 110 L 188 110 L 188 83 L 187 83 L 186 82 L 184 82 L 183 81 L 181 81 L 180 80 L 178 80 L 177 79 L 174 79 L 173 78 L 171 78 L 170 77 L 166 77 L 165 76 L 159 76 L 158 75 L 146 75 L 145 76 L 139 76 L 138 77 L 135 77 L 134 78 L 131 78 L 130 79 L 128 79 L 127 80 L 125 80 L 124 81 L 122 81 L 121 82 L 118 82 L 117 83 L 115 83 L 114 84 L 111 84 L 110 85 L 106 85 L 105 86 L 95 86 L 94 87 L 93 86 L 83 86 L 82 85 L 78 85 L 77 84 L 74 84 L 73 83 L 71 83 L 70 82 L 68 82 L 67 81 L 64 81 L 63 80 L 61 80 L 60 79 L 58 79 L 57 78 L 54 78 L 53 77 L 50 77 L 49 76 L 43 76 L 42 75 Z" />
  <path class="wave" d="M 26 24 L 25 25 L 21 25 L 20 26 L 17 26 L 16 27 L 13 27 L 12 28 L 10 28 L 9 29 L 7 29 L 6 30 L 4 30 L 3 31 L 0 31 L 0 59 L 1 58 L 3 58 L 4 57 L 6 57 L 7 56 L 10 56 L 11 55 L 13 55 L 14 54 L 16 54 L 17 53 L 20 53 L 21 52 L 24 52 L 25 51 L 31 51 L 32 50 L 40 50 L 41 51 L 47 51 L 48 52 L 51 52 L 52 53 L 54 53 L 55 54 L 58 54 L 59 55 L 61 55 L 62 56 L 64 56 L 65 57 L 67 57 L 68 58 L 71 58 L 72 59 L 75 59 L 76 60 L 80 60 L 81 61 L 90 61 L 91 62 L 97 62 L 98 61 L 107 61 L 108 60 L 112 60 L 113 59 L 116 59 L 117 58 L 120 58 L 121 57 L 123 57 L 124 56 L 126 56 L 127 55 L 129 55 L 130 54 L 133 54 L 134 53 L 136 53 L 137 52 L 141 52 L 142 51 L 147 51 L 148 50 L 156 50 L 157 51 L 163 51 L 164 52 L 167 52 L 168 53 L 171 53 L 172 54 L 174 54 L 175 55 L 177 55 L 178 56 L 181 56 L 182 57 L 184 57 L 185 58 L 188 58 L 188 31 L 186 31 L 185 30 L 182 30 L 181 29 L 180 29 L 179 28 L 176 28 L 175 27 L 172 27 L 171 26 L 168 26 L 167 25 L 163 25 L 162 24 L 143 24 L 142 25 L 137 25 L 136 26 L 134 26 L 133 27 L 130 27 L 129 28 L 126 28 L 125 29 L 123 29 L 122 30 L 120 30 L 119 31 L 117 31 L 116 32 L 113 32 L 112 33 L 109 33 L 108 34 L 103 34 L 102 35 L 86 35 L 85 34 L 80 34 L 79 33 L 76 33 L 75 32 L 72 32 L 71 31 L 69 31 L 68 30 L 66 30 L 65 29 L 63 29 L 62 28 L 59 28 L 58 27 L 56 27 L 55 26 L 52 26 L 51 25 L 47 25 L 46 24 Z" />
</svg>