<?xml version="1.0" encoding="UTF-8"?>
<svg id="Capa_1" data-name="Capa 1" xmlns="http://www.w3.org/2000/svg" viewBox="0 0 24.2 28.65">
  <path d="M15.41,18.5l8.47-11.96c.38-.54.43-1.24.13-1.82-.3-.59-.9-.95-1.56-.95h-13.35c-.4-2.13-2.24-3.77-4.49-3.77C2.06,0,0,2.06,0,4.6s2.06,4.6,4.6,4.6c.42,0,.82-.06,1.2-.17l6.73,9.46c.15.21.34.37.55.49v7.72h-2.95c-1.24,0-1.24,1.93,0,1.93h7.61c1.24,0,1.24-1.93,0-1.93h-2.95v-7.7c.23-.13.44-.3.6-.52ZM22.47,5.55l-4.52,6.33h-7.99l-4.51-6.39h16.98l.03.06ZM4.6,7.49c-1.59,0-2.89-1.3-2.89-2.89s1.29-2.89,2.89-2.89c1.3,0,2.38.87,2.74,2.05h-1.88c-.66,0-1.26.36-1.56.95-.3.59-.25,1.29.13,1.82l.67.94s-.06,0-.1,0Z" style="fill: #006ab7;"/>
</svg>