<?xml version="1.0" encoding="UTF-8"?>
<svg id="Capa_1" xmlns="http://www.w3.org/2000/svg" version="1.1" viewBox="0 0 231.64 221.5">
  <!-- Generator: Adobe Illustrator 30.2.1, SVG Export Plug-In . SVG Version: 2.1.1 Build 1)  -->
  <defs>
    <style>
      .st0 {
        stroke-width: 10px;
      }

      .st0, .st1 {
        fill: none;
        stroke: #006ab7;
        stroke-linecap: round;
        stroke-linejoin: round;
      }

      .st1 {
        stroke-width: 9.11px;
      }
    </style>
  </defs>
  <g id="Capa_11">
    <g>
      <path class="st0" d="M173.88,34.74h27.66c13.85,0,25.1,11.25,25.1,25.1v24.47c0,4.42-3.58,8-8,8h-61.86c-4.42,0-8-3.58-8-8v-24.47c0-13.85,11.25-25.1,25.1-25.1Z"/>
      <rect class="st0" x="148.78" y="92.32" width="77.86" height="31.78" rx="8" ry="8"/>
      <rect class="st0" x="148.78" y="124.09" width="77.86" height="31.78" rx="8" ry="8"/>
      <path class="st0" d="M167.08,5h41.24c3.86,0,7,3.14,7,7v22.75h-55.24V12c0-3.86,3.14-7,7-7h0Z"/>
      <path class="st0" d="M226.64,168.28v35.24c0,7.17-5.82,12.98-12.98,12.98s-12.98-5.82-12.98-12.98c0,7.17-5.8,12.98-12.97,12.98s-12.98-5.82-12.98-12.98c0,7.17-5.82,12.98-12.98,12.98s-12.97-5.82-12.97-12.98v-35.24c0-6.86,5.55-12.41,12.41-12.41h53.04c6.86,0,12.41,5.55,12.41,12.41Z"/>
    </g>
  </g>
  <g id="Capa_111" data-name="Capa_11">
    <g>
      <path class="st1" d="M127.62,113.99c0,10.05-3.6,19.78-10.36,27.48-7.14,8.18-17.24,13.21-28.04,14.08h-18.3c-10.85-.87-20.91-5.9-28.1-14.08-6.76-7.69-10.36-17.49-10.36-27.54,0-3.72.5-7.51,1.55-11.16,3.23-11.41,4.59-23.2,4.16-34.92-.19-8.31-1.37-16.56-3.41-24.62l-.44-1.55c-.99-3.91,1.99-7.76,6.01-7.76h79.39c4.03,0,7.01,3.85,6.01,7.76l-.37,1.55c-4.97,19.6-4.71,40.13.68,59.55,1.06,3.72,1.55,7.51,1.55,11.23h.02Z"/>
      <path class="st1" d="M34.33,41.66l.44,1.55c2.04,8.07,3.23,16.31,3.41,24.62-.68.13-1.43.13-2.11.13-17.43,0-31.51-14.08-31.51-31.51S18.64,5,36.07,5c16.49,0,30.02,12.71,31.32,28.91h-27.05c-4.03,0-7.01,3.85-6.01,7.76h0Z"/>
      <line class="st1" x1="82.3" y1="155.55" x2="82.3" y2="216.5"/>
      <line class="st1" x1="51.83" y1="216.5" x2="112.78" y2="216.5"/>
    </g>
  </g>
</svg>