<?xml version="1.0" encoding="UTF-8"?>
<svg id="Capa_1" xmlns="http://www.w3.org/2000/svg" version="1.1" viewBox="0 0 321.7 255.14">
  <!-- Generator: Adobe Illustrator 30.2.1, SVG Export Plug-In . SVG Version: 2.1.1 Build 1)  -->
  <defs>
    <style>
      .st0 {
        fill: none;
        stroke: #006ab7;
        stroke-linecap: round;
        stroke-linejoin: round;
        stroke-width: 8.96px;
      }
    </style>
  </defs>
  <g id="Capa_11" data-name="Capa_1">
    <g>
      <g>
        <path class="st0" d="M262.44,205.47v-29.88h-131.99c-26.78,0-52.44,10.77-71.2,29.88h0"/>
        <path class="st0" d="M126.48,165.65v-2.51c0-6.21,5.03-11.24,11.24-11.24h69.95c6.21,0,11.24,5.03,11.24,11.24v2.51"/>
        <path class="st0" d="M172.69,136.63V4.48s-46.21,16.04-66.84,116.11l66.84-.76"/>
      </g>
      <line class="st0" x1="114.75" y1="86.54" x2="172.69" y2="86.54"/>
      <line class="st0" x1="172.69" y1="49.47" x2="130.41" y2="49.47"/>
      <g>
        <path class="st0" d="M4.48,219.12c17.2,0,17.2,8.23,34.4,8.23s17.2-8.23,34.4-8.23,17.2,8.23,34.41,8.23,17.21-8.23,34.41-8.23,17.2,8.23,34.4,8.23,17.21-8.23,34.43-8.23,17.22,8.23,34.45,8.23,17.22-8.23,34.45-8.23"/>
        <path class="st0" d="M41.87,250.66c17.2,0,17.2-8.23,34.4-8.23s17.2,8.23,34.4,8.23,17.2-8.23,34.41-8.23,17.21,8.23,34.41,8.23,17.2-8.23,34.4-8.23,17.21,8.23,34.43,8.23,17.22-8.23,34.45-8.23,17.22,8.23,34.45,8.23"/>
      </g>
      <line class="st0" x1="200.31" y1="195.7" x2="182.26" y2="195.7"/>
      <line class="st0" x1="236.95" y1="195.7" x2="218.9" y2="195.7"/>
      <line class="st0" x1="163.67" y1="195.7" x2="145.62" y2="195.7"/>
    </g>
  </g>
</svg>