<?xml version="1.0" encoding="UTF-8"?>
<svg id="Capa_1" data-name="Capa 1" xmlns="http://www.w3.org/2000/svg" viewBox="0 0 42.56 44.7">
  <g id="CRVGaY">
    <g>
      <path d="M5.99.12c.82.7,1.32,1.71,2.04,2.51.28-.4.64-1.07,1.2-1.04l7.38,2.42s.21.27.21.31v11.21c1.65-.34,2.13-1.44,2.62-2.88.53-1.55,1.04-4.45,2.15-5.56.55-.55,1.7-1.1,2.48-1.07.11,0,.13.03.2.11v1.34c-1.25.11-1.86.72-2.28,1.84-.57,1.52-.84,3.19-1.45,4.7-.67,1.68-1.93,2.67-3.69,3.07-.05.86.08,1.66-1.08,1.44L1.13,13.67c-.58-.26-.76-.49-.54-1.15L7.02,3.89l-1.43-2.04L.99,4.44c-.17.05-.1-.02-.14-.1-.22-.4-.42-.81-.67-1.19L5.55.12h.43ZM15.34,5.06l-5.98-1.78L2.43,12.59l12.91,4.24V5.06Z" style="fill: #006ab7; stroke: #006ab7; stroke-miterlimit: 10; stroke-width: .25px;"/>
      <path d="M23.14,11.99c-.04-.76-.9-1.9.22-2.25h13.43c1.2.15.6,1.33.33,2.07l.1.18h1.39s.29.29.32.37c.27.65-.34,1.18-.45,1.8,3.03-1.45,5.49,2.33,2.8,4.4l-6.01,2.74-1.74,3.94h5.46v1.47l-1.13.04,3.52,13.98c.39,2-.82,3.59-2.86,3.73-5.47.38-11.38-.29-16.9,0-1.84-.29-2.84-1.65-2.63-3.5l3.54-14.25h-1.3v-1.34l.13-.13h5.42l-5.42-12.21c-.21-.25.11-1.04.35-1.04h1.43ZM35.79,11.21h-11.26c.08.25.11.73.39.78l10.63-.05.25-.73ZM37.09,13.46h-13.86l3.59,8.06,6.72-.05,3.55-8.01ZM36.23,19.26l4.29-1.99c.95-.71.37-2.07-.77-1.99-.13,0-2.03.75-2.13.82l-1.39,3.15ZM32.85,23.07h-5.37l.88,2.03c.06.14.16.13.29.14.34.04,3.12.04,3.26-.05l.95-2.12ZM39.69,40.04l-3.37-13.29h-12.23l-3.29,13.29h18.89ZM39.95,41.51h-19.5c-.04.81.56,1.38,1.34,1.47l17.1-.06c.65-.17,1.1-.73,1.06-1.41Z" style="fill: #006ab7; stroke: #006ab7; stroke-miterlimit: 10; stroke-width: .25px;"/>
      <path d="M14.82,1.6l-.43,1.47-2.16-.7c-.08-.09.36-1.45.47-1.46l2.13.68Z" style="fill: #006ab7; stroke: #006ab7; stroke-miterlimit: 10; stroke-width: .25px;"/>
      <polygon points="30.85 28.18 30.85 29.65 29.38 29.65 29.38 28.31 29.51 28.18 30.85 28.18" style="fill: #006ab7; stroke: #006ab7; stroke-miterlimit: 10; stroke-width: .25px;"/>
      <polygon points="30.85 31.12 30.85 32.59 29.38 32.59 29.38 31.25 29.51 31.12 30.85 31.12" style="fill: #006ab7; stroke: #006ab7; stroke-miterlimit: 10; stroke-width: .25px;"/>
      <polygon points="30.85 35.62 30.85 37.09 29.51 37.09 29.38 36.96 29.38 35.62 30.85 35.62" style="fill: #006ab7; stroke: #006ab7; stroke-miterlimit: 10; stroke-width: .25px;"/>
      <rect x="30.74" y="16.38" width="4.73" height="1.51" transform="translate(6.5 43.25) rotate(-71.83)" style="fill: #006ab7; stroke: #006ab7; stroke-miterlimit: 10; stroke-width: .25px;"/>
      <rect x="26.43" y="14.75" width="1.5" height="4.7" transform="translate(-4.02 9.5) rotate(-18.48)" style="fill: #006ab7; stroke: #006ab7; stroke-miterlimit: 10; stroke-width: .25px;"/>
      <rect x="29.38" y="14.93" width="1.47" height="4.42" style="fill: #006ab7; stroke: #006ab7; stroke-miterlimit: 10; stroke-width: .25px;"/>
    </g>
  </g>
</svg>