<?xml version="1.0" encoding="UTF-8"?>
<svg id="Capa_3" data-name="Capa 3" xmlns="http://www.w3.org/2000/svg" viewBox="0 0 45.35 44.7">
  <g id="_1sv4oB" data-name="1sv4oB">
    <g>
      <path d="M4.56,30.1c-.08-.27-1.7-.07-2.14-.17-1.19-.27-1.99-1.32-2.09-2.52-.25-2.85.19-6.05,0-8.94.1-.63.75-.74,1.1-.24l.06,9.36c.11.8.84,1.32,1.63,1.31-.2-.36-.35-.68-.39-1.1-.33-3.67.25-7.82,0-11.54.29-2.84,4.52-2.89,4.97-.17.12.71-.13,1.86.04,2.46.03.09.75.98.85,1.07.78.67,2.64.21,3.64.35-.02-.33-.01-.64.23-.87l4.76-.04c.25.16.27.3.3.57.08.84-.08,1.84-.29,2.65h10.48c-.26-.47-.48-2.96-.13-3.18.52-.33,3.86.06,4.69-.09.42.08.47.61.43.96,1.06-.14,2.7.33,3.56-.33.15-.12.9-.95.94-1.08.16-.54-.05-1.77.04-2.45.39-2.7,4.67-2.74,4.97.26-.23,3.64.31,7.66,0,11.25-.04.49-.2.86-.39,1.29.83-.01,1.43-.5,1.63-1.3.19-2.93-.24-6.14,0-9.03.08-.93,1.03-.78,1.11-.15-.12,2.84,0,5.69-.05,8.53-.01.77.09,1.17-.4,1.9-.95,1.42-2.28,1.02-3.73,1.22v6.63h4.37c.22,0,.69.97-.28,1.06H.86c-.81-.11-.43-1.06-.19-1.06h3.75l.14-.14v-6.44ZM18.6,36.68c.02-.11-.01-.19-.04-.29-.31-.99-1.41-2.82-1.92-3.84-.87-1.73-1.82-3.86-2.79-5.48-.29-.48-.52-.89-1.15-.96-1.65-.2-3.73.2-5.39,0-.23-.03-.43-.09-.57-.29l-.06-9.17c-.22-2.02-2.68-1.96-2.87-.01.22,3.45-.3,7.27,0,10.67.07.79.46,1.46,1.31,1.57,1.83.25,4.16-.17,6.05,0,.16.01.32,0,.47.11l3.9,7.68h3.08ZM29.46,36.68l3.9-7.68c.14-.1.3-.1.47-.11,1.89-.17,4.22.25,6.05,0,.8-.11,1.22-.71,1.25-1.48.16-3.26,0-7.08-.05-10.39-.01-.65.15-1.1-.52-1.58-1.01-.72-2.11,0-2.25,1.12l-.06,9.27c-.15.2-.34.26-.57.29-1.66.19-3.73-.2-5.39,0-.44.05-.81.34-1.03.7l-4.98,9.87h3.17ZM16.34,20.05h-2.88c-.1.07-.1.08-.1.2,0,.67.11,1.38.36,2,.67-.06,1.51.1,2.15.06.11,0,.18-.02.24-.11.2-.3.34-1.56.34-1.95,0-.11,0-.12-.1-.2ZM31.57,20.05h-3.08c.04.73.07,1.48.37,2.15l2.4.05c.28-.7.33-1.46.3-2.2ZM7.73,20.34v1.39c.17.16.4.36.61.45.6.26,2.94.24,3.67.17.15-.01.29-.05.42-.11l-.14-1.15c-1.52-.34-3.3.42-4.56-.76ZM32.44,22.26c.12.13,3.01.13,3.42.1,1.35-.12,1.51-.78,1.39-2.02-1.24,1.11-2.94.52-4.46.69l-.14.15-.21,1.09ZM22.25,23.41h-13.79c-.09,0-.56-.26-.72-.29v1.83h5.05c.67,0,1.65.81,1.95,1.41l5.11,10.31h2.4v-13.27ZM37.24,24.95v-1.83c-.16.02-.63.29-.72.29h-13.12v13.27h1.73l5.21-10.51c.29-.52,1.26-1.22,1.86-1.22h5.05ZM6.96,29.95h-1.35v6.73h1.35v-6.73ZM14.27,36.68l-3.41-6.73h-2.74v6.73h6.15ZM36.86,30.05c0-.14-2.63-.17-2.86.02l-3.29,6.61h6.15v-6.63ZM39.36,29.95h-1.35v6.74h1.35v-6.74Z" style="fill: #006ab7; stroke: #006ab7; stroke-miterlimit: 10; stroke-width: .5px;"/>
      <path d="M42.99,10.15c0,1.76-1.43,3.2-3.2,3.2s-3.2-1.43-3.2-3.2,1.43-3.2,3.2-3.2,3.2,1.43,3.2,3.2ZM41.87,10.16c0-1.15-.93-2.08-2.08-2.08s-2.08.93-2.08,2.08.93,2.08,2.08,2.08,2.08-.93,2.08-2.08Z" style="fill: #006ab7; stroke: #006ab7; stroke-miterlimit: 10; stroke-width: .5px;"/>
      <path d="M8.36,10.16c0,1.76-1.43,3.19-3.19,3.19s-3.19-1.43-3.19-3.19,1.43-3.19,3.19-3.19,3.19,1.43,3.19,3.19ZM7.25,10.16c0-1.15-.93-2.08-2.08-2.08s-2.08.93-2.08,2.08.93,2.08,2.08,2.08,2.08-.93,2.08-2.08Z" style="fill: #006ab7; stroke: #006ab7; stroke-miterlimit: 10; stroke-width: .5px;"/>
      <path d="M31.07,14.59c.5-.1.81.28.66.76-.09.28-.46.39-.45.72,0,.41.61.48.48,1.34-.08.53-.94,1.48-1.44.97-.58-.59.3-.86.3-1.16-.26-.41-.53-.71-.48-1.24.04-.43.47-1.29.93-1.39Z" style="fill: #006ab7;"/>
      <path d="M16.46,18.39c-.47.44-1.29-.35-1.4-.81-.22-.92.45-1.22.46-1.52.01-.36-.91-.84-.38-1.35s1.27.39,1.42.89c.17.59,0,1.2-.45,1.61.33.26.78.78.36,1.18Z" style="fill: #006ab7;"/>
      <path d="M29.82,14.69c.51.52-.36,1.03-.36,1.37,0,.29.35.47.43.72.26.83-.69,2.19-1.4,1.59-.47-.4.07-.86.38-1.15-.33-.31-.62-.85-.56-1.32.07-.53.91-1.8,1.5-1.2Z" style="fill: #006ab7;"/>
      <path d="M13.33,14.69c.39-.39.95.13,1.17.46.49.73.39,1.46-.23,2.06.31.29.85.75.38,1.15-.52.45-1.28-.32-1.4-.81-.24-.98.43-1.07.43-1.5,0-.34-.87-.86-.36-1.37Z" style="fill: #006ab7;"/>
    </g>
  </g>
</svg>