<?xml version="1.0" encoding="UTF-8"?>
<svg id="Capa_1" xmlns="http://www.w3.org/2000/svg" version="1.1" viewBox="0 0 449.12 178.07">
  <!-- Generator: Adobe Illustrator 30.2.1, SVG Export Plug-In . SVG Version: 2.1.1 Build 1)  -->
  <defs>
    <style>
      .st0 {
        font-family: Lato-Bold, Lato;
        font-size: 42.44px;
        font-weight: 700;
      }

      .st0, .st1, .st2, .st3 {
        isolation: isolate;
      }

      .st0, .st2, .st3 {
        fill: #006ab7;
      }

      .st2 {
        letter-spacing: -.02em;
      }

      .st2, .st3 {
        font-family: Lato-Medium, Lato;
        font-size: 44px;
        font-weight: 500;
      }

      .st4 {
        fill: none;
        stroke: #006ab7;
        stroke-linecap: round;
        stroke-linejoin: round;
        stroke-width: 8.96px;
      }
    </style>
  </defs>
  <g id="Capa_11" data-name="Capa_1">
    <g>
      <circle class="st4" cx="62.22" cy="61.63" r="21.33"/>
      <path class="st4" d="M89.21,137.26v-27.31c0-14.9-12.08-26.98-26.98-26.98h0c-14.9,0-26.98,12.08-26.98,26.98v27.31h31.31"/>
    </g>
    <g>
      <circle class="st4" cx="170.16" cy="61.63" r="21.33"/>
      <path class="st4" d="M143.18,137.26v-27.31c0-14.9,12.08-26.98,26.98-26.98h0c14.9,0,26.98,12.08,26.98,26.98v27.31h-31.31"/>
    </g>
    <g>
      <circle class="st4" cx="116.19" cy="61.63" r="21.33"/>
      <path class="st4" d="M143.18,137.26v-27.31c0-14.9-12.08-26.98-26.98-26.98h0c-14.9,0-26.98,12.08-26.98,26.98v27.31"/>
      <line class="st4" x1="105.07" y1="137.77" x2="127.31" y2="137.77"/>
    </g>
    <g class="st1">
      <text class="st0" transform="translate(250.18 77.96)"><tspan x="0" y="0">Capacity</tspan></text>
    </g>
    <g class="st1">
      <text class="st3" transform="translate(255.22 128.58)"><tspan x="0" y="0">120 </tspan></text>
      <text class="st2" transform="translate(342.93 128.58)"><tspan x="0" y="0">P</tspan></text>
      <text class="st3" transform="translate(368.78 128.58)"><tspan x="0" y="0">ax</tspan></text>
    </g>
    <line class="st4" x1="228.22" y1="53.81" x2="228.22" y2="123.75"/>
    <rect class="st4" x="4.48" y="4.48" width="440.16" height="169.11" rx="25" ry="25"/>
  </g>
</svg>