<?xml version="1.0" encoding="UTF-8"?>
<svg id="Capa_1" data-name="Capa 1" xmlns="http://www.w3.org/2000/svg" viewBox="0 0 45.55 45.63">
  <path d="M25.84,25.32c1.68.24,2.98,2.77,4.56,3.5,1.35.62,2.67.4,4.12.41.27-.4.32-.86.66-1.25.71-.81,2.06-.84,3.07-.75,1.36.12,1.93.78,2.34,2.02.85.15,3.75-.25,4.34.09.15.09.27.3.26.48-.27,3.72.34,7.89,0,11.56-.05.52-.14.73-.69.79-1.21.14-2.67-.12-3.91.01l-.12.09c-.35,1.86-2.24,1.96-3.81,1.8-1-.1-1.93-.85-1.97-1.9-.7.04-1.48-.07-2.17,0-2.16.19-2.8,2.79-5.52,3.06-2.13.21-6.43.2-8.58.02-2.47-.21-3.43-2.82-1.64-4.51-1.21-1.06-1.21-2.87,0-3.92-1.23-1.09-1.21-2.82,0-3.92-2.34-2.37.1-5.03,2.97-4.5l-.05-6.78L.46,13.07c-.26-.24-.28-.58-.08-.87L18.47,4.17c-.22-.73-.35-2.2-.18-2.94.08-.34.61-.79.93-.87.56-.15,4.69-.14,5.33-.03,1.28.23,1.25,1.88,1.14,2.89s-.71,1.28-1.6,1.49v20.6c.55.05,1.23-.08,1.76,0ZM19.43,3.38h4.93l.16-.16v-1.59l-.16-.16h-4.93v1.91ZM22.93,4.66h-2.01v21.19c.66-.23,1.26-.64,2.01-.53V4.66ZM19.75,4.97L2.37,12.71l17.38,7.52V4.97ZM34.59,30.4h-3.13c-2.22,0-3.52-2.44-4.98-3.5-.75-.54-3.2-.57-4.11-.4-.5.09-1.08.59-1.27,1.06-.3.76-.27,3.87-.19,4.79.24,2.62,3.31,2.53,3.59.2.08-.66-.34-2.72.68-2.57.61.22.6,1.14.83,1.72.57,1.41,1.63,2.52,3.14,2.9.4.1,1.06-.11,1.18.53.23,1.24-1.79.57-2.35.33-1.08-.47-1.43-1.05-2.21-1.82-.67-.67-.12.81-.1,1.05.07.79-.35,1.61-.94,2.11,1.23,1.07,1.26,2.87,0,3.92.96.86,1.26,2.23.53,3.34h1.75c1.4,0,2.71-2.07,3.9-2.67.4-.2,1.4-.51,1.82-.51h1.85v-10.49ZM36.89,28.42c-.52.08-1.01.27-1.04.87v12.93c.17.86,1.94.79,2.59.69.42-.07.89-.55.91-1v-12.5c-.15-1.15-1.57-1.12-2.47-.99ZM19.75,29.66h-1.85c-.07,0-.53.43-.61.56-.28.48-.29,1.21.08,1.66.09.11.56.43.63.43h1.75v-2.65ZM44.02,30.4h-3.5v10.49h3.5v-10.49ZM19.94,33.49c-.88-.07-2.65-.16-2.84,1-.16.98.33,1.65,1.31,1.75s4.07.14,4.98,0c.53-.09,1.14-.7,1.01-1.27-1.63,1.09-3.82.4-4.47-1.47ZM24.06,39.8c.82-.79.35-2.18-.78-2.38-.86-.14-4.06-.14-4.95-.02-1.69.23-1.6,2.47-.2,2.72.87.16,4.13.13,5.06.03.28-.03.66-.16.86-.35ZM18.13,41.34c-1.4.28-1.4,2.42,0,2.71.72.15,4.38.13,5.16.01,1.51-.21,1.55-2.42.09-2.72-.6-.12-4.65-.12-5.25,0Z" style="fill: #006ab7; stroke: #006ab7; stroke-miterlimit: 10; stroke-width: .5px;"/>
</svg>