<?xml version="1.0" encoding="UTF-8"?>
<svg id="Capa_1" data-name="Capa 1" xmlns="http://www.w3.org/2000/svg" viewBox="0 0 30.77 39.32">
  <g>
    <path d="M.63,39.16c-.27-.24-.32-.55-.36-.88-.27-2.41-.17-8.94.68-11.2.87-2.3,3.03-4.43,5.15-5.06.23-.07.7-.12,1.12-.16.25-.03.55-.06.6-.08-.04-.16,0-.48.19-.76.1-.15,2.01-1.73,2.19-1.78.05-.01.09-.02.14-.02.18,0,.31.1.42.19.07.06.14.11.21.13.22-1.19-.2-1.54-.83-2.05-.23-.19-.5-.41-.76-.69-.29-.32-.67-.81-.91-1.2-1.24-1.98-1.24-3.72-1.24-5.56,0-1.15,0-2.34-.31-3.63-.08-.32-.18-.53-.27-.7-.24-.47-.31-.7.42-1.61C8.67,2.12,11.58.13,14.5.13c1.02,0,1.97.24,2.82.72.44.25.81.63,1.15.97.26.27.5.52.74.66.25.15.57.23.91.32.42.11.89.23,1.31.5.81.53,1.59,1.56,1.92,2.51,1.04,3.05.12,8.37-1.86,10.75-.17.21-.66.61-1.04.93-.22.18-.4.33-.43.37-.07.13-.04.59-.02.96.02.23.03.45.03.63h.01c.15-.1.28-.17.46-.17.1,0,.21.02.34.08.11.04,2.04,1.57,2.14,1.74.06.1.07.23.07.34,0,.15.02.25.09.3.07.05.47.1.74.14.28.04.55.07.7.12,3.36,1.03,5.7,4.34,5.97,8.44.14,2.14.18,5.61,0,7.7-.03.37-.05.67-.27.94l-.04.05-29.56.08-.04-.03ZM16,37.95l.2.15,6.46-.04.15-.2-.04-2.79c0-.06.04-.12.09-.22.03-.06.09-.14.1-.18l.02-.1,1-.03v3.39c.4.09,1.58.15,2.92.15h0c1.45,0,2.33-.07,2.45-.15l-.04-7.5c0-.55-.33-2.06-.52-2.63-.78-2.34-3.14-4.82-6-4.82-.14,0-.29,0-.43.02l-3.3,5.99c-.16.12-.29.16-.43.16-.5,0-1.04-.51-1.56-1-.37-.35-.76-.71-1.07-.83v10.62ZM7.25,34.55c.36,0,.6.15.6.36v3.03l.2.15,6.62-.04.15-.2-.04-10.5c-.27.15-.62.47-.96.78-.56.52-1.14,1.05-1.6,1.05-.09,0-.17-.02-.24-.06l-3.4-5.97c-.25-.08-.59-.14-.95-.14-1.63,0-3.4,1.29-4.36,2.48-.51.64-1.65,2.76-1.65,3.52v8.94l.2.15,4.7-.04.15-.2-.04-2.95c0-.22.24-.36.6-.36ZM10.21,20.82c-.12.11-.26.21-.39.3-.38.25-.6.42-.5.79l3.01,5.66c.37-.04,1.31-.77,1.76-1.32.19-.23.22-.35.21-.37l-4.08-5.06ZM16.53,26.13c.19.09.45.33.75.59.4.35.95.83,1.19.83l3.13-5.74-1.01-.98-4.1,5.18.03.11ZM12.17,21.18c.08.3,2.64,3.57,2.99,3.91.13.13.19.19.26.2l3.23-4.03-.03-2.52c-1.05.47-2.11.7-3.24.7-1.01,0-2.06-.18-3.21-.56v2.3ZM12.81,7.22c-1.15,0-2,.3-2.76.97-1.4,1.22-1.9,2.92-1.41,4.76.65,2.47,2.87,4.63,5.29,5.15.45.09.91.14,1.36.14,3.27,0,6.13-2.41,6.81-5.74.48-2.37-.79-4.9-3.08-6.21-.81.81-1.74,1.17-3,1.17-.53,0-1.07-.06-1.6-.12-.52-.06-1.07-.12-1.59-.12ZM8.44,8.07c1.01-1.11,1.98-1.76,2.97-1.99.29-.07.64-.1,1.06-.1.55,0,1.17.06,1.76.11.59.05,1.21.11,1.75.11.79,0,1.32-.12,1.66-.37.12-.09.23-.25.33-.41.17-.26.35-.55.69-.57.79.13,1.38.59,1.96,1.03.15.11.3.23.45.34l1.41,1.76c0-1.49-.66-3.25-2.22-3.89-.23-.09-.51-.14-.77-.18-.29-.05-.56-.09-.77-.19-.25-.12-.54-.44-.87-.8-.32-.35-.65-.71-.95-.9-.73-.46-1.53-.69-2.39-.69-2.57,0-5.22,2.1-6.73,3.92l.68,2.82Z" style="fill: #006ab7;"/>
    <path d="M14.5.25c.95,0,1.88.21,2.76.7.76.43,1.33,1.29,1.88,1.63.58.36,1.47.33,2.21.82.8.53,1.56,1.53,1.87,2.44.99,2.9.16,8.23-1.84,10.63-.28.33-1.43,1.22-1.48,1.31-.18.3.05,1.45-.03,1.88.27-.13.4-.27.62-.27.08,0,.17.02.29.07.12.05,2.01,1.57,2.08,1.68.11.19-.02.53.19.68.17.13,1.13.17,1.48.28,3.64,1.11,5.64,4.69,5.88,8.33.14,2.12.18,5.59,0,7.68-.03.32-.03.61-.24.87l-29.45.08c-.24-.21-.29-.5-.32-.8-.28-2.47-.17-8.91.68-11.14.81-2.13,2.85-4.32,5.07-4.98.4-.12,1.68-.19,1.75-.25.03-.03,0-.46.24-.8.1-.15,1.99-1.69,2.12-1.73.04-.01.07-.01.11-.01.28,0,.4.32.67.32.02,0,.04,0,.06,0,.37-1.82-.63-1.89-1.6-2.95-.29-.32-.66-.81-.89-1.18-2-3.19-.73-5.78-1.54-9.16-.27-1.11-.89-.94.12-2.2C8.84,2.1,11.72.25,14.5.25M8.37,8.33c.8-.91,1.84-1.84,3.06-2.13.3-.07.65-.1,1.03-.1,1.09,0,2.41.22,3.51.22.71,0,1.32-.09,1.73-.39.36-.26.5-.93.95-.95.92.16,1.6.82,2.32,1.35l1.59,2c.13-1.72-.6-3.66-2.28-4.34-.5-.2-1.14-.19-1.54-.38-.46-.22-1.18-1.3-1.81-1.7-.79-.5-1.62-.71-2.45-.71-2.62,0-5.29,2.09-6.87,4.01l.76,3.12M16.01,7.33c-1.05,0-2.13-.24-3.2-.24-.98,0-1.94.21-2.85,1-3.82,3.35-.3,9.23,3.93,10.12.47.1.93.15,1.38.15,3.32,0,6.25-2.5,6.93-5.84.53-2.6-.97-5.15-3.23-6.39-.92.96-1.93,1.2-2.98,1.2M15.38,19.32c-1.1,0-2.21-.22-3.34-.61v2.48c0,.25,2.71,3.68,3.03,3.99.12.12.21.25.4.25h0l3.27-4.08v-2.79c-1.13.53-2.24.77-3.37.77M12.34,27.66c.58,0,2.18-1.44,2.08-1.81l-4.2-5.21c-.38.46-1.21.6-1.02,1.31l3.02,5.69s.07.03.12.03M18.47,27.68s.08-.01.11-.03l3.17-5.85-1.17-1.14-4.22,5.33.07.23c.4.15,1.56,1.46,2.04,1.46M18.63,29.04c-.85,0-1.95-1.75-2.76-1.87v10.78l.24.24h6.54l.24-.24v-2.87c0-.06.16-.26.19-.37l.77-.03v3.35c.35.12,1.74.18,3.05.18s2.46-.06,2.54-.18v-7.58c0-.57-.33-2.08-.52-2.67-.84-2.52-3.35-4.91-6.12-4.91-.17,0-.34,0-.51.03l-3.33,6.04c-.1.07-.21.1-.33.1M1.75,38.19h4.79l.24-.24v-3.03c0-.16.24-.24.48-.24s.48.08.48.24v3.03l.24.24h6.7l.24-.24v-10.78c-.69.19-1.95,1.89-2.69,1.89-.07,0-.13-.01-.19-.04l-3.34-5.93c-.34-.14-.7-.21-1.06-.21-1.66,0-3.49,1.32-4.46,2.53-.53.67-1.67,2.81-1.67,3.59v8.94l.24.24M14.5,0h0c-2.96,0-5.92,2.02-7.52,4.02-.74.92-.71,1.21-.43,1.75.09.17.19.37.26.67.31,1.28.31,2.46.31,3.6,0,1.86,0,3.62,1.26,5.63.25.39.62.89.92,1.22.27.29.53.51.77.7.6.49.95.78.81,1.76-.01,0-.03-.02-.04-.03-.11-.09-.27-.22-.5-.22-.06,0-.11,0-.17.02-.25.07-2.18,1.71-2.26,1.82-.18.26-.24.55-.26.74-.12.02-.3.03-.45.05-.42.04-.9.09-1.14.17-2.19.66-4.34,2.77-5.23,5.14C-.04,29.36-.14,35.82.14,38.3c.04.33.1.68.4.95l.07.06h.1s29.45-.08,29.45-.08h.12s.07-.09.07-.09c.24-.3.27-.62.29-.93v-.08c.18-2.09.15-5.57,0-7.72-.27-4.15-2.65-7.51-6.06-8.55-.17-.05-.44-.09-.72-.12-.24-.03-.61-.08-.69-.12-.02-.01-.02-.12-.03-.2,0-.13-.01-.27-.09-.4-.11-.18-2.05-1.73-2.2-1.79-.14-.06-.27-.09-.39-.09-.14,0-.25.04-.35.09,0-.13-.01-.28-.02-.42-.02-.3-.05-.79,0-.9.02-.01.22-.18.4-.33.39-.32.88-.73,1.06-.94,2-2.4,2.94-7.79,1.88-10.87-.34-.99-1.13-2.02-1.97-2.57-.44-.29-.92-.41-1.35-.52-.33-.08-.64-.16-.87-.3-.22-.14-.46-.38-.71-.64-.34-.35-.72-.74-1.18-.99-.87-.49-1.84-.74-2.88-.74h0ZM7.89,5.28c1.5-1.79,4.09-3.82,6.6-3.82.83,0,1.61.22,2.32.67.29.18.63.55.93.88.34.38.64.7.91.83.23.11.51.16.81.2.26.04.53.09.75.18,1.38.56,2.03,2.04,2.13,3.4l-1.15-1.44-.02-.03-.03-.02c-.15-.11-.3-.22-.44-.33-.59-.45-1.19-.92-1.98-1.06h-.03s-.03,0-.03,0c-.4.02-.61.36-.79.63-.09.15-.19.3-.29.37-.32.23-.83.34-1.59.34-.54,0-1.15-.06-1.74-.11-.6-.05-1.22-.11-1.77-.11-.43,0-.79.03-1.09.1-.96.22-1.9.83-2.87,1.85l-.62-2.54h0ZM16.01,7.58c1.26,0,2.2-.35,3.02-1.14,2.2,1.29,3.41,3.74,2.94,6.02-.66,3.27-3.48,5.64-6.69,5.64-.44,0-.89-.05-1.33-.14-2.37-.5-4.56-2.63-5.19-5.05-.47-1.8.02-3.44,1.38-4.63.74-.65,1.57-.94,2.68-.94.52,0,1.06.06,1.58.12.53.06,1.08.12,1.62.12h0ZM15.38,19.57c1.09,0,2.11-.21,3.12-.63v2.32l-3.11,3.88s-.05-.04-.08-.08l-.06-.06c-.31-.3-2.75-3.41-2.95-3.85v-2.09c1.1.34,2.12.51,3.09.51h0ZM9.43,21.85c-.06-.26.08-.38.46-.63.1-.07.21-.14.31-.22l3.97,4.93c-.11.33-1.33,1.4-1.79,1.47l-2.95-5.55h0ZM16.64,26.04l3.97-5.02.84.81-3.03,5.58c-.23-.07-.76-.53-1.06-.79-.32-.28-.55-.48-.73-.58h0ZM22.45,23.13c.12,0,.24-.01.35-.01,2.8,0,5.12,2.44,5.88,4.74.19.56.51,2.06.51,2.59v7.41c-.27.05-1,.11-2.29.11-1.22,0-2.34-.05-2.8-.13v-3.41h-.26s-.77.03-.77.03h-.2s-.04.2-.04.2c0,.03-.05.1-.08.14-.06.11-.11.18-.11.28v2.77l-.09.09h-6.34l-.09-.09v-10.31c.26.16.57.44.86.72.54.51,1.1,1.03,1.64,1.03.17,0,.32-.05.46-.14l.05-.03.03-.05,3.27-5.93h0ZM1.76,37.85v-8.84c0-.67,1.06-2.74,1.62-3.44.97-1.21,2.75-2.43,4.26-2.43.32,0,.61.05.89.16l3.3,5.85.04.06.07.03c.09.05.19.07.3.07.5,0,1.08-.53,1.68-1.08.25-.23.52-.48.75-.64v10.26l-.09.09h-6.5l-.09-.09v-2.93c0-.29-.29-.49-.73-.49s-.73.2-.73.49v2.93l-.09.09H1.85l-.09-.09h0Z" style="fill: #006ab7;"/>
  </g>
  <g>
    <path d="M21.39,32.44c-.31,0-1.07,0-1.29-.07-.41-.12-.54-.49-.5-.79.03-.23.17-.38.35-.38h4.04l-.03.9c-.16.3-1.68.34-2.57.34Z" style="fill: #006ab7;"/>
    <path d="M23.85,31.32l-.02.78c-.09.15-1.4.22-2.44.22-.6,0-1.11-.02-1.26-.07-.56-.17-.49-.93-.19-.93h3.91M24.11,31.07h-4.17c-.24,0-.43.2-.47.49-.05.36.13.79.59.93.23.07.93.08,1.33.08,2.45,0,2.59-.24,2.65-.34l.03-.06v-.07s.02-.78.02-.78v-.26h0Z" style="fill: #006ab7;"/>
  </g>
</svg>