<?xml version="1.0" encoding="UTF-8"?>
<svg id="Capa_1" data-name="Capa 1" xmlns="http://www.w3.org/2000/svg" viewBox="0 0 36.1 39.31">
  <path d="M8.85,16.91c-.15.04-.59.53-.77.64-2.95,1.79-6.73.27-7.76-2.98-.63-1.97-.28-5.35.58-7.24,2.87-6.33,9.17,1.26,9.7,5.15l.57.12c.39-1.51.98-2.9,1.71-4.28-.37-.6-.83-.8-1.02-1.55-.3-1.2.02-2.38,1.03-3.12.55-.4,1.05-.44,1.62-.71-.35-.75-.86-1.21-1.7-1.34l-7.8-.03c-.65-.39-.52-1.16.15-1.44l7.9-.06c1.58.18,2.36,1.05,2.95,2.43.16.36.2.85.35,1.17.23.47.89,1,.98,1.65h1.49c-.11-.69.66-1.1.88-1.51.18-.35.24-1.02.41-1.46.54-1.34,1.51-2.15,2.98-2.28,2.41-.22,5.16.18,7.61,0,.85.08,1.08,1.1.32,1.5l-7.68.03c-.82.18-1.66.56-1.71,1.51,2.14.07,3.46,2.35,2.3,4.23-.16.25-.77.78-.76.95.32.59.65,1.16.92,1.78.34.8.51,1.66.89,2.38l.58-.1c.15-1.48.99-3.02,1.87-4.21,1.39-1.86,4.09-4.52,6.48-2.64,2.2,1.73,2.61,6.87,1.74,9.34-.92,2.61-4.02,4.12-6.65,3.16-.58-.21-1.48-1.01-1.72-1.09-.26-.08-2.02-.06-2.12.11v1.37c.69.39,3.88,1.32,4.13,1.89.1.22.12,2.66.06,2.98-.09.49-.79.66-1.2.42-.58-.34-.17-1.88-.37-2.46l-2.87-1.16-.41,1.76c.75.66,2.5.78,2.64,1.92.09.77.19,3.55-1.29,2.81-.65-.32-.11-2.24-.5-2.6-.22-.2-1.53-.69-1.83-.56-.67.31-.39,1.62-.76,2.4-.17.36-.79.92-.85,1.13-.12.4.05,1.01-.05,1.47-.07.32-.38.61-.43.97-.04.28-.06,1.13,0,1.39.06.31,1.27.9,1.64,1.28,1.35,1.38,1.62,3.51,1.38,5.37s-2.24,1.99-3.79,1.83c-1-.1-1.81-.72-2.69-1.13-1.17,1.08-3.14,1.36-4.67,1.12-.96-.15-1.6-1.12-1.7-2.04-.23-2.17.21-4.13,1.93-5.55.33-.28,1.03-.49,1.11-.88.05-.27.04-1.22,0-1.51s-.26-.48-.31-.74c-.11-.52-.06-1.31-.17-1.7-.07-.26-.84-.83-.97-1.36-.15-.59.11-2.05-.81-2.1-.15,0-1.46.59-1.52.69-.2.66.19,1.92-.4,2.41-.36.29-1.01.22-1.21-.21-.14-.3-.15-2.68-.04-3.02.21-.63,1.87-.91,2.38-1.3l-.33-1.73c-.17-.14-2.49.84-2.81,1.1-.44.61.49,2.55-.86,2.53-.46,0-.71-.31-.77-.76-.06-.48-.06-2.55.18-2.87.4-.53,3.18-1.26,3.86-1.75.36-.34-.09-1.04.05-1.53-.57.09-1.54-.13-2.05,0ZM14.37,4.65c-1.2.23-1.3,2.08-.45,2.26.12.03,1.46-.81,1.64-.95.62-.48-.45-1.46-1.19-1.32ZM20.39,5.9c.04.07.84.44,1.02.56.39.25.52.85,1.06.23.88-1.01-.54-2.73-1.75-1.75-.21.17-.49.7-.33.96ZM6.62,8.32c-.51-.56-1-1.32-1.8-1.47.2,1.41.39,2.85.91,4.17.12.31.58.93.61,1.16.08.55-.47,1.13-1.02.9-1.2-.51-2.05-4.85-2.02-6.11-.54-.56-1.43,2.28-1.49,2.54-.48,2.19-.57,5.68,1.84,6.75,1.62.72,3.42.5,4.56-.94,1.89-2.39.11-5.12-1.59-7ZM31.09,12.9c-.54.49-1.34.12-1.31-.61.01-.43.65-1.4.82-1.93.23-.7.63-2.41.64-3.11,0-.2.02-.26-.17-.39-2.35,1.76-5.41,5.48-3.1,8.35,2.02,2.5,6.14,1.33,6.43-1.86.2-2.18-.05-4.66-1.29-6.49-.17.02-.18.17-.23.3-.28.76-.3,1.82-.5,2.65-.17.69-.8,2.65-1.29,3.09ZM15.16,8.19c-2.81,2.75-3.2,8.76-2.24,12.37.07.25.41,1.35.5,1.49.56.85,2.86-.24,3.75-.33,1.03-.1,2.11.04,3.11.25.79.17,1.95.98,2.51-.12,1.88-3.71.96-14.87-4.7-14.88-1.17,0-2.11.42-2.93,1.22ZM11,14.23h-.55s-.26,1.04-.26,1.04c.82.31.88-.36.81-1.04ZM25.18,15.25c.19.1.58.25.67-.06.08-.24-.3-1.38-.69-1.03l.02,1.09ZM14.91,25.4c.07.08.58.38.7.41.48.16,4.11.18,4.7.08.86-.15,1.72-1.56.97-2.01-.65-.39-2.75-.6-3.54-.56-1.09.05-2.05.46-3.09.59,0,.46-.06,1.12.27,1.48ZM15.81,27.43c-.02.29-.02.92.31,1.03.23.08,3.72.05,3.9-.04.35-.17.47-.99.18-.99h-4.38ZM19.72,30.12h-3.27c-.29.17-.22,1.02.02,1.18s2.81.18,3.08.05c.33-.16.53-.98.18-1.23ZM13.53,37.71h1.87s.81-.32.92-.37c.61-.32,1.15-1.26,1.77-1.27.54-.01.73.54,1.09.81.54.41,1.14.75,1.83.83,1.81.2,2.01-.07,1.93-1.82-.05-1.13-.38-2.4-1.35-3.09-1.06-.76-.98.01-1.87.12-.6.07-3.06.08-3.57-.06-.3-.08-.54-.42-.87-.42-.64,0-1.67,1.3-1.87,1.88-.18.51-.39,3.24.12,3.39Z" style="fill: #006ab7;"/>
</svg>