<?xml version="1.0" encoding="UTF-8"?>
<svg id="Capa_1" xmlns="http://www.w3.org/2000/svg" version="1.1" viewBox="0 0 195.05 242.02">
  <!-- Generator: Adobe Illustrator 30.2.1, SVG Export Plug-In . SVG Version: 2.1.1 Build 1)  -->
  <defs>
    <style>
      .st0 {
        fill: none;
        stroke: #006ab7;
        stroke-linecap: round;
        stroke-linejoin: round;
        stroke-width: 10px;
      }
    </style>
  </defs>
  <g id="Capa_11" data-name="Capa_1">
    <g>
      <path class="st0" d="M122.31,153.5v9.72c0,4.42-3.02,8.13-7.11,9.19-.76.19-1.56.3-2.38.3h-30.61c-.82,0-1.62-.11-2.38-.3-4.09-1.06-7.11-4.78-7.11-9.19v-9.72c1.34.19,2.75.05,4.14-.46l9.57-3.57c7.15-2.68,15.01-2.67,22.16,0l9.56,3.57c1.39.52,2.8.65,4.14.46h.02Z"/>
      <path class="st0" d="M115.21,172.42v11.69c0,5.24-4.25,9.49-9.49,9.49h-16.4c-5.24,0-9.49-4.25-9.49-9.49v-11.69c.76.19,1.56.3,2.38.3h30.61c.82,0,1.62-.11,2.38-.3h0Z"/>
      <polyline class="st0" points="129.56 145.14 142.62 157.3 142.62 175.21"/>
      <polyline class="st0" points="129.56 121.19 157.25 146.96 157.25 164.87"/>
      <line class="st0" x1="129.56" y1="106.93" x2="147.95" y2="90.45"/>
      <path class="st0" d="M188.08,36.11c3.71,12.5,1.57,34.19-1.52,42.7-4.2,11.54-16.97,17.49-28.51,13.29-11.54-4.2-17.49-16.97-13.29-28.51,2.89-7.93,13.77-24.09,24.04-32.07"/>
      <line class="st0" x1="65.48" y1="106.93" x2="47.09" y2="90.45"/>
      <path class="st0" d="M6.96,36.11c-3.71,12.5-1.57,34.19,1.52,42.7,4.2,11.54,16.97,17.49,28.51,13.29s17.49-16.97,13.29-28.51c-2.89-7.93-13.77-24.09-24.04-32.07"/>
      <polyline class="st0" points="65.48 145.14 52.42 157.3 52.42 175.21"/>
      <polyline class="st0" points="65.48 121.19 37.79 146.96 37.79 164.87"/>
      <g>
        <g>
          <polyline class="st0" points="145.53 5 117.84 30.78 117.84 48.69"/>
          <path class="st0" d="M129.56,95.7v49.44c0,4.4-3.28,7.79-7.24,8.36-1.34.19-2.75.05-4.14-.46l-9.56-3.57c-7.15-2.67-15.01-2.68-22.16,0l-9.57,3.57c-1.39.52-2.8.65-4.14.46-3.96-.57-7.24-3.96-7.24-8.36v-49.44c0-8.73,3.27-16.98,8.93-23.27,2.59-2.89,5.7-5.37,9.23-7.29.59-.33,1.2-.63,1.81-.91,3.83-1.76,7.95-2.64,12.07-2.64s8.23.88,12.05,2.63c.62.28,1.23.59,1.83.92,3.52,1.92,6.62,4.4,9.22,7.29,1.54,1.71,2.89,3.54,4.05,5.5,3.14,5.28,4.88,11.4,4.88,17.77h-.02Z"/>
          <path class="st0" d="M130.36,61.95c0,5.55-4.28,10.08-9.73,10.48-2.59-2.89-5.69-5.37-9.22-7.29-.6-.33-1.21-.63-1.83-.92-.16-.74-.24-1.5-.24-2.28,0-5.81,4.7-10.51,10.51-10.51s10.51,4.7,10.51,10.51h0Z"/>
        </g>
        <g>
          <polyline class="st0" points="49.51 5 77.2 30.78 77.2 48.69"/>
          <path class="st0" d="M85.71,61.95c0,.78-.08,1.55-.25,2.29-.61.27-1.22.58-1.81.91-3.52,1.92-6.63,4.4-9.23,7.29-5.45-.4-9.73-4.93-9.73-10.48s4.7-10.51,10.51-10.51,10.51,4.7,10.51,10.51h0Z"/>
        </g>
      </g>
      <path class="st0" d="M131.83,220.6v7.39c0,4.99-4.04,9.03-9.03,9.03h-9.98c-2.4,0-4.7-.95-6.4-2.65l-8.89-8.89-8.89,8.89c-1.69,1.7-3.99,2.65-6.39,2.65h-9.99c-4.99,0-9.03-4.05-9.03-9.03v-7.39c0-9.5,4.97-18.3,13.09-23.2h0c4.11-2.48,8.83-3.79,13.63-3.79h15.17c4.8,0,9.52,1.31,13.63,3.79h0c8.12,4.91,13.08,13.71,13.08,23.2Z"/>
    </g>
  </g>
</svg>