<?xml version="1.0" encoding="UTF-8"?>
<svg id="Capa_1" xmlns="http://www.w3.org/2000/svg" version="1.1" viewBox="0 0 235.87 256.18">
  <!-- Generator: Adobe Illustrator 30.2.1, SVG Export Plug-In . SVG Version: 2.1.1 Build 1)  -->
  <defs>
    <style>
      .st0 {
        fill: none;
        stroke: #006ab7;
        stroke-linecap: round;
        stroke-linejoin: round;
        stroke-width: 10px;
      }
    </style>
  </defs>
  <g id="Capa_11" data-name="Capa_1">
    <g>
      <path class="st0" d="M93.47,158s49.68,9.53,14.74,72"/>
      <path class="st0" d="M78.03,213.59s-3.15,20.12,42.63,16.41c0,0,26.72-1.59,26.72,21.18h-81.01c-6.96,0-13.58-3.27-17.63-8.93-4.4-6.15-12.26-19.14-7.31-41.89"/>
      <path class="st0" d="M198.67,86.86s1.49-7.87-9.51-13.37c-13.11-6.55-9.43-39.11,1.12-44.71"/>
      <path class="st0" d="M163.31,190.08l19.55,43.89c12.54,0,19.9,5.1,24.01,9.75,2.56,2.9.48,7.45-3.38,7.45h-23.79c-2.99,0-5.8-1.45-7.53-3.9l-26.35-43.14c-10.04-16.43-11.99-36.55-5.3-54.61h0"/>
      <path class="st0" d="M26.15,68.23c-15.39-6.74-20.43-17.12-21.08-26.93C3.83,22.67,18.82,6.68,37.42,5.15c10.65-.88,23.51,1.94,36.38,14.15,36.46,34.59-17.87,100.86-17.87,100.86-16.19,20.44-24.04,34.68-26.96,44.59-4.15,14.09,16.76,20.83,21.77,7.02,8.34-23,30.4-64.78,82.51-74.88,6.65-1.29,10.77-8.1,8.65-14.54-3.74-11.32-6.32-28.12,4.08-41.32,5.98-7.59,15.11-12,24.75-12.56,6.3-.37,14.85-.47,22.93.77,12.45,1.91,22.43,11.79,23.85,24.3.44,3.9,2.25,8.72,7.95,11.57,2.44,1.22,4.21,3.48,4.72,6.16,2.15,11.34,2.23,38.55-47.32,36.42,0,0,32.63,38.16-2.11,80.11"/>
    </g>
  </g>
</svg>