<?xml version="1.0" encoding="UTF-8"?>
<svg id="Capa_1" data-name="Capa 1" xmlns="http://www.w3.org/2000/svg" viewBox="0 0 38.31 35.73">
  <path d="M10.34,35.6c-1.26,0-2.66-.07-4.15-.19-1.01-.09-2.3-.32-2.78-.94-.16-.21-.22-.45-.17-.71.25-1.4,2.35-2.72,3.8-2.72.2,0,.34.08.43.13l2.94.03c-.04-.35-.46-1.56-.72-2.32-.21-.6-.38-1.11-.43-1.31-.46-2.16-.4-4.08.17-5.86-.58.18-1.28.26-2.01.35-1.26.15-2.55.3-3.26.94-.34.31-.23.68-.1,1.11.07.23.13.46.13.7,0,1.25-.73,2.31-1.59,2.31-.32,0-.82-.15-1.33-.86-.89-1.25-1.36-3.35-1.07-4.78.44-2.18,1.89-2.67,3.42-3.2.61-.21,1.25-.42,1.86-.76,1.47-.79,2.27-1.23,2.11-2.94-.03-.31-.53-2.37-.62-2.53-.03-.04-.11-.07-.24-.07-.22,0-.51.07-.8.15-.28.07-.54.13-.73.13-.97-.03-1.81-.55-2.33-1.41-.55-.9-.64-2.03-.21-2.94.11-.25.29-.45.46-.65.23-.26.44-.51.5-.83.15-.72.07-1.24,0-1.74-.05-.3-.1-.62-.09-.97C3.55,1.1,6.85.12,8.92.12c.38,0,.73.03,1.04.09,3.12.57,3.88,2.63,4.67,4.82.26.7.52,1.42.87,2.1.5.98,1.69,1.72,2.85,2.44.63.39,1.22.76,1.7,1.16,2.68,2.24,3.88,4.58,5.16,8.11,1.3,3.57,2.14,6.81,2.59,9.9.96.6,2.47,1.24,3.85,1.24,1.23,0,2.09-.5,2.57-1.48,1.58-3.29-1.58-8.39-4.45-10.46-.34-.24-.74-.46-1.12-.67-.4-.22-.81-.44-1.17-.7-2.81-2.03-4.17-5.46-3.56-8.97.59-3.41,2.97-6.11,6.2-7.04.6-.17,1.23-.26,1.85-.26,1.78,0,3.43.69,4.52,1.89.97,1.06,1.4,2.42,1.26,3.93-.15,1.57-1.49,2.54-2.64,2.54-.86,0-1.46-.53-1.56-1.38-.04-.37.06-.69.15-.99.16-.49.29-.92-.16-1.55-.3-.43-.76-.65-1.37-.65-1.39,0-3.23,1.17-3.88,2.17-1.58,2.44-.84,5.94,1.65,7.8.52.39,1,.73,1.46,1.06,1.89,1.35,3.39,2.41,4.92,4.93,2.12,3.48,2.44,7.4.85,10.23-1.27,2.25-3.62,3.49-6.62,3.49-.44,0-.9-.03-1.36-.08-.44-.05-1.06-.27-1.66-.47-.56-.19-1.14-.4-1.41-.4-.19,0-.66.29-1.04.52-.33.2-.63.38-.86.47-1.36.54-2.91.8-4.73.8-.38,0-.76-.01-1.14-.03-.23-.01-.53-.08-.83-.15-.31-.07-.64-.14-.85-.14-.13.01-.42.16-.63.27-.29.15-.59.31-.8.38-1.13.37-2.78.56-4.91.56ZM7.23,32.33c-1,.02-2.52.56-2.58,1.64.17.12,2.36.34,5.21.34s5.07-.24,5.54-.62c.08-.1.11-.23.07-.44-.12-.77-.44-1.68-.75-2.56-.34-.97-.7-1.97-.79-2.8-.04-.33-.07-.67.27-.9l.03-.02h.13c.48-.01.78.78.92,1.16.34.88.55,1.79.76,2.68.18.78.37,1.58.63,2.31.98.26,2,.4,3.02.4h0c2.31,0,4.52-.7,6.23-1.98l.06-.04.07.03c1.7.74,3.31,1.12,4.76,1.12,2.57,0,4.59-1.21,5.56-3.32,1.37-2.98.38-7.07-2.5-10.41-1.13-1.31-2.15-2-3.23-2.73-.54-.37-1.1-.75-1.72-1.23-1.56-1.22-2.56-3.18-2.67-5.24-.11-1.93.55-3.7,1.85-4.97.86-.84,2.5-1.75,4.07-1.75,1.08,0,1.94.44,2.47,1.28.61.95.49,1.39.34,1.94-.06.22-.12.46-.15.77-.02.19.02.33.1.42.08.09.2.11.29.11.44,0,1.14-.46,1.25-1.17.19-1.2-.09-2.28-.8-3.12-.83-.97-2.2-1.55-3.68-1.55-.45,0-.9.05-1.33.16-2.3.55-4.15,2.19-5.07,4.5-.98,2.46-.73,5.21.66,7.35.83,1.28,1.75,1.83,2.8,2.48.47.29.96.58,1.46.96,3.15,2.35,6.61,7.73,4.91,11.74-.64,1.52-2.05,2.36-3.95,2.36-1.63,0-3.41-.66-4.55-1.69-.36-1.21-.65-2.4-.94-3.6-1.35-5.5-2.74-11.19-7.35-14.77-.43-.33-.92-.62-1.43-.93-1.08-.64-2.2-1.31-2.76-2.42-.36-.72-.59-1.43-.81-2.12-.51-1.61-.95-3-2.92-3.85-.74-.32-1.39-.47-2.05-.47-.6,0-1.22.12-1.95.39-.42.15-1.79.71-1.92,1.71-.05.35,0,.48.04.54.02.02.05.05.15.05s.23-.03.37-.06c.18-.04.39-.08.61-.08.85.02,1.51.33,2,.9,1,1.17,1.13,3.31.92,4.92-.07.52-.42,1.06-.66,1.42-.08.13-.19.29-.2.34-.02.26.19.9.39,1.51.19.59.39,1.19.44,1.59.3,2.6-1.76,3.56-3.76,4.49-.4.19-.79.31-1.16.43-.53.17-1.08.35-1.5.62-.59.38-.95,1.03-1.05,1.88-.15,1.3.34,2.93,1.16,3.87.4-.46.34-1.08.28-1.73-.07-.77-.14-1.57.55-2.14.92-.77,2.54-1.01,4.25-1.27,1.99-.3,4.04-.61,4.92-1.79.11-.14.24-.46.36-.76.25-.6.41-.96.62-1.02l.68.15c.28.39-.1,1.39-.37,1.87.02,0,.04,0,.06,0,1.27,0,2.6.4,3.74.79.43.15.98.33.87.91-.04.19-.17.41-.64.41-.54,0-1.34-.29-1.99-.53-.35-.13-.64-.24-.8-.26-.38-.06-.75-.09-1.09-.09-1.25,0-2.22.41-2.87,1.21-.95,1.17-1.21,3.21-.71,5.59.07.32.26.85.47,1.41.47,1.28,1.01,2.74.7,3.36-.18.36-.71.53-1.66.53-.57,0-1.18-.06-1.72-.11-.38-.04-.71-.07-.93-.07v-.12l-.05.13ZM5.87,5.1c-.25,0-.53.05-.83.16-.05.07-.12.58-.17.95-.05.33-.09.65-.16.84-.13.39-.35.65-.56.9-.32.39-.6.72-.54,1.47.06.66.63,1.37,1.22,1.51.15.04.33.06.53.06.82,0,2.06-.37,2.22-1.18.23-1.12.27-3.15-.55-4.15-.3-.37-.69-.55-1.16-.55Z" style="fill: #006ab7;"/>
  <path d="M8.92.25c.37,0,.71.03,1.02.09,4.06.74,4.03,4.08,5.45,6.85.79,1.55,3.2,2.49,4.57,3.63,2.78,2.32,3.92,4.73,5.13,8.06,1.17,3.22,2.11,6.53,2.59,9.93,1.02.65,2.58,1.29,3.97,1.29,1.12,0,2.13-.41,2.68-1.55,1.65-3.43-1.73-8.63-4.49-10.62-.69-.5-1.59-.86-2.3-1.37-5.89-4.25-4.4-13.77,2.59-15.79.6-.17,1.22-.26,1.82-.26,3.11,0,5.99,2.21,5.65,5.68-.15,1.54-1.44,2.43-2.52,2.43-.72,0-1.33-.4-1.43-1.27-.11-.92.74-1.5-.03-2.6-.35-.5-.88-.71-1.48-.71-1.47,0-3.34,1.23-3.99,2.23-1.69,2.61-.72,6.17,1.68,7.97,2.7,2.02,4.47,2.86,6.35,5.96,3.7,6.1,1.74,13.53-5.66,13.53-.43,0-.88-.03-1.35-.08-.85-.09-2.49-.87-3.08-.87,0,0-.01,0-.02,0-.36,0-1.41.79-1.93,1-1.51.6-3.09.8-4.69.8-.38,0-.76-.01-1.13-.03-.46-.02-1.25-.29-1.68-.29-.03,0-.05,0-.07,0-.18.02-1,.53-1.39.66-1.27.42-3.08.55-4.87.55-1.5,0-2.99-.09-4.14-.19-.84-.07-3.04-.34-2.83-1.5.25-1.38,2.34-2.61,3.68-2.61.01,0,.02,0,.04,0,.2,0,.38.16.44.16h3c.17-.17-1.01-3.24-1.13-3.78-.44-2.05-.45-4.05.25-6.04-1.53.58-4.35.3-5.56,1.4-.59.54,0,1.26,0,1.9,0,1.16-.66,2.19-1.47,2.19-.39,0-.82-.24-1.22-.81-.85-1.19-1.34-3.24-1.05-4.68.6-2.95,3.04-2.69,5.22-3.87,1.48-.8,2.34-1.26,2.17-3.07-.03-.29-.55-2.46-.64-2.58-.07-.09-.19-.12-.34-.12-.45,0-1.16.28-1.54.28,0,0-.02,0-.02,0-1.98-.07-3.24-2.38-2.41-4.17.25-.54.85-.91.98-1.51.25-1.18-.11-1.82-.1-2.73.02-2.39,3.01-3.48,5.27-3.48M4.98,4.16c.25,0,.61-.14.97-.14.01,0,.03,0,.04,0,2.77.08,3.02,3.59,2.75,5.69-.1.75-.85,1.57-.86,1.76-.03.55.74,2.31.83,3.12.29,2.53-1.75,3.46-3.74,4.39-.82.38-1.89.56-2.62,1.04-1.88,1.22-1.15,4.64.17,6.03,1.1-1.05-.33-2.92.92-3.96,1.98-1.65,7.53-.84,9.18-3.08.28-.38.64-1.66.91-1.73l.62.15c.2.32-.31,1.56-.57,1.88.1,0,.2,0,.29,0,1.23,0,2.54.39,3.69.78.36.13.88.27.79.77-.04.22-.24.31-.51.31-.81,0-2.31-.72-2.76-.79-.39-.06-.76-.09-1.1-.09-3.72,0-4.43,3.52-3.7,6.95.22,1.04,1.6,3.84,1.18,4.68-.18.36-.81.46-1.55.46-.98,0-2.13-.18-2.65-.18-.02,0-.03,0-.05,0-1.02.03-2.63.58-2.7,1.76.19.27,2.73.47,5.33.47s5.04-.18,5.62-.65c.14-.17.15-.34.12-.55-.25-1.63-1.38-3.8-1.54-5.36-.03-.3-.08-.59.21-.79.03,0,.06-.01.09-.01.41,0,.71.85.82,1.15.6,1.55.82,3.4,1.39,4.99,1.01.28,2.07.42,3.12.42,2.25,0,4.49-.65,6.31-2,1.79.78,3.41,1.13,4.81,1.13,6.59,0,8.59-7.63,3.16-13.94-1.69-1.97-3.1-2.52-4.97-3.97-3.02-2.36-3.65-7.25-.82-10.02.92-.9,2.54-1.71,3.98-1.71.94,0,1.81.34,2.37,1.22.82,1.28.27,1.53.17,2.63-.04.47.19.67.51.67.52,0,1.26-.53,1.38-1.28.48-3-1.95-4.81-4.61-4.81-.45,0-.91.05-1.36.16-5.19,1.24-7.34,7.66-4.48,12.05,1.22,1.88,2.66,2.25,4.3,3.47,3.12,2.33,6.55,7.62,4.87,11.59-.69,1.63-2.21,2.28-3.84,2.28s-3.36-.66-4.46-1.65c-1.8-6.47-2.66-13.99-8.3-18.37-1.36-1.06-3.35-1.71-4.16-3.31-1.2-2.37-.91-4.78-3.79-6.03-.75-.33-1.42-.48-2.1-.48-.64,0-1.28.14-2,.39-.79.28-1.88.89-2,1.81-.08.58.06.73.32.73M5.36,11.11c.94,0,2.17-.42,2.35-1.28.35-1.71.19-4.86-1.84-4.86-.26,0-.55.05-.88.17-.21.22-.25,1.43-.4,1.87-.33.95-1.22,1.13-1.1,2.42.06.68.64,1.46,1.31,1.62.16.04.35.06.56.06M8.92,0C6.8,0,3.42,1.01,3.4,3.73c0,.36.05.68.09.98.08.51.16,1,0,1.7-.06.29-.26.52-.48.78-.18.21-.36.42-.48.68-.44.95-.36,2.12.22,3.06.55.9,1.43,1.43,2.41,1.47,0,0,0,0,0,0,.24,0,.51-.07.8-.14.28-.07.57-.14.77-.14.11,0,.14.02.14.02.07.17.56,2.17.59,2.46.15,1.63-.58,2.03-2.03,2.82-.61.33-1.24.55-1.85.75-1.57.53-3.05,1.04-3.5,3.29-.3,1.46.18,3.61,1.09,4.88.54.76,1.07.92,1.43.92.94,0,1.71-1.09,1.72-2.44,0-.25-.07-.49-.14-.73-.14-.47-.2-.74.07-.98.68-.61,1.95-.77,3.19-.91.65-.08,1.27-.15,1.81-.29-.52,1.74-.55,3.61-.11,5.71.04.21.21.7.43,1.32.23.66.59,1.71.69,2.15h-2.7s-.02,0-.03-.01c-.1-.05-.26-.14-.45-.14h0c-1.54,0-3.69,1.33-3.96,2.82-.05.3.01.57.19.8.4.53,1.37.86,2.87.99,1.49.13,2.89.19,4.16.19,2.15,0,3.81-.19,4.95-.57.22-.07.52-.23.82-.39.19-.1.46-.24.53-.26h.04c.2,0,.51.07.82.14.3.07.61.14.85.15.38.02.77.03,1.15.03,1.84,0,3.41-.27,4.78-.81.24-.09.55-.28.88-.48.31-.19.83-.5.97-.5h0c.26,0,.83.2,1.38.39.61.21,1.23.43,1.68.48.47.05.93.08,1.37.08,3.05,0,5.44-1.26,6.73-3.55,1.61-2.87,1.29-6.83-.85-10.36-1.55-2.55-3.05-3.62-4.96-4.97-.46-.32-.94-.67-1.46-1.06-2.44-1.82-3.17-5.25-1.62-7.63.62-.96,2.45-2.12,3.78-2.12.56,0,.99.2,1.27.6.41.59.29.96.14,1.44-.1.3-.2.64-.16,1.04.11.92.75,1.49,1.68,1.49,1.21,0,2.61-1.02,2.76-2.66.15-1.54-.3-2.93-1.29-4.02-1.12-1.23-2.8-1.93-4.61-1.93-.64,0-1.28.09-1.89.27-3.28.94-5.68,3.68-6.29,7.14-.62,3.55.77,7.04,3.61,9.09.37.26.78.49,1.19.71.4.22.78.42,1.11.66,1.44,1.04,2.9,2.83,3.82,4.68,1.08,2.17,1.29,4.17.59,5.63-.45.94-1.28,1.41-2.46,1.41-1.34,0-2.79-.6-3.74-1.19-.45-3.09-1.3-6.32-2.59-9.87-1.29-3.56-2.5-5.91-5.2-8.17-.49-.41-1.08-.78-1.71-1.17-1.14-.71-2.31-1.44-2.8-2.39-.35-.67-.61-1.39-.86-2.09C13.98,2.86,13.18.67,9.99.09c-.33-.06-.68-.09-1.07-.09h0ZM4.92,3.9s-.06-.08,0-.43c.13-.93,1.44-1.47,1.84-1.61.72-.26,1.33-.38,1.91-.38.64,0,1.28.15,2,.46,1.91.83,2.34,2.2,2.85,3.78.22.69.45,1.41.82,2.14.58,1.15,1.72,1.82,2.81,2.47.51.3.99.59,1.42.92,4.57,3.55,5.96,9.22,7.3,14.7.29,1.17.58,2.38.91,3.54l.02.07.05.05c1.18,1.06,2.95,1.72,4.63,1.72,1.93,0,3.41-.89,4.07-2.44,1-2.36.2-4.9-.64-6.62-1-2.03-2.61-4-4.31-5.27-.51-.38-1-.68-1.47-.97-1.04-.64-1.95-1.19-2.76-2.44-1.37-2.11-1.62-4.81-.65-7.24.91-2.27,2.72-3.89,4.98-4.43.43-.1.87-.15,1.3-.15,1.44,0,2.78.56,3.58,1.5.69.81.96,1.85.78,3.02-.1.64-.75,1.07-1.13,1.07-.09,0-.16-.02-.2-.07-.05-.06-.08-.18-.06-.33.03-.3.09-.53.15-.75.15-.56.28-1.04-.36-2.04-.56-.88-1.45-1.34-2.58-1.34-1.6,0-3.28.92-4.16,1.78-1.32,1.3-1.99,3.1-1.88,5.07.12,2.1,1.13,4.09,2.72,5.33.62.48,1.18.86,1.73,1.23,1.12.76,2.09,1.41,3.2,2.71,2.85,3.31,3.82,7.34,2.48,10.28-.95,2.07-2.93,3.25-5.45,3.25-1.44,0-3.03-.37-4.71-1.11l-.13-.06-.12.09c-1.69,1.26-3.88,1.95-6.16,1.95-.99,0-1.97-.13-2.93-.38-.24-.71-.42-1.48-.6-2.23-.21-.89-.43-1.81-.74-2.64l-.02-.05c-.17-.44-.47-1.25-1.04-1.25-.06,0-.11,0-.17.03h-.04s-.03.03-.03.03c-.4.28-.35.68-.32.98.09.88.45,1.9.8,2.87.31.88.63,1.78.75,2.54.02.16.01.25-.05.34-.49.35-2.61.58-5.44.58s-4.6-.2-5.06-.35c.18-.87,1.5-1.36,2.44-1.38,0,0,0,0,0,0,.25,0,.58.03.95.07.52.05,1.16.11,1.74.11,1.01,0,1.57-.19,1.78-.6.31-.62-.09-1.82-.7-3.46-.2-.55-.4-1.08-.46-1.39-.49-2.34-.24-4.34.69-5.48.63-.77,1.56-1.17,2.77-1.17.33,0,.69.03,1.07.09.14.02.45.13.77.25.65.24,1.47.54,2.03.54s.72-.32.76-.51c.13-.68-.54-.91-.89-1.03l-.06-.02c-1.1-.38-2.39-.77-3.63-.8.27-.54.57-1.4.34-1.76l-.05-.08-.1-.02-.62-.15-.06-.02-.06.02c-.26.07-.42.42-.7,1.09-.12.3-.25.6-.35.74-.84,1.15-2.87,1.45-4.84,1.74-1.73.26-3.36.5-4.31,1.3-.74.62-.66,1.48-.6,2.25.05.59.1,1.11-.16,1.52-.74-.93-1.18-2.44-1.03-3.65.07-.56.29-1.33,1-1.79.41-.26.94-.44,1.47-.61.38-.12.77-.25,1.13-.42l.05-.02c1.94-.9,4.14-1.93,3.83-4.62-.05-.41-.25-1.02-.44-1.61-.19-.58-.4-1.23-.39-1.47.01-.01.1-.16.18-.27.24-.37.61-.92.68-1.47.1-.8.34-3.51-.95-5.02-.51-.6-1.2-.92-2.04-.95h0s-.05,0-.05,0c-.23,0-.44.04-.63.08-.13.03-.26.05-.34.05-.05,0-.06,0-.06,0h0ZM5.15,5.35c.26-.08.5-.13.71-.13.44,0,.79.17,1.07.51.7.86.8,2.73.53,4.05-.14.67-1.18,1.08-2.1,1.08-.19,0-.36-.02-.5-.05-.53-.13-1.07-.8-1.12-1.4-.06-.69.19-1,.51-1.38.21-.25.44-.53.58-.94.07-.2.11-.53.16-.86.04-.28.1-.72.17-.88h0Z" style="fill: #006ab7;"/>
</svg>