<?xml version="1.0" encoding="UTF-8"?>
<svg id="Capa_1" data-name="Capa 1" xmlns="http://www.w3.org/2000/svg" viewBox="0 0 184.16 176.66">
  <path d="M17.56,117.85c4.58-.47,8.66-.06,13.08,1.1,8.86,2.34,13.97,8.94,23.72,9.72,15.68,1.26,23.06-12.77,41.36-10.91,15.36,1.56,19.99,13.85,37.76,10.19,7.08-1.46,10.62-5.87,16.84-8.11,9.57-3.45,21.34-2.77,30.07,2.6,2.54,1.56,5.48,3.92,2.51,7.02s-8.16-2.05-11.9-3.13c-19.83-5.71-26.46,10.71-45.3,9.86-14.93-.68-20.77-12.19-36.41-10.99-13.01,1-18.51,12.11-34.94,10.96-16.95-1.19-25.18-17.57-44.68-8.72-2.33,1.06-4.55,4.07-7.35,2.87-2.55-1.09-2.93-4.36-1.1-6.33,2.76-2.95,12.3-5.71,16.33-6.13Z" style="fill: #006ab7;"/>
  <path d="M183.24,164.75c1.66,2,.5,5.78-2.22,6.27-1.97.35-4.53-1.99-6.44-2.85-4.36-1.95-9.1-2.83-13.9-2.56-13.43.76-19.1,12.17-35.94,10.96-14.16-1.01-20.18-12-34.94-10.96-13.69.97-18.96,12.46-36.38,10.91-16.3-1.45-21.48-15.31-40.75-9.67-2.5.73-7.33,4.15-8.77,4.24-3.45.2-4.98-4.03-3.06-6.34.61-.74,5.01-3.05,6.17-3.56,8.48-3.74,16.7-3.95,25.52-1.2,8.62,2.69,12.04,8.43,22.31,9.13,14.37.98,20.79-10.13,34.94-11.01,16.31-1.02,21.96,9.9,34.97,10.99,18.14,1.53,24.23-15.54,46.77-9.83,2.55.65,10.18,3.61,11.73,5.48Z" style="fill: #006ab7;"/>
  <path d="M46.98,94.62c-2.02,2.18-5.85.96-6.33-2.15-2.09-13.52,7.86-31.36,17.93-39.9,29.11-24.64,75.07-9.85,83.54,27.28.8,3.5,3.51,15.5-1.95,15.87-5.22.35-3.8-6.11-4.28-9.15-4.37-27.99-30.75-45.36-58.22-36.37-15.54,5.09-27.45,19.64-29.56,35.82-.29,2.26.55,6.79-1.14,8.6Z" style="fill: #006ab7;"/>
  <path d="M28.51,25.99c1.47-.32,2.37-.11,3.61.67,1.35.85,12,11.5,13,12.95,2.77,4-.69,8.39-4.47,5.96-1.62-1.04-12.78-12.23-14-13.95-1.55-2.19-.83-5.06,1.86-5.64Z" style="fill: #006ab7;"/>
  <path d="M3.06,88.38c3-.54,16.27-.58,19.32-.09,4.61.73,4.21,6.77,0,7.43-3.05.48-15.87.48-18.91,0-4.17-.66-4.77-6.54-.41-7.34Z" style="fill: #006ab7;"/>
  <path d="M161.28,88.37c2.41-.54,17.14-.46,19.74.02,4.38.79,3.75,6.68-.41,7.34-2.6.41-16.97.45-19.33-.08-3.65-.82-4.02-6.37,0-7.27Z" style="fill: #006ab7;"/>
  <path d="M153.3,25.98c3.48-.77,6.18,2.14,4.34,5.35l-14.21,14.24c-3.57,2.29-6.89-1.55-4.91-5.4.52-1,11.53-12.03,12.9-13.05.62-.46,1.04-.96,1.87-1.14Z" style="fill: #006ab7;"/>
  <path d="M91.42.03c1.2-.14,2.4.17,3.35.91.71.79.69,1.74.78,2.71.56,6.17-.45,13.2-.04,19.47-1.22,3.63-6.49,3.47-7-.46-.46-3.5-.48-16.55.06-19.95.1-.65.28-1.26.72-1.77.44-.45,1.5-.84,2.12-.91Z" style="fill: #006ab7;"/>
</svg>