<?xml version="1.0" encoding="UTF-8"?>
<svg id="Capa_1" xmlns="http://www.w3.org/2000/svg" version="1.1" viewBox="0 0 320.62 256.18">
  <!-- Generator: Adobe Illustrator 30.2.1, SVG Export Plug-In . SVG Version: 2.1.1 Build 1)  -->
  <defs>
    <style>
      .st0 {
        fill: none;
        stroke: #006ab7;
        stroke-linecap: round;
        stroke-linejoin: round;
        stroke-width: 10px;
      }
    </style>
  </defs>
  <g id="Capa_11" data-name="Capa_1">
    <g>
      <path class="st0" d="M119.62,211.76c19.6,0,19.6,9.38,39.2,9.38s19.6-9.38,39.2-9.38,19.6,9.38,39.2,9.38,19.6-9.38,39.21-9.38,19.59,9.38,39.19,9.38"/>
      <circle class="st0" cx="231.17" cy="89.43" r="46.52"/>
      <g>
        <line class="st0" x1="290.48" y1="89.43" x2="315.6" y2="89.43"/>
        <line class="st0" x1="146.73" y1="89.43" x2="171.86" y2="89.43"/>
      </g>
      <g>
        <line class="st0" x1="231.17" y1="30.12" x2="231.17" y2="5"/>
        <line class="st0" x1="231.17" y1="173.87" x2="231.17" y2="148.75"/>
      </g>
      <g>
        <line class="st0" x1="273.11" y1="47.49" x2="290.87" y2="29.73"/>
        <line class="st0" x1="171.46" y1="149.14" x2="189.23" y2="131.37"/>
      </g>
      <g>
        <line class="st0" x1="189.23" y1="47.49" x2="171.46" y2="29.73"/>
        <line class="st0" x1="290.87" y1="149.14" x2="273.11" y2="131.37"/>
      </g>
      <path class="st0" d="M21.27,251.18s-3.48-95.95,38.52-145.06"/>
      <path class="st0" d="M68.01,119.68s9.04,11.5-2.75,43.87c0,0,35.2-27.44,23.7-57.42,0,0,16.84-5.34,36.55,15.2,0,0,0-36.55-48.47-33.91,0,0,18.48-25.64,34.09-21.95,0,0-40.25-19.3-54.22,13.96,0,0-29.98-21.36-51.91.57,0,0,25.22,1.27,33.84,12.47,0,0-31.21,12.02-32.04,37.07,0,0,28.47-34.14,53.52-25.11"/>
      <path class="st0" d="M44.3,211.76c8.78,0,33.49,9.86,50.38,19.71,21.52,12.55,45.76,19.71,70.67,19.71h150.25"/>
    </g>
  </g>
</svg>