<?xml version="1.0" encoding="UTF-8"?>
<svg id="Capa_1" data-name="Capa 1" xmlns="http://www.w3.org/2000/svg" viewBox="0 0 32.74 35.03">
  <path d="M16,16.17c1.41.86,3.03,1.3,4.63,1.3,1.47,0,2.92-.37,4.18-1.1,1.76-1.03,2.78-2.63,2.73-4.24V3.19c0-1.76-1.43-3.19-3.19-3.19H3.19C1.43,0,0,1.43,0,3.19v9.6c.2,1.55,1.77,4.52,6.37,4.62,2.33.04,3.83-.71,5.04-1.32,1.52-.77,2.44-1.24,4.59.07ZM6.42,15.41c-3.75-.08-4.34-2.39-4.42-2.82V3.19c0-.66.53-1.19,1.19-1.19h21.16c.66,0,1.19.54,1.19,1.19v8.96c.03.9-.62,1.83-1.74,2.48-1.53.89-4.21,1.38-6.76-.17-1.35-.83-2.45-1.12-3.4-1.12-1.22,0-2.19.49-3.14.97-1.11.56-2.28,1.16-4.09,1.11Z" style="fill: #006ab7;"/>
  <path d="M20.86,4.73c.82-.5.07-1.8-.76-1.3-2.15,1.32-4.3,2.63-6.45,3.95-.31.19-.62.38-.93.57-.82.5-.07,1.8.76,1.29,2.15-1.32,4.3-2.63,6.45-3.95.31-.19.62-.38.93-.57Z" style="fill: #006ab7;"/>
  <path d="M17.14,10.81c-.84.48-.08,1.77.76,1.29,1.7-.96,3.41-1.93,5.11-2.89.24-.14.48-.27.72-.41.84-.48.08-1.77-.76-1.29-1.7.96-3.41,1.93-5.11,2.89-.24.14-.48.27-.72.41Z" style="fill: #006ab7;"/>
  <path d="M32.72,27.93V.12h-2v27.96s.22,2.3-1.07,3.73c-.73.81-1.85,1.22-3.33,1.22h-8c-.15,0-3.51-.23-3.66-5.72l2.12-.04c1.31-.03,2.35-1.11,2.32-2.42l-.06-2.66c-.03-1.31-1.11-2.35-2.42-2.32l-5.74.12c-1.31.03-2.35,1.11-2.32,2.42l.06,2.66c.03,1.31,1.11,2.35,2.42,2.32l1.62-.03c.06,2.57.74,4.56,2.02,5.93,1.58,1.69,3.51,1.75,3.61,1.75h8.04c2.08,0,3.7-.64,4.82-1.89,1.76-1.96,1.61-4.75,1.57-5.21ZM10.99,25.38c-.2,0-.37-.16-.38-.36l-.06-2.66c0-.2.16-.37.36-.38l5.74-.12c.2,0,.37.16.38.36l.06,2.66c0,.2-.16.37-.36.38l-5.74.12Z" style="fill: #006ab7;"/>
</svg>