<?xml version="1.0" encoding="UTF-8"?>
<svg id="Capa_1" xmlns="http://www.w3.org/2000/svg" version="1.1" viewBox="0 0 264.32 254.96">
  <!-- Generator: Adobe Illustrator 30.2.1, SVG Export Plug-In . SVG Version: 2.1.1 Build 1)  -->
  <defs>
    <style>
      .st0 {
        fill: none;
        stroke: #006ab7;
        stroke-linecap: round;
        stroke-linejoin: round;
        stroke-width: 10px;
      }
    </style>
  </defs>
  <g id="Capa_11" data-name="Capa_1">
    <g>
      <g>
        <path class="st0" d="M194.52,190.25c35.79,0,64.8-29.01,64.8-64.8h0c0-35.79-29.01-64.8-64.8-64.8h-124.72c-35.79,0-64.8,29.01-64.8,64.8h0c0,35.79,29.01,64.8,64.8,64.8h18.48c12.12,0,21.94-9.82,21.94-21.94v-3.66c0-12.12,9.82-21.94,21.94-21.94h0c12.12,0,21.94,9.82,21.94,21.94v3.66c0,12.12,9.82,21.94,21.94,21.94"/>
        <line class="st0" x1="229.17" y1="50.39" x2="229.17" y2="5"/>
        <path class="st0" d="M229.17,180.19h0c0,28.44-23.05,51.49-51.49,51.49h-27.24"/>
        <line class="st0" x1="113.37" y1="231.48" x2="95.5" y2="231.48"/>
        <circle class="st0" cx="132.16" cy="231.68" r="18.28"/>
      </g>
      <g>
        <line class="st0" x1="174.89" y1="124.03" x2="214.8" y2="163.93"/>
        <line class="st0" x1="168.41" y1="86.96" x2="208.32" y2="126.87"/>
      </g>
      <g>
        <line class="st0" x1="50.26" y1="124.03" x2="90.17" y2="163.93"/>
        <line class="st0" x1="43.78" y1="86.96" x2="83.68" y2="126.87"/>
      </g>
    </g>
  </g>
</svg>