<?xml version="1.0" encoding="UTF-8"?>
<svg id="Capa_1" xmlns="http://www.w3.org/2000/svg" version="1.1" viewBox="0 0 364.83 187.5">
  <!-- Generator: Adobe Illustrator 30.2.1, SVG Export Plug-In . SVG Version: 2.1.1 Build 1)  -->
  <defs>
    <style>
      .st0 {
        stroke-width: 9.87px;
      }

      .st0, .st1, .st2 {
        fill: none;
        stroke: #54c0e8;
        stroke-linecap: round;
        stroke-linejoin: round;
      }

      .st1 {
        stroke-width: 9.87px;
      }

      .st2 {
        stroke-width: 8.96px;
      }
    </style>
  </defs>
  <g id="Capa_11" data-name="Capa_1">
    <g>
      <path class="st2" d="M8.16,151.48c17.2,0,17.2,8.23,34.4,8.23s17.2-8.23,34.4-8.23,17.2,8.23,34.41,8.23,17.21-8.23,34.41-8.23,17.2,8.23,34.4,8.23,17.21-8.23,34.43-8.23,17.22,8.23,34.45,8.23,17.22-8.23,34.45-8.23"/>
      <path class="st2" d="M45.54,183.02c17.2,0,17.2-8.23,34.4-8.23s17.2,8.23,34.4,8.23,17.2-8.23,34.41-8.23,17.21,8.23,34.41,8.23,17.2-8.23,34.4-8.23,17.21,8.23,34.43,8.23,17.22-8.23,34.45-8.23,17.22,8.23,34.45,8.23"/>
    </g>
    <g>
      <path class="st0" d="M298.55,143.35c24.64-12.42,49.39-34.25,61.18-72.62.82-2.67-1.38-5.31-4.16-5.1L8.2,92.08c-2.13.16-3.63,2.17-3.18,4.25l8.53,39.74"/>
      <line class="st0" x1="250.74" y1="27.59" x2="278.08" y2="71.58"/>
      <line class="st0" x1="123.56" y1="83.3" x2="128.28" y2="33.24"/>
      <path class="st1" d="M131.97,10.19l114.78-5.23c9.54-.43,17.64,6.95,18.08,16.5l.17,3.82c.04.81-.59,1.49-1.39,1.52l-146.43,6.67c-.81.04-1.49-.59-1.52-1.39l-.17-3.82c-.43-9.54,6.95-17.64,16.5-18.08h-.02Z"/>
      <line class="st0" x1="38.3" y1="89.78" x2="36.52" y2="67.49"/>
      <line class="st0" x1="77.75" y1="86.78" x2="76.56" y2="64.26"/>
      <path class="st0" d="M97.11,62.41h0c-28.29,2.39-56.57,4.78-84.86,7.16"/>
      <line class="st0" x1="190.06" y1="30.13" x2="195.04" y2="77.86"/>
      <line class="st0" x1="9.14" y1="114.72" x2="351.93" y2="90.49"/>
    </g>
  </g>
</svg>