<?xml version="1.0" encoding="UTF-8"?>
<svg id="Capa_1" data-name="Capa 1" xmlns="http://www.w3.org/2000/svg" viewBox="0 0 66.38 29.82">
  <path d="M1.52,17.42l1.86,8.64c.33,1.52,1.66,2.6,3.22,2.61l35.69.15s18.05.31,23.06-16.01c.15-.48-.25-.96-.75-.92L2.09,16.65c-.38.03-.65.39-.57.77Z" style="fill: none; stroke: #54c0e8; stroke-miterlimit: 10; stroke-width: 2px;"/>
  <polyline points="22.84 15.16 23.7 6.06 45.74 5.05 50.66 12.96" style="fill: none; stroke: #54c0e8; stroke-miterlimit: 10; stroke-width: 2px;"/>
  <path d="M24.45,1.44h20.68c1.72,0,3.11,1.4,3.11,3.11v.69c0,.15-.12.26-.26.26h-26.38c-.15,0-.26-.12-.26-.26v-.69c0-1.72,1.4-3.11,3.11-3.11Z" transform="translate(-.12 1.47) rotate(-2.41)" style="fill: none; stroke: #54c0e8; stroke-miterlimit: 10; stroke-width: 2px;"/>
  <line x1="7.49" y1="16.33" x2="7.17" y2="12.32" style="fill: none; stroke: #54c0e8; stroke-miterlimit: 10; stroke-width: 2px;"/>
  <line x1="14.61" y1="15.96" x2="14.39" y2="11.79" style="fill: none; stroke: #54c0e8; stroke-miterlimit: 10; stroke-width: 2px;"/>
  <path d="M18.19,10.63c-5.1.34-10.19.69-15.29,1.03-.73.05-1.47.1-2.2.15-.93.06-.94,1.52,0,1.46,5.1-.34,10.19-.69,15.29-1.03l2.2-.15c.93-.06.94-1.52,0-1.46h0Z" style="fill: #54c0e8;"/>
  <line x1="34.83" y1="5.58" x2="35.74" y2="14.3" style="fill: none; stroke: #54c0e8; stroke-miterlimit: 10; stroke-width: 2px;"/>
  <line x1="1.93" y1="20.77" x2="63.6" y2="16.39" style="fill: none; stroke: #54c0e8; stroke-miterlimit: 10; stroke-width: 2px;"/>
</svg>