<?xml version="1.0" encoding="UTF-8"?>
<svg id="Capa_1" xmlns="http://www.w3.org/2000/svg" version="1.1" viewBox="0 0 240.41 238.06">
  <!-- Generator: Adobe Illustrator 30.2.1, SVG Export Plug-In . SVG Version: 2.1.1 Build 1)  -->
  <defs>
    <style>
      .st0 {
        fill: none;
        stroke: #54c0e8;
        stroke-linecap: round;
        stroke-linejoin: round;
        stroke-width: 10px;
      }

      .st1 {
        fill: #54c0e8;
      }
    </style>
  </defs>
  <g id="Capa_11" data-name="Capa_1">
    <g>
      <path class="st0" d="M232.48,190.48c1.55,2.89,2.52,6.01,2.83,9.36.96,10.07-5.36,17.09-14.78,21.98-22.78,11.83-63.68,11.23-63.68,11.23,0,0-70.01.89-77.91-25.51-.71-2.34-.91-4.9-.54-7.7.41-3.13,1.38-6.04,2.84-8.77"/>
      <path class="st0" d="M232.77,169.73c-2.27,3.77-5.9,6.88-10.34,9.46-4.18,2.42-9.1,4.36-14.33,5.93-22.68,6.76-51.25,6.35-51.25,6.35,0,0-2.59.04-6.82-.11-1.3-.04-2.74-.09-4.32-.18-14.25-.71-38.96-3.16-54.19-11.62-4.55-2.5-8.23-5.55-10.55-9.23-2.18-3.44-3.29-7.46-2.56-12.08,4.99-32.1,45.75-47.53,84.46-46.58,22.95.55,45.19,6.86,58.84,18.86,8.19,7.2,13.29,16.44,13.6,27.72.13,4.39-.53,8.18-2.53,11.48h-.01Z"/>
      <path class="st0" d="M167.62,211.5c-6.53.32-10.78.26-10.78.26,0,0-22.33.28-43.17-4.23-13.68-2.95-26.73-7.97-32.43-16.47-2.38-3.54-3.49-7.67-2.84-12.51.39-2.92,1.25-5.66,2.56-8.22,2.33,3.68,6.01,6.73,10.55,9.23,15.23,8.45,39.94,10.91,54.19,11.62l3.78,3.51,18.15,16.81h0Z"/>
      <path class="st0" d="M232.48,190.47c-7.47,11.69-28.06,16.97-45.87,19.35l21.48-24.71c5.23-1.57,10.15-3.51,14.33-5.93,4.45-2.57,8.08-5.69,10.34-9.46,1.37,2.74,2.24,5.68,2.54,8.82.44,4.57-.64,8.52-2.82,11.92h0Z"/>
      <path class="st0" d="M208.09,185.11l-21.48,24.71-.6.69c-4.75,5.46-13.09,5.91-18.39.98h0l-21.91-20.32c6.73.34,11.13.28,11.13.28,0,0,28.57.41,51.25-6.35h0Z"/>
      <g>
        <circle class="st1" cx="135.3" cy="135.81" r="4.23"/>
        <circle class="st1" cx="178.19" cy="135.81" r="4.23"/>
      </g>
      <circle class="st1" cx="156.74" cy="169.73" r="4.23"/>
      <g>
        <circle class="st1" cx="110.76" cy="155.19" r="4.23"/>
        <circle class="st1" cx="202.73" cy="155.19" r="4.23"/>
      </g>
      <path class="st0" d="M61.69,207.54H28.6L5,60.99c5.23,4.72,10.86,9.01,16.85,12.8,11.94,7.57,25.27,13.14,39.5,16.26,3,.66,6.04,1.22,9.11,1.64,5.74.81,11.59,1.24,17.54,1.24s11.81-.43,17.54-1.24c3.07-.43,6.12-.98,9.11-1.64,14.24-3.12,27.57-8.69,39.5-16.26,5.99-3.79,11.62-8.08,16.85-12.8l-5.66,35.15"/>
      <path class="st0" d="M70.46,75.56V8.54c0-1.96,1.59-3.54,3.54-3.54h28c1.96,0,3.54,1.59,3.54,3.54v67.02"/>
      <path class="st0" d="M118.5,72.58l10.1-45.94c.42-1.91,2.31-3.12,4.22-2.7l27.35,6.01c1.91.42,3.12,2.31,2.7,4.22l-4.27,19.42"/>
      <path class="st0" d="M57.5,72.58l-10.1-45.94c-.42-1.91-2.31-3.12-4.22-2.7l-27.35,6.01c-1.91.42-3.12,2.31-2.7,4.22l4.27,19.42"/>
    </g>
  </g>
</svg>