<?xml version="1.0" encoding="UTF-8"?>
<svg id="Capa_1" xmlns="http://www.w3.org/2000/svg" version="1.1" viewBox="0 0 284.24 243.54">
  <!-- Generator: Adobe Illustrator 30.2.1, SVG Export Plug-In . SVG Version: 2.1.1 Build 1)  -->
  <defs>
    <style>
      .st0 {
        fill: none;
        stroke: #54c0e8;
        stroke-linecap: round;
        stroke-linejoin: round;
        stroke-width: 9.87px;
      }
    </style>
  </defs>
  <g id="Capa_11" data-name="Capa_1">
    <line class="st0" x1="41.88" y1="122.39" x2="242.35" y2="122.39"/>
    <line class="st0" x1="142.12" y1="29.35" x2="142.12" y2="120.92"/>
    <path class="st0" d="M242.85,216.7H41.61c-6.89,0-12.47-5.45-12.47-12.16s5.58-12.16,12.47-12.16h201.24c16.25.06,16.36,24.25,0,24.32Z"/>
    <path class="st0" d="M242.71,192.36H41.53V19.93c0-8.28,6.72-15,15-15h171.18c8.28,0,15,6.72,15,15v172.43h0Z"/>
    <g>
      <polyline class="st0" points="14.65 55.37 14.65 29.35 269.59 29.35 269.59 55.37"/>
      <rect class="st0" x="4.93" y="55.37" width="22.2" height="43.7"/>
      <rect class="st0" x="257.1" y="55.36" width="22.2" height="43.7"/>
    </g>
    <g>
      <path class="st0" d="M80.59,238.48c-20.78-.32-29.69,4.26-27.73-21.79h37.73c.03,8.17,1.92,21.62-10,21.79Z"/>
      <path class="st0" d="M203.91,238.48h17.73c5.52,0,10-4.48,10-10v-11.79h-37.74v11.79c0,5.52,4.48,10,10,10h.01Z"/>
    </g>
    <g>
      <path class="st0" d="M86.16,155.43c-.09,19.23-29.33,19.23-29.41,0,.09-19.23,29.33-19.23,29.41,0Z"/>
      <circle class="st0" cx="212.78" cy="155.43" r="14.71"/>
    </g>
    <line class="st0" x1="115.04" y1="157.18" x2="169.19" y2="157.18"/>
  </g>
</svg>