<?xml version="1.0" encoding="UTF-8"?>
<svg id="Capa_1" xmlns="http://www.w3.org/2000/svg" version="1.1" viewBox="0 0 214.31 247.59">
  <!-- Generator: Adobe Illustrator 30.2.1, SVG Export Plug-In . SVG Version: 2.1.1 Build 1)  -->
  <defs>
    <style>
      .st0 {
        stroke-width: 9.86px;
      }

      .st0, .st1, .st2 {
        fill: none;
        stroke: #54c0e8;
        stroke-linecap: round;
        stroke-linejoin: round;
      }

      .st1 {
        stroke-width: 10px;
      }

      .st2 {
        stroke-width: 10px;
      }
    </style>
  </defs>
  <g id="Capa_11" data-name="Capa_1">
    <path class="st1" d="M60.43,72.55c-1.26,25.64,20.81,46.49,46.49,46.49s46.49-20.81,46.49-46.49c0-6.54-.93-12.55-4.06-18.44-2.76-5.19-6.79-9.71-11.52-13.18-2.12-1.55-4.81-3.57-7.39-4.22-1.99-.5-3.79.6-5.12,1.99-1.54,1.61-2.56,2.9-4.81,3.67-3.26,1.11-6.84,1.31-10.25,1.46-5.12.23-10.24,0-15.35-.41-2.28-.18-4.59-.56-6.88-.53-2.45.03-4.94.49-7.29,1.16-9.17,2.59-15.95,9.41-18.68,18.54-.97,3.23-1.45,6.6-1.62,9.96h0Z"/>
    <path class="st1" d="M60.45,71.83c1.42-13.63-.8-25.24-5.34-38.17,6.22-7.53,13.79-14.28,22.08-19.44,8.29-5.16,17.75-8.61,27.5-9.16,4.85-.27,10.02.27,13.93,3.15,4.4,3.24,6.59,8.97,11.26,11.82,3.71,2.26,8.35,2.3,12.32,4.07,4.56,2.03,7.88,6.25,9.7,10.9s3.43,10.17,3.47,15.15c.06,8.47.22,17.58-1.98,25.76"/>
    <path class="st1" d="M153.1,148.39h4.34c5.65,0,11.08.79,16.15,2.25"/>
    <path class="st1" d="M40.82,150.8c5.21-1.56,10.82-2.41,16.67-2.41h4.12"/>
    <path class="st1" d="M201.33,170.44h0c3.85,5.98,6.03,12.82,6.03,20.08v52.07H7.57v-52.07c0-7.06,2.06-13.71,5.7-19.56"/>
    <polygon class="st1" points="106.26 164.43 75.87 125.9 63.16 136.68 79.19 184.85 106.26 164.43"/>
    <line class="st1" x1="107.47" y1="162.23" x2="107.47" y2="241.93"/>
    <line class="st1" x1="136.2" y1="199.66" x2="159.98" y2="199.66"/>
    <line class="st1" x1="194.62" y1="148.15" x2="184.96" y2="164.88"/>
    <line class="st1" x1="47.55" y1="218.81" x2="47.55" y2="242.59"/>
    <polygon class="st1" points="108.68 164.43 139.06 125.9 151.77 136.68 135.74 184.85 108.68 164.43"/>
    <line class="st1" x1="167.38" y1="218.81" x2="167.38" y2="242.59"/>
    <line class="st0" x1="131.81" y1="111.83" x2="131.8" y2="134.69"/>
    <line class="st0" x1="83.25" y1="112.73" x2="83.25" y2="135.22"/>
    <line class="st1" x1="19.7" y1="148.15" x2="29.36" y2="164.88"/>
    <rect class="st2" x="180.13" y="139.56" width="19.32" height="33.93" transform="translate(-40.66 242.63) rotate(-60)"/>
    <rect class="st2" x="7.56" y="146.86" width="33.93" height="19.32" transform="translate(-74.97 33.23) rotate(-30)"/>
  </g>
</svg>