<?xml version="1.0" encoding="UTF-8"?>
<svg id="Capa_1" data-name="Capa 1" xmlns="http://www.w3.org/2000/svg" viewBox="0 0 42.72 50.37">
  <path d="M0,38.36c.07-.56.48-1.7.7-2.28.14-.36.79-1.38.79-1.53,0-.93-2.16-1.78-.22-3.2.62-.45,4.61-2.78,5.13-2.84,1.49-.16,1.14,1.19,1.98,1.32.43.07.87-.17,1.31-.18,1.95-.04,3.91.07,5.86-.02l.53-2.34c-1.86-1.33-2.9-3.63-3.01-5.89-3.52-.88-4.06-5.09-2.2-7.8.34-.49.82-.57.91-1.24.33-2.49-.96-2.51-1.39-4.26-.75-3.08,2.96-4.9,5.24-6.13,5.09-2.74,6.79-2.59,11.78.2,2.55,1.42,6.31,3.23,4.59,6.74-.28.57-1.24,1.39-1.32,1.66-.09.3-.09,1.45-.04,1.8.08.6.88,1.17,1.24,1.75,1.68,2.7,1.22,6.44-2.2,7.3-.09,2.28-1.25,4.46-2.99,5.89l.5,2.36c1.95.07,3.92-.03,5.87,0,.44,0,.88.24,1.31.18.9-.14.5-1.88,2.5-1.17.78.28,3.85,2.14,4.6,2.68,1.94,1.42-.22,2.27-.22,3.2,0,.15.65,1.17.79,1.53.16.43.7,1.94.7,2.28v11.76l-.25.25H.25l-.25-.25v-11.76ZM21.17,1.22c-1.91.05-3.86,1.23-5.49,2.15-2.23,1.26-5.79,2.82-3.36,5.78l18.15-.09c1.35-1.85.79-3.02-.95-4.2-1.99-1.35-5.98-3.7-8.36-3.63ZM29.48,10.62H12.92v1.99h16.31c.49-.48.16-1.35.25-1.99ZM13.08,20.06v-5.55c0-.09-.29-.5-.44-.56-.68-.22-1.12.8-1.29,1.31-.59,1.75-.38,4.32,1.73,4.8ZM28.15,13.93h-13.91c.19.67.86,2.35,1.58,2.48,3.29-.24,7.05.33,10.27.01,1.3-.13,1.47-1.53,2.06-2.49ZM29.64,20.06c1.25-.19,2-1.54,2-2.73,0-1.11-.71-3.29-2-3.4v6.13ZM28.48,21.96c.19-1.49,0-3.72,0-5.3,0-.03-.26-.29-.33-.25-.26.91-1.19,1.25-2.07,1.33-2.4.21-7.58.25-9.94,0-.59-.06-1.19-.28-1.57-.75l-.33.17v4.8c0,.91,1.31,3.3,1.98,3.98,3.99,4.03,11.54,1.71,12.26-3.98ZM25.67,28.17c-1.87.75-3.47,1.2-5.53.97-1.1-.12-1.98-.76-3.08-.81.08,1.08-.64,1.38.08,2.32.99,1.3,2.76,2.5,3.8,3.81.26.23.59.23.85,0,.63-.9,4.16-3.72,4.19-4.55.02-.49-.38-1.2-.31-1.75ZM5.82,30.02c-.13.22.78,2.4,1.56,1.81.57-.43-.52-1.63-.75-2.09-.1-.16-.78.25-.81.29ZM36.9,30.02l-.81-.29c-2.11,2.66.22,3.12.81.29ZM4.8,30.82l-1.14.58,1.22,1.89.9-.73-.98-1.74ZM37.14,32.93c.1.1.67.36.79.3l1.08-1.92-1.09-.49c.01.62-1.27,1.63-.79,2.11ZM15.24,30.99h-6.29c.03.71.08,1.24-.5,1.73-.34.29-4.79,2.83-5.18,2.95s-.9-.01-1.04.1c-.29.25-1.07,2.53-1.07,2.92v6.29l.25.25h4.47l.25-.25v-3.31c0-.06.18-.26.18-.4.26-.17.98.19.98.4v7.29l.25.25h10.1s.39-.17.42-.28c.02-.65-.05-1.31,0-1.95.14-2.08.43-4.2.51-6.29.04-1.3-.61-1.36-1.09-2.41-.52.01-3.98,2.45-4.23,1.39l2-8.67ZM33.78,30.99h-6.29l2,8.67c-.23.98-3.68-1.23-4.23-1.39l-1.05,1.45.46,9.21c.03.11.37.28.42.28h10.1l.25-.25v-7.29c0-.21.72-.56.98-.4,0,.14.18.34.18.4v3.31l.25.25h4.47l.25-.25v-6.29c0-.1-.45-1.56-.53-1.78s-.49-1.13-.62-1.2c-.06-.03-.55.09-.95-.04-.37-.11-4.85-2.67-5.18-2.95-.58-.5-.54-1.02-.5-1.73ZM14.9,38.11l5.3-2.57-3.73-3.89-1.57,6.46ZM27.82,38.11l-1.57-6.46-3.73,3.89,5.3,2.57ZM1.83,32.33l.98,2.07c1.63-.32.05-1.52-.17-2.41l-.81.34ZM40.89,32.33l-.81-.34c-.05.52-1.19,1.64-.85,2.08l.68.33.98-2.07ZM19.09,38.72c1.34,1.44,4.25.97,5.07-.86-.02-.2-2.49-1.42-2.87-1.4-.29.02-2.59,1.13-2.67,1.32.09.24.33.79.48.94ZM19.21,49.04h4.31l-.5-8.45c-1.06.22-2.17.27-3.23,0l-.58,8.45ZM1.16,46.39v2.57c.15.24.33.23.57.26.47.06,4.07.04,4.24-.08.22-.73.35-2.08-.09-2.74H1.16ZM41.57,46.39h-4.72c-.44.66-.32,2.02-.09,2.74.17.12,3.77.14,4.24.08.24-.03.43-.02.57-.26v-2.57Z" style="fill: #54c0e8;"/>
  <path d="M22.02,5.32v1.16c.73.01.77-1.43,1.59-.84,1,.82-1.21,2.45-2.18,2.49-1.12.05-3.63-1.81-1.97-2.65l1.24,1v-1.16c-.42.07-1.16-.03-1.16-.58,0-.65,1.17-.57,1.16-.83-2.2-1.38,1.49-1.91,1.91-1.08.32.63-.17.76-.58,1.08-.01.26,1.33.19,1.14.96-.21.49-.68.47-1.14.45Z" style="fill: #54c0e8;"/>
  <path d="M19.5,20.93c.17-.05,3.4-.07,3.6-.03.48.09,1.16.81,1.66.81s1.12-.81,1.66-.16c.24,1.86-2.05,3.42-3.81,3.14-.48-.08-.84-.52-1.32-.48-.37.02-.69.38-1.04.46-1.36.29-3.16-.57-3.72-1.84-1.12-2.52.98-1.05,1.56-1.13.45-.07,1.04-.66,1.4-.76ZM18.22,23.2c.8.46,2.91.47,2.46-.88-.29-.88-1.9.61-2.47.39v.49ZM24.51,23.2c.25-.33-1.72-1.19-2.07-1.16-.8.06-.55,1.52.81,1.48.4-.01.85-.29,1.26-.32Z" style="fill: #54c0e8;"/>
</svg>