<?xml version="1.0" encoding="UTF-8"?>
<svg id="Capa_1" data-name="Capa 1" xmlns="http://www.w3.org/2000/svg" viewBox="0 0 49.34 46.28">
  <path d="M26.12,23.11h-11.75c-.15,0-.53-.61-.52-.86,0-.72.77-3.14,1.01-4,1.7-5.98,5.52-14.34,10.96-17.73.61-.38,1.2-.84,1.78-.19l.15,24.16c-.68,2.2-2.06.09-1.62-1.38ZM26.12,2.36c-.28-.07-.32.12-.49.24-.8.61-2.02,1.88-2.68,2.67-.56.67-1.36,1.61-1.54,2.43h4.7V2.36ZM26.12,9.33h-6l-1.3,2.92h7.29v-2.92ZM26.12,13.87h-8.11c-.31,1.02-.91,2-.97,3.08h9.08v-3.08ZM16.64,18.41c-.3,0-1.26,3.24-.65,3.24h9.89l.24-.24v-2.75l-.24-.24h-9.24Z" style="fill: #54c0e8;"/>
  <path d="M9.05,38.71c.27.22.49.82.96,1.06,1.91.98,2.23-1.58,3.35-1.25.36.1.69,1.12,1.57,1.36,1.77.48,1.98-1.43,2.83-1.38s.94,1.48,2.28,1.48c1.37,0,1.51-1.58,2.43-1.48.64.07.89,1.53,2.27,1.47,1.29-.05,1.47-1.48,2.26-1.47s.95,1.47,2.28,1.47,1.49-1.58,2.43-1.48c.54.06.91,1.53,2.27,1.47,1.27-.05,1.57-1.51,2.26-1.47.85.05.94,1.47,2.28,1.47s1.51-1.58,2.43-1.48c.64.07.89,1.53,2.27,1.47,1.29-.05,1.47-1.48,2.26-1.47.69.01.97,1.15,1.71,1.38.67.22,1.67-.34,2.04.4.84,1.7-3.07,1.56-3.73.36-1.61,1.22-3.11,1.28-4.7,0-1.42,1.35-3.23,1.15-4.68-.03-1.36,1.41-3.13,1.21-4.54,0-1.29,1.28-3.25,1.29-4.56.03-1.61,1.22-3.11,1.28-4.7,0-1.42,1.35-3.23,1.15-4.68-.03-1.36,1.41-3.13,1.21-4.54,0-1.29,1.28-3.25,1.29-4.56.03-1.63,1.25-3.08,1.25-4.7,0-.6.93-3.64,1.44-3.81.19-.2-1.41,1.53-.72,2.23-1.01s1.02-1.69,1.98-1.26c.52.24.65,1.34,1.87,1.39,1.52.06,1.84-2.17,2.95-1.26Z" style="fill: #54c0e8;"/>
  <path d="M42.33,33.15H13.07c-1.53,0-4.14,1.65-5.08,2.86-.45.58-1.18,2.44-1.74,2.49-1.57-.26-.53-1.84-.04-2.65,1.8-2.98,4.96-4.16,8.31-4.33,9.35-.49,19.13.37,28.53.02.41.08.81.28.9.72.12.63.12,4.86,0,5.5-.22,1.16-1.62.61-1.62.17v-4.78Z" style="fill: #54c0e8;"/>
  <path d="M8.4,43.07c.86-.08,1.53,2.53,3.45,1.18.5-.35.63-1.14,1.36-1.17.75.07,1.26,2.32,3.01,1.33.58-.33.76-1.13,1.42-1.33.73-.07,1.11,1.56,2.41,1.56,1.27,0,1.56-1.49,2.29-1.56.66-.06,1.06,1.35,2,1.52,1.55.29,1.91-1.6,2.66-1.52.85.08,1.44,2.51,3.34,1.17.5-.35.63-1.14,1.36-1.17.76.07,1.33,2.43,3.11,1.26.52-.34.71-1.09,1.32-1.26.73-.07,1.11,1.56,2.41,1.56,1.28,0,1.63-1.63,2.41-1.56.51.05.89,1.04,1.42,1.33s2.32.45,1.36,1.54c-.85.97-2.44-.65-2.88-.61s-1.42,1.01-2.44.94c-.73-.05-2-.97-2.12-.97-.19,0-.93.55-1.27.68-1.38.53-2.27.07-3.43-.69-1.34.95-2.1,1.19-3.65.57-.3-.12-.68-.52-.92-.54-.22-.02-1.51.95-2.39.93-.76-.02-2.07-.95-2.26-.93-.37.03-1.41.95-2.3.95s-2.1-.98-2.27-.98c-.19,0-.93.55-1.27.68-1.38.53-2.27.07-3.43-.69-1.34.95-2.1,1.19-3.65.57-.3-.12-.68-.52-.92-.54-.45-.04-2.18,1.69-2.95.52s.98-1.19,1.53-1.52c.46-.28.8-1.22,1.32-1.27Z" style="fill: #54c0e8;"/>
  <path d="M35.99,30.7l-1.05-.12c-.58-.45.35-1.93-1.28-2.13-4.18-.49-9.33.36-13.61.02l-.59.25-.47,1.92c-2.4.53-1.26-3.53.58-3.64l15.26.12c1.38.65,1.63,2.22,1.16,3.58Z" style="fill: #54c0e8;"/>
  <path d="M19.51,36.03c-.19-.19-.24-.71-.18-.99.19-.58,2.92-.84,3.03.32s-2.47,1.05-2.84.67Z" style="fill: #54c0e8;"/>
  <path d="M25.67,36.03c-.19-.19-.24-.71-.18-.99.19-.58,2.92-.84,3.03.32s-2.47,1.05-2.84.67Z" style="fill: #54c0e8;"/>
  <path d="M31.83,36.03c-.19-.19-.24-.71-.18-.99.19-.58,2.92-.84,3.03.32s-2.47,1.05-2.84.67Z" style="fill: #54c0e8;"/>
</svg>