<?xml version="1.0" encoding="UTF-8"?>
<svg id="Capa_1" xmlns="http://www.w3.org/2000/svg" version="1.1" viewBox="0 0 232.11 227.32">
  <!-- Generator: Adobe Illustrator 30.2.1, SVG Export Plug-In . SVG Version: 2.1.1 Build 1)  -->
  <defs>
    <style>
      .st0 {
        fill: none;
        stroke: #54c0e8;
        stroke-linecap: round;
        stroke-linejoin: round;
        stroke-width: 9.87px;
      }
    </style>
  </defs>
  <g id="Capa_11" data-name="Capa_1">
    <line class="st0" x1="5.64" y1="222.39" x2="227.17" y2="222.39"/>
    <path class="st0" d="M163.25,49.59L6.46,92.37C-1.95,57.39,25.13,20.07,67.78,8.42h.02c42.64-11.62,84.92,6.76,95.44,41.17h.01Z"/>
    <g>
      <path class="st0" d="M54.51,79.26c-6.97-27.62-1.2-54.58,13.29-70.83h0s0-.01,0-.01"/>
      <path class="st0" d="M67.78,8.43h0c20.71,6.64,39.39,26.94,47.41,54.27"/>
    </g>
    <line class="st0" x1="84.86" y1="70.98" x2="105.63" y2="147.13"/>
    <path class="st0" d="M45.93,174.53l-16.96-21.16-15.32-19.12c-4.32-5.39-3.45-13.26,1.94-17.57,5.39-4.32,13.25-3.45,17.57,1.94l32.28,40.28c3.34,4.17,8.32,6.56,13.66,6.56h84.07c13.6,0,26.74,4.91,37.01,13.81l17.4,15.09c5.22,4.52,5.78,12.41,1.26,17.63-2.48,2.85-5.95,4.31-9.45,4.31-2.9,0-5.82-1-8.19-3.05l-17.39-15.09c-5.73-4.96-13.06-7.7-20.64-7.7h-84.07l-29.74,29.74"/>
    <line class="st0" x1="175.64" y1="222.28" x2="144.55" y2="191.19"/>
  </g>
</svg>