<?xml version="1.0" encoding="UTF-8"?>
<svg id="Capa_1" data-name="Capa 1" xmlns="http://www.w3.org/2000/svg" viewBox="0 0 45.95 45.61">
  <path d="M.52,45.48l-.35-.41c-.1-.3.03-.6.17-.78.14-.19.32-.3.49-.3h12.28l.16-.21-.04-4.86c-4.08-.41-5.87-3.38-7.77-6.51l.05-.16-.11.06c-2.81-4.65-4.3-7.35-4.41-8.05-.16-1,.1-1.96.73-2.7.63-.73,1.53-1.16,2.47-1.16.67,0,1.34.22,1.92.64,1.12.8,2.44,3.34,3.72,5.8.93,1.79,1.81,3.47,2.55,4.4.35.43,1.4,1.3,1.88,1.3h6.39l-4.91-18.1-.46-.04c-1.92.45-3.95,1.05-5.91,1.64-2.39.71-4.86,1.45-7.26,1.93l-.1.02c-.19.04-.5.11-.78.11-.55,0-.63-.28-.63-.45,0-.27,0-.57-.02-.86-.02-.62-.04-1.25.02-1.8.38-3.93,2.71-8.23,5.94-10.95C9.6,1.48,13.29.13,17.25.13c6.31,0,12.02,3.46,14.93,9.04l.03.05-.27.65-14.58,4.22,4.9,18.44,11.59.02c1.64.18,8.79,4.28,10.33,5.37,1.61,1.14,2.04,2.62,1.24,4.28-.54,1.12-1.17,1.33-2.23,1.68-.1.03-.16.04-.23.04,0,0-.12,0-.13,0,0,0,0,.02,0,.08h2.3c.17,0,.34.11.49.3.13.18.27.48.19.74l-.37.45H.52ZM33.55,43.87l.21.16,7.97-.03-8.18-4.48v4.35ZM30.51,43.98c.13,0,.27.01.41.02.14.01.28.02.41.02.34,0,.53-.07.65-.25.06-.22.08-3.96,0-4.36-.05-.27-.47-.36-.85-.36-.48,0-.85.14-.88.22l.15,4.72s.07,0,.11,0ZM28.66,43.99v-4.89h-4.53l1.26,4.89h3.26ZM23.65,43.99c-.31-1.53-.71-3.29-1.34-4.89h-4.19v4.89h5.53ZM14.8,43.98l1.67-.14v-4.6l-1.67-.13v4.87ZM30.2,37.28c1.08,0,2.05.03,2.98.08,1.46.46,2.99,1.49,4.48,2.48,1.49,1,2.89,1.94,4.18,2.34.22.07.44.1.65.1.71,0,1.31-.4,1.53-1.01.23-.66-.04-1.38-.72-1.94-1.15-.93-7.75-4.68-8.9-4.97-.53-.14-1-.22-1.38-.25-1.1-.09-2.3-.13-3.67-.13-1.82,0-3.71.08-5.54.15-1.83.07-3.72.15-5.54.15-1.5,0-2.82-.05-4.01-.16-1.16-.1-2.42-.85-3.22-1.89-1.08-1.41-1.98-3.19-2.86-4.91-.86-1.69-1.75-3.44-2.81-4.85-.35-.3-.73-.46-1.14-.46-.11,0-.22.01-.34.03-.51.1-.91.4-1.13.84-.25.51-.22,1.15.06,1.71.81,1.04,1.62,2.58,2.47,4.2,2.01,3.8,4.28,8.11,7.69,8.54,1.58.2,3.35.29,5.38.29s3.98-.09,5.94-.17c1.95-.08,3.96-.17,5.91-.17ZM10.17,3.69c-4.47,2.12-7.72,7.22-7.97,12.55l7.63-2.08c-.27-3.27-.57-6.96.35-10.47ZM13.79,2.31c-1,0-1.76.95-2.26,2.82-.71,2.69-.37,5.84-.06,8.64l9.19-2.52c-.57-2.55-4.27-8.93-6.87-8.93ZM16.67,1.87c2.35,2.1,4.23,5.1,5.57,8.9l7.84-1.91c-2.23-3.9-6.94-6.81-11.51-7.1-.12,0-.4-.02-.72-.02-.82,0-1.1.08-1.19.13Z" style="fill: #54c0e8;"/>
  <path d="M17.25.25c5.96,0,11.81,3.2,14.82,8.97l-.22.54-14.64,4.23,4.96,18.65,11.68.02c1.58.17,8.7,4.24,10.25,5.34,1.46,1.03,2.03,2.41,1.2,4.12-.52,1.09-1.13,1.28-2.19,1.63-.05.02-.1.02-.15.02s-.09,0-.12,0c-.11,0-.16.04-.11.33h2.41c.31,0,.65.56.56.88l-.31.37H.58l-.31-.37c-.1-.32.25-.88.56-.88h12.28l.25-.25v-5.06c-4.12-.36-5.9-3.35-7.83-6.53-.79-1.3-4.25-7-4.41-8.03-.34-2.09,1.28-3.72,3.08-3.72.62,0,1.25.19,1.84.61,1.88,1.36,4.47,7.96,6.25,10.18.35.44,1.44,1.34,1.98,1.34h6.55l-4.97-18.34-.54-.04c-4.36,1-8.84,2.71-13.2,3.57-.15.03-.54.13-.86.13-.28,0-.5-.07-.5-.33,0-.84-.08-1.84,0-2.65.4-4.08,2.8-8.25,5.9-10.86C9.77,1.49,13.53.25,17.25.25M22.16,10.92l8.12-1.98c-2.23-4.03-7.08-7.01-11.69-7.3-.12,0-.4-.02-.72-.02-.61,0-1.36.05-1.35.28,2.71,2.39,4.47,5.65,5.65,9.03M11.36,13.92l9.45-2.59c-.47-2.43-4.23-9.15-7.02-9.15-.97,0-1.82.81-2.38,2.91-.73,2.76-.36,6.03-.05,8.83M10.36,3.47C5.45,5.65,2.26,11.08,2.07,16.41l7.89-2.15c-.3-3.62-.58-7.25.4-10.79M18.35,37.76c3.92,0,7.95-.35,11.85-.35,1,0,1.99.02,2.97.08,2.8.88,6,4.01,8.63,4.81.24.07.47.11.68.11,1.62,0,2.49-1.87.89-3.17-1.1-.89-7.72-4.68-8.94-4.99-.44-.11-.95-.22-1.41-.25-1.2-.1-2.43-.13-3.68-.13-3.64,0-7.44.3-11.08.3-1.36,0-2.7-.04-4-.16-1.2-.11-2.41-.9-3.13-1.84-2.12-2.77-3.52-6.9-5.67-9.77-.37-.33-.78-.51-1.24-.51-.12,0-.24.01-.37.04-1.3.25-1.72,1.63-1.15,2.73,2.71,3.52,5.29,12.19,10.25,12.81,1.76.22,3.57.29,5.4.29M30.27,44.12c.07-.01.15-.02.23-.02.26,0,.55.04.82.04.31,0,.59-.06.75-.3.09-.28.1-4.06.02-4.46-.06-.34-.51-.47-.97-.47-.48,0-.97.14-1.01.31l.15,4.88M25.3,44.12h3.48v-5.14h-4.81l1.33,5.14M18,44.12h5.81c-.34-1.73-.75-3.51-1.41-5.14h-4.4v5.14M14.68,44.12l1.92-.16v-4.83l-1.92-.16v5.14M33.68,44.12h8.55l-8.79-4.81v4.56l.25.25M17.25,0h0c-3.99,0-7.71,1.36-10.77,3.94C3.22,6.68.88,11.01.49,14.97c-.05.56-.04,1.2-.02,1.82,0,.3.02.59.02.86,0,.17.07.58.75.58.29,0,.61-.07.8-.11l.1-.02c2.4-.47,4.88-1.21,7.27-1.93,1.94-.58,3.96-1.18,5.9-1.63l.33.03,4.84,17.86h-6.23c-.4,0-1.4-.78-1.78-1.25-.74-.92-1.61-2.6-2.54-4.38-1.29-2.47-2.62-5.03-3.76-5.85-.6-.43-1.29-.66-1.99-.66-.98,0-1.92.44-2.57,1.2-.66.77-.93,1.77-.76,2.8.11.71,1.6,3.43,4.42,8.08l.06.1c1.9,3.14,3.69,6.1,7.75,6.56v4.73l-.1.1H.82c-.21,0-.42.13-.59.35-.15.21-.3.55-.21.85v.05s.05.04.05.04l.31.37.07.09h45.03l.07-.09.31-.37.03-.04v-.05c.1-.3-.04-.64-.19-.85-.17-.22-.38-.35-.59-.35h-1.53c.86-.3,1.44-.61,1.93-1.62.83-1.72.39-3.25-1.28-4.44-1.55-1.09-8.73-5.21-10.37-5.39l-11.52-.02-4.84-18.23,14.4-4.17.12-.03.05-.11.22-.54.04-.11-.05-.1C29.36,3.49,23.6,0,17.25,0h0ZM16.92,1.93c.16-.03.45-.06.94-.06.32,0,.59.01.71.02,4.48.28,9.08,3.1,11.33,6.89l-7.57,1.85c-1.31-3.68-3.13-6.61-5.4-8.7h0ZM11.58,13.6c-.3-2.75-.62-5.83.07-8.45.48-1.81,1.2-2.72,2.14-2.72,2.51,0,6.08,6.13,6.72,8.72l-8.93,2.45h0ZM2.34,16.08c.31-5.13,3.39-10.01,7.65-12.15-.83,3.42-.56,6.98-.29,10.15l-7.36,2h0ZM18.35,37.51c-2.03,0-3.79-.1-5.37-.29-3.34-.42-5.6-4.7-7.59-8.47-.86-1.63-1.67-3.17-2.5-4.24-.25-.49-.27-1.08-.04-1.56.14-.29.43-.66,1.04-.77.11-.02.22-.03.32-.03.37,0,.72.14,1.06.43,1.04,1.4,1.93,3.13,2.78,4.81.88,1.73,1.79,3.52,2.87,4.93.82,1.07,2.12,1.83,3.31,1.94,1.2.11,2.52.16,4.03.16,1.82,0,3.72-.08,5.55-.15,1.83-.07,3.72-.15,5.53-.15,1.36,0,2.56.04,3.66.13.38.03.85.12,1.36.25,1.14.29,7.7,4.02,8.85,4.95.64.52.9,1.19.68,1.8-.2.56-.75.93-1.41.93-.2,0-.4-.03-.61-.1-1.27-.39-2.67-1.33-4.15-2.32-1.49-1-3.03-2.03-4.48-2.49h-.03s-.03-.01-.03-.01c-.93-.05-1.9-.08-2.98-.08-1.95,0-3.97.09-5.92.17-1.95.08-3.97.17-5.93.17h0ZM30.38,39.31c.1-.06.39-.14.75-.14.4,0,.69.11.72.26.07.37.06,3.83-.01,4.31-.09.11-.25.16-.52.16-.13,0-.27-.01-.4-.02-.14-.01-.28-.02-.41-.02l-.14-4.54h0ZM24.29,39.22h4.24v4.64h-3.04l-1.2-4.64h0ZM18.25,39.22h3.98c.6,1.53.98,3.18,1.28,4.64h-5.25v-4.64h0ZM14.93,43.84v-4.6l1.42.11v4.37l-1.42.11h0ZM33.68,43.76v-4.04l7.57,4.14h-7.46l-.1-.1h0Z" style="fill: #54c0e8;"/>
</svg>