<?xml version="1.0" encoding="UTF-8"?>
<svg id="Capa_1" data-name="Capa 1" xmlns="http://www.w3.org/2000/svg" viewBox="0 0 42.77 36.94">
  <g>
    <path d="M12.12,36.69c-.88,0-1.71-.17-2.47-.5-2.19-.96-2.98-3.42-2.81-5.39-.61-.22-1.12-.42-1.63-.71-3.18-1.84-5.86-6.74-4.67-10.56.59-1.88,1.99-2.96,3.86-2.96.86,0,1.77.24,2.65.69,1.91.99,3.45,2.81,4.58,5.39l.3-.2c.81-.55,1.65-1.12,2.6-1.53,1.28-.54,2.51-.82,3.65-.82,1.97,0,3.55.82,4.47,2.3,1.16,1.88,1.04,4.49-.31,7.17-.52,1.04-1.25,2.05-2.24,3.11-1.71,1.84-4.82,3.99-7.97,3.99h0ZM9.35,34.5c.75.64,1.67.96,2.76.96,2.31,0,4.77-1.44,6.19-2.67,2.67-2.32,4.66-6.17,3.55-9.27-.03.1-.06.2-.09.29-.07.26-.15.52-.25.76-.7,1.6-2.03,2.98-3.57,3.69-1,.46-1.91.6-2.79.74-1.3.21-2.52.4-3.85,1.63-1.1,1.01-1.79,2.38-1.95,3.86ZM18.19,21.31c-1.56,0-3.45.66-5.07,1.77-2.85,1.94-6.08,6.32-4.71,10.19.02-.09.04-.18.06-.28.06-.24.12-.5.21-.72.88-2.12,2.95-3.86,5.15-4.34.42-.09.85-.14,1.27-.18.6-.06,1.16-.12,1.71-.31,2.07-.7,3.98-3.06,4.08-5.07,0-.2-.1-.29-.43-.48-.69-.41-1.44-.6-2.28-.6ZM2.01,19.16c-.07.12-.13.23-.15.29-.99,2.23.05,5.31,1.44,7.23,1.04,1.45,2.41,2.49,3.8,2.9.14-.74.43-1.56.92-2.55.04-.08.11-.19.19-.31.1-.15.31-.47.31-.57-.05-.09-.5-.6-.68-.77-.56-.52-1.19-.8-1.85-1.09-.62-.28-1.27-.56-1.86-1.06-1.22-1.02-1.94-2.42-2.11-4.06ZM4.2,17.76c-.42,0-.74.07-.9.18-.21.15-.09,1.46.15,2.2.6,1.88,1.72,2.41,3.02,3.03.82.39,1.67.79,2.46,1.57.03.03.1.11.17.2.04.05.1.12.15.18l1.39-1.59c-.7-2-2.37-4.59-4.85-5.52-.34-.13-1-.26-1.59-.26Z" style="fill: #54c0e8;"/>
    <path d="M4.39,16.82c.82,0,1.69.23,2.53.66,2.2,1.14,3.66,3.31,4.58,5.55,1.02-.68,1.97-1.39,3.11-1.87,1.3-.55,2.49-.8,3.55-.8,4.33,0,6.43,4.15,3.94,9.11-.57,1.13-1.34,2.14-2.2,3.06-1.86,2-4.88,3.91-7.79,3.91-.81,0-1.61-.15-2.37-.48-2.02-.88-2.89-3.24-2.64-5.32-.62-.22-1.2-.43-1.78-.76-3.17-1.83-5.69-6.64-4.56-10.27.59-1.91,2.01-2.79,3.62-2.79M9.27,25.49l1.65-1.9c-.79-2.36-2.64-4.91-5.05-5.81-.38-.14-1.06-.27-1.68-.27-.42,0-.82.06-1.04.23-.42.31-.1,2,.06,2.48,1.02,3.19,3.54,2.74,5.54,4.7.09.09.44.57.51.57M7.29,29.89c.12-.94.52-1.9.94-2.75.12-.25.6-.81.52-1.05-.05-.16-.6-.75-.75-.89-1.13-1.05-2.55-1.17-3.72-2.16-1.35-1.13-2.02-2.72-2.05-4.47,0-.01-.02-.02-.03-.02-.15,0-.53.72-.56.8-1.03,2.33.05,5.52,1.46,7.48,1.01,1.4,2.49,2.66,4.2,3.06M8.39,33.77c.08,0,.12-.05.16-.13.14-.34.21-.86.38-1.26.84-2.03,2.83-3.72,4.98-4.19.99-.21,2.03-.16,3.01-.49,2.05-.69,4.14-3.08,4.25-5.29.02-.39-.28-.55-.6-.74-.72-.42-1.52-.6-2.36-.6-1.85,0-3.82.86-5.21,1.81-3.21,2.19-6.39,6.92-4.64,10.89.02,0,.04,0,.05,0M12.11,35.71c2.28,0,4.78-1.36,6.35-2.73,2.64-2.3,5.07-6.53,3.42-10.02,0,0,0,0-.01,0-.05,0-.13.12-.15.17-.16.39-.25.91-.44,1.35-.66,1.51-1.94,2.87-3.44,3.56-2.46,1.13-4.41.3-6.71,2.41-1.18,1.08-1.9,2.54-2.04,4.15.87.79,1.92,1.1,3.02,1.1M4.39,16.32c-1.98,0-3.48,1.14-4.1,3.14-1.22,3.92,1.52,8.96,4.79,10.85.5.29.99.48,1.5.67-.11,2.02.74,4.47,2.97,5.44.79.35,1.66.52,2.57.52,3.23,0,6.41-2.19,8.16-4.07,1-1.08,1.74-2.11,2.28-3.17,1.39-2.76,1.5-5.46.3-7.41-.96-1.56-2.62-2.42-4.68-2.42-1.17,0-2.44.28-3.75.84-.98.42-1.83.99-2.65,1.55-.02.01-.03.02-.05.03-1.14-2.5-2.67-4.26-4.57-5.24-.91-.47-1.86-.72-2.76-.72h0ZM3.48,18.13c.11-.06.34-.11.71-.11.56,0,1.19.12,1.5.24,2.2.83,3.89,3.18,4.65,5.23l-1.1,1.26c-.07-.08-.12-.15-.15-.18-.82-.81-1.73-1.24-2.53-1.62-1.3-.62-2.32-1.1-2.88-2.88-.18-.57-.31-1.66-.2-1.95h0ZM6.9,29.25c-1.24-.44-2.46-1.41-3.4-2.72-1.24-1.73-2.2-4.41-1.59-6.49.31,1.34,1.01,2.51,2.05,3.37.62.52,1.28.81,1.92,1.1.65.29,1.26.56,1.79,1.05.12.11.43.45.57.63-.06.12-.18.29-.24.39-.09.13-.17.25-.21.34-.44.89-.73,1.64-.88,2.33h0ZM8.41,32.3c-.6-3.51,2.28-7.26,4.85-9.01,1.58-1.08,3.42-1.72,4.93-1.72.8,0,1.51.18,2.1.53l.05.03c.29.17.31.2.3.25-.1,1.91-1.92,4.17-3.91,4.84-.52.18-1.08.23-1.66.29-.42.04-.86.09-1.29.18-2.28.5-4.42,2.3-5.33,4.48-.02.04-.03.08-.04.12h0ZM9.62,34.4c.18-1.37.83-2.63,1.86-3.57,1.28-1.18,2.41-1.36,3.72-1.56.9-.14,1.83-.29,2.86-.76,1.59-.73,2.97-2.16,3.69-3.82.03-.08.07-.16.09-.24.49,2.82-1.33,6.11-3.7,8.16-1.38,1.2-3.79,2.6-6.02,2.6-.97,0-1.81-.27-2.5-.81h0Z" style="fill: #54c0e8;"/>
  </g>
  <path d="M18.92,1.12c.13.28.14.68.08,1-.08.43-.21.84-.34,1.25-.29.92-.53,1.95-.15,2.87.15.38.5.64.92.52.36-.1.68-.54.52-.92-.33-.82.03-1.66.29-2.52.3-.99.43-2-.03-2.97-.18-.36-.7-.46-1.03-.27-.37.22-.45.66-.27,1.03h0Z" style="fill: #54c0e8;"/>
  <path d="M24.53,1.12c.13.28.14.68.08,1-.08.43-.21.84-.34,1.25-.29.92-.53,1.95-.15,2.87.15.38.5.64.92.52.36-.1.68-.54.52-.92-.33-.82.03-1.66.29-2.52.3-.99.43-2-.03-2.97-.18-.36-.7-.46-1.03-.27-.37.22-.45.66-.27,1.03h0Z" style="fill: #54c0e8;"/>
  <path d="M40.81,10.74c-2.21-2.03-5.45-1.77-5.51-1.76h-3.04v.02c-.07,0-.14-.02-.22-.02H12.29c-1.35,0-2.45,1.1-2.45,2.45v13.6l1.7-1.35v-12.25c0-.42.34-.75.75-.75h19.75c.42,0,.75.34.75.75v15.79c0,.41-.34.75-.75.75h-9.59c-.23.38-.65,1.02-1.16,1.78h8.57v1.05c0,.3-.25.55-.55.55h-9.15c-.44.6-.91,1.19-1.37,1.7h10.52c1.24,0,2.25-1.01,2.25-2.25v-1.13h.48c1.35,0,2.45-1.1,2.45-2.45v-4.49h1.55s.11,0,.26,0c.74,0,2.85-.14,4.48-1.66,1.31-1.22,1.98-3.01,1.98-5.3,0-2.15-.66-3.84-1.96-5.03ZM39.64,19.82c-1.41,1.33-3.46,1.21-3.54,1.21h-1.61v-9.6c0-.27-.05-.52-.13-.75h1.01s2.65-.2,4.3,1.32c.93.85,1.4,2.12,1.4,3.77,0,1.8-.48,3.16-1.43,4.05Z" style="fill: #54c0e8;"/>
</svg>