<?xml version="1.0" encoding="UTF-8"?>
<svg id="Capa_1" xmlns="http://www.w3.org/2000/svg" version="1.1" viewBox="0 0 270.11 235.68">
  <!-- Generator: Adobe Illustrator 30.2.1, SVG Export Plug-In . SVG Version: 2.1.1 Build 1)  -->
  <defs>
    <style>
      .st0 {
        stroke-width: 8.96px;
      }

      .st0, .st1 {
        fill: none;
        stroke: #54c0e8;
        stroke-linecap: round;
        stroke-linejoin: round;
      }

      .st1 {
        stroke-width: 8.96px;
      }
    </style>
  </defs>
  <g id="Capa_11" data-name="Capa_1">
    <ellipse class="st0" cx="98.71" cy="183" rx="54.38" ry="40.4" transform="translate(-101.71 127.66) rotate(-46.22)"/>
    <path class="st1" d="M129.34,138.72c1.18,13.45-5.01,30.74-15.66,39.04-6.3,4.91-13.87,7.84-21.3,10.74-7.44,2.9-14.99,5.92-21.19,10.94s-10.96,14.11-10.83,22.1"/>
    <path class="st1" d="M73.2,151.49c-1.27,1.16-2.52,2.37-3.74,3.64-5.11,5.34-9.2,11.19-12.21,17.2-3.86,7.71-5.96,15.69-6.2,23.21-12.96-.59-27.74-10.53-37.43-26.59-12.8-21.21-12.02-45.28,1.5-54.71h0c.38-.28.78-.54,1.18-.78,14.64-8.83,37.17,1.69,50.33,23.5,2.87,4.76,5.07,9.67,6.57,14.53h0Z"/>
    <path class="st1" d="M15.12,114.23h0c-1.2,6.35,1.76,14.27,5.89,19.63,4.13,5.35,9.58,9.39,14.96,13.32,5.37,3.93,10.85,7.91,15.07,13.19,2.66,3.33,4.76,7.5,6.21,11.96"/>
    <path class="st1" d="M214.87,71.85v105.03c0,4.41-3.58,8-8,8h-63.14c5.03-15.68,2.81-31.35-7.39-41.14-16.11-15.44-46.02-10.37-66.8,11.31-.4.41-.79.83-1.17,1.25v-84.45c0-4.41,3.58-8,8-8h130.5c4.42,0,8,3.59,8,8Z"/>
    <path class="st1" d="M197.01,63.86h38.62c16.57,0,30,13.43,30,30v17.33c0,16.57-13.43,30-30,30"/>
    <path class="st1" d="M197.01,184.88v15.45c0,3.87-3.13,7-7,7h-58.88c5.89-7.02,10.12-14.74,12.6-22.45h53.28Z"/>
    <path class="st1" d="M160.79,4.48c2.91,3.24,3.24,8.09,2.39,12.36-.85,4.27-2.72,8.27-3.7,12.52-.98,4.24-.94,9.05,1.68,12.53"/>
    <path class="st1" d="M123.86,4.48c2.91,3.24,3.24,8.09,2.39,12.36s-2.72,8.27-3.7,12.52c-.98,4.24-.94,9.05,1.68,12.53"/>
  </g>
</svg>