<?xml version="1.0" encoding="UTF-8"?>
<svg id="Capa_1" xmlns="http://www.w3.org/2000/svg" version="1.1" viewBox="0 0 284.31 242.38">
  <!-- Generator: Adobe Illustrator 30.2.1, SVG Export Plug-In . SVG Version: 2.1.1 Build 1)  -->
  <defs>
    <style>
      .st0 {
        stroke-width: 10px;
      }

      .st0, .st1 {
        fill: none;
        stroke: #54c0e8;
        stroke-linecap: round;
        stroke-linejoin: round;
      }

      .st1 {
        stroke-width: 8.96px;
      }
    </style>
  </defs>
  <g id="Capa_11" data-name="Capa_1">
    <g>
      <g>
        <path class="st0" d="M178.2,147.69c21.64,0,39.18-17.54,39.18-39.18h0c0-21.64-17.54-39.18-39.18-39.18h-75.41c-21.64,0-39.18,17.54-39.18,39.18h0c0,21.64,17.54,39.18,39.18,39.18h11.18c7.33,0,13.26-5.94,13.26-13.26v-2.21c0-7.33,5.94-13.26,13.26-13.26h0c7.33,0,13.26,5.94,13.26,13.26v2.21c0,7.33,5.94,13.26,13.26,13.26"/>
        <line class="st0" x1="199.15" y1="74.33" x2="199.15" y2="5"/>
        <path class="st0" d="M199.15,141.61h0c0,17.19-13.94,31.13-31.13,31.13h-16.47"/>
        <line class="st0" x1="129.14" y1="172.62" x2="118.33" y2="172.62"/>
        <circle class="st0" cx="140.5" cy="172.75" r="11.05" transform="translate(-52.52 283.76) rotate(-80.78)"/>
      </g>
      <g>
        <line class="st0" x1="166.34" y1="107.65" x2="190.47" y2="131.78"/>
        <line class="st0" x1="162.41" y1="85.24" x2="186.54" y2="109.37"/>
      </g>
      <g>
        <line class="st0" x1="90.98" y1="107.65" x2="115.11" y2="131.78"/>
        <line class="st0" x1="87.05" y1="85.24" x2="111.18" y2="109.37"/>
      </g>
    </g>
    <path class="st1" d="M4.48,207.88c17.2,0,17.2-8.23,34.4-8.23s17.2,8.23,34.4,8.23,17.2-8.23,34.41-8.23,17.21,8.23,34.41,8.23,17.2-8.23,34.4-8.23,17.21,8.23,34.43,8.23,17.22-8.23,34.45-8.23,17.22,8.23,34.45,8.23"/>
    <path class="st1" d="M25.33,237.9c14.6,0,14.6-6.99,29.19-6.99s14.6,6.99,29.19,6.99,14.6-6.99,29.19-6.99,14.6,6.99,29.2,6.99,14.59-6.99,29.18-6.99,14.6,6.99,29.21,6.99,14.61-6.99,29.23-6.99,14.61,6.99,29.23,6.99"/>
    <path class="st1" d="M76.29,79.65c7.57-28.38,33.45-49.28,64.21-49.28h0c25.4,0,47.48,14.26,58.66,35.21"/>
    <line class="st1" x1="74.05" y1="183.26" x2="74.05" y2="135.13"/>
    <line class="st1" x1="201.83" y1="141.61" x2="201.83" y2="183.26"/>
    <path class="st1" d="M73.95,147.1h-2.64c-14.6,0-26.43-11.83-26.43-26.43h0c0-12.53,8.72-23.02,20.42-25.74"/>
    <path class="st1" d="M206.94,147.1h2.64c14.6,0,26.43-11.83,26.43-26.43h0c0-12.53-8.72-23.02-20.42-25.74"/>
    <polyline class="st0" points="216.36 63.66 271.03 37.95 216.36 12.24"/>
  </g>
</svg>