<?xml version="1.0" encoding="UTF-8"?>
<svg id="Capa_1" xmlns="http://www.w3.org/2000/svg" version="1.1" viewBox="0 0 145.04 242.08">
  <!-- Generator: Adobe Illustrator 30.2.1, SVG Export Plug-In . SVG Version: 2.1.1 Build 1)  -->
  <defs>
    <style>
      .st0 {
        fill: none;
        stroke: #54c0e8;
        stroke-linecap: round;
        stroke-linejoin: round;
        stroke-width: 10px;
      }
    </style>
  </defs>
  <g id="Capa_11" data-name="Capa_1">
    <g>
      <path class="st0" d="M140.04,124.6c0,11.03-3.95,21.71-11.37,30.15-7.83,8.98-18.92,14.5-30.77,15.45h-20.08c-11.91-.95-22.94-6.47-30.83-15.45-7.42-8.44-11.37-19.19-11.37-30.22,0-4.08.55-8.24,1.7-12.25,3.54-12.52,5.04-25.46,4.56-38.32-.21-9.12-1.5-18.17-3.74-27.02l-.48-1.7c-1.09-4.29,2.18-8.51,6.6-8.51h87.12c4.42,0,7.69,4.22,6.6,8.51l-.41,1.7c-5.45,21.51-5.17,44.04.75,65.34,1.16,4.08,1.7,8.24,1.7,12.32h.02Z"/>
      <path class="st0" d="M37.67,45.23l.48,1.7c2.24,8.85,3.54,17.9,3.74,27.02-.75.14-1.57.14-2.31.14-19.13,0-34.58-15.45-34.58-34.58S20.45,5,39.58,5c18.1,0,32.94,13.95,34.37,31.72h-29.68c-4.42,0-7.69,4.22-6.6,8.51h0Z"/>
      <line class="st0" x1="90.31" y1="170.2" x2="90.31" y2="237.08"/>
      <line class="st0" x1="56.87" y1="237.08" x2="123.75" y2="237.08"/>
    </g>
  </g>
</svg>