<?xml version="1.0" encoding="UTF-8"?>
<svg id="Capa_1" xmlns="http://www.w3.org/2000/svg" version="1.1" viewBox="0 0 246.83 247.59">
  <!-- Generator: Adobe Illustrator 30.2.1, SVG Export Plug-In . SVG Version: 2.1.1 Build 1)  -->
  <defs>
    <style>
      .st0 {
        stroke-width: 9.86px;
      }

      .st0, .st1 {
        fill: none;
        stroke: #54c0e8;
        stroke-linecap: round;
        stroke-linejoin: round;
      }

      .st1 {
        stroke-width: 10px;
      }
    </style>
  </defs>
  <g id="Capa_11" data-name="Capa_1">
    <path class="st1" d="M48.02,72.55c-1.26,25.64,20.81,46.49,46.49,46.49s46.49-20.81,46.49-46.49c0-6.54-.93-12.55-4.06-18.44-2.76-5.19-6.79-9.71-11.52-13.18-2.12-1.55-4.81-3.57-7.39-4.22-1.99-.5-3.79.6-5.12,1.99-1.54,1.61-2.56,2.9-4.81,3.67-3.26,1.11-6.84,1.31-10.25,1.46-5.12.23-10.24,0-15.35-.41-2.28-.18-4.59-.56-6.88-.53-2.45.03-4.94.49-7.29,1.16-9.17,2.59-15.95,9.41-18.68,18.54-.97,3.23-1.45,6.6-1.62,9.96h-.01Z"/>
    <path class="st1" d="M48.04,71.83c1.42-13.63-.8-25.24-5.34-38.17,6.22-7.53,13.79-14.28,22.08-19.44,8.29-5.16,17.75-8.61,27.5-9.16,4.85-.27,10.02.27,13.93,3.15,4.4,3.24,6.59,8.97,11.26,11.82,3.71,2.26,8.35,2.3,12.32,4.07,4.56,2.03,7.88,6.25,9.7,10.9s3.43,10.17,3.47,15.15c.06,8.47.22,17.58-1.98,25.76"/>
    <path class="st1" d="M53.72,141.97h-3.72c-24.85,0-45,20.15-45,45v55.62h180.11v-55.62c0-7.93-2.05-15.39-5.66-21.86-5.5-9.87-14.6-17.45-25.52-20.98-4.35-1.4-9-2.16-13.82-2.16h-3.92"/>
    <polygon class="st1" points="93.85 164.43 63.46 125.9 50.75 136.68 75.29 179.18 93.85 164.43"/>
    <line class="st1" x1="95.06" y1="162.23" x2="95.06" y2="241.93"/>
    <line class="st1" x1="43.65" y1="218.81" x2="43.65" y2="242.59"/>
    <polygon class="st1" points="96.27 164.43 126.66 125.9 139.36 136.68 114.83 179.18 96.27 164.43"/>
    <line class="st1" x1="146.47" y1="218.81" x2="146.47" y2="242.59"/>
    <line class="st0" x1="119.4" y1="111.83" x2="119.39" y2="134.69"/>
    <line class="st0" x1="70.84" y1="112.73" x2="70.84" y2="135.22"/>
    <line class="st1" x1="167.75" y1="29.88" x2="167.75" y2="126.88"/>
    <polygon class="st1" points="241.83 55.48 167.75 26.75 167.75 84.21 241.83 55.48"/>
  </g>
</svg>