<?xml version="1.0" encoding="UTF-8"?>
<svg id="Capa_1" data-name="Capa 1" xmlns="http://www.w3.org/2000/svg" viewBox="0 0 34.78 37.28">
  <path d="M5.68,37.22c-1.07,0-2.23-.7-2.39-2.03-.13-1.12-.05-2.35.04-3.55.06-.89.13-1.82.1-2.67C-.14,23.95-.91,17.98,1.27,12.2c.09-.24.25-.53.41-.83.23-.43.48-.88.52-1.19.22-1.4.12-3.1.02-4.75-.1-1.62-.2-3.29,0-4.69.08-.55.39-.63.57-.63.34,0,.74.3.74.5v8.44l1.43-.06-.06-8.12c0-.53.37-.76.74-.76s.73.22.73.63v8.27s.05-.03.1-.03c.09,0,.2,0,.31.01.12,0,.25.02.38.02.35,0,.53-.06.57-.2l.02-8.2c.06-.31.26-.49.56-.49.36,0,.77.26.77.49v2.9c2.48-1.44,5.37-2.17,8.29-2.17,3.56,0,6.99,1.06,9.92,3.07-.05-.07,1.41-4.09,2.74-4.33.12-.02.22-.03.32-.03.44,0,.67.23.91.63.57.94.47,2.83.38,4.67-.07,1.29-.13,2.5.04,3.31.06.28.44.92.82,1.54.27.45.53.88.66,1.16,2.13,4.68,2.11,10.02-.04,14.64-.13.27-.35.64-.59,1.04-.38.62-.8,1.32-.86,1.68-.15.94-.07,2.16,0,3.34.08,1.31.17,2.66-.05,3.65-.23,1.04-1.35,1.51-2.3,1.51-.78,0-1.73-.33-2.06-1.24-.2-.55-.14-1.15-.08-1.72.05-.43.09-.86.03-1.28-.34.24-.75.47-1.15.69-.42.24-.85.47-1.29.68-2.33,1.08-4.94,1.65-7.55,1.65-2.18,0-4.26-.39-6.18-1.15-.54-.21-1.05-.5-1.56-.78s-1.02-.56-1.55-.77l.08,2.18c0,.11-.57,1.02-.69,1.13-.44.41-1.02.64-1.63.64ZM30.31,1.56c-.4.14-.76.85-.97,1.29l-.07.15c-2.12,4.15-3.24,10.96-1.44,15.18.3.69.55,1.15.75,1.52.52.94.73,1.33.63,3.61-.07,1.55-.2,3.13-.34,4.66-.14,1.57-.28,3.2-.34,4.79v.15c-.04.66-.09,1.89,0,2.4.1.52.6.58.81.58h0c.24,0,.48-.06.67-.17.19-.11.3-.25.3-.39V1.56ZM5.15,15.59c-.2,5.61-.33,10.83-.4,15.96,0,.22-.03.54-.07.9-.1,1.06-.25,2.67.22,3.14.19.19.42.29.66.29.53,0,1.04-.5,1.11-1.09.16-1.37.02-3.11-.12-4.79-.07-.88-.14-1.73-.16-2.49-.03-1.16-.05-2.33-.07-3.49-.03-2.14-.06-4.34-.2-6.51-.02-.26,0-.52,0-.78,0-.32.02-.64-.02-.95l-.1-.14-.86-.03ZM7.89,26.02c-.19.11-.16.29-.09.57.03.12.06.24.06.36,0,.28,0,.66-.02,1.1-.03,1.24-.08,2.94.21,3.54.33.67,3.86,2.15,4.7,2.4,1.48.44,3.03.66,4.61.66,3.81,0,7.35-1.27,9.96-3.57l.27-5.89c-2.46,3.51-6.19,5.53-10.25,5.53-3.51,0-6.79-1.54-9.25-4.32-.09-.11-.18-.22-.21-.36ZM17.38,8c-2.84,0-5.55,1.09-7.44,2.98-.86.86-.85,1.13-.82,1.72,0,.26.02.58-.03,1.02-.11.89-.64,1.2-1.07,1.45-.22.13-.4.23-.5.39-.17.29-.08.84,0,1.32.04.23.07.44.08.6.02.81,0,1.54-.02,2.19-.08,2.24-.13,3.86,1.83,6.09,2,2.27,4.9,3.58,7.96,3.58h0c1.23,0,2.44-.21,3.6-.62,3.44-1.23,6.1-4.21,6.79-7.6l-.38-.78c-.84-1.79-1.63-3.48-1.79-5.55-.03-.37,0-.82.02-1.25.03-.56.06-1.15-.02-1.57-.04-.23-.26-.44-.44-.62-.06-.05-.11-.11-.15-.16-1.88-2.03-4.65-3.19-7.6-3.19ZM2,13.97c-.9,3.72-.76,7.17.48,10.5.13.36.62,1.58.76,1.76.05.06.1.07.15.07.11,0,.15-.01.18-.01-.07-2.95.06-6,.19-8.94l.07-1.61c-.17-.2-.39-.38-.64-.56-.24-.18-.48-.36-.7-.62-.06-.08-.1-.18-.14-.27-.07-.2-.13-.32-.29-.32h-.06ZM31.63,25.8c.07-.08.22-.4.29-.55,1.9-3.86,1.88-9.95,0-13.36-.03-.06-.19-.25-.29-.32v14.23ZM3.54,13.57c0,.55,1.2.75,2.22.75.68,0,1.33-.08,1.53-.2.14-.08.46-.47.46-.55v-2.97l-.19-.16-4.03.02v3.12ZM17.5,6.65c2.3,0,4.49.63,6.35,1.81.08.05.27.21.52.41.49.41,1.32,1.08,1.51,1.08.09-1.32.39-2.71.9-4.24-2.58-1.92-5.92-3.01-9.39-3.01-3.05,0-5.93.83-8.33,2.4l.02,4.76c2.23-2.05,5.3-3.22,8.42-3.22Z" style="fill: #54c0e8;"/>
  <path d="M30.34.11c.41,0,.62.2.86.61.95,1.57,0,5.98.41,7.97.1.5,1.17,2.03,1.48,2.71,2.12,4.67,2.13,9.94-.04,14.59-.33.71-1.37,2.13-1.46,2.73-.31,1.99.38,5.13-.04,6.99-.21.94-1.24,1.46-2.24,1.46-.86,0-1.71-.38-2.01-1.21-.34-.94.1-2-.04-3-.86.4-1.65.93-2.52,1.33-2.33,1.08-4.93,1.64-7.52,1.64-2.11,0-4.22-.37-6.16-1.15-1.07-.43-2.04-1.13-3.11-1.55v2.23c0,.08-.54.97-.67,1.09-.45.43-1.03.62-1.59.62-1.11,0-2.19-.75-2.34-1.98-.23-1.95.21-4.24.13-6.21C-.06,23.97-.85,17.98,1.32,12.22c.22-.58.86-1.51.94-2.03.43-2.78-.38-6.61.02-9.44.06-.44.28-.59.52-.59.33,0,.69.29.69.44v8.44h1.49V.88c0-.49.34-.71.68-.71s.67.21.67.57v8.31s.1-.01.16-.01c.19,0,.45.03.68.03.3,0,.56-.04.63-.24l.02-8.22c.06-.32.27-.43.5-.43.34,0,.71.24.71.44v2.9c2.61-1.42,5.48-2.12,8.35-2.12,3.47,0,6.93,1.03,9.89,3.07.36-1.02,1.66-4.12,2.78-4.32.11-.02.21-.03.31-.03M29.33,35.94c.5,0,1.03-.28,1.03-.62V1.49c-.5.1-.92,1.03-1.15,1.48-2.08,4.06-3.26,10.95-1.44,15.22,1.05,2.45,1.51,1.95,1.37,5.11-.14,3.14-.55,6.31-.68,9.45-.03.64-.09,2.01,0,2.57.08.45.46.62.86.62M9.02,10c2.29-2.15,5.39-3.29,8.48-3.29,2.21,0,4.41.58,6.32,1.8.26.16,1.75,1.5,2.05,1.5.02,0,.03,0,.04-.01.12-1.46.45-2.88.91-4.26-2.68-2.04-6.06-3.08-9.44-3.08-2.95,0-5.89.79-8.36,2.41v4.93M17.36,29.4c1.21,0,2.44-.2,3.62-.63,3.37-1.2,6.11-4.1,6.82-7.64-.96-2.09-1.99-3.98-2.16-6.35-.06-.85.14-2.07,0-2.83-.06-.32-.4-.58-.61-.81-1.99-2.14-4.81-3.21-7.64-3.21s-5.49,1-7.48,3c-1.24,1.24-.69,1.29-.87,2.78-.16,1.31-1.26,1.32-1.56,1.82-.27.44.06,1.44.07,1.95.11,3.56-.73,5.42,1.82,8.31,2.06,2.34,5,3.6,8.01,3.6M5.76,14.38c.7,0,1.34-.09,1.56-.21.13-.08.49-.49.49-.59v-2.97l-.2-.2H3.48v3.17c0,.6,1.2.8,2.28.8M31.58,25.8c.18-.04.35-.42.43-.59,1.79-3.64,1.95-9.76-.04-13.35-.04-.07-.28-.37-.39-.38v14.32M3.39,26.35c.06,0,.12-.01.18-.01.01,0,.03,0,.04,0-.07-3.55.12-7.06.27-10.6-.35-.48-.9-.69-1.35-1.22-.16-.19-.15-.61-.47-.61-.02,0-.05,0-.07,0-.9,3.59-.86,7.08.44,10.57.12.33.62,1.58.77,1.77.06.08.13.1.19.1M5.56,35.93c.56,0,1.09-.51,1.16-1.14.25-2.11-.22-5.11-.28-7.29-.09-3.34-.06-6.67-.26-10-.04-.58.04-1.16-.02-1.74l-.11-.16-.95-.06c-.19,5.33-.33,10.67-.4,16.01-.01.9-.48,3.43.17,4.08.21.21.46.31.69.31M17.35,30.65c-3.31,0-6.65-1.4-9.21-4.3-.1-.12-.2-.25-.2-.41-.46.17-.13.63-.13,1.01.02,1.08-.2,3.84.2,4.66.34.69,3.87,2.18,4.73,2.43,1.49.44,3.06.66,4.62.66,3.63,0,7.28-1.19,10-3.58l.3-6.12c-2.53,3.71-6.4,5.66-10.31,5.66M30.34,0c-.1,0-.2.01-.33.03-1.23.22-2.55,3.54-2.81,4.26-2.91-1.97-6.31-3-9.83-3-2.87,0-5.71.71-8.24,2.05V.61c0-.29-.46-.55-.82-.55-.33,0-.55.19-.61.52l-.02,8.22c-.05.1-.21.15-.52.15-.12,0-.25,0-.37-.02-.11,0-.22-.01-.31-.01-.02,0-.03,0-.05,0V.74c0-.44-.4-.68-.78-.68s-.79.25-.79.82v8.06h-1.27V.61c0-.25-.44-.55-.8-.55-.2,0-.54.09-.63.68-.2,1.41-.1,3.08,0,4.7.1,1.65.2,3.35-.02,4.74-.05.29-.29.74-.52,1.17-.17.31-.32.6-.41.84C-.96,17.97-.2,23.95,3.37,29.02c.03.84-.03,1.75-.1,2.63-.08,1.2-.17,2.44-.04,3.56.16,1.36,1.35,2.07,2.45,2.07.63,0,1.22-.23,1.67-.65.09-.09.7-1.02.7-1.17v-2.06c.48.2.94.46,1.4.71.5.28,1.03.57,1.56.78,1.93.77,4.02,1.16,6.2,1.16,2.62,0,5.23-.57,7.57-1.65.44-.21.87-.45,1.29-.68.35-.2.72-.4,1.09-.58.03.37-.01.75-.05,1.12-.06.58-.13,1.19.08,1.75.29.79,1.1,1.28,2.11,1.28s2.11-.48,2.35-1.55c.22-.99.13-2.35.05-3.66-.08-1.18-.16-2.4,0-3.33.05-.35.48-1.04.85-1.66.24-.4.47-.77.6-1.04,2.16-4.64,2.18-9.99.04-14.68-.13-.29-.39-.71-.66-1.16-.35-.58-.75-1.25-.81-1.52-.17-.81-.1-2.02-.04-3.3.09-1.84.19-3.75-.38-4.7-.25-.42-.49-.66-.96-.66h0ZM29.33,35.83c-.2,0-.66-.05-.75-.53-.09-.5-.04-1.72-.01-2.38v-.16c.07-1.59.21-3.22.35-4.79.13-1.53.27-3.11.34-4.66.1-2.29-.12-2.68-.64-3.64-.2-.37-.45-.83-.75-1.52-1.41-3.3-1.25-9.86,1.44-15.13l.07-.15c.2-.4.52-1.04.87-1.23v33.68c0,.26-.45.51-.92.51h0ZM9.13,5.12c2.38-1.55,5.23-2.36,8.25-2.36,3.43,0,6.73,1.07,9.31,3.01-.48,1.46-.77,2.8-.89,4.11-.26-.11-1.03-.74-1.41-1.05-.24-.2-.44-.36-.52-.41-1.86-1.19-4.07-1.82-6.38-1.82-3.1,0-6.13,1.15-8.37,3.15v-4.62h0ZM17.36,29.29c-3.04,0-5.93-1.3-7.92-3.56-1.94-2.21-1.89-3.82-1.81-6.05.02-.65.05-1.39.02-2.2,0-.17-.04-.38-.08-.61-.08-.45-.17-1.02,0-1.29.09-.15.27-.25.48-.37.44-.26.98-.57,1.09-1.49.05-.45.04-.77.03-1.03-.02-.6-.03-.84.81-1.68,1.88-1.88,4.58-2.96,7.41-2.96s5.69,1.16,7.56,3.17c.05.05.1.1.16.16.18.18.39.38.43.6.08.42.05,1,.02,1.56-.02.44-.05.89-.02,1.26.16,2.07.95,3.77,1.79,5.57.12.26.24.52.37.78-.69,3.36-3.34,6.31-6.75,7.52-1.15.41-2.36.62-3.58.62h0ZM3.59,10.51h3.96l.14.14v2.93c-.02.08-.32.44-.43.5-.17.09-.75.2-1.5.2-1.08,0-2.17-.21-2.17-.69v-3.06h0ZM31.69,25.57v-13.88c.08.08.16.18.18.22,1.88,3.4,1.9,9.46.03,13.25l-.03.06c-.04.08-.11.23-.19.34h0ZM3.39,26.24s-.07,0-.11-.05c-.13-.17-.59-1.3-.75-1.74-1.23-3.3-1.37-6.71-.45-10.43.11,0,.15.09.22.28.04.1.08.21.15.29.23.27.47.45.71.63.23.17.45.33.61.55-.02.52-.04,1.05-.07,1.57-.13,2.91-.26,5.91-.2,8.89-.01,0-.02,0-.04,0-.03,0-.05,0-.07,0h0ZM5.56,35.82c-.22,0-.44-.09-.62-.27-.45-.45-.3-2.04-.2-3.09.03-.37.06-.68.07-.9.07-5.11.2-10.31.4-15.9l.79.05.06.09c.03.3.02.62.01.92,0,.26-.01.52,0,.78.13,2.17.17,4.38.2,6.51.02,1.14.03,2.32.07,3.49.02.76.09,1.6.16,2.49.14,1.68.28,3.42.12,4.78-.07.57-.55,1.05-1.05,1.05h0ZM17.35,30.76c4.02,0,7.71-1.96,10.18-5.39l-.28,5.69c-2.6,2.27-6.11,3.53-9.89,3.53-1.57,0-3.12-.22-4.59-.66-.97-.29-4.35-1.75-4.66-2.37-.29-.59-.24-2.28-.21-3.51.01-.44.02-.82.02-1.1,0-.12-.03-.25-.07-.37-.06-.24-.08-.38,0-.46.04.12.12.22.2.31,2.47,2.8,5.77,4.34,9.3,4.34h0Z" style="fill: #54c0e8;"/>
</svg>