<?xml version="1.0" encoding="UTF-8"?>
<svg id="Capa_1" xmlns="http://www.w3.org/2000/svg" version="1.1" viewBox="0 0 224.9 246.98">
  <!-- Generator: Adobe Illustrator 30.2.1, SVG Export Plug-In . SVG Version: 2.1.1 Build 1)  -->
  <defs>
    <style>
      .st0 {
        fill: none;
        stroke: #54c0e8;
        stroke-linecap: round;
        stroke-linejoin: round;
        stroke-width: 10px;
      }
    </style>
  </defs>
  <g id="Capa_11" data-name="Capa_1">
    <g>
      <path class="st0" d="M199.18,232.74V11.2c-3.04-1.19-8.24,1.8-10.57,4.08-2.33,2.28-3.66,5.38-4.79,8.44-3.82,10.32-6.06,21.14-8.29,31.92-3.08,14.87-6.16,30.16-3.56,45.12,1.48,8.49,4.74,16.57,6.64,24.98,2.9,12.82,2.55,26.13,2.2,39.27-.45,16.65-.91,33.3-1.36,49.96-.12,4.52-.23,9.17,1.32,13.41,1.55,4.25,5.15,8.07,9.65,8.48s9.75.3,8.76-4.12h0Z"/>
      <path class="st0" d="M19.5,5v87.62c0,1.57.76,3.02,1.99,3.99,2.44,1.93,4.26,4.89,5.03,7.83.97,3.69.86,7.57.74,11.39-1.03,34.17-2.06,68.34-3.08,102.51-.17,5.71-.28,11.72,2.39,16.77,1.85,3.5,5.5,6.48,9.3,6.79.85.07,2.56.09,3.41.08,4.06-.06,8.13-3.11,10.11-6.86,2.67-5.05,2.56-11.06,2.39-16.77-1.03-34.17-2.06-68.34-3.08-102.51-.11-3.82-.22-7.7.74-11.39.77-2.94,2.59-5.89,5.03-7.83,1.23-.98,1.99-2.42,1.99-3.99V5.01"/>
      <polyline class="st0" points="19.52 66.72 56.45 66.72 38 66.74 38 5"/>
      <g>
        <path class="st0" d="M26.52,104.44c.97,3.7.86,7.58.75,11.39-.74,24.41-1.47,48.81-2.21,73.22-12.62-17.61-20.06-39.2-20.06-62.53,0-19.66,5.28-38.08,14.5-53.93v20.03c0,.17,0,.34.04.51.13,1.37.86,2.62,1.96,3.48,2.43,1.94,4.26,4.89,5.02,7.83Z"/>
        <path class="st0" d="M56.47,78.73v-43.94c16.31-9.97,35.47-15.72,55.98-15.72,24.92,0,47.86,8.49,66.09,22.73-1.1,4.59-2.05,9.21-3.01,13.83-1.81,8.77-3.62,17.69-4.28,26.6-13.44-17.81-34.78-29.32-58.8-29.32-22.41,0-42.49,10.02-55.98,25.82h0Z"/>
        <path class="st0" d="M181.03,153.29c-.01,3.91-.12,7.82-.22,11.71-.42,15.14-.83,30.27-1.24,45.42-18.39,14.74-41.73,23.55-67.12,23.55-22.55,0-43.48-6.95-60.76-18.82-.49-16.44-.99-32.88-1.48-49.32,13.05,20.61,36.05,34.3,62.24,34.3,31.21,0,57.88-19.42,68.58-46.84h0Z"/>
        <path class="st0" d="M219.9,126.52c0,23.73-7.69,45.65-20.72,63.43V63.09c13.03,17.77,20.72,39.7,20.72,63.43Z"/>
        <path class="st0" d="M19.54,93.13s-.03-.03-.04-.05"/>
      </g>
    </g>
  </g>
</svg>