<?xml version="1.0" encoding="UTF-8"?>
<svg id="Capa_2" data-name="Capa 2" xmlns="http://www.w3.org/2000/svg" viewBox="0 0 45.55 46.46">
  <g id="_9F7MOH" data-name="9F7MOH">
    <path d="M12.96,46.46H2.22c-1-.2-1.75-.87-1.97-1.89v-12.08c.22-1.48,2.11-2.7,2.92-3.94.66-1.02,1.03-2.33.96-3.54-.13-2.28-.63-4.68-.8-6.98.06-1.08.7-2.14,1.73-2.53.51-.19,2.96-.67,3.49-.65.4,0,.73.23.92.56.52.9.62,2.01,1.31,2.89,1.54,2,4.43,2.35,6.38.72,1.26-1.05,1.18-2.29,1.92-3.57.3-.51.68-.58,1.25-.53.65.06,2.43.39,2.98.66.89.43,1.45,1.42,1.51,2.39-.08,3.45-1.86,7.56.29,10.63,1,1.43,2.87,2.22,3.16,4.07v11.78c-.15,1.01-.97,1.83-2,1.95h-10.81c-.3.08-1-.43-1.17-.43-.13,0-.46.23-.63.29-.18.07-.52.18-.7.2ZM13.15,34.42l.03-3.52-5.29-13.6-.14-.11c-.44.15-1.74.18-2.04.43-.18.16-.16.37-.15.59.13,4.3,2.09,8.32-.99,12.16-.32.4-2.16,2.15-2.16,2.47v1.57h10.74ZM26.11,34.42v-1.51c0-.08-.21-.38-.28-.46-.52-.64-1.43-1.28-2.01-1.94-1.3-1.5-1.97-3.45-2.03-5.43l.8-6.98c.04-.28-.08-.49-.35-.58-.25-.09-1.09-.24-1.36-.25-.07,0-.17-.03-.22.04l-5.3,13.39v3.73h10.74ZM16.48,21.89c-1.45.43-3.02.52-4.44-.06l2.16,5.68,2.28-5.62ZM13.15,36.58H2.41v2.65h10.74v-2.65ZM15.31,36.58v2.65h10.8v-2.65h-10.8ZM13.15,41.4H2.41v2.84l.34.06,9.98-.03c.6-.14.34-.57.36-1.06,0-.15.06-.28.07-.43,0-.46-.01-.93,0-1.39ZM26.11,41.4h-10.8v2.31c0,.12.2.52.34.52h10.37l.09-.09v-2.75Z" style="fill: #54c0e8;"/>
  </g>
  <g>
    <path d="M31.81,13.02c1.14.69,2.44,1.05,3.73,1.05,1.18,0,2.35-.3,3.37-.89,1.42-.83,2.24-2.12,2.2-3.41V2.57c0-1.42-1.15-2.57-2.57-2.57h-17.04c-1.42,0-2.57,1.15-2.57,2.57v7.73c.16,1.25,1.43,3.64,5.13,3.72,1.88.03,3.08-.57,4.06-1.06,1.22-.62,1.97-1,3.7.06h0ZM24.1,12.41c-3.02-.06-3.5-1.92-3.56-2.27V2.57c0-.53.43-.96.96-.96h17.04c.53,0,.96.43.96.96v7.22c.02.72-.5,1.47-1.4,2-1.23.72-3.39,1.11-5.44-.14-1.09-.67-1.97-.9-2.74-.9-.98,0-1.76.39-2.53.78-.89.45-1.84.93-3.29.89h0Z" style="fill: #54c0e8;"/>
    <path d="M35.73,3.81c.66-.4.06-1.45-.61-1.05-1.73,1.06-3.46,2.12-5.19,3.18-.25.15-.5.31-.75.46-.66.4-.06,1.45.61,1.04,1.73-1.06,3.46-2.12,5.19-3.18.25-.15.5-.31.75-.46h0Z" style="fill: #54c0e8;"/>
    <path d="M32.73,8.71c-.68.39-.06,1.43.61,1.04,1.37-.77,2.75-1.55,4.12-2.33.19-.11.39-.22.58-.33.68-.39.06-1.43-.61-1.04-1.37.77-2.75,1.55-4.12,2.33-.19.11-.39.22-.58.33Z" style="fill: #54c0e8;"/>
    <path d="M45.28,22.5V.1h-1.61v22.52s.18,1.85-.86,3c-.59.65-1.49.98-2.68.98h-6.44c-.12,0-2.83-.19-2.95-4.61l1.71-.03c1.06-.02,1.89-.89,1.87-1.95l-.05-2.14c-.02-1.06-.89-1.89-1.95-1.87l-4.62.1c-1.06.02-1.89.89-1.87,1.95l.05,2.14c.02,1.06.89,1.89,1.95,1.87l1.3-.02c.05,2.07.6,3.67,1.63,4.78,1.27,1.36,2.83,1.41,2.91,1.41h6.48c1.68,0,2.98-.52,3.88-1.52,1.42-1.58,1.3-3.83,1.26-4.2h0ZM27.78,20.44c-.16,0-.3-.13-.31-.29l-.05-2.14c0-.16.13-.3.29-.31l4.62-.1c.16,0,.3.13.31.29l.05,2.14c0,.16-.13.3-.29.31,0,0-4.62.1-4.62.1Z" style="fill: #54c0e8;"/>
  </g>
</svg>