<?xml version="1.0" encoding="UTF-8"?>
<svg id="Capa_3" data-name="Capa 3" xmlns="http://www.w3.org/2000/svg" viewBox="0 0 44.4 23.6">
  <path d="M29.88,22.25l1.29-7.17c.33-.66,1.02-1.08,1.75-1.15,1.67-.17,3.59.13,5.28,0l1.97-10.52c.68-.99,1.4-.52,1.3.64-.31,3.43-1.67,7.22-1.98,10.71l1.26,7.49c.16.13,2.72-.14,3.24.07.4.16.35.88.05,1.16H.37c-.3-.33-.39-1.02.12-1.18.78-.25,2.67.08,3.61-.04.1-.01.22,0,.28-.09l1.25-7.53L3.58,3.68c.12-1.17,1.37-.99,1.46.14l1.82,10.11c1.69.13,3.62-.17,5.29,0,.74.07,1.41.47,1.77,1.13l1.27,7.19h6.22l.14-.14v-10.24h-10.62c-.57,0-.46-1.87-.42-2.29.08-.9.61-1.43,1.42-1.76l20.41-.04c.95.29,1.48.89,1.57,1.89.03.35.05,1.72-.09,1.95-.01.02-.31.25-.33.25h-10.62v10.24l.14.14h6.88ZM32.59,10.47c.02-.46.04-.97-.38-1.26l-19.8-.05c-.64.08-.64.79-.6,1.31h20.78ZM13.78,22.25l-1.16-6.65c-.17-.18-.33-.25-.57-.27-.97-.12-3.91-.12-4.87,0-.08,0-.17,0-.24.04l-1.12,6.88h7.95ZM31.42,22.25h7.91l-1.12-6.92c-1.64.12-3.49-.15-5.1,0-.48.04-.62.17-.77.64l-1.02,6.1.1.19Z" style="fill: #54c0e8; stroke: #54c0e8; stroke-miterlimit: 10; stroke-width: .25px;"/>
  <path d="M22.87,2.22c1.35.24,2.48.67,3.5,1.6.49.45,2.28,2.52,1.39,3.08-.95.6-1.34-.94-1.82-1.53-1.89-2.33-5.44-2.35-7.39-.1-.3.35-.9,1.54-1.07,1.65-.41.24-1.02.07-1.08-.44-.1-.79,1.26-2.39,1.87-2.89.96-.78,2.07-1.13,3.26-1.37l-.07-.69c-.28-.1-.59,0-.88-.06-.61-.13-.67-1.19.17-1.29.66-.08,2.14-.06,2.81,0,.42.04.68.14.7.61.04.86-.73.66-1.32.74l-.07.69Z" style="fill: #54c0e8; stroke: #54c0e8; stroke-miterlimit: 10; stroke-width: .25px;"/>
</svg>