<?xml version="1.0" encoding="UTF-8"?>
<svg id="Capa_1" xmlns="http://www.w3.org/2000/svg" version="1.1" viewBox="0 0 360.61 248.62">
  <!-- Generator: Adobe Illustrator 30.2.1, SVG Export Plug-In . SVG Version: 2.1.1 Build 1)  -->
  <defs>
    <style>
      .st0 {
        fill: none;
        stroke: #54c0e8;
        stroke-linecap: round;
        stroke-linejoin: round;
        stroke-width: 9.87px;
      }
    </style>
  </defs>
  <g id="Capa_11" data-name="Capa_1">
    <line class="st0" x1="4.93" y1="243.68" x2="355.67" y2="243.68"/>
    <polyline class="st0" points="33 84.95 50.59 176.74 37.89 243.68"/>
    <path class="st0" d="M119.42,243.68l-11.81-58.68c-1.17-5.83-6.38-9.95-12.32-9.75l-44.7,1.48"/>
    <polyline class="st0" points="324.24 84.95 306.65 176.74 319.36 243.68"/>
    <path class="st0" d="M237.83,243.68l11.81-58.68c1.17-5.83,6.38-9.95,12.32-9.75l44.7,1.48"/>
    <line class="st0" x1="89.98" y1="136.5" x2="270.62" y2="136.5"/>
    <line class="st0" x1="180.3" y1="136.5" x2="180.3" y2="243.68"/>
    <path class="st0" d="M198.17,101.2c-5.38,5.38-33.7,5.38-39.08,0-7.72-7.72-5.72-43.51-5.72-43.51h50.52s2,35.8-5.72,43.51Z"/>
    <line class="st0" x1="150.68" y1="120.87" x2="209.92" y2="120.87"/>
    <g>
      <path class="st0" d="M187.3,41.25c0-6.05,5.08-6.05,5.08-12.1s-5.08-6.05-5.08-12.11,5.08-6.05,5.08-12.11"/>
      <path class="st0" d="M164.85,41.25c0-6.05,5.08-6.05,5.08-12.1s-5.08-6.05-5.08-12.11,5.08-6.05,5.08-12.11"/>
    </g>
  </g>
</svg>