<?xml version="1.0" encoding="UTF-8"?>
<svg id="Capa_1" xmlns="http://www.w3.org/2000/svg" version="1.1" viewBox="0 0 179.87 249.04">
  <!-- Generator: Adobe Illustrator 30.2.1, SVG Export Plug-In . SVG Version: 2.1.1 Build 1)  -->
  <defs>
    <style>
      .st0 {
        fill: none;
        stroke: #54c0e8;
        stroke-linecap: round;
        stroke-linejoin: round;
        stroke-width: 10px;
      }
    </style>
  </defs>
  <g id="Capa_11" data-name="Capa_1">
    <g>
      <path class="st0" d="M78.91,94.52l-.06,54.84c0,.91-.09,1.83-.26,2.73-3.69,18.53-10.22,33.72-6.84,51.15,1.49,7.65,5.62,17.33,5.33,25.12-.2,5.02-1.78,9.96-4.44,14.23-.55.89-1.52,1.44-2.57,1.44H13.61c-1.05,0-2.02-.55-2.57-1.44-2.66-4.27-4.24-9.2-4.44-14.23-.3-7.79,3.84-17.47,5.33-25.12,3.37-17.38-3.1-32.52-6.81-50.97-.59-2.26,1.08-59.32,1.45-61.87,2.32-11.12,7.96-21.45,12.98-31.76,5.75-11.81,10.91-24.71,9.26-37.71h-.93v-8.93c0-3.87,3.13-7,7-7h13.91c3.87,0,7,3.14,7,7v8.93h-.92c-1.65,13,3.51,25.9,9.26,37.71,4.1,8.42,10.92,24.06,13.63,30.3.76,1.76,1.15,3.65,1.15,5.57h0Z"/>
      <line class="st0" x1="28.82" y1="20.94" x2="54.89" y2="20.94"/>
      <line class="st0" x1="6.44" y1="92.6" x2="78.79" y2="92.6"/>
      <line class="st0" x1="5.01" y1="151" x2="78.77" y2="151"/>
      <g>
        <line class="st0" x1="166.41" y1="244.04" x2="107.5" y2="244.04"/>
        <line class="st0" x1="100.63" y1="113.26" x2="173.11" y2="113.26"/>
        <path class="st0" d="M107.5,244.04c4.5-15.08,5.87-31.09,3.98-46.72-1.7-14.14-6.01-27.82-9.08-41.73-3.08-13.91-4.9-28.47-1.62-42.33v-21.55h72.2"/>
        <path class="st0" d="M166.41,244.04c-4.5-15.08-5.87-31.09-3.98-46.72,1.7-14.14,6.01-27.82,9.08-41.73,3.08-13.91,4.9-28.47,1.62-42.33v-21.55h-72.2"/>
      </g>
    </g>
  </g>
</svg>