<?xml version="1.0" encoding="UTF-8"?>
<svg id="Capa_1" data-name="Capa 1" xmlns="http://www.w3.org/2000/svg" viewBox="0 0 32.13 36.99">
  <g>
    <path d="M1.2,36.82c-.4-.25-.91-1.98-.95-2.41-.12-1.1.13-1.78.39-2.5.14-.4.29-.81.4-1.32.36-1.75-.02-3.48-.39-5.15-.22-.97-.44-1.98-.52-2.99-.13-1.68-.07-3.48-.01-5.21.05-1.39.09-2.82.04-4.18.25-.87.81-2.02,1.39-3.24,1.12-2.32,2.39-4.96,2.08-6.57-.02-.12-.08-.19-.15-.27-.1-.12-.22-.26-.21-.58.01-.52.36-2.21,1.07-2.3.15-.02.64-.03,1.33-.03.84,0,2.46.02,2.63.1.32.15.85,2.27.74,2.59-.04.12-.16.17-.25.2-.75,1.14,1.15,5.11,2.29,7.49.35.72.63,1.32.78,1.69.16.4.31.77.34,1.12.25,2.26.16,6.81,0,9.07-.07,1.01-.3,2.05-.52,3.05-.38,1.75-.78,3.56-.39,5.34.08.37.22.73.35,1.07.2.51.4,1.04.44,1.65.05.79-.26,3.33-1.32,3.49h0s-9.55-.1-9.55-.1ZM1.45,22.8c.1.84.28,1.71.45,2.54.33,1.58.66,3.21.49,4.82-.06.58-.28,1.17-.5,1.74-.22.59-.43,1.14-.46,1.65-.03.59.14,1.12.32,1.68.05.15.1.31.15.47l8.52.02c0-.16.07-.37.14-.58.16-.49.32-.99.31-1.45,0-.49-.22-1.05-.43-1.6-.15-.41-.31-.82-.39-1.21-.38-1.98.01-3.94.39-5.83.15-.75.31-1.54.42-2.3l-9.43.06ZM1.45,21.47l.17.14,9.32-.02-.06-7.68-9.43.05v7.5ZM5.78,3.08c-.79,0-.93.1-.95.16v1.8c0,.28-1.38,3.67-1.39,3.7-.22.52-.46,1.04-.71,1.56-.38.79-.77,1.6-1.03,2.43l9.01-.07c-.33-.76-.73-1.59-1.12-2.39-.28-.58-.56-1.17-.8-1.76l-.11-.27c-.66-1.61-1.4-3.43-1.28-5.18,0,.07-.11.07-.24.07-.16,0-.36,0-.58-.01-.25,0-.52-.02-.78-.02ZM4.71,1.97l2.97-.06c-.03-.14-.07-.29-.17-.4-.16-.18-.48-.26-.97-.26-.33,0-.69.04-1.01.07-.27.03-.51.05-.69.05l-.02-.02-.1.62Z" style="fill: #54c0e8;"/>
    <path d="M5.66.11c1.1,0,2.48.03,2.61.1.29.14.82,2.22.71,2.52-.06.16-.28.16-.32.22-.9,1.46,2.5,7.57,3.13,9.2.14.34.3.74.34,1.11.24,2.23.17,6.76,0,9.06-.2,2.78-1.53,5.59-.91,8.4.21.93.73,1.71.79,2.72.05.85-.3,3.28-1.27,3.44l-9.54-.11c-.34-.22-.85-1.92-.9-2.36-.18-1.68.48-2.34.79-3.81.57-2.78-.7-5.41-.91-8.16-.23-3.02.14-6.34.03-9.39.72-2.47,3.96-7.32,3.47-9.82-.06-.33-.38-.32-.37-.84.02-.58.38-2.16,1.03-2.25.15-.02.69-.03,1.32-.03M4.83,1.31s-.05,0-.07,0l-.11.65h3.02c.07-.63-.48-.78-1.15-.78-.6,0-1.3.12-1.7.12M1.63,12.71h9.06c-.48-1.44-1.29-2.81-1.87-4.23-.69-1.69-1.51-3.59-1.39-5.44-.07.01-.17.02-.29.02-.35,0-.89-.03-1.36-.03-.51,0-.96.04-1,.2v1.81c0,.24-1.19,3.2-1.39,3.68-.55,1.34-1.31,2.63-1.75,3.99M1.57,21.65h9.36v-7.73H1.39v7.55l.18.18M10.94,22.74H1.39c.28,2.45,1.21,4.93.95,7.42-.12,1.15-.9,2.37-.96,3.39-.04.78.26,1.45.48,2.17l8.57.06c.17-.65.52-1.41.5-2.09-.02-.86-.64-1.91-.81-2.82-.53-2.75.44-5.42.81-8.12M5.66,0c-.69,0-1.18.01-1.33.03-.74.1-1.11,1.75-1.12,2.35,0,.35.12.5.23.62.07.08.12.14.14.24.31,1.6-.95,4.22-2.07,6.54-.59,1.22-1.14,2.37-1.4,3.23v.02s0,.02,0,.02c.05,1.35,0,2.79-.04,4.18-.06,1.74-.12,3.54.01,5.22.08,1.01.3,2.02.52,3,.37,1.67.75,3.39.39,5.13-.1.51-.25.92-.4,1.31-.26.73-.51,1.41-.39,2.53.04.39.54,2.18.95,2.44l.03.02h.03s9.54.11,9.54.11c1.11-.17,1.43-2.75,1.38-3.55-.04-.62-.24-1.15-.44-1.66-.13-.34-.27-.7-.35-1.07-.39-1.77,0-3.57.39-5.32.22-1,.45-2.04.52-3.06.17-2.26.25-6.81,0-9.08-.04-.35-.19-.73-.32-1.07l-.03-.07c-.15-.37-.43-.95-.78-1.69-1.13-2.37-3.03-6.33-2.36-7.4,0,0,0,0,0,0,0,0,.03,0,.04-.01.09-.03.23-.09.28-.23.12-.35-.42-2.5-.76-2.66-.22-.1-2.41-.11-2.66-.11h0ZM4.86,1.42c.18,0,.42-.03.67-.05.32-.03.68-.07,1-.07.48,0,.79.08.93.25.07.08.11.18.11.31h-2.79l.07-.43h0ZM4.89,3.25s.16-.11.89-.11c.25,0,.53,0,.78.02.22,0,.42.01.58.01.07,0,.13,0,.18,0-.08,1.73.65,3.51,1.29,5.08l.11.28c.24.6.53,1.19.81,1.77.36.75.74,1.53,1.01,2.31H1.79c.26-.77.63-1.54.98-2.28.24-.51.5-1.04.72-1.56.01-.03,1.4-3.43,1.4-3.72v-1.79h0ZM1.5,14.03h9.32v7.51H1.62l-.12-.12v-7.4h0ZM1.52,22.85h9.29c-.1.73-.25,1.46-.4,2.18-.38,1.9-.78,3.87-.39,5.85.08.39.23.81.39,1.22.2.54.41,1.1.42,1.58,0,.46-.15.95-.31,1.43-.06.19-.12.37-.17.55l-8.41-.06c-.04-.13-.08-.26-.13-.39-.18-.55-.36-1.08-.32-1.66.03-.5.24-1.05.46-1.64.22-.57.44-1.17.5-1.75.17-1.63-.17-3.26-.5-4.84-.17-.81-.34-1.65-.44-2.48h0Z" style="fill: #54c0e8;"/>
  </g>
  <g>
    <path d="M15.71,36.93c-.37-.1-.37-.67-.36-.84.04-.86.22-1.72.39-2.54.27-1.3.55-2.64.31-4.07-.22-1.27-.54-2.57-.85-3.82-.71-2.81-1.44-5.73-1.06-8.8.14-.34.13-.83.11-1.31-.03-.9-.07-1.83.85-1.94h7.79s1.59-5.88,1.59-5.88c.74-.4,1.51-.68,2.25-.95l.63-.23.48-.18c1.09-.42,3.12-1.21,3.58-1.22h0c.35,0,.58.14.65.38.08.28-.08.6-.39.79l-6.22,2.37-1.29,4.98,2.06-.07c.14,0,.26.05.35.14.28.29.26.94.25,1.41,0,.15,0,.28,0,.37.23,3.33.11,6-.4,8.68-.15.8-.38,1.63-.61,2.43-.46,1.67-.94,3.39-.79,5.06.03.37.16.99.3,1.64.26,1.24.55,2.66.39,3.2-.02.08-.23.37-.33.37h-9.66ZM19.69,17.1c-1.64,0-2.97.02-4.17.07l-.05.12c-.12,2.28.05,4.58.53,7.01.15.73.35,1.47.57,2.25.44,1.57.89,3.2.82,4.71-.02.42-.14.96-.25,1.49-.13.6-.25,1.16-.24,1.53,0,.16,0,.25.11.33l.02-.02.13-.06h7.19c-.11-.26-.18-.6-.25-.94-.12-.57-.25-1.17-.29-1.73-.15-1.99.39-4.11.92-6.16.37-1.44.75-2.93.89-4.36.09-.95.24-4.03.03-4.19-.41-.05-.86-.05-1.23-.05h-2.54c-.73,0-1.45,0-2.18,0ZM23.55,15.98l2.12-.06-.06-1.03-1.95.05-.12,1.04ZM15.46,15.97l6.65-.06c.2-.21.26-.54.33-.86l.04-.18-7.02.07v1.03Z" style="fill: #54c0e8;"/>
    <path d="M31.44,5.22c.73,0,.76.73.2,1.07l-6.21,2.37-1.32,5.02h2.11c.74,0,.51,1.4.54,1.87.21,2.97.16,5.72-.4,8.67-.47,2.45-1.63,5.01-1.4,7.51.1,1.07.93,4,.68,4.82-.03.09-.23.33-.28.33h-9.66c-.28-.08-.32-.53-.3-.78.1-2.22,1.1-4.26.7-6.62-.7-4.12-2.46-8.16-1.91-12.6.4-.92-.44-3.04.91-3.2h7.78s1.65-5.92,1.65-5.92c.91-.46,1.89-.79,2.84-1.14.72-.27,3.5-1.38,4.04-1.4,0,0,.02,0,.03,0M23.5,15.97h2.17v-1.09h-2.05l-.12,1.09M22.53,14.89h-7.13v1.09h6.7c.29-.28.34-.71.42-1.09M17.02,34.67c.06,0,.11-.09.13-.09h7.19c-.14-.88-.42-1.84-.48-2.72-.25-3.38,1.47-7.02,1.81-10.51.06-.6.27-4.05,0-4.24-.41-.05-.84-.06-1.26-.06-.31,0-.63,0-.94,0-.02,0-.03,0-.05,0-.07,0-.13,0-.2,0-.3,0-.59,0-.88,0-.16,0-.32,0-.48,0-.73,0-1.45,0-2.18,0-1.39,0-2.79.01-4.17.07l-.1.15c-.14,2.41.05,4.7.53,7.05.44,2.21,1.5,4.71,1.39,6.94-.04.87-.52,2.3-.49,3.02,0,.15,0,.27.13.37.02.01.03.02.05.02M31.44,5.11h-.03c-.47.01-2.51.8-3.6,1.22-.2.08-.36.14-.47.18-.21.08-.42.16-.63.23-.74.27-1.51.55-2.22.92l-.04.02v.05s-1.64,5.83-1.64,5.83h-7.7c-.98.12-.94,1.12-.91,2,.02.47.03.96-.1,1.27h0s0,.03,0,.03c-.38,3.08.35,6,1.06,8.82.31,1.25.64,2.54.85,3.81.24,1.43-.04,2.76-.31,4.05-.17.83-.35,1.68-.39,2.55,0,.18,0,.78.38.89h.01s.02,0,.02,0h9.66c.13,0,.36-.32.38-.41.17-.56-.13-1.98-.38-3.23-.13-.65-.26-1.27-.3-1.64-.15-1.66.33-3.38.79-5.04.22-.8.45-1.63.61-2.44.51-2.68.63-5.36.4-8.69,0-.09,0-.22,0-.36.01-.48.03-1.15-.26-1.45-.1-.11-.24-.16-.39-.16h-1.97l1.27-4.83,6.16-2.35c.35-.21.52-.56.44-.86-.07-.26-.33-.42-.67-.42h0ZM23.72,15h1.85v.87h-1.94l.1-.87h0ZM15.52,15h6.88s0,.03,0,.05c-.06.3-.12.61-.32.82h-6.55v-.87h0ZM15.58,17.22c1.19-.04,2.5-.07,4.11-.07.73,0,1.46,0,2.18,0,.16,0,.32,0,.48,0h.44s.44,0,.44,0h.2s.05,0,.05,0c.15,0,.31,0,.47,0,.16,0,.31,0,.47,0,.36,0,.79,0,1.21.06.16.32.02,3.24-.06,4.12-.14,1.43-.52,2.92-.89,4.36-.53,2.05-1.07,4.17-.92,6.17.04.56.17,1.16.29,1.74.06.29.12.58.17.87h-7.06c-.06,0-.09.04-.12.06,0,0,0,0-.01.01-.06-.06-.07-.12-.07-.24v-.03c-.01-.36.11-.95.24-1.52.12-.53.23-1.08.25-1.5.07-1.52-.38-3.15-.82-4.73-.22-.78-.42-1.52-.57-2.24-.48-2.42-.65-4.7-.53-7l.05-.07h0Z" style="fill: #54c0e8;"/>
  </g>
  <g>
    <path d="M8.2,31.81c-.23,0-.52-.11-.63-.34-.13-.27-.11-4.62-.04-5.02.06-.31.27-.48.58-.48.27,0,.59.15.59.35v5.2c-.06.2-.25.31-.5.31Z" style="fill: #54c0e8;"/>
    <path d="M8.11,26.01c.27,0,.53.15.53.29v5.2c-.05.17-.24.25-.44.25-.23,0-.49-.11-.58-.31-.11-.23-.12-4.54-.03-4.99.06-.33.3-.44.53-.44M8.11,25.9c-.33,0-.57.2-.63.53-.09.47-.09,4.78.04,5.06.12.26.43.37.68.37.27,0,.48-.13.55-.33v-.02s0-.02,0-.02v-5.2c0-.23-.34-.4-.64-.4h0Z" style="fill: #54c0e8;"/>
  </g>
  <g>
    <path d="M4.16,31.8c-.25,0-.53-.11-.53-.3v-5.2c.06-.23.24-.37.47-.37.33,0,.68.29.74.84.08.79.04,1.68,0,2.53-.03.69-.06,1.4-.03,2.05-.08.29-.32.45-.65.45Z" style="fill: #54c0e8;"/>
    <path d="M4.1,25.99c.29,0,.63.26.68.79.14,1.43-.1,3.12-.03,4.58-.09.28-.35.39-.59.39s-.47-.11-.47-.24v-5.2c.06-.21.23-.31.41-.31M4.1,25.88h0c-.25,0-.45.15-.52.39h0v5.23c0,.22.3.35.58.35.35,0,.61-.17.7-.47v-.02s0-.02,0-.02c-.03-.65,0-1.36.03-2.04.04-.86.08-1.74,0-2.54-.06-.58-.44-.89-.79-.89h0Z" style="fill: #54c0e8;"/>
  </g>
  <g>
    <path d="M6.2,31.79c-.13,0-.26-.05-.41-.11l-.18-.07-.04-5.31c.07-.25.34-.35.58-.35.18,0,.35.06.45.16.27.27.21,2.55.13,4.67-.01.29-.02.52-.02.66-.18.25-.33.35-.51.35Z" style="fill: #54c0e8;"/>
    <path d="M6.15,26.01c.16,0,.31.05.41.14.33.33.1,4.53.09,5.29-.17.22-.31.29-.45.29-.16,0-.34-.09-.57-.17v-5.26c.05-.19.29-.29.53-.29M6.15,25.9c-.26,0-.56.12-.63.37h0v5.36l.07.03c.06.02.12.04.18.07.16.06.29.11.43.11.2,0,.36-.1.54-.34l.02-.03v-.04c0-.13.01-.36.02-.65.1-2.72.11-4.46-.14-4.71-.11-.11-.29-.17-.49-.17h0Z" style="fill: #54c0e8;"/>
  </g>
</svg>