<?xml version="1.0" encoding="UTF-8"?>
<svg id="Capa_1" data-name="Capa 1" xmlns="http://www.w3.org/2000/svg" viewBox="0 0 42.07 35.96">
  <path d="M2.95,7.66c.72.38,1.52-.29,1.68.9s.13,4.6,0,5.86c-.04.36-.1.74-.51.83-.49.11-2.89.09-3.45.02-.22-.03-.4-.09-.53-.27l-.03-6.78c.18-.77,1.44-.18,1.57-.56.13-1.05-.13-2.35,0-3.37.03-.23.17-.42.38-.51.54-.21,3.32.05,3.44-.07-.19-1.62.66-3.09,2.29-3.44,8.75-.17,17.58-.21,26.33.02,1.6.37,2.46,1.84,2.31,3.43.13.12,2.98-.15,3.53.07.21.08.35.28.38.51.13,1.02-.12,2.32,0,3.37.13.39,1.39-.2,1.57.56l-.03,6.78c-.06.08-.15.16-.25.2-.31.13-3,.12-3.49.07-.59-.05-.69-.28-.75-.85-.13-1.26-.16-4.64,0-5.86s.96-.52,1.68-.9v-2.62h-2.62l-.13.13v22.66c.71.48,1.41,1.03,1.51,1.95.25,2.14-1.44,3.12-3.38,2.89.07,1.15.05,2.54-1.23,2.99-.53.19-3.24.19-3.88.11-.58-.08-1.56-.87-1.56-1.46v-1.64h-13.95v1.55c0,.44-.78,1.22-1.2,1.38-.68.27-3.61.28-4.29.01-.44-.17-.86-.56-1.05-1-.05-.11-.22-.68-.22-.76v-1.29c-3.1.52-4.32-3.31-1.6-4.75V5.04h-2.58v2.62ZM35.12,3.71c.12-1.33-.38-2.1-1.73-2.22H8.68c-.73,0-1.53.33-1.77,1.06-.06.19-.24,1.16,0,1.16h28.22ZM20.28,5.04H6.91l-.13.13v12.08l.13.13h13.38V5.04ZM35.12,5.04h-13.51v12.22l.13.13h13.38V5.04ZM3.31,9.13h-1.96v4.75l.13.13h1.69l.13-.13v-4.75ZM40.72,9.13h-1.96v4.89h1.96v-4.89ZM35.12,18.64H6.91l-.13.13v8.8l.13.13h28.22v-9.06ZM6.22,29.05c-1,.26-1.19,1.58-.31,2.13l29.8.07c1.37-.17,1.12-2.23-.18-2.23l-29.31.02ZM12.64,32.68h-4.18v1.29s.18.36.2.38c.27.26,3,.05,3.56.09.44-.13.42-1.38.42-1.76ZM33.26,32.68h-4.09v1.47c0,.06.29.29.4.31.43.08,2.64.07,3.11,0,.21-.03.57-.31.57-.49v-1.29Z" style="fill: #54c0e8; stroke: #54c0e8; stroke-miterlimit: 10; stroke-width: .25px;"/>
  <path d="M8.49,25c-2.62-2.66,1.37-6.63,4.01-4.06s-1.32,6.79-4.01,4.06ZM10.12,21.5c-1.8.38-1.33,3.41.76,2.98,1.8-.37,1.35-3.42-.76-2.98Z" style="fill: #54c0e8; stroke: #54c0e8; stroke-miterlimit: 10; stroke-width: .25px;"/>
  <path d="M30.84,20.17c3.76-.45,4.24,5.23.77,5.65-3.85.47-4.46-5.22-.77-5.65ZM30.83,21.5c-1.59.27-1.55,2.79.08,2.99,2.38.3,2.32-3.39-.08-2.99Z" style="fill: #54c0e8; stroke: #54c0e8; stroke-miterlimit: 10; stroke-width: .25px;"/>
  <path d="M15.86,24.35c.13-.13.45-.19.64-.21,2.76-.25,5.91.2,8.71,0,.93,0,1.13,1.22.18,1.33l-9.43-.08c-.34-.25-.4-.75-.1-1.05Z" style="fill: #54c0e8; stroke: #54c0e8; stroke-miterlimit: 10; stroke-width: .25px;"/>
  <path d="M15.86,20.79c.12-.12.55-.19.73-.2,2.73-.23,5.77.18,8.53,0,.97-.07,1.3,1.22.27,1.33l-9.43-.08c-.34-.23-.39-.78-.1-1.05Z" style="fill: #54c0e8; stroke: #54c0e8; stroke-miterlimit: 10; stroke-width: .25px;"/>
</svg>