<?xml version="1.0" encoding="UTF-8"?>
<svg id="Capa_1" xmlns="http://www.w3.org/2000/svg" version="1.1" viewBox="0 0 170.85 106.43">
  <!-- Generator: Adobe Illustrator 30.2.1, SVG Export Plug-In . SVG Version: 2.1.1 Build 1)  -->
  <defs>
    <style>
      .st0 {
        fill: none;
        stroke: #54c0e8;
        stroke-linecap: round;
        stroke-linejoin: round;
        stroke-width: 8.96px;
      }
    </style>
  </defs>
  <circle class="st0" cx="31.45" cy="25.81" r="21.33"/>
  <path class="st0" d="M58.44,101.44v-27.31c0-14.9-12.08-26.98-26.98-26.98h0c-14.9,0-26.98,12.08-26.98,26.98v27.31h31.31"/>
  <circle class="st0" cx="139.39" cy="25.81" r="21.33"/>
  <path class="st0" d="M112.41,101.44v-27.31c0-14.9,12.08-26.98,26.98-26.98h0c14.9,0,26.98,12.08,26.98,26.98v27.31h-31.31"/>
  <circle class="st0" cx="85.42" cy="25.81" r="21.33"/>
  <path class="st0" d="M112.41,101.44v-27.31c0-14.9-12.08-26.98-26.98-26.98h0c-14.9,0-26.98,12.08-26.98,26.98v27.31"/>
  <line class="st0" x1="74.3" y1="101.95" x2="96.54" y2="101.95"/>
</svg>