<?xml version="1.0" encoding="UTF-8"?>
<svg id="Capa_1" data-name="Capa 1" xmlns="http://www.w3.org/2000/svg" viewBox="0 0 58.87 40.87">
  <circle cx="9.5" cy="6.36" r="5.21" style="fill: none; stroke: #54c0e8; stroke-miterlimit: 10; stroke-width: 2.3px;"/>
  <path d="M9.5,11.5h0c4.61,0,8.35,3.74,8.35,8.35v8.85H1.15v-8.85c0-4.61,3.74-8.35,8.35-8.35Z" style="fill: none; stroke: #54c0e8; stroke-miterlimit: 10; stroke-width: 2.3px;"/>
  <path d="M5.99,28.7h7.02v7.51c0,1.94-1.57,3.51-3.51,3.51h0c-1.94,0-3.51-1.57-3.51-3.51v-7.51h0Z" style="fill: none; stroke: #54c0e8; stroke-miterlimit: 10; stroke-width: 2.3px;"/>
  <circle cx="29.45" cy="6.36" r="5.21" style="fill: none; stroke: #54c0e8; stroke-miterlimit: 10; stroke-width: 2.3px;"/>
  <path d="M29.45,11.5h0c4.61,0,8.35,3.74,8.35,8.35v8.85h-16.7v-8.85c0-4.61,3.74-8.35,8.35-8.35Z" style="fill: none; stroke: #54c0e8; stroke-miterlimit: 10; stroke-width: 2.3px;"/>
  <path d="M25.94,28.7h7.02v7.51c0,1.94-1.57,3.51-3.51,3.51h0c-1.94,0-3.51-1.57-3.51-3.51v-7.51h0Z" style="fill: none; stroke: #54c0e8; stroke-miterlimit: 10; stroke-width: 2.3px;"/>
  <circle cx="49.37" cy="6.36" r="5.21" style="fill: none; stroke: #54c0e8; stroke-miterlimit: 10; stroke-width: 2.3px;"/>
  <path d="M49.37,11.5h0c4.61,0,8.35,3.74,8.35,8.35v8.85h-16.7v-8.85c0-4.61,3.74-8.35,8.35-8.35Z" style="fill: none; stroke: #54c0e8; stroke-miterlimit: 10; stroke-width: 2.3px;"/>
  <path d="M45.87,28.7h7.02v7.51c0,1.94-1.57,3.51-3.51,3.51h0c-1.94,0-3.51-1.57-3.51-3.51v-7.51h0Z" style="fill: none; stroke: #54c0e8; stroke-miterlimit: 10; stroke-width: 2.3px;"/>
</svg>