<?xml version="1.0" encoding="UTF-8"?>
<svg id="Capa_1" data-name="Capa 1" xmlns="http://www.w3.org/2000/svg" viewBox="0 0 35.26 35.26">
  <path d="M17.54,0C3.58.08-4.79,15.75,2.96,27.42c6.82,10.26,21.91,10.5,29.04.44C40.29,16.18,31.82-.08,17.54,0ZM30.48,25.57c-5.57,9.1-18.86,9.62-25.08.94C-1.54,16.82,4.84,3.34,16.69,2.57c12.19-.8,20.19,12.55,13.79,23.01Z" style="fill: #54c0e8;"/>
  <path d="M16.58,5.62c-.04.06-.22.43-.22.47v10.28H7.36c-.2,0-.69.38-.81.55-.6.85-.04,1.82.9,2,2.92-.2,6.25.29,9.12,0,1.22-.12,2.23-1.13,2.35-2.35V6.18c-.18-1.14-1.67-1.54-2.34-.56Z" style="fill: #54c0e8;"/>
</svg>