<?xml version="1.0" encoding="UTF-8"?>
<svg id="Capa_1" data-name="Capa 1" xmlns="http://www.w3.org/2000/svg" viewBox="0 0 36 37.21">
  <g>
    <g>
      <path d="M21.54,36.96c-4.39,0-8.33-.69-10.8-1.88-.73-.35-1.22-.73-1.83-1.26H1.91c-.43-.2-.4-.92-.38-1.5,0-.17.01-.31,0-.41-.42-5.63-.69-11.38-.95-16.94l-.15-3.21c-.01-.22-.04-.47-.08-.74-.08-.61-.17-1.3-.02-1.78.08-.26.53-.79.86-.79h1.44s0-.07,0-.09l-1.25-4.21c-.09-.62.04-.76.56-.97l4.46-1.31.48.21,2.12,6.95-.02-8.28c.09-.33.61-.4.83-.42.54-.05,1.35-.08,2.26-.08s1.87.03,2.51.08c.54.04.78.15.84.75.07.7.02,1.42-.03,2.13-.03.37-.05.74-.06,1.11-.04,1.65-.07,3.3-.08,4.95l2.49-6.48.3-.12,4.91,2,.07.54-1.39,3.18.05.08h1.28c.42,0,.92.73.92,1.1l-.79,6.54,3.06.44c4.02.7,9.84,3.84,9.59,8.35-.01.25-.11.53-.2.8-.08.25-.16.48-.15.62.01.28.09.53.16.81.12.41.25.88.18,1.5-.05.42-.23.78-.4,1.1-.12.22-.22.43-.26.63-.05.25-.05.56-.05.88,0,.35,0,.71-.06,1.03-.4,2.04-2.11,2.79-3.82,3.38-2.43.84-5.93,1.32-9.61,1.32ZM9.4,31.48c-.02.06-.04.23,0,.49.16,1.13,1.11,1.71,2.02,2.13,2.31,1.07,5.98,1.68,10.08,1.68h0c3.91,0,7.65-.58,9.99-1.54,1.42-.59,2.33-1.27,2.38-2.79-.24.11-.48.24-.71.38-.23.13-.46.26-.7.37-1.13.51-2.33.8-3.67,1.1-.15.03-.33.05-.52.08-.28.03-.57.07-.76.14-.07.03-.15.13-.22.24-.12.17-.27.39-.53.41h0c-.22,0-.43-.18-.65-.37-.13-.11-.31-.27-.38-.27-.14.09-.22.14-.31.15-1.31.15-2.82.22-4.35.22-4.21,0-7.92-.58-10.19-1.58-.16-.07-.46-.25-.75-.43-.26-.16-.61-.37-.72-.41ZM8.78,27.49c-.08.12-.1.76-.06,1.1.05.45.32.88.53,1.16,1.68,2.19,7.33,2.97,12.05,2.97h0c.72,0,1.37-.02,1.89-.05.2-.01.41-.05.62-.08.14-.02.29-.05.43-.07-1.16-.81-2.65-1.48-4.15-1.87-1.07-.28-2.19-.38-3.27-.49-.83-.08-1.68-.16-2.52-.32-1.39-.26-3.96-.92-5.47-2.36h-.06ZM8.35,32.67c-.12-.44-.13-.91-.15-1.36-.01-.33-.03-.66-.08-.97-.03-.2-.14-.42-.25-.65-.14-.29-.29-.59-.32-.9-.04-.32-.03-1.04,0-1.38.02-.17.1-.38.18-.59.07-.19.16-.4.15-.5,0-.08-.08-.26-.14-.42-.09-.21-.17-.42-.2-.59-.45-3.62,2.94-6,4.41-6.85,2.7-1.56,6.03-2.36,9.9-2.39l.73-6.4-2.28.04c-.16,1.67-1.51,3.07-3.64,3.76-1.22.39-2.9.62-4.62.62s-6.11-.27-7.71-2.79c-.2-.31-.29-.62-.38-.92-.08-.27-.16-.52-.3-.75H1.56s-.08.05-.11.06c-.01.11,0,.23,0,.36.08,1.48.17,2.96.27,4.44.17,2.6.34,5.28.41,7.93l.59,10.24h5.64ZM22.79,30.4c1.17.44,2.22,1.16,3.24,1.86l.53.36,2-2.72-.75.09c-1.23.15-2.49.3-3.75.39h-.13c-.11,0-.24,0-.37-.01-.13,0-.26-.02-.39-.02-.16,0-.29.01-.39.04ZM28.58,32.17l.16-.06c2.35-.57,6.27-1.53,5.75-4.59-.17.08-.53.36-.72.51-.14.11-.26.2-.32.24-.44.26-.91.47-1.38.67-.6.26-1.23.52-1.74.92-.53.41-.96,1-1.37,1.56-.17.24-.34.47-.52.7l.14.06ZM21.37,17.28c-4.22.05-9.73,1.61-11.85,4.92-.87,1.35-1.07,2.54-.59,3.52,1.16,2.39,6,3.11,8.02,3.31,1.26.12,2.88.19,4.45.19,2.85,0,9.74-.25,12.17-2.57.69-.66,1.01-1.43.96-2.3-.1-1.63-1.52-3.25-2.7-4.14-2.44-1.83-6.27-2.93-10.23-2.93h-.24ZM11.46,12.86c.43.02.86.04,1.29.04.32,0,.64-.01.96-.04.1,0,.19-.03.26-.06.12-1.28.1-2.59.09-3.86,0-.7-.02-1.41,0-2.11.01-.54.05-1.09.09-1.64.04-.53.08-1.05.09-1.57v-.4c.03-.53.06-1.26,0-1.61-.01-.08-.03-.1-.07-.13l-4,.02v11.28c.11.06.26.09.48.09.1,0,.21,0,.31-.01.11,0,.21-.01.31-.01h.2ZM18.44,4.12l-3.04,8.46c1.43-.23,3.06-1.05,3.56-2.25.07-.16.11-.35.15-.55.1-.44.21-.93.61-1.17.09-.05.21-.09.33-.12.13-.04.3-.08.34-.15l1.22-2.99-3.05-1.29-.12.06ZM2.66,4.38l1.2,4c.04.06.16.09.29.13.09.03.19.05.28.1.39.23.48.67.57,1.06.03.15.06.29.11.42.46,1.29,1.69,2.12,3.66,2.49L6.08,3.22l-3.38,1.02-.03.14Z" style="fill: #006ab7;"/>
      <path d="M21.53,37.09c-4.4,0-8.36-.69-10.85-1.89-.73-.35-1.22-.72-1.83-1.25l-6.99-.02c-.5-.22-.48-.99-.46-1.6,0-.18.01-.31,0-.4-.42-5.63-.69-11.37-.95-16.93l-.15-3.23c-.01-.21-.05-.47-.08-.73-.08-.62-.18-1.33-.01-1.84.09-.29.58-.87.98-.87h1.3l-1.22-4.14c-.1-.7.07-.89.63-1.12l4.51-1.33.57.25,1.89,6.2-.02-7.45v-.02c.11-.38.64-.49.94-.51.54-.05,1.35-.08,2.27-.08s1.87.03,2.52.08c.58.04.89.19.95.86.07.71.02,1.44-.03,2.14-.03.4-.05.75-.06,1.11-.03,1.26-.06,2.72-.07,4.26l2.26-5.89.39-.15,5.02,2.04.09.65v.03s-1.37,3.08-1.37,3.08h1.17c.51,0,1.05.8,1.05,1.23l-.78,6.43,2.94.42c4.06.71,9.95,3.89,9.7,8.48-.01.27-.11.55-.2.83-.07.21-.15.45-.15.58.01.26.08.51.16.77.12.43.26.91.19,1.56-.05.44-.24.81-.41,1.14-.11.22-.22.42-.26.6-.05.24-.05.56-.05.86,0,.35,0,.72-.06,1.06-.41,2.11-2.15,2.88-3.9,3.48-2.44.84-5.96,1.33-9.65,1.33h0ZM1.94,33.68h7s.04.04.04.04c.6.52,1.09.89,1.81,1.24,2.46,1.19,6.38,1.87,10.74,1.87h0c3.66,0,7.15-.48,9.56-1.31,1.68-.58,3.35-1.31,3.74-3.29.06-.32.06-.67.06-1.01,0-.31,0-.64.05-.91.04-.21.16-.43.27-.66.16-.31.34-.66.38-1.06.06-.6-.06-1.05-.18-1.45-.08-.28-.15-.54-.17-.83,0-.17.07-.41.16-.67.09-.26.18-.53.19-.77.25-4.43-5.51-7.53-9.49-8.22l-3.18-.46.8-6.66c0-.29-.46-.96-.8-.96h-1.35l-.12-.2.03-.06,1.38-3.15-.06-.43-4.8-1.95-.2.08-2.71,7.07v-.69c.02-1.78.05-3.5.08-4.95,0-.36.03-.73.06-1.1.05-.72.1-1.44.04-2.12-.05-.5-.21-.59-.72-.63-.64-.05-1.58-.08-2.5-.08s-1.71.03-2.25.08c-.15.01-.63.08-.72.32l.02,9.1-2.35-7.71-.38-.17L1.99,3.3c-.46.19-.55.28-.47.84l1.24,4.19s0,.02,0,.03l.81.22H1.19c-.24,0-.66.46-.74.7-.15.46-.06,1.13.02,1.73.04.26.07.52.08.75l.15,3.21c.26,5.57.53,11.31.95,16.93,0,.1,0,.24,0,.4-.02.55-.04,1.21.28,1.38ZM21.5,35.91c-4.12,0-7.81-.62-10.14-1.69-.94-.44-1.92-1.04-2.09-2.23-.03-.24-.03-.46.01-.56l.04-.11.11.04c.12.04.42.22.75.42.29.17.58.35.74.42,2.25,1,5.95,1.57,10.14,1.57,1.53,0,3.03-.08,4.34-.22.05,0,.1-.04.22-.11l.07-.04h.04c.1,0,.22.1.45.3.2.18.4.34.57.34.19-.02.31-.2.42-.35.1-.14.18-.25.28-.29.21-.08.5-.12.79-.15.2-.02.37-.04.51-.08,1.34-.3,2.54-.59,3.65-1.09.24-.11.47-.24.69-.37.22-.13.47-.27.72-.38l.18-.08v.2c-.06,1.59-1.03,2.31-2.46,2.9-2.36.97-6.12,1.55-10.04,1.55ZM9.51,31.67c0,.07,0,.17.02.29.15,1.07,1.07,1.63,1.95,2.04,2.29,1.06,5.95,1.67,10.03,1.67s7.61-.57,9.95-1.53c1.32-.54,2.16-1.15,2.29-2.47-.17.09-.34.18-.51.28-.23.13-.47.27-.72.38-1.14.51-2.35.8-3.7,1.1-.15.03-.33.05-.52.08-.29.03-.57.07-.74.14-.04.02-.13.14-.16.19-.13.19-.31.43-.62.46h0c-.28,0-.52-.2-.75-.4-.07-.06-.21-.18-.29-.23-.12.08-.2.12-.31.14-1.31.15-2.82.23-4.36.23-4.23,0-7.96-.58-10.24-1.59-.17-.07-.46-.25-.76-.43-.15-.09-.39-.24-.56-.33ZM21.31,32.85c-4.75,0-10.44-.79-12.15-3.02-.22-.29-.5-.74-.56-1.22-.03-.28-.04-1.01.08-1.18l.03-.04.17-.02.04.04c1.49,1.43,4.03,2.07,5.41,2.33.82.15,1.66.23,2.48.31l.03.13v-.12c1.1.1,2.22.21,3.29.49,1.52.39,3.01,1.06,4.19,1.89l.27.19-.33.04c-.14.02-.29.04-.43.07h-.03c-.2.04-.4.07-.6.08-.57.03-1.22.05-1.9.05ZM8.86,27.68c-.03.2-.04.61,0,.9.05.42.3.83.51,1.09,1.66,2.16,7.26,2.93,11.96,2.93.67,0,1.32-.02,1.88-.05.18,0,.37-.04.57-.08h.03s.08-.02.12-.02c-1.1-.72-2.49-1.32-3.84-1.67-1.06-.27-2.17-.38-3.24-.48h-.04c-.82-.08-1.67-.16-2.5-.32-1.38-.26-3.88-.89-5.43-2.3ZM26.59,32.8l-.63-.43c-1.02-.7-2.06-1.42-3.21-1.85l-.37-.14.38-.1c.2-.05.51-.05.82-.03.13,0,.25.02.36.02h.13c1.25-.09,2.52-.24,3.74-.39l1.04-.13-2.24,3.05ZM23.33,30.48c.99.44,1.89,1.06,2.76,1.67l.44.3,1.76-2.39-.46.06c-1.22.15-2.49.3-3.76.39h-.14c-.12,0-.24,0-.37-.01-.08,0-.16,0-.24-.01ZM8.51,32.79H2.59l-.6-10.36c-.06-2.65-.24-5.33-.41-7.92-.1-1.58-.2-3-.27-4.44,0-.14-.01-.26,0-.38v-.06s.07-.03.07-.03c.03-.01.05-.03.09-.05l.03-.02h.05s2.18,0,2.18,0l.04.06c.15.25.23.5.31.78.09.3.18.6.37.9,1.57,2.46,5.84,2.73,7.61,2.73s3.37-.22,4.58-.61c2.07-.67,3.4-2.04,3.55-3.65v-.11s2.55-.05,2.55-.05l-.76,6.65h-.11c-3.85.02-7.16.82-9.84,2.37-1.46.84-4.79,3.18-4.35,6.72.02.16.1.36.19.56.1.23.15.37.15.46,0,.12-.06.29-.16.55-.08.2-.16.41-.18.56-.04.33-.05,1.04,0,1.35.04.29.17.58.31.86.12.25.23.47.26.69.05.31.06.64.08.96.02.47.04.93.15,1.36l.04.16ZM2.83,32.54h5.36c-.08-.41-.1-.82-.12-1.22-.01-.36-.03-.67-.08-.96-.03-.18-.13-.39-.24-.61-.14-.29-.3-.61-.34-.94-.04-.33-.03-1.06,0-1.41.02-.18.11-.4.19-.61.06-.16.15-.38.15-.46,0-.05-.08-.24-.12-.35-.1-.23-.19-.45-.21-.64-.46-3.7,2.98-6.11,4.47-6.97,2.69-1.56,6.01-2.36,9.85-2.4l.7-6.15-2.03.04c-.21,1.67-1.59,3.07-3.71,3.76-1.23.4-2.93.63-4.65.63s-6.18-.28-7.82-2.85c-.21-.33-.3-.65-.4-.95-.07-.24-.14-.46-.25-.66H1.59s-.02.01-.03.02c0,.08,0,.17,0,.27.08,1.44.17,2.86.27,4.44.17,2.6.34,5.28.41,7.93l.58,10.12ZM28.58,32.3l-.33-.14.1-.13c.17-.22.34-.44.52-.69.42-.57.84-1.16,1.39-1.59.52-.41,1.15-.68,1.77-.94.46-.2.93-.4,1.36-.66.06-.04.16-.12.29-.21.28-.22.6-.46.76-.54l.15-.07.03.16c.54,3.17-3.45,4.15-5.84,4.73l-.19.08ZM34.39,27.72c-.19.12-.44.32-.55.4-.16.12-.27.21-.33.25-.44.27-.92.47-1.39.67-.6.26-1.22.52-1.71.91-.52.4-.94.98-1.34,1.54-.12.17-.25.34-.37.5,2.27-.55,6.01-1.47,5.69-4.27ZM21.41,29.35c-1.58,0-3.2-.07-4.46-.19-2.05-.2-6.94-.93-8.12-3.38-.5-1.03-.3-2.25.59-3.64,2.15-3.35,7.71-4.93,11.96-4.98h.24c3.99,0,7.84,1.1,10.31,2.95,1.21.91,2.65,2.56,2.75,4.24.05.9-.28,1.71-1,2.39-2.46,2.35-9.39,2.6-12.26,2.6ZM21.37,17.41c-4.19.05-9.65,1.59-11.75,4.86-.84,1.31-1.04,2.46-.58,3.4,1.13,2.33,5.92,3.04,7.92,3.24,1.25.12,2.87.19,4.44.19,2.83,0,9.69-.25,12.08-2.53.66-.63.97-1.37.92-2.2-.09-1.59-1.49-3.18-2.65-4.05-2.42-1.82-6.21-2.9-10.15-2.9h-.24ZM12.75,13.03c-.42,0-.84-.02-1.25-.04h-.25c-.09,0-.19,0-.29,0-.11,0-.22.01-.33.01-.24,0-.41-.03-.54-.1l-.06-.04V1.39l4.16-.02.03.02c.08.05.11.12.13.21.06.35.04,1.08.02,1.62v.42c-.03.5-.06,1.01-.1,1.51v.06c-.05.61-.08,1.12-.09,1.64-.01.67,0,1.35,0,2.01v.09c.02,1.28.03,2.59-.09,3.87v.08s-.08.03-.08.03c-.09.03-.18.05-.29.06-.3.03-.61.04-.97.04ZM11.27,12.73h.25c.4.03.82.05,1.24.05.35,0,.66-.01.95-.04.06,0,.11-.01.16-.03.11-1.24.09-2.51.08-3.75v-.1c0-.66-.02-1.35,0-2.02.01-.52.05-1.03.09-1.65v-.06c.04-.5.08-1.01.09-1.5v-.41c.03-.54.06-1.25,0-1.58,0-.01,0-.02,0-.03l-3.82.02v11.07c.14.05.41.05.66.03.11,0,.22-.01.31-.01ZM15.2,12.74l.07-.2,3.06-8.5.21-.11.05.02,3.17,1.33-.05.11-1.22,2.99c-.08.12-.22.17-.42.22-.12.03-.22.07-.3.11-.35.21-.46.67-.55,1.09v.04c-.05.19-.09.37-.16.54-.53,1.28-2.27,2.1-3.66,2.32l-.21.03ZM18.54,4.21l-2.95,8.21c1.28-.26,2.79-1.01,3.26-2.13.06-.14.1-.31.14-.5v-.04c.11-.46.23-.99.67-1.25.1-.06.22-.09.34-.13.1-.03.26-.07.29-.11l1.16-2.85-2.89-1.22h-.02ZM8.94,12.73l-.2-.04c-2.02-.37-3.28-1.24-3.76-2.57-.05-.13-.08-.28-.11-.42-.09-.4-.17-.79-.51-.99-.07-.04-.16-.07-.25-.09-.16-.04-.3-.08-.37-.19v-.03s-1.22-4.03-1.22-4.03l.06-.25.07-.02,3.51-1.05,2.78,9.67ZM3.97,8.32s.14.05.21.07c.1.03.21.06.31.11.43.25.54.75.62,1.14.03.15.06.29.1.4.43,1.2,1.56,1.99,3.37,2.37L5.99,3.38l-3.19.96v.04s1.17,3.94,1.17,3.94Z" style="fill: #006ab7;"/>
    </g>
    <g>
      <path d="M12.07.38c.92,0,1.86.03,2.5.08.49.04.67.11.72.63.1,1.06-.07,2.17-.09,3.22-.04,1.88-.08,3.75-.08,5.63l2.71-7.06.25-.1,4.75,1.97.06.47-1.41,3.17.11.2h1.35c.34,0,.8.64.8.98l-.8,6.64,3.18.46c3.78.66,9.73,3.68,9.48,8.22-.03.46-.36,1.1-.35,1.43.03.73.46,1.29.35,2.29-.08.69-.56,1.21-.66,1.71-.11.54,0,1.3-.11,1.92-.38,1.96-2.03,2.7-3.74,3.29-2.46.85-5.99,1.31-9.56,1.31-4.02,0-8.09-.59-10.75-1.87-.72-.35-1.21-.72-1.81-1.24l-7.07-.04c-.4-.19-.22-1.37-.25-1.78-.49-6.7-.78-13.44-1.1-20.15-.03-.71-.32-1.81-.1-2.48.08-.24.49-.7.74-.7h1.44c.06,0,.17-.19.11-.27l-1.24-4.19c-.08-.54.01-.63.49-.82l4.44-1.31.38.2,2.11,7.07s0,0,0,0c.04,0,.16-.11.16-.13V.75c.06-.21.53-.28.72-.3.58-.05,1.41-.08,2.24-.08M10.64,13c.21,0,.43-.02.62-.02.03,0,.06,0,.09,0,.46.02.93.04,1.4.04.32,0,.64-.01.96-.04.13-.01.25-.04.37-.1.19-2,.05-4.03.09-6.04.02-1.05.15-2.16.18-3.21.01-.52.08-1.58,0-2.04-.02-.09-.04-.16-.13-.21h-4.19v11.47c.16.12.38.15.6.15M8.94,12.73L6.19,3.17l-.1-.08-3.51,1.05-.05.21,1.2,4.06c.12.21.43.19.63.31.48.28.45.95.62,1.41.6,1.66,2.35,2.34,3.96,2.6M15.21,12.73c1.38-.17,3.3-.99,3.87-2.35.22-.52.19-1.35.71-1.66.19-.11.59-.13.71-.31l1.28-3.13-3.22-1.36-.17.09-3.17,8.72M2.59,32.79h5.93c-.26-.79-.14-1.69-.27-2.48-.08-.46-.51-1-.58-1.54-.04-.32-.03-1.03,0-1.35.04-.32.34-.86.34-1.11,0-.21-.3-.71-.34-1.02-.38-3.01,1.97-5.35,4.35-6.72,2.99-1.72,6.52-2.36,9.95-2.37l.75-6.55-.07-.1-2.46.05c-.12,1.95-1.82,3.2-3.56,3.76-1.15.37-2.82.61-4.58.61-3.04,0-6.33-.72-7.61-2.73-.38-.6-.36-1.2-.72-1.73H1.53s-.14.09-.2.1c-.03.15-.02.3-.02.45.21,4.12.58,8.23.68,12.36l.6,10.37M21.41,29.35c4.47,0,10.1-.54,12.26-2.6,2.28-2.18.25-5.13-1.75-6.63-2.77-2.08-6.86-2.95-10.3-2.95-.08,0-.16,0-.24,0-3.9.05-9.72,1.49-11.95,4.98-3.35,5.22,3.9,6.67,7.53,7.02,1.12.11,2.7.19,4.46.19M28.53,32.28c2.43-.6,6.75-1.53,6.06-4.91,0,0-.02,0-.03,0-.21,0-.98.67-1.18.79-1,.61-2.21.88-3.13,1.6-.81.63-1.36,1.62-2.01,2.41l.29.12M21.31,32.85c.73,0,1.37-.02,1.9-.05.45-.03.94-.17,1.39-.17-1.27-.96-2.92-1.69-4.47-2.09-1.89-.49-3.87-.45-5.8-.81-1.83-.34-4.07-1.04-5.41-2.33l-.2-.02c-.19.08-.15,1-.13,1.23.05.44.29.87.56,1.22,1.88,2.45,8.19,3.02,12.15,3.02M28.84,29.75c-1.59.19-3.18.4-4.78.51-.04,0-.08,0-.13,0-.23,0-.5-.03-.75-.03-.28,0-.53.04-.69.19,1.51.49,2.8,1.49,4.11,2.37l2.24-3.05M26.73,34.05c-.28,0-.76-.63-1-.65,0,0,0,0,0,0-.1,0-.2.14-.32.15-1.25.14-2.75.22-4.34.22-3.56,0-7.54-.42-10.14-1.57-.34-.15-1.33-.82-1.52-.85,0,0-.01,0-.02,0-.18,0-.13.51-.11.64.16,1.17,1.11,1.78,2.09,2.23,2.47,1.14,6.3,1.69,10.14,1.69s7.57-.53,10.04-1.55c1.47-.6,2.48-1.33,2.46-3.09-.56.21-1.05.58-1.59.82-1.16.52-2.42.81-3.65,1.09-.37.08-.96.09-1.3.23-.25.1-.37.61-.71.64,0,0-.01,0-.02,0M12.07.13c-.91,0-1.72.03-2.27.08-.3.03-.83.13-.93.48v.03s0,.04,0,.04v7.36l-1.79-6-.03-.1-.09-.05-.38-.2-.09-.05-.1.03L1.93,3.06c-.59.24-.76.43-.67,1.1l1.23,4.18h-1.3c-.4,0-.88.57-.98.87-.17.51-.07,1.22.01,1.84.04.26.07.51.08.73l.15,3.26c.26,5.54.53,11.28.95,16.89,0,.1,0,.24,0,.4-.02.61-.05,1.38.4,1.59l.05.02h.06s6.97.04,6.97.04c.59.51,1.08.87,1.79,1.22,2.49,1.2,6.45,1.89,10.86,1.89,3.69,0,7.2-.48,9.65-1.33,1.67-.58,3.49-1.37,3.9-3.48.07-.34.07-.7.06-1.06,0-.32,0-.62.05-.86.04-.18.14-.38.25-.59.17-.33.36-.7.41-1.14.07-.65-.07-1.13-.19-1.55-.08-.26-.15-.51-.16-.78,0-.12.07-.35.15-.58.09-.28.19-.57.2-.83.25-4.58-5.63-7.77-9.69-8.48l-2.95-.42.77-6.4c0-.46-.54-1.26-1.05-1.26h-1.17l1.34-3.01.03-.06v-.07s-.07-.47-.07-.47l-.02-.14-.13-.06-4.75-1.97-.09-.04-.09.04-.25.1-.1.04-.04.1-2.22,5.78c.01-1.53.04-2.99.07-4.26,0-.36.03-.73.06-1.1.05-.71.1-1.44.03-2.15-.07-.73-.46-.82-.95-.86-.65-.05-1.59-.08-2.52-.08h0ZM10.29,1.64h3.81c.07.38.04,1.07.02,1.58,0,.15-.01.29-.01.41-.01.51-.05,1.05-.09,1.56-.04.54-.08,1.1-.09,1.65-.01.7,0,1.41,0,2.12.01,1.23.03,2.51-.08,3.75-.05.01-.1.02-.16.03-.29.03-.59.04-.94.04-.42,0-.85-.02-1.27-.04h-.13s-.1,0-.1,0c-.1,0-.21,0-.31.01-.1,0-.21.01-.31.01-.15,0-.27-.01-.35-.04V1.64h0ZM2.8,4.34l3.19-.96,2.6,9.03c-1.81-.37-2.94-1.17-3.37-2.37-.04-.12-.07-.26-.1-.4-.09-.42-.19-.89-.63-1.14-.1-.06-.21-.09-.31-.11-.09-.02-.18-.05-.22-.08l-1.17-3.96h0ZM15.59,12.42l2.99-8.21,2.87,1.21-1.17,2.86s-.18.07-.26.09c-.12.03-.25.07-.36.13-.44.26-.56.79-.67,1.25-.04.2-.09.38-.15.53-.45,1.08-1.94,1.87-3.25,2.14h0ZM1.56,9.78s.01,0,.02-.01h2.01c.11.2.18.43.25.66.09.31.19.63.4.95,1.63,2.57,6.01,2.85,7.82,2.85s3.43-.23,4.66-.63c2.13-.69,3.5-2.08,3.71-3.76l2.03-.04-.7,6.15c-3.84.04-7.15.84-9.85,2.4-1.5.86-4.94,3.28-4.48,6.97.02.19.12.41.2.62.05.12.13.31.13.37,0,.08-.08.3-.15.46-.08.21-.17.43-.19.62-.04.36-.05,1.08,0,1.41.04.33.19.64.33.93.11.23.21.44.24.62.05.3.06.62.08.95.02.41.03.83.12,1.23H2.83l-.58-10.13c-.06-2.64-.24-5.33-.41-7.93-.1-1.48-.19-2.95-.27-4.43,0-.1,0-.19,0-.27h0ZM21.41,29.1c-1.57,0-3.18-.07-4.44-.19-2-.19-6.79-.9-7.92-3.24-.46-.94-.26-2.09.58-3.4,2.1-3.27,7.56-4.81,11.75-4.86h.24c3.94,0,7.73,1.08,10.15,2.9,1.16.88,2.56,2.46,2.65,4.05.05.83-.26,1.57-.92,2.2-2.4,2.29-9.25,2.53-12.08,2.53h0ZM21.31,32.6c-4.69,0-10.3-.77-11.95-2.92-.21-.27-.46-.68-.51-1.09-.03-.24-.03-.68,0-.9,1.55,1.4,4.06,2.04,5.43,2.3.84.16,1.7.24,2.53.32,1.08.1,2.19.21,3.25.48,1.38.36,2.74.95,3.84,1.67-.04,0-.08.01-.12.02-.21.04-.41.07-.6.08-.56.03-1.21.05-1.88.05h0ZM28.7,31.98c.13-.16.25-.33.37-.5.4-.56.82-1.14,1.34-1.54.5-.39,1.09-.64,1.71-.9.47-.2.95-.41,1.39-.68.07-.04.19-.13.34-.25.14-.1.37-.29.55-.4.33,2.8-3.27,3.68-5.68,4.26h-.01ZM23.93,30.51s.1,0,.14,0c1.27-.08,2.54-.24,3.77-.39l.45-.05-1.76,2.39c-.14-.1-.29-.2-.43-.29-.88-.61-1.78-1.23-2.77-1.67.08,0,.15,0,.23.01.13,0,.26.02.37.02h0ZM26.73,34.3h.04c.31-.03.49-.28.62-.46.05-.07.13-.18.16-.2.18-.07.46-.1.73-.14.19-.02.38-.04.53-.08,1.35-.3,2.56-.59,3.7-1.1.25-.11.49-.25.72-.38.17-.1.34-.19.51-.28-.12,1.31-.94,1.91-2.29,2.47-2.33.96-6.05,1.54-9.95,1.54s-7.74-.61-10.03-1.67c-.88-.41-1.8-.97-1.95-2.04-.02-.11-.02-.21-.02-.29.14.08.38.23.56.33.3.18.59.36.76.43,2.28,1.01,6.02,1.59,10.24,1.59,1.54,0,3.05-.08,4.36-.23.12-.01.21-.08.28-.12,0,0,.01-.01.02-.02.07.04.21.16.29.23.24.21.47.4.71.4h0Z" style="fill: #006ab7;"/>
      <path d="M21.54,37.21c-4.43,0-8.4-.7-10.91-1.91-.72-.35-1.22-.72-1.78-1.2l-7.04-.05-.05-.02c-.52-.25-.5-1.06-.47-1.71,0-.17.01-.3,0-.38-.41-5.61-.68-11.34-.95-16.88l-.16-3.28c0-.2-.04-.44-.08-.69-.09-.66-.19-1.38-.01-1.92.11-.33.62-.96,1.1-.96h1.13l-1.18-4.02c-.11-.77.12-1,.74-1.25l4.6-1.35.66.35.05.15,1.55,5.18V.65c.13-.4.65-.53,1.06-.57.56-.05,1.37-.08,2.28-.08s1.88.03,2.53.08c.52.04.99.14,1.07.97.07.72.02,1.45-.03,2.17-.03.37-.05.74-.06,1.1-.02.88-.05,2.16-.06,3.56l2.03-5.29.54-.21,5.09,2.11.11.79-.04.1-1.26,2.84h.98c.22,0,.45.11.66.33.3.3.51.74.51,1.05l-.76,6.29,2.83.41c4.11.72,10.05,3.95,9.8,8.61-.02.28-.11.58-.21.86-.07.2-.15.44-.14.54.01.25.08.49.15.74.13.44.27.93.19,1.6-.05.47-.25.85-.42,1.18-.11.21-.21.4-.24.56-.05.22-.04.51-.04.82,0,.38,0,.75-.07,1.1-.43,2.18-2.28,2.99-3.98,3.57-2.45.85-5.98,1.33-9.69,1.33ZM30.23,35.93c-2.35.66-5.45,1.03-8.69,1.03,3.24,0,6.34-.37,8.69-1.03ZM21.43,36.96h.11-.11ZM1.95,33.56l7.08.04.04.03c.6.52,1.08.89,1.78,1.22,2.44,1.18,6.34,1.86,10.7,1.86,3.65,0,7.12-.48,9.52-1.3,1.64-.57,3.28-1.28,3.65-3.2.06-.3.06-.65.06-.99,0-.34,0-.66.05-.94.05-.23.16-.45.29-.69.16-.31.33-.63.37-1.01.06-.58-.06-1-.17-1.41-.08-.29-.16-.55-.17-.86,0-.19.08-.44.17-.71.08-.26.17-.52.18-.74.24-4.36-5.45-7.4-9.38-8.09l-3.3-.47.82-6.76c0-.26-.42-.84-.67-.84h-1.43l-.18-.31,1.42-3.2-.05-.36-4.64-1.92-.15.06-2.94,7.65v-.68c0-1.96.04-3.86.08-5.64,0-.37.04-.75.06-1.12.05-.69.1-1.41.03-2.09-.04-.44-.15-.48-.61-.52-.64-.05-1.57-.08-2.5-.08s-1.69.03-2.23.08c-.3.03-.56.12-.6.2v8.36c0,.1-.19.26-.28.26h-.05l-.07-.06v-.03s-2.11-7.02-2.11-7.02l-.29-.15-4.4,1.29c-.42.17-.47.21-.4.69l1.23,4.16c.04.08.03.19-.03.3-.03.05-.1.15-.2.15h-1.44c-.17,0-.55.4-.62.61-.14.43-.05,1.09.03,1.67.04.27.07.53.08.76l.15,3.22c.26,5.55.53,11.3.95,16.92,0,.11,0,.26,0,.44-.01.41-.04,1.08.17,1.22ZM1.89,33.81h.05-.07s-.06-.05-.09-.07c.03.02.05.04.09.06h.02ZM1.53,32.24s0,.04,0,.06c0,.03,0,.06,0,.1v-.07s0-.06,0-.09ZM1.2,26.86c.1,1.69.21,3.38.34,5.06,0,.03,0,.06,0,.1,0-.04,0-.07,0-.1-.12-1.68-.23-3.37-.34-5.06ZM35.1,30.22s-.02.08-.03.12c-.05.25-.05.56-.05.88,0,.12,0,.24,0,.36,0-.12,0-.24,0-.36,0-.34,0-.64.05-.88,0-.04.02-.08.03-.12ZM35.39,26.27s0,.03,0,.04c.01.28.09.54.16.81.12.41.25.88.18,1.5-.03.25-.1.47-.19.68.09-.21.16-.43.19-.68.07-.63-.07-1.09-.18-1.5-.08-.27-.15-.53-.16-.8,0-.01,0-.03,0-.04ZM26.56,16.62c3.99.83,9.42,3.91,9.18,8.27,0,.11-.03.23-.06.36.03-.12.05-.24.06-.36.24-4.36-5.19-7.44-9.18-8.27ZM1.19,8.46c-.33,0-.77.52-.86.79-.16.49-.07,1.17.02,1.78.04.28.07.53.08.74l.15,3.26c.07,1.56.15,3.14.23,4.72-.08-1.6-.15-3.19-.23-4.76l-.15-3.22c0-.21-.04-.47-.08-.74-.08-.61-.17-1.3-.02-1.78.08-.26.54-.79.86-.79h1.41-1.41ZM23.09,16.1l1.24.18-1.24-.18ZM23.87,9.57l-.6,4.98.6-4.97h0ZM8.98,8.97V.72c.05-.14.2-.24.36-.29-.17.06-.32.15-.36.29v.04s0,8.21,0,8.21ZM15.29,6.26c-.02.88-.03,1.78-.04,2.69v-.38c.01-.81.02-1.6.04-2.31ZM22.95,8.46h0ZM21.67,8.46h1.28-1.28ZM1.86,5.74l.78,2.63s0,0,0-.01l-.78-2.62ZM23.01,5.26h0s-.66,1.48-.66,1.48l.66-1.48ZM6.46,1.86l.47.25.02.05,1.17,3.93-1.19-3.98-.47-.25ZM22.94,4.66l.08.57-.08-.57ZM15.33,4.19v.11s0,.1,0,.14c0-.05,0-.1,0-.14v-.11ZM1.43,3.53c-.08.14-.09.32-.05.61h0c-.04-.29-.03-.47.04-.61ZM17.74,2.78l-.47,1.22.47-1.22.34-.13,2.42,1-2.42-1-.34.13ZM15.4,3.08s0,.08,0,.13c0,.07,0,.14-.01.21,0-.07,0-.13.01-.2,0-.05,0-.09,0-.14ZM4.72,2.37l-2.76.81s0,0,0,0l2.77-.81ZM14.66.34c.24.02.42.07.54.17-.13-.12-.31-.15-.54-.17ZM9.93.32s-.08,0-.12,0c-.05,0-.1.01-.17.02.06,0,.12-.02.17-.02.04,0,.08,0,.12-.01ZM21.5,36.04c-4.13,0-7.85-.62-10.19-1.7-.97-.45-1.99-1.08-2.16-2.33-.05-.36-.02-.6.07-.71.04-.05.1-.07.16-.07h.05c.11.03.38.19.82.45.28.17.57.35.72.41,2.24.99,5.92,1.56,10.09,1.56,1.53,0,3.03-.08,4.32-.22.03,0,.07-.03.11-.06.06-.04.14-.09.23-.09.17.01.34.16.54.33.15.13.36.31.46.31h.02c.13-.01.23-.15.33-.3.09-.13.19-.27.33-.33.22-.09.53-.13.83-.16.18-.02.35-.04.49-.07,1.33-.3,2.52-.58,3.63-1.08.23-.1.46-.24.68-.36.29-.17.59-.34.92-.46l.17-.06v.18c.02,1.79-1,2.57-2.53,3.2-2.38.98-6.15,1.56-10.09,1.56ZM21.5,35.79h.04-.04ZM11.18,34c.08.04.16.08.23.11,2.29,1.06,5.94,1.67,10,1.68-4.07,0-7.71-.62-10-1.68-.08-.04-.16-.07-.23-.11ZM9.64,31.89s0,.03,0,.05c.14,1.01,1.02,1.55,1.87,1.94,2.28,1.05,5.91,1.66,9.98,1.66s7.58-.57,9.9-1.53c1.23-.51,1.99-1.03,2.18-2.13-.08.04-.16.09-.24.13l-.05.03c-.22.13-.47.27-.73.38-1.15.52-2.37.81-3.72,1.11-.16.04-.35.06-.54.08-.27.03-.54.07-.7.13,0,.01-.08.11-.1.14-.14.2-.34.49-.71.52h-.05c-.29,0-.53-.21-.79-.43l-.02-.02c-.05-.05-.13-.11-.19-.15-.07.04-.16.1-.29.11-1.31.15-2.83.23-4.38.23-4.24,0-7.99-.58-10.29-1.6-.17-.08-.45-.25-.75-.42l-.17-.1c-.07-.04-.15-.09-.22-.13ZM25.71,33.53l.09.02c.07.04.17.12.28.22l.02.02c.22.19.43.37.63.37-.19,0-.4-.18-.63-.38-.13-.11-.31-.27-.38-.27,0,0,0,0-.01,0ZM21.11,33.9h-.04.04ZM21.12,33.9h0,0ZM21.15,33.9h-.01.01ZM27.4,33.61s-.05.06-.07.09c.03-.04.05-.07.07-.09ZM25.63,33.58s-.08.05-.13.07c.05-.02.09-.05.13-.07ZM29.08,33.24c-.1.02-.2.04-.3.07-.12.03-.25.04-.39.06.14-.02.28-.04.39-.06.1-.02.2-.04.3-.07ZM11.24,32.47h0ZM10.84,32.3s.02,0,.03.01c.12.05.24.1.36.15-.12-.05-.25-.1-.36-.15,0,0-.02,0-.03-.01ZM9.38,31.51c0,.07-.01.23.02.46.01.1.03.19.06.28-.02-.09-.04-.18-.06-.28-.01-.1-.02-.21-.02-.31v-.15ZM33.01,31.92c-.13.07-.27.15-.4.22.14-.07.28-.14.4-.22ZM21.31,32.97c-2.32,0-10.07-.22-12.25-3.07-.24-.31-.53-.78-.58-1.28,0-.01-.13-1.22.2-1.36h.03s.27.01.27.01l.03.03c1.47,1.41,3.98,2.04,5.35,2.3.83.16,1.67.24,2.5.31,1.09.1,2.22.21,3.31.49,1.66.43,3.3,1.2,4.51,2.11l.29.22h-.37c-.24,0-.5.05-.75.09-.21.04-.43.07-.64.08-.57.03-1.23.05-1.9.05ZM21.31,32.72h0c.39,0,.77,0,1.13-.02-.36.01-.75.02-1.13.02h0ZM9.25,29.74s0,0,0,0c1.67,2.18,7.25,2.96,11.96,2.97-4.7-.01-10.29-.8-11.96-2.97,0,0,0,0,0,0ZM24.24,32.52l-.37.07c.13-.02.26-.04.38-.06,0,0,0,0-.01,0ZM8.96,27.93c-.01.22,0,.48.01.63.05.41.32.82.48,1.03,1.63,2.12,7.19,2.88,11.86,2.88.66,0,1.31-.02,1.88-.05.12,0,.25-.02.38-.05-1.04-.64-2.29-1.16-3.53-1.48-1.04-.27-2.14-.38-3.21-.48-.86-.08-1.72-.16-2.57-.32-1.32-.25-3.72-.85-5.3-2.16ZM19.96,30.62s.09.02.14.04c.49.13.98.28,1.46.47-.48-.18-.96-.34-1.46-.47-.05-.01-.09-.02-.14-.04ZM8.87,27.52l.08.07c1.53,1.39,4.02,2.01,5.37,2.26.48.09.96.15,1.44.21-.48-.05-.96-.12-1.44-.21-1.38-.26-3.92-.9-5.44-2.33h0ZM8.75,27.54c-.05.16-.06.58-.04.89-.01-.25,0-.58.02-.78l.02-.11ZM26.62,32.97l-.1-.07c-.21-.14-.42-.29-.64-.44-1.08-.74-2.2-1.51-3.44-1.92l-.2-.06.15-.14c.21-.2.53-.23.78-.23.13,0,.27,0,.4.02.17,0,.33.02.47.01,1.26-.08,2.53-.24,3.76-.39.34-.04.67-.08,1.01-.12l.29-.03-2.48,3.38ZM26.39,32.5c.06.04.12.08.18.12l2-2.72h0l-2,2.72-.1-.07s-.05-.03-.08-.05ZM22.79,30.4c1.17.43,2.22,1.16,3.24,1.86.03.02.07.05.1.07-.03-.02-.06-.04-.1-.07-.88-.6-1.78-1.22-2.75-1.66l-.46-.21s-.02,0-.03,0ZM23.93,30.64c.79.41,1.52.92,2.24,1.41.12.08.23.16.34.23l1.51-2.06-.2.02c-1.22.15-2.48.3-3.74.38-.05,0-.1,0-.15,0ZM23.36,30.36h.2c.13.02.25.03.36.03-.11,0-.24,0-.36-.01-.07,0-.13,0-.2-.01ZM25.55,30.26c-.5.05-.99.09-1.49.13-.04,0-.09,0-.13,0,.05,0,.09,0,.13,0,.5-.03.99-.08,1.49-.13ZM27.96,29.98s-.08,0-.12.02c-.11.01-.22.03-.34.04.1-.01.19-.02.29-.03l.17-.02ZM8.69,32.92H2.47l-.6-10.49c-.06-2.65-.24-5.33-.41-7.92-.09-1.46-.19-2.96-.27-4.44,0-.14-.02-.32.02-.49l.02-.08.08-.02s.05-.03.08-.04c.05-.03.09-.06.14-.06h2.27l.04.05c.19.28.28.58.37.88.09.28.17.58.36.86,1.06,1.67,3.87,2.67,7.5,2.67,1.67,0,3.36-.23,4.54-.61.78-.25,3.32-1.26,3.47-3.65v-.12s2.65-.05,2.65-.05l.13.2v.05s-.77,6.66-.77,6.66h-.11c-3.87,0-7.2.8-9.89,2.35-1.43.83-4.72,3.13-4.29,6.6.02.14.1.35.18.53.09.21.16.38.16.51,0,.15-.08.37-.17.6-.07.19-.15.39-.17.53-.04.32-.04,1.02,0,1.32.03.27.17.55.3.82.12.25.24.49.28.72.05.32.07.67.08,1,.02.49.04,1,.19,1.46l.05.16ZM2.71,32.67h5.64s-.02-.07-.03-.1l.02.1H2.71l-.21-3.63.21,3.63ZM2.95,32.42h5.1c-.06-.37-.08-.74-.09-1.1-.01-.34-.03-.65-.07-.94-.03-.16-.13-.38-.23-.58-.15-.31-.3-.62-.34-.97-.04-.34-.04-1.08,0-1.44.02-.2.12-.44.2-.65.04-.1.14-.35.14-.41,0-.04-.08-.23-.12-.31-.1-.23-.19-.46-.22-.67-.47-3.77,3.02-6.22,4.54-7.09,2.69-1.55,5.98-2.36,9.8-2.42l.67-5.9-1.78.03c-.26,1.67-1.67,3.07-3.78,3.75-1.24.4-2.95.63-4.69.63-1.83,0-6.26-.28-7.92-2.9-.22-.35-.32-.69-.41-.98-.06-.21-.12-.4-.21-.57h-1.83c0,.05,0,.1,0,.16.07,1.41.17,2.84.26,4.22v.21c.18,2.61.36,5.29.42,7.93l.58,10.01ZM8.06,30.13c.03.07.05.14.06.21.05.31.06.62.08.96,0,.04,0,.08,0,.12,0-.04,0-.08,0-.12-.01-.34-.03-.66-.08-.97-.01-.07-.03-.14-.06-.21ZM7.56,28.87c.05.28.18.55.31.82,0,0,0,0,0,0,0,0,0,0,0,0-.13-.26-.26-.54-.31-.82ZM7.57,27.33s-.01.06-.01.08c-.04.33-.05.98-.02,1.32-.03-.34-.02-1,.02-1.32,0-.03,0-.05.01-.08ZM7.57,27.33s0,0,0,0c0,0,0,0,0,0ZM7.58,27.27s0,0,0,0t0,0ZM7.86,26.48c-.03.09-.07.2-.12.34-.06.14-.12.3-.15.44.04-.14.1-.29.15-.44.04-.11.09-.24.12-.34ZM7.57,25.39c.03.16.11.34.18.51.1.24.14.34.14.41,0,.03,0,.06-.01.1,0-.04.01-.07.01-.1,0-.08-.08-.26-.14-.42-.07-.17-.15-.36-.18-.51ZM14.96,17.13c-1.07.36-2.07.8-2.99,1.33-.23.13-.5.3-.8.5.3-.2.57-.37.8-.5.92-.53,1.92-.98,2.99-1.33ZM14.96,17.13s0,0,0,0c0,0,0,0,0,0ZM22.23,12.95l-.36,3.13h0l.36-3.13ZM11.98,14.1h.08-.08ZM11.92,14.1s.04,0,.05,0c-.02,0-.04,0-.05,0ZM11.88,14.1h.02-.02ZM11.86,14.1h.02-.02ZM11.85,14.1h0,0ZM8.81,13.8c1.15.23,2.26.29,3.02.3-.76,0-1.87-.07-3.02-.3ZM13.49,14.05,13.5,14.05h0,0ZM13.5,14.05h0,0ZM17.08,13.34c-.13.05-.27.1-.4.14-.87.28-1.98.48-3.17.57,1.19-.09,2.3-.29,3.18-.57.14-.04.27-.09.4-.14ZM8.81,13.8s0,0,0,0t0,0ZM8.81,13.8s0,0,0,0c0,0,0,0,0,0ZM8.8,13.8h0,0ZM8.8,13.8h0s0,0,0,0ZM3.85,10.04c.04.11.08.23.11.35.07.24.15.49.28.74-.13-.25-.2-.5-.28-.73-.04-.12-.07-.24-.12-.35ZM20.32,9.72c-.02.17-.05.35-.09.51.03-.13.06-.27.08-.41v-.11s.01,0,.01,0ZM1.45,9.7s0,0,0,0l.04-.03s-.03.02-.04.02ZM1.55,9.64s0,0-.01,0h.04s2.01,0,2.01,0H1.55ZM28.52,32.42l-.48-.21.11-.13c.21-.25.42-.54.61-.81.42-.58.85-1.18,1.42-1.62.54-.42,1.17-.69,1.79-.95.46-.19.93-.4,1.35-.65.06-.03.18-.13.3-.23.65-.5.89-.64,1.04-.55l.04.03v.05c.7,3.39-3.43,4.39-5.9,4.99l-.28.07ZM28.54,32.15h0s.2-.05.2-.05c.27-.07.56-.14.86-.21-.3.08-.58.15-.86.21l-.2.05ZM28.45,32.11h0s.15-.2.15-.2c.12-.16.25-.33.36-.5.14-.19.28-.38.42-.57-.15.19-.29.38-.42.57-.17.23-.34.47-.52.69ZM34.29,27.95c-.1.07-.22.16-.36.27-.19.14-.29.22-.35.25-.45.27-.93.48-1.4.68-.64.27-1.21.52-1.7.89-.5.39-.91.96-1.31,1.51-.05.07-.11.15-.16.22,2.28-.56,5.38-1.43,5.28-3.83ZM33.48,28.24s-.02.01-.03.02c-.44.27-.92.47-1.38.67-.22.1-.45.19-.67.3.21-.1.43-.19.66-.29.48-.21.96-.41,1.39-.67,0,0,.02-.01.03-.02ZM33.78,28.02s0,0,0,0c-.04.03-.08.06-.12.09.04-.03.08-.06.12-.09,0,0,0,0,0,0ZM34.51,27.67v.04s.01.06.01.1c0-.04,0-.09-.01-.14ZM21.41,29.47c-1.58,0-3.21-.07-4.48-.19-2.57-.25-7.05-1.03-8.22-3.44-.52-1.07-.32-2.33.6-3.76,2.18-3.39,7.78-4.98,12.06-5.04h.24c4.02,0,7.9,1.11,10.38,2.98,1.29.97,2.7,2.61,2.8,4.33.06.94-.29,1.78-1.04,2.49-2.4,2.29-8.76,2.64-12.34,2.64ZM18.18,29.12c1.01.06,2.13.1,3.23.1h.03-.03c-1.1,0-2.22-.03-3.23-.1ZM21.61,17.53h-.24c-4.15.05-9.57,1.58-11.64,4.81-.82,1.27-1.01,2.37-.57,3.27,1.11,2.28,5.84,2.97,7.82,3.17,1.26.12,2.87.19,4.43.19,2.82,0,9.63-.24,12-2.5.63-.61.93-1.31.88-2.1-.09-1.55-1.46-3.1-2.6-3.96-2.4-1.8-6.17-2.88-10.08-2.88ZM34.38,25.46c-.07.2-.17.4-.3.59.12-.19.22-.38.3-.59ZM9.64,22.02c-.04.06-.08.12-.12.19-.26.41-.47.81-.61,1.19.14-.38.34-.77.61-1.18.04-.06.08-.12.12-.19ZM21.59,17.28h-.22c-2.82.04-5.27.61-7.23,1.44,2.29-.95,4.95-1.42,7.23-1.44h.22ZM22.88,17.32h0,0ZM21.61,17.28c.43,0,.85.01,1.27.04-.42-.02-.84-.04-1.27-.04h0ZM12.76,13.15c-.44,0-.88-.02-1.31-.04h-.1s-.06,0-.09,0c-.09,0-.19,0-.29.01-.11,0-.22.01-.33.01-.21,0-.47-.02-.68-.17l-.05-.04V1.26h4.35l.03.02c.13.08.16.19.18.29.07.37.04,1.08.02,1.66,0,.15-.01.29-.01.4-.01.52-.05,1.06-.09,1.58-.04.54-.08,1.09-.09,1.63-.01.7,0,1.41,0,2.1.01,1.3.03,2.64-.1,3.96v.07s-.07.03-.07.03c-.12.06-.25.09-.41.11-.31.03-.63.04-.98.04ZM12.77,12.9h0,0ZM12.75,12.9h0,0ZM12.77,12.9h0,0ZM12.78,12.9h0ZM12.74,12.9h0,0ZM12.73,12.9h0,0ZM12.72,12.9h0,0ZM12.71,12.9h0,0ZM12.7,12.9h0ZM12.69,12.9h0,0ZM12.68,12.9h0,0ZM12.67,12.9h0,0ZM12.66,12.9h0,0ZM12.65,12.9h0,0ZM12.64,12.9h0,0ZM12.63,12.9h0,0ZM12.61,12.9h0,0ZM12.6,12.9h0,0ZM12.59,12.9h0,0ZM11.36,12.86h.1c.37.02.75.04,1.13.04-.37,0-.74-.02-1.1-.04h-.13ZM13.92,12.82h-.03c-.05.02-.11.03-.18.04-.2.02-.41.03-.64.04.22,0,.43-.02.64-.04.08,0,.14-.02.2-.04ZM10.64,12.88h0,0ZM10.22,12.82c.1.04.24.06.42.06-.16,0-.29-.02-.39-.05h-.03ZM11.03,12.86s-.04,0-.07,0c-.02,0-.05,0-.07,0,.04,0,.09,0,.14,0ZM11.26,12.86s-.08,0-.12,0c.04,0,.08,0,.12,0h0ZM11.27,12.61h.24c.74.04,1.55.07,2.19,0,.02,0,.04,0,.05,0,.1-1.21.09-2.45.07-3.65v-.09c0-.67-.02-1.36,0-2.03.01-.55.05-1.14.09-1.65.04-.49.08-1.04.09-1.56,0-.08,0-.16,0-.26v-.15c.02-.43.05-1.06,0-1.46h-3.58v10.85c.13.02.34.02.53,0,.11,0,.22-.01.32-.01ZM14.06,6.71s0,.09,0,.13c-.01.67,0,1.36,0,2.02v.09c0,.14,0,.28,0,.42,0-.14,0-.28,0-.42,0-.69-.02-1.41,0-2.11,0-.04,0-.09,0-.13ZM14.22,1.55v.07c.08.4.05,1.1.03,1.61v.15c0,.09-.01.18-.01.25,0,.12,0,.24-.01.37,0-.12,0-.24.01-.36,0-.11,0-.25.01-.41.02-.53.05-1.26-.02-1.6,0-.03-.01-.05-.02-.07ZM9.11,12.89l-.2-.03c-2.18-.36-3.55-1.26-4.06-2.68-.05-.14-.08-.3-.12-.45-.08-.36-.16-.73-.45-.9-.06-.03-.13-.05-.22-.08-.17-.04-.35-.1-.46-.27l-1.22-4.12.07-.32.07-.02,3.57-1.07.18.14v.04s2.81,9.76,2.81,9.76ZM5.88,11.29c.62.59,1.53,1.01,2.71,1.25h-.03c-1.17-.25-2.07-.67-2.68-1.25ZM4.07,8.22s.11.03.14.04c.09.03.22.06.34.13.48.28.6.8.69,1.22v.03c.03.13.06.25.1.35.4,1.11,1.43,1.86,3.08,2.24L5.91,3.54l-2.96.89,1.12,3.8ZM5.88,11.29h0s0,0,0,0ZM5.88,11.28h0ZM4.62,8.76c.16.17.25.39.31.62-.06-.23-.15-.45-.31-.62ZM3.12,5.88l.74,2.5c.03.05.12.08.22.11-.08-.02-.15-.05-.2-.1l-.03-.05-.73-2.46ZM2.69,4.24v.07s0-.06,0-.06l.07-.03-.07.02ZM6.07,3.23l-2.6.78,2.6-.78h0ZM15.02,12.88l3.26-8.96.27-.14,3.39,1.43-1.33,3.25c-.11.17-.3.22-.5.27-.1.03-.2.06-.27.09-.3.18-.4.6-.49,1.01-.04.2-.09.41-.17.59-.56,1.34-2.42,2.24-3.97,2.43l-.2.03ZM18.48,4.1l-3.09,8.48h0l.08-.21,3.01-8.27h0ZM19.02,10.14c-.02.07-.04.13-.07.19-.48,1.15-2.02,1.94-3.34,2.21,1.37-.28,2.86-1.07,3.34-2.21.03-.06.05-.12.07-.19ZM18.65,4.37l-2.87,7.87c1.17-.29,2.53-1.01,2.94-2.01.06-.14.1-.33.14-.51.11-.49.24-1.04.73-1.33.12-.07.26-.11.39-.14.04-.01.15-.04.2-.06l1.11-2.71-2.64-1.11ZM19.12,9.75s0,.02,0,.03h0s0,0,0,0c0-.01,0-.02,0-.03ZM20.21,8.44s-.1.03-.16.05c-.11.03-.23.07-.33.12-.36.21-.48.62-.58,1.03.09-.4.22-.82.58-1.03.09-.05.21-.09.33-.12.05-.01.11-.03.16-.05ZM21.42,5.81l-1.04,2.54s0,0,0,0l1.03-2.53Z" style="fill: #006ab7;"/>
    </g>
  </g>
  <g>
    <g>
      <path d="M24.98,21.99c-.34,0-.54-.27-.56-.53-.02-.26.11-.56.48-.63.04,0,.09-.01.13-.01.35,0,.55.3.55.59,0,.28-.18.58-.58.58h0Z" style="fill: #006ab7;"/>
      <path d="M24.99,22.12h0c-.41,0-.66-.32-.69-.65-.03-.32.14-.68.58-.76.55-.09.82.32.82.7,0,.35-.24.71-.71.71ZM25.02,20.95s-.07,0-.1,0c-.3.06-.39.3-.38.49.02.21.18.42.44.42h0c.36,0,.46-.29.46-.46,0-.19-.11-.46-.42-.46Z" style="fill: #006ab7;"/>
    </g>
    <g>
      <path d="M25.02,20.95c.54,0,.6.92-.04.92h0c-.52,0-.63-.8-.06-.91.04,0,.07-.01.1-.01M25.02,20.7s-.1,0-.15.01c-.38.07-.61.39-.58.76.04.37.33.65.69.65.47,0,.71-.36.71-.71,0-.41-.29-.71-.67-.71h0Z" style="fill: #006ab7;"/>
      <path d="M24.98,22.24c-.43,0-.77-.32-.81-.76-.04-.44.24-.81.68-.9.06-.01.12-.02.17-.02.45,0,.8.36.8.84,0,.41-.29.83-.83.83ZM24.94,21.99s.03,0,.05,0h0s-.03,0-.05,0ZM24.43,21.56c.03.12.09.22.18.3-.09-.08-.15-.19-.18-.3ZM25.02,21.07s-.05,0-.08,0c-.22.04-.29.21-.27.36.01.15.12.31.32.31.25,0,.34-.17.34-.33,0-.17-.1-.34-.3-.34ZM25.4,20.98c.11.11.17.28.17.43,0,.04,0,.09-.01.13,0-.04.01-.09.01-.13,0-.17-.06-.33-.17-.43ZM25.02,20.82s-.07,0-.11,0c.04,0,.08,0,.11,0h0Z" style="fill: #006ab7;"/>
    </g>
  </g>
  <g>
    <g>
      <path d="M21.6,25.8c-.13,0-.26-.05-.37-.15-.19-.17-.26-.39-.18-.6.09-.25.36-.43.63-.43.14,0,.27.05.37.15.16.16.19.39.1.62-.1.24-.32.41-.55.41Z" style="fill: #006ab7;"/>
      <path d="M21.6,25.92c-.16,0-.32-.06-.46-.18-.23-.2-.31-.48-.21-.74.11-.29.43-.51.75-.51.17,0,.33.06.46.19.19.19.24.48.12.76-.12.29-.39.48-.66.48ZM21.68,24.74c-.21,0-.44.15-.51.35-.06.16-.01.33.14.46.25.22.59.1.72-.21.08-.18.05-.37-.07-.49-.07-.08-.17-.11-.28-.11Z" style="fill: #006ab7;"/>
    </g>
    <g>
      <path d="M21.68,24.74c.1,0,.2.03.28.11.27.27,0,.82-.36.82-.09,0-.19-.04-.29-.12-.4-.35,0-.81.37-.81M21.68,24.49c-.32,0-.64.22-.75.51-.1.26-.02.53.21.74.14.12.29.18.46.18.28,0,.54-.19.66-.48.11-.28.07-.57-.12-.76-.12-.12-.28-.19-.46-.19h0Z" style="fill: #006ab7;"/>
      <path d="M21.6,26.05c-.19,0-.38-.07-.54-.22-.27-.24-.36-.56-.24-.87.13-.34.49-.59.86-.59.21,0,.4.08.55.22.23.23.28.57.15.9-.14.34-.45.56-.78.56ZM21.29,25.7c.09.06.2.1.3.1-.1,0-.21-.03-.3-.1ZM22.11,25.46c-.11.21-.31.34-.52.34.21,0,.4-.13.52-.34ZM21.68,24.87c-.16,0-.34.12-.4.27-.04.11,0,.22.11.32.19.17.43.07.52-.16.02-.05.08-.23-.04-.35-.05-.05-.12-.08-.19-.08ZM21.68,24.62c-.23,0-.46.13-.58.33.12-.19.35-.33.58-.33Z" style="fill: #006ab7;"/>
    </g>
  </g>
  <g>
    <g>
      <path d="M17.85,21.99c-.2,0-.36-.09-.45-.24-.12-.2-.12-.43,0-.62.11-.19.32-.32.53-.32s.38.12.48.33c.09.2.08.4-.02.56-.11.17-.32.28-.54.28Z" style="fill: #006ab7;"/>
      <path d="M17.85,22.12c-.24,0-.45-.11-.56-.3-.14-.24-.14-.51,0-.74.13-.23.39-.38.64-.38s.48.15.59.41c.11.24.1.48-.03.68-.13.21-.38.34-.64.34ZM17.93,20.94c-.17,0-.33.1-.42.25-.09.15-.08.33,0,.49.07.11.19.18.34.18.18,0,.35-.09.43-.22.08-.12.08-.28,0-.44-.08-.17-.21-.26-.37-.26Z" style="fill: #006ab7;"/>
    </g>
    <g>
      <path d="M17.93,20.94c.14,0,.28.08.37.26.19.41-.15.67-.44.67-.14,0-.27-.06-.34-.18-.22-.39.11-.75.42-.75M17.93,20.69h0c-.26,0-.51.15-.64.38-.13.23-.13.5,0,.74.11.19.32.3.56.3.26,0,.51-.13.64-.34.13-.2.14-.44.03-.68-.12-.26-.33-.41-.59-.41h0Z" style="fill: #006ab7;"/>
      <path d="M17.85,22.24c-.29,0-.53-.14-.67-.37-.16-.28-.16-.6,0-.87.16-.27.45-.44.75-.44s.57.17.71.48c.13.28.12.57-.04.8-.15.24-.45.39-.75.39ZM17.93,21.06c-.12,0-.25.08-.32.19-.05.08-.08.21,0,.37.06.1.18.11.23.11.13,0,.27-.07.33-.17.06-.09.06-.2,0-.32-.06-.12-.14-.19-.25-.19ZM18.41,21.16c.03.07.05.14.06.21,0-.07-.03-.14-.06-.21ZM17.41,21.11v.02s-.02.02-.03.03v-.03s.02-.02.03-.02ZM17.93,20.81c.21,0,.38.12.48.33-.1-.21-.27-.33-.48-.33Z" style="fill: #006ab7;"/>
    </g>
  </g>
  <g>
    <g>
      <path d="M30.1,24.51c-.14,0-.26-.05-.34-.14-.11-.12-.15-.29-.12-.52.04-.33.32-.5.58-.5.15,0,.29.05.38.15.24.24.19.48.14.59-.1.24-.37.42-.64.42Z" style="fill: #006ab7;"/>
      <path d="M30.1,24.64c-.18,0-.33-.06-.43-.19-.13-.15-.18-.35-.15-.62.04-.4.39-.61.7-.61.18,0,.35.07.47.19.3.3.22.61.17.73-.12.29-.44.49-.75.49ZM30.22,23.47c-.21,0-.43.13-.46.39-.02.19,0,.33.09.42.06.07.14.1.25.1.21,0,.45-.15.52-.34.05-.11.06-.28-.12-.46-.07-.07-.18-.11-.29-.11Z" style="fill: #006ab7;"/>
    </g>
    <g>
      <path d="M30.22,23.47c.11,0,.22.04.29.11.38.38-.06.8-.41.8-.21,0-.38-.14-.34-.52.03-.25.25-.39.46-.39M30.22,23.22c-.32,0-.66.21-.7.61-.03.26.02.47.15.62.11.12.26.19.44.19.31,0,.64-.21.76-.49.1-.25.04-.52-.17-.73-.12-.12-.29-.19-.47-.19h0Z" style="fill: #006ab7;"/>
      <path d="M30.1,24.76c-.21,0-.4-.08-.53-.23-.16-.17-.22-.42-.19-.71.05-.47.46-.72.83-.72.22,0,.42.08.56.22.25.25.32.57.2.87-.14.33-.5.57-.87.57ZM29.67,24.21c.02.06.05.12.09.16.02.02.04.04.07.06-.02-.02-.05-.04-.07-.06-.04-.04-.07-.1-.09-.16ZM30.22,23.6c-.14,0-.31.09-.33.28-.02.15,0,.26.06.33.12.13.48,0,.57-.2.04-.11.01-.22-.09-.32-.05-.05-.12-.08-.2-.08ZM30.77,23.83c.02.11,0,.2-.03.27-.02.04-.04.08-.07.12.03-.04.05-.08.07-.12.04-.09.05-.18.03-.27ZM29.65,24.14h0s0,0,0,0ZM30.2,23.35c-.26,0-.53.18-.56.5-.01.11,0,.21.01.29-.02-.09-.02-.18-.01-.29.03-.32.31-.49.56-.5Z" style="fill: #006ab7;"/>
    </g>
  </g>
  <g>
    <g>
      <path d="M13.09,24.48c-.23,0-.43-.14-.52-.37-.09-.22-.04-.46.12-.62.11-.11.24-.16.39-.16.26,0,.52.19.61.44.07.21,0,.43-.21.58-.12.09-.25.13-.38.13Z" style="fill: #006ab7;"/>
      <path d="M13.09,24.61c-.28,0-.53-.17-.64-.44-.11-.26-.05-.55.15-.76.13-.13.3-.2.48-.2.32,0,.63.23.72.53.08.26-.01.54-.26.71-.14.1-.3.15-.45.15ZM13.07,23.46c-.11,0-.21.04-.3.13-.13.13-.16.31-.09.48.11.28.44.38.71.18.16-.11.22-.27.17-.44-.06-.2-.28-.36-.49-.36Z" style="fill: #006ab7;"/>
    </g>
    <g>
      <path d="M13.07,23.46c.38,0,.74.49.32.79-.11.08-.21.11-.3.11-.37,0-.6-.48-.32-.77.09-.09.2-.13.3-.13M13.07,23.21h0c-.18,0-.34.07-.48.2-.2.2-.26.49-.15.76.11.27.36.44.64.44.15,0,.31-.05.45-.15.25-.18.35-.45.26-.71-.1-.3-.41-.53-.73-.53h0Z" style="fill: #006ab7;"/>
      <path d="M13.09,24.73c-.33,0-.62-.2-.75-.52-.13-.31-.06-.66.17-.89.16-.16.35-.24.56-.24.37,0,.73.26.84.62.1.32-.01.65-.3.85-.16.12-.34.18-.52.18ZM12.58,24.16c.1.2.29.32.5.32-.21,0-.41-.13-.5-.32ZM13.7,23.87c.02.18-.06.36-.23.49-.02.02-.04.03-.07.04.02-.01.05-.03.07-.04.18-.13.26-.3.23-.49ZM13.07,23.58c-.08,0-.15.03-.21.09-.09.09-.12.22-.07.35.08.21.32.27.52.12.12-.08.16-.18.12-.29-.05-.15-.21-.27-.37-.27ZM12.68,23.5c-.15.15-.2.36-.14.55-.06-.2,0-.41.14-.55Z" style="fill: #006ab7;"/>
    </g>
  </g>
</svg>