<?xml version="1.0" encoding="UTF-8"?>
<svg id="Capa_1" data-name="Capa 1" xmlns="http://www.w3.org/2000/svg" viewBox="0 0 23.79 37.89">
  <path d="M19.12,9.2c1.18.21.12,1.89-.09,2.58-.43,1.42-.71,3.25-.6,4.73.22,2.95,1.94,4.6.97,8.04-.76,2.71-3.07,4.08-5.73,4.52-.38,1.2-.01,3.71.91,4.61,1.17,1.14,3.47.6,4.37,1.46,1.31,1.25-1.3,2.12-2.17,2.32-2.5.55-9.13.71-11.36-.51-1-.55-1.27-1.49-.14-2.07,1.71-.88,3.47.12,4.46-2.16.5-1.14.61-2.38.42-3.61-1.02-.32-2.01-.47-2.95-1.02-2.12-1.23-3.14-3.38-3.12-5.81.02-2.11,1.14-3.97,1.29-6.07.1-1.33-.2-.84-1.21-1.08C-3.23,13.36.13,2.45,7.19,5.04c1.83.67,2.92,2.3,3.35,4.14h5.85s1.17-3.39,1.17-3.39l-4.15-1.55c-.36-.12-.4-.53-.3-.86.11-.37,6.21-2.99,7.01-3.38.27,0,.5.16.62.4.83,2.07,2.18,4.18,2.94,6.25.24.65.08,1.13-.7,1.07l-4.13-1.47-1.07,2.95c.41.05.95-.07,1.33,0ZM19.44,2.21l-1.84,2.16c.03.12,1.94.81,2.06.78.14-.04.14-.2.15-.31.04-.34-.1-2.07-.2-2.39-.03-.1-.03-.22-.17-.24ZM17.24,2.76c-.14-.11-1.95.77-1.84.92l.77.27.71-.68.36-.51ZM21.01,4.05v1.33c0,.32.52.53.79.59.14.03.15.01.13-.13-.06-.39-.67-1.44-.92-1.79ZM9.15,9.2c0-1.08-.91-2.29-1.85-2.79C3.83,4.55.02,7.96,1.54,11.61c.54,1.29,2.2,2.59,3.66,2.32-.08-.64-.22-1.36-.4-1.99-.16-.55-.9-2.01-.62-2.42.06-.09.43-.31.51-.31h4.46ZM18.16,10.48H5.66c.5,1.73.99,3.51.92,5.33,1.39-.11,2.64.41,3.88.95.48.21.95.54,1.46.74,1.78.69,3.56.61,5.41.24-.28-2.49-.02-4.92.83-7.26ZM6.82,17.03c-.56.13-.36.63-.45,1.02-.27,1.09-.89,2.32-.99,3.42-.48,5.12,3.13,6.82,7.67,6.48,5-.37,6.47-4.74,4.65-8.97-.2-.15-.51.09-.72.12-1.72.26-3.69.16-5.33-.42-1.3-.47-3.45-1.98-4.84-1.65ZM12.37,29.24h-.92c.22,1.89-.26,4.6-1.94,5.74-1.12.76-1.78.47-2.94.74-.17.04-.4.11-.36.33,2.16.47,4.54.75,6.76.65.75-.03,1.82-.11,2.56-.2.67-.08,1.33-.3,1.99-.45.03-.21-.02-.18-.18-.23-.69-.2-1.48-.12-2.2-.38-2.33-.83-3.11-3.98-2.77-6.2Z" style="fill: #006ab7;"/>
</svg>