<?xml version="1.0" encoding="UTF-8"?>
<svg id="Capa_1" data-name="Capa 1" xmlns="http://www.w3.org/2000/svg" viewBox="0 0 33.88 33.19">
  <path d="M29.49,21.85c-.05.2-.31.38-.37.55-.15.45.2,2.84.38,3.37.41,1.23,2.57,3.52,2.69,4.26.22,1.4-.72,2.54-2.17,2.33s-2.36-2.52-3.22-3.49c-.03,0-.11.51-.12.6-.07.74-.06,2.13-.37,2.75-.42.84-1.51,1.12-2.35.85-.57-.19-.93-.88-1.63-.91-.7,1-1.89,1.4-2.94.62-.78-.58-1.3-3.37-1.41-4.36-.21-1.89.15-2.95.45-4.72.12-.69-.29-.53-.61-1.03-.85-1.34.17-2,.31-3.1.15-1.22-.13-2.53-.17-3.75-.04-1.53-.26-3.33.77-4.56.03-.19-.43-.39-.57-.52-3.34-3.14-.98-8.25,3.51-7.82.79.08,1.37.51,2.07.8.69-.33,1.3-.72,2.08-.8,2.98-.28,5.36,2.17,4.98,5.14-.03.25-.4,1.11-.38,1.2.05.22.53.18.7.25.39.15.86.68,1,1.07.48,2.42.85,4.86,1.26,7.29.12.71.53,2.08.46,2.74-.06.6-.6,1.24-1.2,1.36-.38.08-1.78.14-2.2.12-.4-.02-.63-.24-.98-.23ZM22.89,19.25c.19-.23.48-.51.52-.8.18-1.28-.23-2.84-.08-4.16-.24-.8.21-1.37-.29-2.11-.25-.37-.98-.74-1.04-1.12-.11-.66.87-.66.92-.93-1.26-1.59-1.28-3.99,0-5.57-.34-.35-.91-.56-1.4-.61-3.89-.35-5.38,4.49-2.04,6.43.28.16.77.14.8.64.03.4-.67.73-.91,1.08-.1.15-.33.59-.36.76-.1.62-.05,2.2,0,2.87.02.23.1.44.08.68.21.02.13,0,.16-.12.24-.78-.16-2.71.09-3.1.15-.23.61-.22.79-.02.25.29.27,2.26.24,2.72-.13,2.09-1.15,3.38-1.72,5.23-.4,1.3.94,1.89,1.56.76.45-.81,1.47-3.45,1.66-4.33.22-1.06.2-2.33.18-3.42,0-.52-.32-1.15.42-1.38.58.13.58.71.62,1.22.2,2.82-.67,6.05-2.02,8.53-.33.6-.87.85-1.49,1.06-.79,2.13-.72,4.33-.22,6.53.17.73.34,2.11,1.29,2.06,1.31-.07.54-1.67.39-2.38-.26-1.23-.46-2.46-.33-3.72.06-.59.59-2.9.83-3.4.2-.42.51-.35.84-.6-.4-.74-.48-1.44-.02-2.17.14-.23.39-.41.55-.61ZM27.42,11.36c-.07-.12-.04-.63.05-.75.09-.11.92-.48,1.16-.67,2.72-2.17.5-6.87-3.25-5.89-2.53.66-3.21,4.31-1.17,5.92.34.27,1.05.51,1.27.73.54.56-.27.86-.59,1.23-.43.5-.69,1.19-.52,1.84.14-.04.07-.32.12-.48.27-.87.98-1.74,1.93-1.83.42-.04.74.07,1.15.07.08-.2-.12-.14-.14-.18ZM30.33,10.43c-.9.11-.55,1.23-.54,1.78.04,2.11.14,4.21.24,6.31.04.77.06,1.54.09,2.3.27.35.66.13.98.13.57,0,1.73.23,1.72-.59-.63-2.95-.92-5.98-1.54-8.93-.11-.51-.31-1.08-.96-1ZM24.02,11.08s-.31-.16-.34-.16l-.2.18.36.44c.14-.13.37-.27.18-.46ZM24.66,21.41c.84-.74,2.63-3.36,2.88-4.43.31-1.33.04-2.22-.13-3.5-.03-.23.08-.83-.14-.9-.55-.09-1.32-.01-1.57.57-.11.26.24,1.56.26,2.01.08,1.55-.41,2.26-1.26,3.46-.27.38-1.54,1.81-1.6,2.08-.1.44.19.99.62,1.11.3.08.72-.21.93-.39ZM28.76,13.45l-.32-.04c.02.22.12.43.15.65.04.25-.1.63.17.75v-1.36ZM24.47,14.87c-.05-.11.05-.51-.1-.42l.08,2.24.16.28c.35-.81.47-1.13.05-1.92-.07-.13-.18-.16-.18-.17ZM28.91,17.85c-.75-.36-.79.53-1.08,1.02-.48.83-1.14,1.74-1.75,2.49-.45.55-.76.59-1.02,1.37-.69,2.08-.9,4.63-1.1,6.81-.08.86-.66,2.61.76,2.6.83,0,.69-.79.76-1.32.36-2.76.55-5.54,1.38-8.21.15-.37.58-.37.85-.51,1.8-.97,1.16-2.56,1.2-4.25ZM23.49,23.24c-.05.46.04,1.01,0,1.48l.48-1.8-.4-.04c.03.13-.08.27-.08.35ZM28.04,23.12c-.32.07-.37.47-.46.78-.15.54-.62,2.61-.55,3.06.05.31.55,1.12.73,1.43.3.49,1.78,2.68,2.17,2.86.74.35,1.41-.24,1.2-1.04-.08-.31-1.17-1.6-1.44-2-.49-.73-1-1.5-1.24-2.36s-.26-1.83-.42-2.73ZM22.45,25.71c-.07-.54,0-1.34,0-1.92,0-.01-.08-.23-.16-.2-.28,1.38-.66,2.6-.56,4.04.05.73.44,2.72.86,3.29.05.07,0,.14.18.1l.32-3.4c-.12-.61-.57-1.32-.64-1.91Z" style="fill: #006ab7;"/>
  <path d="M7.48,2.96s-.31.06,0,.11c1.95-.52,4.11.08,5.17,1.86,1.31,2.22.74,4.64-1.28,6.16.47.55.85,1.28.94,2.01.12,1.11.14,2.74.17,3.9s.19,3.32-.19,4.29c-.34.88-.73.74-.69,1.86.07,1.78.4,2.85,1.36,4.31.41.63,1.66,2.03,1.75,2.64.22,1.45-.93,2.57-2.38,2.22-1.22-.29-2.21-2.57-3.05-3.46l-.25,2.59c-.22,1.74-2.42,2.41-3.45.9-.59-.87-.23-2.09-.14-3.05.14-1.54.3-3.09.58-4.61.11-.58.25-1.24.46-1.78-.01-.24-.78.13-1,.13-.83,0-1.77-.72-1.88-1.56-.22-1.79,1.33-2.14,2.3-3.29l-.07-3.09-.12-.12c-2.03.07-3.53-1.57-4.46-3.2C.85,11.08-.01,9.37,0,8.62c.02-.8.58-1.59,1.37-1.76V.63C1.49-.03,1.73-.09,2.32.08c1.66.48,3.37,1.47,5.04,1.99.45.25.37.53.12.89ZM2.4,1.51c-.08.58,0,1.53,0,2.16,0,.06.18.16.26.11l2.75-1.09.18-.22-3.01-1.15c-.1-.07-.18.15-.18.19ZM6.79,3.31l-4.26,1.59c-.24.16-.13,1.58-.09,1.92.19.2.46.27.67.45.6.49,1.08,2.12,1.57,2.9.22.34.62.97,1.04,1.04.1.02.96.03.83-.15-2.57-1.37-2.76-5.18-.64-7.07.27-.24.64-.4.88-.68ZM9.93,11.35c-.49-.65.59-1.01.96-1.27,2.55-1.75,1.4-5.9-1.58-6.13-3.77-.3-5.26,4.42-2.17,6.32.36.22,1.38.45.89,1.1-.29.39-.68.4-.97,1.02-.39.84-.19,1.09-.18,1.89s-.05,1.61.08,2.4c.02.12,0,.25.16.28.15-1.13.09-2.3.03-3.44.1-.54.74-.62.96-.15.19.38.17,2.63.13,3.15-.15,1.7-1.91,2.63-3.04,3.67-.4.37-.64.51-.55,1.11.1.66.75.81,1.3.51.65-.35,2.75-2.32,3.2-2.95.97-1.35.79-2.71.76-4.26,0-.44-.24-2.19.62-1.82.58.25.41,1.46.42,1.98.03,1.27.1,2.39-.36,3.63-.51,1.36-1.81,2.28-2.79,3.28-.69,2.86-1.3,5.79-1.48,8.74-.03.42-.09,1.2.23,1.48.53.48,1.22.13,1.42-.47.22-1.8.31-3.69.6-5.47.13-.8.48-2.6.79-3.29.21-.47.58-.4.93-.59.76-.42,1.22-1.17,1.24-2.04.03-1.67-.16-3.42-.25-5.1-.08-1.48.3-2.2-.92-3.32-.11-.1-.36-.19-.41-.27ZM2.53,8.13c-.46-.46-1.4-.31-1.49.42-.06.49.81,2.22,1.1,2.72.75,1.31,1.93,2.8,3.61,2.66l.16-1.68c-1.14.12-2.05-1.34-2.52-2.23-.23-.45-.58-1.61-.86-1.89ZM10.55,23.12c-.35.09-.35.41-.44.72-.18.58-.43,1.61-.51,2.2-.02.18-.08.76-.05.91.07.44.71,1.41.97,1.83.29.45,1.64,2.4,2.03,2.53.89.29,1.41-.58.92-1.4-.69-1.15-1.77-2.14-2.3-3.45-.42-1.05-.45-2.24-.61-3.34Z" style="fill: #006ab7;"/>
</svg>