<?xml version="1.0" encoding="UTF-8"?>
<svg id="Capa_1" data-name="Capa 1" xmlns="http://www.w3.org/2000/svg" viewBox="0 0 17.78 44.01">
  <path d="M1.2,43.06c-.53-.48-1-1.41-1.06-2.14-.18-1.96-.18-5.93,0-7.89.04-.47.32-.85.34-1.13s-.29-.72-.34-1.12c-.1-.86-.08-2.73,0-3.61.05-.51.37-.94.35-1.34-.02-.36-.31-.74-.35-1.24-.08-.85-.09-2.66,0-3.49.05-.42.34-.81.34-1.13s-.3-.71-.34-1.13c-.09-.81-.09-3.57.14-4.25.08-.25.42-.68.42-.81s-.37-.72-.42-1.04c-.13-.84.12-1.51.54-2.22l3.77-4.44c.03-.13-.4-.67-.46-.9-.13-.52-.13-2.84-.06-3.44.12-.99.92-1.53,1.86-1.63,1.24-.13,4.97-.16,6.16.03.88.14,1.46.79,1.61,1.66.11.66.13,2.2.05,2.88-.05.47-.43.96-.26,1.37,1.02,1.4,2.28,2.64,3.29,4.03.72.98.98,1.5.78,2.8-.05.33-.44.85-.44,1.02s.32.48.4.73c.31,1.03.22,3.55.03,4.65-.04.22-.26.46-.26.7,0,.26.24.44.28.68.21,1.21.21,3.28,0,4.49-.04.24-.28.42-.28.68s.23.48.26.7c.22,1.3.24,3.26,0,4.56-.04.23-.27.49-.28.72,0,.25.23.44.28.68.33,1.66.31,7.26,0,8.95-.28,1.55-2.22,2.7-3.73,2.55-.68-.07-2.02-.72-2.37-.73-.44,0-1.77.7-2.59.74-.98.04-2.07-.68-2.58-.69-.35,0-1.56.58-2.17.66-1.04.13-2.13-.22-2.9-.92ZM11.72,4.5v-2.2l-.17-.17h-5.29s-.28.26-.28.28v1.91l.17.17h5.57ZM7.08,6.55c-.31.07-.7.52-.92.76-.99,1.04-2.67,2.92-3.48,4.06-.52.74-.8,1.57.44,1.68,3.81.35,8.06-.43,11.93-.11.55-.02.78-.75.51-1.2l-4.06-5.06c-.15-.12-.32-.15-.5-.17-.64-.07-3.36-.1-3.91.03ZM2.16,18.91h13.33l.17-.17v-3.38s-.26-.28-.28-.28H2.33l-.17.17v3.66ZM2.16,21.22v3.49l.17.17h13.05s.2-.17.22-.23c.09-.19.12-3.01.06-3.32-.07-.35-.65-.37-.95-.4-3.7-.32-7.84.25-11.59,0l-.95.29ZM2.16,30.73h13.33l.17-.17v-3.38c0-.09-.36-.33-.5-.29-4.02.25-8.4-.31-12.38,0-.22.02-.41.07-.61.12v3.72ZM15.66,41.03v-7.99l-.17-.17H2.33l-.17.17v8.11s.38.51.45.56c1.3.98,2.61-.51,3.65-.51.75,0,1.02.49,1.58.68,1.69.56,2.8-.96,4.1-.62.36.09.8.47,1.21.59.79.24,2.28.19,2.5-.81Z" style="fill: #54c0e8;"/>
</svg>