<svg version="1.2" xmlns="http://www.w3.org/2000/svg" viewBox="0 0 238 94" width="238" height="94">
	<title>file</title>
	<defs>
		<clipPath clipPathUnits="userSpaceOnUse" id="cp1">
			<path d="m0.08-12h237.66v119.18h-237.66z"/>
		</clipPath>
	</defs>
	<style>
		.s0 { fill: #1469b0 } 
	</style>
	<g id="Clip-Path" clip-path="url(#cp1)">
		<g>
			<g>
				<path class="s0" d="m173.2 19.7c-8.1-2-15.3-4.2-22.2-6.4-5.7-1.8-11.2-3.5-16.7-4.9-8.4-2.3-16-3.4-23.1-3.6q-0.1 0-0.3 0-1.3 0-2.4 0-1.2 0-2.4 0-0.2 0-0.4 0c-7.1 0.2-14.6 1.3-23 3.6-5.6 1.4-11.1 3.1-16.8 4.9-6.9 2.2-14.1 4.4-22.2 6.4q-1.5 0.4-3 0.7c-6.2 1.4-15.9 2.9-27.4 2.9-12 0-22-1.5-28.4-2.9q-1.4-0.3-2.9-0.7c-8.1-2-15.3-4.2-22.2-6.4-5.7-1.8-11.2-3.5-16.7-4.9-8.5-2.3-16.1-3.4-23.2-3.6q-0.1 0-0.2 0-1.3 0-2.6 0-1.1 0-2.2 0-0.3 0-0.6 0.1c-7 0.2-14.5 1.2-22.9 3.5-5.5 1.4-11 3.2-16.7 4.9-6.9 2.2-14.1 4.4-22.2 6.5-30.2 7.5-57.3 1.2-64.5-0.7v15.6l3.8 1c4.2 1.1 15.6 3.8 30.4 3.8 9.3 0 18.3-1.1 26.8-3.2 7.7-1.9 14.7-4.1 21.4-6.2q3.1-1 6.5-2v-0.1l6.6-1.8q1.7-0.5 3.3-0.9l0.9-0.2c9-2.5 17.5-3.8 26.1-4.1 0.3 0 0.5 0 0.8 0q0.8 0 1.7 0h0.5 0.4 0.9c0.7 0 1.3 0 2 0h0.3c8.7 0.2 17.4 1.6 26.5 4l0.8 0.3q1.9 0.5 3.8 1l6.2 1.7v0.1q3.3 1 6.5 2c6.7 2.1 13.6 4.3 21.4 6.2q1.2 0.3 2.4 0.6c5.6 1.2 14.6 2.6 25.2 2.6 10.3-0.1 19-1.5 24.4-2.6q1.3-0.3 2.6-0.6c7.7-1.9 14.7-4.1 21.4-6.2q3.1-1 6.4-2v-0.1l6.7-1.8q1.7-0.5 3.4-0.9l0.8-0.3c9-2.4 17.6-3.8 26.3-4q0.2 0 0.5 0 0.9-0.1 1.8-0.1h0.7 0.3 0.2 0.7q0.9 0 1.9 0.1 0.2 0 0.5 0c8.6 0.2 17.2 1.6 26.3 4l0.8 0.3q1.9 0.5 3.9 1l6.1 1.7v0.1c2.2 0.7 4.4 1.4 6.5 2 6.7 2.1 13.6 4.3 21.4 6.2 8.4 2.1 17.5 3.2 26.8 3.2 14.8 0 26.2-2.7 30.3-3.8l3.9-1.1v-15.6c-7.3 2-34.4 8.2-64.5 0.7z"/>
				<path class="s0" d="m173.2 45.9c-8.1-2.1-15.3-4.3-22.2-6.5-5.7-1.8-11.2-3.5-16.7-4.9-8.4-2.3-16-3.3-23.1-3.6q-0.1 0-0.3 0-0.8 0-1.5 0-0.5 0-0.9 0-0.5 0-1 0-0.7 0-1.4 0-0.2 0-0.4 0c-7.1 0.3-14.6 1.3-23 3.6-5.6 1.4-11.1 3.2-16.8 4.9-6.9 2.2-14.1 4.4-22.2 6.5q-1.5 0.3-3 0.7c-6.2 1.3-15.9 2.8-27.4 2.9-12 0-22-1.6-28.4-3q-1.4-0.3-2.9-0.6c-8.1-2.1-15.3-4.3-22.2-6.5-5.7-1.7-11.2-3.4-16.7-4.9-8.5-2.3-16.1-3.3-23.2-3.5q-0.1 0-0.2 0-0.8-0.1-1.6-0.1-0.5 0-1 0-0.4 0-0.9 0-0.6 0-1.3 0-0.3 0-0.6 0.1c-7 0.2-14.5 1.3-22.9 3.5-5.5 1.4-11 3.2-16.7 4.9-6.9 2.2-14.1 4.4-22.2 6.5-10.8 2.6-21.1 3.6-30.3 3.6-16.7 0-29.6-3.1-34.2-4.3v15.6c7.6 1.7 19.6 3.7 34 3.7 10.9 0 23.1-1.2 35.8-4.3 8.8-2.2 16.6-4.6 23.5-6.8 6.1-1.9 11.5-3.6 16.8-4.9q0.5-0.1 1.1-0.3c5.4-1.3 10.6-2.1 16-2.3q0.1 0 0.2 0 0.5 0 0.9 0 0.3 0 0.7 0 0.1 0 0.2 0c6.2 0 12.1 0.9 18.2 2.4q0.5 0.1 0.9 0.2c5.3 1.3 10.8 3 17 4.9 5.3 1.7 11.3 3.6 17.8 5.3 1.7 0.6 6.5 1.9 13.5 3.2 9.9 1.9 19.3 2.6 27.9 2.6q0.2 0 0.4 0 0.2 0 0.4 0c8.5 0 17.9-0.7 27.8-2.6 7.1-1.3 11.9-2.6 13.5-3.2 6.6-1.7 12.5-3.6 17.9-5.3 6.1-1.9 11.5-3.6 16.8-4.9q0.6-0.1 1.1-0.2c5.4-1.3 10.6-2.2 16-2.4q0.1 0 0.2 0 0.4 0 0.9 0 0.3 0 0.6 0 0.1 0 0.3 0c6.2 0 12.1 0.9 18.2 2.4q0.4 0.1 0.8 0.2c5.4 1.3 10.9 3 17.1 5 6.9 2.1 14.7 4.5 23.4 6.7 12.8 3.2 25 4.3 35.8 4.3 14.5 0 26.5-2 34.1-3.7v-15.6c-4.7 1.3-17.6 4.3-34.2 4.3-9.2 0-19.6-0.9-30.3-3.6z"/>
				<path class="s0" d="m164.4 69.9c-9.1-2.3-17.1-4.8-24.2-7-5.8-1.8-11.2-3.5-16.3-4.7h-0.1l-0.4-0.1-0.2-0.1c-5.6-1.3-10.3-1.9-14.8-2h-0.3-0.4-0.3c0 0 0 0 0 0q-0.1 0-0.2 0h-0.1-0.2c-4 0.2-8.2 0.8-13.1 2l-0.4 0.1-0.4 0.1h-0.1-0.1c-5 1.3-10.6 3-16.1 4.7-5 1.6-11.2 3.5-18.1 5.4-2.1 0.6-7.3 2.1-14.8 3.5-10 1.9-20.2 2.8-30.6 2.8h-0.3-0.4c-10.4 0-20.7-0.9-30.5-2.8-7.6-1.4-12.8-2.9-14.9-3.5-7-1.9-13.4-3.9-18.1-5.4-5.8-1.8-11.2-3.5-16.2-4.7h-0.1-0.1l-0.4-0.1-0.3-0.1c-5.5-1.3-10.2-2-14.7-2h-0.2-0.4-0.3c0 0-0.1 0-0.1 0q-0.1 0-0.3 0h-0.2c-4 0.2-8.2 0.8-13.1 2h-0.4l-0.4 0.2h-0.1-0.1c-5 1.2-10.4 2.9-16.1 4.7-7 2.2-15 4.7-24.2 7-12.5 3.1-25.8 4.7-39.3 4.7-13.5 0-25.8-1.7-34-3.4v15.5c7.6 1.7 19.5 3.6 34 3.6 10.8 0 23.1-1.1 35.8-4.3 8.8-2.1 16.6-4.6 23.4-6.7 6.1-1.9 11.6-3.6 16.9-4.9q0.5-0.2 1.1-0.3c5.4-1.3 10.6-2.1 16-2.3q0.1 0 0.2 0c0.6 0 1.2 0 1.8 0 6.2 0 12.1 0.9 18.2 2.3q0.4 0.1 0.9 0.3c5.3 1.3 10.8 3 16.9 4.9 5.4 1.7 11.4 3.5 17.9 5.3 1.6 0.5 6.4 1.9 13.5 3.2 9.9 1.8 19.3 2.6 27.9 2.6q0.2 0 0.4 0 0.1 0 0.3 0c8.6 0 18-0.7 27.9-2.6 7-1.3 11.8-2.7 13.5-3.2 6.5-1.8 12.5-3.6 17.8-5.3 6.1-1.9 11.6-3.6 16.9-4.9q0.5-0.1 1.1-0.3c5.4-1.3 10.6-2.1 16-2.3q0.1 0 0.2 0 0.9 0 1.7 0c6.3 0 12.2 0.9 18.3 2.4q0.4 0.1 0.8 0.2c5.3 1.3 10.9 3 17.1 4.9 6.9 2.2 14.6 4.6 23.4 6.8 12.8 3.2 25 4.3 35.8 4.3 14.5 0 26.5-2 34-3.7v-15.4c-8.2 1.6-20.1 3.3-34 3.3-13.9 0-26.8-1.6-39.3-4.7z"/>
			</g>
		</g>
	</g>
</svg>