<?xml version="1.0" encoding="UTF-8"?>
<svg id="Capa_1" data-name="Capa 1" xmlns="http://www.w3.org/2000/svg" xmlns:xlink="http://www.w3.org/1999/xlink" viewBox="0 0 160.46 103.03">
  <defs>
    <filter id="outer-glow-1" x="0" y="0" width="160.46" height="103.03" filterUnits="userSpaceOnUse">
      <feOffset dx="0" dy="0"/>
      <feGaussianBlur result="blur" stdDeviation="5"/>
      <feFlood flood-color="#000" flood-opacity=".25"/>
      <feComposite in2="blur" operator="in"/>
      <feComposite in="SourceGraphic"/>
    </filter>
  </defs>
  <path d="M147.35,30.01l13.12-14.27h-29.08C116.82,5.79,99.24,0,80.22,0S43.69,5.81,29.16,15.74H0l13.11,14.27C5.08,37.34.04,47.91.04,59.64c0,22.14,17.95,40.09,40.09,40.09,10.52,0,20.1-4.06,27.25-10.69l12.85,13.99,12.85-13.98c7.15,6.63,16.72,10.67,27.24,10.67,22.14,0,40.11-17.95,40.11-40.09.01-11.74-5.03-22.31-13.07-29.63h0ZM40.13,86.77c-14.99,0-27.13-12.14-27.13-27.13s12.14-27.13,27.13-27.13,27.13,12.14,27.13,27.13-12.14,27.13-27.13,27.13ZM80.23,58.85c0-17.85-12.98-33.18-30.12-39.72,9.27-3.87,19.43-6.02,30.1-6.02s20.85,2.15,30.12,6.02c-17.12,6.56-30.1,21.87-30.1,39.72h0ZM120.32,86.77c-14.99,0-27.13-12.14-27.13-27.13s12.14-27.13,27.13-27.13,27.13,12.14,27.13,27.13-12.14,27.13-27.13,27.13ZM120.32,45.4c-7.86,0-14.22,6.36-14.22,14.22s6.36,14.22,14.22,14.22,14.22-6.36,14.22-14.22-6.36-14.22-14.22-14.22h0ZM54.35,59.64c0,7.86-6.36,14.22-14.22,14.22s-14.22-6.36-14.22-14.22,6.36-14.22,14.22-14.22c7.86-.01,14.22,6.36,14.22,14.22Z" style="fill: #006ab7; filter: url(#outer-glow-1);"/>
</svg>